<?xml version="1.0" standalone="no"?>
<!DOCTYPE svg PUBLIC "-//W3C//DTD SVG 20010904//EN"
 "http://www.w3.org/TR/2001/REC-SVG-20010904/DTD/svg10.dtd">
<svg version="1.0" xmlns="http://www.w3.org/2000/svg"
 width="1190.000000pt" height="1190.000000pt" viewBox="0 0 1190.000000 1190.000000"
 preserveAspectRatio="xMidYMid meet">
<metadata>
Created by potrace 1.14, written by Peter Selinger 2001-2017
</metadata>
<g transform="translate(0.000000,1190.000000) scale(0.100000,-0.100000)"
fill="#000000" stroke="none">
<path d="M1895 9665 c-105 -62 -109 -65 -240 -139 -55 -31 -107 -60 -115 -65
-8 -6 -69 -41 -135 -79 -66 -39 -219 -127 -340 -197 -121 -71 -236 -136 -255
-146 -19 -10 -46 -27 -59 -37 l-24 -19 0 -817 c0 -616 3 -822 12 -839 6 -12
42 -38 79 -57 37 -19 73 -41 80 -47 7 -7 17 -13 22 -13 4 0 38 -18 74 -40 36
-22 70 -40 76 -40 5 0 10 -4 10 -10 0 -5 4 -10 9 -10 14 0 394 -219 417 -241
11 -10 24 -19 28 -19 5 0 17 -10 28 -22 11 -13 61 -67 111 -122 51 -54 100
-108 110 -120 10 -11 41 -45 70 -76 72 -78 237 -257 267 -290 104 -113 180
-197 210 -229 19 -20 71 -77 115 -125 44 -49 105 -114 135 -146 30 -32 87 -93
125 -135 39 -43 89 -98 113 -124 75 -80 71 -62 87 -371 2 -36 7 -108 10 -160
4 -52 8 -120 10 -150 1 -30 5 -95 9 -145 11 -148 17 -246 21 -320 6 -105 14
-240 21 -330 3 -44 8 -143 10 -220 2 -77 6 -176 8 -220 2 -44 7 -145 10 -225
4 -80 9 -179 11 -220 7 -132 19 -403 28 -660 5 -130 21 -149 140 -155 70 -3
114 -8 187 -21 41 -7 51 -9 150 -24 41 -6 89 -14 105 -17 53 -8 81 -12 190
-28 28 -4 59 -9 70 -12 11 -2 34 -6 50 -8 119 -17 249 -37 264 -40 10 -2 36
-6 57 -10 22 -3 50 -7 64 -10 14 -2 61 -9 105 -15 44 -7 87 -14 97 -15 9 -2
38 -7 65 -11 26 -3 57 -9 68 -11 58 -13 134 -14 155 -3 12 7 35 41 52 78 16
37 48 105 70 152 22 47 53 112 68 145 15 33 38 83 51 110 12 28 24 52 24 55 2
5 39 84 120 255 18 39 43 93 55 120 13 28 42 91 66 142 24 51 57 122 74 158
42 91 81 175 130 280 23 50 51 110 61 135 11 25 24 52 29 60 6 8 13 22 16 30
9 22 43 96 82 180 20 41 36 77 37 80 1 3 16 35 33 73 18 37 46 97 63 134 23
51 32 64 39 53 6 -8 10 -12 10 -7 0 4 18 -4 40 -18 22 -14 44 -25 50 -25 5 0
10 -4 10 -10 0 -5 5 -10 10 -10 6 0 40 -18 76 -40 36 -22 70 -40 74 -40 5 0
10 -3 12 -7 2 -5 21 -17 43 -28 22 -10 46 -24 54 -30 21 -16 123 -74 154 -87
15 -7 27 -16 27 -20 0 -4 4 -8 9 -8 6 0 60 -29 121 -65 61 -36 130 -76 153
-89 99 -56 516 -297 679 -392 97 -57 188 -106 202 -110 14 -3 37 0 53 8 40 21
77 42 83 49 3 3 41 25 85 49 44 24 88 50 98 58 9 8 17 11 17 6 0 -5 4 -4 8 1
4 6 18 16 32 24 13 8 83 48 155 89 71 42 139 81 150 87 29 16 135 77 170 98
17 10 42 23 58 30 15 6 27 15 27 19 0 4 7 8 15 8 8 0 15 5 15 11 0 5 4 8 9 4
5 -3 12 -1 16 4 3 5 18 16 33 24 36 18 76 41 82 47 3 3 19 12 35 20 17 8 36
21 43 28 7 6 20 12 27 12 7 0 30 15 49 34 35 33 44 63 30 101 -7 16 -526 365
-544 365 -4 0 -10 3 -12 8 -3 7 -109 80 -133 92 -23 11 -130 86 -133 93 -2 4
-7 7 -12 7 -5 0 -103 63 -219 140 -116 77 -215 140 -220 140 -5 0 -11 4 -13 8
-1 4 -52 40 -112 79 -119 78 -119 75 -16 88 25 4 54 8 65 9 24 5 79 13 165 27
115 18 125 19 150 24 14 3 45 7 70 10 25 3 56 7 70 10 14 2 41 7 60 10 19 3
46 7 60 10 14 3 43 7 65 10 22 2 63 8 90 13 28 5 57 10 65 10 8 0 26 3 40 6
24 5 69 12 140 22 19 3 46 7 60 10 14 2 43 7 65 10 61 8 84 11 160 24 39 7 84
13 100 15 17 2 46 7 65 10 19 4 48 8 63 10 82 11 114 16 128 21 9 2 34 6 55 9
39 4 87 11 134 20 27 5 86 14 135 20 17 2 46 7 65 10 187 31 230 38 260 41 19
3 64 9 100 15 36 6 79 13 95 15 67 9 103 15 155 24 30 5 78 12 105 16 28 3 59
8 70 10 11 2 61 10 110 18 50 8 108 18 130 21 22 4 51 8 65 10 14 2 57 8 95
14 39 6 86 13 105 15 19 3 76 12 125 20 118 20 147 24 163 25 6 1 22 13 35 27
l22 26 1 801 1 802 -40 85 c-23 47 -41 87 -41 90 -1 3 -13 30 -28 60 -37 77
-108 231 -108 235 0 2 -27 60 -60 130 -33 70 -60 128 -60 130 0 2 -22 50 -49
107 -26 57 -51 113 -55 125 -4 12 -18 28 -31 37 -25 17 -49 16 -165 -3 -36 -6
-83 -13 -105 -16 -22 -3 -51 -7 -65 -10 -14 -3 -41 -7 -60 -10 -19 -3 -46 -7
-60 -9 -23 -4 -41 -7 -137 -22 -21 -3 -67 -10 -103 -16 -36 -5 -78 -11 -95
-14 -16 -2 -43 -6 -60 -9 -16 -4 -43 -8 -60 -10 -76 -10 -112 -15 -132 -20
-12 -3 -41 -7 -64 -10 -24 -3 -98 -14 -164 -25 -66 -10 -137 -21 -157 -24 -76
-12 -114 -17 -138 -22 -14 -2 -45 -7 -70 -10 -25 -3 -54 -8 -65 -11 -11 -2
-36 -6 -55 -8 -19 -2 -55 -8 -80 -12 -25 -5 -81 -8 -125 -7 -102 3 -517 12
-1875 39 -135 3 -357 7 -495 10 -137 2 -268 7 -290 11 -40 6 -160 39 -270 76
-33 10 -67 21 -75 23 -8 1 -51 14 -95 28 -140 44 -320 100 -330 103 -13 3
-330 99 -370 113 -16 5 -61 19 -100 31 -38 11 -77 24 -85 27 -8 3 -22 7 -30 8
-8 1 -53 14 -100 29 -47 16 -113 37 -147 47 -35 10 -93 28 -130 40 -38 11 -75
22 -83 24 -8 2 -27 8 -42 14 -16 6 -28 8 -28 5 0 -2 -10 1 -22 8 -13 6 -27 13
-33 14 -5 2 -35 10 -65 18 -30 9 -63 18 -74 21 -10 2 -37 11 -60 19 -38 14
-184 59 -196 61 -3 0 -39 11 -80 24 -41 13 -80 24 -87 25 -7 1 -16 5 -19 9 -4
4 -14 7 -23 7 -14 0 -300 137 -311 150 -3 3 -25 15 -50 27 -25 12 -108 56
-185 98 -77 42 -152 81 -167 86 -16 6 -28 15 -28 20 0 5 -7 9 -16 9 -9 0 -29
9 -45 21 -16 11 -29 17 -29 12 0 -4 -4 -3 -8 3 -4 6 -28 21 -54 33 -27 13 -50
27 -54 32 -3 5 -14 9 -24 9 -10 0 -20 3 -22 8 -1 4 -21 16 -43 27 -22 10 -52
28 -67 38 -16 10 -28 16 -28 13 0 -3 -21 7 -47 22 -27 15 -61 34 -78 42 -16 8
-32 17 -35 20 -19 19 -232 120 -251 119 -13 -1 -64 -25 -114 -54z m194 -269
c42 -24 92 -53 111 -63 19 -11 107 -62 195 -113 88 -51 174 -101 190 -110 17
-9 111 -64 210 -122 99 -57 200 -116 225 -130 58 -32 546 -315 585 -339 17
-11 37 -22 45 -26 12 -5 85 -47 180 -103 8 -5 58 -33 110 -63 52 -30 136 -78
185 -107 50 -29 108 -63 130 -75 56 -32 214 -124 250 -146 17 -10 46 -26 65
-36 50 -25 61 -38 47 -52 -6 -6 -14 -11 -18 -11 -4 0 -57 -29 -118 -65 -60
-36 -113 -65 -117 -65 -4 0 -15 -6 -23 -14 -15 -13 -78 -49 -149 -87 -18 -9
-38 -22 -45 -27 -7 -5 -37 -22 -67 -38 -30 -16 -57 -31 -60 -35 -5 -5 -138
-81 -155 -88 -5 -2 -12 -7 -15 -10 -9 -10 -68 -41 -79 -41 -9 0 -137 70 -201
110 -19 12 -420 244 -475 274 -48 28 -286 165 -335 195 -19 11 -42 24 -50 28
-13 6 -51 28 -160 92 -8 5 -96 56 -195 112 -99 57 -181 107 -183 111 -2 4 -8
8 -14 8 -5 0 -51 25 -102 55 -50 30 -97 55 -104 55 -7 0 -12 4 -12 8 0 4 -24
20 -52 36 -72 38 -106 57 -303 173 -93 54 -227 132 -297 172 -70 40 -130 76
-132 80 -3 4 16 18 42 31 26 14 49 27 52 31 8 10 55 33 63 31 4 -1 7 2 7 7 0
5 8 11 18 15 9 3 24 10 32 16 40 27 292 170 300 170 6 0 10 4 10 8 0 4 12 13
28 20 15 7 40 20 56 30 90 54 242 141 245 142 2 0 38 -20 80 -44z m1976 -817
c11 -5 29 -11 40 -12 11 -2 27 -7 35 -10 23 -9 221 -69 239 -72 9 -2 16 -4 16
-5 0 -1 9 -3 20 -5 10 -2 28 -8 40 -14 11 -5 54 -20 95 -31 141 -40 395 -117
420 -127 8 -3 20 -7 27 -9 16 -3 84 -24 103 -31 18 -8 15 -7 70 -22 46 -13
175 -53 290 -91 36 -11 76 -23 89 -26 13 -3 32 -9 41 -14 10 -5 20 -7 23 -4 3
3 8 1 12 -5 3 -6 0 -11 -7 -12 -7 -1 -24 -3 -38 -5 -14 -2 -43 -5 -65 -7 -22
-3 -59 -7 -82 -11 -24 -3 -62 -9 -85 -12 -24 -4 -54 -7 -68 -9 -41 -4 -132
-16 -184 -25 -92 -14 -111 -8 -304 104 -101 58 -187 106 -192 106 -5 0 -10 3
-12 8 -4 9 -235 142 -248 142 -6 0 -10 3 -10 8 0 4 -9 12 -20 17 -79 40 -130
70 -130 77 0 4 -5 8 -11 8 -12 0 -208 110 -214 120 -5 7 75 -15 110 -31z
m-2821 -64 c20 -14 39 -25 41 -25 3 0 50 -27 106 -60 55 -33 102 -60 104 -60
2 0 40 -22 84 -50 45 -27 84 -49 86 -50 3 0 15 -6 28 -14 56 -35 412 -239 443
-253 18 -9 34 -20 34 -25 0 -4 4 -8 10 -8 5 0 33 -14 62 -32 29 -17 82 -48
118 -68 36 -20 81 -46 100 -57 46 -27 346 -200 388 -224 17 -11 49 -29 70 -40
20 -12 62 -36 92 -52 30 -17 61 -37 68 -44 7 -7 17 -13 22 -13 5 0 44 -21 87
-46 80 -48 114 -68 192 -112 25 -14 85 -48 133 -77 l89 -52 -25 -29 c-14 -16
-67 -79 -118 -140 -166 -198 -302 -359 -313 -370 -5 -6 -26 -30 -45 -54 -19
-24 -49 -60 -67 -79 -18 -20 -38 -44 -46 -54 -12 -17 -19 -12 -92 69 -44 48
-95 104 -114 123 -18 20 -68 74 -110 120 -42 46 -103 112 -136 146 -33 35 -75
81 -94 102 -18 21 -77 85 -130 142 -53 57 -107 116 -121 131 -14 15 -66 72
-116 126 -51 54 -104 113 -119 129 -15 17 -71 77 -124 134 -53 58 -111 120
-128 140 -18 19 -33 39 -33 43 0 4 -18 27 -40 50 -22 24 -40 48 -40 54 0 6 -9
19 -20 29 -11 10 -20 21 -20 25 0 4 -19 36 -42 70 -24 34 -48 69 -53 78 -18
29 -247 376 -258 390 -16 20 7 14 47 -13z m-232 -40 c6 -14 14 -25 17 -25 4 0
15 -17 26 -37 11 -21 23 -40 26 -43 3 -3 93 -135 199 -295 l193 -290 1 -293
c1 -162 -2 -296 -7 -299 -4 -2 -37 14 -72 36 -35 23 -67 41 -70 41 -2 0 -34
18 -70 40 -36 22 -70 40 -75 40 -6 0 -10 4 -10 8 0 4 -12 13 -27 19 -35 15
-135 71 -148 84 -11 11 -14 1039 -2 1039 4 0 13 -11 19 -25z m9538 -385 c0 -5
23 -56 50 -115 28 -59 50 -108 50 -110 0 -1 29 -63 63 -136 91 -191 121 -259
116 -264 -5 -4 -42 -11 -104 -19 -22 -3 -50 -8 -61 -10 -25 -5 -72 -12 -134
-21 -25 -3 -71 -10 -103 -16 -33 -6 -73 -12 -90 -14 -46 -7 -87 -13 -164 -26
-38 -6 -81 -13 -98 -14 -16 -2 -43 -5 -60 -8 -16 -3 -50 -9 -75 -13 -25 -4
-56 -9 -70 -10 -14 -1 -25 -3 -25 -4 0 -2 -15 -4 -80 -14 -82 -11 -122 -17
-145 -22 -14 -2 -41 -7 -60 -10 -19 -2 -48 -7 -65 -9 -31 -5 -98 -15 -125 -20
-34 -6 -97 -15 -135 -20 -22 -3 -51 -7 -65 -10 -34 -7 -65 -12 -125 -20 -27
-4 -59 -9 -70 -10 -11 -2 -38 -6 -60 -10 -22 -3 -51 -8 -65 -10 -14 -2 -45 -7
-70 -10 -25 -3 -52 -8 -60 -10 -8 -3 -35 -7 -60 -10 -25 -3 -56 -7 -70 -10
-13 -3 -42 -7 -65 -10 -22 -3 -53 -8 -70 -12 -16 -3 -41 -7 -55 -9 -63 -7
-119 -15 -170 -24 -87 -15 -112 -19 -155 -25 -22 -3 -83 -13 -135 -21 -52 -8
-106 -16 -120 -19 -77 -11 -117 -18 -130 -20 -21 -4 -158 -25 -200 -30 -19 -3
-45 -7 -57 -9 -11 -3 -43 -7 -70 -11 -26 -4 -61 -9 -78 -12 -94 -17 -89 -21
-156 122 -33 72 -81 172 -105 223 -24 52 -44 95 -44 98 0 2 -20 45 -45 96 -42
87 -46 101 -24 104 5 1 10 2 12 3 1 2 16 4 32 6 17 2 77 12 135 21 58 9 116
18 130 19 21 3 93 14 190 30 14 2 43 7 65 10 22 2 51 7 65 9 63 11 218 36 250
40 57 8 112 16 165 26 28 5 70 12 95 15 25 3 56 7 70 9 97 16 179 29 200 32
55 7 108 15 155 23 28 5 57 9 65 9 8 0 26 3 40 6 14 4 39 8 55 10 17 3 59 9
95 15 36 6 81 13 100 15 32 4 272 41 330 51 14 2 39 6 55 9 97 15 122 19 135
21 8 2 35 6 60 9 25 3 56 8 70 11 14 3 43 7 65 10 79 11 100 14 124 19 12 3
42 8 65 10 22 3 52 8 66 10 14 2 59 10 100 16 41 6 86 13 100 15 14 3 43 7 65
10 22 3 51 8 65 10 14 3 43 7 65 11 22 3 54 8 70 10 17 3 43 7 58 9 31 5 90
13 157 24 42 7 70 -1 70 -19z m-3785 -135 c171 -4 382 -9 470 -11 88 -2 167
-4 175 -4 8 0 44 -1 80 -1 36 -1 106 -2 157 -3 50 0 89 -4 87 -7 -2 -4 -32
-10 -66 -14 -35 -4 -70 -8 -78 -10 -8 -2 -33 -6 -55 -10 -22 -3 -51 -8 -65
-10 -14 -3 -43 -7 -65 -10 -22 -3 -51 -8 -65 -10 -14 -3 -38 -7 -55 -9 -50 -7
-119 -18 -139 -22 -10 -2 -37 -6 -60 -8 -22 -3 -50 -7 -61 -10 -11 -2 -40 -7
-65 -10 -25 -3 -56 -8 -69 -11 -12 -2 -42 -7 -65 -9 -22 -3 -52 -8 -65 -10
-13 -3 -46 -8 -75 -11 -56 -7 -31 -21 -269 153 -51 37 -49 50 5 46 18 -2 173
-6 343 -9z m-795 -50 c0 -42 -2 -45 -22 -40 -70 15 -210 35 -218 30 -5 -3 -12
-1 -15 5 -4 6 -16 8 -28 5 -16 -4 -18 -4 -7 3 8 5 40 12 70 16 84 9 134 16
137 19 1 2 21 4 43 5 l40 3 0 -46z m240 -71 c0 -7 -8 -10 -20 -7 -11 3 -20 14
-20 24 0 17 3 18 20 7 11 -7 20 -18 20 -24z m-1204 -86 c32 -40 62 -77 66 -83
5 -5 22 -26 38 -45 16 -19 30 -38 30 -42 0 -4 10 -17 23 -30 12 -13 33 -39 47
-58 13 -19 29 -38 35 -42 5 -4 -12 -8 -40 -9 -54 -2 -73 -3 -180 -13 -38 -3
-101 -9 -140 -11 -38 -3 -83 -7 -100 -9 -36 -6 -172 -17 -235 -21 -54 -3 -178
-13 -240 -20 -131 -14 -175 -15 -155 -3 113 67 380 218 387 218 4 0 8 3 8 8 0
4 10 12 23 18 33 15 119 64 253 143 66 39 120 70 120 71 1 0 28 -33 60 -72z
m235 57 c19 -3 45 -8 59 -10 14 -3 39 -7 55 -9 75 -10 124 -17 170 -27 45 -8
82 -14 165 -24 14 -2 25 -4 25 -5 0 -1 12 -3 28 -5 50 -7 209 -31 267 -41 47
-8 66 -11 123 -19 27 -4 47 -8 45 -10 -4 -4 -671 -172 -711 -179 -19 -3 -30 1
-37 14 -5 10 -16 24 -23 32 -7 7 -35 42 -62 77 -28 36 -57 73 -65 82 -8 10
-20 24 -25 31 -6 7 -25 31 -42 54 -18 23 -30 44 -26 47 3 4 9 5 13 2 4 -2 22
-7 41 -10z m1362 -272 c8 -21 34 -78 57 -128 23 -49 68 -146 100 -215 32 -69
76 -165 99 -213 22 -49 41 -90 41 -92 0 -2 -30 8 -67 22 -38 14 -74 26 -80 26
-7 0 -13 4 -13 9 0 4 -6 8 -14 8 -7 0 -35 10 -62 22 -27 12 -53 23 -59 24 -11
2 -436 169 -470 184 -11 5 -56 23 -100 40 -44 18 -89 36 -100 40 -11 5 -58 24
-105 41 -47 18 -93 38 -104 45 -17 12 -15 13 20 20 50 10 54 11 57 14 1 1 9 3
17 5 8 2 80 20 160 40 80 20 159 39 175 42 17 3 38 9 48 14 9 5 17 8 17 5 0
-3 24 2 52 11 29 8 62 17 73 19 11 2 61 15 110 28 125 34 130 33 148 -11z
m-4888 -27 c16 -19 75 -82 130 -141 55 -59 108 -116 117 -127 14 -17 110 -121
218 -237 19 -20 73 -79 120 -130 125 -137 148 -162 189 -206 20 -22 59 -64 87
-94 l49 -54 -50 28 c-27 16 -79 46 -114 67 -34 21 -65 38 -67 38 -2 0 -48 26
-101 58 -54 32 -118 69 -143 83 -25 13 -46 27 -48 32 -2 4 -8 7 -13 7 -5 0
-39 18 -75 40 -36 22 -68 40 -70 40 -3 0 -21 11 -42 23 -20 13 -57 35 -82 49
-25 14 -63 35 -85 48 -22 12 -44 26 -50 31 -11 10 -17 479 -6 479 3 0 19 -15
36 -34z m3435 -257 c0 -5 -3 -9 -7 -9 -5 0 -41 -31 -82 -70 -41 -38 -102 -93
-135 -122 -33 -29 -74 -66 -92 -83 -17 -16 -62 -57 -99 -90 -38 -33 -80 -71
-94 -85 -14 -14 -67 -61 -116 -105 -125 -112 -160 -143 -219 -198 -57 -53 -86
-73 -86 -58 0 5 -29 71 -65 146 -36 76 -65 138 -65 140 0 1 -21 47 -46 101
-90 192 -117 249 -135 288 -20 42 -18 55 9 55 18 0 125 8 207 16 28 3 82 7
120 10 39 3 90 7 115 10 54 5 134 12 360 30 36 3 85 7 110 10 41 5 152 14 243
20 20 1 40 5 43 8 8 8 34 -3 34 -14z m452 -45 c24 -9 52 -20 63 -25 11 -4 45
-18 75 -29 30 -11 64 -25 75 -30 11 -5 103 -41 205 -80 102 -40 203 -80 225
-90 22 -9 51 -21 65 -25 14 -4 43 -15 65 -25 71 -31 383 -150 394 -150 6 0 11
-4 11 -10 0 -5 6 -10 14 -10 7 0 28 -6 46 -13 l32 -14 -39 -23 c-21 -13 -41
-23 -45 -22 -5 1 -8 -3 -8 -8 0 -6 -4 -10 -9 -10 -8 0 -151 -80 -161 -90 -3
-3 -31 -18 -62 -35 -32 -16 -58 -33 -58 -37 0 -5 -5 -8 -10 -8 -6 0 -135 -72
-287 -160 -152 -88 -280 -157 -284 -153 -4 5 -47 127 -95 273 -47 146 -125
383 -173 528 -48 144 -86 262 -84 262 1 0 22 -7 45 -16z m-201 -66 c12 -40 23
-77 25 -83 1 -5 11 -35 22 -67 11 -31 18 -59 15 -62 -4 -3 -2 -6 4 -6 5 0 10
-6 10 -12 0 -7 19 -66 41 -130 22 -64 37 -119 34 -123 -3 -3 0 -5 6 -5 7 0 11
-3 10 -7 -3 -7 14 -70 30 -113 3 -8 4 -18 4 -22 -1 -5 2 -8 8 -8 6 0 9 -3 8
-7 -2 -10 13 -75 20 -88 14 -23 91 -269 86 -276 -2 -5 -10 -6 -17 -4 -15 6
-59 13 -117 21 -25 3 -56 8 -70 10 -14 3 -38 7 -55 9 -30 5 -42 7 -165 26 -36
5 -76 12 -90 14 -37 6 -100 15 -140 21 -19 3 -60 9 -90 14 -30 5 -71 11 -90
14 -19 2 -53 7 -75 10 -22 4 -67 11 -100 16 -33 6 -73 12 -90 15 -16 3 -43 7
-60 9 -184 22 -180 18 -94 97 122 113 131 121 223 204 50 44 97 87 106 95 9 8
51 47 94 85 43 39 90 81 105 95 15 14 47 43 72 65 25 22 85 76 133 120 49 44
104 95 124 113 20 17 39 32 43 32 4 0 17 -33 30 -72z m5494 -599 c0 -334 -2
-609 -5 -612 -3 -3 -25 -8 -50 -11 -25 -3 -54 -8 -65 -10 -11 -2 -42 -7 -70
-10 -27 -4 -72 -11 -100 -16 -27 -5 -68 -12 -90 -14 -22 -3 -40 -5 -40 -6 0
-1 -13 -3 -30 -4 -16 -2 -57 -8 -90 -14 -33 -6 -80 -14 -105 -17 -60 -8 -108
-16 -134 -21 -11 -2 -39 -6 -61 -9 -73 -10 -100 -14 -125 -19 -14 -3 -41 -7
-60 -10 -19 -3 -55 -8 -80 -13 -25 -4 -60 -7 -77 -8 -18 0 -33 -3 -33 -6 0 -3
-6 -6 -12 -6 -16 0 -64 -7 -189 -27 -52 -8 -112 -17 -134 -21 -23 -3 -50 -7
-62 -9 -22 -5 -64 -11 -128 -21 -23 -3 -52 -7 -65 -10 -14 -3 -46 -7 -71 -10
-25 -3 -54 -7 -65 -9 -10 -2 -39 -7 -64 -11 -25 -3 -58 -9 -75 -12 -16 -3 -41
-6 -55 -8 -14 -1 -38 -5 -55 -8 -16 -4 -50 -9 -75 -12 -25 -3 -58 -8 -75 -12
-16 -3 -41 -7 -55 -9 -46 -5 -104 -14 -165 -25 -33 -6 -73 -13 -90 -15 -16 -2
-46 -6 -65 -9 -19 -3 -44 -7 -56 -9 -12 -2 -45 -7 -74 -11 -29 -4 -62 -9 -74
-11 -12 -3 -37 -7 -56 -10 -63 -8 -104 -14 -163 -25 -33 -6 -73 -12 -90 -14
-18 -2 -49 -6 -69 -9 -21 -3 -53 -8 -70 -11 -18 -2 -44 -7 -57 -9 -12 -3 -42
-8 -65 -10 -46 -6 -90 -14 -123 -21 -17 -4 -23 -1 -24 12 -4 76 -3 1197 2
1204 3 6 22 11 42 12 21 1 37 5 37 9 0 4 8 5 18 4 9 -2 51 2 92 9 72 13 143
24 185 30 11 1 56 8 100 15 44 7 91 14 105 15 14 2 25 4 25 5 0 2 11 4 25 5
42 4 112 15 175 26 33 6 74 13 90 15 17 2 41 6 55 8 14 2 48 7 75 11 28 4 66
10 85 14 19 4 45 7 58 6 12 -1 22 1 22 5 0 3 8 6 18 7 31 2 114 12 171 22 63
11 121 20 166 27 54 7 99 14 125 19 14 3 42 7 63 10 88 12 115 16 167 25 98
17 117 20 161 25 24 3 69 10 99 15 84 14 132 21 160 25 14 2 39 5 55 8 17 3
48 8 70 11 42 6 110 17 135 21 8 1 35 6 60 11 25 4 48 7 52 6 3 -1 39 5 80 13
40 7 98 16 128 20 30 3 62 8 70 10 8 2 33 6 55 9 22 4 51 8 65 11 14 2 42 7
63 10 82 12 114 16 167 25 67 12 121 19 177 26 24 2 52 8 63 12 10 4 32 7 47
8 l28 1 0 -608z m-7289 70 c0 -210 -2 -239 -15 -240 -59 -3 -379 -4 -394 0
-18 4 -17 5 2 25 18 17 193 224 355 419 22 26 42 44 45 41 3 -3 6 -113 7 -245z
m389 -92 c25 -54 50 -109 55 -123 l10 -24 -99 0 -98 0 0 213 0 212 42 -90 c24
-49 64 -134 90 -188z m-1925 45 c0 -5 16 -14 35 -22 19 -8 35 -17 35 -22 0 -4
4 -8 10 -8 8 0 120 -62 180 -100 8 -5 38 -21 65 -36 28 -14 57 -32 66 -40 8
-8 18 -14 22 -14 3 0 34 -17 69 -37 35 -20 64 -35 64 -32 1 2 11 -4 22 -15 12
-10 43 -30 69 -45 27 -14 76 -41 109 -60 l61 -34 1 -213 0 -213 -36 39 c-20
21 -75 80 -122 131 -47 50 -101 109 -120 129 -29 31 -141 153 -235 256 -25 27
-223 241 -250 270 -58 62 -67 74 -57 74 7 0 12 -4 12 -8z m4864 -173 c-1 -66
-4 -122 -6 -124 -2 -3 -21 -7 -41 -10 l-36 -6 -3 48 c-2 26 -2 82 0 123 l3 76
37 20 c28 15 38 16 42 7 3 -7 4 -67 4 -134z m-410 -104 c-4 -8 -16 -15 -28
-15 -21 1 -21 1 -2 15 25 19 37 19 30 0z m-2918 -213 c1 -66 -2 -112 -8 -112
-12 0 -97 48 -122 69 -10 9 -19 14 -20 12 0 -3 -35 15 -76 39 -41 25 -93 54
-115 66 -21 12 -40 25 -42 30 -2 5 84 9 189 9 l193 0 1 -113z m447 58 c-14
-30 -41 -89 -61 -130 -20 -41 -37 -77 -37 -80 -1 -3 -18 -41 -40 -85 -21 -44
-39 -83 -39 -87 -1 -3 -4 -9 -8 -13 -6 -7 -8 434 -2 446 2 3 50 6 107 5 l104
-1 -24 -55z m2272 -6 c28 -4 57 -8 65 -9 73 -9 118 -17 127 -23 8 -6 75 -134
79 -152 1 -5 34 -76 113 -245 21 -44 47 -100 58 -125 38 -82 94 -204 113 -244
l19 -40 -212 -122 c-117 -68 -217 -128 -224 -134 -7 -5 -15 -10 -18 -10 -4 0
-44 -22 -91 -50 -47 -27 -89 -50 -94 -50 -6 0 -10 -4 -10 -9 0 -5 -9 -12 -20
-16 -10 -3 -60 -31 -110 -61 -50 -30 -93 -54 -96 -54 -2 0 -22 -11 -44 -25
-22 -14 -40 -22 -41 -18 0 5 -1 282 -2 616 l-2 608 63 39 c35 22 65 40 68 40
2 0 21 11 42 23 72 46 137 77 152 73 8 -2 38 -8 65 -12z m-1860 -41 c17 -3 44
-6 60 -8 17 -2 70 -11 120 -19 49 -9 91 -14 93 -11 3 2 12 0 21 -4 9 -5 41
-12 71 -15 30 -3 80 -11 110 -16 30 -5 73 -12 95 -15 22 -3 54 -8 70 -10 17
-3 48 -7 70 -10 22 -3 47 -7 55 -10 8 -2 38 -7 65 -11 54 -7 74 -9 120 -17 75
-14 131 -21 142 -19 33 7 26 -18 -57 -193 -91 -193 -110 -234 -165 -355 -31
-69 -72 -156 -90 -195 -93 -199 -196 -422 -218 -475 -4 -8 -11 -22 -16 -30 -5
-8 -16 -31 -24 -50 -9 -19 -35 -75 -58 -125 -23 -49 -43 -92 -44 -95 -1 -5
-24 -54 -85 -185 -16 -33 -44 -94 -63 -135 -19 -41 -49 -106 -67 -144 l-32
-68 -46 6 c-26 3 -58 8 -72 11 -14 3 -43 7 -65 10 -22 2 -51 6 -65 9 -14 2
-47 7 -73 11 -27 4 -59 9 -70 11 -12 3 -35 6 -52 9 -74 9 -124 17 -180 27 -64
11 -79 13 -165 24 -30 4 -57 9 -60 13 -3 3 -18 7 -35 7 -41 2 -105 10 -135 17
-28 7 -91 16 -160 23 -25 3 -49 9 -53 13 -4 4 4 31 18 58 14 28 25 54 25 57 0
3 14 34 31 68 17 35 48 101 69 148 21 47 60 132 88 190 27 58 61 130 75 160
14 30 42 91 62 135 20 44 51 109 67 145 17 36 45 97 64 136 18 39 46 101 63
137 16 35 47 102 69 148 22 46 55 118 74 159 19 41 48 102 64 135 16 33 29 62
29 65 1 3 24 53 52 111 28 58 54 116 58 130 4 13 14 32 23 42 16 18 22 18 127
0z m2466 -6 c3 -30 4 -367 1 -367 -1 0 -11 19 -21 43 -17 37 -65 142 -121 262
-10 22 -15 43 -11 47 4 4 27 10 51 13 24 3 45 7 46 8 10 9 54 4 55 -6z m-3801
-126 c5 -6 189 -113 285 -166 28 -15 57 -33 65 -39 8 -7 28 -18 44 -25 16 -7
25 -16 20 -20 -8 -7 -134 -48 -174 -56 -8 -2 -15 -4 -15 -5 0 -3 -240 -77
-243 -75 -1 1 -4 35 -6 76 -3 41 -8 131 -12 202 -6 122 -6 127 12 120 11 -3
21 -9 24 -12z m615 -415 c16 -38 17 -34 -71 -221 -15 -33 -29 -67 -30 -75 -2
-8 -8 -16 -13 -18 -6 -2 -11 -12 -11 -23 0 -23 -6 -23 -50 1 -19 11 -48 26
-65 35 -16 9 -43 24 -60 34 -33 20 -130 74 -187 105 -35 18 -49 35 -30 37 17
2 48 11 252 73 118 37 222 71 230 76 8 5 16 9 18 9 2 1 9 -14 17 -33z m1990
-553 l-1 -488 -31 -65 c-17 -36 -57 -119 -88 -185 -32 -66 -58 -126 -58 -132
0 -7 -4 -13 -8 -13 -3 0 -9 -8 -11 -17 -8 -30 -10 -36 -39 -93 -15 -30 -41
-86 -59 -125 -18 -38 -46 -99 -63 -135 -17 -36 -32 -67 -32 -70 -1 -3 -19 -41
-39 -85 -21 -44 -47 -100 -59 -125 -11 -25 -22 -47 -22 -50 -1 -3 -15 -34 -32
-70 -75 -157 -116 -245 -118 -250 -1 -3 -10 -23 -20 -45 -10 -22 -19 -42 -20
-45 -4 -11 -82 -180 -112 -240 l-32 -65 0 492 -1 492 44 93 c45 96 64 138 159
343 89 195 113 245 157 340 23 50 53 115 67 145 14 30 39 84 56 120 16 36 44
94 60 130 17 36 31 67 32 70 1 3 18 41 39 85 21 44 51 109 68 145 16 36 49
106 72 155 23 50 51 111 62 137 10 25 21 45 24 43 3 -2 5 -223 5 -492z m-2545
217 c3 -3 19 -12 35 -20 17 -8 50 -26 75 -41 72 -41 183 -102 207 -113 26 -13
25 -19 -22 -121 -18 -38 -46 -99 -63 -135 -16 -36 -46 -99 -65 -140 -19 -41
-44 -95 -55 -120 -43 -94 -102 -215 -103 -210 0 3 -2 14 -5 25 -2 11 -6 72 -9
135 -5 98 -10 155 -15 155 0 0 -3 36 -5 80 -4 80 -8 137 -20 315 -11 144 -13
204 -8 212 3 7 39 -8 53 -22z m3968 -125 c9 -6 82 -54 162 -106 80 -53 222
-146 315 -207 94 -61 175 -115 180 -119 6 -5 35 -24 65 -43 30 -19 57 -38 58
-42 2 -5 7 -8 11 -8 11 0 165 -102 169 -112 2 -4 8 -8 13 -8 11 0 332 -210
341 -224 4 -6 8 -7 8 -3 0 4 6 3 13 -3 6 -6 45 -33 86 -60 l73 -48 -73 -42
c-41 -22 -81 -45 -89 -50 -29 -18 -166 -97 -285 -165 -66 -38 -153 -88 -192
-112 -40 -24 -77 -43 -82 -43 -5 0 -11 -3 -13 -7 -1 -5 -19 -16 -38 -27 -91
-49 -145 -80 -150 -85 -3 -3 -27 -18 -55 -32 -48 -25 -85 -28 -85 -8 0 5 -4 9
-9 9 -6 0 -117 71 -248 158 -131 86 -242 159 -248 162 -5 3 -82 53 -170 111
-88 58 -243 160 -345 227 -102 66 -189 125 -195 129 -5 5 -43 29 -82 53 -40
25 -73 48 -73 52 0 5 -5 8 -10 8 -6 0 -52 28 -102 61 l-91 61 54 34 c30 18 60
34 67 34 6 0 12 4 12 9 0 5 10 13 23 17 12 4 46 22 75 40 29 19 55 34 58 34 3
0 18 8 32 19 15 10 59 35 97 56 39 21 72 41 75 44 3 3 19 13 35 22 31 16 418
239 468 270 29 17 30 17 79 -14 27 -18 57 -37 66 -42z m-3678 -1375 c30 -5 73
-12 95 -15 85 -13 111 -16 135 -21 14 -2 43 -6 65 -9 22 -3 51 -7 65 -10 14
-3 54 -10 90 -15 36 -5 92 -14 125 -19 33 -6 85 -14 115 -17 30 -3 57 -7 61
-9 5 -4 77 -15 134 -21 17 -1 30 -3 30 -4 0 -1 9 -3 20 -4 136 -17 155 -23
155 -47 0 -11 -4 -18 -9 -15 -5 3 -26 8 -47 11 -22 3 -64 10 -94 15 -30 5 -73
12 -95 15 -22 2 -51 7 -65 9 -32 6 -225 36 -265 42 -16 3 -86 13 -155 24 -70
11 -139 22 -155 24 -17 3 -43 7 -60 9 -57 10 -120 20 -140 23 -53 7 -102 15
-120 18 -11 3 -23 5 -26 5 -4 1 -10 8 -13 17 -7 17 25 16 154 -6z m355 -570
c33 -6 74 -13 90 -15 17 -2 50 -7 75 -10 49 -8 50 -8 127 -19 46 -7 52 -11 57
-34 3 -15 3 -38 1 -52 -2 -14 -7 -45 -10 -70 -4 -25 -8 -56 -11 -70 -2 -14 -6
-50 -10 -80 -7 -75 -11 -98 -19 -111 -7 -10 -74 -7 -136 7 -13 3 -44 7 -68 9
-24 3 -51 7 -60 9 -14 5 -51 10 -136 22 -11 1 -22 3 -25 4 -3 1 -8 2 -12 1 -4
0 -31 4 -60 9 -67 12 -139 22 -155 23 -17 0 -16 12 2 27 8 7 15 16 15 20 0 5
14 39 32 77 17 37 32 70 33 73 6 27 67 140 74 140 6 0 18 14 26 31 18 34 23
34 170 9z m705 -98 l0 -78 -35 4 c-19 2 -35 8 -35 12 0 11 61 140 66 140 2 0
4 -35 4 -78z m-1130 -487 c19 -3 51 -8 70 -11 19 -2 42 -6 50 -7 29 -7 105
-18 140 -22 19 -2 35 -4 35 -5 0 -1 14 -4 30 -6 17 -2 62 -8 100 -14 39 -7 84
-14 100 -16 17 -2 41 -7 55 -9 14 -3 41 -7 60 -9 54 -7 113 -17 130 -21 8 -2
35 -7 60 -10 49 -7 57 -8 175 -26 102 -15 116 -17 138 -18 10 -1 17 -9 17 -22
0 -17 -4 -20 -27 -15 -16 3 -46 8 -68 11 -22 4 -65 10 -95 15 -55 9 -112 17
-169 25 -17 2 -54 8 -83 14 -48 10 -84 15 -175 26 -17 2 -59 9 -93 15 -34 6
-76 13 -93 15 -18 2 -45 5 -62 8 -72 13 -173 28 -205 32 -19 2 -44 6 -55 8
-11 2 -41 8 -67 11 -38 6 -48 11 -48 26 0 14 6 18 23 15 12 -2 38 -6 57 -10z"/>
</g>
</svg>
