<svg id="A5" xmlns="http://www.w3.org/2000/svg" viewBox="0 0 4071.56 2267.88"><defs><style>.cls-1{font-size:50px;}.cls-1,.cls-36,.cls-38,.cls-46{fill:#1d1d1b;}.cls-1,.cls-15,.cls-16,.cls-38{font-family:Fabriga;}.cls-15,.cls-2{letter-spacing:0.01em;}.cls-3{letter-spacing:0em;}.cls-11,.cls-4{letter-spacing:-0.01em;}.cls-5{letter-spacing:-0.01em;}.cls-6{letter-spacing:-0.01em;}.cls-10,.cls-7{letter-spacing:-0.01em;}.cls-8{letter-spacing:-0.01em;}.cls-10,.cls-11,.cls-34,.cls-37,.cls-41,.cls-42,.cls-43,.cls-46,.cls-53,.cls-9{font-family:Fabriga-Bold, Fabriga;font-weight:700;}.cls-12{letter-spacing:-0.02em;}.cls-13{letter-spacing:0em;}.cls-14{letter-spacing:-0.01em;}.cls-15,.cls-16{font-weight:400;}.cls-17{letter-spacing:-0.01em;}.cls-18{letter-spacing:0.01em;}.cls-19{letter-spacing:-0.02em;}.cls-20,.cls-42{fill:#84ccd6;}.cls-21,.cls-34{fill:#c0c172;}.cls-22,.cls-37{fill:#f8bb26;}.cls-23,.cls-41{fill:#e6af20;}.cls-24,.cls-27,.cls-28,.cls-29,.cls-30,.cls-31,.cls-32,.cls-33{fill:none;stroke-miterlimit:10;}.cls-24{stroke:#fff;}.cls-24,.cls-27,.cls-28,.cls-29,.cls-30,.cls-31,.cls-33{stroke-width:4.51px;}.cls-25,.cls-43{fill:#ee7555;}.cls-26{fill:#fff;}.cls-27{stroke:#f8bb26;}.cls-28{stroke:#e6af20;}.cls-29{stroke:#ee7555;}.cls-30{stroke:#c0c172;}.cls-31{stroke:#84ccd6;}.cls-32,.cls-33{stroke:#1d1d1b;}.cls-32{stroke-width:2.25px;}.cls-34,.cls-37,.cls-41,.cls-42,.cls-43{font-size:68.89px;}.cls-35{letter-spacing:0em;}.cls-38{font-size:43.3px;}.cls-39{letter-spacing:-0.02em;}.cls-40{letter-spacing:-0.02em;}.cls-44{letter-spacing:-0.01em;}.cls-45{letter-spacing:-0.01em;}.cls-46{font-size:45.59px;}.cls-47{letter-spacing:-0.01em;}.cls-48{letter-spacing:-0.02em;}.cls-49{letter-spacing:-0.02em;}.cls-50{letter-spacing:-0.02em;}.cls-51{letter-spacing:-0.01em;}.cls-52{letter-spacing:0em;}.cls-53{font-size:220px;fill:#ed6c2c;}.cls-54{letter-spacing:-0.03em;}.cls-55{letter-spacing:-0.01em;}.cls-56{letter-spacing:-0.03em;}.cls-57{letter-spacing:-0.01em;}</style></defs><text class="cls-1" transform="translate(256.04 541.26) scale(0.99 1)"><tspan class="cls-2">Son aque</tspan><tspan class="cls-3" x="213.65" y="0">l</tspan><tspan class="cls-4" x="228.4" y="0">l</tspan><tspan class="cls-2" x="242.9" y="0">os </tspan><tspan class="cls-5" x="308" y="0">g</tspan><tspan class="cls-2" x="334.8" y="0">ases de ori</tspan><tspan class="cls-6" x="582.69" y="0">g</tspan><tspan class="cls-2" x="609.49" y="0">en n</tspan><tspan class="cls-7" x="705.54" y="0">a</tspan><tspan class="cls-2" x="731.94" y="0">tu</tspan><tspan class="cls-4" x="779.79" y="0">r</tspan><tspan class="cls-2" x="797.94" y="0">al y a</tspan><tspan class="cls-7" x="911.99" y="0">n</tspan><tspan class="cls-2" x="940.04" y="0">t</tspan><tspan class="cls-3" x="960.08" y="0">r</tspan><tspan class="cls-2" x="978.49" y="0">ópico (p</tspan><tspan x="1169.83" y="0">r</tspan><tspan class="cls-2" x="1188.23" y="0">oducido </tspan><tspan class="cls-2"><tspan x="0" y="70">por actividades humanas), qu</tspan><tspan class="cls-8" x="681.04" y="70">e</tspan><tspan x="708.99" y="70">, </tspan><tspan class="cls-9" x="734.09" y="70">al enco</tspan><tspan class="cls-10" x="905.34" y="70">n</tspan><tspan class="cls-9" x="934.04" y="70">t</tspan><tspan class="cls-11" x="953.94" y="70">r</tspan><tspan class="cls-9" x="973.89" y="70">arse en la </tspan></tspan><tspan class="cls-10"><tspan x="0" y="140">a</tspan><tspan class="cls-2" x="27.1" y="140">tmó</tspan><tspan class="cls-4" x="120.9" y="140">s</tspan><tspan class="cls-12" x="144.8" y="140">f</tspan><tspan class="cls-2" x="164.5" y="140">e</tspan><tspan class="cls-13" x="193.6" y="140">r</tspan><tspan class="cls-2" x="213.55" y="140">a, </tspan><tspan class="cls-14" x="268.8" y="140">a</tspan><tspan class="cls-12" x="295.65" y="140">f</tspan><tspan class="cls-2" x="315.35" y="140">ectan la e</tspan><tspan x="542.54" y="140">n</tspan><tspan class="cls-2" x="571.24" y="140">t</tspan><tspan class="cls-4" x="591.14" y="140">r</tspan><tspan class="cls-2" x="611.09" y="140">ada y salida de la ene</tspan><tspan class="cls-8" x="1107.53" y="140">r</tspan><tspan class="cls-2" x="1127.23" y="140">gía </tspan></tspan><tspan class="cls-9"><tspan class="cls-2" x="0" y="210">p</tspan><tspan class="cls-3" x="31.45" y="210">r</tspan><tspan class="cls-4" x="51.65" y="210">ov</tspan><tspan class="cls-2" x="107.35" y="210">enie</tspan><tspan class="cls-7" x="209.15" y="210">n</tspan><tspan x="237.85" y="210">t</tspan><tspan class="cls-2" x="257.25" y="210">e del sol en el plan</tspan><tspan class="cls-5" x="690.44" y="210">e</tspan><tspan class="cls-2" x="718.54" y="210">ta.</tspan><tspan class="cls-15" x="784.19" y="210" xml:space="preserve"> Su p</tspan><tspan class="cls-16" x="891.39" y="210">r</tspan><tspan class="cls-15" x="909.79" y="210">esencia, aunque en </tspan></tspan><tspan class="cls-2" x="0" y="280">conce</tspan><tspan class="cls-17" x="145.9" y="280">n</tspan><tspan class="cls-2" x="173.95" y="280">t</tspan><tspan class="cls-4" x="194" y="280">r</tspan><tspan class="cls-2" x="212.15" y="280">aciones </tspan><tspan class="cls-3" x="403.49" y="280">r</tspan><tspan class="cls-2" x="421.89" y="280">el</tspan><tspan class="cls-7" x="466.09" y="280">a</tspan><tspan class="cls-2" x="492.49" y="280">ti</tspan><tspan class="cls-4" x="524.99" y="280">v</tspan><tspan class="cls-2" x="550.34" y="280">ame</tspan><tspan class="cls-7" x="649.64" y="280">n</tspan><tspan class="cls-3" x="677.69" y="280">t</tspan><tspan class="cls-2" x="697.24" y="280">e baja</tspan><tspan class="cls-8" x="834.34" y="280">s</tspan><tspan class="cls-18" x="858.49" y="280">, tienen un </tspan><tspan class="cls-8" x="1107.08" y="280">e</tspan><tspan class="cls-19" x="1135.03" y="280">f</tspan><tspan class="cls-2" x="1153.83" y="280">ec</tspan><tspan x="1211.48" y="280">t</tspan><tspan class="cls-2" x="1231.03" y="280">o </tspan><tspan class="cls-2" x="0" y="350">importa</tspan><tspan class="cls-7" x="184.25" y="350">n</tspan><tspan x="212.3" y="350">t</tspan><tspan class="cls-2" x="231.85" y="350">e sob</tspan><tspan class="cls-3" x="357.75" y="350">r</tspan><tspan class="cls-18" x="376.15" y="350">e la </tspan><tspan class="cls-3" x="466.19" y="350">r</tspan><tspan class="cls-4" x="484.59" y="350">e</tspan><tspan class="cls-2" x="512.79" y="350">gulación de la </tspan><tspan class="cls-3" x="842.79" y="350">t</tspan><tspan class="cls-2" x="862.34" y="350">empe</tspan><tspan class="cls-13" x="995.18" y="350">r</tspan><tspan class="cls-17" x="1013.33" y="350">a</tspan><tspan class="cls-2" x="1039.73" y="350">tu</tspan><tspan class="cls-4" x="1087.58" y="350">r</tspan><tspan class="cls-2" x="1105.73" y="350">a g</tspan><tspan class="cls-13" x="1170.08" y="350">l</tspan><tspan class="cls-2" x="1184.58" y="350">obal, </tspan><tspan class="cls-2"><tspan x="0" y="420">debido a que actúan como una bar</tspan><tspan class="cls-3" x="794.24" y="420">r</tspan><tspan x="812.64" y="420">e</tspan><tspan class="cls-4" x="841.59" y="420">r</tspan><tspan class="cls-18" x="859.74" y="420">a de la </tspan><tspan class="cls-13" x="1018.18" y="420">r</tspan><tspan x="1036.33" y="420">adiación que </tspan></tspan><tspan class="cls-2" x="0" y="490">incide ta</tspan><tspan class="cls-7" x="199.9" y="490">n</tspan><tspan x="227.95" y="490">t</tspan><tspan class="cls-2" x="247.5" y="490">o sob</tspan><tspan class="cls-3" x="375.09" y="490">r</tspan><tspan class="cls-2" x="393.49" y="490">e la </tspan><tspan class="cls-7" x="483.54" y="490">a</tspan><tspan class="cls-2" x="509.94" y="490">tmó</tspan><tspan class="cls-4" x="603.74" y="490">s</tspan><tspan class="cls-19" x="628.14" y="490">f</tspan><tspan class="cls-2" x="646.94" y="490">e</tspan><tspan class="cls-4" x="675.89" y="490">r</tspan><tspan class="cls-2" x="694.04" y="490">a, como de la </tspan><tspan class="cls-4" x="1010.68" y="490">r</tspan><tspan class="cls-2" x="1028.83" y="490">adiación </tspan><tspan class="cls-2"><tspan x="0" y="560">emitida desde la superficie de la tier</tspan><tspan class="cls-13" x="838.93" y="560">r</tspan><tspan x="857.08" y="560">a.</tspan></tspan></text><circle class="cls-20" cx="2063.72" cy="1142.45" r="162.91"/><circle class="cls-21" cx="2421.33" cy="1142.45" r="162.91"/><circle class="cls-22" cx="2778.94" cy="1142.45" r="162.91"/><circle class="cls-23" cx="3136.55" cy="1142.45" r="162.91"/><line class="cls-24" x1="2472.12" y1="1159.56" x2="2442.97" y2="1128.65"/><line class="cls-24" x1="2370.53" y1="1159.56" x2="2399.69" y2="1128.65"/><line class="cls-24" x1="2040.96" y1="1126.25" x2="1993.67" y2="1126.43"/><line class="cls-24" x1="2041.08" y1="1158.83" x2="1993.8" y2="1159.02"/><line class="cls-24" x1="2132.59" y1="1125.9" x2="2085.3" y2="1126.08"/><line class="cls-24" x1="2132.71" y1="1158.48" x2="2085.43" y2="1158.66"/><line class="cls-24" x1="3113.79" y1="1143.57" x2="3066.5" y2="1143.75"/><line class="cls-24" x1="3205.42" y1="1127.55" x2="3158.13" y2="1127.73"/><line class="cls-24" x1="3205.54" y1="1160.13" x2="3158.26" y2="1160.32"/><line class="cls-24" x1="3205.42" y1="1143.66" x2="3158.13" y2="1143.84"/><line class="cls-24" x1="2756.18" y1="1143.23" x2="2708.89" y2="1143.26"/><line class="cls-24" x1="2847.81" y1="1143.63" x2="2800.52" y2="1143.65"/><line class="cls-24" x1="2756.18" y1="1143.23" x2="2708.89" y2="1143.26"/><line class="cls-24" x1="2778.72" y1="1074.97" x2="2778.75" y2="1122.26"/><line class="cls-24" x1="2778.33" y1="1166.6" x2="2778.35" y2="1213.89"/><circle class="cls-25" cx="3494.16" cy="1142.45" r="162.91"/><line class="cls-24" x1="3544.95" y1="1158.41" x2="3515.8" y2="1127.51"/><line class="cls-24" x1="3443.36" y1="1158.41" x2="3472.52" y2="1127.51"/><circle class="cls-26" cx="2687.31" cy="1143.89" r="32.59"/><circle class="cls-26" cx="2870.57" cy="1143.8" r="32.59"/><circle class="cls-26" cx="2778.98" cy="1235.47" r="32.59"/><circle class="cls-26" cx="2778.89" cy="1052.21" r="32.59"/><circle class="cls-26" cx="2778.94" cy="1143.84" r="32.59"/><line class="cls-27" x1="2768.92" y1="1220.09" x2="2768.92" y2="1250.85"/><line class="cls-27" x1="2789.09" y1="1220.09" x2="2789.09" y2="1250.85"/><line class="cls-27" x1="2789.07" y1="1235.59" x2="2768.87" y2="1235.59"/><line class="cls-27" x1="2768.92" y1="1036.83" x2="2768.92" y2="1067.59"/><line class="cls-27" x1="2789.09" y1="1036.83" x2="2789.09" y2="1067.59"/><line class="cls-27" x1="2789.07" y1="1052.33" x2="2768.87" y2="1052.33"/><line class="cls-27" x1="2677.2" y1="1127.85" x2="2677.2" y2="1158.61"/><line class="cls-27" x1="2697.42" y1="1127.85" x2="2697.42" y2="1158.61"/><line class="cls-27" x1="2697.4" y1="1143.35" x2="2677.2" y2="1143.35"/><line class="cls-27" x1="2860.97" y1="1127.85" x2="2860.97" y2="1158.61"/><line class="cls-27" x1="2881.15" y1="1127.85" x2="2881.15" y2="1158.61"/><line class="cls-27" x1="2881.13" y1="1143.35" x2="2860.92" y2="1143.35"/><path class="cls-27" d="M2789.83,1154.26a12.69,12.69,0,0,1-10.37,5.91c-7.3,0-13.34-7-13.37-15.62s5.95-15.69,13.25-15.72c4.53,0,8.77,2.68,11.23,7.16"/><circle class="cls-26" cx="3136.55" cy="1144.1" r="32.59"/><circle class="cls-26" cx="3044.92" cy="1144.45" r="32.59"/><circle class="cls-26" cx="3228.18" cy="1143.75" r="32.59"/><ellipse class="cls-28" cx="3044.92" cy="1144.45" rx="13.31" ry="15.67" transform="translate(-4.35 11.65) rotate(-0.22)"/><polyline class="cls-28" points="3126.01 1158.19 3126.01 1130.72 3147.08 1158.19 3147.08 1130.72"/><polyline class="cls-28" points="3217.64 1158.19 3217.64 1130.72 3238.71 1158.19 3238.71 1130.72"/><circle class="cls-26" cx="3494.16" cy="1108.64" r="32.59"/><circle class="cls-26" cx="3426.48" cy="1171.71" r="32.59"/><circle class="cls-26" cx="3561.84" cy="1171.62" r="32.59"/><ellipse class="cls-29" cx="3494.16" cy="1108.59" rx="13.31" ry="15.67"/><ellipse class="cls-29" cx="3426.48" cy="1171.58" rx="13.31" ry="15.67"/><ellipse class="cls-29" cx="3561.84" cy="1171.52" rx="13.31" ry="15.67"/><circle class="cls-26" cx="2421.33" cy="1109.78" r="32.59"/><circle class="cls-26" cx="2353.65" cy="1172.85" r="32.59"/><circle class="cls-26" cx="2489.01" cy="1172.76" r="32.59"/><ellipse class="cls-30" cx="2421.33" cy="1109.74" rx="13.31" ry="15.67"/><line class="cls-30" x1="2343.59" y1="1157.34" x2="2343.59" y2="1188.1"/><line class="cls-30" x1="2363.77" y1="1157.34" x2="2363.77" y2="1188.1"/><line class="cls-30" x1="2363.75" y1="1172.84" x2="2343.55" y2="1172.84"/><line class="cls-30" x1="2478.94" y1="1157.34" x2="2478.94" y2="1188.1"/><line class="cls-30" x1="2499.12" y1="1157.34" x2="2499.12" y2="1188.1"/><line class="cls-30" x1="2499.1" y1="1172.84" x2="2478.9" y2="1172.84"/><circle class="cls-26" cx="2063.72" cy="1142.45" r="32.59"/><circle class="cls-26" cx="1972.09" cy="1142.8" r="32.59"/><circle class="cls-26" cx="2155.35" cy="1142.1" r="32.59"/><path class="cls-31" d="M2074.15,1152.21a12.66,12.66,0,0,1-10.37,5.91c-7.31,0-13.34-7-13.37-15.62s5.94-15.69,13.25-15.72c4.52,0,8.76,2.69,11.23,7.16"/><ellipse class="cls-31" cx="1972.09" cy="1142.8" rx="13.31" ry="15.67" transform="translate(-4.36 7.55) rotate(-0.22)"/><ellipse class="cls-31" cx="2155.35" cy="1142.1" rx="13.31" ry="15.67" transform="translate(-4.35 8.25) rotate(-0.22)"/><line class="cls-32" x1="2063.72" y1="775.22" x2="2063.72" y2="953.1"/><polyline class="cls-32" points="2063.72 775.22 2063.72 864.16 2421.33 864.16 2421.33 953.1"/><polyline class="cls-33" points="2075.29 941.53 2063.72 953.1 2052.15 941.53"/><polyline class="cls-33" points="2432.89 941.53 2421.33 953.1 2409.76 941.53"/><polyline class="cls-33" points="2790.55 941.53 2778.98 953.1 2767.42 941.53"/><polyline class="cls-33" points="3148.2 941.53 3136.64 953.1 3125.07 941.53"/><polyline class="cls-33" points="3505.86 941.53 3494.29 953.1 3482.72 941.53"/><polyline class="cls-32" points="2063.72 775.22 2063.72 864.16 2778.98 864.16 2778.98 953.1"/><polyline class="cls-32" points="2063.72 775.22 2063.72 864.16 3136.64 864.16 3136.64 953.1"/><polyline class="cls-32" points="2063.72 775.22 2063.72 864.16 3494.16 864.16 3494.16 953.1"/><text class="cls-34" transform="translate(2350.41 1427.27)">H<tspan class="cls-35" x="50.42" y="5.59">2</tspan><tspan x="89.96" y="0">O</tspan></text><path class="cls-36" d="M2347,1496.85c.22-.73.87-2.55,1-3l8.15-20.09h4.11v.65l-11.65,27.5h-3.55l-11.65-27.5v-.65h4.24l8.23,20.18a29.13,29.13,0,0,1,1,2.9Z"/><path class="cls-36" d="M2368.29,1502.61c-4.12,0-7.49-2.68-7.49-6.71v-.3a6.08,6.08,0,0,1,1.82-4.59c1.64-1.74,4.8-2.51,7.36-2.51a18.78,18.78,0,0,1,4.72.6v-1.6c0-2.9-1.47-4.68-4.72-4.68-2.47,0-4.2,1.08-4.33,3.51h-3.73V1486c.48-4.5,3.94-6.36,8.23-6.36,4.94,0,8.49,2.29,8.49,8.7v13.6h-2.95l-.73-2.38h-.09A8.41,8.41,0,0,1,2368.29,1502.61Zm6.41-8.57v-1.73a14.12,14.12,0,0,0-4.51-.74c-2.64,0-5.41,1.13-5.41,3.94,0,2.43,1.69,3.77,4.2,3.77S2374.7,1497.2,2374.7,1494Z"/><path class="cls-36" d="M2395.7,1502.57a8.19,8.19,0,0,1-6.71-2.9h-.09v10H2385v-29.44h2.94l.83,2.6h.08c1.56-2.21,4.46-3.3,7.41-3.3,5.11,0,10.26,3.82,10.26,11v.65C2406.48,1497.72,2402.54,1502.57,2395.7,1502.57Zm6.8-11.52c0-4.46-2.21-8.1-7-8.1s-6.75,3.73-6.75,8.1,2,8.18,6.75,8.18S2402.5,1495.64,2402.5,1491.05Z"/><path class="cls-36" d="M2421.76,1479.62c5.94,0,10.79,4,10.79,11.13v.73c0,7.1-4.9,11.13-10.79,11.13s-10.78-4-10.78-11.13v-.73C2411,1483.6,2415.92,1479.62,2421.76,1479.62Zm0,19.61c4.59,0,6.8-3.59,6.8-8.14s-2.21-8.14-6.8-8.14-6.8,3.55-6.8,8.14S2417.17,1499.23,2421.76,1499.23Z"/><path class="cls-36" d="M2442.16,1501.92h-3.94v-21.65h2.64l1,3.81h.09c.87-2.6,3.6-4,6.37-4,.26,0,1,.05,1.34.09v3.9h-1.21c-5.81,0-6.28,3.64-6.28,7.53Z"/><path class="cls-36" d="M2471.43,1479.62a8.16,8.16,0,0,1,6.71,2.9h.09v-10.91h3.94v30.31h-3l-.82-2.6h-.09c-1.55,2.21-4.46,3.29-7.4,3.29-5.11,0-10.26-3.81-10.26-11V1491C2460.65,1484.47,2464.59,1479.62,2471.43,1479.62Zm-6.8,11.52c0,4.46,2.21,8.09,7,8.09s6.76-3.72,6.76-8.09-2-8.19-6.76-8.19S2464.63,1486.55,2464.63,1491.14Z"/><path class="cls-36" d="M2507.59,1495.86c-1,4.33-4.64,6.75-9.4,6.75-6,0-10.39-4.46-10.39-11.21v-.61c0-6.67,4.2-11.17,10.26-11.17,6.45,0,9.87,5,9.87,11.08,0,.61,0,1,0,1.61h-16.07c.35,4,2.47,6.92,6.45,6.92,2.82,0,4.55-1.16,5.42-3.37Zm-9.4-12.91c-3.81,0-5.72,2.47-6.28,6.11h12C2503.64,1486.11,2502,1483,2498.19,1483Z"/><path class="cls-36" d="M2384.4,1559.69c-4.12,0-7.5-2.69-7.5-6.71v-.31a6.09,6.09,0,0,1,1.82-4.59c1.65-1.73,4.81-2.51,7.37-2.51a18.85,18.85,0,0,1,4.72.61v-1.6c0-2.9-1.48-4.68-4.72-4.68-2.47,0-4.21,1.08-4.34,3.51H2378v-.35c.48-4.5,3.94-6.36,8.23-6.36,4.93,0,8.49,2.29,8.49,8.7V1559h-2.95l-.74-2.38H2391A8.41,8.41,0,0,1,2384.4,1559.69Zm6.41-8.57v-1.74a14.49,14.49,0,0,0-4.51-.73c-2.64,0-5.41,1.12-5.41,3.94,0,2.42,1.69,3.77,4.2,3.77S2390.81,1554.28,2390.81,1551.12Z"/><path class="cls-36" d="M2409.51,1567.44c-4.89,0-10.13-1.77-10.13-5.8v-.26a5.33,5.33,0,0,1,2.9-4.68,4.74,4.74,0,0,1-1.47-3.25,4.46,4.46,0,0,1,2.25-3.85,6.43,6.43,0,0,1-2.17-5.15V1544c0-4.89,3.9-7.32,8.84-7.32a12.75,12.75,0,0,1,3.2.39l3.47-4.07h3.85v.56l-4.2,5a6.62,6.62,0,0,1,2.51,5.46v.52c0,4.72-4,7.1-9,7.1a12.19,12.19,0,0,1-3.89-.56,2.16,2.16,0,0,0-1.3,2,1.94,1.94,0,0,0,2.2,2h6.24c4.16,0,7.45,2,7.45,5.42v.3C2420.25,1565.32,2414.58,1567.44,2409.51,1567.44Zm6.8-6.75c0-1.39-1.21-2.26-3.86-2.26h-7.1a3,3,0,0,0-2.08,2.78c0,1.86,2.17,3,6.41,3C2413.58,1564.19,2416.31,1563.07,2416.31,1560.69Zm-11.56-16.5c0,2.81,1.94,4.28,5,4.28s5-1.47,5-4.28-1.87-4.29-5-4.29S2404.75,1541.46,2404.75,1544.19Z"/><path class="cls-36" d="M2428,1537.34v13.3c0,4.29,2.56,5.59,5.11,5.59s5.11-1.3,5.11-5.59v-13.3h3.9v13.47c0,6.24-4.38,8.88-9,8.88s-9-2.64-9-8.88v-13.47Z"/><path class="cls-36" d="M2454.84,1559.69c-4.11,0-7.49-2.69-7.49-6.71v-.31a6.09,6.09,0,0,1,1.82-4.59c1.65-1.73,4.81-2.51,7.36-2.51a18.79,18.79,0,0,1,4.72.61v-1.6c0-2.9-1.47-4.68-4.72-4.68-2.47,0-4.2,1.08-4.33,3.51h-3.72v-.35c.47-4.5,3.94-6.36,8.23-6.36,4.93,0,8.48,2.29,8.48,8.7V1559h-2.94l-.74-2.38h-.08A8.42,8.42,0,0,1,2454.84,1559.69Zm6.41-8.57v-1.74a14.38,14.38,0,0,0-4.5-.73c-2.64,0-5.41,1.12-5.41,3.94,0,2.42,1.69,3.77,4.2,3.77S2461.25,1554.28,2461.25,1551.12Z"/><text class="cls-37" transform="translate(2708.61 1427.27)">CH<tspan x="98.92" y="5.59">4</tspan></text><text class="cls-38" transform="translate(2702.21 1501.92)"><tspan class="cls-39">M</tspan><tspan class="cls-40" x="38.88" y="0">e</tspan><tspan x="62.66" y="0">tano</tspan></text><text class="cls-41" transform="translate(3065.63 1427.27)">N<tspan x="50.42" y="5.59">2</tspan><tspan x="89.96" y="0">O</tspan></text><path class="cls-36" d="M3107.67,1488.37c0,8.44-6.06,14.2-13.77,14.2s-13.82-5.76-13.82-14.2v-1c0-8.45,6.11-14.21,13.82-14.21s13.77,5.76,13.77,14.21Zm-4.12-.52c0-6-3.33-11-9.7-11s-9.65,5-9.65,11,3.46,11,9.7,11S3103.55,1493.86,3103.55,1487.85Zm-15.41-18.19,9.44-6.15,2,3.51-10.18,4.89Z"/><path class="cls-36" d="M3122.74,1490.53l8,10.83v.56h-4.2l-6.19-8.44-6.32,8.44h-4v-.56l8-10.66-6.89-9.87v-.56h4.33l5,7.4,5-7.4h4.07v.56Z"/><path class="cls-36" d="M3139.67,1473.6a2.83,2.83,0,0,1-5.63,0v-.13a2.83,2.83,0,0,1,5.63,0Zm-4.81,28.32v-21.65h3.94v21.65Z"/><path class="cls-36" d="M3155,1479.62a8.18,8.18,0,0,1,6.71,2.9h.09v-10.91h3.94v30.31h-3l-.82-2.6h-.09c-1.56,2.21-4.46,3.29-7.4,3.29-5.11,0-10.27-3.81-10.27-11V1491C3144.25,1484.47,3148.19,1479.62,3155,1479.62Zm-6.8,11.52c0,4.46,2.21,8.09,7,8.09s6.76-3.72,6.76-8.09-2-8.19-6.76-8.19S3148.24,1486.55,3148.24,1491.14Z"/><path class="cls-36" d="M3182.19,1479.62c5.93,0,10.78,4,10.78,11.13v.73c0,7.1-4.89,11.13-10.78,11.13s-10.79-4-10.79-11.13v-.73C3171.4,1483.6,3176.34,1479.62,3182.19,1479.62Zm0,19.61c4.59,0,6.79-3.59,6.79-8.14s-2.2-8.14-6.79-8.14-6.8,3.55-6.8,8.14S3177.6,1499.23,3182.19,1499.23Z"/><path class="cls-36" d="M3073.39,1559h-3.94v-21.66h3l.78,2.56h.08a7.84,7.84,0,0,1,6.37-3.2,8,8,0,0,1,6.11,2.29,8.59,8.59,0,0,1,2,6.11V1559h-3.9v-13.21c0-2.21-.39-3.47-1.26-4.33a5.06,5.06,0,0,0-3.68-1.3,5.43,5.43,0,0,0-4.28,1.69c-.83.86-1.22,2.29-1.22,4.46Z"/><path class="cls-36" d="M3098.68,1530.68a2.83,2.83,0,0,1-5.63,0v-.13a2.83,2.83,0,0,1,5.63,0Zm-4.81,28.32v-21.66h4V1559Z"/><path class="cls-36" d="M3115.66,1537.34v3.21h-6v12.17c0,2.55,1.43,3.29,3,3.29a5.28,5.28,0,0,0,3.12-1h.69v3.34a10.22,10.22,0,0,1-4.16,1c-4.67,0-6.67-2.56-6.67-6.54v-12.3h-3.12v-1.91c3.3-1.12,4.55-3.85,5.12-6.19h2v4.89Z"/><path class="cls-36" d="M3125.27,1559h-3.94v-21.66H3124l1,3.82h.09c.87-2.6,3.6-4,6.37-4a12.74,12.74,0,0,1,1.34.09v3.9h-1.21c-5.81,0-6.28,3.63-6.28,7.53Z"/><path class="cls-36" d="M3146.48,1536.7c5.94,0,10.79,4,10.79,11.12v.74c0,7.1-4.9,11.13-10.79,11.13s-10.78-4-10.78-11.13v-.74C3135.7,1540.68,3140.64,1536.7,3146.48,1536.7Zm0,19.61c4.59,0,6.8-3.59,6.8-8.14s-2.21-8.14-6.8-8.14-6.79,3.55-6.79,8.14S3141.89,1556.31,3146.48,1556.31Z"/><path class="cls-36" d="M3161.77,1552.5v-.35h3.77c0,2.86,1.64,4.34,5,4.34,2.9,0,4.37-1.22,4.37-3.21a2.76,2.76,0,0,0-.82-2.08c-2.08-2.08-7.58-1.43-10.4-4.24a5.59,5.59,0,0,1-1.56-3.77v-.3c0-4.38,3.9-6.19,7.89-6.19,4.24,0,7.88,1.94,7.92,6.06v.34h-3.77c-.13-2.51-1.77-3.33-4.28-3.33s-3.86,1.13-3.86,2.73a2.61,2.61,0,0,0,.78,1.9c2,2,7.49,1.3,10.4,4.2a5.66,5.66,0,0,1,1.55,4.29c0,4.94-4.2,6.76-8.18,6.76C3165.32,1559.65,3161.94,1557.27,3161.77,1552.5Z"/><path class="cls-36" d="M3193.94,1536.7c5.93,0,10.78,4,10.78,11.12v.74c0,7.1-4.89,11.13-10.78,11.13s-10.78-4-10.78-11.13v-.74C3183.16,1540.68,3188.1,1536.7,3193.94,1536.7Zm0,19.61c4.59,0,6.8-3.59,6.8-8.14s-2.21-8.14-6.8-8.14-6.8,3.55-6.8,8.14S3189.35,1556.31,3193.94,1556.31Z"/><text class="cls-42" transform="translate(1993.77 1427.27)">CO<tspan class="cls-35" x="100.37" y="5.59">2</tspan></text><path class="cls-36" d="M1972.14,1473.77a12.83,12.83,0,0,1,13.77,13.64v1a13.81,13.81,0,0,1-3.81,9.87,14.4,14.4,0,0,1-10,3.68h-9.83v-28.15Zm-5.76,3.64v20.87h5.42c3.16,0,5.54-.73,7.1-2.29,2-2,2.9-4.77,2.9-8.1a11.21,11.21,0,0,0-2.77-8c-1.69-1.69-4-2.51-7.32-2.51Z"/><path class="cls-36" d="M1996.17,1473.6a2.83,2.83,0,0,1-5.63,0v-.13a2.83,2.83,0,0,1,5.63,0Zm-4.8,28.32v-21.65h3.94v21.65Z"/><path class="cls-36" d="M2011.54,1479.62c5.94,0,10.79,4,10.79,11.13v.73c0,7.1-4.9,11.13-10.79,11.13s-10.78-4-10.78-11.13v-.73C2000.76,1483.6,2005.7,1479.62,2011.54,1479.62Zm0,19.61c4.6,0,6.8-3.59,6.8-8.14s-2.2-8.14-6.8-8.14-6.79,3.55-6.79,8.14S2007,1499.23,2011.54,1499.23Zm-5.71-23.08,9.44-6.15,2,3.51-10.18,4.9Z"/><path class="cls-36" d="M2037,1490.53l8,10.83v.56h-4.2l-6.19-8.44-6.32,8.44h-4v-.56l8-10.66-6.89-9.87v-.56h4.33l5,7.4,5-7.4h4.07v.56Z"/><path class="cls-36" d="M2053.93,1473.6a2.82,2.82,0,0,1-5.62,0v-.13a2.83,2.83,0,0,1,5.62,0Zm-4.8,28.32v-21.65h3.94v21.65Z"/><path class="cls-36" d="M2069.31,1479.62a8.18,8.18,0,0,1,6.71,2.9h.09v-10.91h3.94v30.31h-3l-.82-2.6h-.09c-1.56,2.21-4.46,3.29-7.4,3.29-5.11,0-10.27-3.81-10.27-11V1491C2058.52,1484.47,2062.46,1479.62,2069.31,1479.62Zm-6.8,11.52c0,4.46,2.21,8.09,7,8.09s6.76-3.72,6.76-8.09-2-8.19-6.76-8.19S2062.51,1486.55,2062.51,1491.14Z"/><path class="cls-36" d="M2096.46,1479.62c5.93,0,10.78,4,10.78,11.13v.73c0,7.1-4.89,11.13-10.78,11.13s-10.79-4-10.79-11.13v-.73C2085.67,1483.6,2090.61,1479.62,2096.46,1479.62Zm0,19.61c4.59,0,6.79-3.59,6.79-8.14s-2.2-8.14-6.79-8.14-6.8,3.55-6.8,8.14S2091.87,1499.23,2096.46,1499.23Z"/><path class="cls-36" d="M2130.19,1479.62a8.18,8.18,0,0,1,6.71,2.9h.09v-10.91h3.94v30.31H2138l-.82-2.6h-.09c-1.56,2.21-4.46,3.29-7.4,3.29-5.11,0-10.27-3.81-10.27-11V1491C2119.4,1484.47,2123.34,1479.62,2130.19,1479.62Zm-6.8,11.52c0,4.46,2.21,8.09,7,8.09s6.76-3.72,6.76-8.09-2-8.19-6.76-8.19S2123.39,1486.55,2123.39,1491.14Z"/><path class="cls-36" d="M2166.34,1495.86c-1,4.33-4.63,6.75-9.39,6.75-6,0-10.4-4.46-10.4-11.21v-.61c0-6.67,4.2-11.17,10.27-11.17,6.45,0,9.87,5,9.87,11.08,0,.61,0,1,0,1.61h-16.07c.35,4,2.47,6.92,6.45,6.92,2.82,0,4.55-1.16,5.42-3.37ZM2157,1483c-3.82,0-5.72,2.47-6.28,6.11h12C2162.4,1486.11,2160.8,1483,2157,1483Z"/><path class="cls-36" d="M1982.23,1547.87c0-6.5,4.59-11.17,10.78-11.17,5.07,0,9,2.77,9.62,7.79v.35H1999c-.47-3.16-2.6-4.81-5.93-4.81-4.16,0-6.89,3.51-6.89,8.18s2.65,8.1,6.76,8.1c3.46,0,5.59-1.56,6.11-4.8h3.63v.34c-.56,4.77-4.5,7.84-9.74,7.84-6.32,0-10.74-4.68-10.74-11.22Z"/><path class="cls-36" d="M2014.27,1559.69c-4.11,0-7.49-2.69-7.49-6.71v-.31a6.09,6.09,0,0,1,1.82-4.59c1.65-1.73,4.81-2.51,7.36-2.51a18.79,18.79,0,0,1,4.72.61v-1.6c0-2.9-1.47-4.68-4.72-4.68-2.47,0-4.2,1.08-4.33,3.51h-3.72v-.35c.47-4.5,3.94-6.36,8.22-6.36,4.94,0,8.49,2.29,8.49,8.7V1559h-2.94l-.74-2.38h-.09A8.38,8.38,0,0,1,2014.27,1559.69Zm6.41-8.57v-1.74a14.38,14.38,0,0,0-4.5-.73c-2.64,0-5.42,1.12-5.42,3.94,0,2.42,1.69,3.77,4.21,3.77S2020.68,1554.28,2020.68,1551.12Z"/><path class="cls-36" d="M2034.88,1559h-3.94v-21.66h2.64l1,3.82h.09c.86-2.6,3.59-4,6.36-4a12.74,12.74,0,0,1,1.34.09v3.9h-1.21c-5.8,0-6.28,3.63-6.28,7.53Z"/><path class="cls-36" d="M2057.57,1559.69a9.27,9.27,0,0,1-7-3.2h-.13l-.82,2.51h-2.77v-30.32h3.94v11.18h.08a8.9,8.9,0,0,1,7.28-3.16c5.07,0,10.22,3.81,10.22,11v.74C2068.4,1554.93,2064.54,1559.69,2057.57,1559.69Zm6.84-11.52c0-4.46-2.2-8.1-7-8.1s-6.75,3.73-6.75,8.1,2,8.19,6.75,8.19S2064.41,1552.76,2064.41,1548.17Z"/><path class="cls-36" d="M2083.68,1536.7c5.94,0,10.79,4,10.79,11.12v.74c0,7.1-4.9,11.13-10.79,11.13s-10.78-4-10.78-11.13v-.74C2072.9,1540.68,2077.84,1536.7,2083.68,1536.7Zm0,19.61c4.59,0,6.8-3.59,6.8-8.14s-2.21-8.14-6.8-8.14-6.8,3.55-6.8,8.14S2079.09,1556.31,2083.68,1556.31Z"/><path class="cls-36" d="M2104.08,1559h-3.94v-21.66h2.94l.78,2.56h.09a7.81,7.81,0,0,1,6.36-3.2,8,8,0,0,1,6.11,2.29c1.3,1.34,2,3.42,2,6.11V1559h-3.9v-13.21c0-2.21-.39-3.47-1.25-4.33a5.09,5.09,0,0,0-3.68-1.3,5.43,5.43,0,0,0-4.29,1.69c-.82.86-1.21,2.29-1.21,4.46Z"/><path class="cls-36" d="M2134.39,1536.7c5.93,0,10.78,4,10.78,11.12v.74c0,7.1-4.89,11.13-10.78,11.13s-10.79-4-10.79-11.13v-.74C2123.6,1540.68,2128.54,1536.7,2134.39,1536.7Zm0,19.61c4.59,0,6.8-3.59,6.8-8.14s-2.21-8.14-6.8-8.14-6.8,3.55-6.8,8.14S2129.8,1556.31,2134.39,1556.31Z"/><text class="cls-43" transform="translate(3449.31 1427.27)">O<tspan x="51.87" y="5.59">3</tspan></text><text class="cls-38" transform="translate(3425.87 1501.92)"><tspan class="cls-44">O</tspan><tspan class="cls-45" x="31.44" y="0">z</tspan><tspan x="52.13" y="0">ono </tspan></text><polygon class="cls-36" points="2055.42 1345.74 2063.72 1332.95 2072.02 1345.74 2055.42 1345.74"/><polygon class="cls-36" points="2413.03 1345.74 2421.33 1332.95 2429.63 1345.74 2413.03 1345.74"/><polygon class="cls-36" points="2770.64 1345.74 2778.94 1332.95 2787.24 1345.74 2770.64 1345.74"/><polygon class="cls-36" points="3128.25 1345.74 3136.55 1332.95 3144.84 1345.74 3128.25 1345.74"/><polygon class="cls-36" points="3485.86 1345.74 3494.16 1332.95 3502.45 1345.74 3485.86 1345.74"/><text class="cls-46" transform="translate(1902.92 715.88) scale(0.99 1)">Algunos de <tspan class="cls-47" x="242.51" y="0">l</tspan><tspan x="256.01" y="0">os </tspan><tspan class="cls-48" x="313.58" y="0">g</tspan><tspan x="337.56" y="0">ases que ju</tspan><tspan class="cls-49" x="566.76" y="0">eg</tspan><tspan x="615.9" y="0">an e</tspan><tspan class="cls-50" x="701.69" y="0">s</tspan><tspan class="cls-51" x="723.03" y="0">t</tspan><tspan class="cls-52" x="740.26" y="0">e papel son</tspan></text><polygon class="cls-36" points="2063.72 1329.13 2053.62 1345.74 2073.81 1345.74 2063.72 1329.13"/><polygon class="cls-36" points="2421.33 1329.13 2411.23 1345.74 2431.42 1345.74 2421.33 1329.13"/><polygon class="cls-36" points="2778.94 1329.13 2768.84 1345.74 2789.03 1345.74 2778.94 1329.13"/><polygon class="cls-36" points="3136.55 1329.13 3126.45 1345.74 3146.64 1345.74 3136.55 1329.13"/><polygon class="cls-36" points="3494.16 1329.13 3484.06 1345.74 3504.25 1345.74 3494.16 1329.13"/><text class="cls-53" transform="translate(234.71 323.39)"><tspan class="cls-54">G</tspan><tspan x="155.98" y="0">ASES DE EF</tspan><tspan class="cls-55" x="1294.25" y="0">E</tspan><tspan x="1415.46" y="0">C</tspan><tspan class="cls-56" x="1570.34" y="0">T</tspan><tspan x="1692.44" y="0">O INVERNADE</tspan><tspan class="cls-57" x="3129.46" y="0">R</tspan><tspan x="3266.52" y="0">O</tspan></text></svg>