<?xml version="1.0" encoding="utf-8"?>
<!-- Generator: Adobe Illustrator 25.2.0, SVG Export Plug-In . SVG Version: 6.00 Build 0)  -->
<svg version="1.1" id="Layer_1" xmlns="http://www.w3.org/2000/svg" xmlns:xlink="http://www.w3.org/1999/xlink" x="0px" y="0px"
	 viewBox="0 0 700 700" style="enable-background:new 0 0 700 700;" xml:space="preserve">
<style type="text/css">
	.st0{fill:#61DAFB;}
	.st1{fill:#FFFFFF;}
</style>
<circle class="st0" cx="350" cy="350" r="347.5"/>
<path class="st1" d="M595,316.2h-8.8v-6.8c0-124.1-106-225.1-236.2-225.1s-236.2,101-236.2,225.1v6.8H105c-9.3,0-18.2,3.7-24.7,10.3
	C73.7,333.1,70,342,70,351.2v52.5c0,9.3,3.7,18.2,10.3,24.7c6.6,6.6,15.5,10.2,24.7,10.3h8.8c0,4.6,1.8,9.1,5.1,12.4
	s7.7,5.1,12.4,5.1h26.2c4.6,0,9.1-1.8,12.4-5.1s5.1-7.7,5.1-12.4V316.2c0-4.6-1.8-9.1-5.1-12.4s-7.7-5.1-12.4-5.1h-25.9
	c5.9-109.5,101.6-196.9,218.4-196.9s212.5,87.4,218.4,196.9h-25.9c-4.6,0-9.1,1.8-12.4,5.1s-5.1,7.7-5.1,12.4v122.5
	c0,4.6,1.8,9.1,5.1,12.4s7.7,5.1,12.4,5.1h26.2c4.6,0,9.1-1.8,12.4-5.1s5.1-7.7,5.1-12.4h8.8c9.3,0,18.2-3.7,24.7-10.3
	c6.6-6.6,10.2-15.5,10.3-24.7v-52.5c0-9.3-3.7-18.2-10.3-24.7C613.2,320,604.3,316.3,595,316.2L595,316.2z M157.5,316.2v122.5h-26.2
	V316.2H157.5z M568.7,438.8h-26.2V316.2h26.2V438.8z"/>
<path class="st1" d="M492.7,261c-0.1-0.1-0.2-0.1-0.3-0.2c-23.8-14.2-51-21.8-78.8-21.8c-0.1,0-0.3,0-0.4,0
	c-21.7,0.2-42.9,4.2-63.1,12.1c-18.9-8-38.9-12.1-59.5-12.1c-0.1,0-0.2,0-0.3,0c-28.9,0.1-57.5,7.7-82.7,21.8
	c-0.1,0.1-0.2,0.1-0.3,0.2c-7.6,4.7-12.4,13.2-12.4,22.2V475c0,6.2,2.2,12.2,6.2,16.9c4,4.7,9.6,7.8,15.7,8.8c1.3,0.2,2.7,0.3,4,0.3
	c4.7,0,9.3-1.3,13.4-3.7c17.2-9.3,36.6-14.2,56.1-14.4c18.4,0,36.5,5,52.3,14.4c0.5,0.3,0.9,0.5,1.2,0.6c2.3,1.2,5,1.3,7.4,0.3
	c1.7,0.2,3.5-0.1,5.1-0.9c17.5-9.3,37.3-14.2,57-14.4c18.5,0,36.7,5,52.6,14.5c4,2.4,8.6,3.6,13.2,3.6c1.4,0,2.9-0.1,4.3-0.4
	c6.1-1,11.6-4.2,15.5-8.8c4-4.7,6.2-10.6,6.2-16.8V283.1C505.1,274.1,500.4,265.7,492.7,261z M339.2,476.4
	c-15.3-6.9-31.9-10.5-48.9-10.5c0,0-0.1,0-0.1,0c-22.4,0.2-44.6,5.9-64.3,16.5c-0.1,0.1-0.3,0.2-0.4,0.2c-1.8,1.1-4,1.6-6.1,1.2
	c-2.1-0.3-4-1.4-5.4-3c-1.4-1.6-2.2-3.7-2.2-5.8V283.1c0-3.1,1.6-5.9,4.2-7.6c22.7-12.6,48.4-19.4,74.3-19.5c0.1,0,0.2,0,0.3,0
	c16.7,0,33.1,3,48.6,9V476.4z M488.1,475c0,2.1-0.8,4.2-2.1,5.8c-1.4,1.6-3.3,2.7-5.4,3.1c-2.1,0.4-4.2,0-6-1.1
	c-18.5-11-39.5-16.9-61.1-16.9c-0.1,0-0.2,0-0.3,0c-17.9,0.2-35.8,3.8-52.4,10.6V265.3c16.9-6,34.5-9.2,52.5-9.3c0.1,0,0.3,0,0.4,0
	c24.6,0,48.7,6.6,69.8,19.2c0.1,0.1,0.2,0.1,0.3,0.2c2.7,1.6,4.4,4.6,4.4,7.7V475z"/>
</svg>
