<svg id="A5" xmlns="http://www.w3.org/2000/svg" viewBox="0 0 3242.51 2267.88"><defs><style>.cls-1{fill:#b4dee3;}.cls-2{fill:#06698c;}.cls-3,.cls-4,.cls-5{fill:none;stroke-miterlimit:10;}.cls-3{stroke:#b4dee3;}.cls-3,.cls-4{stroke-width:6px;}.cls-4{stroke:#fff;}.cls-5{stroke:#1d1d1b;stroke-width:4.01px;}.cls-17,.cls-25,.cls-36,.cls-6,.cls-7{fill:#1d1d1b;}.cls-7{font-size:43.16px;}.cls-25,.cls-36,.cls-7{font-family:Fabriga;}.cls-8{letter-spacing:-0.02em;}.cls-9{letter-spacing:-0.02em;}.cls-10{letter-spacing:-0.01em;}.cls-11{letter-spacing:-0.02em;}.cls-12{letter-spacing:-0.01em;}.cls-13{letter-spacing:0.02em;}.cls-14{letter-spacing:0em;}.cls-15{letter-spacing:-0.03em;}.cls-16{letter-spacing:-0.03em;}.cls-17{font-size:70px;letter-spacing:0.01em;}.cls-17,.cls-39{font-family:Fabriga-Bold, Fabriga;font-weight:700;}.cls-18{letter-spacing:0em;}.cls-19{letter-spacing:0.01em;}.cls-20{letter-spacing:-0.07em;}.cls-21{letter-spacing:-0.01em;}.cls-22{letter-spacing:-0.06em;}.cls-23{letter-spacing:-0.09em;}.cls-24{letter-spacing:0.01em;}.cls-25,.cls-36{font-size:50px;}.cls-25,.cls-37{letter-spacing:0.01em;}.cls-26{letter-spacing:-0.01em;}.cls-27{letter-spacing:0em;}.cls-28{letter-spacing:0.03em;}.cls-29{letter-spacing:-0.01em;}.cls-30{letter-spacing:-0.01em;}.cls-31{letter-spacing:0.01em;}.cls-32{letter-spacing:0em;}.cls-33{letter-spacing:-0.01em;}.cls-34{letter-spacing:-0.01em;}.cls-35{letter-spacing:-0.01em;}.cls-38{letter-spacing:-0.02em;}.cls-39{font-size:220px;fill:#ca9e67;}.cls-40{letter-spacing:-0.01em;}.cls-41{letter-spacing:-0.08em;}.cls-42{letter-spacing:-0.02em;}</style></defs><circle class="cls-1" cx="389.32" cy="940.39" r="75.44"/><circle class="cls-1" cx="562.68" cy="940.39" r="75.44"/><circle class="cls-1" cx="736.04" cy="940.39" r="75.44"/><circle class="cls-1" cx="909.4" cy="940.39" r="75.44"/><circle class="cls-1" cx="1082.76" cy="940.39" r="75.44"/><circle class="cls-1" cx="1256.12" cy="940.39" r="75.44"/><circle class="cls-1" cx="1429.48" cy="940.39" r="75.44"/><circle class="cls-1" cx="1602.84" cy="940.39" r="75.44"/><circle class="cls-1" cx="1776.2" cy="940.39" r="75.44"/><circle class="cls-1" cx="1949.56" cy="940.39" r="75.44"/><circle class="cls-1" cx="2122.92" cy="940.39" r="75.44"/><circle class="cls-1" cx="2296.28" cy="940.39" r="75.44"/><circle class="cls-1" cx="2469.63" cy="940.39" r="75.44"/><circle class="cls-2" cx="2642.99" cy="940.39" r="75.44"/><circle class="cls-2" cx="2816.35" cy="940.39" r="75.44"/><path class="cls-3" d="M2670.29,950.76a17.45,17.45,0,0,0,0-34.9,17,17,0,0,0-3.13.29,21.77,21.77,0,0,0-41.75-2.1,12,12,0,0,0-14.53,11.77,11.26,11.26,0,0,0,.16,1.85c-.4,0-.81-.06-1.22-.06a11.58,11.58,0,0,0,0,23.15Z"/><line class="cls-3" x1="2620.53" y1="962.69" x2="2604.43" y2="978.79"/><line class="cls-3" x1="2646" y1="962.69" x2="2629.9" y2="978.79"/><line class="cls-3" x1="2671.47" y1="962.69" x2="2655.37" y2="978.79"/><path class="cls-3" d="M2843.65,950.76a17.45,17.45,0,0,0,0-34.9,17,17,0,0,0-3.13.29,21.77,21.77,0,0,0-41.75-2.1,12,12,0,0,0-14.53,11.77,12.48,12.48,0,0,0,.15,1.85,12,12,0,0,0-1.21-.06,11.58,11.58,0,0,0,0,23.15Z"/><line class="cls-3" x1="2793.89" y1="962.69" x2="2777.79" y2="978.79"/><line class="cls-3" x1="2819.36" y1="962.69" x2="2803.26" y2="978.79"/><line class="cls-3" x1="2844.83" y1="962.69" x2="2828.73" y2="978.79"/><path class="cls-4" d="M2496.93,950.76a17.45,17.45,0,1,0,0-34.9,17,17,0,0,0-3.13.29,21.77,21.77,0,0,0-41.75-2.1,12,12,0,0,0-14.53,11.77,11.26,11.26,0,0,0,.16,1.85c-.4,0-.81-.06-1.22-.06a11.58,11.58,0,0,0,0,23.15Z"/><line class="cls-4" x1="2463.97" y1="962.69" x2="2447.86" y2="978.79"/><line class="cls-4" x1="2489.44" y1="962.69" x2="2473.33" y2="978.79"/><path class="cls-4" d="M2323.57,950.76a17.45,17.45,0,0,0,0-34.9,17,17,0,0,0-3.13.29,21.77,21.77,0,0,0-41.75-2.1,12,12,0,0,0-14.53,11.77,11.26,11.26,0,0,0,.16,1.85c-.4,0-.81-.06-1.22-.06a11.58,11.58,0,0,0,0,23.15Z"/><line class="cls-4" x1="2290.61" y1="962.69" x2="2274.5" y2="978.79"/><line class="cls-4" x1="2316.08" y1="962.69" x2="2299.97" y2="978.79"/><path class="cls-4" d="M2150.21,950.76a17.45,17.45,0,0,0,0-34.9,17,17,0,0,0-3.13.29,21.77,21.77,0,0,0-41.75-2.1,12,12,0,0,0-14.53,11.77,11.26,11.26,0,0,0,.16,1.85c-.4,0-.81-.06-1.22-.06a11.58,11.58,0,0,0,0,23.15Z"/><line class="cls-4" x1="2117.25" y1="962.69" x2="2101.14" y2="978.79"/><line class="cls-4" x1="2142.72" y1="962.69" x2="2126.62" y2="978.79"/><path class="cls-4" d="M1976.85,950.76a17.45,17.45,0,1,0,0-34.9,17,17,0,0,0-3.13.29,21.77,21.77,0,0,0-41.75-2.1,12,12,0,0,0-14.53,11.77,11.26,11.26,0,0,0,.16,1.85c-.4,0-.81-.06-1.22-.06a11.58,11.58,0,0,0,0,23.15Z"/><line class="cls-4" x1="1943.89" y1="962.69" x2="1927.79" y2="978.79"/><line class="cls-4" x1="1969.36" y1="962.69" x2="1953.26" y2="978.79"/><path class="cls-4" d="M1803.49,950.76a17.45,17.45,0,1,0,0-34.9,17,17,0,0,0-3.13.29,21.77,21.77,0,0,0-41.75-2.1,12,12,0,0,0-14.53,11.77,11.26,11.26,0,0,0,.16,1.85c-.4,0-.81-.06-1.22-.06a11.58,11.58,0,0,0,0,23.15Z"/><line class="cls-4" x1="1770.53" y1="962.69" x2="1754.43" y2="978.79"/><line class="cls-4" x1="1796" y1="962.69" x2="1779.9" y2="978.79"/><path class="cls-4" d="M1630.14,950.76a17.45,17.45,0,0,0,0-34.9,17.14,17.14,0,0,0-3.14.29,21.77,21.77,0,0,0-41.75-2.1,12,12,0,0,0-14.53,11.77,11.26,11.26,0,0,0,.16,1.85c-.4,0-.81-.06-1.22-.06a11.58,11.58,0,0,0,0,23.15Z"/><line class="cls-4" x1="1597.17" y1="962.69" x2="1581.07" y2="978.79"/><line class="cls-4" x1="1622.64" y1="962.69" x2="1606.54" y2="978.79"/><path class="cls-4" d="M1456.78,950.76a17.45,17.45,0,0,0,0-34.9,17.14,17.14,0,0,0-3.14.29,21.77,21.77,0,0,0-41.75-2.1,12,12,0,0,0-14.53,11.77,12.48,12.48,0,0,0,.16,1.85,12.16,12.16,0,0,0-1.22-.06,11.58,11.58,0,0,0,0,23.15Z"/><line class="cls-4" x1="1423.81" y1="962.69" x2="1407.71" y2="978.79"/><line class="cls-4" x1="1449.28" y1="962.69" x2="1433.18" y2="978.79"/><path class="cls-4" d="M1283.42,950.76a17.45,17.45,0,0,0,0-34.9,17.14,17.14,0,0,0-3.14.29,21.77,21.77,0,0,0-41.75-2.1A12,12,0,0,0,1224,925.82a12.48,12.48,0,0,0,.16,1.85,12.1,12.1,0,0,0-1.21-.06,11.58,11.58,0,1,0,0,23.15Z"/><line class="cls-4" x1="1250.45" y1="962.69" x2="1234.35" y2="978.79"/><line class="cls-4" x1="1275.92" y1="962.69" x2="1259.82" y2="978.79"/><path class="cls-4" d="M1110.06,950.76a17.45,17.45,0,0,0,0-34.9,17.14,17.14,0,0,0-3.14.29,21.77,21.77,0,0,0-41.75-2.1,12,12,0,0,0-14.53,11.77,12.48,12.48,0,0,0,.16,1.85,12.1,12.1,0,0,0-1.21-.06,11.58,11.58,0,1,0,0,23.15Z"/><line class="cls-4" x1="1077.09" y1="962.69" x2="1060.99" y2="978.79"/><line class="cls-4" x1="1102.56" y1="962.69" x2="1086.46" y2="978.79"/><path class="cls-4" d="M936.7,950.76a17.45,17.45,0,0,0,0-34.9,17.14,17.14,0,0,0-3.14.29,21.77,21.77,0,0,0-41.75-2.1,12,12,0,0,0-14.53,11.77,12.48,12.48,0,0,0,.16,1.85,12.1,12.1,0,0,0-1.21-.06,11.58,11.58,0,1,0,0,23.15Z"/><line class="cls-4" x1="903.73" y1="962.69" x2="887.63" y2="978.79"/><line class="cls-4" x1="929.2" y1="962.69" x2="913.1" y2="978.79"/><path class="cls-4" d="M763.34,950.76a17.45,17.45,0,0,0,0-34.9,17.14,17.14,0,0,0-3.14.29,21.77,21.77,0,0,0-41.75-2.1,12,12,0,0,0-14.53,11.77,12.48,12.48,0,0,0,.16,1.85,12.1,12.1,0,0,0-1.21-.06,11.58,11.58,0,1,0,0,23.15Z"/><line class="cls-4" x1="730.37" y1="962.69" x2="714.27" y2="978.79"/><line class="cls-4" x1="755.84" y1="962.69" x2="739.74" y2="978.79"/><path class="cls-4" d="M590,950.76a17.45,17.45,0,0,0,0-34.9,17,17,0,0,0-3.13.29,21.78,21.78,0,0,0-41.76-2.1,12,12,0,0,0-14.53,11.77,12.48,12.48,0,0,0,.16,1.85,12.1,12.1,0,0,0-1.21-.06,11.58,11.58,0,0,0,0,23.15Z"/><line class="cls-4" x1="557.01" y1="962.69" x2="540.91" y2="978.79"/><line class="cls-4" x1="582.48" y1="962.69" x2="566.38" y2="978.79"/><path class="cls-4" d="M416.62,950.76a17.45,17.45,0,1,0,0-34.9,17,17,0,0,0-3.13.29,21.78,21.78,0,0,0-41.76-2.1,12,12,0,0,0-14.52,11.77,12.48,12.48,0,0,0,.15,1.85,12.1,12.1,0,0,0-1.21-.06,11.58,11.58,0,0,0,0,23.15Z"/><line class="cls-4" x1="383.65" y1="962.69" x2="367.55" y2="978.79"/><line class="cls-4" x1="409.12" y1="962.69" x2="393.02" y2="978.79"/><path class="cls-5" d="M2897.8,1058.81v20.39a17.07,17.07,0,0,1-17,17H330.89a17.06,17.06,0,0,1-17-17v-20.39"/><path class="cls-6" d="M210,438.31a15.75,15.75,0,0,1,11.6,4.45c2.47,2.5,4.1,6.65,4.1,11.3v1.1a16.05,16.05,0,0,1-4.35,11.4c-2.56,2.6-6.86,4.25-11.35,4.25H198.75v-32.5Zm-6.57,4.2v24.1h6.17c3.61,0,6.32-.85,8.1-2.65,2.27-2.3,3.31-5.5,3.31-9.35s-1.09-7.1-3.16-9.2-4.54-2.9-8.34-2.9Z"/><path class="cls-6" d="M253.84,463.81c-1.18,5-5.28,7.8-10.71,7.8-6.86,0-11.85-5.15-11.85-12.95V458c0-7.7,4.79-12.9,11.7-12.9,7.36,0,11.26,5.75,11.26,12.8,0,.7,0,1.1-.05,1.85H235.87c.4,4.6,2.82,8,7.36,8,3.21,0,5.18-1.35,6.17-3.9Zm-10.71-14.9c-4.34,0-6.52,2.85-7.16,7h13.68C249.35,452.56,247.52,448.91,243.13,448.91Z"/><path class="cls-6" d="M259.81,463.31v-.4h4.3c0,3.3,1.87,5,5.67,5,3.31,0,5-1.4,5-3.7a3.19,3.19,0,0,0-.94-2.4c-2.37-2.4-8.64-1.65-11.85-4.9a6.52,6.52,0,0,1-1.77-4.35v-.35c0-5,4.44-7.15,9-7.15,4.84,0,9,2.25,9,7v.4h-4.3c-.15-2.9-2-3.85-4.89-3.85s-4.39,1.3-4.39,3.15a3.05,3.05,0,0,0,.89,2.2c2.27,2.3,8.54,1.5,11.85,4.85a6.56,6.56,0,0,1,1.77,4.95c0,5.7-4.79,7.8-9.33,7.8C263.86,471.56,260,468.81,259.81,463.31Z"/><path class="cls-6" d="M297,445.06a9.28,9.28,0,0,1,7.65,3.35h.1v-12.6h4.49v35h-3.35l-.94-3h-.1c-1.78,2.55-5.08,3.8-8.44,3.8-5.83,0-11.7-4.4-11.7-12.7v-.75C284.69,450.66,289.18,445.06,297,445.06Zm-7.75,13.3c0,5.15,2.52,9.35,7.95,9.35,5.28,0,7.7-4.3,7.7-9.35s-2.32-9.45-7.7-9.45C291.65,448.91,289.23,453.06,289.23,458.36Z"/><path class="cls-6" d="M338.69,463.81c-1.18,5-5.28,7.8-10.71,7.8-6.86,0-11.85-5.15-11.85-12.95V458c0-7.7,4.79-12.9,11.7-12.9,7.36,0,11.26,5.75,11.26,12.8,0,.7,0,1.1,0,1.85H320.72c.4,4.6,2.82,8,7.36,8,3.21,0,5.18-1.35,6.17-3.9ZM328,448.91c-4.34,0-6.52,2.85-7.16,7H334.5C334.2,452.56,332.37,448.91,328,448.91Z"/><path class="cls-6" d="M360.46,438.11a3.22,3.22,0,0,1-6.42,0V438a3.23,3.23,0,0,1,6.42,0ZM355,470.81v-25h4.49v25Z"/><path class="cls-6" d="M372,470.81h-4.49v-25h3.35l.89,2.95h.1a8.9,8.9,0,0,1,7.26-3.7,9,9,0,0,1,7,2.65c1.48,1.55,2.27,4,2.27,7.05v16.05h-4.45V455.56c0-2.55-.44-4-1.43-5a5.75,5.75,0,0,0-4.19-1.5,6.15,6.15,0,0,0-4.89,1.95c-.94,1-1.38,2.65-1.38,5.15Z"/><path class="cls-6" d="M401.28,438.11a3.22,3.22,0,0,1-6.42,0V438a3.23,3.23,0,0,1,6.42,0Zm-5.48,32.7v-25h4.49v25Z"/><path class="cls-6" d="M407,458c0-7.5,5.24-12.9,12.29-12.9,5.78,0,10.32,3.2,11,9v.4h-4.09c-.55-3.65-3-5.55-6.77-5.55-4.74,0-7.85,4-7.85,9.45s3,9.35,7.71,9.35c3.94,0,6.36-1.8,7-5.55h4.14v.4c-.64,5.5-5.13,9.05-11.1,9.05-7.21,0-12.25-5.4-12.25-12.95Z"/><path class="cls-6" d="M441.9,438.11a3.22,3.22,0,0,1-6.42,0V438a3.23,3.23,0,0,1,6.42,0Zm-5.48,32.7v-25h4.49v25Z"/><path class="cls-6" d="M459.92,445.06c6.76,0,12.29,4.6,12.29,12.85v.85c0,8.2-5.58,12.85-12.29,12.85s-12.29-4.65-12.29-12.85v-.85C447.63,449.66,453.25,445.06,459.92,445.06Zm0,22.65c5.23,0,7.75-4.15,7.75-9.4s-2.52-9.4-7.75-9.4-7.75,4.1-7.75,9.4S454.69,467.71,459.92,467.71Z"/><path class="cls-6" d="M477.83,463.31v-.4h4.3c0,3.3,1.88,5,5.68,5,3.3,0,5-1.4,5-3.7a3.16,3.16,0,0,0-.94-2.4c-2.37-2.4-8.63-1.65-11.84-4.9a6.48,6.48,0,0,1-1.78-4.35v-.35c0-5,4.44-7.15,9-7.15,4.84,0,9,2.25,9,7v.4H492c-.15-2.9-2-3.85-4.88-3.85s-4.4,1.3-4.4,3.15a3.05,3.05,0,0,0,.89,2.2c2.27,2.3,8.54,1.5,11.85,4.85a6.56,6.56,0,0,1,1.78,4.95c0,5.7-4.79,7.8-9.33,7.8C481.88,471.56,478,468.81,477.83,463.31Z"/><path class="cls-6" d="M524.18,445.06a9.3,9.3,0,0,1,7.66,3.35h.09v-12.6h4.5v35h-3.36l-.94-3H532c-1.77,2.55-5.08,3.8-8.44,3.8-5.82,0-11.7-4.4-11.7-12.7v-.75C511.89,450.66,516.38,445.06,524.18,445.06Zm-7.75,13.3c0,5.15,2.52,9.35,8,9.35s7.7-4.3,7.7-9.35-2.32-9.45-7.7-9.45S516.43,453.06,516.43,458.36Z"/><path class="cls-6" d="M565.89,463.81c-1.18,5-5.28,7.8-10.71,7.8-6.86,0-11.84-5.15-11.84-12.95V458c0-7.7,4.78-12.9,11.69-12.9,7.36,0,11.26,5.75,11.26,12.8,0,.7,0,1.1,0,1.85H547.93c.39,4.6,2.81,8,7.35,8,3.21,0,5.18-1.35,6.17-3.9Zm-10.71-14.9c-4.34,0-6.51,2.85-7.15,7H561.7C561.4,452.56,559.58,448.91,555.18,448.91Z"/><path class="cls-6" d="M577.44,463.36c0,3.1,1.68,3.9,4.25,3.45h.74v3.9a17.39,17.39,0,0,1-3,.25c-4.25,0-6.47-2.55-6.47-7V435.81h4.49Z"/><path class="cls-6" d="M596.1,463.31v-.4h4.3c0,3.3,1.87,5,5.67,5,3.31,0,5-1.4,5-3.7a3.19,3.19,0,0,0-.94-2.4c-2.37-2.4-8.64-1.65-11.85-4.9a6.47,6.47,0,0,1-1.77-4.35v-.35c0-5,4.44-7.15,9-7.15,4.84,0,9,2.25,9,7v.4h-4.29c-.15-2.9-2-3.85-4.89-3.85s-4.39,1.3-4.39,3.15a3,3,0,0,0,.89,2.2c2.27,2.3,8.54,1.5,11.84,4.85a6.53,6.53,0,0,1,1.78,4.95c0,5.7-4.79,7.8-9.33,7.8C600.15,471.56,596.3,468.81,596.1,463.31Z"/><path class="cls-6" d="M627.54,438.11a3.22,3.22,0,0,1-6.41,0V438a3.22,3.22,0,0,1,6.41,0Zm-5.48,32.7v-25h4.5v25Z"/><path class="cls-6" d="M644.18,480.56c-5.58,0-11.55-2.05-11.55-6.7v-.3a6.15,6.15,0,0,1,3.3-5.4,5.52,5.52,0,0,1-1.67-3.75,5.14,5.14,0,0,1,2.56-4.45,7.49,7.49,0,0,1-2.47-5.95v-.55c0-5.65,4.45-8.45,10.07-8.45a14.39,14.39,0,0,1,3.66.45l3.95-4.7h4.39v.65l-4.79,5.75a7.64,7.64,0,0,1,2.86,6.3v.6c0,5.45-4.59,8.2-10.26,8.2a13.91,13.91,0,0,1-4.45-.65,2.52,2.52,0,0,0-1.48,2.25,2.22,2.22,0,0,0,2.52,2.35h7.11c4.74,0,8.49,2.35,8.49,6.25v.35C656.42,478.11,650,480.56,644.18,480.56Zm7.75-7.8c0-1.6-1.38-2.6-4.4-2.6h-8.09a3.42,3.42,0,0,0-2.37,3.2c0,2.15,2.47,3.45,7.3,3.45C648.82,476.81,651.93,475.51,651.93,472.76Zm-13.18-19.05c0,3.25,2.22,5,5.67,5s5.68-1.7,5.68-5-2.12-4.95-5.68-4.95S638.75,450.56,638.75,453.71Z"/><path class="cls-6" d="M666.24,463.36c0,3.1,1.68,3.9,4.25,3.45h.74v3.9a17.57,17.57,0,0,1-3,.25c-4.25,0-6.47-2.55-6.47-7V435.81h4.49Z"/><path class="cls-6" d="M687.32,445.06c6.76,0,12.29,4.6,12.29,12.85v.85c0,8.2-5.58,12.85-12.29,12.85S675,467,675,458.76v-.85C675,449.66,680.65,445.06,687.32,445.06Zm0,22.65c5.23,0,7.75-4.15,7.75-9.4s-2.52-9.4-7.75-9.4-7.75,4.1-7.75,9.4S682.09,467.71,687.32,467.71Z"/><path class="cls-6" d="M724.93,453.56l-9.08-14.5v-.75h4.88l6.92,11.5,7.2-11.5h4.74v.75l-9.33,14.4,11,16.6v.75h-4.84l-8.88-13.65-9.33,13.65h-4.79v-.75Z"/><path class="cls-6" d="M756.32,453.56l-9.08-14.5v-.75h4.89l6.91,11.5,7.21-11.5H771v.75l-9.33,14.4,11,16.6v.75h-4.84l-8.88-13.65-9.33,13.65h-4.79v-.75Z"/><path class="cls-6" d="M786.38,463.31v-.4h4.3c0,3.3,1.87,5,5.67,5,3.31,0,5-1.4,5-3.7a3.19,3.19,0,0,0-.94-2.4c-2.37-2.4-8.64-1.65-11.85-4.9a6.52,6.52,0,0,1-1.77-4.35v-.35c0-5,4.44-7.15,9-7.15,4.84,0,9,2.25,9,7v.4H800.5c-.15-2.9-2-3.85-4.89-3.85s-4.39,1.3-4.39,3.15a3.05,3.05,0,0,0,.89,2.2c2.27,2.3,8.54,1.5,11.85,4.85a6.56,6.56,0,0,1,1.77,4.95c0,5.7-4.79,7.8-9.33,7.8C790.43,471.56,786.58,468.81,786.38,463.31Z"/><path class="cls-6" d="M833.82,463.81c-1.19,5-5.28,7.8-10.71,7.8-6.86,0-11.85-5.15-11.85-12.95V458c0-7.7,4.79-12.9,11.7-12.9,7.35,0,11.25,5.75,11.25,12.8,0,.7,0,1.1-.05,1.85H815.85c.4,4.6,2.81,8,7.36,8,3.2,0,5.18-1.35,6.17-3.9Zm-10.71-14.9c-4.35,0-6.52,2.85-7.16,7h13.67C829.33,452.56,827.5,448.91,823.11,448.91Z"/><path class="cls-6" d="M854.79,470.81H850.3v-35h4.49v12.65h.1a8.92,8.92,0,0,1,7-3.4,9,9,0,0,1,7,2.65c1.48,1.55,2.27,4,2.27,7.05v16.05h-4.44V455.56c0-2.55-.44-4-1.43-5a5.77,5.77,0,0,0-4.2-1.5,6.14,6.14,0,0,0-4.88,1.95c-.94,1-1.39,2.65-1.39,5.15Z"/><path class="cls-6" d="M886.24,471.61c-4.69,0-8.54-3.1-8.54-7.75v-.35a7.09,7.09,0,0,1,2.07-5.3c1.88-2,5.48-2.9,8.39-2.9a21.16,21.16,0,0,1,5.38.7v-1.85c0-3.35-1.68-5.4-5.38-5.4-2.81,0-4.79,1.25-4.93,4.05H879v-.4c.54-5.2,4.49-7.35,9.38-7.35,5.63,0,9.68,2.65,9.68,10.05v15.7h-3.36l-.84-2.75h-.1A9.52,9.52,0,0,1,886.24,471.61Zm7.3-9.9v-2a16,16,0,0,0-5.13-.85c-3,0-6.17,1.3-6.17,4.55,0,2.8,1.92,4.35,4.79,4.35S893.54,465.36,893.54,461.71Z"/><path class="cls-6" d="M925.92,445.06c6.77,0,12.29,4.6,12.29,12.85v.85c0,8.2-5.57,12.85-12.29,12.85s-12.29-4.65-12.29-12.85v-.85C913.63,449.66,919.26,445.06,925.92,445.06Zm0,22.65c5.23,0,7.75-4.15,7.75-9.4s-2.52-9.4-7.75-9.4-7.75,4.1-7.75,9.4S920.69,467.71,925.92,467.71Z"/><path class="cls-6" d="M957.36,471.61a10.51,10.51,0,0,1-7.94-3.7h-.15l-.94,2.9h-3.16v-35h4.49v12.9h.1a10.1,10.1,0,0,1,8.3-3.65c5.77,0,11.65,4.4,11.65,12.7v.85C969.71,466.11,965.31,471.61,957.36,471.61Zm7.8-13.3c0-5.15-2.51-9.35-7.94-9.35s-7.7,4.3-7.7,9.35,2.32,9.45,7.7,9.45S965.16,463.61,965.16,458.31Z"/><path class="cls-6" d="M975.28,463.31v-.4h4.3c0,3.3,1.87,5,5.67,5,3.31,0,5-1.4,5-3.7a3.19,3.19,0,0,0-.94-2.4c-2.37-2.4-8.64-1.65-11.85-4.9a6.52,6.52,0,0,1-1.77-4.35v-.35c0-5,4.44-7.15,9-7.15,4.84,0,9,2.25,9,7v.4H989.4c-.15-2.9-2-3.85-4.89-3.85s-4.39,1.3-4.39,3.15A3.05,3.05,0,0,0,981,454c2.27,2.3,8.54,1.5,11.85,4.85a6.56,6.56,0,0,1,1.77,4.95c0,5.7-4.79,7.8-9.33,7.8C979.33,471.56,975.48,468.81,975.28,463.31Z"/><path class="cls-6" d="M1022.72,463.81c-1.19,5-5.28,7.8-10.71,7.8-6.86,0-11.85-5.15-11.85-12.95V458c0-7.7,4.79-12.9,11.7-12.9,7.35,0,11.25,5.75,11.25,12.8,0,.7,0,1.1-.05,1.85h-18.31c.4,4.6,2.81,8,7.36,8,3.2,0,5.18-1.35,6.17-3.9ZM1012,448.91c-4.35,0-6.52,2.85-7.16,7h13.67C1018.23,452.56,1016.4,448.91,1012,448.91Z"/><path class="cls-6" d="M1034.51,470.81H1030v-25h3l1.14,4.4h.1c1-3,4.09-4.6,7.25-4.6.3,0,1.19.05,1.53.1v4.5h-1.38c-6.61,0-7.16,4.2-7.16,8.7Z"/><path class="cls-6" d="M1066.1,445.81h4.5v.65l-10,24.35h-4.34l-10-24.35v-.65H1051l6.27,16.55c.29.7,1.08,2.95,1.33,3.75h.1c.25-.8.94-3,1.23-3.75Z"/><path class="cls-6" d="M1082.1,471.61c-4.69,0-8.54-3.1-8.54-7.75v-.35a7.09,7.09,0,0,1,2.07-5.3c1.88-2,5.48-2.9,8.39-2.9a21.16,21.16,0,0,1,5.38.7v-1.85c0-3.35-1.68-5.4-5.38-5.4-2.81,0-4.79,1.25-4.93,4.05h-4.25v-.4c.54-5.2,4.49-7.35,9.38-7.35,5.63,0,9.67,2.65,9.67,10.05v15.7h-3.35l-.84-2.75h-.1A9.52,9.52,0,0,1,1082.1,471.61Zm7.3-9.9v-2a16,16,0,0,0-5.13-.85c-3,0-6.17,1.3-6.17,4.55,0,2.8,1.92,4.35,4.79,4.35S1089.4,465.36,1089.4,461.71Z"/><path class="cls-6" d="M1112.6,445.06a9.28,9.28,0,0,1,7.65,3.35h.1v-12.6h4.49v35h-3.35l-.94-3h-.1c-1.78,2.55-5.08,3.8-8.44,3.8-5.83,0-11.7-4.4-11.7-12.7v-.75C1100.31,450.66,1104.8,445.06,1112.6,445.06Zm-7.75,13.3c0,5.15,2.52,9.35,8,9.35,5.28,0,7.7-4.3,7.7-9.35s-2.32-9.45-7.7-9.45S1104.85,453.06,1104.85,458.36Z"/><path class="cls-6" d="M1144,445.06c6.77,0,12.29,4.6,12.29,12.85v.85c0,8.2-5.57,12.85-12.29,12.85s-12.29-4.65-12.29-12.85v-.85C1131.75,449.66,1137.38,445.06,1144,445.06Zm0,22.65c5.24,0,7.75-4.15,7.75-9.4s-2.51-9.4-7.75-9.4-7.75,4.1-7.75,9.4S1138.81,467.71,1144,467.71Z"/><path class="cls-6" d="M1176.28,445.81v15.35c0,4.95,2.91,6.45,5.82,6.45s5.82-1.5,5.82-6.45V445.81h4.45v15.55c0,7.2-5,10.25-10.27,10.25s-10.27-3.05-10.27-10.25V445.81Z"/><path class="cls-6" d="M1204.41,470.81h-4.49v-25h3.35l.89,2.95h.1a8.9,8.9,0,0,1,7.26-3.7,9,9,0,0,1,7,2.65c1.48,1.55,2.27,4,2.27,7.05v16.05h-4.44V455.56c0-2.55-.45-4-1.44-5a5.73,5.73,0,0,0-4.19-1.5,6.16,6.16,0,0,0-4.89,1.95c-.94,1-1.38,2.65-1.38,5.15Z"/><path class="cls-6" d="M1235.85,471.61c-4.69,0-8.54-3.1-8.54-7.75v-.35a7.06,7.06,0,0,1,2.08-5.3c1.87-2,5.48-2.9,8.39-2.9a21.22,21.22,0,0,1,5.38.7v-1.85c0-3.35-1.68-5.4-5.38-5.4-2.82,0-4.79,1.25-4.94,4.05h-4.24v-.4c.54-5.2,4.49-7.35,9.38-7.35,5.62,0,9.67,2.65,9.67,10.05v15.7h-3.36l-.84-2.75h-.09A9.53,9.53,0,0,1,1235.85,471.61Zm7.31-9.9v-2a16.06,16.06,0,0,0-5.14-.85c-3,0-6.17,1.3-6.17,4.55,0,2.8,1.93,4.35,4.79,4.35S1243.16,465.36,1243.16,461.71Z"/><path class="cls-6" d="M1263.25,458c0-7.5,5.23-12.9,12.29-12.9,5.77,0,10.31,3.2,11,9v.4h-4.1c-.54-3.65-3-5.55-6.76-5.55-4.74,0-7.85,4-7.85,9.45s3,9.35,7.7,9.35c4,0,6.37-1.8,7-5.55h4.14v.4c-.64,5.5-5.13,9.05-11.1,9.05-7.21,0-12.24-5.4-12.24-12.95Z"/><path class="cls-6" d="M1297.11,463.36c0,3.1,1.68,3.9,4.24,3.45h.74v3.9a17.39,17.39,0,0,1-3,.25c-4.24,0-6.46-2.55-6.46-7V435.81h4.49Z"/><path class="cls-6" d="M1315.32,471.61c-4.69,0-8.54-3.1-8.54-7.75v-.35a7.09,7.09,0,0,1,2.07-5.3c1.88-2,5.48-2.9,8.4-2.9a21.22,21.22,0,0,1,5.38.7v-1.85c0-3.35-1.68-5.4-5.38-5.4-2.82,0-4.79,1.25-4.94,4.05h-4.25v-.4c.55-5.2,4.5-7.35,9.38-7.35,5.63,0,9.68,2.65,9.68,10.05v15.7h-3.36l-.84-2.75h-.1A9.51,9.51,0,0,1,1315.32,471.61Zm7.31-9.9v-2a16.06,16.06,0,0,0-5.14-.85c-3,0-6.17,1.3-6.17,4.55,0,2.8,1.93,4.35,4.79,4.35S1322.63,465.36,1322.63,461.71Z"/><path class="cls-6" d="M1339.31,470.81h-4.49v-25h3l1.13,4.4h.1c1-3,4.1-4.6,7.26-4.6.3,0,1.18.05,1.53.1v4.5h-1.38c-6.62,0-7.16,4.2-7.16,8.7Z"/><path class="cls-6" d="M1360.14,471.61c-4.69,0-8.54-3.1-8.54-7.75v-.35a7.09,7.09,0,0,1,2.07-5.3c1.88-2,5.48-2.9,8.39-2.9a21.24,21.24,0,0,1,5.39.7v-1.85c0-3.35-1.68-5.4-5.39-5.4-2.81,0-4.78,1.25-4.93,4.05h-4.25v-.4c.55-5.2,4.5-7.35,9.38-7.35,5.63,0,9.68,2.65,9.68,10.05v15.7h-3.36l-.84-2.75h-.1A9.52,9.52,0,0,1,1360.14,471.61Zm7.31-9.9v-2a16.06,16.06,0,0,0-5.14-.85c-3,0-6.17,1.3-6.17,4.55,0,2.8,1.93,4.35,4.79,4.35S1367.45,465.36,1367.45,461.71Z"/><path class="cls-6" d="M1393.31,470.81h-4.49v-25h3l1.13,4.4h.1c1-3,4.1-4.6,7.26-4.6.29,0,1.18.05,1.53.1v4.5h-1.38c-6.62,0-7.16,4.2-7.16,8.7Z"/><path class="cls-6" d="M1428.26,463.81c-1.19,5-5.28,7.8-10.71,7.8-6.87,0-11.85-5.15-11.85-12.95V458c0-7.7,4.79-12.9,11.7-12.9,7.35,0,11.25,5.75,11.25,12.8,0,.7,0,1.1-.05,1.85h-18.31c.39,4.6,2.81,8,7.35,8,3.21,0,5.19-1.35,6.17-3.9Zm-10.71-14.9c-4.35,0-6.52,2.85-7.16,7h13.67C1423.77,452.56,1421.94,448.91,1417.55,448.91Z"/><path class="cls-6" d="M1439.81,463.36c0,3.1,1.67,3.9,4.24,3.45h.74v3.9a17.39,17.39,0,0,1-3,.25c-4.24,0-6.47-2.55-6.47-7V435.81h4.5Z"/><path class="cls-6" d="M1458,471.61c-4.69,0-8.54-3.1-8.54-7.75v-.35a7.09,7.09,0,0,1,2.07-5.3c1.88-2,5.48-2.9,8.4-2.9a21.22,21.22,0,0,1,5.38.7v-1.85c0-3.35-1.68-5.4-5.38-5.4-2.82,0-4.79,1.25-4.94,4.05h-4.25v-.4c.55-5.2,4.5-7.35,9.38-7.35,5.63,0,9.68,2.65,9.68,10.05v15.7h-3.36l-.84-2.75h-.1A9.52,9.52,0,0,1,1458,471.61Zm7.31-9.9v-2a16.06,16.06,0,0,0-5.14-.85c-3,0-6.17,1.3-6.17,4.55,0,2.8,1.93,4.35,4.79,4.35S1465.33,465.36,1465.33,461.71Z"/><path class="cls-6" d="M1477.17,454.11h14.32v4.1h-14.32Z"/><path class="cls-6" d="M197,528c0-7.5,5.23-12.9,12.29-12.9,5.77,0,10.32,3.2,11,9v.4h-4.1c-.54-3.65-3-5.55-6.76-5.55-4.74,0-7.85,4.05-7.85,9.45s3,9.35,7.7,9.35c3.95,0,6.37-1.8,7-5.55h4.15v.4c-.65,5.5-5.14,9.05-11.11,9.05-7.21,0-12.24-5.4-12.24-13Z"/><path class="cls-6" d="M231.87,508.11a3.22,3.22,0,0,1-6.41,0V508a3.22,3.22,0,0,1,6.41,0Zm-5.47,32.7v-25h4.49v25Z"/><path class="cls-6" d="M249.89,515.06c6.76,0,12.29,4.6,12.29,12.85v.85c0,8.2-5.58,12.85-12.29,12.85S237.6,537,237.6,528.76v-.85C237.6,519.66,243.23,515.06,249.89,515.06Zm0,22.65c5.23,0,7.75-4.15,7.75-9.4s-2.52-9.4-7.75-9.4-7.75,4.1-7.75,9.4S244.66,537.71,249.89,537.71Zm-6.51-26.65,10.76-7.1,2.27,4.05-11.6,5.65Z"/><path class="cls-6" d="M273.63,540.81h-4.49v-25h3.36l.89,3h.1a8.88,8.88,0,0,1,7.25-3.7,9,9,0,0,1,7,2.65c1.48,1.55,2.27,3.95,2.27,7v16h-4.44V525.56c0-2.55-.44-4-1.43-5a5.77,5.77,0,0,0-4.2-1.5,6.14,6.14,0,0,0-4.88,2c-.94,1-1.39,2.65-1.39,5.15Z"/><path class="cls-6" d="M317.86,515.06a9.28,9.28,0,0,1,7.65,3.35h.1v-12.6h4.49v35h-3.35l-.94-3h-.1c-1.78,2.55-5.09,3.8-8.44,3.8-5.83,0-11.7-4.4-11.7-12.7v-.75C305.57,520.66,310.06,515.06,317.86,515.06Zm-7.75,13.3c0,5.15,2.52,9.35,7.95,9.35,5.28,0,7.7-4.3,7.7-9.35s-2.32-9.45-7.7-9.45C312.53,518.91,310.11,523.06,310.11,528.36Z"/><path class="cls-6" d="M359.57,533.81c-1.19,5-5.28,7.8-10.71,7.8-6.86,0-11.85-5.15-11.85-13V528c0-7.7,4.79-12.9,11.7-12.9,7.35,0,11.25,5.75,11.25,12.8,0,.7,0,1.1,0,1.85H341.6c.4,4.6,2.82,8,7.36,8,3.21,0,5.18-1.35,6.17-3.9Zm-10.71-14.9c-4.35,0-6.52,2.85-7.16,7.05h13.67C355.08,522.56,353.25,518.91,348.86,518.91Z"/><path class="cls-6" d="M380.3,533.36c0,3.1,1.68,3.9,4.24,3.45h.75v3.9a17.6,17.6,0,0,1-3,.25c-4.24,0-6.46-2.55-6.46-7V505.81h4.49Z"/><path class="cls-6" d="M398.51,541.61c-4.69,0-8.54-3.1-8.54-7.75v-.35a7.06,7.06,0,0,1,2.08-5.3c1.87-2,5.48-2.9,8.39-2.9a21.16,21.16,0,0,1,5.38.7v-1.85c0-3.35-1.68-5.4-5.38-5.4-2.82,0-4.79,1.25-4.94,4h-4.24v-.4c.54-5.2,4.49-7.35,9.38-7.35,5.62,0,9.67,2.65,9.67,10.05v15.7H407l-.83-2.75H406A9.53,9.53,0,0,1,398.51,541.61Zm7.31-9.9v-2a16,16,0,0,0-5.13-.85c-3,0-6.17,1.3-6.17,4.55,0,2.8,1.92,4.35,4.78,4.35S405.82,535.36,405.82,531.71Z"/><path class="cls-6" d="M434.59,541.61c-4.68,0-8.53-3.1-8.53-7.75v-.35a7.09,7.09,0,0,1,2.07-5.3c1.87-2,5.48-2.9,8.39-2.9a21.16,21.16,0,0,1,5.38.7v-1.85c0-3.35-1.68-5.4-5.38-5.4-2.81,0-4.79,1.25-4.94,4h-4.24v-.4c.54-5.2,4.49-7.35,9.38-7.35,5.62,0,9.67,2.65,9.67,10.05v15.7H443l-.84-2.75h-.1A9.53,9.53,0,0,1,434.59,541.61Zm7.31-9.9v-2a16,16,0,0,0-5.13-.85c-3,0-6.17,1.3-6.17,4.55,0,2.8,1.92,4.35,4.78,4.35S441.9,535.36,441.9,531.71Z"/><path class="cls-6" d="M452.81,528c0-7.5,5.23-12.9,12.29-12.9,5.77,0,10.32,3.2,11,9v.4H472c-.54-3.65-3-5.55-6.76-5.55-4.74,0-7.85,4.05-7.85,9.45s3,9.35,7.7,9.35c3.95,0,6.37-1.8,7-5.55h4.15v.4c-.65,5.5-5.14,9.05-11.11,9.05-7.21,0-12.24-5.4-12.24-13Z"/><path class="cls-6" d="M495.26,515.81v3.7H488.4v14c0,3,1.63,3.8,3.45,3.8a5.94,5.94,0,0,0,3.56-1.15h.79v3.85a11.49,11.49,0,0,1-4.74,1.2c-5.33,0-7.6-3-7.6-7.55v-14.2H480.3v-2.2c3.75-1.3,5.18-4.45,5.83-7.15h2.27v5.65Z"/><path class="cls-6" d="M507.5,508.11a3.22,3.22,0,0,1-6.42,0V508a3.23,3.23,0,0,1,6.42,0ZM502,540.81v-25h4.49v25Z"/><path class="cls-6" d="M531,515.81h4.49v.65l-10,24.35h-4.35l-10-24.35v-.65h4.69l6.27,16.55c.3.7,1.09,2.95,1.33,3.75h.1c.25-.8.94-3,1.23-3.75Z"/><path class="cls-6" d="M545.55,508.11a3.22,3.22,0,0,1-6.41,0V508a3.22,3.22,0,0,1,6.41,0Zm-5.47,32.7v-25h4.49v25Z"/><path class="cls-6" d="M563.57,515.06a9.28,9.28,0,0,1,7.65,3.35h.1v-12.6h4.49v35h-3.35l-.94-3h-.1c-1.78,2.55-5.08,3.8-8.44,3.8-5.83,0-11.7-4.4-11.7-12.7v-.75C551.28,520.66,555.77,515.06,563.57,515.06Zm-7.75,13.3c0,5.15,2.52,9.35,7.95,9.35s7.7-4.3,7.7-9.35-2.32-9.45-7.7-9.45S555.82,523.06,555.82,528.36Z"/><path class="cls-6" d="M591.41,541.61c-4.69,0-8.54-3.1-8.54-7.75v-.35a7.09,7.09,0,0,1,2.07-5.3c1.88-2,5.48-2.9,8.4-2.9a21.22,21.22,0,0,1,5.38.7v-1.85c0-3.35-1.68-5.4-5.38-5.4-2.82,0-4.79,1.25-4.94,4h-4.25v-.4c.55-5.2,4.5-7.35,9.38-7.35,5.63,0,9.68,2.65,9.68,10.05v15.7h-3.36l-.84-2.75h-.1A9.52,9.52,0,0,1,591.41,541.61Zm7.31-9.9v-2a16.06,16.06,0,0,0-5.14-.85c-3,0-6.17,1.3-6.17,4.55,0,2.8,1.93,4.35,4.79,4.35S598.72,535.36,598.72,531.71Z"/><path class="cls-6" d="M621.91,515.06a9.3,9.3,0,0,1,7.66,3.35h.09v-12.6h4.5v35H630.8l-.94-3h-.1c-1.77,2.55-5.08,3.8-8.44,3.8-5.82,0-11.7-4.4-11.7-12.7v-.75C609.62,520.66,614.12,515.06,621.91,515.06Zm-7.75,13.3c0,5.15,2.52,9.35,8,9.35,5.28,0,7.7-4.3,7.7-9.35s-2.32-9.45-7.7-9.45S614.16,523.06,614.16,528.36Z"/><path class="cls-6" d="M656,540.81h-4.49v-35H656v12.65h.1a8.91,8.91,0,0,1,7-3.4,9,9,0,0,1,7,2.65c1.48,1.55,2.27,3.95,2.27,7v16h-4.44V525.56c0-2.55-.45-4-1.43-5a5.77,5.77,0,0,0-4.2-1.5,6.17,6.17,0,0,0-4.89,2c-.93,1-1.38,2.65-1.38,5.15Z"/><path class="cls-6" d="M683.86,515.81v15.35c0,5,2.91,6.45,5.83,6.45s5.82-1.5,5.82-6.45V515.81H700v15.55c0,7.2-5,10.25-10.26,10.25s-10.27-3.05-10.27-10.25V515.81Z"/><path class="cls-6" d="M712,540.81h-4.5v-25h3.36l.89,3h.1a7.82,7.82,0,0,1,6.66-3.7,8.06,8.06,0,0,1,7.55,4.3h.1a8.89,8.89,0,0,1,7.65-4.3c5.34,0,8.54,3.15,8.54,8.7v17h-4.49v-15.7c0-4.05-1.68-6.05-5.18-6.05-3.26,0-5.53,2.4-5.53,6.4v15.35h-4.44v-15.7c0-4.05-1.73-6.05-5.23-6.05s-5.43,2.5-5.48,6.45Z"/><path class="cls-6" d="M757.46,541.61c-4.69,0-8.54-3.1-8.54-7.75v-.35a7.09,7.09,0,0,1,2.07-5.3c1.88-2,5.48-2.9,8.39-2.9a21.16,21.16,0,0,1,5.38.7v-1.85c0-3.35-1.68-5.4-5.38-5.4-2.81,0-4.79,1.25-4.93,4H750.2v-.4c.54-5.2,4.49-7.35,9.38-7.35,5.63,0,9.67,2.65,9.67,10.05v15.7H765.9l-.84-2.75H765A9.52,9.52,0,0,1,757.46,541.61Zm7.3-9.9v-2a16,16,0,0,0-5.13-.85c-3,0-6.17,1.3-6.17,4.55,0,2.8,1.92,4.35,4.79,4.35S764.76,535.36,764.76,531.71Z"/><path class="cls-6" d="M781.45,540.81H777v-25h3.36l.89,3h.1a8.88,8.88,0,0,1,7.25-3.7,9,9,0,0,1,7,2.65c1.48,1.55,2.27,3.95,2.27,7v16h-4.44V525.56c0-2.55-.44-4-1.43-5a5.77,5.77,0,0,0-4.2-1.5,6.14,6.14,0,0,0-4.88,2c-.94,1-1.38,2.65-1.38,5.15Z"/><path class="cls-6" d="M812.89,541.61c-4.69,0-8.54-3.1-8.54-7.75v-.35a7.09,7.09,0,0,1,2.07-5.3c1.88-2,5.48-2.9,8.39-2.9a21.16,21.16,0,0,1,5.38.7v-1.85c0-3.35-1.67-5.4-5.38-5.4-2.81,0-4.79,1.25-4.93,4h-4.25v-.4c.54-5.2,4.49-7.35,9.38-7.35,5.63,0,9.68,2.65,9.68,10.05v15.7h-3.36l-.84-2.75h-.1A9.52,9.52,0,0,1,812.89,541.61Zm7.3-9.9v-2a16,16,0,0,0-5.13-.85c-3,0-6.17,1.3-6.17,4.55,0,2.8,1.92,4.35,4.79,4.35S820.19,535.36,820.19,531.71Z"/><path class="cls-6" d="M840.28,528c0-7.5,5.23-12.9,12.29-12.9,5.78,0,10.32,3.2,11,9v.4h-4.1c-.54-3.65-3-5.55-6.76-5.55-4.74,0-7.85,4.05-7.85,9.45s3,9.35,7.7,9.35c4,0,6.37-1.8,7-5.55h4.15v.4c-.64,5.5-5.13,9.05-11.11,9.05-7.2,0-12.24-5.4-12.24-13Z"/><path class="cls-6" d="M880.91,515.06c6.76,0,12.29,4.6,12.29,12.85v.85c0,8.2-5.58,12.85-12.29,12.85s-12.3-4.65-12.3-12.85v-.85C868.61,519.66,874.24,515.06,880.91,515.06Zm0,22.65c5.23,0,7.75-4.15,7.75-9.4s-2.52-9.4-7.75-9.4-7.75,4.1-7.75,9.4S875.67,537.71,880.91,537.71Z"/><path class="cls-6" d="M904.65,540.81h-4.49v-25h3.35l.89,3h.1a8.9,8.9,0,0,1,7.26-3.7,9,9,0,0,1,7,2.65c1.48,1.55,2.27,3.95,2.27,7v16h-4.45V525.56c0-2.55-.44-4-1.43-5a5.76,5.76,0,0,0-4.19-1.5,6.15,6.15,0,0,0-4.89,2c-.94,1-1.38,2.65-1.38,5.15Z"/><path class="cls-6" d="M959.14,533.81c-1.18,5-5.28,7.8-10.71,7.8-6.86,0-11.85-5.15-11.85-13V528c0-7.7,4.79-12.9,11.7-12.9,7.36,0,11.26,5.75,11.26,12.8,0,.7,0,1.1,0,1.85H941.17c.4,4.6,2.82,8,7.36,8,3.21,0,5.18-1.35,6.17-3.9Zm-10.71-14.9c-4.34,0-6.52,2.85-7.16,7.05H955C954.65,522.56,952.82,518.91,948.43,518.91Z"/><path class="cls-6" d="M970.69,533.36c0,3.1,1.68,3.9,4.25,3.45h.74v3.9a17.57,17.57,0,0,1-3,.25c-4.25,0-6.47-2.55-6.47-7V505.81h4.49Z"/><path class="cls-6" d="M996,508.11a3.22,3.22,0,0,1-6.41,0V508a3.22,3.22,0,0,1,6.41,0Zm-5.48,32.7v-25H995v25Z"/><path class="cls-6" d="M1007.46,540.81H1003v-25h3.36l.89,3h.09a8.91,8.91,0,0,1,7.26-3.7,9,9,0,0,1,7,2.65c1.48,1.55,2.27,3.95,2.27,7v16h-4.44V525.56c0-2.55-.44-4-1.43-5a5.77,5.77,0,0,0-4.2-1.5,6.17,6.17,0,0,0-4.89,2c-.93,1-1.38,2.65-1.38,5.15Z"/><path class="cls-6" d="M1030.22,528c0-7.5,5.23-12.9,12.29-12.9,5.77,0,10.32,3.2,11,9v.4h-4.1c-.54-3.65-3-5.55-6.76-5.55-4.74,0-7.85,4.05-7.85,9.45s3,9.35,7.7,9.35c4,0,6.37-1.8,7-5.55h4.15v.4c-.65,5.5-5.14,9.05-11.11,9.05-7.21,0-12.24-5.4-12.24-13Z"/><path class="cls-6" d="M1064.33,540.81h-4.5v-25h3l1.14,4.4h.1c1-3,4.1-4.6,7.25-4.6.3,0,1.19,0,1.54.1v4.5h-1.39c-6.61,0-7.15,4.2-7.15,8.7Z"/><path class="cls-6" d="M1099.27,533.81c-1.18,5-5.28,7.8-10.71,7.8-6.86,0-11.84-5.15-11.84-13V528c0-7.7,4.78-12.9,11.69-12.9,7.36,0,11.26,5.75,11.26,12.8,0,.7,0,1.1-.05,1.85h-18.31c.39,4.6,2.81,8,7.35,8,3.21,0,5.18-1.35,6.17-3.9Zm-10.71-14.9c-4.34,0-6.51,2.85-7.16,7.05h13.68C1094.78,522.56,1093,518.91,1088.56,518.91Z"/><path class="cls-6" d="M1111.07,540.81h-4.49v-25h3.35l.89,3h.1a7.83,7.83,0,0,1,6.67-3.7,8.07,8.07,0,0,1,7.55,4.3h.1a8.88,8.88,0,0,1,7.65-4.3c5.33,0,8.54,3.15,8.54,8.7v17h-4.49v-15.7c0-4.05-1.68-6.05-5.19-6.05-3.26,0-5.53,2.4-5.53,6.4v15.35h-4.44v-15.7c0-4.05-1.73-6.05-5.23-6.05s-5.43,2.5-5.48,6.45Z"/><path class="cls-6" d="M1170.4,533.81c-1.18,5-5.28,7.8-10.71,7.8-6.86,0-11.85-5.15-11.85-13V528c0-7.7,4.79-12.9,11.7-12.9,7.36,0,11.26,5.75,11.26,12.8,0,.7,0,1.1,0,1.85h-18.32c.4,4.6,2.82,8,7.36,8,3.21,0,5.18-1.35,6.17-3.9Zm-10.71-14.9c-4.34,0-6.52,2.85-7.16,7.05h13.68C1165.91,522.56,1164.08,518.91,1159.69,518.91Z"/><path class="cls-6" d="M1182.2,540.81h-4.49v-25h3.35l.89,3h.1a8.9,8.9,0,0,1,7.26-3.7,9,9,0,0,1,7,2.65c1.48,1.55,2.27,3.95,2.27,7v16h-4.45V525.56c0-2.55-.44-4-1.43-5a5.76,5.76,0,0,0-4.19-1.5,6.15,6.15,0,0,0-4.89,2c-.94,1-1.38,2.65-1.38,5.15Z"/><path class="cls-6" d="M1218.23,515.81v3.7h-6.86v14c0,3,1.63,3.8,3.45,3.8a5.94,5.94,0,0,0,3.56-1.15h.79v3.85a11.49,11.49,0,0,1-4.74,1.2c-5.33,0-7.6-3-7.6-7.55v-14.2h-3.56v-2.2c3.75-1.3,5.19-4.45,5.83-7.15h2.27v5.65Z"/><path class="cls-6" d="M1235.7,515.06c6.77,0,12.3,4.6,12.3,12.85v.85c0,8.2-5.58,12.85-12.3,12.85s-12.29-4.65-12.29-12.85v-.85C1223.41,519.66,1229,515.06,1235.7,515.06Zm0,22.65c5.24,0,7.75-4.15,7.75-9.4s-2.51-9.4-7.75-9.4-7.75,4.1-7.75,9.4S1230.47,537.71,1235.7,537.71Z"/><path class="cls-6" d="M1275.14,515.06a9.28,9.28,0,0,1,7.65,3.35h.1v-12.6h4.49v35H1284l-.94-3h-.1c-1.78,2.55-5.08,3.8-8.44,3.8-5.82,0-11.7-4.4-11.7-12.7v-.75C1262.85,520.66,1267.34,515.06,1275.14,515.06Zm-7.75,13.3c0,5.15,2.52,9.35,7.95,9.35s7.7-4.3,7.7-9.35-2.32-9.45-7.7-9.45S1267.39,523.06,1267.39,528.36Z"/><path class="cls-6" d="M1316.85,533.81c-1.18,5-5.28,7.8-10.71,7.8-6.86,0-11.85-5.15-11.85-13V528c0-7.7,4.79-12.9,11.7-12.9,7.36,0,11.26,5.75,11.26,12.8,0,.7,0,1.1,0,1.85h-18.32c.4,4.6,2.82,8,7.36,8,3.21,0,5.18-1.35,6.17-3.9Zm-10.71-14.9c-4.34,0-6.52,2.85-7.16,7.05h13.68C1312.36,522.56,1310.53,518.91,1306.14,518.91Z"/><path class="cls-6" d="M1337.58,533.36c0,3.1,1.68,3.9,4.25,3.45h.74v3.9a17.48,17.48,0,0,1-3,.25c-4.25,0-6.47-2.55-6.47-7V505.81h4.49Z"/><path class="cls-6" d="M1358.66,515.06c6.76,0,12.29,4.6,12.29,12.85v.85c0,8.2-5.58,12.85-12.29,12.85s-12.29-4.65-12.29-12.85v-.85C1346.37,519.66,1352,515.06,1358.66,515.06Zm0,22.65c5.23,0,7.75-4.15,7.75-9.4s-2.52-9.4-7.75-9.4-7.75,4.1-7.75,9.4S1353.43,537.71,1358.66,537.71Z"/><path class="cls-6" d="M1376.58,533.31v-.4h4.29c0,3.3,1.88,5,5.68,5,3.3,0,5-1.4,5-3.7a3.16,3.16,0,0,0-.94-2.4c-2.36-2.4-8.63-1.65-11.84-4.9a6.48,6.48,0,0,1-1.78-4.35v-.35c0-5.05,4.44-7.15,9-7.15,4.83,0,9,2.25,9,7v.4h-4.3c-.14-2.9-2-3.85-4.88-3.85s-4.4,1.3-4.4,3.15a3.05,3.05,0,0,0,.89,2.2c2.27,2.3,8.54,1.5,11.85,4.85a6.56,6.56,0,0,1,1.78,5c0,5.7-4.79,7.8-9.33,7.8C1380.62,541.56,1376.77,538.81,1376.58,533.31Z"/><path class="cls-6" d="M1421.54,550.56c-5.57,0-11.55-2-11.55-6.7v-.3a6.14,6.14,0,0,1,3.31-5.4,5.53,5.53,0,0,1-1.68-3.75,5.15,5.15,0,0,1,2.57-4.45,7.49,7.49,0,0,1-2.47-6v-.55c0-5.65,4.44-8.45,10.07-8.45a14.31,14.31,0,0,1,3.65.45l4-4.7h4.4v.65l-4.79,5.75a7.67,7.67,0,0,1,2.86,6.3v.6c0,5.45-4.59,8.2-10.27,8.2a13.81,13.81,0,0,1-4.44-.65,2.5,2.5,0,0,0-1.48,2.25,2.22,2.22,0,0,0,2.52,2.35h7.1c4.74,0,8.5,2.35,8.5,6.25v.35C1433.79,548.11,1427.32,550.56,1421.54,550.56Zm7.75-7.8c0-1.6-1.38-2.6-4.39-2.6h-8.1a3.41,3.41,0,0,0-2.36,3.2c0,2.15,2.46,3.45,7.3,3.45C1426.18,546.81,1429.29,545.51,1429.29,542.76Zm-13.18-19c0,3.25,2.22,4.95,5.68,4.95s5.68-1.7,5.68-4.95-2.13-5-5.68-5S1416.11,520.56,1416.11,523.71Z"/><path class="cls-6" d="M1445.78,541.61c-4.69,0-8.54-3.1-8.54-7.75v-.35a7.09,7.09,0,0,1,2.07-5.3c1.88-2,5.48-2.9,8.39-2.9a21.1,21.1,0,0,1,5.38.7v-1.85c0-3.35-1.67-5.4-5.38-5.4-2.81,0-4.78,1.25-4.93,4h-4.25v-.4c.55-5.2,4.49-7.35,9.38-7.35,5.63,0,9.68,2.65,9.68,10.05v15.7h-3.36l-.84-2.75h-.1A9.52,9.52,0,0,1,1445.78,541.61Zm7.3-9.9v-2a16,16,0,0,0-5.13-.85c-3,0-6.17,1.3-6.17,4.55,0,2.8,1.93,4.35,4.79,4.35S1453.08,535.36,1453.08,531.71Z"/><path class="cls-6" d="M1463.94,533.31v-.4h4.3c0,3.3,1.87,5,5.67,5,3.31,0,5-1.4,5-3.7a3.19,3.19,0,0,0-.94-2.4c-2.37-2.4-8.64-1.65-11.85-4.9a6.52,6.52,0,0,1-1.77-4.35v-.35c0-5.05,4.44-7.15,9-7.15,4.84,0,9,2.25,9,7v.4h-4.29c-.15-2.9-2-3.85-4.89-3.85s-4.39,1.3-4.39,3.15a3.05,3.05,0,0,0,.89,2.2c2.27,2.3,8.54,1.5,11.85,4.85a6.56,6.56,0,0,1,1.77,5c0,5.7-4.79,7.8-9.33,7.8C1468,541.56,1464.14,538.81,1463.94,533.31Z"/><path class="cls-6" d="M1511.38,533.81c-1.19,5-5.28,7.8-10.71,7.8-6.86,0-11.85-5.15-11.85-13V528c0-7.7,4.79-12.9,11.7-12.9,7.35,0,11.25,5.75,11.25,12.8,0,.7,0,1.1,0,1.85h-18.31c.4,4.6,2.81,8,7.36,8,3.2,0,5.18-1.35,6.17-3.9Zm-10.71-14.9c-4.35,0-6.52,2.85-7.16,7.05h13.67C1506.89,522.56,1505.06,518.91,1500.67,518.91Z"/><path class="cls-6" d="M1517.35,533.31v-.4h4.29c0,3.3,1.88,5,5.68,5,3.31,0,5-1.4,5-3.7a3.19,3.19,0,0,0-.94-2.4c-2.37-2.4-8.64-1.65-11.85-4.9a6.48,6.48,0,0,1-1.78-4.35v-.35c0-5.05,4.45-7.15,9-7.15,4.84,0,9,2.25,9,7v.4h-4.29c-.15-2.9-2-3.85-4.89-3.85s-4.39,1.3-4.39,3.15a3,3,0,0,0,.89,2.2c2.27,2.3,8.54,1.5,11.84,4.85a6.53,6.53,0,0,1,1.78,5c0,5.7-4.79,7.8-9.33,7.8C1521.4,541.56,1517.55,538.81,1517.35,533.31Z"/><path class="cls-6" d="M209.27,585.06a9.29,9.29,0,0,1,7.65,3.35h.1v-12.6h4.49v35h-3.36l-.93-3h-.1c-1.78,2.55-5.09,3.8-8.44,3.8-5.83,0-11.7-4.4-11.7-12.7v-.75C197,590.66,201.47,585.06,209.27,585.06Zm-7.75,13.3c0,5.15,2.52,9.35,7.95,9.35,5.28,0,7.7-4.3,7.7-9.35s-2.32-9.45-7.7-9.45C203.94,588.91,201.52,593.06,201.52,598.36Z"/><path class="cls-6" d="M251,603.81c-1.19,5-5.28,7.8-10.71,7.8-6.86,0-11.85-5.15-11.85-13V598c0-7.7,4.79-12.9,11.7-12.9,7.35,0,11.25,5.75,11.25,12.8,0,.7,0,1.1-.05,1.85H233c.4,4.6,2.81,8,7.36,8,3.2,0,5.18-1.35,6.17-3.9Zm-10.71-14.9c-4.35,0-6.52,2.85-7.16,7.05h13.67C246.49,592.56,244.66,588.91,240.27,588.91Z"/><path class="cls-6" d="M288.74,603.81c-1.19,5-5.28,7.8-10.71,7.8-6.86,0-11.85-5.15-11.85-13V598c0-7.7,4.79-12.9,11.7-12.9,7.35,0,11.25,5.75,11.25,12.8,0,.7,0,1.1-.05,1.85H270.77c.4,4.6,2.81,8,7.36,8,3.2,0,5.18-1.35,6.17-3.9ZM278,588.91c-4.35,0-6.52,2.85-7.16,7.05h13.67C284.25,592.56,282.42,588.91,278,588.91Z"/><path class="cls-6" d="M293.23,587l3.7-1v-2.2c0-5.7,2.62-8.7,7.8-8.7a15.65,15.65,0,0,1,4.44.65v3.75h-.79a10.45,10.45,0,0,0-3.4-.55c-2.57,0-3.56,1.3-3.56,4.25v2.65H309v3.7h-7.61v21.3h-4.49v-21.3h-3.7Z"/><path class="cls-6" d="M334.89,603.81c-1.18,5-5.28,7.8-10.71,7.8-6.86,0-11.85-5.15-11.85-13V598c0-7.7,4.79-12.9,11.7-12.9,7.36,0,11.26,5.75,11.26,12.8,0,.7,0,1.1-.05,1.85H316.92c.4,4.6,2.82,8,7.36,8,3.21,0,5.18-1.35,6.17-3.9Zm-10.71-14.9c-4.35,0-6.52,2.85-7.16,7.05h13.67C330.4,592.56,328.57,588.91,324.18,588.91Z"/><path class="cls-6" d="M340.91,598c0-7.5,5.23-12.9,12.29-12.9,5.78,0,10.32,3.2,11,9v.4h-4.1c-.54-3.65-3-5.55-6.76-5.55-4.74,0-7.85,4.05-7.85,9.45s3,9.35,7.7,9.35c4,0,6.37-1.8,7-5.55h4.15v.4c-.64,5.5-5.14,9.05-11.11,9.05-7.2,0-12.24-5.4-12.24-13Z"/><path class="cls-6" d="M383.36,585.81v3.7H376.5v14c0,3,1.63,3.8,3.45,3.8a5.94,5.94,0,0,0,3.56-1.15h.79v3.85a11.49,11.49,0,0,1-4.74,1.2c-5.33,0-7.6-3-7.6-7.55v-14.2H368.4v-2.2c3.76-1.3,5.19-4.45,5.83-7.15h2.27v5.65Z"/><path class="cls-6" d="M400.83,585.06c6.77,0,12.29,4.6,12.29,12.85v.85c0,8.2-5.57,12.85-12.29,12.85s-12.29-4.65-12.29-12.85v-.85C388.54,589.66,394.17,585.06,400.83,585.06Zm0,22.65c5.24,0,7.75-4.15,7.75-9.4s-2.51-9.4-7.75-9.4-7.75,4.1-7.75,9.4S395.6,607.71,400.83,607.71Z"/><path class="cls-6" d="M434.55,578.11a3.22,3.22,0,0,1-6.42,0V578a3.23,3.23,0,0,1,6.42,0Zm-5.48,32.7v-25h4.49v25Z"/><path class="cls-6" d="M446.05,610.81h-4.5v-25h3.36l.89,3h.1a8.89,8.89,0,0,1,7.25-3.7,9,9,0,0,1,7,2.65c1.48,1.55,2.27,3.95,2.27,7v16h-4.45V595.56c0-2.55-.44-4-1.43-5a5.76,5.76,0,0,0-4.19-1.5,6.15,6.15,0,0,0-4.89,2c-.94,1-1.38,2.65-1.38,5.15Z"/><path class="cls-6" d="M486,585.81h4.49v.65l-10,24.35h-4.34l-10-24.35v-.65h4.68l6.27,16.55c.3.7,1.09,2.95,1.34,3.75h.09c.25-.8.94-3,1.24-3.75Z"/><path class="cls-6" d="M515.89,603.81c-1.18,5-5.28,7.8-10.71,7.8-6.86,0-11.85-5.15-11.85-13V598c0-7.7,4.79-12.9,11.7-12.9,7.36,0,11.26,5.75,11.26,12.8,0,.7,0,1.1,0,1.85H497.93c.39,4.6,2.81,8,7.35,8,3.21,0,5.18-1.35,6.17-3.9Zm-10.71-14.9c-4.34,0-6.51,2.85-7.16,7.05H511.7C511.4,592.56,509.57,588.91,505.18,588.91Z"/><path class="cls-6" d="M527.69,610.81H523.2v-25h3l1.13,4.4h.1c1-3,4.1-4.6,7.26-4.6.29,0,1.18,0,1.53.1v4.5h-1.38c-6.62,0-7.16,4.2-7.16,8.7Z"/><path class="cls-6" d="M546.35,610.81h-4.5v-25h3.36l.89,3h.1a8.9,8.9,0,0,1,7.26-3.7,9,9,0,0,1,7,2.65c1.48,1.55,2.27,3.95,2.27,7v16h-4.45V595.56c0-2.55-.44-4-1.43-5a5.76,5.76,0,0,0-4.19-1.5,6.15,6.15,0,0,0-4.89,2c-.94,1-1.38,2.65-1.38,5.15Z"/><path class="cls-6" d="M577.79,611.61c-4.69,0-8.54-3.1-8.54-7.75v-.35a7.09,7.09,0,0,1,2.07-5.3c1.88-2,5.48-2.9,8.39-2.9a21.1,21.1,0,0,1,5.38.7v-1.85c0-3.35-1.67-5.4-5.38-5.4-2.81,0-4.78,1.25-4.93,4h-4.25v-.4c.55-5.2,4.49-7.35,9.38-7.35,5.63,0,9.68,2.65,9.68,10.05v15.7h-3.36l-.84-2.75h-.1A9.52,9.52,0,0,1,577.79,611.61Zm7.3-9.9v-2a16,16,0,0,0-5.13-.85c-3,0-6.17,1.3-6.17,4.55,0,2.8,1.93,4.35,4.79,4.35S585.09,605.36,585.09,601.71Z"/><path class="cls-6" d="M608.29,585.06a9.26,9.26,0,0,1,7.65,3.35h.1v-12.6h4.5v35h-3.36l-.94-3h-.1c-1.77,2.55-5.08,3.8-8.44,3.8-5.82,0-11.7-4.4-11.7-12.7v-.75C596,590.66,600.49,585.06,608.29,585.06Zm-7.75,13.3c0,5.15,2.52,9.35,8,9.35,5.28,0,7.7-4.3,7.7-9.35s-2.32-9.45-7.7-9.45S600.54,593.06,600.54,598.36Z"/><path class="cls-6" d="M650,603.81c-1.18,5-5.28,7.8-10.71,7.8-6.86,0-11.84-5.15-11.84-13V598c0-7.7,4.78-12.9,11.69-12.9,7.36,0,11.26,5.75,11.26,12.8,0,.7,0,1.1,0,1.85H632c.39,4.6,2.81,8,7.35,8,3.21,0,5.18-1.35,6.17-3.9Zm-10.71-14.9c-4.34,0-6.51,2.85-7.16,7.05h13.68C645.51,592.56,643.69,588.91,639.29,588.91Z"/><path class="cls-6" d="M661.8,610.81h-4.49v-25h3l1.13,4.4h.1c1-3,4.1-4.6,7.26-4.6.3,0,1.18,0,1.53.1v4.5H669c-6.62,0-7.16,4.2-7.16,8.7Z"/><path class="cls-6" d="M686.48,585.06c6.76,0,12.29,4.6,12.29,12.85v.85c0,8.2-5.58,12.85-12.29,12.85s-12.29-4.65-12.29-12.85v-.85C674.19,589.66,679.82,585.06,686.48,585.06Zm0,22.65c5.23,0,7.75-4.15,7.75-9.4s-2.52-9.4-7.75-9.4-7.75,4.1-7.75,9.4S681.25,607.71,686.48,607.71Z"/><path class="cls-6" d="M706.62,604.21h5.68v.6l-4.89,12.35H704.2Z"/><path class="cls-6" d="M740.58,585a10.52,10.52,0,0,1,7.95,3.7h.15l.93-2.9h3.16v34h-4.49v-11.9h-.1c-1.87,2.5-5,3.65-8.29,3.65-5.78,0-11.65-4.4-11.65-12.7V598C728.24,590.51,732.63,585,740.58,585Zm-7.8,13.3c0,5.15,2.52,9.35,8,9.35,5.28,0,7.7-4.3,7.7-9.35s-2.32-9.45-7.7-9.45S732.78,593,732.78,598.31Z"/><path class="cls-6" d="M764.77,585.81v15.35c0,5,2.91,6.45,5.82,6.45s5.83-1.5,5.83-6.45V585.81h4.44v15.55c0,7.2-5,10.25-10.27,10.25s-10.27-3.05-10.27-10.25V585.81Z"/><path class="cls-6" d="M809.68,603.81c-1.18,5-5.28,7.8-10.71,7.8-6.86,0-11.84-5.15-11.84-13V598c0-7.7,4.78-12.9,11.69-12.9,7.36,0,11.26,5.75,11.26,12.8,0,.7,0,1.1-.05,1.85H791.72c.39,4.6,2.81,8,7.35,8,3.21,0,5.18-1.35,6.17-3.9ZM799,588.91c-4.34,0-6.51,2.85-7.15,7.05h13.67C805.19,592.56,803.37,588.91,799,588.91Z"/><path class="cls-6" d="M830.66,610.81h-4.49v-35h4.49v12.65h.1a8.91,8.91,0,0,1,7-3.4,9,9,0,0,1,7,2.65c1.48,1.55,2.27,3.95,2.27,7v16h-4.44V595.56c0-2.55-.45-4-1.43-5a5.77,5.77,0,0,0-4.2-1.5,6.17,6.17,0,0,0-4.89,2c-.94,1-1.38,2.65-1.38,5.15Z"/><path class="cls-6" d="M862.1,611.61c-4.69,0-8.54-3.1-8.54-7.75v-.35a7.06,7.06,0,0,1,2.08-5.3c1.87-2,5.48-2.9,8.39-2.9a21.16,21.16,0,0,1,5.38.7v-1.85c0-3.35-1.68-5.4-5.38-5.4-2.82,0-4.79,1.25-4.94,4h-4.24v-.4c.54-5.2,4.49-7.35,9.38-7.35,5.62,0,9.67,2.65,9.67,10.05v15.7h-3.36l-.83-2.75h-.1A9.53,9.53,0,0,1,862.1,611.61Zm7.31-9.9v-2a16.06,16.06,0,0,0-5.14-.85c-3,0-6.17,1.3-6.17,4.55,0,2.8,1.93,4.35,4.79,4.35S869.41,605.36,869.41,601.71Z"/><path class="cls-6" d="M886.09,610.81H881.6v-25H885l.88,3h.1a8.9,8.9,0,0,1,7.26-3.7,9,9,0,0,1,7,2.65c1.48,1.55,2.27,3.95,2.27,7v16H898V595.56c0-2.55-.45-4-1.43-5a5.77,5.77,0,0,0-4.2-1.5,6.17,6.17,0,0,0-4.89,2c-.93,1-1.38,2.65-1.38,5.15Z"/><path class="cls-6" d="M923.8,610.81h-4.49v-25h3.36l.89,3h.09a7.83,7.83,0,0,1,6.67-3.7,8.07,8.07,0,0,1,7.55,4.3h.1a8.89,8.89,0,0,1,7.65-4.3c5.33,0,8.54,3.15,8.54,8.7v17h-4.49v-15.7c0-4.05-1.68-6.05-5.18-6.05-3.26,0-5.53,2.4-5.53,6.4v15.35h-4.45v-15.7c0-4.05-1.72-6.05-5.23-6.05-3.35,0-5.43,2.5-5.48,6.45Z"/><path class="cls-6" d="M972.87,585.06c6.76,0,12.29,4.6,12.29,12.85v.85c0,8.2-5.58,12.85-12.29,12.85s-12.29-4.65-12.29-12.85v-.85C960.58,589.66,966.2,585.06,972.87,585.06Zm0,22.65c5.23,0,7.75-4.15,7.75-9.4s-2.52-9.4-7.75-9.4-7.75,4.1-7.75,9.4S967.63,607.71,972.87,607.71Z"/><path class="cls-6" d="M1003.12,585.06a9.3,9.3,0,0,1,7.66,3.35h.09v-12.6h4.5v35H1012l-.94-3h-.1c-1.77,2.55-5.08,3.8-8.44,3.8-5.82,0-11.7-4.4-11.7-12.7v-.75C990.83,590.66,995.33,585.06,1003.12,585.06Zm-7.75,13.3c0,5.15,2.52,9.35,8,9.35,5.28,0,7.7-4.3,7.7-9.35s-2.32-9.45-7.7-9.45C997.79,588.91,995.37,593.06,995.37,598.36Z"/><path class="cls-6" d="M1028.84,578.11a3.22,3.22,0,0,1-6.42,0V578a3.23,3.23,0,0,1,6.42,0Zm-5.48,32.7v-25h4.49v25Z"/><path class="cls-6" d="M1034,587l3.71-1v-2.2c0-5.7,2.61-8.7,7.8-8.7a12.49,12.49,0,0,1,3.94.65v3.75h-.79a7.83,7.83,0,0,0-2.91-.55c-2.56,0-3.55,1.3-3.55,4.25v2.65h7.11v3.7h-7.11v21.3h-4.49v-21.3H1034Zm25.82-8.9a3.22,3.22,0,0,1-6.42,0V578a3.23,3.23,0,0,1,6.42,0Zm-5.48,32.7v-25h4.49v25Z"/><path class="cls-6" d="M1065.56,598c0-7.5,5.24-12.9,12.3-12.9,5.77,0,10.31,3.2,11,9v.4h-4.09c-.55-3.65-3-5.55-6.77-5.55-4.73,0-7.84,4.05-7.84,9.45s3,9.35,7.7,9.35c4,0,6.36-1.8,7-5.55h4.14v.4c-.64,5.5-5.13,9.05-11.1,9.05-7.21,0-12.25-5.4-12.25-13Z"/><path class="cls-6" d="M1102.58,611.61c-4.68,0-8.54-3.1-8.54-7.75v-.35a7.1,7.1,0,0,1,2.08-5.3c1.87-2,5.48-2.9,8.39-2.9a21.16,21.16,0,0,1,5.38.7v-1.85c0-3.35-1.68-5.4-5.38-5.4-2.81,0-4.79,1.25-4.94,4h-4.24v-.4c.54-5.2,4.49-7.35,9.38-7.35,5.62,0,9.67,2.65,9.67,10.05v15.7H1111l-.84-2.75h-.1A9.53,9.53,0,0,1,1102.58,611.61Zm7.31-9.9v-2a16,16,0,0,0-5.13-.85c-3,0-6.17,1.3-6.17,4.55,0,2.8,1.92,4.35,4.78,4.35S1109.89,605.36,1109.89,601.71Z"/><path class="cls-6" d="M1133.09,585.06a9.29,9.29,0,0,1,7.65,3.35h.1v-12.6h4.49v35H1142l-.93-3h-.1c-1.78,2.55-5.09,3.8-8.44,3.8-5.83,0-11.7-4.4-11.7-12.7v-.75C1120.8,590.66,1125.29,585.06,1133.09,585.06Zm-7.75,13.3c0,5.15,2.52,9.35,8,9.35,5.28,0,7.7-4.3,7.7-9.35s-2.32-9.45-7.7-9.45S1125.34,593.06,1125.34,598.36Z"/><path class="cls-6" d="M1164.53,585.06c6.76,0,12.29,4.6,12.29,12.85v.85c0,8.2-5.58,12.85-12.29,12.85s-12.29-4.65-12.29-12.85v-.85C1152.24,589.66,1157.87,585.06,1164.53,585.06Zm0,22.65c5.23,0,7.75-4.15,7.75-9.4s-2.52-9.4-7.75-9.4-7.75,4.1-7.75,9.4S1159.3,607.71,1164.53,607.71Z"/><path class="cls-6" d="M1197.21,603.36c0,3.1,1.68,3.9,4.24,3.45h.74v3.9a17.39,17.39,0,0,1-3,.25c-4.24,0-6.46-2.55-6.46-7V575.81h4.49Z"/><path class="cls-6" d="M1215.42,611.61c-4.69,0-8.54-3.1-8.54-7.75v-.35a7.09,7.09,0,0,1,2.07-5.3c1.88-2,5.48-2.9,8.4-2.9a21.22,21.22,0,0,1,5.38.7v-1.85c0-3.35-1.68-5.4-5.38-5.4-2.82,0-4.79,1.25-4.94,4h-4.24v-.4c.54-5.2,4.49-7.35,9.37-7.35,5.63,0,9.68,2.65,9.68,10.05v15.7h-3.36l-.84-2.75h-.1A9.51,9.51,0,0,1,1215.42,611.61Zm7.31-9.9v-2a16.06,16.06,0,0,0-5.14-.85c-3,0-6.17,1.3-6.17,4.55,0,2.8,1.93,4.35,4.79,4.35S1222.73,605.36,1222.73,601.71Z"/><path class="cls-6" d="M1255.11,585.06a9.29,9.29,0,0,1,7.65,3.35h.1v-12.6h4.49v35H1264l-.94-3h-.1c-1.77,2.55-5.08,3.8-8.44,3.8-5.82,0-11.7-4.4-11.7-12.7v-.75C1242.81,590.66,1247.31,585.06,1255.11,585.06Zm-7.75,13.3c0,5.15,2.51,9.35,7.94,9.35s7.7-4.3,7.7-9.35-2.32-9.45-7.7-9.45S1247.36,593.06,1247.36,598.36Z"/><path class="cls-6" d="M1280.82,578.11a3.22,3.22,0,0,1-6.41,0V578a3.22,3.22,0,0,1,6.41,0Zm-5.48,32.7v-25h4.5v25Z"/><path class="cls-6" d="M1292.32,610.81h-4.49v-25h3.36l.89,3h.1a8.88,8.88,0,0,1,7.25-3.7,9,9,0,0,1,7,2.65c1.48,1.55,2.27,3.95,2.27,7v16h-4.44V595.56c0-2.55-.44-4-1.43-5a5.77,5.77,0,0,0-4.2-1.5,6.14,6.14,0,0,0-4.88,2c-.94,1-1.39,2.65-1.39,5.15Z"/><path class="cls-6" d="M1323.77,611.61c-4.69,0-8.54-3.1-8.54-7.75v-.35a7.09,7.09,0,0,1,2.07-5.3c1.88-2,5.48-2.9,8.39-2.9a21.16,21.16,0,0,1,5.38.7v-1.85c0-3.35-1.68-5.4-5.38-5.4-2.81,0-4.79,1.25-4.94,4h-4.24v-.4c.54-5.2,4.49-7.35,9.38-7.35,5.63,0,9.67,2.65,9.67,10.05v15.7h-3.35l-.84-2.75h-.1A9.52,9.52,0,0,1,1323.77,611.61Zm-4.59-30.55,10.76-7.1,2.27,4-11.6,5.65Zm11.89,20.65v-2a16,16,0,0,0-5.13-.85c-3,0-6.17,1.3-6.17,4.55,0,2.8,1.92,4.35,4.79,4.35S1331.07,605.36,1331.07,601.71Z"/><path class="cls-6" d="M1347.75,610.81h-4.49v-25h3.36l.89,3h.1a7.8,7.8,0,0,1,6.66-3.7,8.07,8.07,0,0,1,7.55,4.3h.1a8.89,8.89,0,0,1,7.65-4.3c5.33,0,8.54,3.15,8.54,8.7v17h-4.49v-15.7c0-4.05-1.68-6.05-5.18-6.05-3.26,0-5.53,2.4-5.53,6.4v15.35h-4.44v-15.7c0-4.05-1.73-6.05-5.24-6.05-3.35,0-5.43,2.5-5.48,6.45Z"/><path class="cls-6" d="M1391.09,578.11a3.22,3.22,0,0,1-6.41,0V578a3.22,3.22,0,0,1,6.41,0Zm-5.48,32.7v-25h4.49v25Z"/><path class="cls-6" d="M1396.82,598c0-7.5,5.23-12.9,12.29-12.9,5.77,0,10.32,3.2,11,9v.4H1416c-.54-3.65-3-5.55-6.76-5.55-4.74,0-7.85,4.05-7.85,9.45s3,9.35,7.7,9.35c4,0,6.37-1.8,7-5.55h4.15v.4c-.65,5.5-5.14,9.05-11.11,9.05-7.21,0-12.24-5.4-12.24-13Z"/><path class="cls-6" d="M1433.84,611.61c-4.69,0-8.54-3.1-8.54-7.75v-.35a7.09,7.09,0,0,1,2.07-5.3c1.88-2,5.48-2.9,8.39-2.9a21.16,21.16,0,0,1,5.38.7v-1.85c0-3.35-1.67-5.4-5.38-5.4-2.81,0-4.78,1.25-4.93,4h-4.25v-.4c.54-5.2,4.49-7.35,9.38-7.35,5.63,0,9.68,2.65,9.68,10.05v15.7h-3.36l-.84-2.75h-.1A9.52,9.52,0,0,1,1433.84,611.61Zm7.3-9.9v-2a16,16,0,0,0-5.13-.85c-3,0-6.17,1.3-6.17,4.55,0,2.8,1.92,4.35,4.79,4.35S1441.14,605.36,1441.14,601.71Z"/><path class="cls-6" d="M1473.52,585.06a9.28,9.28,0,0,1,7.65,3.35h.1v-12.6h4.49v35h-3.35l-.94-3h-.1c-1.78,2.55-5.08,3.8-8.44,3.8-5.82,0-11.7-4.4-11.7-12.7v-.75C1461.23,590.66,1465.72,585.06,1473.52,585.06Zm-7.75,13.3c0,5.15,2.52,9.35,8,9.35,5.28,0,7.7-4.3,7.7-9.35s-2.32-9.45-7.7-9.45C1468.19,588.91,1465.77,593.06,1465.77,598.36Z"/><path class="cls-6" d="M1515.23,603.81c-1.18,5-5.28,7.8-10.71,7.8-6.86,0-11.85-5.15-11.85-13V598c0-7.7,4.79-12.9,11.7-12.9,7.36,0,11.26,5.75,11.26,12.8,0,.7,0,1.1-.05,1.85h-18.31c.39,4.6,2.81,8,7.35,8,3.21,0,5.18-1.35,6.17-3.9Zm-10.71-14.9c-4.34,0-6.51,2.85-7.16,7.05H1511C1510.74,592.56,1508.92,588.91,1504.52,588.91Z"/><path class="cls-6" d="M1536,603.36c0,3.1,1.68,3.9,4.25,3.45h.74v3.9a17.39,17.39,0,0,1-3,.25c-4.25,0-6.47-2.55-6.47-7V575.81H1536Z"/><path class="cls-6" d="M1554.18,611.61c-4.69,0-8.54-3.1-8.54-7.75v-.35a7.09,7.09,0,0,1,2.07-5.3c1.88-2,5.48-2.9,8.39-2.9a21.16,21.16,0,0,1,5.38.7v-1.85c0-3.35-1.68-5.4-5.38-5.4-2.81,0-4.79,1.25-4.93,4h-4.25v-.4c.54-5.2,4.49-7.35,9.38-7.35,5.63,0,9.67,2.65,9.67,10.05v15.7h-3.35l-.84-2.75h-.1A9.52,9.52,0,0,1,1554.18,611.61Zm7.3-9.9v-2a16,16,0,0,0-5.13-.85c-3,0-6.17,1.3-6.17,4.55,0,2.8,1.92,4.35,4.79,4.35S1561.48,605.36,1561.48,601.71Z"/><text class="cls-7" transform="translate(942.32 1234.15)">De <tspan class="cls-8" x="61.72" y="0">l</tspan><tspan x="73.81" y="0">os ú</tspan><tspan class="cls-9" x="152.28" y="0">l</tspan><tspan x="164.15" y="0">timos 15 años t</tspan><tspan class="cls-8" x="446.35" y="0">r</tspan><tspan x="461.59" y="0">anscurrido</tspan><tspan class="cls-9" x="673.56" y="0">s</tspan><tspan x="693.98" y="0">, 13 han p</tspan><tspan class="cls-10" x="865.76" y="0">r</tspan><tspan x="881.22" y="0">ese</tspan><tspan class="cls-11" x="951.62" y="0">n</tspan><tspan x="975.4" y="0">tado un d</tspan><tspan class="cls-9" x="1158.8" y="0">é</tspan><tspan x="1182.5" y="0">ficit en </tspan><tspan x="20.35" y="64.75">la ca</tspan><tspan class="cls-11" x="111.21" y="64.75">n</tspan><tspan x="134.99" y="64.75">tidad de </tspan><tspan class="cls-10" x="306.22" y="64.75">l</tspan><tspan x="318.52" y="64.75">luvia caída con </tspan><tspan class="cls-12" x="615.92" y="64.75">r</tspan><tspan x="631.37" y="64.75">espec</tspan><tspan class="cls-10" x="753.17" y="64.75">t</tspan><tspan x="769.62" y="64.75">o a un año normal (se usa el </tspan><tspan x="166.54" y="129.49">p</tspan><tspan class="cls-12" x="193.61" y="129.49">r</tspan><tspan x="209.06" y="129.49">omedio del periodo 19</tspan><tspan class="cls-13" x="641.38" y="129.49">9</tspan><tspan class="cls-14" x="666.16" y="129.49">1</tspan><tspan class="cls-15" x="679.71" y="129.49">-</tspan><tspan class="cls-8" x="697.06" y="129.49">2</tspan><tspan class="cls-12" x="720.28" y="129.49">0</tspan><tspan class="cls-8" x="745.4" y="129.49">2</tspan><tspan x="768.63" y="129.49">0 como </tspan><tspan class="cls-10" x="922.55" y="129.49">r</tspan><tspan class="cls-9" x="938" y="129.49">e</tspan><tspan class="cls-16" x="961.7" y="129.49">f</tspan><tspan x="977.49" y="129.49">e</tspan><tspan class="cls-12" x="1002.05" y="129.49">r</tspan><tspan x="1017.51" y="129.49">encia). </tspan></text><path class="cls-6" d="M1661.92,472.21c-4.69,0-8.54-3.09-8.54-7.75v-.35a7.06,7.06,0,0,1,2.08-5.3c1.87-2,5.47-2.9,8.39-2.9a21.22,21.22,0,0,1,5.38.7v-1.85c0-3.35-1.68-5.4-5.38-5.4-2.82,0-4.79,1.25-4.94,4.05h-4.24V453c.54-5.2,4.49-7.35,9.37-7.35,5.63,0,9.68,2.65,9.68,10v15.71h-3.36l-.84-2.75h-.1A9.5,9.5,0,0,1,1661.92,472.21Zm7.31-9.9v-2a16.06,16.06,0,0,0-5.14-.85c-3,0-6.17,1.3-6.17,4.55,0,2.8,1.93,4.36,4.79,4.36S1669.23,466,1669.23,462.31Z"/><path class="cls-6" d="M1693.41,446.41v3.7h-6.86v14.06c0,2.95,1.63,3.79,3.46,3.79a5.93,5.93,0,0,0,3.55-1.15h.79v3.86a11.45,11.45,0,0,1-4.74,1.2c-5.33,0-7.6-2.95-7.6-7.56v-14.2h-3.55v-2.2c3.75-1.3,5.18-4.45,5.82-7.15h2.27v5.65Z"/><path class="cls-6" d="M1704.86,471.42h-4.49v-25h3.36l.89,2.95h.1a7.8,7.8,0,0,1,6.66-3.7,8.07,8.07,0,0,1,7.55,4.3h.1a8.89,8.89,0,0,1,7.65-4.3c5.33,0,8.54,3.15,8.54,8.7v17.06h-4.49V455.71c0-4-1.68-6-5.18-6-3.26,0-5.53,2.4-5.53,6.4v15.36h-4.44V455.71c0-4-1.73-6-5.24-6-3.35,0-5.43,2.5-5.48,6.45Z"/><path class="cls-6" d="M1753.93,445.66c6.76,0,12.29,4.6,12.29,12.85v.85c0,8.2-5.58,12.85-12.29,12.85s-12.29-4.65-12.29-12.85v-.85C1741.64,450.26,1747.26,445.66,1753.93,445.66Zm0,22.65c5.23,0,7.75-4.14,7.75-9.4s-2.52-9.4-7.75-9.4-7.75,4.1-7.75,9.4S1748.7,468.31,1753.93,468.31Zm-6.52-26.65,10.76-7.1,2.27,4.05-11.6,5.65Z"/><path class="cls-6" d="M1771.85,463.92v-.41h4.29c0,3.3,1.88,5,5.68,5,3.3,0,5-1.39,5-3.7a3.16,3.16,0,0,0-.94-2.4c-2.36-2.4-8.63-1.65-11.84-4.9a6.48,6.48,0,0,1-1.78-4.35v-.35c0-5.05,4.44-7.15,9-7.15,4.84,0,9,2.25,9,7v.4H1786c-.15-2.9-2-3.85-4.88-3.85s-4.4,1.3-4.4,3.15a3.05,3.05,0,0,0,.89,2.2c2.27,2.3,8.54,1.5,11.85,4.85a6.56,6.56,0,0,1,1.78,4.95c0,5.71-4.79,7.81-9.33,7.81C1775.89,472.17,1772,469.42,1771.85,463.92Z"/><path class="cls-6" d="M1795.44,447.61l3.7-1.05v-2.2c0-5.7,2.62-8.7,7.8-8.7a15.65,15.65,0,0,1,4.44.65v3.75h-.79a10.45,10.45,0,0,0-3.4-.55c-2.57,0-3.56,1.3-3.56,4.25v2.65h7.61v3.7h-7.61v21.31h-4.49V450.11h-3.7Z"/><path class="cls-6" d="M1837.1,464.42c-1.18,5-5.28,7.79-10.71,7.79-6.86,0-11.85-5.15-11.85-12.95v-.7c0-7.7,4.79-12.9,11.7-12.9,7.36,0,11.25,5.75,11.25,12.8,0,.7,0,1.1,0,1.85h-18.32c.4,4.61,2.82,8,7.36,8,3.21,0,5.18-1.35,6.17-3.89Zm-10.71-14.91c-4.35,0-6.52,2.85-7.16,7.05h13.67C1832.61,453.16,1830.78,449.51,1826.39,449.51Z"/><path class="cls-6" d="M1848.9,471.42h-4.5v-25h3l1.13,4.4h.1c1-3,4.1-4.6,7.26-4.6.29,0,1.18.05,1.53.1v4.5h-1.39c-6.61,0-7.15,4.2-7.15,8.7Z"/><path class="cls-6" d="M1869.73,472.21c-4.69,0-8.54-3.09-8.54-7.75v-.35a7.09,7.09,0,0,1,2.07-5.3c1.88-2,5.48-2.9,8.39-2.9a21.16,21.16,0,0,1,5.38.7v-1.85c0-3.35-1.68-5.4-5.38-5.4-2.81,0-4.79,1.25-4.93,4.05h-4.25V453c.54-5.2,4.49-7.35,9.38-7.35,5.63,0,9.67,2.65,9.67,10v15.71h-3.35l-.84-2.75h-.1A9.51,9.51,0,0,1,1869.73,472.21Zm7.3-9.9v-2a16,16,0,0,0-5.13-.85c-3,0-6.17,1.3-6.17,4.55,0,2.8,1.92,4.36,4.79,4.36S1877,466,1877,462.31Z"/><path class="cls-6" d="M1904.57,470.26l-9.52-23.2v-.65h4.69l6,15.85c.29.7,1.08,2.95,1.33,3.8h.1c.25-.85.94-3,1.23-3.75l6-15.9h4.49v.65l-13.63,33.36h-4.69v-.65Z"/><path class="cls-6" d="M1954.23,464.42c-1.18,5-5.28,7.79-10.71,7.79-6.86,0-11.85-5.15-11.85-12.95v-.7c0-7.7,4.79-12.9,11.7-12.9,7.36,0,11.25,5.75,11.25,12.8,0,.7,0,1.1,0,1.85h-18.32c.4,4.61,2.82,8,7.36,8,3.21,0,5.18-1.35,6.17-3.89Zm-10.71-14.91c-4.35,0-6.52,2.85-7.16,7.05H1950C1949.74,453.16,1947.91,449.51,1943.52,449.51Z"/><path class="cls-6" d="M1965.78,464c0,3.1,1.68,3.91,4.24,3.46h.75v3.9a18.67,18.67,0,0,1-3,.25c-4.24,0-6.46-2.56-6.46-7V436.41h4.49Z"/><path class="cls-6" d="M1996.78,445.66c6.76,0,12.29,4.6,12.29,12.85v.85c0,8.2-5.58,12.85-12.29,12.85s-12.29-4.65-12.29-12.85v-.85C1984.49,450.26,1990.11,445.66,1996.78,445.66Zm0,22.65c5.23,0,7.75-4.14,7.75-9.4s-2.52-9.4-7.75-9.4-7.75,4.1-7.75,9.4S1991.54,468.31,1996.78,468.31Z"/><path class="cls-6" d="M2014.74,458.56c0-7.5,5.24-12.9,12.29-12.9,5.78,0,10.32,3.2,11,9v.4h-4.09c-.55-3.65-3-5.55-6.77-5.55-4.74,0-7.84,4.05-7.84,9.45s3,9.35,7.7,9.35c3.94,0,6.36-1.8,7-5.55h4.14v.4c-.64,5.51-5.13,9-11.1,9-7.21,0-12.25-5.4-12.25-12.95Z"/><path class="cls-6" d="M2065.63,464.42c-1.18,5-5.28,7.79-10.71,7.79-6.86,0-11.84-5.15-11.84-12.95v-.7c0-7.7,4.78-12.9,11.69-12.9,7.36,0,11.26,5.75,11.26,12.8,0,.7,0,1.1-.05,1.85h-18.31c.39,4.61,2.81,8,7.35,8,3.21,0,5.18-1.35,6.17-3.89Zm-10.71-14.91c-4.34,0-6.51,2.85-7.15,7.05h13.67C2061.14,453.16,2059.32,449.51,2054.92,449.51Zm-6.81-7.85,10.76-7.1,2.27,4.05-11.6,5.65Z"/><path class="cls-6" d="M2080.34,472.21c-4.69,0-8.54-3.09-8.54-7.75v-.35a7.06,7.06,0,0,1,2.08-5.3c1.87-2,5.48-2.9,8.39-2.9a21.22,21.22,0,0,1,5.38.7v-1.85c0-3.35-1.68-5.4-5.38-5.4-2.82,0-4.79,1.25-4.94,4.05h-4.24V453c.54-5.2,4.49-7.35,9.38-7.35,5.62,0,9.67,2.65,9.67,10v15.71h-3.36l-.84-2.75h-.09A9.52,9.52,0,0,1,2080.34,472.21Zm7.31-9.9v-2a16.06,16.06,0,0,0-5.14-.85c-3,0-6.17,1.3-6.17,4.55,0,2.8,1.93,4.36,4.79,4.36S2087.65,466,2087.65,462.31Z"/><path class="cls-6" d="M2104.33,471.42h-4.49v-25h3.36l.88,2.95h.1a8.9,8.9,0,0,1,7.26-3.7,9,9,0,0,1,7,2.65c1.48,1.55,2.27,3.95,2.27,7.05v16.06h-4.44V456.16c0-2.55-.45-4-1.43-5a5.77,5.77,0,0,0-4.2-1.5,6.17,6.17,0,0,0-4.89,1.95c-.93,1-1.38,2.65-1.38,5.15Z"/><path class="cls-6" d="M2139.38,445.66c6.76,0,12.29,4.6,12.29,12.85v.85c0,8.2-5.58,12.85-12.29,12.85s-12.29-4.65-12.29-12.85v-.85C2127.09,450.26,2132.71,445.66,2139.38,445.66Zm0,22.65c5.23,0,7.75-4.14,7.75-9.4s-2.52-9.4-7.75-9.4-7.75,4.1-7.75,9.4S2134.15,468.31,2139.38,468.31Z"/><path class="cls-6" d="M2164.55,468.76a3.22,3.22,0,0,1-6.42,0v-.14a3.22,3.22,0,0,1,6.42,0Z"/><path class="cls-6" d="M2207.59,438.91v21.15c0,8.31-4.49,12.11-12.43,12.11s-12.49-3.86-12.49-12.11V438.91h4.64v21.75c0,5.26,3.06,7.35,7.94,7.35,4.5,0,7.75-2.15,7.75-7.35V438.91Z"/><path class="cls-6" d="M2220.53,471.42H2216v-25h3.36l.89,2.95h.1a8.88,8.88,0,0,1,7.25-3.7,9,9,0,0,1,7,2.65c1.48,1.55,2.27,3.95,2.27,7.05v16.06h-4.44V456.16c0-2.55-.44-4-1.43-5a5.77,5.77,0,0,0-4.2-1.5,6.14,6.14,0,0,0-4.88,1.95c-.94,1-1.38,2.65-1.38,5.15Z"/><path class="cls-6" d="M2252,472.21c-4.69,0-8.54-3.09-8.54-7.75v-.35a7.09,7.09,0,0,1,2.07-5.3c1.88-2,5.48-2.9,8.39-2.9a21.1,21.1,0,0,1,5.38.7v-1.85c0-3.35-1.67-5.4-5.38-5.4-2.81,0-4.78,1.25-4.93,4.05h-4.25V453c.55-5.2,4.49-7.35,9.38-7.35,5.63,0,9.68,2.65,9.68,10v15.71h-3.36l-.84-2.75h-.1A9.51,9.51,0,0,1,2252,472.21Zm7.3-9.9v-2a16,16,0,0,0-5.13-.85c-3,0-6.17,1.3-6.17,4.55,0,2.8,1.93,4.36,4.79,4.36S2259.27,466,2259.27,462.31Z"/><path class="cls-6" d="M2291.65,445.66a9.28,9.28,0,0,1,7.65,3.35h.1v-12.6h4.49v35h-3.35l-.94-3h-.1c-1.78,2.54-5.08,3.79-8.44,3.79-5.82,0-11.7-4.4-11.7-12.7v-.75C2279.36,451.26,2283.85,445.66,2291.65,445.66ZM2283.9,459c0,5.15,2.52,9.35,7.95,9.35s7.7-4.3,7.7-9.35-2.32-9.45-7.7-9.45S2283.9,453.66,2283.9,459Z"/><path class="cls-6" d="M2333.36,464.42c-1.18,5-5.28,7.79-10.71,7.79-6.86,0-11.85-5.15-11.85-12.95v-.7c0-7.7,4.79-12.9,11.7-12.9,7.36,0,11.26,5.75,11.26,12.8,0,.7,0,1.1-.05,1.85H2315.4c.39,4.61,2.81,8,7.35,8,3.21,0,5.18-1.35,6.17-3.89Zm-10.71-14.91c-4.34,0-6.51,2.85-7.16,7.05h13.68C2328.87,453.16,2327,449.51,2322.65,449.51Z"/><path class="cls-6" d="M2354.09,464c0,3.1,1.68,3.91,4.25,3.46h.74v3.9a18.44,18.44,0,0,1-3,.25c-4.25,0-6.47-2.56-6.47-7V436.41h4.49Z"/><path class="cls-6" d="M2375.17,445.66c6.76,0,12.29,4.6,12.29,12.85v.85c0,8.2-5.58,12.85-12.29,12.85s-12.29-4.65-12.29-12.85v-.85C2362.88,450.26,2368.51,445.66,2375.17,445.66Zm0,22.65c5.23,0,7.75-4.14,7.75-9.4s-2.52-9.4-7.75-9.4-7.75,4.1-7.75,9.4S2369.94,468.31,2375.17,468.31Z"/><path class="cls-6" d="M2393.09,463.92v-.41h4.29c0,3.3,1.88,5,5.68,5,3.31,0,5-1.39,5-3.7a3.19,3.19,0,0,0-.93-2.4c-2.37-2.4-8.64-1.65-11.85-4.9a6.48,6.48,0,0,1-1.78-4.35v-.35c0-5.05,4.44-7.15,9-7.15,4.83,0,9,2.25,9,7v.4h-4.29c-.15-2.9-2-3.85-4.89-3.85s-4.4,1.3-4.4,3.15a3.05,3.05,0,0,0,.89,2.2c2.27,2.3,8.54,1.5,11.85,4.85a6.53,6.53,0,0,1,1.78,4.95c0,5.71-4.79,7.81-9.33,7.81C2397.13,472.17,2393.28,469.42,2393.09,463.92Z"/><path class="cls-6" d="M2426.6,447.61l3.7-1.05v-2.2c0-5.7,2.62-8.7,7.8-8.7a15.67,15.67,0,0,1,4.45.65v3.75h-.79a10.55,10.55,0,0,0-3.41-.55c-2.57,0-3.55,1.3-3.55,4.25v2.65h7.6v3.7h-7.6v21.31h-4.5V450.11h-3.7Z"/><path class="cls-6" d="M2468.26,464.42c-1.18,5-5.28,7.79-10.71,7.79-6.86,0-11.85-5.15-11.85-12.95v-.7c0-7.7,4.79-12.9,11.7-12.9,7.36,0,11.26,5.75,11.26,12.8,0,.7,0,1.1,0,1.85H2450.3c.39,4.61,2.81,8,7.35,8,3.21,0,5.18-1.35,6.17-3.89Zm-10.71-14.91c-4.34,0-6.51,2.85-7.16,7.05h13.68C2463.77,453.16,2461.94,449.51,2457.55,449.51Z"/><path class="cls-6" d="M2480.06,471.42h-4.49v-25h3.35l.89,2.95h.1a8.9,8.9,0,0,1,7.26-3.7,9,9,0,0,1,7,2.65c1.48,1.55,2.27,3.95,2.27,7.05v16.06H2492V456.16c0-2.55-.44-4-1.43-5a5.73,5.73,0,0,0-4.19-1.5,6.15,6.15,0,0,0-4.89,1.95c-.94,1-1.38,2.65-1.38,5.15Z"/><path class="cls-6" d="M2515.1,445.66c6.77,0,12.3,4.6,12.3,12.85v.85c0,8.2-5.58,12.85-12.3,12.85s-12.29-4.65-12.29-12.85v-.85C2502.81,450.26,2508.44,445.66,2515.1,445.66Zm0,22.65c5.24,0,7.75-4.14,7.75-9.4s-2.51-9.4-7.75-9.4-7.75,4.1-7.75,9.4S2509.87,468.31,2515.1,468.31Zm-6.51-26.65,10.76-7.1,2.27,4.05-11.6,5.65Z"/><path class="cls-6" d="M2538.85,471.42h-4.5v-25h3.36l.89,2.95h.1a7.82,7.82,0,0,1,6.66-3.7,8.09,8.09,0,0,1,7.56,4.3h.09a8.89,8.89,0,0,1,7.65-4.3c5.34,0,8.54,3.15,8.54,8.7v17.06h-4.49V455.71c0-4-1.68-6-5.18-6-3.26,0-5.53,2.4-5.53,6.4v15.36h-4.44V455.71c0-4-1.73-6-5.23-6s-5.43,2.5-5.48,6.45Z"/><path class="cls-6" d="M2598.18,464.42c-1.19,5-5.28,7.79-10.71,7.79-6.87,0-11.85-5.15-11.85-12.95v-.7c0-7.7,4.79-12.9,11.7-12.9,7.35,0,11.25,5.75,11.25,12.8,0,.7,0,1.1-.05,1.85h-18.31c.39,4.61,2.81,8,7.36,8,3.2,0,5.18-1.35,6.17-3.89Zm-10.71-14.91c-4.35,0-6.52,2.85-7.16,7.05H2594C2593.69,453.16,2591.86,449.51,2587.47,449.51Z"/><path class="cls-6" d="M2610,471.42h-4.49v-25h3.36l.89,2.95h.1a8.88,8.88,0,0,1,7.25-3.7,9,9,0,0,1,7,2.65c1.48,1.55,2.27,3.95,2.27,7.05v16.06h-4.44V456.16c0-2.55-.44-4-1.43-5a5.77,5.77,0,0,0-4.2-1.5,6.14,6.14,0,0,0-4.88,1.95c-.94,1-1.39,2.65-1.39,5.15Z"/><path class="cls-6" d="M2645,445.66c6.76,0,12.29,4.6,12.29,12.85v.85c0,8.2-5.58,12.85-12.29,12.85s-12.29-4.65-12.29-12.85v-.85C2632.73,450.26,2638.36,445.66,2645,445.66Zm0,22.65c5.23,0,7.75-4.14,7.75-9.4s-2.52-9.4-7.75-9.4-7.75,4.1-7.75,9.4S2639.79,468.31,2645,468.31Z"/><path class="cls-6" d="M2662.94,463.92v-.41h4.29c0,3.3,1.88,5,5.68,5,3.31,0,5-1.39,5-3.7a3.19,3.19,0,0,0-.93-2.4c-2.37-2.4-8.64-1.65-11.85-4.9a6.48,6.48,0,0,1-1.78-4.35v-.35c0-5.05,4.44-7.15,9-7.15,4.83,0,9,2.25,9,7v.4h-4.29c-.15-2.9-2-3.85-4.89-3.85s-4.4,1.3-4.4,3.15a3.05,3.05,0,0,0,.89,2.2c2.27,2.3,8.54,1.5,11.85,4.85a6.53,6.53,0,0,1,1.78,4.95c0,5.71-4.79,7.81-9.33,7.81C2667,472.17,2663.13,469.42,2662.94,463.92Z"/><path class="cls-6" d="M2709.29,445.66c6.76,0,12.29,4.6,12.29,12.85v.85c0,8.2-5.58,12.85-12.29,12.85S2697,467.56,2697,459.36v-.85C2697,450.26,2702.62,445.66,2709.29,445.66Zm0,22.65c5.23,0,7.75-4.14,7.75-9.4s-2.52-9.4-7.75-9.4-7.75,4.1-7.75,9.4S2704.05,468.31,2709.29,468.31Z"/><path class="cls-6" d="M2740.73,472.21a10.52,10.52,0,0,1-7.95-3.7h-.15l-.93,2.91h-3.16v-35H2733v12.9h.1c1.87-2.5,5-3.65,8.29-3.65,5.78,0,11.65,4.4,11.65,12.7v.85C2753.07,466.71,2748.68,472.21,2740.73,472.21Zm7.8-13.3c0-5.15-2.52-9.35-8-9.35-5.28,0-7.7,4.3-7.7,9.35s2.32,9.46,7.7,9.46C2746.11,468.37,2748.53,464.21,2748.53,458.91Z"/><path class="cls-6" d="M2758.65,463.92v-.41h4.29c0,3.3,1.88,5,5.68,5,3.31,0,5-1.39,5-3.7a3.19,3.19,0,0,0-.93-2.4c-2.37-2.4-8.64-1.65-11.85-4.9a6.48,6.48,0,0,1-1.78-4.35v-.35c0-5.05,4.44-7.15,9-7.15,4.83,0,9,2.25,9,7v.4h-4.3c-.14-2.9-2-3.85-4.88-3.85s-4.4,1.3-4.4,3.15a3.05,3.05,0,0,0,.89,2.2c2.27,2.3,8.54,1.5,11.85,4.85a6.56,6.56,0,0,1,1.78,4.95c0,5.71-4.79,7.81-9.33,7.81C2762.69,472.17,2758.84,469.42,2758.65,463.92Z"/><path class="cls-6" d="M2806.08,464.42c-1.18,5-5.28,7.79-10.71,7.79-6.86,0-11.85-5.15-11.85-12.95v-.7c0-7.7,4.79-12.9,11.7-12.9,7.36,0,11.26,5.75,11.26,12.8,0,.7,0,1.1-.05,1.85h-18.32c.4,4.61,2.82,8,7.36,8,3.21,0,5.18-1.35,6.17-3.89Zm-10.71-14.91c-4.34,0-6.52,2.85-7.16,7.05h13.68C2801.59,453.16,2799.76,449.51,2795.37,449.51Z"/><path class="cls-6" d="M2817.88,471.42h-4.49v-25h3l1.13,4.4h.1c1-3,4.1-4.6,7.26-4.6.29,0,1.18.05,1.53.1v4.5H2825c-6.62,0-7.16,4.2-7.16,8.7Z"/><path class="cls-6" d="M2849.47,446.41H2854v.65l-10,24.36h-4.34l-10-24.36v-.65h4.69l6.27,16.55c.3.71,1.09,3,1.34,3.75h.09c.25-.79.94-3,1.24-3.75Z"/><path class="cls-6" d="M2865.46,472.21c-4.69,0-8.54-3.09-8.54-7.75v-.35a7.09,7.09,0,0,1,2.07-5.3c1.88-2,5.48-2.9,8.4-2.9a21.22,21.22,0,0,1,5.38.7v-1.85c0-3.35-1.68-5.4-5.38-5.4-2.82,0-4.79,1.25-4.94,4.05h-4.25V453c.55-5.2,4.5-7.35,9.38-7.35,5.63,0,9.68,2.65,9.68,10v15.71h-3.36l-.84-2.75h-.1A9.5,9.5,0,0,1,2865.46,472.21Zm7.31-9.9v-2a16.06,16.06,0,0,0-5.14-.85c-3,0-6.17,1.3-6.17,4.55,0,2.8,1.93,4.36,4.79,4.36S2872.77,466,2872.77,462.31Z"/><path class="cls-6" d="M2896,445.66a9.29,9.29,0,0,1,7.65,3.35h.1v-12.6h4.49v35h-3.36l-.94-3h-.1c-1.77,2.54-5.08,3.79-8.44,3.79-5.82,0-11.7-4.4-11.7-12.7v-.75C2883.67,451.26,2888.17,445.66,2896,445.66Zm-7.75,13.3c0,5.15,2.51,9.35,7.94,9.35s7.7-4.3,7.7-9.35-2.32-9.45-7.7-9.45S2888.22,453.66,2888.22,459Z"/><path class="cls-6" d="M2927.41,445.66c6.76,0,12.29,4.6,12.29,12.85v.85c0,8.2-5.58,12.85-12.29,12.85s-12.29-4.65-12.29-12.85v-.85C2915.12,450.26,2920.74,445.66,2927.41,445.66Zm0,22.65c5.23,0,7.75-4.14,7.75-9.4s-2.52-9.4-7.75-9.4-7.75,4.1-7.75,9.4S2922.18,468.31,2927.41,468.31Z"/><path class="cls-6" d="M2945.32,463.92v-.41h4.3c0,3.3,1.87,5,5.68,5,3.3,0,5-1.39,5-3.7a3.16,3.16,0,0,0-.94-2.4c-2.37-2.4-8.63-1.65-11.84-4.9a6.48,6.48,0,0,1-1.78-4.35v-.35c0-5.05,4.44-7.15,9-7.15,4.84,0,9,2.25,9,7v.4h-4.3c-.15-2.9-2-3.85-4.88-3.85s-4.4,1.3-4.4,3.15a3.05,3.05,0,0,0,.89,2.2c2.27,2.3,8.54,1.5,11.85,4.85a6.56,6.56,0,0,1,1.78,4.95c0,5.71-4.79,7.81-9.33,7.81C2949.37,472.17,2945.52,469.42,2945.32,463.92Z"/><path class="cls-6" d="M2972.38,464.81h5.67v.61l-4.89,12.35H2970Z"/><path class="cls-6" d="M1666.76,542.17a9.25,9.25,0,0,1-7.65-3.36h-.1v11.61h-4.49v-34h3.35l.94,3h.1c1.78-2.55,5.08-3.8,8.44-3.8,5.83,0,11.7,4.4,11.7,12.7v.75C1679.05,536.56,1674.56,542.17,1666.76,542.17Zm7.75-13.31c0-5.15-2.52-9.35-8-9.35-5.28,0-7.7,4.3-7.7,9.35s2.32,9.45,7.7,9.45C1672.09,538.31,1674.51,534.17,1674.51,528.86Z"/><path class="cls-6" d="M1690.45,541.42H1686v-25h3l1.14,4.4h.1c1-3,4.09-4.6,7.25-4.6.3,0,1.19,0,1.53.1v4.5h-1.38c-6.61,0-7.16,4.2-7.16,8.7Z"/><path class="cls-6" d="M1715.13,515.66c6.77,0,12.29,4.6,12.29,12.85v.85c0,8.2-5.57,12.85-12.29,12.85s-12.29-4.65-12.29-12.85v-.85C1702.84,520.26,1708.47,515.66,1715.13,515.66Zm0,22.65c5.24,0,7.75-4.14,7.75-9.4s-2.51-9.4-7.75-9.4-7.75,4.1-7.75,9.4S1709.9,538.31,1715.13,538.31Z"/><path class="cls-6" d="M1745.39,515.66A9.28,9.28,0,0,1,1753,519h.1v-12.6h4.49v35h-3.35l-.94-3h-.1c-1.78,2.54-5.09,3.79-8.44,3.79-5.83,0-11.7-4.4-11.7-12.7v-.75C1733.1,521.26,1737.59,515.66,1745.39,515.66Zm-7.75,13.3c0,5.15,2.52,9.35,7.95,9.35s7.7-4.3,7.7-9.35-2.32-9.45-7.7-9.45S1737.64,523.66,1737.64,529Z"/><path class="cls-6" d="M1769.63,516.41v15.35c0,5,2.91,6.45,5.82,6.45s5.83-1.5,5.83-6.45V516.41h4.44V532c0,7.21-5,10.25-10.27,10.25s-10.27-3-10.27-10.25V516.41Z"/><path class="cls-6" d="M1792,528.56c0-7.5,5.23-12.9,12.29-12.9,5.77,0,10.31,3.2,11,9v.4h-4.1c-.54-3.65-3-5.55-6.76-5.55-4.74,0-7.85,4-7.85,9.45s3,9.35,7.7,9.35c4,0,6.37-1.8,7-5.55h4.14v.4c-.64,5.51-5.13,9.05-11.1,9.05-7.21,0-12.24-5.4-12.24-13Z"/><path class="cls-6" d="M1834.44,516.41v3.7h-6.87v14.06c0,3,1.63,3.79,3.46,3.79a5.91,5.91,0,0,0,3.55-1.15h.79v3.86a11.41,11.41,0,0,1-4.74,1.2c-5.33,0-7.6-3-7.6-7.56v-14.2h-3.55v-2.2c3.75-1.3,5.18-4.45,5.82-7.15h2.27v5.65Z"/><path class="cls-6" d="M1851.91,515.66c6.76,0,12.29,4.6,12.29,12.85v.85c0,8.2-5.58,12.85-12.29,12.85s-12.29-4.65-12.29-12.85v-.85C1839.62,520.26,1845.25,515.66,1851.91,515.66Zm0,22.65c5.23,0,7.75-4.14,7.75-9.4s-2.52-9.4-7.75-9.4-7.75,4.1-7.75,9.4S1846.68,538.31,1851.91,538.31Z"/><path class="cls-6" d="M1891.35,515.66A9.29,9.29,0,0,1,1899,519h.1v-12.6h4.49v35h-3.36l-.94-3h-.09c-1.78,2.54-5.09,3.79-8.45,3.79-5.82,0-11.69-4.4-11.69-12.7v-.75C1879.06,521.26,1883.55,515.66,1891.35,515.66ZM1883.6,529c0,5.15,2.51,9.35,7.94,9.35s7.71-4.3,7.71-9.35-2.32-9.45-7.71-9.45S1883.6,523.66,1883.6,529Z"/><path class="cls-6" d="M1933.06,534.42c-1.19,5-5.28,7.79-10.71,7.79-6.87,0-11.85-5.15-11.85-13v-.7c0-7.7,4.79-12.9,11.7-12.9,7.35,0,11.25,5.75,11.25,12.8,0,.7,0,1.1,0,1.85h-18.31c.39,4.61,2.81,8,7.35,8,3.21,0,5.19-1.35,6.17-3.89Zm-10.71-14.91c-4.35,0-6.52,2.85-7.16,7h13.67C1928.56,523.16,1926.74,519.51,1922.35,519.51Z"/><path class="cls-6" d="M1970.82,534.42c-1.19,5-5.28,7.79-10.72,7.79-6.86,0-11.84-5.15-11.84-13v-.7c0-7.7,4.79-12.9,11.7-12.9,7.35,0,11.25,5.75,11.25,12.8,0,.7,0,1.1,0,1.85h-18.31c.39,4.61,2.81,8,7.35,8,3.21,0,5.19-1.35,6.17-3.89Zm-10.72-14.91c-4.34,0-6.51,2.85-7.15,7h13.67C1966.32,523.16,1964.5,519.51,1960.1,519.51Z"/><path class="cls-6" d="M1976.79,533.92v-.41h4.29c0,3.3,1.88,5,5.68,5,3.31,0,5-1.39,5-3.7a3.19,3.19,0,0,0-.93-2.4c-2.37-2.4-8.64-1.65-11.85-4.9a6.48,6.48,0,0,1-1.78-4.35v-.35c0-5,4.45-7.15,9-7.15,4.83,0,9,2.25,9,7v.4h-4.29c-.15-2.9-2-3.85-4.89-3.85s-4.39,1.3-4.39,3.15a3,3,0,0,0,.88,2.2c2.27,2.3,8.54,1.5,11.85,4.85a6.53,6.53,0,0,1,1.78,5c0,5.71-4.79,7.81-9.33,7.81C1980.84,542.17,1977,539.42,1976.79,533.92Z"/><path class="cls-6" d="M2015,516.41v3.7h-6.86v14.06c0,3,1.63,3.79,3.46,3.79a5.93,5.93,0,0,0,3.55-1.15h.79v3.86a11.45,11.45,0,0,1-4.74,1.2c-5.33,0-7.6-3-7.6-7.56v-14.2h-3.55v-2.2c3.75-1.3,5.18-4.45,5.82-7.15h2.27v5.65Z"/><path class="cls-6" d="M2029.41,542.21c-4.69,0-8.54-3.09-8.54-7.75v-.35a7.09,7.09,0,0,1,2.07-5.3c1.88-2,5.48-2.9,8.39-2.9a21.16,21.16,0,0,1,5.38.7v-1.85c0-3.35-1.68-5.4-5.38-5.4-2.81,0-4.79,1.25-4.93,4h-4.25V523c.54-5.2,4.49-7.35,9.38-7.35,5.63,0,9.67,2.65,9.67,10.05v15.71h-3.35l-.84-2.75h-.1A9.51,9.51,0,0,1,2029.41,542.21Zm7.3-9.9v-2a16,16,0,0,0-5.13-.85c-3,0-6.17,1.3-6.17,4.55,0,2.8,1.92,4.36,4.79,4.36S2036.71,536,2036.71,532.31Z"/><path class="cls-6" d="M2047.57,533.92v-.41h4.29c0,3.3,1.88,5,5.68,5,3.31,0,5-1.39,5-3.7a3.19,3.19,0,0,0-.94-2.4c-2.37-2.4-8.64-1.65-11.85-4.9a6.48,6.48,0,0,1-1.78-4.35v-.35c0-5,4.45-7.15,9-7.15,4.84,0,9,2.25,9,7v.4h-4.29c-.15-2.9-2-3.85-4.89-3.85s-4.39,1.3-4.39,3.15a3,3,0,0,0,.89,2.2c2.27,2.3,8.53,1.5,11.84,4.85a6.53,6.53,0,0,1,1.78,5c0,5.71-4.79,7.81-9.33,7.81C2051.62,542.17,2047.77,539.42,2047.57,533.92Z"/><path class="cls-6" d="M2095.15,542.17a9.27,9.27,0,0,1-7.65-3.36h-.1v11.61h-4.49v-34h3.36l.94,3h.09c1.78-2.55,5.09-3.8,8.45-3.8,5.82,0,11.69,4.4,11.69,12.7v.75C2107.44,536.56,2103,542.17,2095.15,542.17Zm7.75-13.31c0-5.15-2.52-9.35-7.94-9.35s-7.71,4.3-7.71,9.35,2.32,9.45,7.71,9.45S2102.9,534.17,2102.9,528.86Z"/><path class="cls-6" d="M2135.63,534.42c-1.19,5-5.28,7.79-10.71,7.79-6.86,0-11.85-5.15-11.85-13v-.7c0-7.7,4.79-12.9,11.7-12.9,7.35,0,11.25,5.75,11.25,12.8,0,.7,0,1.1-.05,1.85h-18.31c.4,4.61,2.81,8,7.36,8,3.2,0,5.18-1.35,6.17-3.89Zm-10.71-14.91c-4.35,0-6.52,2.85-7.16,7h13.67C2131.14,523.16,2129.31,519.51,2124.92,519.51Z"/><path class="cls-6" d="M2147.42,541.42h-4.49v-25h3l1.14,4.4h.1c1-3,4.09-4.6,7.25-4.6.3,0,1.19,0,1.53.1v4.5h-1.38c-6.61,0-7.16,4.2-7.16,8.7Z"/><path class="cls-6" d="M2174.42,516.41v3.7h-6.86v14.06c0,3,1.63,3.79,3.46,3.79a5.91,5.91,0,0,0,3.55-1.15h.79v3.86a11.45,11.45,0,0,1-4.74,1.2c-5.33,0-7.6-3-7.6-7.56v-14.2h-3.55v-2.2c3.75-1.3,5.18-4.45,5.82-7.15h2.27v5.65Z"/><path class="cls-6" d="M2185.18,516.41v15.35c0,5,2.92,6.45,5.83,6.45s5.82-1.5,5.82-6.45V516.41h4.45V532c0,7.21-5,10.25-10.27,10.25s-10.27-3-10.27-10.25V516.41Z"/><path class="cls-6" d="M2213.32,541.42h-4.49v-25h3l1.13,4.4h.1c1-3,4.1-4.6,7.26-4.6.29,0,1.18,0,1.53.1v4.5h-1.38c-6.62,0-7.16,4.2-7.16,8.7Z"/><path class="cls-6" d="M2239.68,542.21a10.52,10.52,0,0,1-7.95-3.7h-.15l-.94,2.91h-3.15v-35H2232v12.9h.1c1.87-2.5,5-3.65,8.29-3.65,5.77,0,11.65,4.4,11.65,12.7v.85C2252,536.71,2247.63,542.21,2239.68,542.21Zm7.8-13.3c0-5.15-2.52-9.35-7.95-9.35s-7.7,4.3-7.7,9.35,2.32,9.46,7.7,9.46S2247.48,534.21,2247.48,528.91Z"/><path class="cls-6" d="M2266.33,542.21c-4.69,0-8.54-3.09-8.54-7.75v-.35a7.06,7.06,0,0,1,2.08-5.3c1.87-2,5.48-2.9,8.39-2.9a21.22,21.22,0,0,1,5.38.7v-1.85c0-3.35-1.68-5.4-5.38-5.4-2.82,0-4.79,1.25-4.94,4h-4.24V523c.54-5.2,4.49-7.35,9.38-7.35,5.62,0,9.67,2.65,9.67,10.05v15.71h-3.36l-.84-2.75h-.09A9.52,9.52,0,0,1,2266.33,542.21Zm7.31-9.9v-2a16.06,16.06,0,0,0-5.14-.85c-3,0-6.17,1.3-6.17,4.55,0,2.8,1.93,4.36,4.79,4.36S2273.64,536,2273.64,532.31Z"/><path class="cls-6" d="M2284.55,528.56c0-7.5,5.23-12.9,12.29-12.9,5.77,0,10.31,3.2,10.95,9v.4h-4.09c-.55-3.65-3-5.55-6.76-5.55-4.74,0-7.85,4-7.85,9.45s3,9.35,7.7,9.35c3.95,0,6.36-1.8,7-5.55h4.14v.4c-.64,5.51-5.13,9.05-11.1,9.05-7.21,0-12.24-5.4-12.24-13Z"/><path class="cls-6" d="M2319.44,508.71a3.22,3.22,0,0,1-6.41,0v-.15a3.22,3.22,0,0,1,6.41,0ZM2314,541.42v-25h4.5v25Z"/><path class="cls-6" d="M2337.46,515.66c6.76,0,12.29,4.6,12.29,12.85v.85c0,8.2-5.58,12.85-12.29,12.85s-12.29-4.65-12.29-12.85v-.85C2325.17,520.26,2330.8,515.66,2337.46,515.66Zm0,22.65c5.23,0,7.75-4.14,7.75-9.4s-2.52-9.4-7.75-9.4-7.75,4.1-7.75,9.4S2332.23,538.31,2337.46,538.31Z"/><path class="cls-6" d="M2361.2,541.42h-4.49v-25h3.36l.88,3h.1a8.9,8.9,0,0,1,7.26-3.7,9,9,0,0,1,7,2.65c1.48,1.55,2.27,4,2.27,7.05v16.06h-4.44V526.16c0-2.55-.45-4-1.43-5a5.77,5.77,0,0,0-4.2-1.5,6.17,6.17,0,0,0-4.89,2c-.93,1-1.38,2.65-1.38,5.15Z"/><path class="cls-6" d="M2406.52,534.42c-1.19,5-5.29,7.79-10.72,7.79-6.86,0-11.84-5.15-11.84-13v-.7c0-7.7,4.78-12.9,11.7-12.9,7.35,0,11.25,5.75,11.25,12.8,0,.7,0,1.1,0,1.85h-18.31c.39,4.61,2.81,8,7.35,8,3.21,0,5.18-1.35,6.17-3.89Zm-10.72-14.91c-4.34,0-6.51,2.85-7.15,7h13.67C2402,523.16,2400.2,519.51,2395.8,519.51Z"/><path class="cls-6" d="M2412.49,533.92v-.41h4.29c0,3.3,1.88,5,5.68,5,3.3,0,5-1.39,5-3.7a3.16,3.16,0,0,0-.94-2.4c-2.36-2.4-8.63-1.65-11.84-4.9a6.48,6.48,0,0,1-1.78-4.35v-.35c0-5,4.44-7.15,9-7.15,4.83,0,9,2.25,9,7v.4h-4.3c-.14-2.9-2-3.85-4.88-3.85s-4.4,1.3-4.4,3.15a3.05,3.05,0,0,0,.89,2.2c2.27,2.3,8.54,1.5,11.85,4.85a6.56,6.56,0,0,1,1.78,5c0,5.71-4.79,7.81-9.33,7.81C2416.53,542.17,2412.68,539.42,2412.49,533.92Z"/><path class="cls-6" d="M2439.54,534.81h5.67v.61l-4.88,12.35h-3.21Z"/><path class="cls-6" d="M2466.93,541.42h-4.49v-35h4.49v12.65h.1a8.91,8.91,0,0,1,7-3.4,9,9,0,0,1,7,2.65c1.48,1.55,2.27,4,2.27,7.05v16.06h-4.44V526.16c0-2.55-.45-4-1.43-5a5.77,5.77,0,0,0-4.2-1.5,6.17,6.17,0,0,0-4.89,2c-.93,1-1.38,2.65-1.38,5.15Z"/><path class="cls-6" d="M2498.37,542.21c-4.69,0-8.54-3.09-8.54-7.75v-.35a7.06,7.06,0,0,1,2.08-5.3c1.87-2,5.48-2.9,8.39-2.9a21.16,21.16,0,0,1,5.38.7v-1.85c0-3.35-1.68-5.4-5.38-5.4-2.81,0-4.79,1.25-4.94,4h-4.24V523c.54-5.2,4.49-7.35,9.38-7.35,5.62,0,9.67,2.65,9.67,10.05v15.71h-3.36l-.83-2.75h-.1A9.52,9.52,0,0,1,2498.37,542.21Zm7.31-9.9v-2a16,16,0,0,0-5.13-.85c-3,0-6.17,1.3-6.17,4.55,0,2.8,1.92,4.36,4.78,4.36S2505.68,536,2505.68,532.31Z"/><path class="cls-6" d="M2531.54,541.42h-4.49v-25h3l1.14,4.4h.1c1-3,4.09-4.6,7.25-4.6.3,0,1.19,0,1.53.1v4.5h-1.38c-6.61,0-7.16,4.2-7.16,8.7Z"/><path class="cls-6" d="M2566.49,534.42c-1.18,5-5.28,7.79-10.71,7.79-6.86,0-11.85-5.15-11.85-13v-.7c0-7.7,4.79-12.9,11.7-12.9,7.36,0,11.26,5.75,11.26,12.8,0,.7,0,1.1,0,1.85h-18.32c.4,4.61,2.82,8,7.36,8,3.21,0,5.18-1.35,6.17-3.89Zm-10.71-14.91c-4.34,0-6.52,2.85-7.16,7h13.67C2562,523.16,2560.17,519.51,2555.78,519.51Z"/><path class="cls-6" d="M2572.46,533.92v-.41h4.3c0,3.3,1.87,5,5.67,5,3.31,0,5-1.39,5-3.7a3.19,3.19,0,0,0-.94-2.4c-2.37-2.4-8.64-1.65-11.85-4.9a6.52,6.52,0,0,1-1.77-4.35v-.35c0-5,4.44-7.15,9-7.15,4.84,0,9,2.25,9,7v.4h-4.29c-.15-2.9-2-3.85-4.89-3.85s-4.39,1.3-4.39,3.15a3.05,3.05,0,0,0,.89,2.2c2.27,2.3,8.54,1.5,11.84,4.85a6.53,6.53,0,0,1,1.78,5c0,5.71-4.79,7.81-9.33,7.81C2576.51,542.17,2572.66,539.42,2572.46,533.92Z"/><path class="cls-6" d="M2602.42,516.41v15.35c0,5,2.92,6.45,5.83,6.45s5.82-1.5,5.82-6.45V516.41h4.45V532c0,7.21-5,10.25-10.27,10.25S2598,539.17,2598,532V516.41Z"/><path class="cls-6" d="M2630.31,534c0,3.1,1.68,3.91,4.25,3.46h.74v3.9a18.54,18.54,0,0,1-3,.25c-4.25,0-6.47-2.56-6.47-7V506.41h4.49Z"/><path class="cls-6" d="M2653,516.41v3.7h-6.86v14.06c0,3,1.63,3.79,3.45,3.79a5.94,5.94,0,0,0,3.56-1.15h.79v3.86a11.49,11.49,0,0,1-4.74,1.2c-5.33,0-7.6-3-7.6-7.56v-14.2H2638v-2.2c3.75-1.3,5.18-4.45,5.83-7.15h2.27v5.65Z"/><path class="cls-6" d="M2667.33,542.21c-4.69,0-8.54-3.09-8.54-7.75v-.35a7.06,7.06,0,0,1,2.08-5.3c1.87-2,5.47-2.9,8.39-2.9a21.22,21.22,0,0,1,5.38.7v-1.85c0-3.35-1.68-5.4-5.38-5.4-2.82,0-4.79,1.25-4.94,4h-4.24V523c.54-5.2,4.49-7.35,9.37-7.35,5.63,0,9.68,2.65,9.68,10.05v15.71h-3.36l-.84-2.75h-.1A9.5,9.5,0,0,1,2667.33,542.21Zm7.31-9.9v-2a16.06,16.06,0,0,0-5.14-.85c-3,0-6.17,1.3-6.17,4.55,0,2.8,1.93,4.36,4.79,4.36S2674.64,536,2674.64,532.31Z"/><path class="cls-6" d="M2697.84,515.66a9.29,9.29,0,0,1,7.65,3.35h.1v-12.6h4.49v35h-3.36l-.94-3h-.1c-1.77,2.54-5.08,3.79-8.44,3.79-5.82,0-11.7-4.4-11.7-12.7v-.75C2685.54,521.26,2690,515.66,2697.84,515.66Zm-7.75,13.3c0,5.15,2.51,9.35,7.94,9.35s7.7-4.3,7.7-9.35-2.32-9.45-7.7-9.45C2692.5,519.51,2690.09,523.66,2690.09,529Z"/><path class="cls-6" d="M2729.28,515.66c6.76,0,12.29,4.6,12.29,12.85v.85c0,8.2-5.58,12.85-12.29,12.85S2717,537.56,2717,529.36v-.85C2717,520.26,2722.62,515.66,2729.28,515.66Zm0,22.65c5.23,0,7.75-4.14,7.75-9.4s-2.52-9.4-7.75-9.4-7.75,4.1-7.75,9.4S2724.05,538.31,2729.28,538.31Z"/><path class="cls-6" d="M2779,534.42c-1.18,5-5.28,7.79-10.71,7.79-6.86,0-11.84-5.15-11.84-13v-.7c0-7.7,4.78-12.9,11.69-12.9,7.36,0,11.26,5.75,11.26,12.8,0,.7,0,1.1-.05,1.85H2761c.39,4.61,2.81,8,7.35,8,3.21,0,5.18-1.35,6.17-3.89Zm-10.71-14.91c-4.34,0-6.51,2.85-7.15,7h13.67C2774.49,523.16,2772.67,519.51,2768.27,519.51Z"/><path class="cls-6" d="M2790.78,541.42h-4.49v-25h3.36l.88,3h.1a8.9,8.9,0,0,1,7.26-3.7,9,9,0,0,1,7,2.65c1.48,1.55,2.27,4,2.27,7.05v16.06h-4.44V526.16c0-2.55-.45-4-1.43-5a5.77,5.77,0,0,0-4.2-1.5,6.16,6.16,0,0,0-4.89,2c-.94,1-1.38,2.65-1.38,5.15Z"/><path class="cls-6" d="M2828.24,534c0,3.1,1.68,3.91,4.25,3.46h.74v3.9a18.44,18.44,0,0,1-3,.25c-4.25,0-6.47-2.56-6.47-7V506.41h4.49Z"/><path class="cls-6" d="M2846.46,542.21c-4.69,0-8.54-3.09-8.54-7.75v-.35a7.09,7.09,0,0,1,2.07-5.3c1.88-2,5.48-2.9,8.39-2.9a21.16,21.16,0,0,1,5.38.7v-1.85c0-3.35-1.67-5.4-5.38-5.4-2.81,0-4.78,1.25-4.93,4h-4.25V523c.54-5.2,4.49-7.35,9.38-7.35,5.63,0,9.68,2.65,9.68,10.05v15.71h-3.36l-.84-2.75h-.1A9.51,9.51,0,0,1,2846.46,542.21Zm7.3-9.9v-2a16,16,0,0,0-5.13-.85c-3,0-6.17,1.3-6.17,4.55,0,2.8,1.92,4.36,4.79,4.36S2853.76,536,2853.76,532.31Z"/><path class="cls-6" d="M2886.14,515.66a9.28,9.28,0,0,1,7.65,3.35h.1v-12.6h4.49v35H2895l-.94-3h-.1c-1.78,2.54-5.08,3.79-8.44,3.79-5.82,0-11.7-4.4-11.7-12.7v-.75C2873.85,521.26,2878.34,515.66,2886.14,515.66Zm-7.75,13.3c0,5.15,2.52,9.35,8,9.35,5.28,0,7.7-4.3,7.7-9.35s-2.32-9.45-7.7-9.45C2880.81,519.51,2878.39,523.66,2878.39,529Z"/><path class="cls-6" d="M2911.86,508.71a3.22,3.22,0,0,1-6.42,0v-.15a3.23,3.23,0,0,1,6.42,0Zm-5.48,32.71v-25h4.49v25Z"/><path class="cls-6" d="M2917.54,533.92v-.41h4.29c0,3.3,1.88,5,5.68,5,3.3,0,5-1.39,5-3.7a3.16,3.16,0,0,0-.94-2.4c-2.36-2.4-8.63-1.65-11.84-4.9a6.48,6.48,0,0,1-1.78-4.35v-.35c0-5,4.44-7.15,9-7.15,4.84,0,9,2.25,9,7v.4h-4.3c-.15-2.9-2-3.85-4.88-3.85s-4.4,1.3-4.4,3.15a3.05,3.05,0,0,0,.89,2.2c2.27,2.3,8.54,1.5,11.85,4.85a6.56,6.56,0,0,1,1.78,5c0,5.71-4.79,7.81-9.33,7.81C2921.58,542.17,2917.73,539.42,2917.54,533.92Z"/><path class="cls-6" d="M2948.19,541.42h-4.49v-25h3.35l.89,3h.1a7.83,7.83,0,0,1,6.66-3.7,8.09,8.09,0,0,1,7.56,4.3h.1a8.86,8.86,0,0,1,7.65-4.3c5.33,0,8.54,3.15,8.54,8.7v17.06h-4.5V525.71c0-4.05-1.67-6.05-5.18-6.05-3.26,0-5.53,2.4-5.53,6.4v15.36h-4.44V525.71c0-4.05-1.73-6.05-5.23-6.05s-5.43,2.5-5.48,6.45Z"/><path class="cls-6" d="M2991.53,508.71a3.22,3.22,0,0,1-6.42,0v-.15a3.23,3.23,0,0,1,6.42,0Zm-5.48,32.71v-25h4.49v25Z"/><path class="cls-6" d="M2998.19,524.71h14.31v4.1h-14.31Z"/><path class="cls-6" d="M1659,611.42h-4.49v-25h3.35l.89,3h.1a8.9,8.9,0,0,1,7.26-3.7,9,9,0,0,1,7,2.65c1.48,1.55,2.27,4,2.27,7.05v16.06h-4.44V596.16c0-2.55-.45-4-1.44-5a5.73,5.73,0,0,0-4.19-1.5,6.16,6.16,0,0,0-4.89,2c-.94,1-1.38,2.65-1.38,5.15Z"/><path class="cls-6" d="M1686.85,586.41v15.35c0,5,2.91,6.45,5.82,6.45s5.83-1.5,5.83-6.45V586.41h4.44V602c0,7.21-5,10.25-10.27,10.25s-10.26-3-10.26-10.25V586.41Z"/><path class="cls-6" d="M1709.21,598.56c0-7.5,5.23-12.9,12.29-12.9,5.77,0,10.32,3.2,11,9v.4h-4.1c-.54-3.65-3-5.55-6.76-5.55-4.74,0-7.85,4-7.85,9.45s3,9.35,7.7,9.35c4,0,6.37-1.8,7-5.55h4.15v.4c-.65,5.51-5.14,9.05-11.11,9.05-7.21,0-12.24-5.4-12.24-13Z"/><path class="cls-6" d="M1744.11,578.71a3.22,3.22,0,0,1-6.42,0v-.15a3.23,3.23,0,0,1,6.42,0Zm-5.48,32.71v-25h4.49v25Z"/><path class="cls-6" d="M1762.12,585.66c6.76,0,12.29,4.6,12.29,12.85v.85c0,8.2-5.57,12.85-12.29,12.85s-12.29-4.65-12.29-12.85v-.85C1749.83,590.26,1755.46,585.66,1762.12,585.66Zm0,22.65c5.23,0,7.75-4.14,7.75-9.4s-2.52-9.4-7.75-9.4-7.75,4.1-7.75,9.4S1756.89,608.31,1762.12,608.31Zm-6.51-26.65,10.76-7.1,2.27,4.05-11.6,5.65Z"/><path class="cls-6" d="M1785.86,611.42h-4.49v-25h3.36l.89,3h.1a8.88,8.88,0,0,1,7.25-3.7,9,9,0,0,1,7,2.65c1.48,1.55,2.27,4,2.27,7.05v16.06h-4.44V596.16c0-2.55-.44-4-1.43-5a5.77,5.77,0,0,0-4.2-1.5,6.14,6.14,0,0,0-4.88,2c-.94,1-1.39,2.65-1.39,5.15Z"/><path class="cls-6" d="M1830.09,585.66a9.28,9.28,0,0,1,7.65,3.35h.1v-12.6h4.49v35H1839l-.94-3h-.1c-1.78,2.54-5.09,3.79-8.44,3.79-5.83,0-11.7-4.4-11.7-12.7v-.75C1817.8,591.26,1822.29,585.66,1830.09,585.66Zm-7.75,13.3c0,5.15,2.52,9.35,8,9.35,5.28,0,7.7-4.3,7.7-9.35s-2.32-9.45-7.7-9.45S1822.34,593.66,1822.34,599Z"/><path class="cls-6" d="M1871.8,604.42c-1.18,5-5.28,7.79-10.71,7.79-6.86,0-11.85-5.15-11.85-13v-.7c0-7.7,4.79-12.9,11.7-12.9,7.36,0,11.26,5.75,11.26,12.8,0,.7,0,1.1,0,1.85h-18.32c.4,4.61,2.82,8,7.36,8,3.21,0,5.18-1.35,6.17-3.89Zm-10.71-14.91c-4.34,0-6.52,2.85-7.16,7h13.67C1867.31,593.16,1865.48,589.51,1861.09,589.51Z"/><path class="cls-6" d="M1892.53,604c0,3.1,1.68,3.91,4.25,3.46h.74v3.9a18.67,18.67,0,0,1-3,.25c-4.24,0-6.46-2.56-6.46-7V576.41h4.49Z"/><path class="cls-6" d="M1910.74,612.21c-4.69,0-8.54-3.09-8.54-7.75v-.35a7.1,7.1,0,0,1,2.08-5.3c1.87-2,5.48-2.9,8.39-2.9a21.16,21.16,0,0,1,5.38.7v-1.85c0-3.35-1.68-5.4-5.38-5.4-2.81,0-4.79,1.25-4.94,4h-4.24V593c.54-5.2,4.49-7.35,9.38-7.35,5.62,0,9.67,2.65,9.67,10.05v15.71h-3.35l-.84-2.75h-.1A9.52,9.52,0,0,1,1910.74,612.21Zm7.31-9.9v-2a16,16,0,0,0-5.13-.85c-3,0-6.17,1.3-6.17,4.55,0,2.8,1.92,4.36,4.78,4.36S1918.05,606,1918.05,602.31Z"/><path class="cls-6" d="M1928.91,603.92v-.41h4.29c0,3.3,1.88,5,5.68,5,3.31,0,5-1.39,5-3.7a3.19,3.19,0,0,0-.93-2.4c-2.37-2.4-8.64-1.65-11.85-4.9a6.48,6.48,0,0,1-1.78-4.35v-.35c0-5,4.45-7.15,9-7.15,4.83,0,9,2.25,9,7v.4H1943c-.15-2.9-2-3.85-4.89-3.85s-4.39,1.3-4.39,3.15a3,3,0,0,0,.88,2.2c2.27,2.3,8.54,1.5,11.85,4.85a6.53,6.53,0,0,1,1.78,5c0,5.71-4.79,7.81-9.33,7.81C1933,612.17,1929.11,609.42,1928.91,603.92Z"/><path class="cls-6" d="M1976.49,612.17a9.27,9.27,0,0,1-7.65-3.36h-.1v11.61h-4.49v-34h3.36l.93,3h.1c1.78-2.55,5.09-3.8,8.44-3.8,5.83,0,11.7,4.4,11.7,12.7v.75C1988.78,606.56,1984.29,612.17,1976.49,612.17Zm7.75-13.31c0-5.15-2.52-9.35-8-9.35-5.28,0-7.7,4.3-7.7,9.35s2.32,9.45,7.7,9.45C1981.82,608.31,1984.24,604.17,1984.24,598.86Z"/><path class="cls-6" d="M2000.18,611.42h-4.49v-25h3l1.14,4.4h.1c1-3,4.09-4.6,7.25-4.6.3,0,1.19,0,1.53.1v4.5h-1.38c-6.61,0-7.16,4.2-7.16,8.7Z"/><path class="cls-6" d="M2035.13,604.42c-1.18,5-5.28,7.79-10.71,7.79-6.86,0-11.85-5.15-11.85-13v-.7c0-7.7,4.79-12.9,11.7-12.9,7.36,0,11.26,5.75,11.26,12.8,0,.7,0,1.1,0,1.85h-18.32c.4,4.61,2.82,8,7.36,8,3.21,0,5.18-1.35,6.17-3.89Zm-10.71-14.91c-4.34,0-6.52,2.85-7.16,7h13.68C2030.64,593.16,2028.81,589.51,2024.42,589.51Z"/><path class="cls-6" d="M2041.15,598.56c0-7.5,5.23-12.9,12.29-12.9,5.78,0,10.32,3.2,11,9v.4h-4.1c-.54-3.65-3-5.55-6.76-5.55-4.74,0-7.85,4-7.85,9.45s3,9.35,7.7,9.35c4,0,6.37-1.8,7-5.55h4.15v.4c-.64,5.51-5.13,9.05-11.11,9.05-7.2,0-12.24-5.4-12.24-13Z"/><path class="cls-6" d="M2076.05,578.71a3.22,3.22,0,0,1-6.42,0v-.15a3.23,3.23,0,0,1,6.42,0Zm-5.48,32.71v-25h4.49v25Z"/><path class="cls-6" d="M2095.3,612.17a9.27,9.27,0,0,1-7.65-3.36h-.1v11.61h-4.49v-34h3.36l.93,3h.1c1.78-2.55,5.09-3.8,8.44-3.8,5.83,0,11.7,4.4,11.7,12.7v.75C2107.59,606.56,2103.1,612.17,2095.3,612.17Zm7.75-13.31c0-5.15-2.52-9.35-8-9.35-5.28,0-7.7,4.3-7.7,9.35s2.32,9.45,7.7,9.45C2100.63,608.31,2103.05,604.17,2103.05,598.86Z"/><path class="cls-6" d="M2119.78,578.71a3.22,3.22,0,0,1-6.41,0v-.15a3.22,3.22,0,0,1,6.41,0Zm-5.48,32.71v-25h4.5v25Z"/><path class="cls-6" d="M2139.63,586.41v3.7h-6.86v14.06c0,3,1.62,3.79,3.45,3.79a5.91,5.91,0,0,0,3.55-1.15h.79v3.86a11.41,11.41,0,0,1-4.73,1.2c-5.34,0-7.61-3-7.61-7.56v-14.2h-3.55v-2.2c3.75-1.3,5.18-4.45,5.82-7.15h2.28v5.65Z"/><path class="cls-6" d="M2154,612.21c-4.69,0-8.54-3.09-8.54-7.75v-.35a7.09,7.09,0,0,1,2.07-5.3c1.88-2,5.48-2.9,8.39-2.9a21.1,21.1,0,0,1,5.38.7v-1.85c0-3.35-1.67-5.4-5.38-5.4-2.81,0-4.78,1.25-4.93,4h-4.25V593c.55-5.2,4.5-7.35,9.38-7.35,5.63,0,9.68,2.65,9.68,10.05v15.71h-3.36l-.84-2.75h-.1A9.51,9.51,0,0,1,2154,612.21Zm7.3-9.9v-2a16,16,0,0,0-5.13-.85c-3,0-6.17,1.3-6.17,4.55,0,2.8,1.93,4.36,4.79,4.36S2161.29,606,2161.29,602.31Z"/><path class="cls-6" d="M2172.2,598.56c0-7.5,5.24-12.9,12.29-12.9,5.78,0,10.32,3.2,11,9v.4h-4.1c-.54-3.65-3-5.55-6.76-5.55-4.74,0-7.85,4-7.85,9.45s3,9.35,7.7,9.35c3.95,0,6.37-1.8,7-5.55h4.15v.4c-.64,5.51-5.13,9.05-11.11,9.05-7.2,0-12.24-5.4-12.24-13Z"/><path class="cls-6" d="M2207.1,578.71a3.22,3.22,0,0,1-6.42,0v-.15a3.23,3.23,0,0,1,6.42,0Zm-5.48,32.71v-25h4.49v25Z"/><path class="cls-6" d="M2225.12,585.66c6.76,0,12.29,4.6,12.29,12.85v.85c0,8.2-5.58,12.85-12.29,12.85s-12.29-4.65-12.29-12.85v-.85C2212.83,590.26,2218.45,585.66,2225.12,585.66Zm0,22.65c5.23,0,7.75-4.14,7.75-9.4s-2.52-9.4-7.75-9.4-7.75,4.1-7.75,9.4S2219.88,608.31,2225.12,608.31Z"/><path class="cls-6" d="M2248.86,611.42h-4.49v-25h3.35l.89,3h.1a8.9,8.9,0,0,1,7.26-3.7,9,9,0,0,1,7,2.65c1.48,1.55,2.27,4,2.27,7.05v16.06h-4.45V596.16c0-2.55-.44-4-1.43-5a5.75,5.75,0,0,0-4.19-1.5,6.15,6.15,0,0,0-4.89,2c-.94,1-1.38,2.65-1.38,5.15Z"/><path class="cls-6" d="M2294.17,604.42c-1.18,5-5.28,7.79-10.71,7.79-6.86,0-11.85-5.15-11.85-13v-.7c0-7.7,4.79-12.9,11.7-12.9,7.36,0,11.26,5.75,11.26,12.8,0,.7,0,1.1-.05,1.85H2276.2c.4,4.61,2.82,8,7.36,8,3.21,0,5.18-1.35,6.17-3.89Zm-10.71-14.91c-4.34,0-6.52,2.85-7.16,7H2290C2289.68,593.16,2287.85,589.51,2283.46,589.51Z"/><path class="cls-6" d="M2300.14,603.92v-.41h4.3c0,3.3,1.87,5,5.67,5,3.31,0,5-1.39,5-3.7a3.19,3.19,0,0,0-.94-2.4c-2.37-2.4-8.64-1.65-11.85-4.9a6.52,6.52,0,0,1-1.77-4.35v-.35c0-5,4.44-7.15,9-7.15,4.84,0,9,2.25,9,7v.4h-4.3c-.15-2.9-2-3.85-4.89-3.85s-4.39,1.3-4.39,3.15a3.05,3.05,0,0,0,.89,2.2c2.27,2.3,8.54,1.5,11.85,4.85a6.56,6.56,0,0,1,1.77,5c0,5.71-4.79,7.81-9.33,7.81C2304.19,612.17,2300.34,609.42,2300.14,603.92Z"/><path class="cls-6" d="M2346.49,585.66a9.28,9.28,0,0,1,7.65,3.35h.1v-12.6h4.49v35h-3.35l-.94-3h-.1c-1.78,2.54-5.08,3.79-8.44,3.79-5.82,0-11.7-4.4-11.7-12.7v-.75C2334.2,591.26,2338.69,585.66,2346.49,585.66Zm-7.75,13.3c0,5.15,2.52,9.35,8,9.35,5.28,0,7.7-4.3,7.7-9.35s-2.32-9.45-7.7-9.45C2341.16,589.51,2338.74,593.66,2338.74,599Z"/><path class="cls-6" d="M2388.2,604.42c-1.18,5-5.28,7.79-10.71,7.79-6.86,0-11.85-5.15-11.85-13v-.7c0-7.7,4.79-12.9,11.7-12.9,7.36,0,11.26,5.75,11.26,12.8,0,.7,0,1.1,0,1.85h-18.32c.4,4.61,2.82,8,7.36,8,3.21,0,5.18-1.35,6.17-3.89Zm-10.71-14.91c-4.34,0-6.51,2.85-7.16,7H2384C2383.71,593.16,2381.88,589.51,2377.49,589.51Z"/><path class="cls-6" d="M2409.18,611.42h-4.49v-25H2408l.89,3h.1a8.9,8.9,0,0,1,7.26-3.7,9,9,0,0,1,7,2.65c1.48,1.55,2.27,4,2.27,7.05v16.06h-4.44V596.16c0-2.55-.45-4-1.44-5a5.73,5.73,0,0,0-4.19-1.5,6.16,6.16,0,0,0-4.89,2c-.94,1-1.38,2.65-1.38,5.15Z"/><path class="cls-6" d="M2437,586.41v15.35c0,5,2.91,6.45,5.82,6.45s5.83-1.5,5.83-6.45V586.41h4.44V602c0,7.21-5,10.25-10.27,10.25s-10.26-3-10.26-10.25V586.41Z"/><path class="cls-6" d="M2481.94,604.42c-1.19,5-5.29,7.79-10.72,7.79-6.86,0-11.84-5.15-11.84-13v-.7c0-7.7,4.79-12.9,11.7-12.9,7.35,0,11.25,5.75,11.25,12.8,0,.7,0,1.1,0,1.85H2464c.39,4.61,2.81,8,7.35,8,3.21,0,5.19-1.35,6.17-3.89Zm-10.72-14.91c-4.34,0-6.51,2.85-7.15,7h13.67C2477.44,593.16,2475.62,589.51,2471.22,589.51Z"/><path class="cls-6" d="M2487.91,603.92v-.41h4.29c0,3.3,1.88,5,5.68,5,3.31,0,5-1.39,5-3.7a3.19,3.19,0,0,0-.93-2.4c-2.37-2.4-8.64-1.65-11.85-4.9a6.48,6.48,0,0,1-1.78-4.35v-.35c0-5,4.44-7.15,9-7.15,4.83,0,9,2.25,9,7v.4H2502c-.14-2.9-2-3.85-4.88-3.85s-4.4,1.3-4.4,3.15a3.05,3.05,0,0,0,.89,2.2c2.27,2.3,8.54,1.5,11.85,4.85a6.53,6.53,0,0,1,1.78,5c0,5.71-4.79,7.81-9.33,7.81C2492,612.17,2488.1,609.42,2487.91,603.92Z"/><path class="cls-6" d="M2526.16,586.41v3.7h-6.86v14.06c0,3,1.63,3.79,3.46,3.79a5.93,5.93,0,0,0,3.55-1.15h.79v3.86a11.49,11.49,0,0,1-4.74,1.2c-5.33,0-7.6-3-7.6-7.56v-14.2h-3.56v-2.2c3.76-1.3,5.19-4.45,5.83-7.15h2.27v5.65Z"/><path class="cls-6" d="M2537.61,611.42h-4.49v-25h3l1.14,4.4h.1c1-3,4.09-4.6,7.25-4.6.3,0,1.19,0,1.53.1v4.5h-1.38c-6.61,0-7.16,4.2-7.16,8.7Z"/><path class="cls-6" d="M2558.44,612.21c-4.69,0-8.54-3.09-8.54-7.75v-.35a7.06,7.06,0,0,1,2.08-5.3c1.87-2,5.48-2.9,8.39-2.9a21.22,21.22,0,0,1,5.38.7v-1.85c0-3.35-1.68-5.4-5.38-5.4-2.82,0-4.79,1.25-4.94,4h-4.24V593c.54-5.2,4.49-7.35,9.37-7.35,5.63,0,9.68,2.65,9.68,10.05v15.71h-3.36l-.84-2.75H2566A9.53,9.53,0,0,1,2558.44,612.21Zm7.31-9.9v-2a16.06,16.06,0,0,0-5.14-.85c-3,0-6.17,1.3-6.17,4.55,0,2.8,1.93,4.36,4.79,4.36S2565.75,606,2565.75,602.31Z"/><path class="cls-6" d="M2591.61,611.42h-4.49v-25h3l1.14,4.4h.09c1-3,4.1-4.6,7.26-4.6.3,0,1.19,0,1.53.1v4.5h-1.38c-6.62,0-7.16,4.2-7.16,8.7Z"/><path class="cls-6" d="M2626.56,604.42c-1.19,5-5.28,7.79-10.71,7.79-6.86,0-11.85-5.15-11.85-13v-.7c0-7.7,4.79-12.9,11.7-12.9,7.36,0,11.25,5.75,11.25,12.8,0,.7,0,1.1,0,1.85h-18.32c.4,4.61,2.82,8,7.36,8,3.21,0,5.18-1.35,6.17-3.89Zm-10.71-14.91c-4.35,0-6.52,2.85-7.16,7h13.67C2622.07,593.16,2620.24,589.51,2615.85,589.51Z"/><path class="cls-6" d="M2642.75,621.17c-5.58,0-11.55-2-11.55-6.71v-.29a6.15,6.15,0,0,1,3.31-5.41,5.49,5.49,0,0,1-1.68-3.75,5.16,5.16,0,0,1,2.56-4.45,7.48,7.48,0,0,1-2.46-5.95v-.55c0-5.65,4.44-8.45,10.07-8.45a14.37,14.37,0,0,1,3.65.45l3.95-4.7H2655V582l-4.79,5.75a7.65,7.65,0,0,1,2.87,6.3v.6c0,5.45-4.6,8.2-10.27,8.2a13.81,13.81,0,0,1-4.44-.65,2.51,2.51,0,0,0-1.49,2.25,2.23,2.23,0,0,0,2.52,2.35h7.11c4.74,0,8.49,2.36,8.49,6.26v.35C2655,618.72,2648.52,621.17,2642.75,621.17Zm7.75-7.8c0-1.61-1.38-2.61-4.39-2.61H2638a3.42,3.42,0,0,0-2.37,3.2c0,2.16,2.47,3.46,7.31,3.46C2647.39,617.42,2650.5,616.12,2650.5,613.37Zm-13.18-19.06c0,3.25,2.22,5,5.68,5s5.67-1.7,5.67-5-2.12-4.95-5.67-4.95S2637.32,591.16,2637.32,594.31Z"/><path class="cls-6" d="M2665.85,578.71a3.22,3.22,0,0,1-6.42,0v-.15a3.23,3.23,0,0,1,6.42,0Zm-5.48,32.71v-25h4.49v25Z"/><path class="cls-6" d="M2683.87,585.66c6.76,0,12.29,4.6,12.29,12.85v.85c0,8.2-5.58,12.85-12.29,12.85s-12.3-4.65-12.3-12.85v-.85C2671.57,590.26,2677.2,585.66,2683.87,585.66Zm0,22.65c5.23,0,7.75-4.14,7.75-9.4s-2.52-9.4-7.75-9.4-7.75,4.1-7.75,9.4S2678.63,608.31,2683.87,608.31Zm-6.52-26.65,10.76-7.1,2.27,4.05-11.6,5.65Z"/><path class="cls-6" d="M2707.61,611.42h-4.49v-25h3.35l.89,3h.1a8.9,8.9,0,0,1,7.26-3.7,9,9,0,0,1,7,2.65c1.48,1.55,2.27,4,2.27,7.05v16.06h-4.45V596.16c0-2.55-.44-4-1.43-5a5.76,5.76,0,0,0-4.19-1.5,6.15,6.15,0,0,0-4.89,2c-.94,1-1.38,2.65-1.38,5.15Z"/><path class="cls-6" d="M2738.56,608.76a3.22,3.22,0,0,1-6.42,0v-.14a3.22,3.22,0,0,1,6.42,0Z"/><text class="cls-17" transform="translate(193.6 1680.63)">TENDENCIAS DE LAS PR<tspan class="cls-18" x="786.93" y="0">E</tspan><tspan class="cls-19" x="826.2" y="0">CIPI</tspan><tspan class="cls-20" x="964.94" y="0">T</tspan><tspan class="cls-21" x="1000.99" y="0">A</tspan><tspan class="cls-19" x="1048.52" y="0">CIONES </tspan><tspan class="cls-22" x="1321.09" y="0">P</tspan><tspan x="1361.27" y="0">ARA </tspan><tspan class="cls-23" x="1517.44" y="0">V</tspan><tspan class="cls-24" x="1558.88" y="0">AL</tspan><tspan class="cls-22" x="1646.03" y="0">P</tspan><tspan x="1686.21" y="0">ARAÍSO</tspan></text><text class="cls-25" transform="translate(194.62 1819.79) scale(0.99 1)">A consecuencia del d<tspan class="cls-26" x="494.54" y="0">é</tspan><tspan x="522.49" y="0">ficit de p</tspan><tspan class="cls-27" x="726.34" y="0">r</tspan><tspan x="744.74" y="0">ecipitacione</tspan><tspan class="cls-26" x="1036.08" y="0">s</tspan><tspan x="1060.23" y="0">, se ha </tspan><tspan x="0" y="70">obse</tspan><tspan class="cls-28" x="116.6" y="70">r</tspan><tspan class="cls-29" x="136.5" y="70">v</tspan><tspan x="161.85" y="70">ado una disminución importa</tspan><tspan class="cls-30" x="830.09" y="70">n</tspan><tspan class="cls-27" x="858.14" y="70">t</tspan><tspan class="cls-31" x="877.69" y="70">e en la cubierta de </tspan><tspan x="0" y="140">ni</tspan><tspan class="cls-32" x="41.35" y="140">ev</tspan><tspan x="94.9" y="140">e y </tspan><tspan class="cls-27" x="168.15" y="140">l</tspan><tspan x="182.9" y="140">luvia en las </tspan><tspan class="cls-27" x="445.14" y="140">z</tspan><tspan x="469.54" y="140">onas de mo</tspan><tspan class="cls-33" x="734.64" y="140">n</tspan><tspan x="762.69" y="140">taña, t</tspan><tspan class="cls-32" x="911.28" y="140">r</tspan><tspan class="cls-27" x="929.43" y="140">a</tspan><tspan class="cls-32" x="956.18" y="140">y</tspan><tspan class="cls-31" x="981.13" y="140">endo como </tspan><tspan x="0" y="210">consecuencia escas</tspan><tspan class="cls-27" x="469.59" y="210">e</tspan><tspan x="498.04" y="210">z de agua pa</tspan><tspan class="cls-34" x="780.84" y="210">r</tspan><tspan x="798.99" y="210">a el consumo human</tspan><tspan class="cls-35" x="1269.23" y="210">o</tspan><tspan x="1298.88" y="210">, </tspan></text><text class="cls-36" transform="translate(1653.56 1814.4) scale(0.99 1)"><tspan class="cls-37">animal y pa</tspan><tspan class="cls-32" x="257.6" y="0">r</tspan><tspan class="cls-37" x="275.75" y="0">a el ri</tspan><tspan class="cls-34" x="397.14" y="0">e</tspan><tspan class="cls-35" x="425.34" y="0">go</tspan><tspan class="cls-37" x="481.79" y="0">, además de un aume</tspan><tspan class="cls-30" x="962.93" y="0">n</tspan><tspan x="990.98" y="0">t</tspan><tspan class="cls-37" x="1010.53" y="0">o de incendios </tspan><tspan class="cls-38" x="0" y="70">f</tspan><tspan class="cls-37" x="18.8" y="70">o</tspan><tspan class="cls-27" x="49.45" y="70">r</tspan><tspan class="cls-37" x="67.85" y="70">e</tspan><tspan class="cls-32" x="96.8" y="70">s</tspan><tspan class="cls-31" x="121.2" y="70">ta</tspan><tspan class="cls-32" x="168.5" y="70">l</tspan><tspan class="cls-37" x="183" y="70">es y urbano</tspan><tspan class="cls-26" x="446.74" y="70">s</tspan><tspan class="cls-37" x="470.89" y="70">. El futu</tspan><tspan class="cls-27" x="644.69" y="70">r</tspan><tspan class="cls-31" x="663.09" y="70">o p</tspan><tspan x="734.89" y="70">r</tspan><tspan class="cls-32" x="753.29" y="70">oy</tspan><tspan class="cls-37" x="808.14" y="70">ectado de las </tspan><tspan class="cls-37" x="0" y="140">p</tspan><tspan class="cls-27" x="31.85" y="140">r</tspan><tspan class="cls-37" x="50.25" y="140">ecipitacione</tspan><tspan class="cls-26" x="341.6" y="140">s</tspan><tspan class="cls-31" x="365.75" y="140">, también pa</tspan><tspan class="cls-27" x="651.79" y="140">r</tspan><tspan class="cls-37" x="670.19" y="140">ece p</tspan><tspan x="797.94" y="140">r</tspan><tspan class="cls-37" x="816.34" y="140">eocupa</tspan><tspan class="cls-30" x="991.54" y="140">n</tspan><tspan class="cls-27" x="1019.59" y="140">t</tspan><tspan class="cls-26" x="1039.14" y="140">e</tspan><tspan class="cls-37" x="1067.09" y="140">.</tspan></text><text class="cls-39" transform="translate(187.74 293.62)">PR<tspan class="cls-40" x="278.74" y="0">E</tspan><tspan x="399.96" y="0">CIPI</tspan><tspan class="cls-41" x="827.19" y="0">T</tspan><tspan class="cls-42" x="938.29" y="0">A</tspan><tspan x="1085.47" y="0">CIONES Y S</tspan><tspan class="cls-40" x="2237.15" y="0">E</tspan><tspan x="2358.37" y="0">QUÍA</tspan></text></svg>