<?xml version="1.0" encoding="utf-8"?>
<!-- Generator: Adobe Illustrator 25.2.0, SVG Export Plug-In . SVG Version: 6.00 Build 0)  -->
<svg version="1.1" xmlns="http://www.w3.org/2000/svg" xmlns:xlink="http://www.w3.org/1999/xlink" x="0px" y="0px"
	 viewBox="0 0 8503.9 4053.5" style="enable-background:new 0 0 8503.9 4053.5;" xml:space="preserve">
<style type="text/css">
	.st0{fill:#FFFFFF;}
	.st1{fill:#A7DAEA;}
	.st2{fill:#9AD5E2;}
	.st3{fill:#84CCD6;}
	.st4{fill:#C0C172;}
	.st5{fill:#F8BB26;}
	.st6{fill:#E6AF20;}
	.st7{fill:#D09822;}
	.st8{fill:#EE7555;}
	.st9{fill:#ED6D53;}
	.st10{fill:#DA6049;}
	.st11{fill:#9F6256;}
	.st12{fill:#5B5A5A;}
	.st13{fill:#2E2F2F;}
	.st14{fill:#030405;}
	.st15{fill:#C6C6C6;}
	.st16{fill:none;stroke:#ED6D53;stroke-width:5;stroke-linecap:round;stroke-linejoin:round;stroke-miterlimit:10;}
	.st17{clip-path:url(#SVGID_4_);}
	.st18{fill:none;stroke:#ED6D53;stroke-width:3;stroke-miterlimit:10;}
	.st19{fill:none;stroke:#000000;stroke-width:2.9087;stroke-miterlimit:10;}
	.st20{fill:none;stroke:#000000;stroke-width:2.9086;stroke-miterlimit:10;}
	.st21{fill:none;stroke:#000000;stroke-width:4.469;stroke-miterlimit:10;}
	.st22{fill:none;stroke:#000000;stroke-width:1.5;stroke-miterlimit:10;}
	.st23{fill:none;stroke:#000000;stroke-width:1.5;stroke-miterlimit:10;stroke-dasharray:4.9748,4.9748;}
	.st24{fill:none;stroke:#000000;stroke-width:1.5;stroke-miterlimit:10;stroke-dasharray:5.0049,5.0049;}
	.st25{fill:none;stroke:#000000;stroke-width:1.5;stroke-miterlimit:10;stroke-dasharray:5.0244,5.0244;}
	.st26{fill:none;stroke:#000000;stroke-width:1.5;stroke-miterlimit:10;stroke-dasharray:5.0102,5.0102;}
	.st27{fill:none;stroke:#000000;stroke-width:1.5;stroke-miterlimit:10;stroke-dasharray:4.9932,4.9932;}
	.st28{fill:none;stroke:#000000;stroke-width:1.5;stroke-miterlimit:10;stroke-dasharray:5.004,5.004;}
	.st29{fill:none;stroke:#000000;stroke-width:1.5;stroke-miterlimit:10;stroke-dasharray:5.0263,5.0263;}
	.st30{fill:none;stroke:#000000;stroke-width:1.5;stroke-miterlimit:10;stroke-dasharray:5.0095,5.0095;}
	.st31{fill:none;stroke:#000000;stroke-width:1.5;stroke-miterlimit:10;stroke-dasharray:5.0093,5.0093;}
	.st32{fill:none;stroke:#000000;stroke-width:1.5;stroke-miterlimit:10;stroke-dasharray:5.0126,5.0126;}
	.st33{fill:none;stroke:#000000;stroke-width:1.5;stroke-miterlimit:10;stroke-dasharray:4.977,4.977;}
	.st34{fill:none;stroke:#000000;stroke-width:1.5;stroke-miterlimit:10;stroke-dasharray:4.9834,4.9834;}
	.st35{fill:none;stroke:#000000;stroke-width:1.5;stroke-miterlimit:10;stroke-dasharray:4.9647,4.9647;}
	.st36{fill:none;stroke:#000000;stroke-width:1.5;stroke-miterlimit:10;stroke-dasharray:4.9577,4.9577;}
	.st37{fill:none;stroke:#000000;stroke-width:1.5;stroke-miterlimit:10;stroke-dasharray:4.9888,4.9888;}
	.st38{fill:none;stroke:#000000;stroke-width:1.5;stroke-miterlimit:10;stroke-dasharray:4.9866,4.9866;}
	.st39{fill:none;stroke:#000000;stroke-width:1.5;stroke-miterlimit:10;stroke-dasharray:5.0136,5.0136;}
	.st40{fill:none;stroke:#000000;stroke-width:1.5;stroke-miterlimit:10;stroke-dasharray:5.0347,5.0347;}
	.st41{fill:none;stroke:#000000;stroke-width:1.5;stroke-miterlimit:10;stroke-dasharray:4.9861,4.9861;}
	.st42{fill:none;stroke:#000000;stroke-width:1.5;stroke-miterlimit:10;stroke-dasharray:5.0227,5.0227;}
	.st43{fill:none;stroke:#000000;stroke-width:1.5;stroke-miterlimit:10;stroke-dasharray:5.057,5.057;}
	.st44{font-family:'Roboto-Black';}
	.st45{font-size:30px;}
	.st46{font-family:'Roboto-Regular';}
	.st47{fill:none;}
	.st48{font-family:'Oswald-SemiBold';}
	.st49{font-size:50px;}
	.st50{font-size:40px;}
	.st51{font-family:'Oswald-Bold';}
	.st52{font-size:230px;}
	.st53{font-family:'Oswald-Light';}
	.st54{font-size:100px;}
	.st55{font-size:32px;}
	.st56{font-family:'Roboto-Bold';}
</style>
<g id="fondo">
	<rect class="st0" width="8503.9" height="4053.5"/>
</g>
<g id="grafico">
	<g>
		<g>
			<rect x="179.1" y="1228.1" class="st1" width="38.8" height="1940.4"/>
			<rect x="218" y="1228.1" class="st1" width="38.8" height="1940.4"/>
			<rect x="256.8" y="1228.1" class="st1" width="38.8" height="1940.4"/>
			<rect x="295.5" y="1228.1" class="st1" width="38.8" height="1940.4"/>
			<rect x="334.3" y="1228.1" class="st1" width="38.8" height="1940.4"/>
			<rect x="373.1" y="1228.1" class="st1" width="38.8" height="1940.4"/>
			<rect x="411.9" y="1228.1" class="st1" width="38.8" height="1940.4"/>
			<rect x="450.7" y="1228.1" class="st1" width="38.8" height="1940.4"/>
			<rect x="489.5" y="1228.1" class="st1" width="38.8" height="1940.4"/>
			<rect x="528.3" y="1228.1" class="st1" width="38.8" height="1940.4"/>
			<rect x="567.1" y="1228.1" class="st1" width="38.8" height="1940.4"/>
			<rect x="605.8" y="1228.1" class="st1" width="38.8" height="1940.4"/>
			<rect x="644.6" y="1228.1" class="st1" width="38.8" height="1940.4"/>
			<rect x="683.4" y="1228.1" class="st1" width="38.8" height="1940.4"/>
			<rect x="722.2" y="1228.1" class="st2" width="38.8" height="1940.4"/>
			<rect x="761" y="1228.1" class="st2" width="38.8" height="1940.4"/>
			<rect x="799.8" y="1228.1" class="st2" width="38.8" height="1940.4"/>
			<rect x="838.6" y="1228.1" class="st2" width="38.8" height="1940.4"/>
			<rect x="877.3" y="1228.1" class="st2" width="38.8" height="1940.4"/>
			<rect x="916.1" y="1228.1" class="st2" width="38.8" height="1940.4"/>
			<rect x="954.9" y="1228.1" class="st2" width="38.8" height="1940.4"/>
			<rect x="993.7" y="1228.1" class="st2" width="38.8" height="1940.4"/>
			<rect x="1032.5" y="1228.1" class="st2" width="38.8" height="1940.4"/>
			<rect x="1071.3" y="1228.1" class="st2" width="38.8" height="1940.4"/>
			<rect x="1110.1" y="1228.1" class="st2" width="38.8" height="1940.4"/>
			<rect x="1148.9" y="1228.1" class="st2" width="38.8" height="1940.4"/>
			<rect x="1187.6" y="1228.1" class="st2" width="38.8" height="1940.4"/>
			<rect x="1226.4" y="1228.1" class="st2" width="38.8" height="1940.4"/>
			<rect x="1265.3" y="1228.1" class="st2" width="38.8" height="1940.4"/>
			<rect x="1304" y="1228.1" class="st2" width="38.8" height="1940.4"/>
			<rect x="1342.8" y="1228.1" class="st2" width="38.8" height="1940.4"/>
			<rect x="1381.6" y="1228.1" class="st2" width="38.8" height="1940.4"/>
			<rect x="1420.4" y="1228.1" class="st2" width="38.8" height="1940.4"/>
			<rect x="1459.2" y="1228.1" class="st2" width="38.8" height="1940.4"/>
			<rect x="1497.9" y="1228.1" class="st2" width="38.8" height="1940.4"/>
			<rect x="1536.8" y="1228.1" class="st2" width="38.8" height="1940.4"/>
			<rect x="1575.6" y="1228.1" class="st2" width="38.8" height="1940.4"/>
			<rect x="1614.3" y="1228.1" class="st2" width="38.8" height="1940.4"/>
			<rect x="1653.1" y="1228.1" class="st2" width="38.8" height="1940.4"/>
			<rect x="1691.9" y="1228.1" class="st2" width="38.8" height="1940.4"/>
			<rect x="1730.7" y="1228.1" class="st2" width="38.8" height="1940.4"/>
			<rect x="1769.5" y="1228.1" class="st2" width="38.8" height="1940.4"/>
			<rect x="1808.2" y="1228.1" class="st2" width="38.8" height="1940.4"/>
			<rect x="1847.1" y="1228.1" class="st2" width="38.8" height="1940.4"/>
			<rect x="1885.9" y="1228.1" class="st2" width="38.8" height="1940.4"/>
			<rect x="1924.6" y="1228.1" class="st2" width="38.8" height="1940.4"/>
			<rect x="1963.4" y="1228.1" class="st2" width="38.8" height="1940.4"/>
			<rect x="2002.2" y="1228.1" class="st2" width="38.8" height="1940.4"/>
			<rect x="2041" y="1228.1" class="st2" width="38.8" height="1940.4"/>
			<rect x="2079.8" y="1228.1" class="st2" width="38.8" height="1940.4"/>
			<rect x="2118.6" y="1228.1" class="st2" width="38.8" height="1940.4"/>
			<rect x="2157.4" y="1228.1" class="st2" width="38.8" height="1940.4"/>
			<rect x="2196.2" y="1228.1" class="st2" width="38.8" height="1940.4"/>
			<rect x="2234.9" y="1228.1" class="st2" width="38.8" height="1940.4"/>
			<rect x="2273.7" y="1228.1" class="st2" width="38.8" height="1940.4"/>
			<rect x="2312.5" y="1228.1" class="st2" width="38.8" height="1940.4"/>
			<rect x="2351.3" y="1228.1" class="st2" width="38.8" height="1940.4"/>
			<rect x="2390.1" y="1228.1" class="st2" width="38.8" height="1940.4"/>
			<rect x="2428.9" y="1228.1" class="st2" width="38.8" height="1940.4"/>
			<rect x="2467.7" y="1228.1" class="st2" width="38.8" height="1940.4"/>
			<rect x="2506.4" y="1228.1" class="st2" width="38.8" height="1940.4"/>
			<rect x="2545.2" y="1228.1" class="st3" width="38.8" height="1940.4"/>
			<rect x="2584.1" y="1228.1" class="st2" width="38.8" height="1940.4"/>
			<rect x="2622.8" y="1228.1" class="st2" width="38.8" height="1940.4"/>
			<rect x="2661.6" y="1228.1" class="st2" width="38.8" height="1940.4"/>
			<rect x="2700.4" y="1228.1" class="st2" width="38.8" height="1940.4"/>
			<rect x="2739.2" y="1228.1" class="st2" width="38.8" height="1940.4"/>
			<rect x="2778" y="1228.1" class="st2" width="38.8" height="1940.4"/>
			<rect x="2816.7" y="1228.1" class="st2" width="38.8" height="1940.4"/>
			<rect x="2855.5" y="1228.1" class="st2" width="38.8" height="1940.4"/>
			<rect x="2894.4" y="1228.1" class="st3" width="38.8" height="1940.4"/>
			<rect x="2933.1" y="1228.1" class="st2" width="38.8" height="1940.4"/>
			<rect x="2971.9" y="1228.1" class="st2" width="38.8" height="1940.4"/>
			<rect x="3010.7" y="1228.1" class="st2" width="38.8" height="1940.4"/>
			<rect x="3049.5" y="1228.1" class="st3" width="38.8" height="1940.4"/>
			<rect x="3088.3" y="1228.1" class="st3" width="38.8" height="1940.4"/>
			<rect x="3127" y="1228.1" class="st3" width="38.8" height="1940.4"/>
			<rect x="3165.9" y="1228.1" class="st2" width="38.8" height="1940.4"/>
			<rect x="3204.7" y="1228.1" class="st3" width="38.8" height="1940.4"/>
			<rect x="3243.4" y="1228.1" class="st3" width="38.8" height="1940.4"/>
			<rect x="3282.2" y="1228.1" class="st3" width="38.8" height="1940.4"/>
			<rect x="3321" y="1228.1" class="st3" width="38.8" height="1940.4"/>
			<rect x="3359.8" y="1228.1" class="st3" width="38.8" height="1940.4"/>
			<rect x="3398.6" y="1228.1" class="st3" width="38.8" height="1940.4"/>
			<rect x="3437.4" y="1228.1" class="st3" width="38.8" height="1940.4"/>
			<rect x="3476.2" y="1228.1" class="st3" width="38.8" height="1940.4"/>
			<rect x="3515" y="1228.1" class="st3" width="38.8" height="1940.4"/>
			<rect x="3553.7" y="1228.1" class="st3" width="38.8" height="1940.4"/>
			<rect x="3592.5" y="1228.1" class="st3" width="38.8" height="1940.4"/>
			<rect x="3631.3" y="1228.1" class="st3" width="38.8" height="1940.4"/>
			<rect x="3670.1" y="1228.1" class="st3" width="38.8" height="1940.4"/>
			<rect x="3708.9" y="1228.1" class="st3" width="38.8" height="1940.4"/>
			<rect x="3747.7" y="1228.1" class="st3" width="38.8" height="1940.4"/>
			<rect x="3786.5" y="1228.1" class="st3" width="38.8" height="1940.4"/>
			<rect x="3825.2" y="1228.1" class="st3" width="38.8" height="1940.4"/>
			<rect x="3864" y="1228.1" class="st3" width="38.8" height="1940.4"/>
			<rect x="3902.8" y="1228.1" class="st3" width="38.8" height="1940.4"/>
			<rect x="3941.6" y="1228.1" class="st3" width="38.8" height="1940.4"/>
			<rect x="3980.4" y="1228.1" class="st3" width="38.8" height="1940.4"/>
			<rect x="4019.2" y="1228.1" class="st3" width="38.8" height="1940.4"/>
			<rect x="4058" y="1228.1" class="st3" width="38.8" height="1940.4"/>
			<rect x="4096.8" y="1228.1" class="st3" width="38.8" height="1940.4"/>
			<rect x="4135.5" y="1228.1" class="st3" width="38.8" height="1940.4"/>
			<rect x="4174.3" y="1228.1" class="st3" width="38.8" height="1940.4"/>
			<rect x="4213.2" y="1228.1" class="st4" width="38.8" height="1940.4"/>
			<rect x="4251.9" y="1228.1" class="st4" width="38.8" height="1940.4"/>
			<rect x="4290.7" y="1228.1" class="st4" width="38.8" height="1940.4"/>
			<rect x="4329.5" y="1228.1" class="st3" width="38.8" height="1940.4"/>
			<rect x="4368.3" y="1228.1" class="st4" width="38.8" height="1940.4"/>
			<rect x="4407.1" y="1228.1" class="st4" width="38.8" height="1940.4"/>
			<rect x="4445.8" y="1228.1" class="st4" width="38.8" height="1940.4"/>
			<rect x="4484.7" y="1228.1" class="st4" width="38.8" height="1940.4"/>
			<rect x="4523.5" y="1228.1" class="st4" width="38.8" height="1940.4"/>
			<rect x="4562.2" y="1228.1" class="st4" width="38.8" height="1940.4"/>
			<rect x="4601" y="1228.1" class="st4" width="38.8" height="1940.4"/>
			<rect x="4639.8" y="1228.1" class="st4" width="38.8" height="1940.4"/>
			<rect x="4678.6" y="1228.1" class="st4" width="38.8" height="1940.4"/>
			<rect x="4717.4" y="1228.1" class="st4" width="38.8" height="1940.4"/>
			<rect x="4756.1" y="1228.1" class="st4" width="38.8" height="1940.4"/>
			<rect x="4795" y="1228.1" class="st4" width="38.8" height="1940.4"/>
			<rect x="4833.8" y="1228.1" class="st4" width="38.8" height="1940.4"/>
			<rect x="4872.5" y="1228.1" class="st4" width="38.8" height="1940.4"/>
			<rect x="4911.3" y="1228.1" class="st4" width="38.8" height="1940.4"/>
			<rect x="4950.1" y="1228.1" class="st4" width="38.8" height="1940.4"/>
			<rect x="4988.9" y="1228.1" class="st4" width="38.8" height="1940.4"/>
			<rect x="5027.7" y="1228.1" class="st4" width="38.8" height="1940.4"/>
			<rect x="5066.5" y="1228.1" class="st4" width="38.8" height="1940.4"/>
			<rect x="5105.3" y="1228.1" class="st4" width="38.8" height="1940.4"/>
			<rect x="5144.1" y="1228.1" class="st4" width="38.8" height="1940.4"/>
			<rect x="5182.8" y="1228.1" class="st4" width="38.8" height="1940.4"/>
			<rect x="5221.6" y="1228.1" class="st4" width="38.8" height="1940.4"/>
			<rect x="5260.4" y="1228.1" class="st4" width="38.8" height="1940.4"/>
			<rect x="5299.2" y="1228.1" class="st4" width="38.8" height="1940.4"/>
			<rect x="5338" y="1228.1" class="st4" width="38.8" height="1940.4"/>
			<rect x="5376.8" y="1228.1" class="st4" width="38.8" height="1940.4"/>
			<rect x="5415.6" y="1228.1" class="st4" width="38.8" height="1940.4"/>
			<rect x="5454.3" y="1228.1" class="st4" width="38.8" height="1940.4"/>
			<rect x="5493.1" y="1228.1" class="st4" width="38.8" height="1940.4"/>
			<rect x="5532" y="1228.1" class="st4" width="38.8" height="1940.4"/>
			<rect x="5570.7" y="1228.1" class="st4" width="38.8" height="1940.4"/>
			<rect x="5609.5" y="1228.1" class="st4" width="38.8" height="1940.4"/>
			<rect x="5648.3" y="1228.1" class="st4" width="38.8" height="1940.4"/>
			<rect x="5687.1" y="1228.1" class="st5" width="38.8" height="1940.4"/>
			<rect x="5725.9" y="1228.1" class="st5" width="38.8" height="1940.4"/>
			<rect x="5764.6" y="1228.1" class="st5" width="38.8" height="1940.4"/>
			<rect x="5803.4" y="1228.1" class="st5" width="38.8" height="1940.4"/>
			<rect x="5842.3" y="1228.1" class="st5" width="38.8" height="1940.4"/>
			<rect x="5881" y="1228.1" class="st5" width="38.8" height="1940.4"/>
			<rect x="5919.8" y="1228.1" class="st5" width="38.8" height="1940.4"/>
			<rect x="5958.6" y="1228.1" class="st5" width="38.8" height="1940.4"/>
			<rect x="5997.4" y="1228.1" class="st5" width="38.8" height="1940.4"/>
			<rect x="6036.2" y="1228.1" class="st5" width="38.8" height="1940.4"/>
			<rect x="6074.9" y="1228.1" class="st5" width="38.8" height="1940.4"/>
			<rect x="6113.8" y="1228.1" class="st5" width="38.8" height="1940.4"/>
			<rect x="6152.6" y="1228.1" class="st5" width="38.8" height="1940.4"/>
			<rect x="6191.3" y="1228.1" class="st5" width="38.8" height="1940.4"/>
			<rect x="6230.1" y="1228.1" class="st6" width="38.8" height="1940.4"/>
			<rect x="6268.9" y="1228.1" class="st6" width="38.8" height="1940.4"/>
			<rect x="6307.7" y="1228.1" class="st6" width="38.8" height="1940.4"/>
			<rect x="6346.5" y="1228.1" class="st6" width="38.8" height="1940.4"/>
			<rect x="6385.3" y="1228.1" class="st6" width="38.8" height="1940.4"/>
			<rect x="6424.1" y="1228.1" class="st6" width="38.8" height="1940.4"/>
			<rect x="6462.9" y="1228.1" class="st6" width="38.8" height="1940.4"/>
			<rect x="6501.6" y="1228.1" class="st6" width="38.8" height="1940.4"/>
			<rect x="6540.4" y="1228.1" class="st6" width="38.8" height="1940.4"/>
			<rect x="6579.2" y="1228.1" class="st7" width="38.8" height="1940.4"/>
			<rect x="6618" y="1228.1" class="st7" width="38.8" height="1940.4"/>
			<rect x="6656.8" y="1228.1" class="st7" width="38.8" height="1940.4"/>
			<rect x="6695.6" y="1228.1" class="st7" width="38.8" height="1940.4"/>
			<rect x="6734.4" y="1228.1" class="st7" width="38.8" height="1940.4"/>
			<rect x="6773.2" y="1228.1" class="st7" width="38.8" height="1940.4"/>
			<rect x="6811.9" y="1228.1" class="st7" width="38.8" height="1940.4"/>
			<rect x="6850.7" y="1228.1" class="st8" width="38.8" height="1940.4"/>
			<rect x="6889.5" y="1228.1" class="st8" width="38.8" height="1940.4"/>
			<rect x="6928.3" y="1228.1" class="st8" width="38.8" height="1940.4"/>
			<rect x="6967.1" y="1228.1" class="st8" width="38.8" height="1940.4"/>
			<rect x="7005.9" y="1228.1" class="st8" width="38.8" height="1940.4"/>
			<rect x="7044.7" y="1228.1" class="st8" width="38.8" height="1940.4"/>
			<rect x="7083.4" y="1228.1" class="st8" width="38.8" height="1940.4"/>
			<rect x="7122.2" y="1228.1" class="st9" width="38.8" height="1940.4"/>
			<rect x="7161.1" y="1228.1" class="st9" width="38.8" height="1940.4"/>
			<rect x="7199.8" y="1228.1" class="st9" width="38.8" height="1940.4"/>
			<rect x="7238.6" y="1228.1" class="st9" width="38.8" height="1940.4"/>
			<rect x="7277.4" y="1228.1" class="st9" width="38.8" height="1940.4"/>
			<rect x="7316.2" y="1228.1" class="st9" width="38.8" height="1940.4"/>
			<rect x="7355" y="1228.1" class="st10" width="38.8" height="1940.4"/>
			<rect x="7393.7" y="1228.1" class="st10" width="38.8" height="1940.4"/>
			<rect x="7432.6" y="1228.1" class="st10" width="38.8" height="1940.4"/>
			<rect x="7471.4" y="1228.1" class="st10" width="38.8" height="1940.4"/>
			<rect x="7510.1" y="1228.1" class="st10" width="38.8" height="1940.4"/>
			<rect x="7548.9" y="1228.1" class="st10" width="38.8" height="1940.4"/>
			<rect x="7587.7" y="1228.1" class="st11" width="38.8" height="1940.4"/>
			<rect x="7626.5" y="1228.1" class="st11" width="38.8" height="1940.4"/>
			<rect x="7665.3" y="1228.1" class="st11" width="38.8" height="1940.4"/>
			<rect x="7704" y="1228.1" class="st11" width="38.8" height="1940.4"/>
			<rect x="7742.9" y="1228.1" class="st11" width="38.8" height="1940.4"/>
			<rect x="7781.7" y="1228.1" class="st11" width="38.8" height="1940.4"/>
			<rect x="7820.4" y="1228.1" class="st12" width="38.8" height="1940.4"/>
			<rect x="7859.2" y="1228.1" class="st12" width="38.8" height="1940.4"/>
			<rect x="7898" y="1228.1" class="st12" width="38.8" height="1940.4"/>
			<rect x="7936.8" y="1228.1" class="st12" width="38.8" height="1940.4"/>
			<rect x="7975.6" y="1228.1" class="st13" width="38.8" height="1940.4"/>
			<rect x="8014.4" y="1228.1" class="st13" width="38.8" height="1940.4"/>
			<rect x="8053.2" y="1228.1" class="st13" width="38.8" height="1940.4"/>
			<rect x="8092" y="1228.1" class="st13" width="38.8" height="1940.4"/>
			<rect x="8130.7" y="1228.1" class="st13" width="38.8" height="1940.4"/>
			<rect x="8169.5" y="1228.1" class="st14" width="38.8" height="1940.4"/>
			<rect x="8208.3" y="1228.1" class="st14" width="38.8" height="1940.4"/>
			<rect x="8247.1" y="1228.1" class="st14" width="38.8" height="1940.4"/>
			<rect x="8285.9" y="1228.1" class="st14" width="38.8" height="1940.4"/>
		</g>
	</g>
</g>
<g id="elementos">
	<rect x="3051" y="687" class="st15" width="772.8" height="375.3"/>
	<rect x="3848.7" y="3489.9" class="st15" width="772.8" height="375.3"/>
	<g>
		<g>
			<g>
				<g>
					<path class="st16" d="M6699.9,3716.8c0,0-31.2-30.1-41.3-63.6h-21.9c-10,33.5-41.3,63.6-41.3,63.6"/>
					<path class="st16" d="M6680.1,3716.8c0,0-3.9-6.1-8.8-15.9"/>
					<path class="st16" d="M6639.6,3692.5c-2.7,14.6-5.3,24.3-5.3,24.3"/>
					<path class="st16" d="M6653.9,3644.2c0-14.7,11.3-26.6,25.2-26.6"/>
					<path class="st16" d="M6643,3644.2c-2-6.2-6-11.2-10.9-14.3"/>
					<path class="st16" d="M6640.4,3618c-5.4-4.9-12.8-7.3-20.3-6.1"/>
					<path class="st16" d="M6672.4,3603.4c-7.1,0.9-13.8,4.9-18.1,11.6"/>
					<line class="st16" x1="6611.6" y1="3614.2" x2="6611.6" y2="3614.2"/>
					<line class="st16" x1="6626.6" y1="3627.7" x2="6626.6" y2="3627.7"/>
					<line class="st16" x1="6671.1" y1="3632" x2="6671.1" y2="3632"/>
					<line class="st16" x1="6687.3" y1="3619.4" x2="6687.3" y2="3619.4"/>
					<line class="st16" x1="6680" y1="3603.4" x2="6680" y2="3603.4"/>
					<line class="st16" x1="6646.2" y1="3624.6" x2="6646.2" y2="3624.6"/>
				</g>
				<path class="st16" d="M6629.2,3671.6c0,0,1.4,1.8,3.1,4.1s4.5,2.3,6.1,0s4.5-2.3,6.1,0s4.5,2.3,6.1,0s4.5-2.3,6.1,0
					c1.7,2.3,4.5,2.3,6.2,0c1.7-2.3,3.1-4.1,3.1-4.1"/>
			</g>
		</g>
	</g>
	<g>
		<g>
			<g>
				<g>
					<g>
						<g id="XMLID_00000153669639738099197500000006525856571928547982_">
							<g id="XMLID_00000032611538327765479750000012661356025008466326_">
								<g id="XMLID_00000109030560520683712630000005959135182598598806_">
									<polygon id="XMLID_00000008854694176656796080000000475694574417410494_" class="st16" points="5401.2,887.9 5419.5,873.7 
										5419.5,887.9 5437.9,873.7 5437.9,913.9 5387.5,913.9 5387.5,887.9 									"/>
									<g id="XMLID_00000085211864592824301590000006356141929799741885_">
										
											<line id="XMLID_00000156558172851282138670000004687675079645392516_" class="st16" x1="5423.5" y1="902.1" x2="5423.5" y2="898"/>
										
											<line id="XMLID_00000057846132516170714770000008703403266569757355_" class="st16" x1="5409.1" y1="902.1" x2="5409.1" y2="898"/>
									</g>
								</g>
							</g>
							<polyline id="XMLID_00000126286278825523474880000000936375759440881315_" class="st16" points="5387.5,887.2 5387.5,854.4 
								5372.8,854.4 5372.8,913.9 5387.5,913.9 							"/>
						</g>
					</g>
					
						<line id="XMLID_00000079463498051652993940000018105403003331548590_" class="st16" x1="5387.5" y1="865.3" x2="5372.8" y2="865.3"/>
				</g>
				<path class="st16" d="M5373.9,847.6V839c-0.1-2.4,1.2-4.8,3.5-6c0.3-0.2,0.7-0.3,1-0.4c-1.1-3.9,0.7-8.2,4.5-10.1
					c1.5-0.8,3-1,4.5-1c-0.3-3.5,1.4-7,4.7-8.7c2.8-1.4,5.9-1.2,8.5,0.2c-0.5-4.5,1.8-9.1,6.1-11.3c4.8-2.5,10.6-1.2,14,2.8
					c0.9-0.7,1.8-1.3,2.8-1.8c8.1-4.2,18.1-1,22.3,7.1c4.2,8.1,1,18.1-7.1,22.3c-4.9,2.5-10.5,2.4-15.1,0c-0.9,2.1-2.4,4-4.6,5.1
					c-4.8,2.5-10.8,0.6-13.3-4.2c-0.1-0.2-0.2-0.5-0.3-0.7c-0.5,1.6-1.6,3-3.2,3.9c-2.6,1.3-5.6,0.8-7.6-1.2c-0.8,1.3-2,2.5-3.5,3.2
					c-1.3,0.7-2.7,1-4.1,1c-0.1,2.2-1.4,4.3-3.5,5.4v3.1"/>
			</g>
		</g>
	</g>
	<g>
		<g>
			<g>
				<polyline class="st16" points="6143.5,3713.8 6107.6,3659.6 6085.1,3659.6 6049.2,3713.8 				"/>
			</g>
			<line class="st16" x1="6107.7" y1="3653.2" x2="6132.6" y2="3646.2"/>
			<line class="st16" x1="6116.5" y1="3642.3" x2="6130.7" y2="3631.9"/>
			<line class="st16" x1="6088" y1="3653.2" x2="6063.1" y2="3646.2"/>
			<line class="st16" x1="6079.2" y1="3642.3" x2="6064.9" y2="3631.9"/>
			<polyline class="st16" points="6076.4,3674 6083.1,3682 6089.7,3674 6096.3,3682 6103,3674 6109.6,3682 6116.3,3674 			"/>
			<g>
				<g>
					<path class="st16" d="M6100.6,3644.5v-6.1c0-2.2,1.8-4,4-4l0.6,0c0,0,8.6-0.9,9.8-8.2c0,0,6.4-1.3,6.4-7.9
						c0-2.8-1.5-5.2-3.8-6.6c0.1-0.4,0.1-0.8,0.1-1.2c-0.1-4.3-3.6-7.7-8-7.7c-3.1,0-5.9,2.8-5.9,2.8c-1-3-3.9-5.1-7.2-5
						c-3.9,0-7.2,3.2-7.5,7c-0.1,1.3,0.2,2.6,0.7,3.7c-1.3-0.3-2.7-0.3-4.1,0c-4.3,0.9-7.5,4.5-7.9,8.9c-0.5,5.9,4.1,10.8,9.9,10.8
						h1.7c2.2,0,4,1.8,4,4v9.7"/>
				</g>
			</g>
		</g>
	</g>
	<g>
		<g>
			<g>
				<g>
					<path class="st16" d="M7404.8,909.8c0,0-31.2-30.1-41.3-63.6h-21.9c-10,33.5-41.3,63.6-41.3,63.6"/>
					<path class="st16" d="M7384.9,909.8c0,0-3.9-6.1-8.8-15.9"/>
					<path class="st16" d="M7344.5,885.4c-2.7,14.6-5.3,24.3-5.3,24.3"/>
					<path class="st16" d="M7358.7,837.1c0-14.7,11.3-26.6,25.2-26.6"/>
					<path class="st16" d="M7347.8,837.1c-2-6.2-6-11.2-10.9-14.3"/>
					<path class="st16" d="M7345.3,811c-5.4-4.9-12.8-7.3-20.3-6.1"/>
					<path class="st16" d="M7377.2,796.4c-7.1,0.9-13.8,4.9-18.1,11.6"/>
					<line class="st16" x1="7316.4" y1="807.1" x2="7316.4" y2="807.1"/>
					<line class="st16" x1="7331.5" y1="820.7" x2="7331.5" y2="820.7"/>
					<line class="st16" x1="7375.9" y1="824.9" x2="7375.9" y2="824.9"/>
					<line class="st16" x1="7392.1" y1="812.4" x2="7392.1" y2="812.4"/>
					<line class="st16" x1="7384.9" y1="796.4" x2="7384.9" y2="796.4"/>
					<line class="st16" x1="7351.1" y1="817.6" x2="7351.1" y2="817.6"/>
				</g>
				<path class="st16" d="M7334,864.6c0,0,1.4,1.8,3.1,4.1c1.7,2.3,4.5,2.3,6.1,0c1.7-2.3,4.5-2.3,6.1,0c1.7,2.3,4.5,2.3,6.1,0
					c1.7-2.3,4.5-2.3,6.1,0c1.7,2.3,4.5,2.3,6.2,0c1.7-2.3,3.1-4.1,3.1-4.1"/>
			</g>
		</g>
	</g>
	<g>
		<g>
			<g>
				<polyline class="st16" points="6372.2,913.8 6336.4,859.6 6313.8,859.6 6278,913.8 				"/>
			</g>
			<line class="st16" x1="6336.4" y1="853.1" x2="6361.3" y2="846.1"/>
			<line class="st16" x1="6345.2" y1="842.2" x2="6359.5" y2="831.9"/>
			<line class="st16" x1="6316.7" y1="853.1" x2="6291.8" y2="846.1"/>
			<line class="st16" x1="6307.9" y1="842.2" x2="6293.6" y2="831.9"/>
			<polyline class="st16" points="6305.2,873.9 6311.8,882 6318.4,873.9 6325.1,882 6331.7,873.9 6338.4,882 6345,873.9 			"/>
			<g>
				<g>
					<path class="st16" d="M6329.3,844.5v-6.1c0-2.2,1.8-4,4-4l0.6,0c0,0,8.6-0.9,9.8-8.2c0,0,6.4-1.3,6.4-7.9
						c0-2.8-1.5-5.2-3.8-6.6c0.1-0.4,0.1-0.8,0.1-1.2c-0.1-4.3-3.6-7.7-8-7.7c-3.1,0-5.9,2.8-5.9,2.8c-1-3-3.9-5.1-7.2-5
						c-3.9,0-7.2,3.2-7.5,7c-0.1,1.3,0.2,2.6,0.7,3.7c-1.3-0.3-2.7-0.3-4.1,0c-4.3,0.9-7.5,4.5-7.9,8.9c-0.5,5.9,4.1,10.8,9.9,10.8
						h1.7c2.2,0,4,1.8,4,4v9.7"/>
				</g>
			</g>
		</g>
	</g>
	<g>
		<g>
			<g>
				<polyline class="st16" points="7985.9,912.8 7950.1,858.6 7927.5,858.6 7891.7,912.8 				"/>
			</g>
			<line class="st16" x1="7950.1" y1="852.1" x2="7975" y2="845.1"/>
			<line class="st16" x1="7958.9" y1="841.2" x2="7973.2" y2="830.9"/>
			<line class="st16" x1="7930.4" y1="852.1" x2="7905.5" y2="845.1"/>
			<line class="st16" x1="7921.6" y1="841.2" x2="7907.3" y2="830.9"/>
			<polyline class="st16" points="7918.9,872.9 7925.5,881 7932.1,872.9 7938.8,881 7945.4,872.9 7952.1,881 7958.7,872.9 			"/>
			<g>
				<g>
					<path class="st16" d="M7943,843.5v-6.1c0-2.2,1.8-4,4-4l0.6,0c0,0,8.6-0.9,9.8-8.2c0,0,6.4-1.3,6.4-7.9c0-2.8-1.5-5.2-3.8-6.6
						c0.1-0.4,0.1-0.8,0.1-1.2c-0.1-4.3-3.6-7.7-8-7.7c-3.1,0-5.9,2.8-5.9,2.8c-1-3-3.9-5.1-7.2-5c-3.9,0-7.2,3.2-7.5,7
						c-0.1,1.3,0.2,2.6,0.7,3.7c-1.3-0.3-2.7-0.3-4.1,0c-4.3,0.9-7.5,4.5-7.9,8.9c-0.5,5.9,4.1,10.8,9.9,10.8h1.7c2.2,0,4,1.8,4,4
						v9.7"/>
				</g>
			</g>
		</g>
	</g>
	<g>
		<g>
			<g>
				<defs>
					<path id="SVGID_1_" d="M7794.5,3627.1c0,12.3,8.2,26.7,14.9,42.1c6.7,15.4,3.6,23.6-9.2,23.6h-29.7c-12.8,0-15.9-8.2-9.2-23.6
						c6.7-15.4,14.9-29.8,14.9-42.1"/>
				</defs>
				<clipPath id="SVGID_2_">
					<use xlink:href="#SVGID_1_"  style="overflow:visible;"/>
				</clipPath>
			</g>
		</g>
		<g>
			<g>
				<defs>
					<path id="SVGID_3_" d="M7794.5,3627.1c0,12.3,8.2,26.7,14.9,42.1c6.7,15.4,3.6,23.6-9.2,23.6h-29.7c-12.8,0-15.9-8.2-9.2-23.6
						c6.7-15.4,14.9-29.8,14.9-42.1"/>
				</defs>
				<clipPath id="SVGID_4_">
					<use xlink:href="#SVGID_3_"  style="overflow:visible;"/>
				</clipPath>
				<g class="st17">
					<line class="st16" x1="7788.7" y1="3629.4" x2="7761.8" y2="3656.3"/>
					<line class="st16" x1="7800.1" y1="3629.4" x2="7757.4" y2="3672.1"/>
					<line class="st16" x1="7811.5" y1="3629.4" x2="7758.6" y2="3682.3"/>
					<line class="st16" x1="7822.9" y1="3629.4" x2="7756.8" y2="3695.4"/>
					<line class="st16" x1="7834.3" y1="3629.4" x2="7768.2" y2="3695.4"/>
					<line class="st16" x1="7845.7" y1="3629.4" x2="7779.6" y2="3695.4"/>
					<line class="st16" x1="7857.1" y1="3629.4" x2="7791" y2="3695.4"/>
				</g>
				
					<use xlink:href="#SVGID_3_"  style="overflow:visible;fill:none;stroke:#ED6D53;stroke-width:5;stroke-linecap:round;stroke-linejoin:round;stroke-miterlimit:10;"/>
			</g>
			<g>
				<path class="st16" d="M7852.7,3675.7c0,3.6-2.9,6.5-6.5,6.5c-3.6,0-6.5-2.9-6.5-6.5c0-3.6,6.5-12.6,6.5-12.6
					S7852.7,3672.1,7852.7,3675.7z"/>
				<path class="st16" d="M7871.1,3642.5h-5.1c0,0,0,36.4,0,41.6c0,5.1-1.1,8.7-7.2,8.7c-10.3,0-12.8,0-12.8,0s-2.6,0-12.8,0
					c-6.1,0-7.2-3.6-7.2-8.7c0-5.1,0-41.6,0-41.6h-5.1"/>
				<path class="st16" d="M7799.1,3603.5h-4.6c0,0,0,11.3,0,23.6c0,12.3,8.2,26.7,14.9,42.1c6.7,15.4,3.6,23.6-9.2,23.6h-29.7
					c-12.8,0-15.9-8.2-9.2-23.6c6.7-15.4,14.9-29.8,14.9-42.1c0-12.3,0-23.6,0-23.6h-4.6"/>
				<g>
					<path class="st16" d="M7825.4,3647.8c4-0.2,4.3,4.6,8.3,4.4c4-0.2,3.7-5.1,7.7-5.3c4-0.2,4.3,4.6,8.3,4.4
						c4-0.2,3.7-5.1,7.7-5.3c4-0.2,4.3,4.6,8.3,4.4"/>
				</g>
			</g>
		</g>
		<g>
			<g>
				<defs>
					<path id="SVGID_5_" d="M7794.5,3627.1c0,12.3,8.2,26.7,14.9,42.1c6.7,15.4,3.6,23.6-9.2,23.6h-29.7c-12.8,0-15.9-8.2-9.2-23.6
						c6.7-15.4,14.9-29.8,14.9-42.1"/>
				</defs>
				<clipPath id="SVGID_6_">
					<use xlink:href="#SVGID_5_"  style="overflow:visible;"/>
				</clipPath>
			</g>
		</g>
	</g>
	<g>
		<line class="st18" x1="301.2" y1="3601.9" x2="405.7" y2="3601.9"/>
	</g>
	<g>
		<line class="st18" x1="178.9" y1="798.5" x2="283.4" y2="798.5"/>
	</g>
	<g>
		<line class="st18" x1="1681.4" y1="3601.9" x2="1785.9" y2="3601.9"/>
	</g>
	<g>
		<line class="st18" x1="2108.4" y1="3601.9" x2="2213" y2="3601.9"/>
	</g>
	<g>
		<line class="st18" x1="2519" y1="3601.9" x2="2623.6" y2="3601.9"/>
	</g>
	<g>
		<line class="st18" x1="2887" y1="3601.9" x2="2991.6" y2="3601.9"/>
	</g>
	<g>
		<line class="st18" x1="3399.4" y1="3601.9" x2="3503.9" y2="3601.9"/>
	</g>
	<g>
		<line class="st18" x1="4661.1" y1="3601.9" x2="4889.6" y2="3601.9"/>
	</g>
	<g>
		<line class="st18" x1="5481.2" y1="3601.9" x2="5585.7" y2="3601.9"/>
	</g>
	<g>
		<line class="st18" x1="6171.6" y1="3601.9" x2="6276.1" y2="3601.9"/>
	</g>
	<g>
		<line class="st18" x1="6729.9" y1="3601.9" x2="6958.5" y2="3601.9"/>
	</g>
	<g>
		<line class="st18" x1="7904.2" y1="3601.9" x2="8008.8" y2="3601.9"/>
	</g>
	<g>
		<line class="st18" x1="674.1" y1="798.5" x2="778.6" y2="798.5"/>
	</g>
	<g>
		<line class="st18" x1="1219.2" y1="798.5" x2="1323.8" y2="798.5"/>
	</g>
	<g>
		<line class="st18" x1="1604.5" y1="798.5" x2="1709" y2="798.5"/>
	</g>
	<g>
		<line class="st18" x1="2436.6" y1="798.5" x2="2541.2" y2="798.5"/>
	</g>
	<g>
		<line class="st18" x1="3856.3" y1="798.5" x2="3960.8" y2="798.5"/>
	</g>
	<g>
		<line class="st18" x1="4913.6" y1="798.5" x2="5018.1" y2="798.5"/>
	</g>
	<g>
		<line class="st18" x1="5475.8" y1="798.5" x2="5580.3" y2="798.5"/>
	</g>
	<g>
		<line class="st18" x1="6403.6" y1="798.5" x2="6508.1" y2="798.5"/>
	</g>
	<g>
		<line class="st18" x1="7437.9" y1="798.5" x2="7666.4" y2="798.5"/>
	</g>
	<g>
		<line class="st18" x1="8014.1" y1="798.5" x2="8118.6" y2="798.5"/>
	</g>
	<g>
		<g>
			<g>
				<g>
					<g>
						<g>
							<circle class="st0" cx="1179.8" cy="2197.8" r="810.2"/>
						</g>
					</g>
				</g>
			</g>
		</g>
	</g>
	<g>
		<g>
			<g>
				<g>
					<path class="st16" d="M273.7,3715.3c0,0-33-30.1-43.6-63.6H207c-10.6,33.5-43.6,63.6-43.6,63.6"/>
					<path class="st16" d="M252.7,3715.3c0,0-4.2-6.1-9.3-15.9"/>
					<path class="st16" d="M210,3691c-2.9,14.6-5.6,24.3-5.6,24.3"/>
					<path class="st16" d="M225.1,3642.7c0-14.7,11.9-26.6,26.6-26.6"/>
					<path class="st16" d="M213.5,3642.7c-2.1-6.2-6.3-11.2-11.5-14.3"/>
					<path class="st16" d="M210.8,3616.5c-5.7-4.9-13.5-7.3-21.5-6.1"/>
					<path class="st16" d="M244.6,3601.9c-7.5,0.9-14.6,4.9-19.1,11.6"/>
					<line class="st16" x1="180.4" y1="3612.7" x2="180.4" y2="3612.7"/>
					<line class="st16" x1="196.3" y1="3626.2" x2="196.3" y2="3626.2"/>
					<line class="st16" x1="243.2" y1="3630.5" x2="243.2" y2="3630.5"/>
					<line class="st16" x1="260.3" y1="3617.9" x2="260.3" y2="3617.9"/>
					<line class="st16" x1="252.7" y1="3601.9" x2="252.7" y2="3601.9"/>
					<line class="st16" x1="217" y1="3623.1" x2="217" y2="3623.1"/>
				</g>
				<path class="st16" d="M199,3670.1c0,0,1.5,1.8,3.2,4.1c1.8,2.3,4.7,2.3,6.5,0c1.8-2.3,4.7-2.3,6.5,0c1.8,2.3,4.7,2.3,6.5,0
					c1.8-2.3,4.7-2.3,6.5,0s4.7,2.3,6.5,0c1.8-2.3,3.3-4.1,3.3-4.1"/>
			</g>
		</g>
	</g>
	<g>
		<g>
			<g>
				<g>
					<path class="st16" d="M645,910.8c0,0-31.2-30.1-41.3-63.6h-21.9c-10,33.5-41.3,63.6-41.3,63.6"/>
					<path class="st16" d="M625.2,910.8c0,0-3.9-6.1-8.8-15.9"/>
					<path class="st16" d="M584.7,886.5c-2.7,14.6-5.3,24.3-5.3,24.3"/>
					<path class="st16" d="M599,838.1c0-14.7,11.3-26.6,25.2-26.6"/>
					<path class="st16" d="M588.1,838.1c-2-6.2-6-11.2-10.9-14.3"/>
					<path class="st16" d="M585.5,812c-5.4-4.9-12.8-7.3-20.3-6.1"/>
					<path class="st16" d="M617.5,797.4c-7.1,0.9-13.8,4.9-18.1,11.6"/>
					<line class="st16" x1="556.7" y1="808.1" x2="556.7" y2="808.1"/>
					<line class="st16" x1="571.7" y1="821.7" x2="571.7" y2="821.7"/>
					<line class="st16" x1="616.2" y1="825.9" x2="616.2" y2="825.9"/>
					<line class="st16" x1="632.4" y1="813.4" x2="632.4" y2="813.4"/>
					<line class="st16" x1="625.1" y1="797.4" x2="625.1" y2="797.4"/>
					<line class="st16" x1="591.3" y1="818.6" x2="591.3" y2="818.6"/>
				</g>
				<path class="st16" d="M574.3,865.6c0,0,1.4,1.8,3.1,4.1s4.5,2.3,6.1,0c1.7-2.3,4.5-2.3,6.1,0s4.5,2.3,6.1,0
					c1.7-2.3,4.5-2.3,6.1,0s4.5,2.3,6.2,0s3.1-4.1,3.1-4.1"/>
			</g>
		</g>
	</g>
	<g>
		<g>
			<g>
				<g>
					<g>
						<g>
							<g>
								<line class="st19" x1="719.8" y1="1840" x2="719.8" y2="1815.3"/>
							</g>
							<g>
								<line class="st19" x1="861.8" y1="1840" x2="861.8" y2="1815.3"/>
							</g>
							<g>
								<line class="st19" x1="1003.8" y1="1840" x2="1003.8" y2="1815.3"/>
							</g>
							<g>
								<line class="st19" x1="1145.7" y1="1840" x2="1145.7" y2="1815.3"/>
							</g>
							<g>
								<line class="st19" x1="1287.7" y1="1840" x2="1287.7" y2="1815.3"/>
							</g>
							<g>
								<line class="st19" x1="1429.6" y1="1840" x2="1429.6" y2="1815.3"/>
							</g>
							<g>
								<line class="st19" x1="1571.8" y1="1840" x2="1571.8" y2="1815.3"/>
							</g>
							<g>
								<line class="st19" x1="1713.8" y1="1840" x2="1713.8" y2="1815.3"/>
							</g>
						</g>
						<g>
							<defs>
								<rect id="SVGID_7_" x="649.8" y="1839.9" width="1063.1" height="58.6"/>
							</defs>
							<clipPath id="SVGID_8_">
								<use xlink:href="#SVGID_7_"  style="overflow:visible;"/>
							</clipPath>
						</g>
					</g>
					<g>
						<rect x="649.9" y="1839.9" class="st1" width="75.9" height="103"/>
						<rect x="725.8" y="1839.9" class="st2" width="75.9" height="103"/>
						<rect x="801.7" y="1839.9" class="st3" width="75.9" height="103"/>
						<rect x="877.6" y="1839.9" class="st4" width="75.9" height="103"/>
						<rect x="953.6" y="1839.9" class="st5" width="75.9" height="103"/>
						<rect x="1029.5" y="1839.9" class="st6" width="75.9" height="103"/>
						<rect x="1105.4" y="1839.9" class="st7" width="75.9" height="103"/>
						<rect x="1181.4" y="1839.9" class="st8" width="75.9" height="103"/>
						<rect x="1257.3" y="1839.9" class="st9" width="75.9" height="103"/>
						<rect x="1333.2" y="1839.9" class="st10" width="75.9" height="103"/>
						<rect x="1409.2" y="1839.9" class="st11" width="75.9" height="103"/>
						<rect x="1485.1" y="1839.9" class="st12" width="75.9" height="103"/>
						<rect x="1561" y="1839.9" class="st13" width="75.9" height="103"/>
						<rect x="1636.9" y="1839.9" class="st14" width="75.9" height="103"/>
					</g>
				</g>
			</g>
			<line class="st20" x1="649.9" y1="1839.9" x2="1712.9" y2="1839.9"/>
		</g>
		<line class="st21" x1="633.1" y1="1839.9" x2="1729.9" y2="1839.9"/>
	</g>
</g>
<g id="lineas">
	<g>
		<g>
			<line class="st22" x1="348.9" y1="3518.1" x2="348.9" y2="3515.6"/>
			<path class="st23" d="M348.9,3510.6v-52c0-7.8,6.4-14.2,14.2-14.2h676.1c7.8,0,14.2-6.4,14.2-14.2v-100.5"/>
			<line class="st22" x1="1053.3" y1="3327.3" x2="1053.3" y2="3324.8"/>
			<g>
				<polygon points="1062.5,3332.3 1060.9,3333.8 1053.3,3325.7 1045.8,3333.8 1044.1,3332.3 1053.3,3322.4 				"/>
			</g>
		</g>
	</g>
	<g>
		<g>
			<line class="st22" x1="1733.5" y1="3518.1" x2="1733.5" y2="3515.6"/>
			<path class="st24" d="M1733.5,3510.6v-52c0-7.8-6.4-14.2-14.2-14.2h-401.1c-7.8,0-14.2-6.4-14.2-14.2v-100.5"/>
			<line class="st22" x1="1304" y1="3327.3" x2="1304" y2="3324.8"/>
			<g>
				<polygon points="1313.2,3332.3 1311.6,3333.8 1304,3325.7 1296.5,3333.8 1294.8,3332.3 1304,3322.4 				"/>
			</g>
		</g>
	</g>
	<g>
		<g>
			<line class="st22" x1="2157.4" y1="3518.1" x2="2157.4" y2="3515.6"/>
			<path class="st25" d="M2157.4,3510.6v-92c0-7.8,6.4-14.2,14.2-14.2h574.3c7.8,0,14.2-6.4,14.2-14.2v-60.5"/>
			<line class="st22" x1="2760.1" y1="3327.3" x2="2760.1" y2="3324.8"/>
			<g>
				<polygon points="2769.3,3332.3 2767.6,3333.8 2760.1,3325.7 2752.5,3333.8 2750.9,3332.3 2760.1,3322.4 				"/>
			</g>
		</g>
	</g>
	<g>
		<g>
			<line class="st22" x1="2565.8" y1="3518.1" x2="2565.8" y2="3515.6"/>
			<path class="st26" d="M2565.8,3510.6v-72c0-7.8,6.4-14.2,14.2-14.2H4104c7.8,0,14.2-6.4,14.2-14.2v-80.5"/>
			<line class="st22" x1="4118.2" y1="3327.3" x2="4118.2" y2="3324.8"/>
			<g>
				<polygon points="4127.4,3332.3 4125.7,3333.8 4118.2,3325.7 4110.6,3333.8 4109,3332.3 4118.2,3322.4 				"/>
			</g>
		</g>
	</g>
	<g>
		<g>
			<line class="st22" x1="2935.3" y1="3518.1" x2="2935.3" y2="3515.6"/>
			<path class="st27" d="M2935.3,3510.6v-52c0-7.8,6.4-14.2,14.2-14.2H4298c7.8,0,14.2-6.4,14.2-14.2v-100.5"/>
			<line class="st22" x1="4312.1" y1="3327.3" x2="4312.1" y2="3324.8"/>
			<g>
				<polygon points="4321.3,3332.3 4319.7,3333.8 4312.1,3325.7 4304.6,3333.8 4302.9,3332.3 4312.1,3322.4 				"/>
			</g>
		</g>
	</g>
	<g>
		<g>
			<line class="st22" x1="3467.5" y1="3518.1" x2="3467.5" y2="3515.6"/>
			<path class="st28" d="M3467.5,3510.6v-32c0-7.8,6.4-14.2,14.2-14.2h1592c7.8,0,14.2-6.4,14.2-14.2v-120.5"/>
			<line class="st22" x1="5087.9" y1="3327.3" x2="5087.9" y2="3324.8"/>
			<g>
				<polygon points="5097.1,3332.3 5095.4,3333.8 5087.9,3325.7 5080.3,3333.8 5078.7,3332.3 5087.9,3322.4 				"/>
			</g>
		</g>
	</g>
	<g>
		<g>
			<line class="st22" x1="4712.1" y1="3518.1" x2="4712.1" y2="3515.6"/>
			<path class="st29" d="M4712.1,3510.6v-12c0-7.8,6.4-14.2,14.2-14.2h695.2c7.8,0,14.2-6.4,14.2-14.2v-140.5"/>
			<line class="st22" x1="5435.6" y1="3327.3" x2="5435.6" y2="3324.8"/>
			<g>
				<polygon points="5444.8,3332.3 5443.2,3333.8 5435.6,3325.7 5428.1,3333.8 5426.4,3332.3 5435.6,3322.4 				"/>
			</g>
		</g>
	</g>
	<g>
		<g>
			<line class="st22" x1="5529.4" y1="3518.1" x2="5529.4" y2="3515.6"/>
			<path class="st30" d="M5529.4,3510.6v-92c0-7.8,6.4-14.2,14.2-14.2h692.2c7.8,0,14.2-6.4,14.2-14.2v-60.5"/>
			<line class="st22" x1="6250" y1="3327.3" x2="6250" y2="3324.8"/>
			<g>
				<polygon points="6259.2,3332.3 6257.6,3333.8 6250,3325.7 6242.5,3333.8 6240.8,3332.3 6250,3322.4 				"/>
			</g>
		</g>
	</g>
	<g>
		<g>
			<line class="st22" x1="6221.5" y1="3518.1" x2="6221.5" y2="3515.6"/>
			<path class="st31" d="M6221.5,3510.6v-72c0-7.8,6.4-14.2,14.2-14.2h932.7c7.8,0,14.2-6.4,14.2-14.2v-80.5"/>
			<line class="st22" x1="7182.5" y1="3327.3" x2="7182.5" y2="3324.8"/>
			<g>
				<polygon points="7191.7,3332.3 7190,3333.8 7182.5,3325.7 7174.9,3333.8 7173.3,3332.3 7182.5,3322.4 				"/>
			</g>
		</g>
	</g>
	<g>
		<g>
			<line class="st22" x1="6778.5" y1="3518.1" x2="6778.5" y2="3515.6"/>
			<path class="st32" d="M6778.5,3510.6v-52c0-7.8,6.4-14.2,14.2-14.2h1073.8c7.8,0,14.2-6.4,14.2-14.2v-100.5"/>
			<line class="st22" x1="7880.6" y1="3327.3" x2="7880.6" y2="3324.8"/>
			<g>
				<polygon points="7889.8,3332.3 7888.2,3333.8 7880.6,3325.7 7873.1,3333.8 7871.4,3332.3 7880.6,3322.4 				"/>
			</g>
		</g>
	</g>
	<g>
		<g>
			<line class="st22" x1="7953.9" y1="3518.1" x2="7953.9" y2="3515.6"/>
			<path class="st33" d="M7953.9,3510.6v-52c0-7.8,6.4-14.2,14.2-14.2h168.8c7.8,0,14.2-6.4,14.2-14.2v-100.5"/>
			<line class="st22" x1="8151" y1="3327.3" x2="8151" y2="3324.8"/>
			<g>
				<polygon points="8160.2,3332.3 8158.6,3333.8 8151,3325.7 8143.5,3333.8 8141.8,3332.3 8151,3322.4 				"/>
			</g>
		</g>
	</g>
	<g>
		<g>
			<line class="st22" x1="199.7" y1="986.2" x2="199.7" y2="988.7"/>
			<path class="st34" d="M199.7,993.7v128c0,7.8,0,14.2,0,14.2s0,6.4,0,14.2v60.5"/>
			<line class="st22" x1="199.7" y1="1213" x2="199.7" y2="1215.5"/>
			<g>
				<polygon points="190.5,1208 192.1,1206.5 199.7,1214.6 207.2,1206.5 208.9,1208 199.7,1217.9 				"/>
			</g>
		</g>
	</g>
	<g>
		<g>
			<line class="st22" x1="727.7" y1="1036.2" x2="727.7" y2="1038.7"/>
			<path class="st35" d="M727.7,1043.7v78c0,7.8,6.4,14.2,14.2,14.2h489.8c7.8,0,14.2,6.4,14.2,14.2v60.5"/>
			<line class="st22" x1="1245.9" y1="1213" x2="1245.9" y2="1215.5"/>
			<g>
				<polygon points="1236.6,1208 1238.3,1206.5 1245.8,1214.6 1253.4,1206.5 1255.1,1208 1245.8,1217.9 				"/>
			</g>
		</g>
	</g>
	<g>
		<g>
			<line class="st22" x1="1281.8" y1="986.2" x2="1281.8" y2="988.7"/>
			<path class="st36" d="M1281.8,993.7v128c0,7.8,6.4,14.2,14.2,14.2h52.1c7.8,0,14.2,6.4,14.2,14.2v60.5"/>
			<line class="st22" x1="1362.2" y1="1213" x2="1362.2" y2="1215.5"/>
			<g>
				<polygon points="1353,1208 1354.7,1206.5 1362.2,1214.6 1369.8,1206.5 1371.4,1208 1362.2,1217.9 				"/>
			</g>
		</g>
	</g>
	<g>
		<g>
			<line class="st22" x1="1665" y1="1036.2" x2="1665" y2="1038.7"/>
			<path class="st37" d="M1665,1043.7v77.9c0,7.8,6.4,14.2,14.2,14.2h1530.7c7.8,0,14.2,6.4,14.2,14.2v60.5"/>
			<line class="st22" x1="3224.1" y1="1213" x2="3224.1" y2="1215.5"/>
			<g>
				<polygon points="3214.9,1208 3216.5,1206.5 3224.1,1214.6 3231.6,1206.5 3233.3,1208 3224.1,1217.9 				"/>
			</g>
		</g>
	</g>
	<g>
		<g>
			<line class="st22" x1="2498" y1="1036.2" x2="2498" y2="1038.7"/>
			<path class="st38" d="M2498,1043.7v57.9c0,7.8,6.4,14.2,14.2,14.2H4102c7.8,0,14.2,6.4,14.2,14.2v80.5"/>
			<line class="st22" x1="4116.2" y1="1213" x2="4116.2" y2="1215.5"/>
			<g>
				<polygon points="4107,1208 4108.6,1206.5 4116.2,1214.6 4123.7,1206.5 4125.4,1208 4116.2,1217.9 				"/>
			</g>
		</g>
	</g>
	<g>
		<g>
			<line class="st22" x1="3908.5" y1="1036.2" x2="3908.5" y2="1038.7"/>
			<path class="st39" d="M3908.5,1043.8v37.9c0,7.8,6.4,14.2,14.2,14.2h877.5c7.8,0,14.2,6.4,14.2,14.2v100.5"/>
			<line class="st22" x1="4814.4" y1="1213" x2="4814.4" y2="1215.5"/>
			<g>
				<polygon points="4805.2,1208 4806.8,1206.5 4814.4,1214.6 4821.9,1206.5 4823.6,1208 4814.4,1217.9 				"/>
			</g>
		</g>
	</g>
	<g>
		<g>
			<line class="st22" x1="4965.8" y1="982.8" x2="4965.8" y2="985.3"/>
			<path class="st40" d="M4965.8,990.4v131.3c0,7.8,6.4,14.2,14.2,14.2h325.1c7.8,0,14.2,6.4,14.2,14.2v60.5"/>
			<line class="st22" x1="5319.3" y1="1213" x2="5319.3" y2="1215.5"/>
			<g>
				<polygon points="5310.1,1208 5311.8,1206.5 5319.3,1214.6 5326.9,1206.5 5328.5,1208 5319.3,1217.9 				"/>
			</g>
		</g>
	</g>
	<g>
		<g>
			<line class="st22" x1="5528" y1="1036.2" x2="5528" y2="1038.7"/>
			<path class="st35" d="M5528,1043.7v78c0,7.8,6.4,14.2,14.2,14.2h420.3c7.8,0,14.2,6.4,14.2,14.2v60.5"/>
			<line class="st22" x1="5976.6" y1="1213" x2="5976.6" y2="1215.5"/>
			<g>
				<polygon points="5967.4,1208 5969.1,1206.5 5976.6,1214.6 5984.2,1206.5 5985.8,1208 5976.6,1217.9 				"/>
			</g>
		</g>
	</g>
	<g>
		<g>
			<line class="st22" x1="6462.1" y1="1036.2" x2="6462.1" y2="1038.7"/>
			<path class="st41" d="M6462.1,1043.7v78c0,7.8,6.4,14.2,14.2,14.2h612.4c7.8,0,14.2,6.4,14.2,14.2v60.5"/>
			<line class="st22" x1="7102.8" y1="1213" x2="7102.8" y2="1215.5"/>
			<g>
				<polygon points="7093.6,1208 7095.3,1206.5 7102.8,1214.6 7110.4,1206.5 7112,1208 7102.8,1217.9 				"/>
			</g>
		</g>
	</g>
	<g>
		<g>
			<line class="st22" x1="7491.8" y1="942.2" x2="7491.8" y2="944.7"/>
			<path class="st42" d="M7491.8,949.8v171.9c0,7.8,6.4,14.2,14.2,14.2h243c7.8,0,14.2,6.4,14.2,14.2v60.5"/>
			<line class="st22" x1="7763.1" y1="1213" x2="7763.1" y2="1215.5"/>
			<g>
				<polygon points="7753.9,1208 7755.6,1206.5 7763.1,1214.6 7770.7,1206.5 7772.3,1208 7763.1,1217.9 				"/>
			</g>
		</g>
	</g>
	<g>
		<g>
			<line class="st22" x1="8066.4" y1="942.2" x2="8066.4" y2="944.7"/>
			<path class="st43" d="M8066.4,949.8v171.9c0,7.8-6.4,14.2-14.2,14.2h-3.9c-7.8,0-14.2,6.4-14.2,14.2v60.4"/>
			<line class="st22" x1="8034.2" y1="1213" x2="8034.2" y2="1215.5"/>
			<g>
				<polygon points="8025,1208 8026.6,1206.5 8034.2,1214.6 8041.7,1206.5 8043.4,1208 8034.2,1217.9 				"/>
			</g>
		</g>
	</g>
</g>
<g id="textos">
	<g>
		<g>
			<g>
				<text transform="matrix(0 -1 1 0 209.8057 3297.2703)" class="st44 st45">1750</text>
			</g>
			<g>
				<text transform="matrix(0 -1 1 0 248.5547 3296.196)" class="st46 st45">1752</text>
			</g>
			<g>
				<text transform="matrix(0 -1 1 0 287.3662 3296.196)" class="st46 st45">1755</text>
			</g>
			<g>
				<text transform="matrix(0 -1 1 0 326.1831 3296.196)" class="st46 st45">1760</text>
			</g>
			<g>
				<text transform="matrix(0 -1 1 0 364.9322 3296.196)" class="st46 st45">1763</text>
			</g>
			<g>
				<text transform="matrix(0 -1 1 0 403.751 3296.196)" class="st46 st45">1764</text>
			</g>
			<g>
				<text transform="matrix(0 -1 1 0 442.4976 3296.196)" class="st46 st45">1765</text>
			</g>
			<g>
				<text transform="matrix(0 -1 1 0 481.3111 3296.196)" class="st46 st45">1770</text>
			</g>
			<g>
				<text transform="matrix(0 -1 1 0 520.1245 3296.196)" class="st46 st45">1773</text>
			</g>
			<g>
				<text transform="matrix(0 -1 1 0 558.8774 3296.196)" class="st46 st45">1775</text>
			</g>
			<g>
				<text transform="matrix(0 -1 1 0 597.687 3296.196)" class="st46 st45">1779</text>
			</g>
			<g>
				<text transform="matrix(0 -1 1 0 636.5005 3296.196)" class="st46 st45">1780</text>
			</g>
			<g>
				<text transform="matrix(0 -1 1 0 675.251 3296.196)" class="st46 st45">1785</text>
			</g>
			<g>
				<text transform="matrix(0 -1 1 0 714.0645 3296.196)" class="st46 st45">1790</text>
			</g>
			<g>
				<text transform="matrix(0 -1 1 0 752.8115 3296.196)" class="st46 st45">1794</text>
			</g>
			<g>
				<text transform="matrix(0 -1 1 0 791.6289 3296.196)" class="st46 st45">1795</text>
			</g>
			<g>
				<text transform="matrix(0 -1 1 0 830.4424 3296.196)" class="st46 st45">1796</text>
			</g>
			<g>
				<text transform="matrix(0 -1 1 0 869.1855 3296.2039)" class="st46 st45">1799</text>
			</g>
			<g>
				<text transform="matrix(0 -1 1 0 907.999 3296.2039)" class="st46 st45">1800</text>
			</g>
			<g>
				<text transform="matrix(0 -1 1 0 946.8105 3296.2039)" class="st46 st45">1805</text>
			</g>
			<g>
				<text transform="matrix(0 -1 1 0 985.563 3296.2039)" class="st46 st45">1810</text>
			</g>
			<g>
				<text transform="matrix(0 -1 1 0 1024.3804 3296.2039)" class="st46 st45">1814</text>
			</g>
			<g>
				<text transform="matrix(0 -1 1 0 1063.1274 3296.196)" class="st46 st45">1815</text>
			</g>
			<g>
				<text transform="matrix(0 -1 1 0 1101.9351 3296.196)" class="st46 st45">1820</text>
			</g>
			<g>
				<text transform="matrix(0 -1 1 0 1140.7485 3296.196)" class="st46 st45">1825</text>
			</g>
			<g>
				<text transform="matrix(0 -1 1 0 1179.4995 3296.196)" class="st46 st45">1827</text>
			</g>
			<g>
				<text transform="matrix(0 -1 1 0 1218.3184 3296.196)" class="st46 st45">1830</text>
			</g>
			<g>
				<text transform="matrix(0 -1 1 0 1257.0635 3296.196)" class="st46 st45">1833</text>
			</g>
			<g>
				<text transform="matrix(0 -1 1 0 1295.877 3296.196)" class="st46 st45">1835</text>
			</g>
			<g>
				<text transform="matrix(0 -1 1 0 1334.6904 3296.196)" class="st46 st45">1837</text>
			</g>
			<g>
				<text transform="matrix(0 -1 1 0 1373.4375 3296.196)" class="st46 st45">1840</text>
			</g>
			<g>
				<text transform="matrix(0 -1 1 0 1412.251 3296.196)" class="st46 st45">1841</text>
			</g>
			<g>
				<text transform="matrix(0 -1 1 0 1451.0625 3296.196)" class="st46 st45">1843</text>
			</g>
			<g>
				<text transform="matrix(0 -1 1 0 1489.8149 3296.196)" class="st46 st45">1844</text>
			</g>
			<g>
				<text transform="matrix(0 -1 1 0 1528.6343 3296.196)" class="st46 st45">1845</text>
			</g>
			<g>
				<text transform="matrix(0 -1 1 0 1567.3755 3296.196)" class="st46 st45">1846</text>
			</g>
			<g>
				<text transform="matrix(0 -1 1 0 1606.1909 3296.196)" class="st46 st45">1847</text>
			</g>
			<g>
				<text transform="matrix(0 -1 1 0 1645.0024 3296.196)" class="st46 st45">1850</text>
			</g>
			<g>
				<text transform="matrix(0 -1 1 0 1683.7549 3296.2039)" class="st46 st45">1851</text>
			</g>
			<g>
				<text transform="matrix(0 -1 1 0 1722.5664 3296.2039)" class="st46 st45">1852</text>
			</g>
			<g>
				<text transform="matrix(0 -1 1 0 1761.3857 3296.2039)" class="st46 st45">1853</text>
			</g>
			<g>
				<text transform="matrix(0 -1 1 0 1800.1265 3296.2039)" class="st46 st45">1854</text>
			</g>
			<g>
				<text transform="matrix(0 -1 1 0 1838.9424 3296.2039)" class="st46 st45">1855</text>
			</g>
			<g>
				<text transform="matrix(0 -1 1 0 1877.6943 3296.196)" class="st46 st45">1856</text>
			</g>
			<g>
				<text transform="matrix(0 -1 1 0 1916.5078 3296.196)" class="st46 st45">1857</text>
			</g>
			<g>
				<text transform="matrix(0 -1 1 0 1955.3198 3296.196)" class="st46 st45">1858</text>
			</g>
			<g>
				<text transform="matrix(0 -1 1 0 1994.0703 3296.196)" class="st46 st45">1859</text>
			</g>
			<g>
				<text transform="matrix(0 -1 1 0 2032.8779 3296.196)" class="st46 st45">1860</text>
			</g>
			<g>
				<text transform="matrix(0 -1 1 0 2071.6362 3296.196)" class="st46 st45">1861</text>
			</g>
			<g>
				<text transform="matrix(0 -1 1 0 2110.4482 3296.196)" class="st46 st45">1862</text>
			</g>
			<g>
				<text transform="matrix(0 -1 1 0 2149.2598 3296.196)" class="st46 st45">1863</text>
			</g>
			<g>
				<text transform="matrix(0 -1 1 0 2188.0063 3296.196)" class="st46 st45">1864</text>
			</g>
			<g>
				<text transform="matrix(0 -1 1 0 2226.8218 3296.196)" class="st46 st45">1865</text>
			</g>
			<g>
				<text transform="matrix(0 -1 1 0 2265.6299 3296.196)" class="st46 st45">1866</text>
			</g>
			<g>
				<text transform="matrix(0 -1 1 0 2304.3765 3296.196)" class="st46 st45">1867</text>
			</g>
			<g>
				<text transform="matrix(0 -1 1 0 2343.1997 3296.196)" class="st46 st45">1868</text>
			</g>
			<g>
				<text transform="matrix(0 -1 1 0 2381.9429 3296.196)" class="st46 st45">1869</text>
			</g>
			<g>
				<text transform="matrix(0 -1 1 0 2420.7583 3296.196)" class="st46 st45">1870</text>
			</g>
			<g>
				<text transform="matrix(0 -1 1 0 2459.5698 3296.196)" class="st46 st45">1871</text>
			</g>
			<g>
				<text transform="matrix(0 -1 1 0 2498.3164 3296.2039)" class="st46 st45">1872</text>
			</g>
			<g>
				<text transform="matrix(0 -1 1 0 2537.1357 3296.2039)" class="st46 st45">1873</text>
			</g>
			<g>
				<text transform="matrix(0 -1 1 0 2575.8867 3296.2039)" class="st46 st45">1874</text>
			</g>
			<g>
				<text transform="matrix(0 -1 1 0 2614.6982 3296.2039)" class="st46 st45">1875</text>
			</g>
			<g>
				<text transform="matrix(0 -1 1 0 2653.5171 3296.2039)" class="st46 st45">1876</text>
			</g>
			<g>
				<text transform="matrix(0 -1 1 0 2692.2563 3296.2156)" class="st46 st45">1877</text>
			</g>
			<g>
				<text transform="matrix(0 -1 1 0 2731.0718 3296.2156)" class="st46 st45">1878</text>
			</g>
			<g>
				<text transform="matrix(0 -1 1 0 2769.8838 3296.2156)" class="st46 st45">1879</text>
			</g>
			<g>
				<text transform="matrix(0 -1 1 0 2808.6421 3296.196)" class="st46 st45">1880</text>
			</g>
			<g>
				<text transform="matrix(0 -1 1 0 2847.4458 3296.196)" class="st46 st45">1881</text>
			</g>
			<g>
				<text transform="matrix(0 -1 1 0 2886.1968 3296.196)" class="st46 st45">1882</text>
			</g>
			<g>
				<text transform="matrix(0 -1 1 0 2925.0117 3296.196)" class="st46 st45">1883</text>
			</g>
			<g>
				<text transform="matrix(0 -1 1 0 2963.8271 3296.196)" class="st46 st45">1884</text>
			</g>
			<g>
				<text transform="matrix(0 -1 1 0 3002.5781 3296.196)" class="st46 st45">1885</text>
			</g>
			<g>
				<text transform="matrix(0 -1 1 0 3041.3896 3296.196)" class="st46 st45">1886</text>
			</g>
			<g>
				<text transform="matrix(0 -1 1 0 3080.2051 3296.196)" class="st46 st45">1887</text>
			</g>
			<g>
				<text transform="matrix(0 -1 1 0 3118.9521 3296.196)" class="st46 st45">1888</text>
			</g>
			<g>
				<text transform="matrix(0 -1 1 0 3157.7671 3296.196)" class="st46 st45">1889</text>
			</g>
			<g>
				<text transform="matrix(0 -1 1 0 3196.5098 3296.196)" class="st46 st45">1890</text>
			</g>
			<g>
				<text transform="matrix(0 -1 1 0 3235.3291 3296.196)" class="st46 st45">1891</text>
			</g>
			<g>
				<text transform="matrix(0 -1 1 0 3274.1445 3296.196)" class="st46 st45">1892</text>
			</g>
			<g>
				<text transform="matrix(0 -1 1 0 3312.8916 3296.2039)" class="st46 st45">1893</text>
			</g>
			<g>
				<text transform="matrix(0 -1 1 0 3351.707 3296.2039)" class="st46 st45">1894</text>
			</g>
			<g>
				<text transform="matrix(0 -1 1 0 3390.4536 3296.2039)" class="st46 st45">1895</text>
			</g>
			<g>
				<text transform="matrix(0 -1 1 0 3429.269 3296.2039)" class="st46 st45">1896</text>
			</g>
			<g>
				<text transform="matrix(0 -1 1 0 3468.0845 3296.2039)" class="st46 st45">1897</text>
			</g>
			<g>
				<text transform="matrix(0 -1 1 0 3506.8354 3296.2039)" class="st46 st45">1898</text>
			</g>
			<g>
				<text transform="matrix(0 -1 1 0 3545.6392 3296.2039)" class="st46 st45">1899</text>
			</g>
			<g>
				<text transform="matrix(0 -1 1 0 3584.4546 3296.2039)" class="st46 st45">1900</text>
			</g>
			<g>
				<text transform="matrix(0 -1 1 0 3623.2056 3296.196)" class="st46 st45">1901</text>
			</g>
			<g>
				<text transform="matrix(0 -1 1 0 3662.0283 3296.196)" class="st46 st45">1902</text>
			</g>
			<g>
				<text transform="matrix(0 -1 1 0 3700.7676 3296.196)" class="st46 st45">1903</text>
			</g>
			<g>
				<text transform="matrix(0 -1 1 0 3739.583 3296.196)" class="st46 st45">1904</text>
			</g>
			<g>
				<text transform="matrix(0 -1 1 0 3778.3984 3296.196)" class="st46 st45">1905</text>
			</g>
			<g>
				<text transform="matrix(0 -1 1 0 3817.1455 3296.196)" class="st46 st45">1906</text>
			</g>
			<g>
				<text transform="matrix(0 -1 1 0 3855.957 3296.196)" class="st46 st45">1907</text>
			</g>
			<g>
				<text transform="matrix(0 -1 1 0 3894.7686 3296.196)" class="st46 st45">1908</text>
			</g>
			<g>
				<text transform="matrix(0 -1 1 0 3933.519 3296.196)" class="st46 st45">1909</text>
			</g>
			<g>
				<text transform="matrix(0 -1 1 0 3972.3384 3296.196)" class="st46 st45">1910</text>
			</g>
			<g>
				<text transform="matrix(0 -1 1 0 4011.0894 3296.196)" class="st46 st45">1911</text>
			</g>
			<g>
				<text transform="matrix(0 -1 1 0 4049.897 3296.196)" class="st46 st45">1912</text>
			</g>
			<g>
				<text transform="matrix(0 -1 1 0 4088.7124 3296.196)" class="st46 st45">1913</text>
			</g>
			<g>
				<text transform="matrix(0 -1 1 0 4127.4517 3296.196)" class="st46 st45">1914</text>
			</g>
			<g>
				<text transform="matrix(0 -1 1 0 4166.2671 3296.2039)" class="st46 st45">1915</text>
			</g>
			<g>
				<text transform="matrix(0 -1 1 0 4205.0215 3296.2039)" class="st46 st45">1916</text>
			</g>
			<g>
				<text transform="matrix(0 -1 1 0 4243.8408 3296.2039)" class="st46 st45">1917</text>
			</g>
			<g>
				<text transform="matrix(0 -1 1 0 4282.6494 3296.2039)" class="st46 st45">1918</text>
			</g>
			<g>
				<text transform="matrix(0 -1 1 0 4321.4033 3296.2039)" class="st46 st45">1919</text>
			</g>
			<g>
				<text transform="matrix(0 -1 1 0 4360.2148 3296.2039)" class="st46 st45">1920</text>
			</g>
			<g>
				<text transform="matrix(0 -1 1 0 4399.0303 3296.2039)" class="st46 st45">1921</text>
			</g>
			<g>
				<text transform="matrix(0 -1 1 0 4437.7773 3296.1882)" class="st46 st45">1922</text>
			</g>
			<g>
				<text transform="matrix(0 -1 1 0 4476.5918 3296.1882)" class="st46 st45">1923</text>
			</g>
			<g>
				<text transform="matrix(0 -1 1 0 4515.3398 3296.196)" class="st46 st45">1924</text>
			</g>
			<g>
				<text transform="matrix(0 -1 1 0 4554.1582 3296.196)" class="st46 st45">1925</text>
			</g>
			<g>
				<text transform="matrix(0 -1 1 0 4592.9707 3296.196)" class="st46 st45">1926</text>
			</g>
			<g>
				<text transform="matrix(0 -1 1 0 4631.7168 3296.196)" class="st46 st45">1927</text>
			</g>
			<g>
				<text transform="matrix(0 -1 1 0 4670.5293 3296.196)" class="st46 st45">1928</text>
			</g>
			<g>
				<text transform="matrix(0 -1 1 0 4709.3477 3296.196)" class="st46 st45">1929</text>
			</g>
			<g>
				<text transform="matrix(0 -1 1 0 4748.0947 3296.196)" class="st46 st45">1930</text>
			</g>
			<g>
				<text transform="matrix(0 -1 1 0 4786.9062 3296.196)" class="st46 st45">1931</text>
			</g>
			<g>
				<text transform="matrix(0 -1 1 0 4825.6572 3296.196)" class="st46 st45">1932</text>
			</g>
			<g>
				<text transform="matrix(0 -1 1 0 4864.4795 3296.196)" class="st46 st45">1933</text>
			</g>
			<g>
				<text transform="matrix(0 -1 1 0 4903.2881 3296.196)" class="st46 st45">1934</text>
			</g>
			<g>
				<text transform="matrix(0 -1 1 0 4942.0303 3296.2039)" class="st46 st45">1935</text>
			</g>
			<g>
				<text transform="matrix(0 -1 1 0 4980.8428 3296.2039)" class="st46 st45">1936</text>
			</g>
			<g>
				<text transform="matrix(0 -1 1 0 5019.5889 3296.2039)" class="st46 st45">1937</text>
			</g>
			<g>
				<text transform="matrix(0 -1 1 0 5058.417 3296.2039)" class="st46 st45">1938</text>
			</g>
			<g>
				<text transform="matrix(0 -1 1 0 5097.2119 3296.2039)" class="st46 st45">1939</text>
			</g>
			<g>
				<text transform="matrix(0 -1 1 0 5135.9678 3296.2039)" class="st46 st45">1940</text>
			</g>
			<g>
				<text transform="matrix(0 -1 1 0 5174.7822 3296.2039)" class="st46 st45">1941</text>
			</g>
			<g>
				<text transform="matrix(0 -1 1 0 5213.5986 3296.2039)" class="st46 st45">1942</text>
			</g>
			<g>
				<text transform="matrix(0 -1 1 0 5252.3447 3296.2039)" class="st46 st45">1943</text>
			</g>
			<g>
				<text transform="matrix(0 -1 1 0 5291.168 3296.2039)" class="st46 st45">1944</text>
			</g>
			<g>
				<text transform="matrix(0 -1 1 0 5329.9072 3296.196)" class="st46 st45">1945</text>
			</g>
			<g>
				<text transform="matrix(0 -1 1 0 5368.7217 3296.196)" class="st46 st45">1946</text>
			</g>
			<g>
				<text transform="matrix(0 -1 1 0 5407.5381 3296.196)" class="st46 st45">1947</text>
			</g>
			<g>
				<text transform="matrix(0 -1 1 0 5446.2881 3296.196)" class="st46 st45">1948</text>
			</g>
			<g>
				<text transform="matrix(0 -1 1 0 5485.0957 3296.196)" class="st46 st45">1949</text>
			</g>
			<g>
				<text transform="matrix(0 -1 1 0 5523.9111 3296.196)" class="st46 st45">1950</text>
			</g>
			<g>
				<text transform="matrix(0 -1 1 0 5562.6543 3296.196)" class="st46 st45">1951</text>
			</g>
			<g>
				<text transform="matrix(0 -1 1 0 5601.4736 3296.196)" class="st46 st45">1952</text>
			</g>
			<g>
				<text transform="matrix(0 -1 1 0 5640.2207 3296.196)" class="st46 st45">1953</text>
			</g>
			<g>
				<text transform="matrix(0 -1 1 0 5679.0283 3296.196)" class="st46 st45">1954</text>
			</g>
			<g>
				<text transform="matrix(0 -1 1 0 5717.8477 3296.196)" class="st46 st45">1955</text>
			</g>
			<g>
				<text transform="matrix(0 -1 1 0 5756.6016 3296.196)" class="st46 st45">1956</text>
			</g>
			<g>
				<text transform="matrix(0 -1 1 0 5795.418 3296.196)" class="st46 st45">1957</text>
			</g>
			<g>
				<text transform="matrix(0 -1 1 0 5834.1562 3296.2039)" class="st46 st45">1958</text>
			</g>
			<g>
				<text transform="matrix(0 -1 1 0 5872.9766 3296.2039)" class="st46 st45">1959</text>
			</g>
			<g>
				<text transform="matrix(0 -1 1 0 5911.7871 3296.2039)" class="st46 st45">1960</text>
			</g>
			<g>
				<text transform="matrix(0 -1 1 0 5950.5381 3296.2039)" class="st46 st45">1961</text>
			</g>
			<g>
				<text transform="matrix(0 -1 1 0 5989.3535 3296.2039)" class="st46 st45">1962</text>
			</g>
			<g>
				<text transform="matrix(0 -1 1 0 6028.1689 3296.2039)" class="st46 st45">1963</text>
			</g>
			<g>
				<text transform="matrix(0 -1 1 0 6066.9121 3296.2039)" class="st46 st45">1964</text>
			</g>
			<g>
				<text transform="matrix(0 -1 1 0 6105.7275 3296.2039)" class="st46 st45">1965</text>
			</g>
			<g>
				<text transform="matrix(0 -1 1 0 6144.4814 3296.196)" class="st46 st45">1966</text>
			</g>
			<g>
				<text transform="matrix(0 -1 1 0 6183.2861 3296.196)" class="st46 st45">1967</text>
			</g>
			<g>
				<text transform="matrix(0 -1 1 0 6222.1045 3296.196)" class="st46 st45">1968</text>
			</g>
			<g>
				<text transform="matrix(0 -1 1 0 6260.8486 3296.196)" class="st46 st45">1969</text>
			</g>
			<g>
				<text transform="matrix(0 -1 1 0 6299.6592 3296.196)" class="st46 st45">1970</text>
			</g>
			<g>
				<text transform="matrix(0 -1 1 0 6338.415 3296.196)" class="st46 st45">1971</text>
			</g>
			<g>
				<text transform="matrix(0 -1 1 0 6377.2217 3296.196)" class="st46 st45">1972</text>
			</g>
			<g>
				<text transform="matrix(0 -1 1 0 6416.0449 3296.196)" class="st46 st45">1973</text>
			</g>
			<g>
				<text transform="matrix(0 -1 1 0 6454.792 3296.196)" class="st46 st45">1974</text>
			</g>
			<g>
				<text transform="matrix(0 -1 1 0 6493.6074 3296.196)" class="st46 st45">1975</text>
			</g>
			<g>
				<text transform="matrix(0 -1 1 0 6532.415 3296.196)" class="st46 st45">1976</text>
			</g>
			<g>
				<text transform="matrix(0 -1 1 0 6571.166 3296.196)" class="st46 st45">1977</text>
			</g>
			<g>
				<text transform="matrix(0 -1 1 0 6609.9775 3296.196)" class="st46 st45">1978</text>
			</g>
			<g>
				<text transform="matrix(0 -1 1 0 6648.7246 3296.2039)" class="st46 st45">1979</text>
			</g>
			<g>
				<text transform="matrix(0 -1 1 0 6687.543 3296.2039)" class="st46 st45">1980</text>
			</g>
			<g>
				<text transform="matrix(0 -1 1 0 6726.3555 3296.2039)" class="st46 st45">1981</text>
			</g>
			<g>
				<text transform="matrix(0 -1 1 0 6765.1016 3296.2039)" class="st46 st45">1982</text>
			</g>
			<g>
				<text transform="matrix(0 -1 1 0 6803.917 3296.2039)" class="st46 st45">1983</text>
			</g>
			<g>
				<text transform="matrix(0 -1 1 0 6842.7324 3296.2039)" class="st46 st45">1984</text>
			</g>
			<g>
				<text transform="matrix(0 -1 1 0 6881.4795 3296.2039)" class="st46 st45">1985</text>
			</g>
			<g>
				<text transform="matrix(0 -1 1 0 6920.2988 3296.2039)" class="st46 st45">1986</text>
			</g>
			<g>
				<text transform="matrix(0 -1 1 0 6959.041 3296.1882)" class="st46 st45">1987</text>
			</g>
			<g>
				<text transform="matrix(0 -1 1 0 6997.8535 3296.1882)" class="st46 st45">1988</text>
			</g>
			<g>
				<text transform="matrix(0 -1 1 0 7036.668 3296.1882)" class="st46 st45">1989</text>
			</g>
			<g>
				<text transform="matrix(0 -1 1 0 7075.4238 3296.196)" class="st46 st45">1990</text>
			</g>
			<g>
				<text transform="matrix(0 -1 1 0 7114.2344 3296.196)" class="st46 st45">1991</text>
			</g>
			<g>
				<text transform="matrix(0 -1 1 0 7152.9854 3296.196)" class="st46 st45">1992</text>
			</g>
			<g>
				<text transform="matrix(0 -1 1 0 7191.793 3296.196)" class="st46 st45">1993</text>
			</g>
			<g>
				<text transform="matrix(0 -1 1 0 7230.6016 3296.196)" class="st46 st45">1994</text>
			</g>
			<g>
				<text transform="matrix(0 -1 1 0 7269.3516 3296.196)" class="st46 st45">1995</text>
			</g>
			<g>
				<text transform="matrix(0 -1 1 0 7308.1631 3296.196)" class="st46 st45">1996</text>
			</g>
			<g>
				<text transform="matrix(0 -1 1 0 7346.9824 3296.196)" class="st46 st45">1997</text>
			</g>
			<g>
				<text transform="matrix(0 -1 1 0 7385.7295 3296.196)" class="st46 st45">1998</text>
			</g>
			<g>
				<text transform="matrix(0 -1 1 0 7424.5449 3296.196)" class="st46 st45">1999</text>
			</g>
			<g>
				<text transform="matrix(0 -1 1 0 7463.292 3296.196)" class="st46 st45">2000</text>
			</g>
			<g>
				<text transform="matrix(0 -1 1 0 7502.1143 3296.196)" class="st46 st45">2001</text>
			</g>
			<g>
				<text transform="matrix(0 -1 1 0 7540.9268 3296.196)" class="st46 st45">2002</text>
			</g>
			<g>
				<text transform="matrix(0 -1 1 0 7579.665 3296.2039)" class="st46 st45">2003</text>
			</g>
			<g>
				<text transform="matrix(0 -1 1 0 7618.4854 3296.2039)" class="st46 st45">2004</text>
			</g>
			<g>
				<text transform="matrix(0 -1 1 0 7657.2998 3296.2039)" class="st46 st45">2005</text>
			</g>
			<g>
				<text transform="matrix(0 -1 1 0 7696.0439 3296.2039)" class="st46 st45">2006</text>
			</g>
			<g>
				<text transform="matrix(0 -1 1 0 7734.8584 3296.2039)" class="st46 st45">2007</text>
			</g>
			<g>
				<text transform="matrix(0 -1 1 0 7773.6172 3296.2039)" class="st46 st45">2008</text>
			</g>
			<g>
				<text transform="matrix(0 -1 1 0 7812.4248 3296.2039)" class="st46 st45">2009</text>
			</g>
			<g>
				<text transform="matrix(0 -1 1 0 7851.2363 3296.2039)" class="st46 st45">2010</text>
			</g>
			<g>
				<text transform="matrix(0 -1 1 0 7889.9873 3296.196)" class="st46 st45">2011</text>
			</g>
			<g>
				<text transform="matrix(0 -1 1 0 7928.791 3296.196)" class="st46 st45">2012</text>
			</g>
			<g>
				<text transform="matrix(0 -1 1 0 7967.5488 3296.196)" class="st46 st45">2013</text>
			</g>
			<g>
				<text transform="matrix(0 -1 1 0 8006.3613 3296.196)" class="st46 st45">2014</text>
			</g>
			<g>
				<text transform="matrix(0 -1 1 0 8045.1758 3296.196)" class="st46 st45">2015</text>
			</g>
			<g>
				<text transform="matrix(0 -1 1 0 8083.9238 3296.196)" class="st46 st45">2016</text>
			</g>
			<g>
				<text transform="matrix(0 -1 1 0 8122.7383 3296.196)" class="st46 st45">2017</text>
			</g>
			<g>
				<text transform="matrix(0 -1 1 0 8161.5547 3296.196)" class="st46 st45">2018</text>
			</g>
			<g>
				<text transform="matrix(0 -1 1 0 8200.3086 3296.196)" class="st46 st45">2019</text>
			</g>
			<g>
				<text transform="matrix(0 -1 1 0 8239.1152 3296.196)" class="st46 st45">2020</text>
			</g>
			<g>
				<text transform="matrix(0 -1 1 0 8277.8516 3296.196)" class="st46 st45">2021</text>
			</g>
			<g>
				<text transform="matrix(0 -1 1 0 8316.6699 3297.2507)" class="st44 st45">2022</text>
			</g>
		</g>
	</g>
	<g>
		<polygon points="192.4,3200.5 200.1,3189.3 207.8,3200.5 		"/>
		<polygon points="231.2,3200.5 238.9,3189.3 246.5,3200.5 		"/>
		<polygon points="270,3200.5 277.6,3189.3 285.3,3200.5 		"/>
		<polygon points="308.8,3200.5 316.4,3189.3 324.1,3200.5 		"/>
		<polygon points="347.5,3200.5 355.2,3189.3 362.9,3200.5 		"/>
		<polygon points="386.3,3200.5 394,3189.3 401.7,3200.5 		"/>
		<polygon points="425.1,3200.5 432.8,3189.3 440.5,3200.5 		"/>
		<polygon points="463.9,3200.5 471.6,3189.3 479.3,3200.5 		"/>
		<polygon points="502.7,3200.5 510.4,3189.3 518,3200.5 		"/>
		<polygon points="541.5,3200.5 549.2,3189.3 556.8,3200.5 		"/>
		<polygon points="580.3,3200.5 587.9,3189.3 595.6,3200.5 		"/>
		<polygon points="619,3200.5 626.7,3189.3 634.4,3200.5 		"/>
		<polygon points="657.8,3200.5 665.5,3189.3 673.2,3200.5 		"/>
		<polygon points="696.6,3200.5 704.3,3189.3 712,3200.5 		"/>
		<polygon points="735.4,3200.5 743.1,3189.3 750.8,3200.5 		"/>
		<polygon points="774.2,3200.5 781.9,3189.3 789.5,3200.5 		"/>
		<polygon points="813,3200.5 820.7,3189.3 828.3,3200.5 		"/>
		<polygon points="851.8,3200.5 859.4,3189.3 867.1,3200.5 		"/>
		<polygon points="890.5,3200.5 898.2,3189.3 905.9,3200.5 		"/>
		<polygon points="929.3,3200.5 937,3189.3 944.7,3200.5 		"/>
		<polygon points="968.1,3200.5 975.8,3189.3 983.5,3200.5 		"/>
		<polygon points="1006.9,3200.5 1014.6,3189.3 1022.3,3200.5 		"/>
		<polygon points="1045.7,3200.5 1053.4,3189.3 1061,3200.5 		"/>
		<polygon points="1084.5,3200.5 1092.2,3189.3 1099.8,3200.5 		"/>
		<polygon points="1123.3,3200.5 1130.9,3189.3 1138.6,3200.5 		"/>
		<polygon points="1162.1,3200.5 1169.7,3189.3 1177.4,3200.5 		"/>
		<polygon points="1200.8,3200.5 1208.5,3189.3 1216.2,3200.5 		"/>
		<polygon points="1239.7,3200.5 1247.3,3189.3 1255,3200.5 		"/>
		<polygon points="1278.5,3200.5 1286.1,3189.3 1293.8,3200.5 		"/>
		<polygon points="1317.2,3200.5 1324.9,3189.3 1332.6,3200.5 		"/>
		<polygon points="1356,3200.5 1363.7,3189.3 1371.4,3200.5 		"/>
		<polygon points="1394.8,3200.5 1402.5,3189.3 1410.2,3200.5 		"/>
		<polygon points="1433.6,3200.5 1441.3,3189.3 1449,3200.5 		"/>
		<polygon points="1472.4,3200.5 1480.1,3189.3 1487.7,3200.5 		"/>
		<polygon points="1511.2,3200.5 1518.8,3189.3 1526.5,3200.5 		"/>
		<polygon points="1550,3200.5 1557.6,3189.3 1565.3,3200.5 		"/>
		<polygon points="1588.7,3200.5 1596.4,3189.3 1604.1,3200.5 		"/>
		<polygon points="1627.5,3200.5 1635.2,3189.3 1642.9,3200.5 		"/>
		<polygon points="1666.3,3200.5 1674,3189.3 1681.7,3200.5 		"/>
		<polygon points="1705.1,3200.5 1712.8,3189.3 1720.5,3200.5 		"/>
		<polygon points="1743.9,3200.5 1751.6,3189.3 1759.2,3200.5 		"/>
		<polygon points="1782.7,3200.5 1790.4,3189.3 1798,3200.5 		"/>
		<polygon points="1821.5,3200.5 1829.1,3189.3 1836.8,3200.5 		"/>
		<polygon points="1860.2,3200.5 1867.9,3189.3 1875.6,3200.5 		"/>
		<polygon points="1899,3200.5 1906.7,3189.3 1914.4,3200.5 		"/>
		<polygon points="1937.8,3200.5 1945.5,3189.3 1953.2,3200.5 		"/>
		<polygon points="1976.6,3200.5 1984.3,3189.3 1992,3200.5 		"/>
		<polygon points="2015.4,3200.5 2023.1,3189.3 2030.7,3200.5 		"/>
		<polygon points="2054.2,3200.5 2061.9,3189.3 2069.5,3200.5 		"/>
		<polygon points="2093,3200.5 2100.6,3189.3 2108.3,3200.5 		"/>
		<polygon points="2131.8,3200.5 2139.4,3189.3 2147.1,3200.5 		"/>
		<polygon points="2170.5,3200.5 2178.2,3189.3 2185.9,3200.5 		"/>
		<polygon points="2209.3,3200.5 2217,3189.3 2224.7,3200.5 		"/>
		<polygon points="2248.1,3200.5 2255.8,3189.3 2263.5,3200.5 		"/>
		<polygon points="2286.9,3200.5 2294.6,3189.3 2302.3,3200.5 		"/>
		<polygon points="2325.7,3200.5 2333.4,3189.3 2341.1,3200.5 		"/>
		<polygon points="2364.5,3200.5 2372.2,3189.3 2379.9,3200.5 		"/>
		<polygon points="2403.3,3200.5 2411,3189.3 2418.7,3200.5 		"/>
		<polygon points="2442.1,3200.5 2449.8,3189.3 2457.4,3200.5 		"/>
		<polygon points="2480.9,3200.5 2488.5,3189.3 2496.2,3200.5 		"/>
		<polygon points="2519.7,3200.5 2527.3,3189.3 2535,3200.5 		"/>
		<polygon points="2558.4,3200.5 2566.1,3189.3 2573.8,3200.5 		"/>
		<polygon points="2597.2,3200.5 2604.9,3189.3 2612.6,3200.5 		"/>
		<polygon points="2636,3200.5 2643.7,3189.3 2651.4,3200.5 		"/>
		<polygon points="2674.8,3200.5 2682.5,3189.3 2690.2,3200.5 		"/>
		<polygon points="2713.6,3200.5 2721.3,3189.3 2728.9,3200.5 		"/>
		<polygon points="2752.4,3200.5 2760.1,3189.3 2767.7,3200.5 		"/>
		<polygon points="2791.2,3200.5 2798.8,3189.3 2806.5,3200.5 		"/>
		<polygon points="2829.9,3200.5 2837.6,3189.3 2845.3,3200.5 		"/>
		<polygon points="2868.7,3200.5 2876.4,3189.3 2884.1,3200.5 		"/>
		<polygon points="2907.5,3200.5 2915.2,3189.3 2922.9,3200.5 		"/>
		<polygon points="2946.3,3200.5 2954,3189.3 2961.7,3200.5 		"/>
		<polygon points="2985.1,3200.5 2992.8,3189.3 3000.4,3200.5 		"/>
		<polygon points="3023.9,3200.5 3031.6,3189.3 3039.2,3200.5 		"/>
		<polygon points="3062.7,3200.5 3070.3,3189.3 3078,3200.5 		"/>
		<polygon points="3101.5,3200.5 3109.1,3189.3 3116.8,3200.5 		"/>
		<polygon points="3140.2,3200.5 3147.9,3189.3 3155.6,3200.5 		"/>
		<polygon points="3179,3200.5 3186.7,3189.3 3194.4,3200.5 		"/>
		<polygon points="3217.8,3200.5 3225.5,3189.3 3233.2,3200.5 		"/>
		<polygon points="3256.6,3200.5 3264.3,3189.3 3271.9,3200.5 		"/>
		<polygon points="3295.4,3200.5 3303.1,3189.3 3310.7,3200.5 		"/>
		<polygon points="3334.2,3200.5 3341.9,3189.3 3349.6,3200.5 		"/>
		<polygon points="3373,3200.5 3380.7,3189.3 3388.4,3200.5 		"/>
		<polygon points="3411.8,3200.5 3419.5,3189.3 3427.1,3200.5 		"/>
		<polygon points="3450.6,3200.5 3458.2,3189.3 3465.9,3200.5 		"/>
		<polygon points="3489.4,3200.5 3497,3189.3 3504.7,3200.5 		"/>
		<polygon points="3528.1,3200.5 3535.8,3189.3 3543.5,3200.5 		"/>
		<polygon points="3566.9,3200.5 3574.6,3189.3 3582.3,3200.5 		"/>
		<polygon points="3605.7,3200.5 3613.4,3189.3 3621.1,3200.5 		"/>
		<polygon points="3644.5,3200.5 3652.2,3189.3 3659.9,3200.5 		"/>
		<polygon points="3683.3,3200.5 3691,3189.3 3698.6,3200.5 		"/>
		<polygon points="3722.1,3200.5 3729.8,3189.3 3737.4,3200.5 		"/>
		<polygon points="3760.9,3200.5 3768.5,3189.3 3776.2,3200.5 		"/>
		<polygon points="3799.6,3200.5 3807.3,3189.3 3815,3200.5 		"/>
		<polygon points="3838.4,3200.5 3846.1,3189.3 3853.8,3200.5 		"/>
		<polygon points="3877.2,3200.5 3884.9,3189.3 3892.6,3200.5 		"/>
		<polygon points="3916,3200.5 3923.7,3189.3 3931.4,3200.5 		"/>
		<polygon points="3954.8,3200.5 3962.5,3189.3 3970.1,3200.5 		"/>
		<polygon points="3993.6,3200.5 4001.3,3189.3 4008.9,3200.5 		"/>
		<polygon points="4032.4,3200.5 4040,3189.3 4047.7,3200.5 		"/>
		<polygon points="4071.2,3200.5 4078.8,3189.3 4086.5,3200.5 		"/>
		<polygon points="4109.9,3200.5 4117.6,3189.3 4125.3,3200.5 		"/>
		<polygon points="4148.7,3200.5 4156.4,3189.3 4164.1,3200.5 		"/>
		<polygon points="4187.5,3200.5 4195.2,3189.3 4202.9,3200.5 		"/>
		<polygon points="4226.3,3200.5 4234,3189.3 4241.6,3200.5 		"/>
		<polygon points="4265.1,3200.5 4272.8,3189.3 4280.4,3200.5 		"/>
		<polygon points="4303.9,3200.5 4311.5,3189.3 4319.2,3200.5 		"/>
		<polygon points="4342.7,3200.5 4350.3,3189.3 4358,3200.5 		"/>
		<polygon points="4381.6,3200.5 4389.2,3189.3 4396.9,3200.5 		"/>
		<polygon points="4420.4,3200.5 4428,3189.3 4435.7,3200.5 		"/>
		<polygon points="4459.1,3200.5 4466.8,3189.3 4474.5,3200.5 		"/>
		<polygon points="4497.9,3200.5 4505.6,3189.3 4513.3,3200.5 		"/>
		<polygon points="4536.7,3200.5 4544.4,3189.3 4552.1,3200.5 		"/>
		<polygon points="4575.5,3200.5 4583.2,3189.3 4590.8,3200.5 		"/>
		<polygon points="4614.3,3200.5 4622,3189.3 4629.6,3200.5 		"/>
		<polygon points="4653.1,3200.5 4660.7,3189.3 4668.4,3200.5 		"/>
		<polygon points="4691.9,3200.5 4699.5,3189.3 4707.2,3200.5 		"/>
		<polygon points="4730.6,3200.5 4738.3,3189.3 4746,3200.5 		"/>
		<polygon points="4769.4,3200.5 4777.1,3189.3 4784.8,3200.5 		"/>
		<polygon points="4808.2,3200.5 4815.9,3189.3 4823.6,3200.5 		"/>
		<polygon points="4847,3200.5 4854.7,3189.3 4862.4,3200.5 		"/>
		<polygon points="4885.8,3200.5 4893.5,3189.3 4901.1,3200.5 		"/>
		<polygon points="4924.6,3200.5 4932.2,3189.3 4939.9,3200.5 		"/>
		<polygon points="4963.4,3200.5 4971,3189.3 4978.7,3200.5 		"/>
		<polygon points="5002.1,3200.5 5009.8,3189.3 5017.5,3200.5 		"/>
		<polygon points="5040.9,3200.5 5048.6,3189.3 5056.3,3200.5 		"/>
		<polygon points="5079.7,3200.5 5087.4,3189.3 5095.1,3200.5 		"/>
		<polygon points="5118.5,3200.5 5126.2,3189.3 5133.9,3200.5 		"/>
		<polygon points="5157.3,3200.5 5165,3189.3 5172.6,3200.5 		"/>
		<polygon points="5196.1,3200.5 5203.8,3189.3 5211.4,3200.5 		"/>
		<polygon points="5234.9,3200.5 5242.5,3189.3 5250.2,3200.5 		"/>
		<polygon points="5273.6,3200.5 5281.3,3189.3 5289,3200.5 		"/>
		<polygon points="5312.4,3200.5 5320.1,3189.3 5327.8,3200.5 		"/>
		<polygon points="5351.2,3200.5 5358.9,3189.3 5366.6,3200.5 		"/>
		<polygon points="5390,3200.5 5397.7,3189.3 5405.4,3200.5 		"/>
		<polygon points="5428.8,3200.5 5436.5,3189.3 5444.2,3200.5 		"/>
		<polygon points="5467.6,3200.5 5475.3,3189.3 5483,3200.5 		"/>
		<polygon points="5506.4,3200.5 5514.1,3189.3 5521.8,3200.5 		"/>
		<polygon points="5545.2,3200.5 5552.9,3189.3 5560.5,3200.5 		"/>
		<polygon points="5584,3200.5 5591.7,3189.3 5599.3,3200.5 		"/>
		<polygon points="5622.8,3200.5 5630.4,3189.3 5638.1,3200.5 		"/>
		<polygon points="5661.6,3200.5 5669.2,3189.3 5676.9,3200.5 		"/>
		<polygon points="5700.3,3200.5 5708,3189.3 5715.7,3200.5 		"/>
		<polygon points="5739.1,3200.5 5746.8,3189.3 5754.5,3200.5 		"/>
		<polygon points="5777.9,3200.5 5785.6,3189.3 5793.3,3200.5 		"/>
		<polygon points="5816.7,3200.5 5824.4,3189.3 5832.1,3200.5 		"/>
		<polygon points="5855.5,3200.5 5863.2,3189.3 5870.8,3200.5 		"/>
		<polygon points="5894.3,3200.5 5901.9,3189.3 5909.6,3200.5 		"/>
		<polygon points="5933.1,3200.5 5940.7,3189.3 5948.4,3200.5 		"/>
		<polygon points="5971.8,3200.5 5979.5,3189.3 5987.2,3200.5 		"/>
		<polygon points="6010.6,3200.5 6018.3,3189.3 6026,3200.5 		"/>
		<polygon points="6049.4,3200.5 6057.1,3189.3 6064.8,3200.5 		"/>
		<polygon points="6088.2,3200.5 6095.9,3189.3 6103.6,3200.5 		"/>
		<polygon points="6127,3200.5 6134.7,3189.3 6142.3,3200.5 		"/>
		<polygon points="6165.8,3200.5 6173.5,3189.3 6181.1,3200.5 		"/>
		<polygon points="6204.6,3200.5 6212.2,3189.3 6219.9,3200.5 		"/>
		<polygon points="6243.3,3200.5 6251,3189.3 6258.7,3200.5 		"/>
		<polygon points="6282.1,3200.5 6289.8,3189.3 6297.5,3200.5 		"/>
		<polygon points="6320.9,3200.5 6328.6,3189.3 6336.3,3200.5 		"/>
		<polygon points="6359.7,3200.5 6367.4,3189.3 6375.1,3200.5 		"/>
		<polygon points="6398.5,3200.5 6406.2,3189.3 6413.8,3200.5 		"/>
		<polygon points="6437.3,3200.5 6445,3189.3 6452.6,3200.5 		"/>
		<polygon points="6476.2,3200.5 6483.9,3189.3 6491.5,3200.5 		"/>
		<polygon points="6515,3200.5 6522.7,3189.3 6530.3,3200.5 		"/>
		<polygon points="6553.8,3200.5 6561.4,3189.3 6569.1,3200.5 		"/>
		<polygon points="6592.6,3200.5 6600.2,3189.3 6607.9,3200.5 		"/>
		<polygon points="6631.3,3200.5 6639,3189.3 6646.7,3200.5 		"/>
		<polygon points="6670.1,3200.5 6677.8,3189.3 6685.5,3200.5 		"/>
		<polygon points="6708.9,3200.5 6716.6,3189.3 6724.3,3200.5 		"/>
		<polygon points="6747.7,3200.5 6755.4,3189.3 6763,3200.5 		"/>
		<polygon points="6786.5,3200.5 6794.2,3189.3 6801.8,3200.5 		"/>
		<polygon points="6825.3,3200.5 6832.9,3189.3 6840.6,3200.5 		"/>
		<polygon points="6864.1,3200.5 6871.7,3189.3 6879.4,3200.5 		"/>
		<polygon points="6902.8,3200.5 6910.5,3189.3 6918.2,3200.5 		"/>
		<polygon points="6941.6,3200.5 6949.3,3189.3 6957,3200.5 		"/>
		<polygon points="6980.4,3200.5 6988.1,3189.3 6995.8,3200.5 		"/>
		<polygon points="7019.2,3200.5 7026.9,3189.3 7034.5,3200.5 		"/>
		<polygon points="7058,3200.5 7065.7,3189.3 7073.3,3200.5 		"/>
		<polygon points="7096.8,3200.5 7104.4,3189.3 7112.1,3200.5 		"/>
		<polygon points="7135.6,3200.5 7143.2,3189.3 7150.9,3200.5 		"/>
		<polygon points="7174.3,3200.5 7182,3189.3 7189.7,3200.5 		"/>
		<polygon points="7213.1,3200.5 7220.8,3189.3 7228.5,3200.5 		"/>
		<polygon points="7251.9,3200.5 7259.6,3189.3 7267.3,3200.5 		"/>
		<polygon points="7290.7,3200.5 7298.4,3189.3 7306.1,3200.5 		"/>
		<polygon points="7329.5,3200.5 7337.2,3189.3 7344.8,3200.5 		"/>
		<polygon points="7368.3,3200.5 7375.9,3189.3 7383.6,3200.5 		"/>
		<polygon points="7407.1,3200.5 7414.7,3189.3 7422.4,3200.5 		"/>
		<polygon points="7445.8,3200.5 7453.5,3189.3 7461.2,3200.5 		"/>
		<polygon points="7484.6,3200.5 7492.3,3189.3 7500,3200.5 		"/>
		<polygon points="7523.5,3200.5 7531.1,3189.3 7538.8,3200.5 		"/>
		<polygon points="7562.3,3200.5 7569.9,3189.3 7577.6,3200.5 		"/>
		<polygon points="7601,3200.5 7608.7,3189.3 7616.4,3200.5 		"/>
		<polygon points="7639.8,3200.5 7647.5,3189.3 7655.2,3200.5 		"/>
		<polygon points="7678.6,3200.5 7686.3,3189.3 7694,3200.5 		"/>
		<polygon points="7717.4,3200.5 7725.1,3189.3 7732.7,3200.5 		"/>
		<polygon points="7756.2,3200.5 7763.9,3189.3 7771.5,3200.5 		"/>
		<polygon points="7795,3200.5 7802.6,3189.3 7810.3,3200.5 		"/>
		<polygon points="7833.8,3200.5 7841.4,3189.3 7849.1,3200.5 		"/>
		<polygon points="7872.5,3200.5 7880.2,3189.3 7887.9,3200.5 		"/>
		<polygon points="7911.3,3200.5 7919,3189.3 7926.7,3200.5 		"/>
		<polygon points="7950.1,3200.5 7957.8,3189.3 7965.5,3200.5 		"/>
		<polygon points="7988.9,3200.5 7996.6,3189.3 8004.2,3200.5 		"/>
		<polygon points="8027.7,3200.5 8035.4,3189.3 8043,3200.5 		"/>
		<polygon points="8066.5,3200.5 8074.1,3189.3 8081.8,3200.5 		"/>
		<polygon points="8105.3,3200.5 8112.9,3189.3 8120.6,3200.5 		"/>
		<polygon points="8144,3200.5 8151.7,3189.3 8159.4,3200.5 		"/>
		<polygon points="8182.8,3200.5 8190.5,3189.3 8198.2,3200.5 		"/>
		<polygon points="8221.6,3200.5 8229.3,3189.3 8237,3200.5 		"/>
		<polygon points="8260.4,3200.5 8268.1,3189.3 8275.8,3200.5 		"/>
		<polygon points="8299.2,3200.5 8306.9,3189.3 8314.5,3200.5 		"/>
	</g>
	<rect x="301.3" y="3540.4" class="st47" width="1098.4" height="378.6"/>
	<text transform="matrix(1 0 0 1 301.2531 3580.9062)"><tspan x="0" y="0" class="st48 st49">1815:</tspan><tspan x="0" y="73" class="st46 st50">Erupcin volcn Monte Tambora, Indonesia. La mayor </tspan><tspan x="0" y="121" class="st46 st50">erupcin volcnica de la historia hasta la actualidad, las </tspan><tspan x="0" y="169" class="st46 st50">cenizas permanecieron por varios aos en la atmsfera y </tspan><tspan x="0" y="217" class="st46 st50">logr disminuir la temperatura media global ms de 2.5C</tspan></text>
	<rect x="179" y="737" class="st47" width="273.6" height="378.6"/>
	<text transform="matrix(1 0 0 1 178.9867 777.4521)"><tspan x="0" y="0" class="st48 st49">1750:</tspan><tspan x="0" y="73" class="st46 st50">Inicio de la </tspan><tspan x="0" y="121" class="st46 st50">revolucin </tspan><tspan x="0" y="169" class="st46 st50">industrial</tspan></text>
	<rect x="1680.9" y="3540.4" class="st47" width="281.2" height="378.6"/>
	<text transform="matrix(1 0 0 1 1680.8665 3580.9062)"><tspan x="0" y="0" class="st48 st49">1836:</tspan><tspan x="0" y="73" class="st46 st50">Estalla la </tspan><tspan x="0" y="121" class="st46 st50">guerra contra la </tspan><tspan x="0" y="169" class="st46 st50">confederacin </tspan><tspan x="0" y="217" class="st46 st50">Per Boliviana</tspan></text>
	<rect x="2108.4" y="3540.4" class="st47" width="256.1" height="378.6"/>
	<text transform="matrix(1 0 0 1 2108.4155 3580.9062)"><tspan x="0" y="0" class="st48 st49">1879: </tspan><tspan x="0" y="73" class="st46 st50">Inicia la </tspan><tspan x="0" y="121" class="st46 st50">Guerra del </tspan><tspan x="0" y="169" class="st46 st50">Pacfico</tspan></text>
	<rect x="2519.2" y="3540.4" class="st47" width="275.9" height="378.6"/>
	<text transform="matrix(1 0 0 1 2519.2329 3580.9062)"><tspan x="0" y="0" class="st48 st49">1914:</tspan><tspan x="0" y="73" class="st46 st50">Estalla la </tspan><tspan x="0" y="121" class="st46 st50">primera guerra </tspan><tspan x="0" y="169" class="st46 st50">mundial</tspan></text>
	<rect x="2887" y="3540.4" class="st47" width="265.4" height="378.6"/>
	<text transform="matrix(1 0 0 1 2887.041 3580.9062)"><tspan x="0" y="0" class="st48 st49">1919:</tspan><tspan x="0" y="73" class="st46 st50">Fin a la </tspan><tspan x="0" y="121" class="st46 st50">primera guerra </tspan><tspan x="0" y="169" class="st46 st50">mundial</tspan></text>
	<rect x="3417.5" y="3540.4" class="st47" width="280.3" height="378.6"/>
	<text transform="matrix(1 0 0 1 3417.488 3580.9062)"><tspan x="0" y="0" class="st48 st49">1939:</tspan><tspan x="0" y="73" class="st46 st50">Estalla la </tspan><tspan x="0" y="121" class="st46 st50">segunda guerra </tspan><tspan x="0" y="169" class="st46 st50">mundial</tspan></text>
	<rect x="4661.1" y="3540.4" class="st47" width="486.9" height="378.6"/>
	<text transform="matrix(1 0 0 1 4661.083 3580.9062)"><tspan x="0" y="0" class="st48 st49">1948-1949:</tspan><tspan x="0" y="73" class="st46 st50">Erupcin del Volcn </tspan><tspan x="0" y="121" class="st46 st50">Villarrica, Chile. La mayor </tspan><tspan x="0" y="169" class="st46 st50">erupcin de este volcn en </tspan><tspan x="0" y="217" class="st46 st50">Chile hasta el momento</tspan></text>
	<rect x="5480.6" y="3540.4" class="st47" width="425.4" height="378.6"/>
	<text transform="matrix(1 0 0 1 5480.6382 3580.9062)"><tspan x="0" y="0" class="st48 st49">1969:</tspan><tspan x="0" y="73" class="st46 st50">Llegada del humano a </tspan><tspan x="0" y="121" class="st46 st50">la luna, primeras </tspan><tspan x="0" y="169" class="st46 st50">mediciones satelitales </tspan><tspan x="0" y="217" class="st46 st50">de la atmsfera</tspan></text>
	<rect x="6171.6" y="3540.4" class="st47" width="345.4" height="378.6"/>
	<text transform="matrix(1 0 0 1 6171.584 3580.9062)"><tspan x="0" y="0" class="st48 st49">1993:</tspan><tspan x="0" y="73" class="st46 st50">Erupcin volcn </tspan><tspan x="0" y="121" class="st46 st50">Lscar, Chile</tspan></text>
	<rect x="6729.7" y="3540.4" class="st47" width="886" height="378.6"/>
	<text transform="matrix(1 0 0 1 6729.7427 3580.9062)"><tspan x="0" y="0" class="st48 st49">2011-2012:</tspan><tspan x="0" y="73" class="st46 st50">Erupcin complejo volcnico Puyehue-Cordn </tspan><tspan x="0" y="121" class="st46 st50">Caulle, Chile. Cenizas llegan hasta Argentina y </tspan><tspan x="0" y="169" class="st46 st50">hay interrupcin del trfico areo en el hemisferio </tspan><tspan x="0" y="217" class="st46 st50">sur, incluyendo Sudfrica y Australia</tspan></text>
	<rect x="7903.7" y="3540.4" class="st47" width="389.7" height="378.6"/>
	<text transform="matrix(1 0 0 1 7903.7017 3580.9062)"><tspan x="0" y="0" class="st48 st49">2018:</tspan><tspan x="0" y="73" class="st46 st50">Alerta ambiental </tspan><tspan x="0" y="121" class="st46 st50">Quintero-Puchuncav </tspan></text>
	<rect x="673.5" y="737" class="st47" width="390.3" height="378.6"/>
	<text transform="matrix(1 0 0 1 673.5289 777.4521)"><tspan x="0" y="0" class="st48 st49">1833:</tspan><tspan x="0" y="73" class="st46 st50">Erupcin volcn </tspan><tspan x="0" y="121" class="st46 st50">Krakatoa, Indonesia. </tspan><tspan x="0" y="169" class="st46 st50">33 mil persona </tspan><tspan x="0" y="217" class="st46 st50">fallecidas</tspan></text>
	<rect x="1219.2" y="737" class="st47" width="261.5" height="378.6"/>
	<text transform="matrix(1 0 0 1 1219.2384 777.4521)"><tspan x="0" y="0" class="st48 st49">1840:</tspan><tspan x="0" y="73" class="st46 st50">Fin de la </tspan><tspan x="0" y="121" class="st46 st50">revolucin </tspan><tspan x="0" y="169" class="st46 st50">industrial</tspan></text>
	<rect x="1604.6" y="737" class="st47" width="630.6" height="378.6"/>
	<text transform="matrix(1 0 0 1 1604.6459 777.4521)"><tspan x="0" y="0" class="st48 st49">1891:</tspan><tspan x="0" y="73" class="st46 st50">La Guerra Civil de 1891 se extiende </tspan><tspan x="0" y="121" class="st46 st50">por 6 meses teniendo una de sus </tspan><tspan x="0" y="169" class="st46 st50">ltimos episodios en las batallas </tspan><tspan x="0" y="217" class="st46 st50">de Concn y Placilla.</tspan></text>
	<rect x="2436.6" y="737" class="st47" width="427.7" height="378.6"/>
	<text transform="matrix(1 0 0 1 2436.6125 777.4521)"><tspan x="0" y="0" class="st48 st49">1914:</tspan><tspan x="0" y="73" class="st46 st50">Chile se declara neutral </tspan><tspan x="0" y="121" class="st46 st50">ante el estallido de la </tspan><tspan x="0" y="169" class="st46 st50">Primera Guerra </tspan><tspan x="0" y="217" class="st46 st50">Mundial.</tspan></text>
	<rect x="3855.7" y="737" class="st47" width="765.8" height="378.6"/>
	<text transform="matrix(1 0 0 1 3855.7124 777.4521)"><tspan x="0" y="0" class="st48 st49">1932:</tspan><tspan x="0" y="73" class="st46 st50">Erupcin volcn Quizapu, mayor erupcin </tspan><tspan x="0" y="121" class="st46 st50">ocurrida en tiempos histricos de Chile. </tspan><tspan x="0" y="169" class="st46 st50">Cada de ceniza en Chile central, Argentina, </tspan><tspan x="0" y="217" class="st46 st50">Uruguay y el sur de Brasil.</tspan></text>
	<rect x="4913.6" y="737" class="st47" width="287.3" height="378.6"/>
	<text transform="matrix(1 0 0 1 4913.5576 777.4521)"><tspan x="0" y="0" class="st48 st49">1945:</tspan><tspan x="0" y="73" class="st46 st50">Fin a la </tspan><tspan x="0" y="121" class="st46 st50">segunda guerra </tspan><tspan x="0" y="169" class="st46 st50">mundial</tspan></text>
	<rect x="5475.2" y="737" class="st47" width="564.8" height="378.6"/>
	<text transform="matrix(1 0 0 1 5475.2144 777.4521)"><tspan x="0" y="0" class="st48 st49">1962:</tspan><tspan x="0" y="73" class="st46 st50">Relacin de la contaminacin </tspan><tspan x="0" y="121" class="st46 st50">de plomo con los combustibles </tspan><tspan x="0" y="169" class="st46 st50">fsiles: Clair Patterson y </tspan><tspan x="0" y="217" class="st46 st50">Tsaihwa Chow</tspan></text>
	<rect x="6403.6" y="737" class="st47" width="717.4" height="378.6"/>
	<text transform="matrix(1 0 0 1 6403.5708 777.4521)"><tspan x="0" y="0" class="st48 st49">1991:</tspan><tspan x="0" y="73" class="st46 st50">Erupcin volcn Pinatubo, Filipinas. Una </tspan><tspan x="0" y="121" class="st46 st50">de las erupciones ms violentas del </tspan><tspan x="0" y="169" class="st46 st50">siglo XX, se produjo una disminucin de </tspan><tspan x="0" y="217" class="st46 st50">la temperatura media global de 0.5C</tspan></text>
	<rect x="7437.7" y="737" class="st47" width="291.3" height="378.6"/>
	<text transform="matrix(1 0 0 1 7437.6958 777.4521)"><tspan x="0" y="0" class="st48 st49">2008-2009:</tspan><tspan x="0" y="73" class="st46 st50">Erupcin volcn </tspan><tspan x="0" y="121" class="st46 st50">Chaitn</tspan></text>
	<rect x="8013.6" y="737" class="st47" width="299.9" height="378.6"/>
	<text transform="matrix(1 0 0 1 8013.5679 777.4521)"><tspan x="0" y="0" class="st48 st49">2015:</tspan><tspan x="0" y="73" class="st46 st50">Erupcin volcn </tspan><tspan x="0" y="121" class="st46 st50">Calbuco, Chile</tspan></text>
	<g>
		<text transform="matrix(1 0 0 1 179.1442 470.6649)"><tspan x="0" y="0" class="st9 st51 st52">CONCENTRACIN DE DIXIDO DE CARBONO (CO</tspan><tspan x="4419.9" y="147" class="st9 st51 st52"></tspan><tspan x="4528.9" y="0" class="st9 st51 st52">)* EN LA ATMSFERA A ESCALA GLOBAL </tspan></text>
	</g>
	<rect x="179.1" y="547.1" class="st47" width="3335" height="253.7"/>
	<text transform="matrix(1 0 0 1 179.1446 628.066)" class="st53 st54">(desde 1750 a 2022)</text>
	<rect x="4989.7" y="547.1" class="st47" width="3335" height="253.7"/>
	<text transform="matrix(1 0 0 1 7386.3125 628.066)" class="st53 st54">* Gas de efecto invernadero</text>
	<rect x="768.3" y="2649.5" class="st47" width="823.1" height="461.4"/>
	<text transform="matrix(1 0 0 1 799.3058 2690.0149)"><tspan x="0" y="0" class="st48 st49">Qu tan pura era la atmsfera </tspan><tspan x="43.9" y="60" class="st48 st49">antes y despus de la primera </tspan><tspan x="188.3" y="120" class="st48 st49">guerra mundial?</tspan></text>
	<rect x="511.9" y="2068.2" class="st47" width="1329.7" height="461.4"/>
	<text transform="matrix(1 0 0 1 526.1655 2105.7061)"><tspan x="0" y="0" class="st46 st49">Concentracin anual promedio de molculas de dixido de </tspan><tspan x="9.5" y="60" class="st46 st49">carbono (CO2) en la atmsfera. La concentracin se mide </tspan><tspan x="6" y="120" class="st46 st49">en molculas de CO2 contenidas por cada milln de mol</tspan><tspan x="1281.2" y="120" class="st46 st49">-</tspan><tspan x="-2.1" y="180" class="st46 st49">culas de gases  atmosfricos. La atmsfera es una mezcla </tspan><tspan x="21.9" y="240" class="st46 st49">de distintos tipos de gases, los principales componentes </tspan><tspan x="17.7" y="300" class="st46 st49">son: el nitrgeno 78% de N2), oxgeno (21% de O2), argn </tspan><tspan x="28.3" y="360" class="st46 st49">(0,93% de Ar) y muchos otros gases en concentraciones </tspan><tspan x="379.7" y="420" class="st46 st49">menores o niveles traza.   </tspan></text>
	<g>
		<text transform="matrix(1 0 0 1 2604.8496 3944.6492)" class="st46 st55">Fuentes: National Geographic (https://www.nationalgeographic.com.es/), Sernageomin (https://www.sernageomin.cl/pdf/LIBROdevolcanes_SERNAGEOMIN.pdf), Biblioteca Nacional de Chile (https://www.memoriachilena.gob.cl/602/w3-propertyname-559.html), Organizacin Mundial de la Salud (https://www.who.int/es), Conaf (https://www.conaf.cl/incendios-forestales/), Direccin general de aguas.</text>
	</g>
	<g>
		<g>
			<g>
				<text transform="matrix(1 0 0 1 859.4523 1715.8903)" class="st56 st50">Concentracin de molculas de CO2</text>
			</g>
		</g>
		<g>
			<text transform="matrix(1 0 0 1 686.1525 1795.2252)" class="st46 st50">280</text>
		</g>
		<g>
			<text transform="matrix(1 0 0 1 828.1261 1795.2252)" class="st46 st50">300</text>
		</g>
		<g>
			<text transform="matrix(1 0 0 1 970.0968 1795.2252)" class="st46 st50">320</text>
		</g>
		<g>
			<text transform="matrix(1 0 0 1 1111.9991 1795.2252)" class="st46 st50">340</text>
		</g>
		<g>
			<text transform="matrix(1 0 0 1 1253.9694 1795.2252)" class="st46 st50">360</text>
		</g>
		<g>
			<text transform="matrix(1 0 0 1 1395.9406 1795.2252)" class="st46 st50">380</text>
		</g>
		<g>
			<text transform="matrix(1 0 0 1 1538.1168 1795.2252)" class="st46 st50">400</text>
		</g>
		<g>
			<text transform="matrix(1 0 0 1 1680.087 1795.2252)" class="st46 st50">420</text>
		</g>
	</g>
	<g>
		<path class="st16" d="M5451.3,3658.8c0,31.3-25.4,56.7-56.7,56.7c-31.3,0-56.7-25.4-56.7-56.7c0-31.3,25.4-56.7,56.7-56.7
			C5425.9,3602.2,5451.3,3627.5,5451.3,3658.8z"/>
		<path class="st16" d="M5382.9,3641.6c0,6-4.9,10.9-10.9,10.9c-6,0-10.9-4.9-10.9-10.9c0-6,4.9-10.9,10.9-10.9
			C5378,3630.7,5382.9,3635.6,5382.9,3641.6z"/>
		<path class="st16" d="M5399.3,3692.4c0,4.4-3.6,8-8.1,8c-4.4,0-8-3.6-8-8s3.6-8,8-8C5395.7,3684.4,5399.3,3688,5399.3,3692.4z"/>
		<path class="st16" d="M5437.1,3654.6c0,1.9-1.6,3.5-3.5,3.5c-1.9,0-3.5-1.6-3.5-3.5c0-1.9,1.6-3.5,3.5-3.5
			C5435.5,3651.1,5437.1,3652.7,5437.1,3654.6z"/>
		<path class="st16" d="M5392.9,3614.7c0,1.9-1.6,3.5-3.5,3.5c-1.9,0-3.5-1.6-3.5-3.5c0-1.9,1.6-3.5,3.5-3.5
			C5391.4,3611.2,5392.9,3612.8,5392.9,3614.7z"/>
		<path class="st16" d="M5390.8,3666.4c0,1.9-1.6,3.5-3.5,3.5c-1.9,0-3.5-1.6-3.5-3.5c0-1.9,1.6-3.5,3.5-3.5
			C5389.3,3662.9,5390.8,3664.5,5390.8,3666.4z"/>
		<path class="st16" d="M5361.4,3677.7c0,2-1.6,3.5-3.5,3.5c-1.9,0-3.5-1.6-3.5-3.5c0-1.9,1.6-3.5,3.5-3.5
			C5359.9,3674.2,5361.4,3675.8,5361.4,3677.7z"/>
		<path class="st16" d="M5419.2,3630.3c0,4.2-3.4,7.5-7.5,7.5c-4.1,0-7.5-3.4-7.5-7.5c0-4.1,3.4-7.5,7.5-7.5
			C5415.8,3622.8,5419.2,3626.1,5419.2,3630.3z"/>
	</g>
	<g id="XMLID_3400_">
		<g id="XMLID_3402_">
			<path id="XMLID_3406_" class="st16" d="M4809.7,875.6c-0.4,0.4-1.1,0.4-1.5,0c-0.4-0.4-0.4-1.1,0-1.5c0.4-0.4,1.1-0.4,1.5,0
				C4810.1,874.5,4810.1,875.2,4809.7,875.6z"/>
			<path id="XMLID_3405_" class="st16" d="M4812.6,878.3l8.4,8.4c4.3-4.4,5.7-10.6,4.2-16.2l-11.5,3.1
				C4814.2,875.2,4813.8,877,4812.6,878.3z"/>
			<path id="XMLID_3404_" class="st16" d="M4805.5,871.1l-8.4-8.4c4.4-4.3,10.6-5.7,16.2-4.2l-3.1,11.5
				C4808.6,869.5,4806.8,869.9,4805.5,871.1z"/>
			<path id="XMLID_3403_" class="st16" d="M4807.4,879.7l-3.1,11.5c-6-1.7-10.3-6.4-11.8-12l11.5-3
				C4804.5,877.8,4805.7,879.1,4807.4,879.7z"/>
		</g>
		<path id="XMLID_3401_" class="st16" d="M4779.8,904c-9.1-9.1-10.7-25.3-1.5-34.5c9.2-9.2,27.9-27.9,27.9-27.9l31.3-9.6l-6.4-15
			l18.7-18.7l12.5,20l-11.1,11.1l3.2,3.2l11.1-11.1l20,12.5l-18.7,18.7l-15-6.4l-9.6,31.3c0,0-18.7,18.7-27.9,27.9
			C4805.1,914.7,4788.8,913.1,4779.8,904"/>
	</g>
	<g>
		<g id="XMLID_00000007388155850201606910000012540009905530707102_">
			<path id="XMLID_00000128474938063861182950000007534754851762072973_" class="st16" d="M3342.4,3640.1h35.1
				c4.5,0,8.2,3.7,8.2,8.2c0,1.9-0.4,3.9-1.7,5c-1,0.9-11,7.9-12,8.5c-1,0.6-2,1.2-4.5,1.2c-2.5,0-27.2,0-27.2,0h-10.4
				c0,0-24.7,0-27.2,0s-3.5-0.6-4.5-1.2c-1-0.6-11-7.6-12-8.5c-1.3-1.2-1.7-3.1-1.7-5c0-4.5,3.7-8.2,8.2-8.2h35.1H3342.4z"/>
			<path id="XMLID_00000028309517989008154100000010588934956176726711_" class="st16" d="M3294,3648.3c0,0.7-0.5,1.2-1.2,1.2
				c-0.7,0-1.2-0.5-1.2-1.2c0-0.7,0.5-1.2,1.2-1.2C3293.4,3647.1,3294,3647.7,3294,3648.3z"/>
			<path id="XMLID_00000011003004431106649370000004192905946338794901_" class="st16" d="M3376.1,3648.3c0,0.7,0.6,1.3,1.3,1.3
				c0.7,0,1.3-0.6,1.3-1.3c0-0.7-0.6-1.3-1.3-1.3C3376.7,3647,3376.1,3647.6,3376.1,3648.3z"/>
			<polyline id="XMLID_00000061429302512134427410000016128842666489033149_" class="st16" points="3380.8,3640.7 3386,3637.8 
				3386,3622.8 3299.8,3622.8 3277.4,3641.1 3284.4,3647.1 			"/>
			<polyline id="XMLID_00000101793271349179695960000007622626522182075828_" class="st16" points="3354.5,3622.7 3354.5,3614.4 
				3350.5,3604.7 3323.3,3604.7 3314.6,3611.7 3314.6,3622.8 			"/>
			
				<line id="XMLID_00000131325304847482999110000013351312039243902124_" class="st16" x1="3375.3" y1="3630" x2="3375.3" y2="3632.7"/>
			
				<line id="XMLID_00000117675170470509189990000017125488274813139604_" class="st16" x1="3367.1" y1="3630" x2="3367.1" y2="3632.7"/>
			
				<line id="XMLID_00000068667069479043685750000013848444120765571202_" class="st16" x1="3358.8" y1="3630" x2="3358.8" y2="3632.7"/>
			
				<rect id="XMLID_00000101096460211249734750000011271419028246548378_" x="3272.7" y="3611.8" class="st16" width="12.3" height="6"/>
			
				<line id="XMLID_00000157289009683511138970000018411570137344233348_" class="st16" x1="3314.6" y1="3614.8" x2="3284.9" y2="3614.8"/>
		</g>
		<path id="XMLID_00000009582701838680152730000000010886139190908552_" class="st16" d="M3311.7,3651.6c0,3.3-2.7,6-6,6
			c-3.3,0-6-2.7-6-6c0-3.3,2.7-6,6-6C3309.1,3645.7,3311.7,3648.3,3311.7,3651.6z"/>
		<path id="XMLID_00000106114280809263329830000015333681567190107535_" class="st16" d="M3324.6,3657.6c-3.3,0-6-2.7-6-6
			c0-3.3,2.7-6,6-6c3.3,0,6,2.7,6,6C3330.6,3655,3327.9,3657.6,3324.6,3657.6z"/>
		<path id="XMLID_00000000183883579787889810000010098408126320375430_" class="st16" d="M3343.4,3657.6c-3.3,0-6-2.7-5.9-6
			c0-3.3,2.7-6,6-5.9c3.3,0,6,2.7,5.9,6C3349.4,3655,3346.7,3657.6,3343.4,3657.6z"/>
		<path id="XMLID_00000140012840188038941820000006978605148622966680_" class="st16" d="M3362.2,3657.6c3.3,0,6-2.6,6-5.9
			c0-3.3-2.6-6-5.9-6c-3.3,0-6,2.6-6,5.9C3356.3,3654.9,3358.9,3657.6,3362.2,3657.6z"/>
	</g>
	<g>
		<g>
			<g>
				<g>
					<polyline class="st16" points="1537.4,3643.7 1561.4,3643.7 1561.4,3657.7 1589,3630.1 1561.4,3602.5 1561.4,3616.5 
						1537.4,3616.5 					"/>
					<polyline class="st16" points="1650.8,3643.7 1625.6,3643.7 1625.6,3657.7 1598,3630.1 1625.6,3602.5 1625.6,3616.5 
						1650.8,3616.5 					"/>
					<line class="st16" x1="1596.3" y1="3615.4" x2="1604" y2="3602.2"/>
					<line class="st16" x1="1589.9" y1="3615.4" x2="1582.2" y2="3602.2"/>
					<line class="st16" x1="1596.3" y1="3644.1" x2="1604" y2="3657.2"/>
					<line class="st16" x1="1589.9" y1="3644.1" x2="1582.2" y2="3657.2"/>
				</g>
			</g>
		</g>
	</g>
</g>
</svg>
