<svg xmlns="http://www.w3.org/2000/svg" viewBox="0 0 3242.51 2267.88"><defs><style>.cls-1{isolation:isolate;}.cls-2{fill:#f6e6d3;}.cls-3{fill:#cce8ef;}.cls-4{fill:#b4dee3;}.cls-5{fill:#91d0d0;}.cls-10,.cls-12,.cls-6,.cls-7,.cls-9{fill:none;}.cls-6,.cls-7{stroke:#1d1d1b;}.cls-10,.cls-6,.cls-7,.cls-9{stroke-miterlimit:10;}.cls-6{stroke-width:4.92px;}.cls-7{stroke-width:9.23px;}.cls-13,.cls-8{mix-blend-mode:multiply;}.cls-9{stroke:#706f6f;stroke-width:2.57px;stroke-dasharray:8.57 8.57;}.cls-10{stroke:#8c4614;stroke-width:4.61px;}.cls-11,.cls-15,.cls-17,.cls-21,.cls-30,.cls-36{fill:#1d1d1b;}.cls-12{stroke:#06698c;stroke-linejoin:bevel;stroke-width:2.18px;}.cls-13{opacity:0.58;}.cls-14{fill:#06698c;}.cls-15,.cls-30{font-size:32px;}.cls-15,.cls-17,.cls-28,.cls-30{font-family:Fabriga;}.cls-16{letter-spacing:-0.02em;}.cls-17,.cls-21,.cls-36{font-size:40.2px;}.cls-18{letter-spacing:-0.02em;}.cls-19{letter-spacing:-0.03em;}.cls-20{letter-spacing:-0.02em;}.cls-21,.cls-40{font-family:Fabriga-Bold, Fabriga;font-weight:700;}.cls-22{letter-spacing:-0.01em;}.cls-23{letter-spacing:-0.02em;}.cls-24{letter-spacing:-0.01em;}.cls-25{letter-spacing:0em;}.cls-26{letter-spacing:-0.01em;}.cls-27{letter-spacing:0.02em;}.cls-28{font-weight:400;}.cls-29{letter-spacing:0em;}.cls-30{letter-spacing:-0.01em;}.cls-31{letter-spacing:0em;}.cls-32{letter-spacing:-0.01em;}.cls-33{letter-spacing:-0.02em;}.cls-34{letter-spacing:0em;}.cls-35{letter-spacing:-0.02em;}.cls-36{font-family:FabrigaLight, Fabriga;}.cls-37{letter-spacing:-0.02em;}.cls-38{letter-spacing:-0.09em;}.cls-39{letter-spacing:-0.04em;}.cls-40{font-size:56.28px;fill:#fff;}.cls-41{letter-spacing:-0.04em;}</style></defs><g class="cls-1"><g id="A5"><rect class="cls-2" x="1027.68" y="578.44" width="374.01" height="1154.5"/><rect class="cls-3" x="1668.07" y="578.44" width="464.51" height="1154.5"/><rect class="cls-4" x="2133" y="578.44" width="430.2" height="1152.35"/><rect class="cls-5" x="2563.2" y="578.44" width="470.18" height="1152.35"/><line class="cls-6" x1="397.06" y1="1731.86" x2="3036.56" y2="1731.86"/><line class="cls-6" x1="2758.46" y1="1759.75" x2="2758.46" y2="1730.79"/><line class="cls-6" x1="2396.01" y1="1759.75" x2="2396.01" y2="1730.79"/><line class="cls-6" x1="2033.91" y1="1759.75" x2="2033.91" y2="1730.79"/><line class="cls-6" x1="1671.45" y1="1759.75" x2="1671.45" y2="1730.79"/><line class="cls-7" x1="1729.41" y1="1759.75" x2="1729.41" y2="1714.9"/><line class="cls-6" x1="1309.38" y1="1759.75" x2="1309.38" y2="1730.79"/><line class="cls-6" x1="946.9" y1="1759.75" x2="946.9" y2="1730.79"/><line class="cls-6" x1="584.45" y1="1759.75" x2="584.45" y2="1730.79"/><g class="cls-8"><line class="cls-9" x1="400.24" y1="610.04" x2="3033.38" y2="610.04"/><line class="cls-9" x1="400.24" y1="858.86" x2="3033.38" y2="858.86"/><line class="cls-9" x1="400.24" y1="1107.14" x2="3033.38" y2="1107.14"/><line class="cls-9" x1="400.24" y1="1355.96" x2="3033.38" y2="1355.96"/><line class="cls-9" x1="400.24" y1="1604.24" x2="3033.38" y2="1604.24"/></g><line class="cls-10" x1="1421.17" y1="1125.1" x2="3030.2" y2="1372.32"/><line class="cls-10" x1="1424.35" y1="1167.74" x2="3030.2" y2="1140.93"/><line class="cls-10" x1="403.43" y1="1036.36" x2="1417.99" y2="1125.1"/><line class="cls-6" x1="2563.2" y1="997.06" x2="2563.2" y2="1450.79"/><polygon class="cls-11" points="2543.07 1013.37 2546.67 1016.73 2563.19 998.95 2579.72 1016.73 2583.33 1013.37 2563.19 991.72 2543.07 1013.37"/><polygon class="cls-11" points="2543.07 1434.47 2546.67 1431.12 2563.19 1448.9 2579.72 1431.12 2583.33 1434.47 2563.19 1456.13 2543.07 1434.47"/><path class="cls-12" d="M403.43,1075,419,979.88c1.51-9.2,3.93-9.2,5.39,0L437,1059.58c1.46,9.21,4.18,9.25,6,.11l11.5-56.31c1.87-9.15,4.72-9.12,6.33.07l12,68.48c1.61,9.19,7.05,18.39,12.1,20.45s10.17-3.8,11.4-13L509.8,978.61c1.23-9.24,4-9.35,6.15-.25l10.46,44.14c2.16,9.1,8,16.24,12.88,15.87s12.21,6.38,16.17,15l3.86,8.4c4,8.6,10,22.83,13.41,31.62l5.51,14.16c3.41,8.79,10.32,10.91,15.36,4.72s13.17-6.8,18.09-1.35,10.53,2.43,12.45-6.71l11.33-53.64a130,130,0,0,1,12.16-31.66l.57-1c4.77-8.28,10.61-7.64,13,1.41l9.66,36.79c2.38,9.06,6.82,9.19,9.87.29l6.83-19.93c3.05-8.89,9.27-9.32,13.83-1l1.69,3.11a210.82,210.82,0,0,0,17.46,26.47c5,6.19,13.19,13.49,18.11,16.21s13.06-.11,18.1-6.3,11.7-4,14.82,4.87l6.57,18.68c3.13,8.87,7.69,8.74,10.16-.3l9.31-34.17c2.47-9,5.61-8.89,7,.32l12.88,85.8c1.39,9.21,4,9.26,5.75.09l11.84-61.06c1.78-9.16,7.26-20.87,12.18-26s11.39-16.66,14.37-25.57l7.48-22.3c3-8.91,6.75-8.68,8.36.5l12,68.48c1.62,9.19,7,11.4,12.09,4.91a239.19,239.19,0,0,1,18.11-20.52c4.93-4.79,11.56-1.47,14.73,7.39l6.72,18.73c3.18,8.86,9.81,16.71,14.74,17.45s10.2-6.19,11.72-15.39l12.78-77.29a160.36,160.36,0,0,1,9.77-32.44l4.28-9.59c3.86-8.64,8-8.15,9.12,1.09l13.71,109.3c1.16,9.24,3.3,24.33,4.75,33.54l13,82.09c1.45,9.21,3.57,9.18,4.7-.07l13.81-113.06c1.13-9.24,3.14-24.35,4.46-33.57l13.5-94.35c1.32-9.22,3.39-9.21,4.59,0l13.5,103.16c1.21,9.24,3.6,24.3,5.31,33.47l12.11,64.78c1.71,9.17,6.88,9.85,11.48,1.5l1.15-2.08a168,168,0,0,0,12.71-31.63l9.63-36.54a328.89,328.89,0,0,0,6.57-33.25l13.44-100.74c1.23-9.23,3.86-9.32,5.83-.19l11.09,51.25c2,9.13,4.45,24.17,5.5,33.42l14.11,124.3c1,9.25,6,10.66,11.06,3.13s10.5-21.2,12.15-30.38l11.88-66.08c1.65-9.18,4.67-9.23,6.71-.11l10.92,48.89c2,9.12,7.17,9.62,11.4,1.12l2.5-5c4.23-8.5,11.82-9.3,16.85-1.78s13.27,15.37,18.3,17.43,11-3.68,13.18-12.77l9.84-40.42c2.21-9.09,5.41-9,7.1.16l12.18,66.1a162.42,162.42,0,0,0,10.32,32.31l3.4,7.35c4,8.6,11.36,15.33,16.4,15s10.34-8.2,11.8-17.41l12.62-79.67c1.45-9.2,6.76-16.74,11.78-16.74H1418"/><path class="cls-12" d="M1418,1200.45l14.75-77.71a176.46,176.46,0,0,1,10.18-32.38l4.28-9.61a319.93,319.93,0,0,0,11.9-32l8.11-27.11c2.69-9,6.16-8.81,7.72.38l12.67,74.89c1.56,9.19,6.86,21.72,11.78,27.84s10.47,18.6,12.34,27.75l11.51,56.31c1.87,9.15,4.75,9.12,6.4-.06l11.91-66.1c1.65-9.18,7.12-16.69,12.14-16.69a58.06,58.06,0,0,0,18.3-3.75c5-2.07,11.51,3.56,14.36,12.5l7.51,23.51c2.85,8.94,8.93,9.42,13.49,1.06l1.7-3.1c4.56-8.36,9.56-7.68,11.11,1.51l12.3,73.28c1.55,9.19,3.57,9.14,4.5-.12l14.9-148.93c.92-9.26,3.18-9.35,5-.19l11.26,56.29c1.83,9.15,4.37,9.09,5.64-.14l13.69-99.43c1.27-9.23,3.93-9.31,5.92-.18l10.66,48.83c2,9.13,4.32,24.18,5.19,33.44l15.18,162.57c.87,9.27,2.33,9.27,3.24,0l14.57-147.83c.91-9.26,4.26-9.59,7.44-.74l6.73,18.74c3.19,8.86,9.82,10,14.75,2.43s11.12-6.31,13.76,2.68l8.67,29.5c2.64,9,5.66,8.78,6.71-.47l14.1-124.27c1.05-9.25,5.9-23.55,10.78-31.77l.56-.95c4.88-8.22,9.62-7.37,10.52,1.89l14.59,148.9c.91,9.27,3.09,24.34,4.84,33.51l12,62.4c1.75,9.17,4.08,9.1,5.16-.15l14.32-121.88c1.09-9.25,3.45-9.32,5.26-.17l11.35,57.59c1.81,9.15,5.63,9.33,8.5.39l7.88-24.59c2.87-8.94,6.73-8.77,8.58.38l11.15,54.93a204.94,204.94,0,0,0,10,32.46l5,11.81c3.67,8.7,7.37,8.24,8.23-1l14.78-160.17c.85-9.27,4.55-9.72,8.22-1l5,11.78c3.67,8.71,8.49,8.4,10.72-.69l9.83-40.17c2.23-9.09,5-9,6.18.28l14,110.4c1.18,9.23,4.69,9.53,7.81.66l6.57-18.68c3.12-8.87,6.63-8.57,7.79.67L2068,1301.62c1.17,9.24,2.63,9.21,3.25-.07l15.62-232c.63-9.28,1.82-9.29,2.65,0l15.31,170.08c.83,9.26,5.54,13.77,10.46,10s11.86.31,15.43,9l5.32,13c3.57,8.74,10.46,9.15,15.31.91l.67-1.15c4.85-8.23,11.55-7.77,14.89,1l5.74,15.16c3.34,8.81,6.68,8.43,7.41-.85l15.66-197.41c.74-9.28,2.36-9.32,3.62-.09l13.33,98.1c1.25,9.23,6.39,22.94,11.43,30.46s9.7,6.08,10.38-3.2l15.45-211.07c.68-9.28,1.9-9.28,2.7,0L2268,1181.17a233.58,233.58,0,0,0,5.86,33.3l9.13,34.16c2.41,9,8.51,15.6,13.54,14.56s11.7,5.37,14.82,14.25l6.56,18.69c3.11,8.87,6.38,8.56,7.27-.71l15.12-158.84a128.51,128.51,0,0,1,8.48-32.61l4.14-9.49c3.78-8.67,8.54-8.3,10.57.82l10.91,48.89c2,9.11,7.73,11.81,12.66,6s13.07-4.74,18.09,2.41,13.17,15.54,18.1,18.63,10.23-1.89,11.79-11.08l12.64-74.61a186.6,186.6,0,0,1,9.32-32.61l5.32-13c3.57-8.74,7.18-8.3,8,1l14.89,165.25c.83,9.27,3.71,9.5,6.4.51l8.5-28.46c2.69-9,8.15-9.3,12.14-.71l3.41,7.36c4,8.6,10.12,8.46,13.62-.3l5.58-14c3.5-8.76,10.15-9.11,14.78-.78l1,1.87c4.64,8.34,9.43,7.6,10.66-1.63l13.87-104.26c1.23-9.24,3.65-9.29,5.39-.12l11.57,61c1.74,9.17,7.28,12.75,12.31,8s12.25-1.62,16,7.05l4.15,9.5c3.78,8.66,8.62,8.3,10.74-.8l10.55-45.19c2.12-9.1,6.2-9.23,9.06-.29l7.53,23.53a314.56,314.56,0,0,1,8.19,32.95l12.31,68.5c1.65,9.18,4.81,9.26,7,.17l9.84-40.42a272.51,272.51,0,0,0,5.52-33.37l15.34-172.47c.82-9.27,2.23-9.28,3.13,0l15,155.07a204,204,0,0,0,6.63,33.15l7.92,25.81c2.75,9,6.18,8.78,7.62-.43l13.06-83.42c1.44-9.21,6.65-10.82,11.57-3.59s10.74,20.58,12.95,29.67l10.32,42.54c2.2,9.09,7.67,9.66,12.16,1.26l1.58-3c4.49-8.4,10.94-22.46,14.35-31.25l5.91-15.23a206.52,206.52,0,0,0,9.1-32.68l12.11-69.55a229.61,229.61,0,0,1,8.8-32.78l6.49-17.72c3.24-8.84,6.87-8.52,8.07.72l13.56,104.48c1.2,9.24,5.1,9.65,8.67.91l5.32-13c3.57-8.74,10.52-10.58,15.44-4.09s10.34,19.3,12.05,28.47l12.11,64.78c1.71,9.17,4.59,24.17,6.4,33.33l11.32,57.32c1.8,9.16,4.09,9.08,5.07-.18l14.73-139c1-9.26,4.73-9.69,8.33-1l4.83,11.7c3.6,8.73,10.66,12.25,15.68,7.82l9.14-8"/><path class="cls-12" d="M1418,1147.1l13,43.18c2.71,9,7.26,9,10.13.07l7.88-24.59c2.87-8.94,7.6-23.56,10.52-32.49l7.27-22.23c2.92-8.93,7.86-23.49,11-32.37l7-20c3.11-8.87,6.28-8.55,7,.72l15.12,184c.76,9.27,2.58,9.33,4,.12l13-82.07c1.46-9.21,4.7-24.13,7.21-33.15l8.81-31.81c2.51-9,8.67-11.94,13.69-6.48a126.85,126.85,0,0,0,18.3,16.09c5,3.39,11.83,13.38,15.09,22.22l6,16.41c3.26,8.84,8.59,23.29,11.84,32.13l6.46,17.49c3.26,8.83,7.08,8.52,8.49-.69l12.78-83.15c1.41-9.21,4.39-9.31,6.62-.23l10.17,41.51c2.23,9.08,8.08,11.75,13,5.93s13.08-16.2,18.11-23.06,13.18-15,18.1-18.1,10.31,1.87,12,11l12.26,67.44c1.67,9.18,4.34,24.21,5.93,33.4l12.1,69.8c1.59,9.19,3.68,9.13,4.63-.13L1760.44,1154c1-9.25,5.76-19.9,10.69-23.66s9.89.73,11,10l14.15,115.47c1.13,9.24,2.82,9.23,3.76,0l14.52-144.11c.94-9.26,4.55-9.66,8-.89l5.65,14.24c3.48,8.76,10.35,18.41,15.27,21.43s10.5,13,12.4,22.11l11.42,55c1.9,9.14,6.31,9.45,9.81.69l5.57-14c3.49-8.76,10.38-18.71,15.31-22.11s10.7,1.27,12.83,10.38l10.56,45.19c2.13,9.1,7.77,9.78,12.53,1.5l.57-1a161.58,161.58,0,0,0,13.14-31.47l9.38-34.43c2.46-9,6.59-9.06,9.18-.06l8.47,29.46c2.59,9,8.83,22.28,13.86,29.51s13.19,13.38,18.11,13.67,10-7,11.23-16.24l13.74-101.83c1.25-9.23,3.42-9.24,4.83,0l12.79,83.4c1.41,9.21,6.68,12,11.72,6.16s12.59-17.56,16.79-26.08l2.6-5.25c4.21-8.51,10.5-8.31,14,.46l5.67,14.24c3.48,8.77,9.06,8.73,12.4-.08l5.75-15.15c3.34-8.81,6.79-8.44,7.66.82L2141,1351.45c.88,9.26,2.59,9.29,3.8,0l13.89-105.58c1.21-9.24,3.51-9.28,5.11-.09l12.08,69.55c1.6,9.19,3.63,9.13,4.52-.14l15.1-157.47c.89-9.27,5.64-15.76,10.56-14.43s9.56,10,10.32,19.27l15.56,191.22c.75,9.28,2,9.28,2.82,0l15-173.8c.8-9.27,3.9-9.56,6.87-.65l7.45,22.29c3,8.92,7.9,23.48,10.95,32.38l6.84,19.93c3.05,8.89,8.69,23.24,12.55,31.88l4.28,9.61c3.86,8.64,10.8,22.53,15.44,30.87l1,1.87c4.63,8.33,9.29,7.58,10.34-1.67L2340,1199.83c1.06-9.25,3.07-9.28,4.46-.07l12.82,84.75c1.39,9.21,6.65,17.3,11.69,18s10.3-6.32,11.71-15.53l12.79-83.41c1.41-9.21,4.23-9.28,6.26-.16l10.88,48.86a213.88,213.88,0,0,0,10.58,32.33l4.16,9.53c3.78,8.66,9,8.38,11.61-.62l8.84-30.53c2.6-9,5.81-8.83,7.13.39l13.5,94.37c1.32,9.22,5.35,9.63,8.95.9l4.83-11.72a226.17,226.17,0,0,0,10.08-32.48l11.2-52.58c1.94-9.13,5.08-9.12,7,0l11.07,53.62c1.88,9.14,5.22,24.06,7.41,33.15l10.33,42.84c2.19,9.09,5.28,9,6.85-.19l12.16-70.86c1.58-9.19,7-23.39,12-31.54l.07-.12c5-8.16,11.26-7.46,13.86,1.55l8.43,29.2c2.6,9,8.85,18.6,13.88,21.33s11.2-2.44,13.7-11.46l8.82-31.79c2.5-9,6.75-9.06,9.43-.07l8.51,28.46c2.69,9,6.42,8.85,8.3-.29l11.08-53.9c1.88-9.14,4.28-9.06,5.33.19l14.49,128c1.05,9.25,2.77,9.25,3.83,0l14-122.94c1.06-9.25,6-10.42,11.09-2.6a215.66,215.66,0,0,0,18.3,24.13,198.25,198.25,0,0,1,18.1,24.26c4.93,7.89,12.93,21.09,17.77,29.33l.68,1.15c4.85,8.23,12.84,18.29,17.76,22.35s10.54-.09,12.5-9.23l11.22-52.33c2-9.13,4.89-9.09,6.53.09l11.94,67.17c1.64,9.18,4.95,9.29,7.38.25l9.5-35.49c2.42-9.05,8.3-9.68,13.06-1.4l.59,1c4.77,8.28,12.78,10.58,17.8,5.12s10.68-2.43,12.57,6.71l11.06,53.62c1.88,9.14,4.33,9.06,5.43-.18l14.3-120.29c1.1-9.24,6-22.41,10.95-29.27s9.88-4.9,11,4.34l14.13,113c1.16,9.24,3,9.23,4,0l14-121.87c1.06-9.25,3.11-9.29,4.55-.08l13.06,83.42c1.45,9.21,4.26,24.21,6.25,33.33l10.67,48.86c2,9.13,5.54,9.18,7.88.12l14-54.31"/><g class="cls-13"><path class="cls-14" d="M2058.47,1224.62l9.69,76.93c.86,6.8,1.64,6.77,1.66,6.78s.8-.1,1.26-6.84l7.12-105.85-.29.6c-4.22,8.55-11.77,20.26-16.82,26.1A10.74,10.74,0,0,1,2058.47,1224.62Z"/><path class="cls-14" d="M2088.1,1062.73s-.64.42-1.07,6.82L2078.65,1194l1.55-3.13c2-4.1,4.6-6.34,7.26-6.34h.16c2.72.09,5.16,2.51,6.87,6.81l5.67,14.24a18.13,18.13,0,0,0,1.74,3.42l-12.55-139.47C2088.77,1063.14,2088.17,1062.75,2088.1,1062.73Z"/><path class="cls-14" d="M2050.75,1182.87c-1.37-.11-3,2.2-4.46,6.35l-.7,2,3.82,24.87c.77,5.08,2.74,8.35,5.38,9a4.58,4.58,0,0,0,3.33-.57l-4.36-34.62C2053.21,1185.54,2052.11,1183,2050.75,1182.87Z"/><path class="cls-14" d="M1924.73,1181.79h-.06c-1.5,0-3.11,2.36-4.44,6.49l-6.7,20.91,8,34.42c1,4.33,2.83,6.87,5.13,7.15s4.81-1.75,7.08-5.69l.58-1c1.23-2.15,2.54-4.7,3.85-7.44l-9.73-48C1927.62,1184.35,1926.25,1181.85,1924.73,1181.79Z"/><path class="cls-14" d="M2122.89,1184.18c-1.33-.13-3,2.14-4.58,6.26l-5.75,15.16c-1.64,4.32-3.88,6.71-6.3,6.73h0a5.19,5.19,0,0,1-3.9-2.21l2.65,29.46c.52,5.72,2.6,9.91,5.44,11a4.89,4.89,0,0,0,4.75-1,6.76,6.76,0,0,1,5.81-1.24c3.92.91,7.62,4.78,9.89,10.35l1.48,3.6-6.7-71C2125.24,1186.9,2124.23,1184.32,2122.89,1184.18Z"/><path class="cls-14" d="M2015.05,1089.93h0c-1,0-2.27,2.47-3.28,6.62l-9.84,40.17c-1.09,4.47-2.85,7-5,7.13h-.18c-2,0-4.14-2.27-5.89-6.43l-5-11.78c-1.72-4.08-3.55-6.32-5-6.13s-2.51,2.77-2.91,7.11l-6.43,69.6,3.27,11.35c2.59,9,8.8,22.24,13.84,29.47s13.08,13.31,18,13.6h.28c4.76,0,9.55-7.12,10.77-16.12l8.93-66.24-9.07-71.49C2017,1092.55,2016.09,1090,2015.05,1089.93Z"/><path class="cls-14" d="M2034,1126h0c-.62,0-1.52,1.79-2.19,6.8l-4.8,35.56,4.93,38.87c.55,4.32,1.65,6.87,3,7s3-2.2,4.46-6.36l5.85-16.62-9-58.47C2035.52,1127.73,2034.59,1126,2034,1126Z"/><path class="cls-14" d="M1961.58,1171.57h0c-1.63,0-3.22,2.45-4.38,6.68l-9.38,34.43a160.16,160.16,0,0,1-9.24,24l1.39,6.87a206,206,0,0,0,10,32.43l5,11.81c1.72,4.07,3.54,6.3,5,6.13s2.51-2.77,2.91-7.12l8.36-90.51-5.2-18.06C1964.84,1174,1963.21,1171.57,1961.58,1171.57Z"/><path class="cls-14" d="M3014.79,1135.82c-3.81-.76-7.4-4.38-9.59-9.69l-4.82-11.7c-1.69-4.09-3.49-6.32-5-6.17s-2.58,2.76-3,7.09l-14.61,137.82c.25,1,.49,2.2.71,3.63l13.06,83.42c1.45,9.23,4.25,24.18,6.25,33.32l10.67,48.86c.93,4.28,2.26,6.74,3.64,6.76h0c1.38,0,2.8-2.42,3.89-6.64l14-54.29v-242l-8.85,7.79A7.22,7.22,0,0,1,3014.79,1135.82Z"/><path class="cls-14" d="M2960.92,1197.23c-1.81-9.17-4.69-24.12-6.41-33.33l-12.1-64.78c-1.71-9.17-7.11-21.92-12-28.41-2.06-2.71-4.59-4.06-7.11-3.78-3.22.35-6.14,3.21-8,7.83l-5.32,13c-1.75,4.3-3.65,6.56-5.4,6.38s-3-2.78-3.6-7.32l-13.56-104.49c-.56-4.33-1.7-6.88-3.12-7h-.11c-1.39,0-3,2.29-4.51,6.32l-6.49,17.73a227.52,227.52,0,0,0-8.79,32.75l-12.11,69.55a206.9,206.9,0,0,1-9.11,32.71l-5.91,15.23c-3.42,8.81-9.86,22.84-14.36,31.26l-1.58,3c-2.2,4.12-4.72,6.26-7.1,6s-4.29-2.83-5.37-7.3L2798.48,1140c-2.21-9.1-8-22.39-12.93-29.62-2.18-3.21-4.5-4.78-6.52-4.4-2.29.42-4,3.31-4.74,7.93l-13.06,83.42c-.71,4.53-1.94,7.07-3.48,7.16h-.08c-1.5,0-3.06-2.37-4.39-6.71l-7.92-25.81a203.29,203.29,0,0,1-6.64-33.18l-15-155.07c-.65-6.74-1.39-6.81-1.42-6.81s-.77.08-1.37,6.82l-15.34,172.47a270.92,270.92,0,0,1-5.52,33.39l-9.85,40.42c-.76,3.15-2.05,6.89-3.85,6.89h0c-1.82-.05-2.88-3.87-3.46-7.07l-12.3-68.5a312.34,312.34,0,0,0-8.19-32.93l-7.53-23.53c-1.32-4.15-3-6.52-4.58-6.52h-.06c-1.6.05-3.1,2.52-4.09,6.79l-10.55,45.19c-1,4.47-2.78,7-4.9,7.18s-4.3-2.1-6.17-6.36l-4.15-9.5c-2.21-5.06-5.72-8.45-9.4-9.08a7.2,7.2,0,0,0-6.36,2.08c-1.93,1.84-4,2.53-6,2-3.1-.83-5.57-4.58-6.6-10l-11.57-61c-1.18-6.21-2.37-6.72-2.71-6.72h0c-.34,0-1.5.52-2.34,6.83L2561.49,1170c-.61,4.54-2.09,7.22-4.19,7.54s-4.51-1.76-6.79-5.85l-1-1.87c-2.2-4-4.92-6.09-7.65-5.94s-5.15,2.52-6.82,6.7l-5.58,14c-1.72,4.3-4.13,6.7-6.78,6.76h-.1c-2.62,0-5.12-2.29-7.05-6.45l-3.42-7.36c-1.9-4.09-4.17-6.29-6.39-6.15s-4.14,2.56-5.42,6.84l-8.51,28.46c-.92,3.08-2.35,6.7-4,6.7h-.09c-1.67-.14-2.37-4-2.66-7.24l-14.88-165.25c-.39-4.34-1.43-6.92-2.84-7.09s-3.18,2.08-4.85,6.17l-5.32,13a186.25,186.25,0,0,0-9.31,32.58l-12.64,74.61c-1,6-3.72,10.5-7.06,11.77a5.45,5.45,0,0,1-5-.59c-4.95-3.11-13.09-11.49-18.14-18.67-2.61-3.72-6.22-5.94-9.89-6.08a9.74,9.74,0,0,0-7.93,3.68c-2,2.43-4.28,3.48-6.46,3-3-.61-5.34-3.92-6.49-9.1l-10.91-48.88c-1-4.28-2.59-6.82-4.48-7s-4,2.1-5.77,6.16l-4.14,9.5a127.6,127.6,0,0,0-8.47,32.56l-15.13,158.84c-.3,3.23-1.06,7.11-2.94,7.29s-3.57-3.46-4.65-6.55l-6.56-18.69c-3.1-8.83-9.66-15.17-14.62-14.15-5.14,1-11.3-5.52-13.75-14.67l-9.13-34.16a233.58,233.58,0,0,1-5.85-33.32l-15.36-177.57c-.55-6.41-1.16-6.79-1.23-6.81s-.66.41-1.13,6.82l-15.45,211.07c-.35,4.75-1.74,7.63-3.91,8.09-2,.43-4.41-1.29-6.78-4.83a54,54,0,0,1-3.46-6.07L2232,1353.77c.52,6.47,1.16,6.8,1.23,6.82s.7-.35,1.26-6.81l15-173.8c.28-3.23,1-7.11,2.77-7.28s3.39,3.5,4.42,6.6l7.45,22.29c3,8.92,7.9,23.44,11,32.37l6.83,19.94c3.06,8.91,8.68,23.21,12.55,31.87l4.28,9.6c3.87,8.66,10.79,22.51,15.43,30.86l1,1.87c2.17,3.91,4.48,6,6.33,5.68s3.2-3,3.7-7.3l14.49-126.72c.53-4.69,1.3-7.08,2.27-7.09h0c1,0,1.81,2.36,2.52,7l12.82,84.75c1.39,9.17,6.57,17.18,11.54,17.83a5.87,5.87,0,0,0,4.11-1.12c3.54-2.36,6.45-8,7.42-14.29l12.79-83.4c.49-3.21,1.42-7,3.06-7.09h0c1.63,0,2.8,3.76,3.51,6.92l10.88,48.86a214,214,0,0,0,10.57,32.31l4.16,9.52c1.73,4,3.89,6.23,5.93,6.23h.15c2.09-.11,4-2.59,5.21-6.82l8.84-30.53c.89-3.1,2.33-6.75,4.14-6.75h.08c1.84.1,2.78,4,3.24,7.16l13.5,94.37c.62,4.32,1.89,6.89,3.47,7s3.47-2.09,5.15-6.18l4.83-11.72a225.53,225.53,0,0,0,10.08-32.46l11.2-52.58c.67-3.18,1.86-7,3.66-7h0c1.8,0,3,3.8,3.62,7l11.06,53.62c1.89,9.15,5.22,24,7.42,33.15l10.33,42.83c1.44,6,2.89,6.65,3.47,6.65h0c.56,0,2-.71,3-6.82l12.16-70.87c1.58-9.23,7-23.4,12-31.58l.08-.12c2.46-4,5.3-6,8-5.74s4.89,2.9,6.16,7.32l8.44,29.2c2.59,9,8.79,18.52,13.8,21.24a5.82,5.82,0,0,0,4.9.3c3.65-1.34,6.93-5.81,8.55-11.67l8.82-31.78c1.23-4.44,2.94-6.89,4.81-6.91h0c1.86,0,3.61,2.43,4.93,6.83l8.5,28.46c1.26,4.21,2.81,6.6,4.29,6.54s2.81-2.54,3.69-6.82l11.08-53.9c.65-3.16,1.72-6.92,3.12-6.92h0c1.41,0,2.14,3.9,2.51,7.13l14.49,128c.75,6.61,1.64,6.8,1.74,6.8h0c.1,0,1-.19,1.75-6.8l14-123c.53-4.64,2.06-7.43,4.3-7.86s4.67,1.44,7.1,5.2a212.31,212.31,0,0,0,18.29,24.11,199,199,0,0,1,18.11,24.29c4.93,7.9,12.91,21,17.77,29.33l.68,1.14c4.85,8.25,12.8,18.26,17.72,22.32a5.55,5.55,0,0,0,5.21,1.31c3.19-.93,5.81-4.84,7-10.45l11.21-52.34c.68-3.17,1.85-6.94,3.54-6.94h0c1.7,0,2.73,3.84,3.3,7l12,67.16c.77,4.3,1.94,6.79,3.23,6.84h0c1.28,0,2.65-2.4,3.77-6.6l9.5-35.49c1.19-4.44,3.25-7,5.8-7.31s5.25,1.81,7.59,5.88l.58,1c2.66,4.62,6.55,7.6,10.41,8a8.33,8.33,0,0,0,7.11-2.86c2.05-2.22,4.25-3.14,6.37-2.65,3,.69,5.4,4.13,6.49,9.42l11.07,53.62c1.27,6.17,2.47,6.68,2.82,6.68h0c.34,0,1.51-.54,2.26-6.85l14.31-120.28c1.1-9.29,6-22.45,11-29.34,2.19-3.06,4.53-4.51,6.57-4.09,2.42.5,4.17,3.6,4.78,8.49l14.13,113c.83,6.61,1.78,6.8,1.89,6.8s1.05-.2,1.81-6.81l13.79-119.86a34,34,0,0,1-1.12-4.34Z"/><path class="cls-14" d="M2206.91,1143.78l5.91,43.57c.9,6.61,3.78,15.47,7.19,22.74l-3.87-47.52C2215.44,1153.94,2211.4,1145.88,2206.91,1143.78Z"/><path class="cls-14" d="M2161,1239.06h0c-.31,0-1.42.51-2.24,6.82l-2.73,20.7a6.37,6.37,0,0,1,4-1.18c2.89.2,5.38,2.69,7,7l2.08,5.51-5.58-32.12C2162.48,1239.56,2161.36,1239.06,2161,1239.06Z"/><path class="cls-14" d="M2197.33,1082.52h0c-.09,0-.92.21-1.45,6.84l-15.66,197.42c-.36,4.57-1.38,7.17-2.87,7.34s-3.22-2.12-4.87-6.46l-2.41-6.37,5.91,34c1.11,6.38,2.14,6.73,2.35,6.73h0c.2,0,1.21-.36,1.83-6.85l15.11-157.48c.62-6.5,3.13-11.82,6.54-13.88a5.36,5.36,0,0,1,4.23-.68c.16,0,.31.09.46.15l-7.34-54C2198.27,1082.73,2197.43,1082.52,2197.33,1082.52Z"/><path class="cls-14" d="M2152.16,1271.49l-.67,1.15c-2.38,4-5.32,6.18-8.3,6s-5.56-2.63-7.32-6.92l-3-7.3,8.21,87c.63,6.63,1.51,6.83,1.61,6.83h0c.1,0,1-.2,1.86-6.78l11.07-84.16A15.37,15.37,0,0,0,2152.16,1271.49Z"/><path class="cls-14" d="M2975.89,1250.08c-.2,0-1.23.35-2,6.83l-.23,2c.73,2.07,1.31,2.31,1.54,2.31h0c.31,0,1.39-.54,2.06-6.86l.12-1.15C2976.68,1250.27,2976,1250.09,2975.89,1250.08Z"/><path class="cls-14" d="M1489.14,1052.3h-.09c-1.21,0-2.71,2.3-4.13,6.34l-2.44,7,5.27,31.18a76,76,0,0,0,8.9,23.61l-5-61.07C1491.28,1055,1490.37,1052.43,1489.14,1052.3Z"/><path class="cls-14" d="M1586.89,1128.28c-3.25-8.83-10-18.76-15-22.14a126.09,126.09,0,0,1-18.33-16.12c-2-2.12-4.12-3-6.26-2.59-3.07.61-5.74,4-7.13,9l-8.82,31.8c-2.51,9-5.74,23.91-7.2,33.14l-4.55,28.7,3.8,18.59c.86,4.21,2,6.72,3.11,6.72h0c1.09,0,2.2-2.54,3-6.77l11.91-66.1c1.67-9.28,7.19-16.82,12.3-16.82a57.74,57.74,0,0,0,18.24-3.74,6.48,6.48,0,0,1,5,.14c4,1.62,7.64,6.4,9.58,12.46l7.5,23.51c1.36,4.26,3.48,6.71,6,6.91h.47c-2.63-7.13-5.45-14.8-7.48-20.29Z"/><path class="cls-14" d="M1499.22,1124.73a35.83,35.83,0,0,1-2.12-3l10,121.57c.54,6.63,1.49,6.85,1.59,6.85h0c.11,0,1.07-.21,2.1-6.74l8.45-53.32-7.7-37.67C1509.67,1143.27,1504.14,1130.85,1499.22,1124.73Z"/><path class="cls-14" d="M1615.68,1150.4c-2-.28-4.37,1.82-6.51,5.74l-1.69,3.1c-2,3.61-4.29,5.7-6.61,6l4.24,11.48,6.45,17.49c1.52,4.14,3.27,6.44,4.76,6.32s2.75-2.66,3.41-7l3-19.5-2.76-16.45C1619.24,1153.3,1617.68,1150.67,1615.68,1150.4Z"/><polygon class="cls-14" points="1424.01 1167.68 1418.14 1148.2 1418.14 1198.6 1424.01 1167.68"/><path class="cls-14" d="M1471.47,1015.06h-.06c-1.34,0-2.81,2.37-4.06,6.52l-8.11,27.11a318.56,318.56,0,0,1-11.9,32.06l-4.29,9.61a176.34,176.34,0,0,0-10.16,32.35l-8.54,45,6.78,22.52c1.27,4.21,3,6.63,4.85,6.64h0c1.81,0,3.61-2.39,5-6.57l7.88-24.59c2.87-8.94,7.59-23.52,10.52-32.49l7.27-22.23c2.93-9,7.85-23.48,11-32.38l4.55-13-7.38-43.65C1474,1017.64,1472.82,1015.13,1471.47,1015.06Z"/><path class="cls-14" d="M1903.07,1187.38a5.32,5.32,0,0,0-4.08.3l4.87,24.72c.85,4.29,2.19,6.79,3.69,6.86h.07c1.48,0,3.09-2.35,4.41-6.48l1.16-3.61-2.51-10.7C1909.34,1192.73,1906.43,1188.48,1903.07,1187.38Z"/><path class="cls-14" d="M1635.71,1103.6h0c-1.13,0-2.19,2.6-2.84,6.85l-9.77,63.61,9.53,56.79c1.08,6.38,2.1,6.73,2.3,6.73h0c.2,0,1.2-.36,1.85-6.84l9.25-92.44-6.88-28.07C1638.11,1106.08,1636.83,1103.6,1635.71,1103.6Z"/><path class="cls-14" d="M1693.19,1038.19c-1.34-6.16-2.65-6.67-3-6.67h0c-.38,0-1.67.54-2.54,6.85l-13.68,99.43c-.44,3.21-1.28,7-2.77,7.09h0c-1.48,0-2.54-3.77-3.18-7l-11.26-56.29c-1.24-6.17-2.34-6.68-2.66-6.68h0c-.32,0-1.38.54-2,6.86l-5.65,56.46,3.28,13.38c1.23,5,3.61,8.25,6.51,8.81,2.08.41,4.23-.61,6.2-2.93,4.94-5.84,13.06-16.18,18.11-23s13.19-15,18.14-18.15a5.5,5.5,0,0,1,5-.59c2.23.83,4.2,3.09,5.59,6.25l-.15-1.56a332.34,332.34,0,0,0-5.19-33.42Z"/><path class="cls-14" d="M1832.41,1024.88c-1.87-.35-4.28,1.67-6.57,5.53l-.56.95c-4.88,8.23-9.71,22.45-10.76,31.71l-14.1,124.28c-.37,3.22-1.17,7.08-2.91,7.2s-3.21-3.58-4.13-6.72l-8.67-29.49c-.1-.34-.2-.67-.31-1l12,98.36c.81,6.6,1.68,6.79,1.78,6.79h0c.1,0,1-.2,1.64-6.82l14.53-144.1c.46-4.56,1.6-7.16,3.2-7.34h.18c1.56,0,3.32,2.26,5,6.42l5.65,14.23c3.48,8.77,10.3,18.35,15.21,21.36a16.82,16.82,0,0,1,4,3.71l-11.53-117.7C1835.62,1027.9,1834.3,1025.22,1832.41,1024.88Z"/><path class="cls-14" d="M1889.46,1148.17h0c-.33,0-1.46.53-2.2,6.85l-7.21,61.41,2.51-6.31c3.51-8.81,10.4-18.75,15.37-22.18.23-.15.46-.29.7-.42l-6.44-32.65C1891,1148.68,1889.8,1148.17,1889.46,1148.17Z"/><path class="cls-14" d="M1871.79,1230.67h-.16c-1.94-.13-3.53-2.68-4.46-7.18l-11.43-55A47,47,0,0,0,1848,1151l3,30.09c.91,9.28,3.08,24.3,4.84,33.49l12,62.4c1.19,6.2,2.32,6.71,2.66,6.71h0c.32,0,1.43-.53,2.17-6.85l6.81-58-2.11,5.3C1875.63,1228.38,1873.68,1230.67,1871.79,1230.67Z"/><path class="cls-14" d="M1722.76,1195l-12.26-67.44a27.37,27.37,0,0,0-.76-3.09L1724.55,1283c.63,6.74,1.4,6.81,1.44,6.81s.8-.07,1.46-6.8l3.88-39.37-2.64-15.25C1727.09,1219.17,1724.43,1204.19,1722.76,1195Z"/><path class="cls-14" d="M1749.47,1134.5c-1.45-4-3-6.33-4.29-6.33h-.1c-1.3.12-2.3,2.69-2.72,7l-10.69,108.43,9.45,54.51c1.11,6.38,2.16,6.73,2.38,6.73h0c.21,0,1.25-.36,1.92-6.84l14.31-139a14.15,14.15,0,0,1-3.52-5.74Z"/><path class="cls-14" d="M1776.06,1129.36a5,5,0,0,0-4.84,1c-4.91,3.75-9.68,14.32-10.63,23.57l-.51,4.9a6,6,0,0,0,3.37,1.57c2.61.26,5.28-1.48,7.52-4.9s5-5.29,7.58-5c2.08.25,3.88,1.8,5.22,4.44l-1.8-14.73C1781.27,1134.58,1779,1130.39,1776.06,1129.36Z"/></g><polygon class="cls-11" points="1214.69 559.06 1206.21 546.65 1223.17 546.65 1214.69 559.06"/><polygon class="cls-11" points="1905.99 559.06 1897.52 546.65 1914.47 546.65 1905.99 559.06"/><polygon class="cls-11" points="2356.58 559.06 2348.1 546.65 2365.06 546.65 2356.58 559.06"/><polygon class="cls-11" points="2807.16 559.06 2798.68 546.65 2815.64 546.65 2807.16 559.06"/><text class="cls-15" transform="translate(297.28 620.23)">140</text><text class="cls-15" transform="translate(297.28 869.04)">1<tspan class="cls-16" x="10.05" y="0">2</tspan><tspan x="27.26" y="0">0</tspan></text><text class="cls-15" transform="translate(297.28 1117.31)">100</text><text class="cls-15" transform="translate(297.28 1366.14)">80</text><text class="cls-15" transform="translate(297.28 1614.42)">60</text><text class="cls-17" transform="translate(1109.98 503.98)">(1<tspan class="cls-18" x="25.01" y="0">9</tspan><tspan x="46.47" y="0">85</tspan><tspan class="cls-19" x="90.41" y="0">-</tspan><tspan class="cls-20" x="106.58" y="0">2</tspan><tspan x="128.2" y="0">005)</tspan></text><text class="cls-21" transform="translate(1130.88 451.76)">P<tspan class="cls-22" x="25.49" y="0">r</tspan><tspan x="41.33" y="0">ese</tspan><tspan class="cls-23" x="106.74" y="0">n</tspan><tspan class="cls-24" x="129.41" y="0">t</tspan><tspan class="cls-25" x="144.6" y="0">e</tspan></text><text class="cls-17" transform="translate(1793.66 503.98)">(<tspan class="cls-26" x="12.38" y="0">2</tspan><tspan class="cls-24" x="34.01" y="0">0</tspan><tspan class="cls-26" x="57.41" y="0">2</tspan><tspan x="79.04" y="0">0</tspan><tspan class="cls-19" x="102.84" y="0">-</tspan><tspan class="cls-20" x="119" y="0">2</tspan><tspan x="140.63" y="0">0</tspan><tspan class="cls-27" x="164.43" y="0">4</tspan><tspan class="cls-25" x="188.75" y="0">4)</tspan></text><text class="cls-21" transform="translate(1761.22 451.76)"><tspan class="cls-19">F</tspan><tspan x="21.15" y="0">utu</tspan><tspan class="cls-22" x="81.69" y="0">r</tspan><tspan x="97.53" y="0">o ce</tspan><tspan class="cls-22" x="174.47" y="0">r</tspan><tspan x="190.31" y="0">cano</tspan><tspan class="cls-28" x="282.46" y="0"> </tspan></text><text class="cls-17" transform="translate(2246.64 503.98)">(<tspan class="cls-26" x="12.38" y="0">2</tspan><tspan x="34.01" y="0">045</tspan><tspan class="cls-19" x="102.55" y="0">-</tspan><tspan class="cls-26" x="118.72" y="0">2</tspan><tspan x="140.34" y="0">0</tspan><tspan class="cls-19" x="164.14" y="0">6</tspan><tspan x="185.21" y="0">9)</tspan></text><text class="cls-21" transform="translate(2185.81 451.76)"><tspan class="cls-19">F</tspan><tspan x="21.15" y="0">utu</tspan><tspan class="cls-22" x="81.69" y="0">r</tspan><tspan x="97.53" y="0">o i</tspan><tspan class="cls-23" x="139.78" y="0">n</tspan><tspan class="cls-24" x="162.46" y="0">t</tspan><tspan class="cls-25" x="177.65" y="0">ermedio </tspan></text><text class="cls-17" transform="translate(2694.34 503.98)"><tspan xml:space="preserve"> (</tspan><tspan class="cls-20" x="19.46" y="0">2</tspan><tspan class="cls-18" x="41.09" y="0">07</tspan><tspan class="cls-29" x="84.95" y="0">0</tspan><tspan class="cls-19" x="108.75" y="0">-</tspan><tspan class="cls-26" x="124.91" y="0">2</tspan><tspan x="146.54" y="0">0</tspan><tspan class="cls-20" x="170.34" y="0">9</tspan><tspan x="192" y="0">5)</tspan></text><text class="cls-21" transform="translate(2689.27 451.76)"><tspan class="cls-19">F</tspan><tspan x="21.15" y="0">utu</tspan><tspan class="cls-22" x="81.69" y="0">r</tspan><tspan x="97.53" y="0">o </tspan><tspan class="cls-20" x="128.89" y="0">l</tspan><tspan x="140.79" y="0">ejano</tspan></text><text class="cls-30" transform="translate(2724.45 1821.71)">2<tspan class="cls-31" x="17.22" y="0">080</tspan></text><text class="cls-30" transform="translate(2362.02 1821.71)">2<tspan class="cls-31" x="17.22" y="0">060</tspan></text><text class="cls-30" transform="translate(1999.9 1821.71)">2<tspan class="cls-31" x="17.22" y="0">040</tspan></text><text class="cls-30" transform="translate(1637.47 1821.71)">2<tspan class="cls-32" x="17.22" y="0">0</tspan><tspan x="35.84" y="0">2</tspan><tspan class="cls-31" x="53.06" y="0">0</tspan></text><text class="cls-30" transform="translate(1275.38 1821.71)">2<tspan class="cls-31" x="17.22" y="0">000</tspan></text><text class="cls-15" transform="translate(912.9 1821.71)">1<tspan class="cls-33" x="10.05" y="0">9</tspan><tspan class="cls-34" x="27.14" y="0">80</tspan></text><text class="cls-15" transform="translate(550.45 1821.71)">1<tspan class="cls-35" x="10.05" y="0">9</tspan><tspan x="26.98" y="0">60</tspan></text><text class="cls-36" transform="translate(1535.57 1908.48)">Año (E<tspan class="cls-20" x="114.94" y="0">r</tspan><tspan class="cls-25" x="128.85" y="0">a Común)</tspan></text><text class="cls-36" transform="translate(124.57 1166.4)">mm<tspan x="-40.38" y="48.24" xml:space="preserve"> de agua</tspan></text><text class="cls-21" transform="translate(2262.91 896.13)">Se <tspan class="cls-20" x="53.83" y="0">l</tspan><tspan class="cls-18" x="65.73" y="0">o</tspan><tspan x="89.05" y="0">g</tspan><tspan class="cls-20" x="111" y="0">r</tspan><tspan x="126.63" y="0">a un acue</tspan><tspan class="cls-24" x="299.14" y="0">r</tspan><tspan x="314.98" y="0">do como el de </tspan><tspan class="cls-37" x="581.64" y="0">P</tspan><tspan class="cls-29" x="606.32" y="0">aris</tspan><tspan class="cls-28" x="674.94" y="0"> </tspan></text><text class="cls-21" transform="translate(2261.46 1501.51)"><tspan class="cls-22">M</tspan><tspan class="cls-29" x="37.23" y="0">a</tspan><tspan class="cls-23" x="59.3" y="0">n</tspan><tspan class="cls-22" x="81.97" y="0">t</tspan><tspan x="97.17" y="0">enemos la situación actual:</tspan></text><text class="cls-21" transform="translate(536.25 1232.38)"><tspan class="cls-38">T</tspan><tspan x="19.7" y="0">endencia hi</tspan><tspan class="cls-20" x="234.3" y="0">s</tspan><tspan class="cls-22" x="253.11" y="0">t</tspan><tspan x="268.31" y="0">órica</tspan></text><text class="cls-17" transform="translate(2441.92 946.02)">+<tspan class="cls-39" x="24.32" y="0">0</tspan><tspan x="46.51" y="0">.2% por década</tspan></text><text class="cls-17" transform="translate(2405.65 1551.4)"><tspan class="cls-19">-</tspan><tspan x="16.16" y="0">2.3% por década</tspan></text><text class="cls-17" transform="translate(565.41 1282.27)"><tspan class="cls-18">-</tspan><tspan x="16.56" y="0">1.3% por década</tspan></text><polygon class="cls-11" points="1729.41 1699.26 1762.74 1671.07 1870.05 1671.07 1870.05 1575.14 1729.41 1575.14 1729.41 1699.26"/><text class="cls-40" transform="translate(1741.64 1646.54)">H<tspan class="cls-41" x="41.2" y="0">O</tspan><tspan x="81.33" y="0">Y </tspan></text></g></g></svg>