<?xml version="1.0" encoding="utf-8"?>
<!-- Generator: Adobe Illustrator 25.2.0, SVG Export Plug-In . SVG Version: 6.00 Build 0)  -->
<svg version="1.1" xmlns="http://www.w3.org/2000/svg" xmlns:xlink="http://www.w3.org/1999/xlink" x="0px" y="0px"
	 viewBox="0 0 8503.9 4053.5" style="enable-background:new 0 0 8503.9 4053.5;" xml:space="preserve">
<style type="text/css">
	.st0{fill:#FFFFFF;}
	.st1{fill:#F8BAA2;}
	.st2{fill:#FEF5F0;}
	.st3{fill:#FCE0D3;}
	.st4{fill:#F29074;}
	.st5{fill:#CC1A1F;}
	.st6{fill:#E73D2F;}
	.st7{fill:#681414;}
	.st8{fill:#C6C6C6;}
	.st9{fill:none;stroke:#F29074;stroke-width:5;stroke-linecap:round;stroke-linejoin:round;stroke-miterlimit:10;}
	.st10{fill:none;stroke:#F29074;stroke-width:5;stroke-linecap:round;stroke-linejoin:round;}
	.st11{fill:none;stroke:#F29074;stroke-width:5;stroke-linecap:round;stroke-linejoin:round;stroke-dasharray:4.4167,13.25;}
	.st12{fill:none;stroke:#F29074;stroke-width:3;stroke-miterlimit:10;}
	.st13{fill:none;stroke:#F29074;stroke-width:4.9285;stroke-linecap:round;stroke-linejoin:round;stroke-miterlimit:10;}
	
		.st14{fill:none;stroke:#F29074;stroke-width:5;stroke-linecap:round;stroke-linejoin:round;stroke-miterlimit:10;stroke-dasharray:4.2797,12.8392;}
	.st15{fill:#A61A19;}
	.st16{fill:none;stroke:#000000;stroke-width:2.9021;stroke-miterlimit:10;}
	.st17{fill:none;stroke:#000000;stroke-width:5.8042;stroke-miterlimit:10;}
	.st18{fill:none;stroke:#000000;stroke-width:4.469;stroke-miterlimit:10;}
	.st19{fill:none;stroke:#000000;stroke-width:1.5;stroke-miterlimit:10;}
	.st20{fill:none;stroke:#000000;stroke-width:1.5;stroke-miterlimit:10;stroke-dasharray:4.9887,4.9887;}
	.st21{fill:none;stroke:#000000;stroke-width:1.5;stroke-miterlimit:10;stroke-dasharray:4.9996,4.9996;}
	.st22{fill:none;stroke:#000000;stroke-width:1.5;stroke-miterlimit:10;stroke-dasharray:5.0036,5.0036;}
	.st23{fill:none;stroke:#000000;stroke-width:1.5;stroke-miterlimit:10;stroke-dasharray:5.0056,5.0056;}
	.st24{fill:none;stroke:#000000;stroke-width:1.5;stroke-miterlimit:10;stroke-dasharray:4.9919,4.9919;}
	.st25{fill:none;stroke:#000000;stroke-width:1.5;stroke-miterlimit:10;stroke-dasharray:4.9927,4.9927;}
	.st26{fill:none;stroke:#000000;stroke-width:1.5;stroke-miterlimit:10;stroke-dasharray:4.9911,4.9911;}
	.st27{fill:none;stroke:#000000;stroke-width:1.5;stroke-miterlimit:10;stroke-dasharray:5.0895,5.0895;}
	.st28{fill:none;stroke:#000000;stroke-width:1.5;stroke-miterlimit:10;stroke-dasharray:5.0348,5.0348;}
	.st29{fill:none;stroke:#000000;stroke-width:1.5;stroke-miterlimit:10;stroke-dasharray:4.9756,4.9756;}
	.st30{fill:none;stroke:#000000;stroke-width:1.5;stroke-miterlimit:10;stroke-dasharray:5.0058,5.0058;}
	.st31{fill:none;stroke:#000000;stroke-width:1.5;stroke-miterlimit:10;stroke-dasharray:4.992,4.992;}
	.st32{fill:none;stroke:#000000;stroke-width:1.5;stroke-miterlimit:10;stroke-dasharray:5.007,5.007;}
	.st33{fill:none;stroke:#000000;stroke-width:1.5;stroke-miterlimit:10;stroke-dasharray:4.9928,4.9928;}
	.st34{fill:none;stroke:#000000;stroke-width:1.5;stroke-miterlimit:10;stroke-dasharray:4.9872,4.9872;}
	.st35{fill:none;stroke:#000000;stroke-width:1.5;stroke-miterlimit:10;stroke-dasharray:5.0023,5.0023;}
	.st36{fill:none;stroke:#000000;stroke-width:1.5;stroke-miterlimit:10;stroke-dasharray:4.9898,4.9898;}
	.st37{fill:none;stroke:#000000;stroke-width:1.5;stroke-miterlimit:10;stroke-dasharray:4.9972,4.9972;}
	.st38{font-family:'Oswald';font-weight:900;}
	.st39{font-size:230px;}
	.st40{fill:none;}
	.st41{font-family:'Oswald';font-weight:300;}
	.st42{font-size:100px;}
	.st43{font-family:'Roboto';font-weight:900;}
	.st44{font-size:30px;}
	.st45{font-family:'Roboto';font-weight:500;}
	.st46{font-family:'Oswald';font-weight:700;}
	.st47{font-size:50px;}
	.st48{font-size:40px;}
	.st49{font-size:32px;}
	.st50{font-family:'Roboto';font-weight:900;}
</style>
<g id="fondo">
	<rect class="st0" width="8503.9" height="4053.5"/>
</g>
<g id="grafico">
	<g>
		<rect x="179.1" y="1228.1" class="st1" width="153.7" height="1940.4"/>
		<rect x="332.8" y="1228.1" class="st2" width="153.7" height="1940.4"/>
		<rect x="486.6" y="1228.1" class="st2" width="153.7" height="1940.4"/>
		<rect x="640.3" y="1228.1" class="st2" width="153.7" height="1940.4"/>
		<rect x="793.9" y="1228.1" class="st3" width="153.7" height="1940.4"/>
		<rect x="947.6" y="1228.1" class="st2" width="153.7" height="1940.4"/>
		<rect x="1101.2" y="1228.1" class="st2" width="153.7" height="1940.4"/>
		<rect x="1255" y="1228.1" class="st2" width="153.7" height="1940.4"/>
		<rect x="1408.7" y="1228.1" class="st2" width="153.7" height="1940.4"/>
		<rect x="1562.3" y="1228.1" class="st3" width="153.7" height="1940.4"/>
		<rect x="1716" y="1228.1" class="st3" width="153.7" height="1940.4"/>
		<rect x="1869.6" y="1228.1" class="st3" width="153.7" height="1940.4"/>
		<rect x="2023.4" y="1228.1" class="st2" width="153.7" height="1940.4"/>
		<rect x="2177.1" y="1228.1" class="st2" width="153.7" height="1940.4"/>
		<rect x="2330.8" y="1228.1" class="st3" width="153.7" height="1940.4"/>
		<rect x="2484.4" y="1228.1" class="st3" width="153.7" height="1940.4"/>
		<rect x="2638.1" y="1228.1" class="st4" width="153.7" height="1940.4"/>
		<rect x="2791.9" y="1228.1" class="st3" width="153.7" height="1940.4"/>
		<rect x="2945.5" y="1228.1" class="st2" width="153.7" height="1940.4"/>
		<rect x="3099.2" y="1228.1" class="st2" width="153.7" height="1940.4"/>
		<rect x="3252.8" y="1228.1" class="st3" width="153.7" height="1940.4"/>
		<rect x="3406.5" y="1228.1" class="st3" width="153.7" height="1940.4"/>
		<rect x="3560.1" y="1228.1" class="st2" width="153.7" height="1940.4"/>
		<rect x="3713.9" y="1228.1" class="st3" width="153.7" height="1940.4"/>
		<rect x="3867.6" y="1228.1" class="st3" width="153.7" height="1940.4"/>
		<rect x="4021.3" y="1228.1" class="st3" width="153.7" height="1940.4"/>
		<rect x="4174.9" y="1228.1" class="st3" width="153.7" height="1940.4"/>
		<rect x="4328.6" y="1228.1" class="st4" width="153.7" height="1940.4"/>
		<rect x="4482.4" y="1228.1" class="st3" width="153.7" height="1940.4"/>
		<rect x="4636" y="1228.1" class="st2" width="153.7" height="1940.4"/>
		<rect x="4789.7" y="1228.1" class="st2" width="153.7" height="1940.4"/>
		<rect x="4943.3" y="1228.1" class="st3" width="153.7" height="1940.4"/>
		<rect x="5097" y="1228.1" class="st5" width="153.7" height="1940.4"/>
		<rect x="5250.8" y="1228.1" class="st4" width="153.7" height="1940.4"/>
		<rect x="5404.4" y="1228.1" class="st3" width="153.7" height="1940.4"/>
		<rect x="5558.1" y="1228.1" class="st2" width="153.7" height="1940.4"/>
		<rect x="5711.8" y="1228.1" class="st4" width="153.7" height="1940.4"/>
		<rect x="5865.4" y="1228.1" class="st3" width="153.7" height="1940.4"/>
		<rect x="6019.1" y="1228.1" class="st1" width="153.7" height="1940.4"/>
		<rect x="6172.9" y="1228.1" class="st6" width="153.7" height="1940.4"/>
		<rect x="6326.5" y="1228.1" class="st2" width="153.7" height="1940.4"/>
		<rect x="6480.2" y="1228.1" class="st1" width="153.7" height="1940.4"/>
		<rect x="6633.8" y="1228.1" class="st4" width="153.7" height="1940.4"/>
		<rect x="6787.5" y="1228.1" class="st5" width="153.7" height="1940.4"/>
		<rect x="6941.3" y="1228.1" class="st6" width="153.7" height="1940.4"/>
		<rect x="7095" y="1228.1" class="st7" width="153.7" height="1940.4"/>
		<rect x="7248.6" y="1228.1" class="st6" width="153.7" height="1940.4"/>
		<rect x="7402.3" y="1228.1" class="st4" width="153.7" height="1940.4"/>
		<rect x="7555.9" y="1228.1" class="st1" width="153.7" height="1940.4"/>
		<rect x="7709.7" y="1228.1" class="st7" width="153.7" height="1940.4"/>
		<rect x="7863.4" y="1228.1" class="st7" width="153.7" height="1940.4"/>
		<rect x="8017" y="1228.1" class="st3" width="153.7" height="1940.4"/>
		<rect x="8170.7" y="1228.1" class="st3" width="153.7" height="1940.4"/>
	</g>
</g>
<g id="elementos">
	<rect x="3078.9" y="687" class="st8" width="772.8" height="375.3"/>
	<rect x="185" y="687" class="st8" width="641.8" height="375.3"/>
	<rect x="4095.9" y="3489.9" class="st8" width="772.8" height="375.3"/>
	<rect x="1902.8" y="3489.9" class="st8" width="772.8" height="375.3"/>
	<rect x="6648.5" y="3489.9" class="st8" width="638.7" height="375.3"/>
	<g>
		<path class="st9" d="M7942.7,3646.9c-5.2,8.9-16.7,11.9-25.6,6.7s-11.9-16.7-6.7-25.6c5.2-8.9,34.7-22,34.7-22
			S7947.9,3637.9,7942.7,3646.9z"/>
		<g>
			<g>
				<path class="st10" d="M7995.3,3639.1c1.3-0.6,2.1-1,2.1-1s0.1,0.9,0.2,2.3"/>
				<path class="st11" d="M7998.2,3653.7c0.1,9.5-0.4,20.7-3.1,25.4c-5.2,8.9-16.7,11.9-25.6,6.7c-8.9-5.2-11.9-16.7-6.7-25.6
					c3.5-5.9,17.4-13.6,26.5-18.1"/>
			</g>
		</g>
		<g>
			<g>
				<path class="st10" d="M7942.9,3667.2c1.3-0.6,2.1-1,2.1-1s0.1,0.9,0.2,2.3"/>
				<path class="st11" d="M7945.8,3681.8c0.1,9.5-0.4,20.7-3.1,25.4c-5.2,8.9-16.7,11.9-25.6,6.7s-11.9-16.7-6.7-25.6
					c3.5-5.9,17.4-13.6,26.5-18.1"/>
			</g>
		</g>
	</g>
	<g>
		<line class="st12" x1="179.1" y1="3601.9" x2="283.7" y2="3601.9"/>
	</g>
	<g>
		<line class="st12" x1="984.1" y1="798.5" x2="1088.6" y2="798.5"/>
	</g>
	<g>
		<line class="st12" x1="1372.6" y1="3601.9" x2="1477.2" y2="3601.9"/>
	</g>
	<g>
		<line class="st12" x1="2721.9" y1="3601.9" x2="2826.5" y2="3601.9"/>
	</g>
	<g>
		<line class="st12" x1="3372.1" y1="3601.9" x2="3476.7" y2="3601.9"/>
	</g>
	<g>
		<line class="st12" x1="4896.3" y1="3601.9" x2="5000.8" y2="3601.9"/>
	</g>
	<g>
		<line class="st12" x1="5463.8" y1="3601.9" x2="5568.3" y2="3601.9"/>
	</g>
	<g>
		<line class="st12" x1="6102.3" y1="3601.9" x2="6206.8" y2="3601.9"/>
	</g>
	<g>
		<line class="st12" x1="7466.1" y1="3601.9" x2="7570.7" y2="3601.9"/>
	</g>
	<g>
		<line class="st12" x1="8027.5" y1="3601.9" x2="8132.1" y2="3601.9"/>
	</g>
	<g>
		<line class="st12" x1="1814.5" y1="798.5" x2="1919.1" y2="798.5"/>
	</g>
	<g>
		<line class="st12" x1="2562.9" y1="798.5" x2="2667.5" y2="798.5"/>
	</g>
	<g>
		<line class="st12" x1="3902.7" y1="798.5" x2="4007.3" y2="798.5"/>
	</g>
	<g>
		<line class="st12" x1="4684.1" y1="798.5" x2="4788.7" y2="798.5"/>
	</g>
	<g>
		<line class="st12" x1="5363.3" y1="798.5" x2="5467.8" y2="798.5"/>
	</g>
	<g>
		<line class="st12" x1="5954.5" y1="798.5" x2="6059.1" y2="798.5"/>
	</g>
	<g>
		<line class="st12" x1="6395.3" y1="798.5" x2="6623.8" y2="798.5"/>
	</g>
	<g>
		<line class="st12" x1="7078.6" y1="798.5" x2="7183.2" y2="798.5"/>
	</g>
	<g>
		<line class="st12" x1="7523.4" y1="798.5" x2="7751.9" y2="798.5"/>
	</g>
	<g>
		<g>
			<g>
				<g>
					<g>
						<g>
							<circle class="st0" cx="1179.8" cy="2197.8" r="810.2"/>
						</g>
					</g>
				</g>
			</g>
		</g>
	</g>
	<g>
		<g>
			<g>
				<path class="st13" d="M1225.5,3605.1c11.3,0,11.3,10.1,22.7,10.1c11.3,0,11.3-10.1,22.7-10.1c11.3,0,11.3,10.1,22.7,10.1
					c11.3,0,11.3-10.1,22.7-10.1c11.3,0,11.3,10.1,22.7,10.1"/>
				<path class="st13" d="M1225.5,3628.2c11.3,0,11.3,10.1,22.7,10.1c11.3,0,11.3-10.1,22.7-10.1c11.3,0,11.3,10.1,22.7,10.1
					c11.3,0,11.3-10.1,22.7-10.1c11.3,0,11.3,10.1,22.7,10.1"/>
				<path class="st14" d="M1225.5,3651.2c11.3,0,11.3,10.1,22.7,10.1c11.3,0,11.3-10.1,22.7-10.1c11.3,0,11.3,10.1,22.7,10.1
					c11.3,0,11.3-10.1,22.7-10.1c11.3,0,11.3,10.1,22.7,10.1"/>
				<path class="st14" d="M1225.5,3674.3c11.3,0,11.3,10.1,22.7,10.1c11.3,0,11.3-10.1,22.7-10.1c11.3,0,11.3,10.1,22.7,10.1
					c11.3,0,11.3-10.1,22.7-10.1c11.3,0,11.3,10.1,22.7,10.1"/>
			</g>
		</g>
	</g>
	<g>
		<g>
			<path class="st9" d="M3331.2,3715.9c-2.8,0-5.3-1.1-7.4-3.3c-2.1-2.2-3.1-4.8-3.1-7.7c0-2.4,2-5.7,6-10c2.2-2.4,3.7-5.2,4.5-8.4
				c0.7,3.7,2.8,7.1,6.2,10.1c3.1,2.9,4.6,5.6,4.6,8.3c0,3-1,5.6-3.1,7.8C3336.9,3714.8,3334.3,3715.9,3331.2,3715.9z"/>
			<line class="st9" x1="3316.2" y1="3602.5" x2="3268.4" y2="3602.5"/>
			<line class="st9" x1="3292.3" y1="3602.5" x2="3292.3" y2="3619.6"/>
			<path class="st9" d="M3224.7,3637.1h46.7l0.9,0c2.8-4.4,7.1-7.8,12.1-9.6l0,0.1v-8.4h6.7h2.2h6.8v8.4l0-0.1
				c5.7,2,10.5,6.2,13.2,11.5l0.3-0.1h14c3.9,0,7,1.4,9.2,4.2c2.3,2.8,3.4,6.4,3.4,10.8v22.8h-18.2v-7.9c0-2.7-0.6-4.9-1.7-6.5
				c-1.1-1.6-2.6-2.4-4.5-2.4h-2.2v-0.1c-3.8,8.1-12,13.8-21.6,13.8c-9.3,0-17.3-5.3-21.3-13.1v0h-46.4"/>
		</g>
	</g>
	<g>
		<g>
			<path class="st9" d="M5911.7,906.1c-2.8,0-5.1-1.1-7.2-3.2c-2-2.2-3-4.6-3-7.5c0-2.3,1.9-5.5,5.8-9.7c2.2-2.3,3.6-5,4.3-8.1
				c0.7,3.6,2.7,6.8,6,9.8c3,2.8,4.4,5.4,4.4,8c0,2.9-1,5.4-3,7.5C5917.1,905.1,5914.7,906.1,5911.7,906.1z"/>
			<line class="st9" x1="5897.2" y1="796.6" x2="5850.9" y2="796.6"/>
			<line class="st9" x1="5874.1" y1="796.6" x2="5874.1" y2="813.1"/>
			<path class="st9" d="M5808.7,830.1h45.1l0.9,0c2.7-4.2,6.8-7.5,11.7-9.3l0,0.1v-8.1h6.5h2.2h6.6v8.1l0-0.1
				c5.5,2,10.1,6,12.8,11.1l0.3-0.1h13.5c3.8,0,6.7,1.4,8.9,4.1c2.2,2.7,3.3,6.2,3.3,10.5v22H5903v-7.6c0-2.7-0.5-4.7-1.6-6.3
				c-1.1-1.5-2.5-2.3-4.3-2.3h-2.1v-0.1c-3.7,7.9-11.6,13.3-20.9,13.3c-9,0-16.8-5.2-20.5-12.7v0h-44.8"/>
		</g>
	</g>
	<g>
		<g>
			<g>
				<g>
					<path class="st9" d="M7022.5,872.5v-64.2c0-6.5-5.2-11.7-11.7-11.7c-6.5,0-11.7,5.2-11.7,11.7v64.2c-5.3,3.7-8.9,9.9-8.9,16.9
						c0,11.4,9.2,20.6,20.6,20.6c11.4,0,20.6-9.2,20.6-20.6C7031.3,882.4,7027.8,876.2,7022.5,872.5z"/>
				</g>
				<circle class="st9" cx="7010.8" cy="889.4" r="12.2"/>
				<line class="st9" x1="7010.8" y1="877.2" x2="7010.8" y2="828.7"/>
				<line class="st9" x1="7041.2" y1="799.5" x2="7041.2" y2="813.9"/>
				<line class="st9" x1="7034" y1="806.7" x2="7048.4" y2="806.7"/>
				<line class="st9" x1="7034" y1="864.7" x2="7048.4" y2="864.7"/>
				<g>
					<g>
						<line class="st9" x1="6970.5" y1="806.7" x2="6984.9" y2="806.7"/>
						<line class="st9" x1="6970.5" y1="818.3" x2="6984.9" y2="818.3"/>
						<line class="st9" x1="6970.5" y1="829.9" x2="6984.9" y2="829.9"/>
						<line class="st9" x1="6970.5" y1="841.5" x2="6984.9" y2="841.5"/>
						<line class="st9" x1="6970.5" y1="853.1" x2="6984.9" y2="853.1"/>
						<line class="st9" x1="6970.5" y1="864.7" x2="6984.9" y2="864.7"/>
					</g>
				</g>
			</g>
		</g>
	</g>
	<g>
		<g>
			<path class="st9" d="M4626.8,876.2v-70c0-5.3-4.2-9.6-9.3-9.6c-5.1,0-9.3,4.3-9.3,9.6v70c-5,3.2-8.4,8.9-8.4,15.5
				c0,10.1,7.9,18.3,17.7,18.3c9.8,0,17.7-8.2,17.7-18.3C4635.2,885.1,4631.8,879.4,4626.8,876.2z"/>
			<line class="st9" x1="4638.4" y1="819.1" x2="4654.8" y2="819.1"/>
			<line class="st9" x1="4639.4" y1="841.1" x2="4653.8" y2="841.1"/>
			<line class="st9" x1="4639.4" y1="863.2" x2="4653.8" y2="863.2"/>
			<path class="st9" d="M4624.3,891.7c0,3.8-3.1,6.9-6.9,6.9c-3.8,0-6.9-3.1-6.9-6.9c0-3.8,3.1-6.9,6.9-6.9
				C4621.2,884.7,4624.3,887.9,4624.3,891.7z"/>
			<line class="st9" x1="4617.3" y1="884.7" x2="4617.3" y2="828.8"/>
			<line class="st9" x1="4594" y1="818.1" x2="4579" y2="809.2"/>
			<line class="st9" x1="4594" y1="854.3" x2="4579" y2="863.2"/>
			<line class="st9" x1="4594" y1="836.8" x2="4576.5" y2="836.8"/>
		</g>
	</g>
	<g>
		<g>
			<g>
				<g>
					<g>
						<rect x="650" y="1840.5" class="st2" width="132.9" height="102.6"/>
						<rect x="782.8" y="1840.5" class="st3" width="132.9" height="102.6"/>
						<rect x="915.7" y="1840.5" class="st1" width="132.9" height="102.6"/>
						<rect x="1048.6" y="1840.5" class="st4" width="132.9" height="102.6"/>
						<rect x="1181.4" y="1840.5" class="st6" width="132.9" height="102.6"/>
						<rect x="1314.3" y="1840.5" class="st5" width="132.9" height="102.6"/>
						<rect x="1447.1" y="1840.5" class="st15" width="132.9" height="102.6"/>
						<rect x="1580" y="1840.5" class="st7" width="132.9" height="102.6"/>
					</g>
					<g>
						<g>
							<line class="st16" x1="846.8" y1="1840.5" x2="846.8" y2="1815.9"/>
						</g>
						<g>
							<line class="st16" x1="1043.6" y1="1840.5" x2="1043.6" y2="1815.9"/>
						</g>
						<g>
							<line class="st16" x1="1240.5" y1="1840.5" x2="1240.5" y2="1815.9"/>
						</g>
						<g>
							<line class="st17" x1="650" y1="1840.5" x2="650" y2="1815.9"/>
						</g>
						<g>
							<line class="st16" x1="1437.3" y1="1840.5" x2="1437.3" y2="1815.9"/>
						</g>
						<g>
							<line class="st16" x1="1634.1" y1="1840.5" x2="1634.1" y2="1815.9"/>
						</g>
					</g>
				</g>
			</g>
		</g>
		<line class="st18" x1="633" y1="1840.5" x2="1729.8" y2="1840.5"/>
	</g>
	<g>
		<g>
			<g>
				<g>
					<path class="st9" d="M5407.3,3675.2V3611c0-6.5-5.2-11.7-11.7-11.7c-6.5,0-11.7,5.2-11.7,11.7v64.2c-5.3,3.7-8.9,9.9-8.9,16.9
						c0,11.4,9.2,20.6,20.6,20.6c11.4,0,20.6-9.2,20.6-20.6C5416.2,3685.1,5412.6,3678.9,5407.3,3675.2z"/>
				</g>
				<circle class="st9" cx="5395.6" cy="3692.1" r="12.2"/>
				<line class="st9" x1="5395.6" y1="3679.9" x2="5395.6" y2="3631.4"/>
				<line class="st9" x1="5426" y1="3602.2" x2="5426" y2="3616.7"/>
				<line class="st9" x1="5418.8" y1="3609.4" x2="5433.2" y2="3609.4"/>
				<line class="st9" x1="5418.8" y1="3667.4" x2="5433.2" y2="3667.4"/>
				<g>
					<g>
						<line class="st9" x1="5355.3" y1="3609.4" x2="5369.7" y2="3609.4"/>
						<line class="st9" x1="5355.3" y1="3621" x2="5369.7" y2="3621"/>
						<line class="st9" x1="5355.3" y1="3632.6" x2="5369.7" y2="3632.6"/>
						<line class="st9" x1="5355.3" y1="3644.2" x2="5369.7" y2="3644.2"/>
						<line class="st9" x1="5355.3" y1="3655.8" x2="5369.7" y2="3655.8"/>
						<line class="st9" x1="5355.3" y1="3667.4" x2="5369.7" y2="3667.4"/>
					</g>
				</g>
			</g>
		</g>
	</g>
	<g>
		<g>
			<path class="st9" d="M6043.9,3678.9v-70c0-5.3-4.2-9.6-9.3-9.6c-5.1,0-9.3,4.3-9.3,9.6v70c-5,3.2-8.4,8.9-8.4,15.5
				c0,10.1,7.9,18.3,17.7,18.3c9.8,0,17.7-8.2,17.7-18.3C6052.3,3687.9,6048.9,3682.2,6043.9,3678.9z"/>
			<line class="st9" x1="6055.4" y1="3621.8" x2="6071.9" y2="3621.8"/>
			<line class="st9" x1="6056.5" y1="3643.9" x2="6070.9" y2="3643.9"/>
			<line class="st9" x1="6056.5" y1="3665.9" x2="6070.9" y2="3665.9"/>
			<path class="st9" d="M6041.3,3694.4c0,3.8-3.1,6.9-6.9,6.9c-3.8,0-6.9-3.1-6.9-6.9c0-3.8,3.1-6.9,6.9-6.9
				C6038.2,3687.5,6041.3,3690.6,6041.3,3694.4z"/>
			<line class="st9" x1="6034.4" y1="3687.5" x2="6034.4" y2="3631.6"/>
			<line class="st9" x1="6011.1" y1="3620.9" x2="5996.1" y2="3611.9"/>
			<line class="st9" x1="6011.1" y1="3657" x2="5996.1" y2="3666"/>
			<line class="st9" x1="6011.1" y1="3639.6" x2="5993.6" y2="3639.6"/>
		</g>
	</g>
	<g id="XMLID_5724_">
		<g id="XMLID_5732_">
			<path id="XMLID_5735_" class="st9" d="M911.4,844.1h-25.6v67.2h69.6v-92.8h-44V844.1z M885.8,844.1l25.6-25.6"/>
			<polyline id="XMLID_5734_" class="st9" points="882.5,901 875.5,901 875.5,808.2 945.1,808.2 945.1,815.3 			"/>
			<polyline id="XMLID_5733_" class="st9" points="872.3,890.8 865.2,890.8 865.2,797.9 934.8,797.9 934.8,805 			"/>
		</g>
		<g id="XMLID_5725_">
			<line id="XMLID_5731_" class="st9" x1="939.2" y1="845.2" x2="919" y2="845.2"/>
			<line id="XMLID_5730_" class="st9" x1="939.2" y1="854.6" x2="902.5" y2="854.6"/>
			<line id="XMLID_5729_" class="st9" x1="939.2" y1="863.9" x2="902.5" y2="863.9"/>
			<line id="XMLID_5728_" class="st9" x1="939.2" y1="873.2" x2="902.5" y2="873.2"/>
			<line id="XMLID_5727_" class="st9" x1="939.2" y1="882.6" x2="902.5" y2="882.6"/>
			<line id="XMLID_5726_" class="st9" x1="939.2" y1="891.9" x2="902.5" y2="891.9"/>
		</g>
	</g>
	<g>
		<polygon class="st9" points="7432.6,3686.3 7409.9,3686.3 7419.3,3612.6 7419.3,3602.6 7432.6,3602.6 		"/>
		<polygon class="st9" points="7340.1,3686.3 7319.3,3686.3 7328.7,3612.6 7328.7,3602.6 7340.1,3602.6 		"/>
		<line class="st9" x1="7419.3" y1="3612.6" x2="7340.1" y2="3612.6"/>
		<path class="st9" d="M7379.5,3686.3c-0.3-37.6,6.5-55.9,6.5-55.9h17.2c0,0-6.8,18.3-6.5,55.9H7379.5z"/>
		<polyline class="st9" points="7403.2,3630.4 7403.2,3621.3 7386,3621.3 7386,3630.4 		"/>
		<path class="st9" d="M7350.1,3686.3c-0.3-37.6,6.5-55.9,6.5-55.9h17.2c0,0-6.8,18.3-6.5,55.9H7350.1z"/>
		<polyline class="st9" points="7373.8,3630.4 7373.8,3621.3 7356.6,3621.3 7356.6,3630.4 		"/>
		<line class="st9" x1="7416.3" y1="3686.3" x2="7340.1" y2="3686.3"/>
	</g>
</g>
<g id="lineas">
	<g>
		<g>
			<line class="st19" x1="230" y1="3518.1" x2="230" y2="3515.6"/>
			<path class="st20" d="M230,3510.6v-142c0-7.8,6.4-14.2,14.2-14.2h1995.6c7.8,0,14.2-6.4,14.2-14.2v-10.5"/>
			<line class="st19" x1="2253.9" y1="3327.3" x2="2253.9" y2="3324.8"/>
			<g>
				<polygon points="2263.1,3332.3 2261.5,3333.8 2253.9,3325.7 2246.4,3333.8 2244.7,3332.3 2253.9,3322.4 				"/>
			</g>
		</g>
	</g>
	<g>
		<g>
			<line class="st19" x1="1424.9" y1="3518.1" x2="1424.9" y2="3515.6"/>
			<path class="st21" d="M1424.9,3510.6v-122c0-7.8,6.4-14.2,14.2-14.2h2950.3c7.8,0,14.2-6.4,14.2-14.2v-30.5"/>
			<line class="st19" x1="4403.5" y1="3327.3" x2="4403.5" y2="3324.8"/>
			<g>
				<polygon points="4412.7,3332.3 4411.1,3333.8 4403.5,3325.7 4396,3333.8 4394.3,3332.3 4403.5,3322.4 				"/>
			</g>
		</g>
	</g>
	<g>
		<g>
			<line class="st19" x1="2774.5" y1="3518.1" x2="2774.5" y2="3515.6"/>
			<path class="st22" d="M2774.5,3510.6v-102c0-7.8,6.4-14.2,14.2-14.2h3293.1c7.8,0,14.2-6.4,14.2-14.2v-50.5"/>
			<line class="st19" x1="6095.9" y1="3327.3" x2="6095.9" y2="3324.8"/>
			<g>
				<polygon points="6105.1,3332.3 6103.5,3333.8 6095.9,3325.7 6088.4,3333.8 6086.7,3332.3 6095.9,3322.4 				"/>
			</g>
		</g>
	</g>
	<g>
		<g>
			<line class="st19" x1="3424.4" y1="3518.1" x2="3424.4" y2="3515.6"/>
			<path class="st23" d="M3424.4,3510.6v-82c0-7.8,6.4-14.2,14.2-14.2h3104.2c7.8,0,14.2-6.4,14.2-14.2v-70.5"/>
			<line class="st19" x1="6557" y1="3327.3" x2="6557" y2="3324.8"/>
			<g>
				<polygon points="6566.2,3332.3 6564.6,3333.8 6557,3325.7 6549.5,3333.8 6547.8,3332.3 6557,3322.4 				"/>
			</g>
		</g>
	</g>
	<g>
		<g>
			<line class="st19" x1="4948.5" y1="3518.1" x2="4948.5" y2="3515.6"/>
			<path class="st24" d="M4948.5,3510.6v-62c0-7.8,6.4-14.2,14.2-14.2h2655.9c7.8,0,14.2-6.4,14.2-14.2v-90.5"/>
			<line class="st19" x1="7632.7" y1="3327.3" x2="7632.7" y2="3324.8"/>
			<g>
				<polygon points="7642,3332.3 7640.3,3333.8 7632.8,3325.7 7625.2,3333.8 7623.5,3332.3 7632.8,3322.4 				"/>
			</g>
		</g>
	</g>
	<g>
		<g>
			<line class="st19" x1="6152.3" y1="3518.1" x2="6152.3" y2="3515.6"/>
			<path class="st25" d="M6152.3,3510.6v-42c0-7.8,6.4-14.2,14.2-14.2h1607.9c7.8,0,14.2-6.4,14.2-14.2v-110.5"/>
			<line class="st19" x1="7788.5" y1="3327.3" x2="7788.5" y2="3324.8"/>
			<g>
				<polygon points="7797.7,3332.3 7796.1,3333.8 7788.5,3325.7 7781,3333.8 7779.3,3332.3 7788.5,3322.4 				"/>
			</g>
		</g>
	</g>
	<g>
		<g>
			<line class="st19" x1="7518.4" y1="3518.1" x2="7518.4" y2="3515.6"/>
			<path class="st26" d="M7518.4,3510.6v-22c0-7.8,6.4-14.2,14.2-14.2h549.2c7.8,0,14.2-6.4,14.2-14.2v-130.5"/>
			<line class="st19" x1="8095.9" y1="3327.3" x2="8095.9" y2="3324.8"/>
			<g>
				<polygon points="8105.2,3332.3 8103.5,3333.8 8096,3325.7 8088.4,3333.8 8086.7,3332.3 8096,3322.4 				"/>
			</g>
		</g>
	</g>
	<g>
		<g>
			<line class="st19" x1="8095.9" y1="3518.1" x2="8095.9" y2="3515.6"/>
			<path class="st27" d="M8095.9,3510.5v-51.9c0-7.8,0-20.6,0-28.3v-100.4"/>
			<line class="st19" x1="8095.9" y1="3327.3" x2="8095.9" y2="3324.8"/>
			<g>
				<polygon points="8105.2,3332.3 8103.5,3333.8 8096,3325.7 8088.4,3333.8 8086.7,3332.3 8096,3322.4 				"/>
			</g>
		</g>
	</g>
	<g>
		<g>
			<line class="st19" x1="1036.3" y1="1025.9" x2="1036.3" y2="1028.4"/>
			<path class="st28" d="M1036.3,1033.4v118.3c0,7.8,6.4,14.2,14.2,14.2H1318c7.8,0,14.2,6.4,14.2,14.2v30.5"/>
			<line class="st19" x1="1332.1" y1="1213" x2="1332.1" y2="1215.5"/>
			<g>
				<polygon points="1322.9,1208 1324.6,1206.5 1332.1,1214.6 1339.7,1206.5 1341.3,1208 1332.1,1217.9 				"/>
			</g>
		</g>
	</g>
	<g>
		<g>
			<line class="st19" x1="1872.9" y1="1025.9" x2="1872.9" y2="1028.4"/>
			<path class="st29" d="M1872.9,1033.3v108.4c0,7.8,6.4,14.2,14.2,14.2h660c7.8,0,14.2,6.4,14.2,14.2v40.5"/>
			<line class="st19" x1="2561.2" y1="1213" x2="2561.2" y2="1215.5"/>
			<g>
				<polygon points="2552,1208 2553.7,1206.5 2561.2,1214.6 2568.8,1206.5 2570.4,1208 2561.2,1217.9 				"/>
			</g>
		</g>
	</g>
	<g>
		<g>
			<line class="st19" x1="2615.2" y1="1025.9" x2="2615.2" y2="1028.4"/>
			<path class="st30" d="M2615.2,1033.4v128.3c0,7.8,6.4,14.2,14.2,14.2h2837.8c7.8,0,14.2,6.4,14.2,14.2v20.5"/>
			<line class="st19" x1="5481.3" y1="1213" x2="5481.3" y2="1215.5"/>
			<g>
				<polygon points="5472.1,1208 5473.7,1206.5 5481.3,1214.6 5488.8,1206.5 5490.5,1208 5481.3,1217.9 				"/>
			</g>
		</g>
	</g>
	<g>
		<g>
			<line class="st19" x1="3955" y1="1025.9" x2="3955" y2="1028.4"/>
			<path class="st31" d="M3955,1033.3v108.3c0,7.8,6.4,14.2,14.2,14.2h2420c7.8,0,14.2,6.4,14.2,14.2v40.5"/>
			<line class="st19" x1="6403.4" y1="1213" x2="6403.4" y2="1215.5"/>
			<g>
				<polygon points="6394.2,1208 6395.8,1206.5 6403.4,1214.6 6410.9,1206.5 6412.6,1208 6403.4,1217.9 				"/>
			</g>
		</g>
	</g>
	<g>
		<g>
			<line class="st19" x1="4736.4" y1="1025.9" x2="4736.4" y2="1028.4"/>
			<path class="st31" d="M4736.4,1033.3v88.3c0,7.8,6.4,14.2,14.2,14.2h2709.5c7.8,0,14.2,6.4,14.2,14.2v60.5"/>
			<line class="st19" x1="7474.3" y1="1213" x2="7474.3" y2="1215.5"/>
			<g>
				<polygon points="7465.1,1208 7466.7,1206.5 7474.3,1214.6 7481.9,1206.5 7483.5,1208 7474.3,1217.9 				"/>
			</g>
		</g>
	</g>
	<g>
		<g>
			<line class="st19" x1="5416.9" y1="1025.9" x2="5416.9" y2="1028.4"/>
			<path class="st32" d="M5416.9,1033.4v68.3c0,7.8,6.4,14.2,14.2,14.2h2187.5c7.8,0,14.2,6.4,14.2,14.2v80.5"/>
			<line class="st19" x1="7632.7" y1="1213" x2="7632.7" y2="1215.5"/>
			<g>
				<polygon points="7623.5,1208 7625.2,1206.5 7632.7,1214.6 7640.3,1206.5 7641.9,1208 7632.7,1217.9 				"/>
			</g>
		</g>
	</g>
	<g>
		<g>
			<line class="st19" x1="6006.8" y1="1025.9" x2="6006.8" y2="1028.4"/>
			<path class="st33" d="M6006.8,1033.3v48.3c0,7.8,6.4,14.2,14.2,14.2h1751.4c7.8,0,14.2,6.4,14.2,14.2v100.5"/>
			<line class="st19" x1="7786.5" y1="1213" x2="7786.5" y2="1215.5"/>
			<g>
				<polygon points="7777.3,1208 7779,1206.5 7786.5,1214.6 7794.1,1206.5 7795.7,1208 7786.5,1217.9 				"/>
			</g>
		</g>
	</g>
	<g>
		<g>
			<line class="st19" x1="6461.9" y1="1025.9" x2="6461.9" y2="1028.4"/>
			<path class="st34" d="M6461.9,1033.3v28.3c0,7.8,6.4,14.2,14.2,14.2h1450c7.8,0,14.2,6.4,14.2,14.2v120.5"/>
			<line class="st19" x1="7940.2" y1="1213" x2="7940.2" y2="1215.5"/>
			<g>
				<polygon points="7931,1208 7932.6,1206.5 7940.2,1214.6 7947.8,1206.5 7949.4,1208 7940.2,1217.9 				"/>
			</g>
		</g>
	</g>
	<g>
		<g>
			<line class="st19" x1="7130.9" y1="1025.9" x2="7130.9" y2="1028.4"/>
			<path class="st35" d="M7130.9,1033.4v8.3c0,7.8,6.4,14.2,14.2,14.2h934.7c7.8,0,14.2,6.4,14.2,14.2v140.5"/>
			<line class="st19" x1="8094" y1="1213" x2="8094" y2="1215.5"/>
			<g>
				<polygon points="8084.8,1208 8086.4,1206.5 8094,1214.6 8101.6,1206.5 8103.2,1208 8094,1217.9 				"/>
			</g>
		</g>
	</g>
	<g>
		<g>
			<line class="st19" x1="8247.5" y1="1035.9" x2="8247.5" y2="1038.4"/>
			<line class="st36" x1="8247.5" y1="1043.3" x2="8247.5" y2="1210.5"/>
			<line class="st19" x1="8247.5" y1="1213" x2="8247.5" y2="1215.5"/>
			<g>
				<polygon points="8238.3,1208 8240,1206.5 8247.5,1214.6 8255.1,1206.5 8256.7,1208 8247.5,1217.9 				"/>
			</g>
		</g>
	</g>
	<g>
		<g>
			<line class="st19" x1="5516.1" y1="3518.1" x2="5516.1" y2="3515.6"/>
			<path class="st37" d="M5516.1,3510.6v-42c0-7.8,6.4-14.2,14.2-14.2h632.9"/>
			<line class="st19" x1="6165.6" y1="3454.5" x2="6168.1" y2="3454.5"/>
		</g>
	</g>
</g>
<g id="textos">
	<text transform="matrix(1 0 0 1 179.1442 470.6649)" class="st4 st38 st39">OLAS DE CALOR DE LA ZONA CENTRAL DE CHILE*</text>
	<rect x="4989.3" y="547.1" class="st40" width="3335" height="253.7"/>
	<text transform="matrix(1 0 0 1 6874.4736 628.066)" class="st41 st42">* (Regiones de Valparaíso y Metropolitana)</text>
	<g>
		<g>
			<g>
				<text transform="matrix(0 -1 1 0 264.4292 3297.3572)" class="st43 st44">1970</text>
			</g>
			<g>
				<text transform="matrix(0 -1 1 0 418.1289 3296.3064)" class="st45 st44">1971</text>
			</g>
			<g>
				<text transform="matrix(0 -1 1 0 571.8359 3296.3103)" class="st45 st44">1972</text>
			</g>
			<g>
				<text transform="matrix(0 -1 1 0 725.5581 3296.3025)" class="st45 st44">1973</text>
			</g>
			<g>
				<text transform="matrix(0 -1 1 0 879.2637 3296.3064)" class="st45 st44">1974</text>
			</g>
			<g>
				<text transform="matrix(0 -1 1 0 1032.9766 3296.3103)" class="st45 st44">1975</text>
			</g>
			<g>
				<text transform="matrix(0 -1 1 0 1186.8262 3296.3025)" class="st45 st44">1976</text>
			</g>
			<g>
				<text transform="matrix(0 -1 1 0 1340.543 3296.3025)" class="st45 st44">1977</text>
			</g>
			<g>
				<text transform="matrix(0 -1 1 0 1494.2402 3296.3103)" class="st45 st44">1978</text>
			</g>
			<g>
				<text transform="matrix(0 -1 1 0 1647.9438 3296.3025)" class="st45 st44">1979</text>
			</g>
			<g>
				<text transform="matrix(0 -1 1 0 1801.6621 3296.3025)" class="st45 st44">1980</text>
			</g>
			<g>
				<text transform="matrix(0 -1 1 0 1955.5083 3296.3064)" class="st45 st44">1981</text>
			</g>
			<g>
				<text transform="matrix(0 -1 1 0 2109.2271 3296.3103)" class="st45 st44">1982</text>
			</g>
			<g>
				<text transform="matrix(0 -1 1 0 2262.9341 3296.3025)" class="st45 st44">1983</text>
			</g>
			<g>
				<text transform="matrix(0 -1 1 0 2416.6528 3296.3064)" class="st45 st44">1984</text>
			</g>
			<g>
				<text transform="matrix(0 -1 1 0 2570.3521 3296.3103)" class="st45 st44">1985</text>
			</g>
			<g>
				<text transform="matrix(0 -1 1 0 2724.2114 3296.3025)" class="st45 st44">1986</text>
			</g>
			<g>
				<text transform="matrix(0 -1 1 0 2877.9111 3296.3025)" class="st45 st44">1987</text>
			</g>
			<g>
				<text transform="matrix(0 -1 1 0 3031.6333 3296.3103)" class="st45 st44">1988</text>
			</g>
			<g>
				<text transform="matrix(0 -1 1 0 3185.3442 3296.3025)" class="st45 st44">1989</text>
			</g>
			<g>
				<text transform="matrix(0 -1 1 0 3339.04 3296.3025)" class="st45 st44">1990</text>
			</g>
			<g>
				<text transform="matrix(0 -1 1 0 3492.7588 3296.3064)" class="st45 st44">1991</text>
			</g>
			<g>
				<text transform="matrix(0 -1 1 0 3646.603 3296.3103)" class="st45 st44">1992</text>
			</g>
			<g>
				<text transform="matrix(0 -1 1 0 3800.3174 3296.3025)" class="st45 st44">1993</text>
			</g>
			<g>
				<text transform="matrix(0 -1 1 0 3954.0249 3296.3064)" class="st45 st44">1994</text>
			</g>
			<g>
				<text transform="matrix(0 -1 1 0 4107.7471 3296.3103)" class="st45 st44">1995</text>
			</g>
			<g>
				<text transform="matrix(0 -1 1 0 4261.4541 3296.3025)" class="st45 st44">1996</text>
			</g>
			<g>
				<text transform="matrix(0 -1 1 0 4415.3096 3296.3064)" class="st45 st44">1997</text>
			</g>
			<g>
				<text transform="matrix(0 -1 1 0 4569.0137 3296.3064)" class="st45 st44">1998</text>
			</g>
			<g>
				<text transform="matrix(0 -1 1 0 4722.7275 3296.3025)" class="st45 st44">1999</text>
			</g>
			<g>
				<text transform="matrix(0 -1 1 0 4876.4268 3296.3025)" class="st45 st44">2000</text>
			</g>
			<g>
				<text transform="matrix(0 -1 1 0 5030.1348 3296.3064)" class="st45 st44">2001</text>
			</g>
			<g>
				<text transform="matrix(0 -1 1 0 5183.9941 3296.3103)" class="st45 st44">2002</text>
			</g>
			<g>
				<text transform="matrix(0 -1 1 0 5337.709 3296.3025)" class="st45 st44">2003</text>
			</g>
			<g>
				<text transform="matrix(0 -1 1 0 5491.4082 3296.3064)" class="st45 st44">2004</text>
			</g>
			<g>
				<text transform="matrix(0 -1 1 0 5645.127 3296.3064)" class="st45 st44">2005</text>
			</g>
			<g>
				<text transform="matrix(0 -1 1 0 5798.8486 3296.3025)" class="st45 st44">2006</text>
			</g>
			<g>
				<text transform="matrix(0 -1 1 0 5952.5488 3296.3064)" class="st45 st44">2007</text>
			</g>
			<g>
				<text transform="matrix(0 -1 1 0 6106.3779 3296.3064)" class="st45 st44">2008</text>
			</g>
			<g>
				<text transform="matrix(0 -1 1 0 6260.1074 3296.3103)" class="st45 st44">2009</text>
			</g>
			<g>
				<text transform="matrix(0 -1 1 0 6413.8223 3296.3025)" class="st45 st44">2010</text>
			</g>
			<g>
				<text transform="matrix(0 -1 1 0 6567.5254 3296.3064)" class="st45 st44">2011</text>
			</g>
			<g>
				<text transform="matrix(0 -1 1 0 6721.2363 3296.3103)" class="st45 st44">2012</text>
			</g>
			<g>
				<text transform="matrix(0 -1 1 0 6875.0928 3296.3025)" class="st45 st44">2013</text>
			</g>
			<g>
				<text transform="matrix(0 -1 1 0 7028.7871 3296.3064)" class="st45 st44">2014</text>
			</g>
			<g>
				<text transform="matrix(0 -1 1 0 7182.4912 3296.3064)" class="st45 st44">2015</text>
			</g>
			<g>
				<text transform="matrix(0 -1 1 0 7336.2178 3296.3025)" class="st45 st44">2016</text>
			</g>
			<g>
				<text transform="matrix(0 -1 1 0 7489.9287 3296.3064)" class="st45 st44">2017</text>
			</g>
			<g>
				<text transform="matrix(0 -1 1 0 7643.7803 3296.3064)" class="st45 st44">2018</text>
			</g>
			<g>
				<text transform="matrix(0 -1 1 0 7797.4756 3296.3103)" class="st45 st44">2019</text>
			</g>
			<g>
				<text transform="matrix(0 -1 1 0 7951.1865 3296.3025)" class="st45 st44">2020</text>
			</g>
			<g>
				<text transform="matrix(0 -1 1 0 8104.9131 3296.3064)" class="st45 st44">2021</text>
			</g>
			<g>
				<text transform="matrix(0 -1 1 0 8258.6201 3297.365)" class="st43 st44">2022</text>
			</g>
		</g>
	</g>
	<g>
		<polygon points="246.2,3200.6 253.8,3189.4 261.5,3200.6 		"/>
		<polygon points="399.8,3200.6 407.5,3189.4 415.1,3200.6 		"/>
		<polygon points="399.8,3200.6 407.5,3189.4 415.1,3200.6 		"/>
		<polygon points="553.6,3200.6 561.3,3189.4 568.9,3200.6 		"/>
		<polygon points="553.6,3200.6 561.3,3189.4 568.9,3200.6 		"/>
		<polygon points="707.2,3200.6 714.8,3189.4 722.5,3200.6 		"/>
		<polygon points="860.8,3200.6 868.5,3189.4 876.1,3200.6 		"/>
		<polygon points="1014.5,3200.6 1022.1,3189.4 1029.8,3200.6 		"/>
		<polygon points="1168.3,3200.6 1175.9,3189.4 1183.6,3200.6 		"/>
		<polygon points="1322.1,3200.6 1329.7,3189.4 1337.4,3200.6 		"/>
		<polygon points="1476.1,3200.6 1483.8,3189.4 1491.4,3200.6 		"/>
		<polygon points="1629.8,3200.6 1637.4,3189.4 1645.1,3200.6 		"/>
		<polygon points="1783.5,3200.6 1791.1,3189.4 1798.8,3200.6 		"/>
		<polygon points="1937.1,3200.6 1944.8,3189.4 1952.4,3200.6 		"/>
		<polygon points="2090.8,3200.6 2098.4,3189.4 2106.1,3200.6 		"/>
		<polygon points="2244.4,3200.6 2252.1,3189.4 2259.7,3200.6 		"/>
		<polygon points="2398.1,3200.6 2405.7,3189.4 2413.4,3200.6 		"/>
		<polygon points="2551.7,3200.6 2559.4,3189.4 2567,3200.6 		"/>
		<polygon points="2705.4,3200.6 2713,3189.4 2720.7,3200.6 		"/>
		<polygon points="2859,3200.6 2866.7,3189.4 2874.4,3200.6 		"/>
		<polygon points="3012.7,3200.6 3020.4,3189.4 3028,3200.6 		"/>
		<polygon points="3166.4,3200.6 3174,3189.4 3181.7,3200.6 		"/>
		<polygon points="3320,3200.6 3327.7,3189.4 3335.3,3200.6 		"/>
		<polygon points="3473.7,3200.6 3481.3,3189.4 3489,3200.6 		"/>
		<polygon points="3627.3,3200.6 3635,3189.4 3642.6,3200.6 		"/>
		<polygon points="3781,3200.6 3788.6,3189.4 3796.3,3200.6 		"/>
		<polygon points="3934.6,3200.6 3942.3,3189.4 3949.9,3200.6 		"/>
		<polygon points="4088.3,3200.6 4096,3189.4 4103.6,3200.6 		"/>
		<polygon points="4242.2,3200.6 4249.9,3189.4 4257.5,3200.6 		"/>
		<polygon points="4395.9,3200.6 4403.5,3189.4 4411.2,3200.6 		"/>
		<polygon points="4549.5,3200.6 4557.2,3189.4 4564.9,3200.6 		"/>
		<polygon points="4703.2,3200.6 4710.9,3189.4 4718.5,3200.6 		"/>
		<polygon points="4856.9,3200.6 4864.5,3189.4 4872.2,3200.6 		"/>
		<polygon points="5010.5,3200.6 5018.2,3189.4 5025.8,3200.6 		"/>
		<polygon points="5164.2,3200.6 5171.8,3189.4 5179.5,3200.6 		"/>
		<polygon points="5317.8,3200.6 5325.5,3189.4 5333.1,3200.6 		"/>
		<polygon points="5471.5,3200.6 5479.1,3189.4 5486.8,3200.6 		"/>
		<polygon points="5625.1,3200.6 5632.8,3189.4 5640.4,3200.6 		"/>
		<polygon points="5778.8,3200.6 5786.5,3189.4 5794.1,3200.6 		"/>
		<polygon points="5932.5,3200.6 5940.1,3189.4 5947.8,3200.6 		"/>
		<polygon points="6086.1,3200.6 6093.8,3189.4 6101.4,3200.6 		"/>
		<polygon points="6239.8,3200.6 6247.4,3189.4 6255.1,3200.6 		"/>
		<polygon points="6393.4,3200.6 6401.1,3189.4 6408.7,3200.6 		"/>
		<polygon points="6547.1,3200.6 6554.7,3189.4 6562.4,3200.6 		"/>
		<polygon points="6700.7,3200.6 6708.4,3189.4 6716,3200.6 		"/>
		<polygon points="6854.4,3200.6 6862,3189.4 6869.7,3200.6 		"/>
		<polygon points="7008.3,3200.6 7016,3189.4 7023.6,3200.6 		"/>
		<polygon points="7162.3,3200.6 7169.9,3189.4 7177.6,3200.6 		"/>
		<polygon points="7316.2,3200.6 7323.9,3189.4 7331.5,3200.6 		"/>
		<polygon points="7470.1,3200.6 7477.8,3189.4 7485.4,3200.6 		"/>
		<polygon points="7624.1,3200.6 7631.7,3189.4 7639.4,3200.6 		"/>
		<polygon points="7778,3200.6 7785.7,3189.4 7793.3,3200.6 		"/>
		<polygon points="7932,3200.6 7939.6,3189.4 7947.3,3200.6 		"/>
		<polygon points="8085.9,3200.6 8093.5,3189.4 8101.2,3200.6 		"/>
		<polygon points="8239.8,3200.6 8247.5,3189.4 8255.1,3200.6 		"/>
	</g>
	<rect x="179.2" y="3540.4" class="st40" width="736.3" height="378.6"/>
	<text transform="matrix(1 0 0 1 179.2207 3580.9062)"><tspan x="0" y="0" class="st46 st47">1983:</tspan><tspan x="0" y="73" class="st45 st48">Declaración de agotamiento de la </tspan><tspan x="0" y="121" class="st45 st48">primera sección del río Mapocho y sus </tspan><tspan x="0" y="169" class="st45 st48">afluentes, Chile. No pudiéndose adquirir </tspan><tspan x="0" y="217" class="st45 st48">nuevos derechos consuntivos de agua</tspan></text>
	<rect x="984.2" y="737" class="st40" width="772.2" height="289.7"/>
	<text transform="matrix(1 0 0 1 984.1532 777.4521)"><tspan x="0" y="0" class="st46 st47">1977:</tspan><tspan x="0" y="73" class="st45 st48">Plan de acción de Mar del Plata, donde se </tspan><tspan x="0" y="121" class="st45 st48">acordó el derecho al agua potable, en </tspan><tspan x="0" y="169" class="st45 st48">cantidad y calidad para todos los pueblos, </tspan><tspan x="0" y="217" class="st45 st48">independiente de su etapa de desarrollo</tspan></text>
	<rect x="1372.1" y="3540.4" class="st40" width="284.7" height="378.6"/>
	<text transform="matrix(1 0 0 1 1372.1011 3580.9062)"><tspan x="0" y="0" class="st46 st47">1997:</tspan><tspan x="0" y="73" class="st45 st48">Se declara </tspan><tspan x="0" y="121" class="st45 st48">como agotada </tspan><tspan x="0" y="169" class="st45 st48">la cuenca de </tspan><tspan x="0" y="217" class="st45 st48">Petorca, Chile. </tspan></text>
	<rect x="2721.9" y="3540.4" class="st40" width="391.6" height="378.6"/>
	<text transform="matrix(1 0 0 1 2721.9409 3580.9062)"><tspan x="0" y="0" class="st46 st47">2008:</tspan><tspan x="0" y="73" class="st45 st48">Declaración de zona </tspan><tspan x="0" y="121" class="st45 st48">de escasez hídrica, </tspan><tspan x="0" y="169" class="st45 st48">cuenca del río  </tspan><tspan x="0" y="217" class="st45 st48">Aconcagua, Chile</tspan></text>
	<rect x="3372.3" y="3540.4" class="st40" width="554.1" height="378.6"/>
	<text transform="matrix(1 0 0 1 3372.3394 3580.9062)"><tspan x="0" y="0" class="st46 st47">2011:</tspan><tspan x="0" y="73" class="st45 st48">Declaración zona de escasez </tspan><tspan x="0" y="121" class="st45 st48">hídrica la comuna de Quilpué, </tspan><tspan x="0" y="169" class="st45 st48">Aconcagua, Til-Til y provincia </tspan><tspan x="0" y="217" class="st45 st48">de Petorca y la Ligua</tspan></text>
	<rect x="4896.3" y="3540.4" class="st40" width="244.5" height="378.6"/>
	<text transform="matrix(1 0 0 1 4896.251 3580.9062)"><tspan x="0" y="0" class="st46 st47">2018:</tspan><tspan x="0" y="73" class="st45 st48">Se seca la </tspan><tspan x="0" y="121" class="st45 st48">Laguna de </tspan><tspan x="0" y="169" class="st45 st48">Aculeo, Chile</tspan></text>
	<rect x="5463.2" y="3540.4" class="st40" width="326.5" height="378.6"/>
	<text transform="matrix(1 0 0 1 5463.2427 3580.9062)"><tspan x="0" y="0" class="st46 st47">2019:</tspan><tspan x="0" y="73" class="st45 st48">Récord de olas de </tspan><tspan x="0" y="121" class="st45 st48">calor, registrando </tspan><tspan x="0" y="169" class="st45 st48">13 olas de calor </tspan><tspan x="0" y="217" class="st45 st48">en Santiago, Chile</tspan></text>
	<rect x="6102.3" y="3540.4" class="st40" width="397.7" height="378.6"/>
	<text transform="matrix(1 0 0 1 6102.2925 3580.9062)"><tspan x="0" y="0" class="st46 st47">2019:</tspan><tspan x="0" y="73" class="st45 st48">Ola de calor más larga </tspan><tspan x="0" y="121" class="st45 st48">en Chile, registrada en </tspan><tspan x="0" y="169" class="st45 st48">Curicó con duración </tspan><tspan x="0" y="217" class="st45 st48">16 días</tspan></text>
	<rect x="7465.6" y="3540.4" class="st40" width="272.3" height="378.6"/>
	<text transform="matrix(1 0 0 1 7465.5908 3580.9062)"><tspan x="0" y="0" class="st46 st47">2021:</tspan><tspan x="0" y="73" class="st45 st48">Embalses del </tspan><tspan x="0" y="121" class="st45 st48">país presentan </tspan><tspan x="0" y="169" class="st45 st48">un 25% de </tspan><tspan x="0" y="217" class="st45 st48">déficit</tspan></text>
	<rect x="8027.5" y="3540.4" class="st40" width="306.4" height="378.6"/>
	<text transform="matrix(1 0 0 1 8027.5249 3580.9062)"><tspan x="0" y="0" class="st46 st47">2021:</tspan><tspan x="0" y="73" class="st45 st48">Déficit de </tspan><tspan x="0" y="121" class="st45 st48">precipitación </tspan><tspan x="0" y="169" class="st45 st48">de un 63% en </tspan><tspan x="0" y="217" class="st45 st48">Valparaíso, Chile</tspan></text>
	<rect x="1814" y="737" class="st40" width="631.7" height="289.7"/>
	<text transform="matrix(1 0 0 1 1814 777.4521)"><tspan x="0" y="0" class="st46 st47">1985:</tspan><tspan x="0" y="73" class="st45 st48">Declaración de agotamiento de la </tspan><tspan x="0" y="121" class="st45 st48">primera sección del río Aconcagua, </tspan><tspan x="0" y="169" class="st45 st48">Chile. No pudiéndose adquirir </tspan><tspan x="0" y="217" class="st45 st48">nuevos derechos consuntivos de </tspan></text>
	<rect x="2562.9" y="737" class="st40" width="483.6" height="289.7"/>
	<text transform="matrix(1 0 0 1 2562.9463 777.4521)"><tspan x="0" y="0" class="st46 st47">2004:</tspan><tspan x="0" y="73" class="st45 st48">Declaración de </tspan><tspan x="0" y="121" class="st45 st48">agotamiento del río </tspan><tspan x="0" y="169" class="st45 st48">Putaendo y sus afluentes, </tspan><tspan x="0" y="217" class="st45 st48">Chile. No pudiéndose </tspan></text>
	<rect x="3902.9" y="737" class="st40" width="487.7" height="378.6"/>
	<text transform="matrix(1 0 0 1 3902.9072 777.4521)"><tspan x="0" y="0" class="st46 st47">2010:</tspan><tspan x="0" y="73" class="st45 st48">Se declara zona de </tspan><tspan x="0" y="121" class="st45 st48">escasez hídrica la comuna </tspan><tspan x="0" y="169" class="st45 st48">de Quilpué, cuencas de </tspan><tspan x="0" y="217" class="st45 st48">Ligua-Petorca y Aconcagua</tspan></text>
	<rect x="4684.1" y="737" class="st40" width="586.6" height="378.6"/>
	<text transform="matrix(1 0 0 1 4684.1445 777.4521)"><tspan x="0" y="0" class="st46 st47">2017:</tspan><tspan x="0" y="73" class="st45 st48">Olas de calor, con temperaturas </tspan><tspan x="0" y="121" class="st45 st48">que sobrepasaron los 40°C, </tspan><tspan x="0" y="169" class="st45 st48">entre la región de Valparaíso y </tspan><tspan x="0" y="217" class="st45 st48">de O&apos;Higgins, Chile</tspan></text>
	<rect x="5362.7" y="737" class="st40" width="368.3" height="378.6"/>
	<text transform="matrix(1 0 0 1 5362.7251 777.4521)"><tspan x="0" y="0" class="st46 st47">2018:</tspan><tspan x="0" y="73" class="st45 st48">Se declara como </tspan><tspan x="0" y="121" class="st45 st48">zona de prohibición </tspan><tspan x="0" y="169" class="st45 st48">la cuenca de </tspan><tspan x="0" y="217" class="st45 st48">Petorca, Chile</tspan></text>
	<rect x="5954.5" y="737" class="st40" width="373" height="378.6"/>
	<text transform="matrix(1 0 0 1 5954.5303 777.4521)"><tspan x="0" y="0" class="st46 st47">2019:</tspan><tspan x="0" y="73" class="st45 st48">2.000 millones de </tspan><tspan x="0" y="121" class="st45 st48">personas viven en </tspan><tspan x="0" y="169" class="st45 st48">países que sufren </tspan><tspan x="0" y="217" class="st45 st48">escasez de agua</tspan></text>
	<rect x="6394.7" y="737" class="st40" width="461.2" height="378.6"/>
	<text transform="matrix(1 0 0 1 6394.7095 777.4521)"><tspan x="0" y="0" class="st46 st47">2020-2021:</tspan><tspan x="0" y="73" class="st45 st48">Déficit de un 72% nival en </tspan><tspan x="0" y="121" class="st45 st48">la cuenca del Aconcagua, </tspan><tspan x="0" y="169" class="st45 st48">y un 64% en la cuenca del </tspan><tspan x="0" y="217" class="st45 st48">Maipo, Chile</tspan></text>
	<rect x="7078.6" y="737" class="st40" width="355.9" height="378.6"/>
	<text transform="matrix(1 0 0 1 7078.6475 777.4521)"><tspan x="0" y="0" class="st46 st47">2021:</tspan><tspan x="0" y="73" class="st45 st48">Segundo año más </tspan><tspan x="0" y="121" class="st45 st48">seco en Chile con </tspan><tspan x="0" y="169" class="st45 st48">un déficit de 43% </tspan><tspan x="0" y="217" class="st45 st48">de precipitaciones</tspan></text>
	<rect x="7523.2" y="737" class="st40" width="833.9" height="288.9"/>
	<text transform="matrix(1 0 0 1 7523.2354 777.4521)"><tspan x="0" y="0" class="st46 st47">2019-2022:</tspan><tspan x="0" y="73" class="st45 st48">Declaración de zona de escasez en la gran </tspan><tspan x="0" y="121" class="st45 st48">parte de las comunas de santiago y región de </tspan><tspan x="0" y="169" class="st45 st48">Valparaíso, entre ellas San José de maipo, Lo </tspan><tspan x="0" y="217" class="st45 st48">Barnechea, María Pinto, Til-til, Melipilla y </tspan></text>
	<rect x="179.1" y="547.1" class="st40" width="3335" height="140"/>
	<text transform="matrix(1 0 0 1 179.1441 628.065)" class="st41 st42">(desde 1970 a 2022)</text>
	<rect x="702.1" y="2592.3" class="st40" width="955.3" height="461.4"/>
	<text transform="matrix(1 0 0 1 731.6305 2632.8052)"><tspan x="0" y="0" class="st46 st47">La ola de calor más extensa registrada </tspan><tspan x="-15" y="69.6" class="st46 st47">en Valparaíso ocurrió hace pocos meses </tspan><tspan x="59.9" y="139.2" class="st46 st47">y fue en diciembre de 2022 con una </tspan><tspan x="109.8" y="208.8" class="st46 st47">duración de 8 días continuos.</tspan></text>
	<rect x="527" y="2034.8" class="st40" width="1299.5" height="519.1"/>
	<text transform="matrix(1 0 0 1 528.2285 2072.3142)"><tspan x="0" y="0" class="st45 st47">Una ola de calor se define como el periodo de tiempo en el </tspan><tspan x="4.2" y="59.1" class="st45 st47">cual las temperaturas máximas diarias superan un umbral </tspan><tspan x="20" y="118.2" class="st45 st47">diario considerado extremo, por tres días consecutivos o </tspan><tspan x="21.6" y="177.3" class="st45 st47">más. Este umbral diario corresponde a temperaturas por </tspan><tspan x="11.9" y="236.5" class="st45 st47">sobre el 90% de las temperaturas típicas (percentil 90) de </tspan><tspan x="50.7" y="295.6" class="st45 st47">distribución para el periodo de referencia entre 1981 y </tspan><tspan x="9.4" y="354.7" class="st45 st47">2010. En esta figura se puede observar el número total de </tspan><tspan x="86.6" y="413.8" class="st45 st47">días por año que califican como una “ola de calor”. </tspan></text>
	<g>
		<text transform="matrix(1 0 0 1 2604.8496 3944.6492)" class="st45 st49">Fuentes: National Geographic (https://www.nationalgeographic.com.es/), Sernageomin (https://www.sernageomin.cl/pdf/LIBROdevolcanes_SERNAGEOMIN.pdf), Biblioteca Nacional de Chile (https://www.memoriachilena.gob.cl/602/w3-propertyname-559.html), Organización Mundial de la Salud (https://www.who.int/es), Conaf (https://www.conaf.cl/incendios-forestales/), Dirección general de aguas.</text>
	</g>
	<g>
		<g>
			<g>
				<g>
					<g>
						<text transform="matrix(1 0 0 1 1039.6559 1716.3981)" class="st50 st48">Número de días</text>
					</g>
				</g>
			</g>
		</g>
		<g>
			<g>
				<text transform="matrix(1.0001 0 0 1 824.3634 1798.0563)" class="st45 st48">10</text>
			</g>
			<g>
				<text transform="matrix(1.0001 0 0 1 1021.191 1798.0563)" class="st45 st48">20</text>
			</g>
			<g>
				<text transform="matrix(1.0001 0 0 1 1218.0177 1798.0563)" class="st45 st48">30</text>
			</g>
			<g>
				<text transform="matrix(1.0001 0 0 1 638.7653 1798.0563)" class="st45 st48">0</text>
			</g>
			<g>
				<text transform="matrix(1.0001 0 0 1 1414.8478 1798.0563)" class="st45 st48">40</text>
			</g>
			<g>
				<text transform="matrix(1.0001 0 0 1 1611.6603 1798.0563)" class="st45 st48">50</text>
			</g>
		</g>
	</g>
</g>
</svg>
