<?xml version="1.0" encoding="utf-8"?>
<!-- Generator: Adobe Illustrator 25.2.0, SVG Export Plug-In . SVG Version: 6.00 Build 0)  -->
<svg version="1.1" xmlns="http://www.w3.org/2000/svg" xmlns:xlink="http://www.w3.org/1999/xlink" x="0px" y="0px"
	 viewBox="0 0 8503.9 4053.5" style="enable-background:new 0 0 8503.9 4053.5;" xml:space="preserve">
<style type="text/css">
	.st0{fill:#FFFFFF;}
	.st1{fill:#144F8C;}
	.st2{fill:#3FC0F0;}
	.st3{fill:#3E81C3;}
	.st4{fill:#B7E0EA;}
	.st5{fill:#F5FAFC;}
	.st6{fill:#FCF5EC;}
	.st7{fill:#F9C2A4;}
	.st8{fill:#EC655B;}
	.st9{fill:#E73331;}
	.st10{fill:#E83D3C;}
	.st11{fill:#D22726;}
	.st12{fill:#912713;}
	.st13{fill:#8C1B1A;}
	.st14{fill:#C6C6C6;}
	.st15{fill:none;stroke:#3E81C3;stroke-width:3;stroke-miterlimit:10;}
	.st16{fill:none;stroke:#3E81C3;stroke-width:5;stroke-linecap:round;stroke-linejoin:round;stroke-miterlimit:10;}
	.st17{fill:none;stroke:#000000;stroke-width:2.1996;stroke-miterlimit:10;}
	.st18{fill:none;stroke:#000000;stroke-width:4.3992;stroke-miterlimit:10;}
	.st19{fill:none;stroke:#000000;stroke-width:4.469;stroke-miterlimit:10;}
	.st20{fill:none;stroke:#000000;stroke-width:1.5;stroke-miterlimit:10;}
	.st21{fill:none;stroke:#000000;stroke-width:1.5;stroke-miterlimit:10;stroke-dasharray:5.0046,5.0046;}
	.st22{fill:none;stroke:#000000;stroke-width:1.5;stroke-miterlimit:10;stroke-dasharray:5.0132,5.0132;}
	.st23{fill:none;stroke:#000000;stroke-width:1.5;stroke-miterlimit:10;stroke-dasharray:4.9882,4.9882;}
	.st24{fill:none;stroke:#000000;stroke-width:1.5;stroke-miterlimit:10;stroke-dasharray:4.997,4.997;}
	.st25{fill:none;stroke:#000000;stroke-width:1.5;stroke-miterlimit:10;stroke-dasharray:4.9921,4.9921;}
	.st26{fill:none;stroke:#000000;stroke-width:1.5;stroke-miterlimit:10;stroke-dasharray:4.9924,4.9924;}
	.st27{fill:none;stroke:#000000;stroke-width:1.5;stroke-miterlimit:10;stroke-dasharray:4.9671,4.9671;}
	.st28{fill:none;stroke:#000000;stroke-width:1.5;stroke-miterlimit:10;stroke-dasharray:4.9904,4.9904;}
	.st29{fill:none;stroke:#000000;stroke-width:1.5;stroke-miterlimit:10;stroke-dasharray:5.0063,5.0063;}
	.st30{fill:none;stroke:#000000;stroke-width:1.5;stroke-miterlimit:10;stroke-dasharray:4.986,4.986;}
	.st31{fill:none;stroke:#000000;stroke-width:1.5;stroke-miterlimit:10;stroke-dasharray:5.0174,5.0174;}
	.st32{fill:none;stroke:#000000;stroke-width:1.5;stroke-miterlimit:10;stroke-dasharray:4.9541,4.9541;}
	.st33{fill:none;stroke:#000000;stroke-width:1.5;stroke-miterlimit:10;stroke-dasharray:4.9578,4.9578;}
	.st34{fill:none;stroke:#000000;stroke-width:1.5;stroke-miterlimit:10;stroke-dasharray:4.9416,4.9416;}
	.st35{fill:none;stroke:#000000;stroke-width:1.5;stroke-miterlimit:10;stroke-dasharray:4.9629,4.9629;}
	.st36{fill:none;stroke:#000000;stroke-width:1.5;stroke-miterlimit:10;stroke-dasharray:5.0264,5.0264;}
	.st37{fill:none;stroke:#000000;stroke-width:1.5;stroke-miterlimit:10;stroke-dasharray:4.9984,4.9984;}
	.st38{fill:none;stroke:#000000;stroke-width:1.5;stroke-miterlimit:10;stroke-dasharray:5.012,5.012;}
	.st39{fill:none;stroke:#000000;stroke-width:1.5;stroke-miterlimit:10;stroke-dasharray:4.9972,4.9972;}
	.st40{fill:none;stroke:#000000;stroke-width:1.5;stroke-miterlimit:10;stroke-dasharray:5.0092,5.0092;}
	.st41{fill:none;stroke:#000000;stroke-width:1.5;stroke-miterlimit:10;stroke-dasharray:5.0122,5.0122;}
	.st42{fill:none;stroke:#000000;stroke-width:1.5;stroke-miterlimit:10;stroke-dasharray:4.9677,4.9677;}
	.st43{font-family:'Roboto';font-weight:900;}
	.st44{font-size:30px;}
	.st45{font-family:'Roboto';font-weight:500;}
	.st46{fill:none;}
	.st47{font-family:'Oswald';font-weight:700;}
	.st48{font-size:50px;}
	.st49{font-size:40px;}
	.st50{font-family:'Oswald';font-weight:900;}
	.st51{font-size:230px;}
	.st52{font-family:'Oswald';font-weight:300;}
	.st53{font-size:100px;}
	.st54{font-size:32px;}
	.st55{font-family:'Roboto';font-weight:900;}
</style>
<g id="fondo">
	<rect class="st0" width="8503.9" height="4053.5"/>
</g>
<g id="grafico">
	<g>
		<rect x="179.1" y="1228.1" class="st1" width="47.1" height="1940.4"/>
		<rect x="226.2" y="1228.1" class="st2" width="47.1" height="1940.4"/>
		<rect x="273.3" y="1228.1" class="st2" width="47.1" height="1940.4"/>
		<rect x="320.4" y="1228.1" class="st2" width="47.1" height="1940.4"/>
		<rect x="367.5" y="1228.1" class="st3" width="47.1" height="1940.4"/>
		<rect x="414.6" y="1228.1" class="st3" width="47.1" height="1940.4"/>
		<rect x="461.7" y="1228.1" class="st3" width="47.1" height="1940.4"/>
		<rect x="508.8" y="1228.1" class="st1" width="47.1" height="1940.4"/>
		<rect x="555.8" y="1228.1" class="st3" width="47.1" height="1940.4"/>
		<rect x="602.9" y="1228.1" class="st2" width="47.1" height="1940.4"/>
		<rect x="650" y="1228.1" class="st3" width="47.1" height="1940.4"/>
		<rect x="697" y="1228.1" class="st1" width="47.1" height="1940.4"/>
		<rect x="791.2" y="1228.1" class="st3" width="47.1" height="1940.4"/>
		<rect x="838.3" y="1228.1" class="st1" width="47.1" height="1940.4"/>
		<rect x="885.4" y="1228.1" class="st3" width="47.1" height="1940.4"/>
		<rect x="932.5" y="1228.1" class="st3" width="47.1" height="1940.4"/>
		<rect x="979.6" y="1228.1" class="st3" width="47.1" height="1940.4"/>
		<rect x="1026.7" y="1228.1" class="st3" width="47.1" height="1940.4"/>
		<rect x="1073.7" y="1228.1" class="st3" width="47.1" height="1940.4"/>
		<rect x="1120.8" y="1228.1" class="st3" width="47.1" height="1940.4"/>
		<rect x="1167.9" y="1228.1" class="st3" width="47.1" height="1940.4"/>
		<rect x="1215" y="1228.1" class="st3" width="47.1" height="1940.4"/>
		<rect x="1262.1" y="1228.1" class="st3" width="47.1" height="1940.4"/>
		<rect x="1309.2" y="1228.1" class="st3" width="47.1" height="1940.4"/>
		<rect x="1356.3" y="1228.1" class="st3" width="47.1" height="1940.4"/>
		<rect x="1403.4" y="1228.1" class="st1" width="47.1" height="1940.4"/>
		<rect x="1450.4" y="1228.1" class="st4" width="47.1" height="1940.4"/>
		<rect x="1497.5" y="1228.1" class="st5" width="47.1" height="1940.4"/>
		<rect x="1544.6" y="1228.1" class="st3" width="47.1" height="1940.4"/>
		<rect x="1591.6" y="1228.1" class="st3" width="47.1" height="1940.4"/>
		<rect x="1638.7" y="1228.1" class="st2" width="47.1" height="1940.4"/>
		<rect x="1685.8" y="1228.1" class="st3" width="47.1" height="1940.4"/>
		<rect x="1732.9" y="1228.1" class="st3" width="47.1" height="1940.4"/>
		<rect x="1780" y="1228.1" class="st1" width="47.1" height="1940.4"/>
		<rect x="1827.1" y="1228.1" class="st1" width="47.1" height="1940.4"/>
		<rect x="1874.2" y="1228.1" class="st1" width="47.1" height="1940.4"/>
		<rect x="1921.3" y="1228.1" class="st1" width="47.1" height="1940.4"/>
		<rect x="1968.3" y="1228.1" class="st3" width="47.1" height="1940.4"/>
		<rect x="2015.4" y="1228.1" class="st2" width="47.1" height="1940.4"/>
		<rect x="2109.6" y="1228.1" class="st1" width="47.1" height="1940.4"/>
		<rect x="2203.8" y="1228.1" class="st1" width="47.1" height="1940.4"/>
		<rect x="2250.9" y="1228.1" class="st1" width="47.1" height="1940.4"/>
		<rect x="2297.9" y="1228.1" class="st1" width="47.1" height="1940.4"/>
		<rect x="2345" y="1228.1" class="st2" width="47.1" height="1940.4"/>
		<rect x="2392.1" y="1228.1" class="st2" width="47.1" height="1940.4"/>
		<rect x="2439.1" y="1228.1" class="st1" width="47.1" height="1940.4"/>
		<rect x="2486.2" y="1228.1" class="st3" width="47.1" height="1940.4"/>
		<rect x="2533.3" y="1228.1" class="st2" width="47.1" height="1940.4"/>
		<rect x="2580.4" y="1228.1" class="st3" width="47.1" height="1940.4"/>
		<rect x="2627.5" y="1228.1" class="st1" width="47.1" height="1940.4"/>
		<rect x="2768.8" y="1228.1" class="st1" width="47.1" height="1940.4"/>
		<rect x="2815.8" y="1228.1" class="st3" width="47.1" height="1940.4"/>
		<rect x="3098.4" y="1228.1" class="st1" width="47.1" height="1940.4"/>
		<rect x="3145.5" y="1228.1" class="st1" width="47.1" height="1940.4"/>
		<rect x="3192.5" y="1228.1" class="st2" width="47.1" height="1940.4"/>
		<rect x="3239.6" y="1228.1" class="st2" width="47.1" height="1940.4"/>
		<rect x="3286.7" y="1228.1" class="st1" width="47.1" height="1940.4"/>
		<rect x="3380.8" y="1228.1" class="st1" width="47.1" height="1940.4"/>
		<rect x="3427.9" y="1228.1" class="st3" width="47.1" height="1940.4"/>
		<rect x="3475" y="1228.1" class="st3" width="47.1" height="1940.4"/>
		<rect x="3522.1" y="1228.1" class="st2" width="47.1" height="1940.4"/>
		<rect x="3569.2" y="1228.1" class="st3" width="47.1" height="1940.4"/>
		<rect x="3616.3" y="1228.1" class="st3" width="47.1" height="1940.4"/>
		<rect x="3663.4" y="1228.1" class="st3" width="47.1" height="1940.4"/>
		<rect x="3710.4" y="1228.1" class="st2" width="47.1" height="1940.4"/>
		<rect x="3757.5" y="1228.1" class="st4" width="47.1" height="1940.4"/>
		<rect x="3804.6" y="1228.1" class="st2" width="47.1" height="1940.4"/>
		<rect x="3851.7" y="1228.1" class="st2" width="47.1" height="1940.4"/>
		<rect x="3898.8" y="1228.1" class="st3" width="47.1" height="1940.4"/>
		<rect x="3945.9" y="1228.1" class="st4" width="47.1" height="1940.4"/>
		<rect x="3993" y="1228.1" class="st4" width="47.1" height="1940.4"/>
		<rect x="4040.1" y="1228.1" class="st4" width="47.1" height="1940.4"/>
		<rect x="4087.1" y="1228.1" class="st3" width="47.1" height="1940.4"/>
		<rect x="4134.2" y="1228.1" class="st4" width="47.1" height="1940.4"/>
		<rect x="4181.3" y="1228.1" class="st2" width="47.1" height="1940.4"/>
		<rect x="4228.3" y="1228.1" class="st4" width="47.1" height="1940.4"/>
		<rect x="4275.4" y="1228.1" class="st5" width="47.1" height="1940.4"/>
		<rect x="4322.5" y="1228.1" class="st5" width="47.1" height="1940.4"/>
		<rect x="4369.6" y="1228.1" class="st5" width="47.1" height="1940.4"/>
		<rect x="4416.7" y="1228.1" class="st0" width="47.1" height="1940.4"/>
		<rect x="4463.8" y="1228.1" class="st0" width="47.1" height="1940.4"/>
		<rect x="4510.9" y="1228.1" class="st5" width="47.1" height="1940.4"/>
		<rect x="4558" y="1228.1" class="st5" width="47.1" height="1940.4"/>
		<rect x="4605" y="1228.1" class="st6" width="47.1" height="1940.4"/>
		<rect x="4652.1" y="1228.1" class="st0" width="47.1" height="1940.4"/>
		<rect x="4699.2" y="1228.1" class="st4" width="47.1" height="1940.4"/>
		<rect x="4746.3" y="1228.1" class="st4" width="47.1" height="1940.4"/>
		<rect x="4793.4" y="1228.1" class="st4" width="47.1" height="1940.4"/>
		<rect x="4840.5" y="1228.1" class="st4" width="47.1" height="1940.4"/>
		<rect x="4887.6" y="1228.1" class="st2" width="47.1" height="1940.4"/>
		<rect x="4934.7" y="1228.1" class="st5" width="47.1" height="1940.4"/>
		<rect x="4981.7" y="1228.1" class="st5" width="47.1" height="1940.4"/>
		<rect x="5028.8" y="1228.1" class="st0" width="47.1" height="1940.4"/>
		<rect x="5075.9" y="1228.1" class="st4" width="47.1" height="1940.4"/>
		<rect x="5122.9" y="1228.1" class="st2" width="47.1" height="1940.4"/>
		<rect x="5170" y="1228.1" class="st2" width="47.1" height="1940.4"/>
		<rect x="5217.1" y="1228.1" class="st5" width="47.1" height="1940.4"/>
		<rect x="5264.2" y="1228.1" class="st5" width="47.1" height="1940.4"/>
		<rect x="5311.3" y="1228.1" class="st5" width="47.1" height="1940.4"/>
		<rect x="5358.4" y="1228.1" class="st4" width="47.1" height="1940.4"/>
		<rect x="5405.5" y="1228.1" class="st5" width="47.1" height="1940.4"/>
		<rect x="5452.6" y="1228.1" class="st5" width="47.1" height="1940.4"/>
		<rect x="5499.6" y="1228.1" class="st5" width="47.1" height="1940.4"/>
		<rect x="5546.7" y="1228.1" class="st3" width="47.1" height="1940.4"/>
		<rect x="5593.8" y="1228.1" class="st2" width="47.1" height="1940.4"/>
		<rect x="5640.9" y="1228.1" class="st4" width="47.1" height="1940.4"/>
		<rect x="5688" y="1228.1" class="st4" width="47.1" height="1940.4"/>
		<rect x="5735.1" y="1228.1" class="st4" width="47.1" height="1940.4"/>
		<rect x="5782.2" y="1228.1" class="st5" width="47.1" height="1940.4"/>
		<rect x="5829.2" y="1228.1" class="st4" width="47.1" height="1940.4"/>
		<rect x="5876.3" y="1228.1" class="st2" width="47.1" height="1940.4"/>
		<rect x="5923.4" y="1228.1" class="st4" width="47.1" height="1940.4"/>
		<rect x="5970.4" y="1228.1" class="st0" width="47.1" height="1940.4"/>
		<rect x="6017.5" y="1228.1" class="st4" width="47.1" height="1940.4"/>
		<rect x="6064.6" y="1228.1" class="st4" width="47.1" height="1940.4"/>
		<rect x="6111.7" y="1228.1" class="st2" width="47.1" height="1940.4"/>
		<rect x="6158.8" y="1228.1" class="st0" width="47.1" height="1940.4"/>
		<rect x="6205.9" y="1228.1" class="st5" width="47.1" height="1940.4"/>
		<rect x="6253" y="1228.1" class="st0" width="47.1" height="1940.4"/>
		<rect x="6300.1" y="1228.1" class="st6" width="47.1" height="1940.4"/>
		<rect x="6347.1" y="1228.1" class="st7" width="47.1" height="1940.4"/>
		<rect x="6394.2" y="1228.1" class="st5" width="47.1" height="1940.4"/>
		<rect x="6441.3" y="1228.1" class="st6" width="47.1" height="1940.4"/>
		<rect x="6488.4" y="1228.1" class="st0" width="47.1" height="1940.4"/>
		<rect x="6535.5" y="1228.1" class="st0" width="47.1" height="1940.4"/>
		<rect x="6582.6" y="1228.1" class="st0" width="47.1" height="1940.4"/>
		<rect x="6629.7" y="1228.1" class="st6" width="47.1" height="1940.4"/>
		<rect x="6676.8" y="1228.1" class="st7" width="47.1" height="1940.4"/>
		<rect x="6723.8" y="1228.1" class="st6" width="47.1" height="1940.4"/>
		<rect x="6770.9" y="1228.1" class="st8" width="47.1" height="1940.4"/>
		<rect x="6818" y="1228.1" class="st7" width="47.1" height="1940.4"/>
		<rect x="6865" y="1228.1" class="st0" width="47.1" height="1940.4"/>
		<rect x="6912.1" y="1228.1" class="st6" width="47.1" height="1940.4"/>
		<rect x="6959.2" y="1228.1" class="st6" width="47.1" height="1940.4"/>
		<rect x="7006.3" y="1228.1" class="st8" width="47.1" height="1940.4"/>
		<rect x="7053.4" y="1228.1" class="st7" width="47.1" height="1940.4"/>
		<rect x="7100.5" y="1228.1" class="st8" width="47.1" height="1940.4"/>
		<rect x="7147.6" y="1228.1" class="st9" width="47.1" height="1940.4"/>
		<rect x="7194.7" y="1228.1" class="st7" width="47.1" height="1940.4"/>
		<rect x="7241.7" y="1228.1" class="st7" width="47.1" height="1940.4"/>
		<rect x="7288.8" y="1228.1" class="st10" width="47.1" height="1940.4"/>
		<rect x="7335.9" y="1228.1" class="st10" width="47.1" height="1940.4"/>
		<rect x="7383" y="1228.1" class="st10" width="47.1" height="1940.4"/>
		<rect x="7430.1" y="1228.1" class="st10" width="47.1" height="1940.4"/>
		<rect x="7477.2" y="1228.1" class="st9" width="47.1" height="1940.4"/>
		<rect x="7524.3" y="1228.1" class="st9" width="47.1" height="1940.4"/>
		<rect x="7571.3" y="1228.1" class="st9" width="47.1" height="1940.4"/>
		<rect x="7618.4" y="1228.1" class="st10" width="47.1" height="1940.4"/>
		<rect x="7665.5" y="1228.1" class="st9" width="47.1" height="1940.4"/>
		<rect x="7712.6" y="1228.1" class="st11" width="47.1" height="1940.4"/>
		<rect x="7759.6" y="1228.1" class="st10" width="47.1" height="1940.4"/>
		<rect x="7806.7" y="1228.1" class="st9" width="47.1" height="1940.4"/>
		<rect x="7853.8" y="1228.1" class="st9" width="47.1" height="1940.4"/>
		<rect x="7900.9" y="1228.1" class="st9" width="47.1" height="1940.4"/>
		<rect x="7948" y="1228.1" class="st12" width="47.1" height="1940.4"/>
		<rect x="7995.1" y="1228.1" class="st13" width="47.1" height="1940.4"/>
		<rect x="8042.2" y="1228.1" class="st12" width="47.1" height="1940.4"/>
		<rect x="8089.3" y="1228.1" class="st11" width="47.1" height="1940.4"/>
		<rect x="8136.3" y="1228.1" class="st12" width="47.1" height="1940.4"/>
		<rect x="8183.4" y="1228.1" class="st13" width="47.1" height="1940.4"/>
		<rect x="8230.5" y="1228.1" class="st11" width="47.1" height="1940.4"/>
		<rect x="8277.6" y="1228.1" class="st12" width="47.1" height="1940.4"/>
	</g>
</g>
<g id="elementos">
	<rect x="4321.5" y="687" class="st14" width="772.8" height="375.3"/>
	<rect x="1028.3" y="687" class="st14" width="772.8" height="375.3"/>
	<rect x="4285.4" y="3489.9" class="st14" width="772.8" height="375.3"/>
	<rect x="1820.6" y="3489.9" class="st14" width="772.8" height="375.3"/>
	<g>
		<line class="st15" x1="179.1" y1="3601.9" x2="283.7" y2="3601.9"/>
	</g>
	<g>
		<line class="st15" x1="321.6" y1="798.5" x2="426.2" y2="798.5"/>
	</g>
	<g>
		<line class="st15" x1="707.8" y1="3601.9" x2="812.3" y2="3601.9"/>
	</g>
	<g>
		<line class="st15" x1="1212.8" y1="3601.9" x2="1317.4" y2="3601.9"/>
	</g>
	<g>
		<line class="st15" x1="2642.2" y1="3601.9" x2="2746.8" y2="3601.9"/>
	</g>
	<g>
		<line class="st15" x1="3432.7" y1="3601.9" x2="3537.2" y2="3601.9"/>
	</g>
	<g>
		<line class="st15" x1="3864.2" y1="3601.9" x2="3968.7" y2="3601.9"/>
	</g>
	<g>
		<line class="st15" x1="5231" y1="3601.9" x2="5335.5" y2="3601.9"/>
	</g>
	<g>
		<line class="st15" x1="5806.8" y1="3601.9" x2="5911.3" y2="3601.9"/>
	</g>
	<g>
		<line class="st15" x1="6415" y1="3601.9" x2="6519.5" y2="3601.9"/>
	</g>
	<g>
		<line class="st15" x1="7189.7" y1="3601.9" x2="7294.2" y2="3601.9"/>
	</g>
	<g>
		<line class="st15" x1="7944.1" y1="3601.9" x2="8048.6" y2="3601.9"/>
	</g>
	<g>
		<line class="st15" x1="1854.5" y1="798.5" x2="1959" y2="798.5"/>
	</g>
	<g>
		<line class="st15" x1="2336.8" y1="798.5" x2="2441.3" y2="798.5"/>
	</g>
	<g>
		<line class="st15" x1="2730.1" y1="798.5" x2="2834.6" y2="798.5"/>
	</g>
	<g>
		<line class="st15" x1="3449.4" y1="798.5" x2="3554" y2="798.5"/>
	</g>
	<g>
		<line class="st15" x1="3950" y1="798.5" x2="4054.5" y2="798.5"/>
	</g>
	<g>
		<line class="st15" x1="5139.6" y1="798.5" x2="5244.1" y2="798.5"/>
	</g>
	<g>
		<line class="st15" x1="5776.9" y1="798.5" x2="5881.4" y2="798.5"/>
	</g>
	<g>
		<line class="st15" x1="6385.7" y1="798.5" x2="6490.3" y2="798.5"/>
	</g>
	<g>
		<line class="st15" x1="7066.8" y1="798.5" x2="7171.4" y2="798.5"/>
	</g>
	<g>
		<line class="st15" x1="7702.3" y1="798.5" x2="7806.8" y2="798.5"/>
	</g>
	<g>
		<g>
			<g>
				<rect x="5085.8" y="3603.4" class="st16" width="113.4" height="113.4"/>
				<line class="st16" x1="5096.5" y1="3613.8" x2="5105.2" y2="3613.8"/>
				<line class="st16" x1="5132.2" y1="3703.9" x2="5152.8" y2="3703.9"/>
				<rect x="5125.1" y="3678.8" class="st16" width="34.7" height="12.2"/>
				<g>
					<path class="st16" d="M5114.7,3644.6h16.1c5.7,0,10.3-4.6,10.3-10.3s-4.6-10.3-10.3-10.3h-16.1v42"/>
					<path class="st16" d="M5151.4,3647c0-5.2,4.2-9.4,9.4-9.4c5.2,0,9.4,4.2,9.4,9.4v7.7c0,5.2-4.2,9.4-9.4,9.4
						c-5.2,0-9.4-4.2-9.4-9.4"/>
					<line class="st16" x1="5151.4" y1="3665.9" x2="5151.4" y2="3623.9"/>
				</g>
			</g>
		</g>
	</g>
	<g>
		<g>
			<g>
				<g>
					<g>
						<g>
							<g>
								<g>
									<line class="st16" x1="281.1" y1="863.1" x2="281.1" y2="832.8"/>
									<polyline class="st16" points="272.7,841.1 281.1,832.8 289.4,841.1 									"/>
								</g>
								<g>
									<line class="st16" x1="248.4" y1="848" x2="248.4" y2="817.7"/>
									<polyline class="st16" points="240,826 248.4,817.7 256.7,826 									"/>
								</g>
								<g>
									<line class="st16" x1="209.6" y1="832.8" x2="209.6" y2="802.5"/>
									<polyline class="st16" points="201.3,810.9 209.6,802.5 218,810.9 									"/>
								</g>
							</g>
						</g>
						<path id="XMLID_00000016069248162448614440000012892252073086460326_" class="st16" d="M277.5,904.8c8,0,14.6-6.5,14.6-14.6
							c0-8-6.5-14.6-14.6-14.6c-3.6,0-6.8,1.3-9.4,3.4c-2-9.8-10.7-17.2-21.1-17.2c-3.4,0-6.6,0.8-9.5,2.2
							c-4.2-11.7-15.4-20.1-28.5-20.1c-16.8,0-30.3,13.6-30.3,30.4c0,16.8,13.6,30.4,30.3,30.4H277.5z"/>
					</g>
				</g>
				<g>
					<path class="st16" d="M217.9,887.8c-1.6,2.3-3.9,3.6-6.4,3.6c-4.5,0-8.2-4.4-8.2-9.7s3.7-9.7,8.3-9.7c2.8,0,5.4,1.7,6.9,4.5"/>
					
						<ellipse transform="matrix(1.429648e-03 -1 1 1.429648e-03 -647.9985 1114.4459)" class="st16" cx="234" cy="881.7" rx="9.7" ry="8.2"/>
					<path class="st16" d="M248.6,886.9c0-1.4,1.4-2.6,3-2.6c1.7,0,3,1.1,3,2.6c0,1.9-5.7,7-5.7,7h6.1"/>
				</g>
			</g>
		</g>
	</g>
	<g>
		<g>
			<g>
				<ellipse class="st16" cx="3359.4" cy="809.3" rx="56.7" ry="11.2"/>
				<path class="st16" d="M3397.3,832.2c-9.4,2.2-22.8,3.7-37.8,3.7c-28.3,0-51.3-5-51.3-11.2"/>
				<path class="st16" d="M3342.3,848.9c-16.3-1.4-27.7-4.9-27.7-8.9"/>
				<path class="st16" d="M3404.3,840c0,4.6-15.4,8.5-35.8,9.4"/>
				<path class="st16" d="M3368.5,863.1c-2.9,0.1-5.9,0.2-9,0.2c-20.9,0-37.8-3.1-37.8-6.8"/>
				<path class="st16" d="M3397.3,856.4c0,1.6-3,3.1-8.1,4.2"/>
				<path class="st16" d="M3336.6,874.5c-4.3-1.2-6.9-2.7-6.9-4.4"/>
				<path class="st16" d="M3389.1,870.1c0,3.8-13.3,6.8-29.7,6.8c-4.1,0-8-0.2-11.5-0.5"/>
				<path class="st16" d="M3382.2,885.9c0,2.6-10.2,4.7-22.8,4.7s-22.8-2.1-22.8-4.7"/>
				<path class="st16" d="M3375.9,899.6c0,2.6-7.4,4.7-16.4,4.7s-16.4-2.1-16.4-4.7"/>
			</g>
		</g>
	</g>
	<g>
		<g>
			<g>
				<g>
					<path class="st16" d="M7646.9,874.8v-64.2c0-6.5-5.2-11.7-11.7-11.7c-6.5,0-11.7,5.2-11.7,11.7v64.2c-5.3,3.7-8.9,9.9-8.9,16.9
						c0,11.4,9.2,20.6,20.6,20.6c11.4,0,20.6-9.2,20.6-20.6C7655.7,884.7,7652.2,878.5,7646.9,874.8z"/>
				</g>
				<circle class="st16" cx="7635.1" cy="891.7" r="12.2"/>
				<line class="st16" x1="7635.1" y1="879.5" x2="7635.1" y2="831"/>
				<line class="st16" x1="7665.6" y1="801.8" x2="7665.6" y2="816.2"/>
				<line class="st16" x1="7658.4" y1="809" x2="7672.8" y2="809"/>
				<line class="st16" x1="7658.4" y1="867" x2="7672.8" y2="867"/>
				<g>
					<g>
						<line class="st16" x1="7594.8" y1="809" x2="7609.3" y2="809"/>
						<line class="st16" x1="7594.8" y1="820.6" x2="7609.3" y2="820.6"/>
						<line class="st16" x1="7594.8" y1="832.2" x2="7609.3" y2="832.2"/>
						<line class="st16" x1="7594.8" y1="843.8" x2="7609.3" y2="843.8"/>
						<line class="st16" x1="7594.8" y1="855.4" x2="7609.3" y2="855.4"/>
						<line class="st16" x1="7594.8" y1="867" x2="7609.3" y2="867"/>
					</g>
				</g>
			</g>
		</g>
	</g>
	<g>
		<g>
			<path class="st16" d="M5717.2,878.5v-70c0-5.3-4.2-9.6-9.3-9.6c-5.1,0-9.3,4.3-9.3,9.6v70c-5,3.2-8.4,8.9-8.4,15.5
				c0,10.1,7.9,18.3,17.7,18.3c9.8,0,17.7-8.2,17.7-18.3C5725.6,887.4,5722.3,881.7,5717.2,878.5z"/>
			<line class="st16" x1="5728.8" y1="821.4" x2="5745.3" y2="821.4"/>
			<line class="st16" x1="5729.9" y1="843.5" x2="5744.2" y2="843.5"/>
			<line class="st16" x1="5729.9" y1="865.5" x2="5744.2" y2="865.5"/>
			<path class="st16" d="M5714.7,894c0,3.8-3.1,6.9-6.9,6.9c-3.8,0-6.9-3.1-6.9-6.9c0-3.8,3.1-6.9,6.9-6.9
				C5711.6,887.1,5714.7,890.2,5714.7,894z"/>
			<line class="st16" x1="5707.8" y1="887.1" x2="5707.8" y2="831.1"/>
			<line class="st16" x1="5684.4" y1="820.5" x2="5669.4" y2="811.5"/>
			<line class="st16" x1="5684.4" y1="856.6" x2="5669.4" y2="865.5"/>
			<line class="st16" x1="5684.4" y1="839.1" x2="5667" y2="839.1"/>
		</g>
	</g>
	<g>
		<g>
			<g>
				<g>
					<g>
						<g>
							<circle class="st0" cx="1179.8" cy="2197.8" r="810.2"/>
						</g>
					</g>
				</g>
			</g>
		</g>
	</g>
	<g>
		<g>
			<g>
				<g>
					<g>
						<rect x="649" y="1839.9" class="st1" width="75.9" height="102.7"/>
						<rect x="724.9" y="1839.9" class="st3" width="75.9" height="102.7"/>
						<rect x="800.8" y="1839.9" class="st2" width="75.9" height="102.7"/>
						<rect x="876.7" y="1839.9" class="st4" width="75.9" height="102.7"/>
						<rect x="952.6" y="1839.9" class="st5" width="75.9" height="102.7"/>
						<rect x="1028.5" y="1839.9" class="st0" width="75.9" height="102.7"/>
						<rect x="1104.4" y="1839.9" class="st6" width="75.9" height="102.7"/>
						<rect x="1180.3" y="1839.9" class="st7" width="75.9" height="102.7"/>
						<rect x="1256.3" y="1839.9" class="st8" width="75.9" height="102.7"/>
						<rect x="1332.2" y="1839.9" class="st10" width="75.9" height="102.7"/>
						<rect x="1408.1" y="1839.9" class="st9" width="75.9" height="102.7"/>
						<rect x="1484" y="1839.9" class="st11" width="75.9" height="102.7"/>
						<rect x="1559.9" y="1839.9" class="st12" width="75.9" height="102.7"/>
						<rect x="1635.8" y="1839.9" class="st13" width="75.9" height="102.7"/>
					</g>
				</g>
			</g>
		</g>
		<g>
			<line class="st17" x1="719.3" y1="1839.5" x2="719.3" y2="1815.3"/>
			<line class="st17" x1="861.2" y1="1839.5" x2="861.2" y2="1815.3"/>
			<line class="st18" x1="1003.1" y1="1839.5" x2="1003.1" y2="1815.3"/>
			<line class="st17" x1="1144.9" y1="1839.5" x2="1144.9" y2="1815.3"/>
			<line class="st17" x1="1286.8" y1="1839.5" x2="1286.8" y2="1815.3"/>
			<line class="st17" x1="1428.7" y1="1839.5" x2="1428.7" y2="1815.3"/>
			<line class="st17" x1="1570.8" y1="1839.5" x2="1570.8" y2="1815.3"/>
			<line class="st17" x1="1712.6" y1="1839.5" x2="1712.6" y2="1815.3"/>
		</g>
		<line class="st19" x1="632" y1="1839.9" x2="1728.7" y2="1839.9"/>
	</g>
	<g>
		<g>
			<g>
				<ellipse class="st16" cx="6979.4" cy="810.3" rx="56.7" ry="11.2"/>
				<path class="st16" d="M7017.2,833.2c-9.4,2.2-22.8,3.7-37.8,3.7c-28.3,0-51.3-5-51.3-11.2"/>
				<path class="st16" d="M6962.2,849.8c-16.3-1.4-27.7-4.9-27.7-8.9"/>
				<path class="st16" d="M7024.2,840.9c0,4.6-15.4,8.5-35.8,9.4"/>
				<path class="st16" d="M6988.4,864.1c-2.9,0.1-5.9,0.2-9,0.2c-20.9,0-37.8-3.1-37.8-6.8"/>
				<path class="st16" d="M7017.2,857.4c0,1.6-3,3.1-8.1,4.2"/>
				<path class="st16" d="M6956.6,875.5c-4.3-1.2-6.9-2.7-6.9-4.4"/>
				<path class="st16" d="M7009.1,871.1c0,3.8-13.3,6.8-29.7,6.8c-4.1,0-8-0.2-11.5-0.5"/>
				<path class="st16" d="M7002.2,886.9c0,2.6-10.2,4.7-22.8,4.7s-22.8-2.1-22.8-4.7"/>
				<path class="st16" d="M6995.8,900.6c0,2.6-7.4,4.7-16.4,4.7s-16.4-2.1-16.4-4.7"/>
			</g>
		</g>
	</g>
	<g>
		<g>
			<g>
				<g>
					<path class="st16" d="M7130.2,3678.6v-64.2c0-6.5-5.2-11.7-11.7-11.7c-6.5,0-11.7,5.2-11.7,11.7v64.2
						c-5.3,3.7-8.9,9.9-8.9,16.9c0,11.4,9.2,20.6,20.6,20.6c11.4,0,20.6-9.2,20.6-20.6C7139.1,3688.4,7135.6,3682.3,7130.2,3678.6z"
						/>
				</g>
				<circle class="st16" cx="7118.5" cy="3695.5" r="12.2"/>
				<line class="st16" x1="7118.5" y1="3683.3" x2="7118.5" y2="3634.7"/>
				<line class="st16" x1="7149" y1="3605.6" x2="7149" y2="3620"/>
				<line class="st16" x1="7141.7" y1="3612.8" x2="7156.2" y2="3612.8"/>
				<line class="st16" x1="7141.7" y1="3670.8" x2="7156.2" y2="3670.8"/>
				<g>
					<g>
						<line class="st16" x1="7078.2" y1="3612.8" x2="7092.7" y2="3612.8"/>
						<line class="st16" x1="7078.2" y1="3624.4" x2="7092.7" y2="3624.4"/>
						<line class="st16" x1="7078.2" y1="3636" x2="7092.7" y2="3636"/>
						<line class="st16" x1="7078.2" y1="3647.6" x2="7092.7" y2="3647.6"/>
						<line class="st16" x1="7078.2" y1="3659.2" x2="7092.7" y2="3659.2"/>
						<line class="st16" x1="7078.2" y1="3670.8" x2="7092.7" y2="3670.8"/>
					</g>
				</g>
			</g>
		</g>
	</g>
	<g>
		<g>
			<g>
				<ellipse class="st16" cx="7857.5" cy="3613.9" rx="56.7" ry="11.2"/>
				<path class="st16" d="M7895.4,3636.8c-9.4,2.2-22.8,3.7-37.8,3.7c-28.3,0-51.3-5-51.3-11.2"/>
				<path class="st16" d="M7840.4,3653.4c-16.3-1.4-27.7-4.9-27.7-8.9"/>
				<path class="st16" d="M7902.4,3644.5c0,4.6-15.4,8.5-35.8,9.4"/>
				<path class="st16" d="M7866.6,3667.6c-2.9,0.1-5.9,0.2-9,0.2c-20.9,0-37.8-3.1-37.8-6.8"/>
				<path class="st16" d="M7895.4,3661c0,1.6-3,3.1-8.1,4.2"/>
				<path class="st16" d="M7834.7,3679.1c-4.3-1.2-6.9-2.7-6.9-4.4"/>
				<path class="st16" d="M7887.2,3674.7c0,3.8-13.3,6.8-29.7,6.8c-4.1,0-8-0.2-11.5-0.5"/>
				<path class="st16" d="M7880.3,3690.5c0,2.6-10.2,4.7-22.8,4.7c-12.6,0-22.8-2.1-22.8-4.7"/>
				<path class="st16" d="M7874,3704.2c0,2.6-7.4,4.7-16.4,4.7c-9.1,0-16.4-2.1-16.4-4.7"/>
			</g>
		</g>
	</g>
	<g>
		<g>
			<g>
				<ellipse class="st16" cx="5715.1" cy="3613.9" rx="56.7" ry="11.2"/>
				<path class="st16" d="M5752.9,3636.8c-9.4,2.2-22.8,3.7-37.8,3.7c-28.3,0-51.3-5-51.3-11.2"/>
				<path class="st16" d="M5697.9,3653.4c-16.3-1.4-27.7-4.9-27.7-8.9"/>
				<path class="st16" d="M5759.9,3644.5c0,4.6-15.4,8.5-35.8,9.4"/>
				<path class="st16" d="M5724.1,3667.6c-2.9,0.1-5.9,0.2-9,0.2c-20.9,0-37.8-3.1-37.8-6.8"/>
				<path class="st16" d="M5752.9,3661c0,1.6-3,3.1-8.1,4.2"/>
				<path class="st16" d="M5692.3,3679.1c-4.3-1.2-6.9-2.7-6.9-4.4"/>
				<path class="st16" d="M5744.8,3674.7c0,3.8-13.3,6.8-29.7,6.8c-4.1,0-8-0.2-11.5-0.5"/>
				<path class="st16" d="M5737.9,3690.5c0,2.6-10.2,4.7-22.8,4.7s-22.8-2.1-22.8-4.7"/>
				<path class="st16" d="M5731.5,3704.2c0,2.6-7.4,4.7-16.4,4.7s-16.4-2.1-16.4-4.7"/>
			</g>
		</g>
	</g>
	<g>
		<g id="XMLID_00000110463449338694479100000009606054023094541216_">
			<g id="XMLID_00000026856634178639546010000004013601302753086596_">
				<path id="XMLID_00000080914657956427328520000007674111286893337998_" class="st16" d="M1159.7,3620.2c4.5,0,8.1-3.6,8.1-8.1
					c0-4.5-3.6-8.1-8.1-8.1c-4.5,0-8.1,3.6-8.1,8.1C1151.6,3616.6,1155.2,3620.2,1159.7,3620.2"/>
				<path id="XMLID_00000003083681945813730030000016884439079160586167_" class="st16" d="M1175.1,3663.7h8.2l-4.9-27.9
					c-0.8-4.3-4-8-8.5-9.1c-3.3-0.8-6.7-1.3-10.2-1.3c-3.5,0-6.9,0.4-10.2,1.3c-4.5,1.1-7.7,4.8-8.5,9.1l-4.9,27.9h8.2"/>
				<path id="XMLID_00000067916070937621240250000011322265341941287319_" class="st16" d="M1148.5,3640.1l2.5,9.5
					c-5.8,8.7-9.2,19.1-9.2,30.3h10.6l3.2,36.5h8.2l3.2-36.5h10.6c0-11.2-3.4-21.7-9.2-30.3l2.5-9.5"/>
			</g>
			<g id="XMLID_00000134941609802193655660000001770770215864315038_">
				<g>
					<path id="XMLID_00000121260898299611970800000011513987320168449700_" class="st16" d="M1104.6,3620.2c4.7,0,8.5-3.8,8.5-8.5
						c0-4.7-3.8-8.5-8.5-8.5c-4.7,0-8.5,3.8-8.5,8.5C1096.1,3616.4,1099.9,3620.2,1104.6,3620.2"/>
					<path id="XMLID_00000053522889116363460940000003411405882342118820_" class="st16" d="M1117.5,3668.6h8.7l1.5-28.1
						c0.4-6.6-4.2-12.6-10.9-13.9"/>
					<polyline id="XMLID_00000106137388223161597330000004801978216809422268_" class="st16" points="1091.7,3641.7 1091.7,3716.5 
						1100.6,3716.5 1103.8,3670.2 1105.4,3670.2 1108.7,3716.5 1117.5,3716.5 1117.5,3641.7 					"/>
					<path id="XMLID_00000178164228156976672840000015171202195056498111_" class="st16" d="M1116.8,3626.6c-4-0.7-8-1.1-12.2-1.1
						c-4.2,0-8.2,0.4-12.2,1.1c-6.7,1.2-11.3,7.3-10.9,13.9l1.5,28.1h8.7"/>
				</g>
			</g>
		</g>
	</g>
	<g>
		<g id="XMLID_00000160182209837911589910000014272605269838889122_">
			<g id="XMLID_00000103245058017722706370000012014697948727545493_">
				<path id="XMLID_00000081635185376330966420000000091745184453385104_" class="st16" d="M6333.1,814.7c4.5,0,8.1-3.6,8.1-8.1
					c0-4.5-3.6-8.1-8.1-8.1c-4.5,0-8.1,3.6-8.1,8.1C6325,811,6328.6,814.7,6333.1,814.7"/>
				<path id="XMLID_00000036937608314020611980000002584908656037455518_" class="st16" d="M6348.5,858.2h8.2l-4.9-27.9
					c-0.8-4.3-4-8-8.5-9.1c-3.3-0.8-6.7-1.3-10.2-1.3c-3.5,0-6.9,0.4-10.2,1.3c-4.5,1.1-7.7,4.8-8.5,9.1l-4.9,27.9h8.2"/>
				<path id="XMLID_00000168837836748429742550000000608964384588242594_" class="st16" d="M6322,834.6l2.5,9.5
					c-5.8,8.7-9.2,19.1-9.2,30.3h10.6l3.2,36.5h8.2l3.2-36.5h10.6c0-11.2-3.4-21.7-9.2-30.3l2.5-9.5"/>
			</g>
			<g id="XMLID_00000001647812274638505560000006492004758900641213_">
				<g>
					<path id="XMLID_00000057841216135889545660000003662563412223470253_" class="st16" d="M6278.1,814.7c4.7,0,8.5-3.8,8.5-8.5
						c0-4.7-3.8-8.5-8.5-8.5c-4.7,0-8.5,3.8-8.5,8.5C6269.6,810.9,6273.4,814.7,6278.1,814.7"/>
					<path id="XMLID_00000123425224567404602340000011171715436075311800_" class="st16" d="M6291,863h8.7l1.5-28.1
						c0.4-6.6-4.2-12.6-10.9-13.9"/>
					<polyline id="XMLID_00000080179996316235651190000017512062296012150924_" class="st16" points="6265.2,836.2 6265.2,911 
						6274,911 6277.3,864.7 6278.9,864.7 6282.2,911 6291,911 6291,836.2 					"/>
					<path id="XMLID_00000160154284573182209790000011084061394578308512_" class="st16" d="M6290.3,821.1c-4-0.7-8-1.1-12.2-1.1
						c-4.2,0-8.2,0.4-12.2,1.1c-6.7,1.2-11.3,7.3-10.9,13.9l1.5,28.1h8.7"/>
				</g>
			</g>
		</g>
	</g>
	<g>
		<ellipse class="st16" cx="3777.1" cy="3632.9" rx="30.2" ry="31"/>
		<ellipse class="st16" cx="3777.1" cy="3632.9" rx="56.7" ry="31"/>
		<polyline class="st16" points="3772.2,3663.9 3772.2,3675.2 3746.4,3675.2 3746.4,3682.6 3772.2,3682.6 3772.2,3689.5 
			3782,3689.5 3782,3682.6 3807.8,3682.6 3807.8,3675.2 3782,3675.2 3782,3663.9 		"/>
	</g>
</g>
<g id="lineas">
	<g>
		<g>
			<line class="st20" x1="225.3" y1="3518.1" x2="225.3" y2="3515.6"/>
			<path class="st21" d="M225.3,3510.6v-122c0-7.8,6.4-14.2,14.2-14.2h561.3c7.8,0,14.2-6.4,14.2-14.2v-30.5"/>
			<line class="st20" x1="814.9" y1="3327.3" x2="814.9" y2="3324.8"/>
			<g>
				<polygon points="824.1,3332.3 822.5,3333.8 814.9,3325.7 807.4,3333.8 805.7,3332.3 814.9,3322.4 				"/>
			</g>
		</g>
	</g>
	<g>
		<g>
			<line class="st20" x1="751.6" y1="3518.1" x2="751.6" y2="3515.6"/>
			<path class="st22" d="M751.6,3510.6v-102c0-7.8,6.4-14.2,14.2-14.2h1023.8c7.8,0,14.2-6.4,14.2-14.2v-50.5"/>
			<line class="st20" x1="1803.7" y1="3327.3" x2="1803.7" y2="3324.8"/>
			<g>
				<polygon points="1812.9,3332.3 1811.3,3333.8 1803.7,3325.7 1796.2,3333.8 1794.5,3332.3 1803.7,3322.4 				"/>
			</g>
		</g>
	</g>
	<g>
		<g>
			<line class="st20" x1="1262" y1="3518.1" x2="1262" y2="3515.6"/>
			<path class="st23" d="M1262,3510.6v-82c0-7.8,6.4-14.2,14.2-14.2h1596.3c7.8,0,14.2-6.4,14.2-14.2v-70.5"/>
			<line class="st20" x1="2886.6" y1="3327.3" x2="2886.6" y2="3324.8"/>
			<g>
				<polygon points="2895.8,3332.3 2894.2,3333.8 2886.6,3325.7 2879.1,3333.8 2877.4,3332.3 2886.6,3322.4 				"/>
			</g>
		</g>
	</g>
	<g>
		<g>
			<line class="st20" x1="2690.2" y1="3518.1" x2="2690.2" y2="3515.6"/>
			<path class="st24" d="M2690.2,3510.6v-62c0-7.8,6.4-14.2,14.2-14.2h780c7.8,0,14.2-6.4,14.2-14.2v-90.5"/>
			<line class="st20" x1="3498.6" y1="3327.3" x2="3498.6" y2="3324.8"/>
			<g>
				<polygon points="3507.8,3332.3 3506.1,3333.8 3498.6,3325.7 3491,3333.8 3489.4,3332.3 3498.6,3322.4 				"/>
			</g>
		</g>
	</g>
	<g>
		<g>
			<line class="st20" x1="3436.3" y1="3518.1" x2="3436.3" y2="3515.6"/>
			<path class="st25" d="M3436.3,3510.6v-42c0-7.8,6.4-14.2,14.2-14.2h1258.2c7.8,0,14.2-6.4,14.2-14.2v-110.5"/>
			<line class="st20" x1="4722.9" y1="3327.3" x2="4722.9" y2="3324.8"/>
			<g>
				<polygon points="4732.1,3332.3 4730.5,3333.8 4722.9,3325.7 4715.4,3333.8 4713.7,3332.3 4722.9,3322.4 				"/>
			</g>
		</g>
	</g>
	<g>
		<g>
			<line class="st20" x1="3910.6" y1="3518.1" x2="3910.6" y2="3515.6"/>
			<path class="st26" d="M3910.6,3510.6v-22c0-7.8,6.4-14.2,14.2-14.2h1208.4c7.8,0,14.2-6.4,14.2-14.2v-130.5"/>
			<line class="st20" x1="5147.3" y1="3327.3" x2="5147.3" y2="3324.8"/>
			<g>
				<polygon points="5156.5,3332.3 5154.9,3333.8 5147.3,3325.7 5139.8,3333.8 5138.1,3332.3 5147.3,3322.4 				"/>
			</g>
		</g>
	</g>
	<g>
		<g>
			<line class="st20" x1="5282.7" y1="3518.1" x2="5282.7" y2="3515.6"/>
			<path class="st27" d="M5282.7,3510.7v-52c0-7.8,6.4-14.2,14.2-14.2H5604c7.8,0,14.2-6.4,14.2-14.2v-100.5"/>
			<line class="st20" x1="5618.2" y1="3327.3" x2="5618.2" y2="3324.8"/>
			<g>
				<polygon points="5627.4,3332.3 5625.7,3333.8 5618.2,3325.7 5610.6,3333.8 5609,3332.3 5618.2,3322.4 				"/>
			</g>
		</g>
	</g>
	<g>
		<g>
			<line class="st20" x1="5852.9" y1="3518.1" x2="5852.9" y2="3515.6"/>
			<path class="st28" d="M5852.9,3510.6v-92c0-7.8,6.4-14.2,14.2-14.2h2186c7.8,0,14.2-6.4,14.2-14.2v-60.5"/>
			<line class="st20" x1="8067.2" y1="3327.3" x2="8067.2" y2="3324.8"/>
			<g>
				<polygon points="8076.4,3332.3 8074.8,3333.8 8067.2,3325.7 8059.7,3333.8 8058,3332.3 8067.2,3322.4 				"/>
			</g>
		</g>
	</g>
	<g>
		<g>
			<line class="st20" x1="6468.6" y1="3518.1" x2="6468.6" y2="3515.6"/>
			<path class="st29" d="M6468.6,3510.6v-72c0-7.8,6.4-14.2,14.2-14.2h1662.9c7.8,0,14.2-6.4,14.2-14.2v-80.5"/>
			<line class="st20" x1="8159.9" y1="3327.3" x2="8159.9" y2="3324.8"/>
			<g>
				<polygon points="8169.1,3332.3 8167.4,3333.8 8159.9,3325.7 8152.3,3333.8 8150.7,3332.3 8159.9,3322.4 				"/>
			</g>
		</g>
	</g>
	<g>
		<g>
			<line class="st20" x1="7241.4" y1="3518.1" x2="7241.4" y2="3515.6"/>
			<path class="st30" d="M7241.4,3510.6v-52c0-7.8,6.4-14.2,14.2-14.2H8193c7.8,0,14.2-6.4,14.2-14.2v-100.5"/>
			<line class="st20" x1="8207.1" y1="3327.3" x2="8207.1" y2="3324.8"/>
			<g>
				<polygon points="8216.3,3332.3 8214.7,3333.8 8207.1,3325.7 8199.6,3333.8 8197.9,3332.3 8207.1,3322.4 				"/>
			</g>
		</g>
	</g>
	<g>
		<g>
			<line class="st20" x1="7993.8" y1="3518.1" x2="7993.8" y2="3515.6"/>
			<path class="st31" d="M7993.8,3510.6v-32c0-7.8,6.4-14.2,14.2-14.2H8240c7.8,0,14.2-6.4,14.2-14.2v-120.5"/>
			<line class="st20" x1="8254.2" y1="3327.3" x2="8254.2" y2="3324.8"/>
			<g>
				<polygon points="8263.4,3332.3 8261.8,3333.8 8254.2,3325.7 8246.7,3333.8 8245,3332.3 8254.2,3322.4 				"/>
			</g>
		</g>
	</g>
	<g>
		<g>
			<line class="st20" x1="373.5" y1="1036.2" x2="373.5" y2="1038.7"/>
			<path class="st32" d="M373.5,1043.7v78c0,7.8-6.4,14.2-14.2,14.2H217.8c-7.8,0-14.2,6.4-14.2,14.2v60.5"/>
			<line class="st20" x1="203.7" y1="1213" x2="203.7" y2="1215.5"/>
			<g>
				<polygon points="194.5,1208 196.1,1206.5 203.7,1214.6 211.2,1206.5 212.9,1208 203.7,1217.9 				"/>
			</g>
		</g>
	</g>
	<g>
		<g>
			<line class="st20" x1="1906.7" y1="1036.2" x2="1906.7" y2="1038.7"/>
			<path class="st33" d="M1906.7,1043.7v78c0,7.8-6.4,14.2-14.2,14.2h-121.9c-7.8,0-14.2,6.4-14.2,14.2v60.5"/>
			<line class="st20" x1="1756.4" y1="1213" x2="1756.4" y2="1215.5"/>
			<g>
				<polygon points="1747.2,1208 1748.9,1206.5 1756.4,1214.6 1764,1206.5 1765.6,1208 1756.4,1217.9 				"/>
			</g>
		</g>
	</g>
	<g>
		<g>
			<line class="st20" x1="2389" y1="1036.2" x2="2389" y2="1038.7"/>
			<path class="st34" d="M2389,1043.7v78c0,7.8,6.4,14.2,14.2,14.2h140.7c7.8,0,14.2,6.4,14.2,14.2v60.5"/>
			<line class="st20" x1="2558.1" y1="1213" x2="2558.1" y2="1215.5"/>
			<g>
				<polygon points="2548.9,1208 2550.5,1206.5 2558.1,1214.6 2565.6,1206.5 2567.3,1208 2558.1,1217.9 				"/>
			</g>
		</g>
	</g>
	<g>
		<g>
			<line class="st20" x1="2780.2" y1="1036.2" x2="2780.2" y2="1038.7"/>
			<path class="st35" d="M2780.2,1043.7v78c0,7.8,6.4,14.2,14.2,14.2h221.5c7.8,0,14.2,6.4,14.2,14.2v60.5"/>
			<line class="st20" x1="3030.1" y1="1213" x2="3030.1" y2="1215.5"/>
			<g>
				<polygon points="3020.9,1208 3022.5,1206.5 3030.1,1214.6 3037.6,1206.5 3039.3,1208 3030.1,1217.9 				"/>
			</g>
		</g>
	</g>
	<g>
		<g>
			<line class="st20" x1="3501.7" y1="1036.2" x2="3501.7" y2="1038.7"/>
			<path class="st36" d="M3501.7,1043.8v77.9c0,7.8,6.4,14.2,14.2,14.2h628.9c7.8,0,14.2,6.4,14.2,14.2v60.5"/>
			<line class="st20" x1="4158.9" y1="1213" x2="4158.9" y2="1215.5"/>
			<g>
				<polygon points="4149.7,1208 4151.4,1206.5 4158.9,1214.6 4166.5,1206.5 4168.1,1208 4158.9,1217.9 				"/>
			</g>
		</g>
	</g>
	<g>
		<g>
			<line class="st20" x1="4002.2" y1="942.2" x2="4002.2" y2="944.7"/>
			<path class="st37" d="M4002.2,949.7v151.9c0,7.8,6.4,14.2,14.2,14.2h880.2c7.8,0,14.2,6.4,14.2,14.2v80.5"/>
			<line class="st20" x1="4910.8" y1="1213" x2="4910.8" y2="1215.5"/>
			<g>
				<polygon points="4901.6,1208 4903.2,1206.5 4910.8,1214.6 4918.3,1206.5 4920,1208 4910.8,1217.9 				"/>
			</g>
		</g>
	</g>
	<g>
		<g>
			<line class="st20" x1="5195" y1="1036.2" x2="5195" y2="1038.7"/>
			<path class="st38" d="M5195,1043.8v77.9c0,7.8,6.4,14.2,14.2,14.2h766.9c7.8,0,14.2,6.4,14.2,14.2v60.5"/>
			<line class="st20" x1="5990.2" y1="1213" x2="5990.2" y2="1215.5"/>
			<g>
				<polygon points="5981,1208 5982.7,1206.5 5990.2,1214.6 5997.8,1206.5 5999.4,1208 5990.2,1217.9 				"/>
			</g>
		</g>
	</g>
	<g>
		<g>
			<line class="st20" x1="5832.7" y1="992.2" x2="5832.7" y2="994.7"/>
			<path class="st39" d="M5832.7,999.7v101.9c0,7.8,6.4,14.2,14.2,14.2h2159.3c7.8,0,14.2,6.4,14.2,14.2v80.5"/>
			<line class="st20" x1="8020.3" y1="1213" x2="8020.3" y2="1215.5"/>
			<g>
				<polygon points="8011.1,1208 8012.8,1206.5 8020.3,1214.6 8027.9,1206.5 8029.5,1208 8020.3,1217.9 				"/>
			</g>
		</g>
	</g>
	<g>
		<g>
			<line class="st20" x1="6441.3" y1="1036.2" x2="6441.3" y2="1038.7"/>
			<path class="st40" d="M6441.3,1043.8v37.9c0,7.8,6.4,14.2,14.2,14.2h1597.9c7.8,0,14.2,6.4,14.2,14.2v100.5"/>
			<line class="st20" x1="8067.6" y1="1213" x2="8067.6" y2="1215.5"/>
			<g>
				<polygon points="8058.4,1208 8060,1206.5 8067.6,1214.6 8075.1,1206.5 8076.8,1208 8067.6,1217.9 				"/>
			</g>
		</g>
	</g>
	<g>
		<g>
			<line class="st20" x1="7124" y1="1036.2" x2="7124" y2="1038.7"/>
			<path class="st41" d="M7124,1043.8v17.9c0,7.8,6.4,14.2,14.2,14.2h1007.5c7.8,0,14.2,6.4,14.2,14.2v120.5"/>
			<line class="st20" x1="8159.9" y1="1213" x2="8159.9" y2="1215.5"/>
			<g>
				<polygon points="8150.7,1208 8152.3,1206.5 8159.9,1214.6 8167.4,1206.5 8169.1,1208 8159.9,1217.9 				"/>
			</g>
		</g>
	</g>
	<g>
		<g>
			<path class="st20" d="M7756.5,1036.2c0,0,0,0.9,0,2.5"/>
			<path class="st42" d="M7756.5,1043.7c0,0.8,0,1.5,0,2.3c0,5.4,6.4,9.8,14.2,9.8h469.2c7.8,0,14.2,6.4,14.2,14.2v140.5"/>
			<line class="st20" x1="8254.1" y1="1213" x2="8254.1" y2="1215.5"/>
			<g>
				<polygon points="8244.9,1208 8246.5,1206.5 8254.1,1214.6 8261.6,1206.5 8263.3,1208 8254.1,1217.9 				"/>
			</g>
		</g>
	</g>
</g>
<g id="textos">
	<g>
		<g>
			<text transform="matrix(0 -1 1 0 214.3833 3297.2566)" class="st43 st44">1850</text>
			<text transform="matrix(0 -1 1 0 261.8848 3295.7722)" class="st45 st44">1851</text>
			<text transform="matrix(0 -1 1 0 308.9014 3295.7683)" class="st45 st44">1852</text>
			<text transform="matrix(0 -1 1 0 355.9922 3295.7761)" class="st45 st44">1853</text>
			<text transform="matrix(0 -1 1 0 403.0713 3295.7761)" class="st45 st44">1854</text>
			<text transform="matrix(0 -1 1 0 450.1568 3295.7781)" class="st45 st44">1855</text>
			<text transform="matrix(0 -1 1 0 497.2398 3295.7742)" class="st45 st44">1856</text>
			<text transform="matrix(0 -1 1 0 544.3223 3295.7781)" class="st45 st44">1857</text>
			<text transform="matrix(0 -1 1 0 591.4077 3295.7683)" class="st45 st44">1858</text>
			<text transform="matrix(0 -1 1 0 638.4907 3295.7644)" class="st45 st44">1859</text>
			<text transform="matrix(0 -1 1 0 685.5698 3295.7644)" class="st45 st44">1860</text>
			<text transform="matrix(0 -1 1 0 732.6553 3295.7664)" class="st45 st44">1861</text>
			<text transform="matrix(0 -1 1 0 779.7417 3295.7781)" class="st45 st44">1862</text>
			<text transform="matrix(0 -1 1 0 826.8311 3295.7761)" class="st45 st44">1863</text>
			<text transform="matrix(0 -1 1 0 873.9058 3295.7683)" class="st45 st44">1864</text>
			<text transform="matrix(0 -1 1 0 920.9893 3295.7722)" class="st45 st44">1865</text>
			<text transform="matrix(0 -1 1 0 968.0801 3295.7703)" class="st45 st44">1866</text>
			<text transform="matrix(0 -1 1 0 1015.1567 3295.7703)" class="st45 st44">1867</text>
			<text transform="matrix(0 -1 1 0 1062.2402 3295.7664)" class="st45 st44">1868</text>
			<text transform="matrix(0 -1 1 0 1109.3276 3295.7605)" class="st45 st44">1869</text>
			<text transform="matrix(0 -1 1 0 1156.3457 3295.7683)" class="st45 st44">1870</text>
			<text transform="matrix(0 -1 1 0 1203.4248 3295.7761)" class="st45 st44">1871</text>
			<text transform="matrix(0 -1 1 0 1250.5098 3295.7781)" class="st45 st44">1872</text>
			<text transform="matrix(0 -1 1 0 1297.5933 3295.7742)" class="st45 st44">1873</text>
			<text transform="matrix(0 -1 1 0 1344.6753 3295.7781)" class="st45 st44">1874</text>
			<text transform="matrix(0 -1 1 0 1391.7568 3295.7761)" class="st45 st44">1875</text>
			<text transform="matrix(0 -1 1 0 1438.8442 3295.7683)" class="st45 st44">1876</text>
			<text transform="matrix(0 -1 1 0 1485.9233 3295.7683)" class="st45 st44">1877</text>
			<text transform="matrix(0 -1 1 0 1533.0122 3295.7742)" class="st45 st44">1878</text>
			<text transform="matrix(0 -1 1 0 1580.0947 3295.7781)" class="st45 st44">1879</text>
			<text transform="matrix(0 -1 1 0 1627.1782 3295.7742)" class="st45 st44">1880</text>
			<text transform="matrix(0 -1 1 0 1674.2593 3295.7722)" class="st45 st44">1881</text>
			<text transform="matrix(0 -1 1 0 1721.3423 3295.7761)" class="st45 st44">1882</text>
			<text transform="matrix(0 -1 1 0 1768.4238 3295.7742)" class="st45 st44">1883</text>
			<text transform="matrix(0 -1 1 0 1815.5107 3295.7742)" class="st45 st44">1884</text>
			<text transform="matrix(0 -1 1 0 1862.5933 3295.7703)" class="st45 st44">1885</text>
			<text transform="matrix(0 -1 1 0 1909.6787 3295.7703)" class="st45 st44">1886</text>
			<text transform="matrix(0 -1 1 0 1956.7617 3295.7664)" class="st45 st44">1887</text>
			<text transform="matrix(0 -1 1 0 2003.7817 3295.7625)" class="st45 st44">1888</text>
			<text transform="matrix(0 -1 1 0 2050.8667 3295.7742)" class="st45 st44">1889</text>
			<text transform="matrix(0 -1 1 0 2097.9443 3295.7742)" class="st45 st44">1890</text>
			<text transform="matrix(0 -1 1 0 2145.0278 3295.7781)" class="st45 st44">1891</text>
			<text transform="matrix(0 -1 1 0 2192.1118 3295.7703)" class="st45 st44">1892</text>
			<text transform="matrix(0 -1 1 0 2239.1953 3295.7742)" class="st45 st44">1893</text>
			<text transform="matrix(0 -1 1 0 2286.2803 3295.7625)" class="st45 st44">1894</text>
			<text transform="matrix(0 -1 1 0 2333.3594 3295.7703)" class="st45 st44">1895</text>
			<text transform="matrix(0 -1 1 0 2380.4448 3295.7664)" class="st45 st44">1896</text>
			<text transform="matrix(0 -1 1 0 2427.5293 3295.7742)" class="st45 st44">1897</text>
			<text transform="matrix(0 -1 1 0 2474.6108 3295.7703)" class="st45 st44">1898</text>
			<text transform="matrix(0 -1 1 0 2521.6938 3295.7742)" class="st45 st44">1899</text>
			<text transform="matrix(0 -1 1 0 2568.7827 3295.7742)" class="st45 st44">1900</text>
			<text transform="matrix(0 -1 1 0 2615.8623 3295.7742)" class="st45 st44">1901</text>
			<text transform="matrix(0 -1 1 0 2662.9409 3295.7742)" class="st45 st44">1902</text>
			<text transform="matrix(0 -1 1 0 2710.0298 3295.7703)" class="st45 st44">1903</text>
			<text transform="matrix(0 -1 1 0 2757.1133 3295.7664)" class="st45 st44">1904</text>
			<text transform="matrix(0 -1 1 0 2804.1958 3295.7703)" class="st45 st44">1905</text>
			<text transform="matrix(0 -1 1 0 2851.2773 3295.7781)" class="st45 st44">1906</text>
			<text transform="matrix(0 -1 1 0 2898.3013 3295.7664)" class="st45 st44">1907</text>
			<text transform="matrix(0 -1 1 0 2945.3809 3295.7664)" class="st45 st44">1908</text>
			<text transform="matrix(0 -1 1 0 2992.4653 3295.7703)" class="st45 st44">1909</text>
			<text transform="matrix(0 -1 1 0 3039.5522 3295.7703)" class="st45 st44">1910</text>
			<text transform="matrix(0 -1 1 0 3086.6318 3295.7703)" class="st45 st44">1911</text>
			<text transform="matrix(0 -1 1 0 3133.7168 3295.7625)" class="st45 st44">1912</text>
			<text transform="matrix(0 -1 1 0 3180.792 3295.7664)" class="st45 st44">1913</text>
			<text transform="matrix(0 -1 1 0 3227.8755 3295.7625)" class="st45 st44">1914</text>
			<text transform="matrix(0 -1 1 0 3274.9624 3295.7742)" class="st45 st44">1915</text>
			<text transform="matrix(0 -1 1 0 3322.0415 3295.7703)" class="st45 st44">1916</text>
			<text transform="matrix(0 -1 1 0 3369.1279 3295.7742)" class="st45 st44">1917</text>
			<text transform="matrix(0 -1 1 0 3416.2153 3295.7742)" class="st45 st44">1918</text>
			<text transform="matrix(0 -1 1 0 3463.3018 3295.7742)" class="st45 st44">1919</text>
			<text transform="matrix(0 -1 1 0 3510.3735 3295.7703)" class="st45 st44">1920</text>
			<text transform="matrix(0 -1 1 0 3557.4604 3295.7664)" class="st45 st44">1921</text>
			<text transform="matrix(0 -1 1 0 3604.54 3295.7625)" class="st45 st44">1922</text>
			<text transform="matrix(0 -1 1 0 3651.6265 3295.7742)" class="st45 st44">1923</text>
			<text transform="matrix(0 -1 1 0 3698.7061 3295.7703)" class="st45 st44">1924</text>
			<text transform="matrix(0 -1 1 0 3745.7358 3295.7742)" class="st45 st44">1925</text>
			<text transform="matrix(0 -1 1 0 3792.8154 3295.7703)" class="st45 st44">1926</text>
			<text transform="matrix(0 -1 1 0 3839.894 3295.7703)" class="st45 st44">1927</text>
			<text transform="matrix(0 -1 1 0 3886.9814 3295.7703)" class="st45 st44">1928</text>
			<text transform="matrix(0 -1 1 0 3934.0527 3295.7703)" class="st45 st44">1929</text>
			<text transform="matrix(0 -1 1 0 3981.1567 3295.7625)" class="st45 st44">1930</text>
			<text transform="matrix(0 -1 1 0 4028.2344 3295.7664)" class="st45 st44">1931</text>
			<text transform="matrix(0 -1 1 0 4075.3208 3295.7742)" class="st45 st44">1932</text>
			<text transform="matrix(0 -1 1 0 4122.3931 3295.7703)" class="st45 st44">1933</text>
			<text transform="matrix(0 -1 1 0 4169.4873 3295.7703)" class="st45 st44">1934</text>
			<text transform="matrix(0 -1 1 0 4216.5586 3295.7703)" class="st45 st44">1935</text>
			<text transform="matrix(0 -1 1 0 4263.6533 3295.7742)" class="st45 st44">1936</text>
			<text transform="matrix(0 -1 1 0 4310.7324 3295.7742)" class="st45 st44">1937</text>
			<text transform="matrix(0 -1 1 0 4357.8125 3295.7703)" class="st45 st44">1938</text>
			<text transform="matrix(0 -1 1 0 4404.8994 3295.7664)" class="st45 st44">1939</text>
			<text transform="matrix(0 -1 1 0 4451.9785 3295.7664)" class="st45 st44">1940</text>
			<text transform="matrix(0 -1 1 0 4499.0654 3295.7703)" class="st45 st44">1941</text>
			<text transform="matrix(0 -1 1 0 4546.1514 3295.7742)" class="st45 st44">1942</text>
			<text transform="matrix(0 -1 1 0 4593.2314 3295.7742)" class="st45 st44">1943</text>
			<text transform="matrix(0 -1 1 0 4640.248 3295.7703)" class="st45 st44">1944</text>
			<text transform="matrix(0 -1 1 0 4687.3262 3295.7742)" class="st45 st44">1945</text>
			<text transform="matrix(0 -1 1 0 4734.4141 3295.7781)" class="st45 st44">1946</text>
			<text transform="matrix(0 -1 1 0 4781.501 3295.7625)" class="st45 st44">1947</text>
			<text transform="matrix(0 -1 1 0 4828.5879 3295.7742)" class="st45 st44">1948</text>
			<text transform="matrix(0 -1 1 0 4875.667 3295.7781)" class="st45 st44">1949</text>
			<text transform="matrix(0 -1 1 0 4922.7539 3295.7742)" class="st45 st44">1950</text>
			<text transform="matrix(0 -1 1 0 4969.833 3295.7781)" class="st45 st44">1951</text>
			<text transform="matrix(0 -1 1 0 5016.9121 3295.7742)" class="st45 st44">1952</text>
			<text transform="matrix(0 -1 1 0 5064 3295.7742)" class="st45 st44">1953</text>
			<text transform="matrix(0 -1 1 0 5111.0791 3295.7742)" class="st45 st44">1954</text>
			<text transform="matrix(0 -1 1 0 5158.1738 3295.7625)" class="st45 st44">1955</text>
			<text transform="matrix(0 -1 1 0 5205.252 3295.7703)" class="st45 st44">1956</text>
			<text transform="matrix(0 -1 1 0 5252.3311 3295.7781)" class="st45 st44">1957</text>
			<text transform="matrix(0 -1 1 0 5299.4189 3295.7859)" class="st45 st44">1958</text>
			<text transform="matrix(0 -1 1 0 5346.5059 3295.7781)" class="st45 st44">1959</text>
			<text transform="matrix(0 -1 1 0 5393.585 3295.7742)" class="st45 st44">1960</text>
			<text transform="matrix(0 -1 1 0 5440.6719 3295.7781)" class="st45 st44">1961</text>
			<text transform="matrix(0 -1 1 0 5487.6865 3295.7703)" class="st45 st44">1962</text>
			<text transform="matrix(0 -1 1 0 5534.7578 3295.7703)" class="st45 st44">1963</text>
			<text transform="matrix(0 -1 1 0 5581.8604 3295.7664)" class="st45 st44">1964</text>
			<text transform="matrix(0 -1 1 0 5628.9395 3295.7664)" class="st45 st44">1965</text>
			<text transform="matrix(0 -1 1 0 5676.0186 3295.7625)" class="st45 st44">1966</text>
			<text transform="matrix(0 -1 1 0 5723.1055 3295.7742)" class="st45 st44">1967</text>
			<text transform="matrix(0 -1 1 0 5770.1846 3295.7703)" class="st45 st44">1968</text>
			<text transform="matrix(0 -1 1 0 5817.2725 3295.7742)" class="st45 st44">1969</text>
			<text transform="matrix(0 -1 1 0 5864.3584 3295.7742)" class="st45 st44">1970</text>
			<text transform="matrix(0 -1 1 0 5911.4375 3295.7742)" class="st45 st44">1971</text>
			<text transform="matrix(0 -1 1 0 5958.5166 3295.7625)" class="st45 st44">1972</text>
			<text transform="matrix(0 -1 1 0 6005.6035 3295.7625)" class="st45 st44">1973</text>
			<text transform="matrix(0 -1 1 0 6052.6836 3295.7664)" class="st45 st44">1974</text>
			<text transform="matrix(0 -1 1 0 6099.7705 3295.7742)" class="st45 st44">1975</text>
			<text transform="matrix(0 -1 1 0 6146.8496 3295.7703)" class="st45 st44">1976</text>
			<text transform="matrix(0 -1 1 0 6193.9355 3295.7703)" class="st45 st44">1977</text>
			<text transform="matrix(0 -1 1 0 6241.0156 3295.7703)" class="st45 st44">1978</text>
			<text transform="matrix(0 -1 1 0 6288.0947 3295.7703)" class="st45 st44">1979</text>
			<text transform="matrix(0 -1 1 0 6335.1895 3295.7742)" class="st45 st44">1980</text>
			<text transform="matrix(0 -1 1 0 6382.2051 3295.7742)" class="st45 st44">1981</text>
			<text transform="matrix(0 -1 1 0 6429.293 3295.7625)" class="st45 st44">1982</text>
			<text transform="matrix(0 -1 1 0 6476.3721 3295.7703)" class="st45 st44">1983</text>
			<text transform="matrix(0 -1 1 0 6523.4512 3295.7703)" class="st45 st44">1984</text>
			<text transform="matrix(0 -1 1 0 6570.5381 3295.7742)" class="st45 st44">1985</text>
			<text transform="matrix(0 -1 1 0 6617.624 3295.7703)" class="st45 st44">1986</text>
			<text transform="matrix(0 -1 1 0 6664.7119 3295.7703)" class="st45 st44">1987</text>
			<text transform="matrix(0 -1 1 0 6711.7832 3295.7703)" class="st45 st44">1988</text>
			<text transform="matrix(0 -1 1 0 6758.8711 3295.7742)" class="st45 st44">1989</text>
			<text transform="matrix(0 -1 1 0 6805.958 3295.7664)" class="st45 st44">1990</text>
			<text transform="matrix(0 -1 1 0 6853.043 3295.7664)" class="st45 st44">1991</text>
			<text transform="matrix(0 -1 1 0 6900.123 3295.7625)" class="st45 st44">1992</text>
			<text transform="matrix(0 -1 1 0 6947.21 3295.7703)" class="st45 st44">1993</text>
			<text transform="matrix(0 -1 1 0 6994.2969 3295.7742)" class="st45 st44">1994</text>
			<text transform="matrix(0 -1 1 0 7041.3672 3295.7703)" class="st45 st44">1995</text>
			<text transform="matrix(0 -1 1 0 7088.4629 3295.7742)" class="st45 st44">1996</text>
			<text transform="matrix(0 -1 1 0 7135.543 3295.7742)" class="st45 st44">1997</text>
			<text transform="matrix(0 -1 1 0 7182.6191 3295.7742)" class="st45 st44">1998</text>
			<text transform="matrix(0 -1 1 0 7229.6357 3295.7703)" class="st45 st44">1999</text>
			<text transform="matrix(0 -1 1 0 7276.7314 3295.7664)" class="st45 st44">2000</text>
			<text transform="matrix(0 -1 1 0 7323.8018 3295.7625)" class="st45 st44">2001</text>
			<text transform="matrix(0 -1 1 0 7370.8965 3295.7664)" class="st45 st44">2002</text>
			<text transform="matrix(0 -1 1 0 7417.9688 3295.7703)" class="st45 st44">2003</text>
			<text transform="matrix(0 -1 1 0 7465.0557 3295.7703)" class="st45 st44">2004</text>
			<text transform="matrix(0 -1 1 0 7512.1426 3295.7703)" class="st45 st44">2005</text>
			<text transform="matrix(0 -1 1 0 7559.2207 3295.7742)" class="st45 st44">2006</text>
			<text transform="matrix(0 -1 1 0 7606.3086 3295.7742)" class="st45 st44">2007</text>
			<text transform="matrix(0 -1 1 0 7653.3955 3295.7625)" class="st45 st44">2008</text>
			<text transform="matrix(0 -1 1 0 7700.4746 3295.7703)" class="st45 st44">2009</text>
			<text transform="matrix(0 -1 1 0 7747.5625 3295.7664)" class="st45 st44">2010</text>
			<text transform="matrix(0 -1 1 0 7794.6406 3295.7742)" class="st45 st44">2011</text>
			<text transform="matrix(0 -1 1 0 7841.7344 3295.7742)" class="st45 st44">2012</text>
			<text transform="matrix(0 -1 1 0 7888.8145 3295.7742)" class="st45 st44">2013</text>
			<text transform="matrix(0 -1 1 0 7935.8867 3295.7703)" class="st45 st44">2014</text>
			<text transform="matrix(0 -1 1 0 7982.9658 3295.7703)" class="st45 st44">2015</text>
			<text transform="matrix(0 -1 1 0 8030.0674 3295.7664)" class="st45 st44">2016</text>
			<text transform="matrix(0 -1 1 0 8077.1465 3295.7664)" class="st45 st44">2017</text>
			<text transform="matrix(0 -1 1 0 8124.1709 3295.7664)" class="st45 st44">2018</text>
			<text transform="matrix(0 -1 1 0 8171.2422 3295.7625)" class="st45 st44">2019</text>
			<text transform="matrix(0 -1 1 0 8218.3223 3295.7664)" class="st45 st44">2020</text>
			<text transform="matrix(0 -1 1 0 8265.416 3295.7703)" class="st45 st44">2021</text>
			<text transform="matrix(0 -1 1 0 8312.0732 3297.2546)" class="st43 st44">2022</text>
		</g>
	</g>
	<g>
		<polygon points="195.2,3200.5 202.9,3189.3 210.5,3200.5 		"/>
		<polygon points="242.3,3200.5 249.9,3189.3 257.6,3200.5 		"/>
		<polygon points="289.4,3200.5 297,3189.3 304.7,3200.5 		"/>
		<polygon points="336.5,3200.5 344.1,3189.3 351.8,3200.5 		"/>
		<polygon points="383.5,3200.5 391.2,3189.3 398.8,3200.5 		"/>
		<polygon points="430.6,3200.5 438.3,3189.3 445.9,3200.5 		"/>
		<polygon points="477.7,3200.5 485.4,3189.3 493,3200.5 		"/>
		<polygon points="524.8,3200.5 532.4,3189.3 540.1,3200.5 		"/>
		<polygon points="571.9,3200.5 579.5,3189.3 587.2,3200.5 		"/>
		<polygon points="619,3200.5 626.6,3189.3 634.3,3200.5 		"/>
		<polygon points="666,3200.5 673.7,3189.3 681.3,3200.5 		"/>
		<polygon points="713.1,3200.5 720.8,3189.3 728.4,3200.5 		"/>
		<polygon points="760.2,3200.5 767.9,3189.3 775.5,3200.5 		"/>
		<polygon points="807.3,3200.5 814.9,3189.3 822.6,3200.5 		"/>
		<polygon points="854.4,3200.5 862,3189.3 869.7,3200.5 		"/>
		<polygon points="901.5,3200.5 909.1,3189.3 916.8,3200.5 		"/>
		<polygon points="948.5,3200.5 956.2,3189.3 963.8,3200.5 		"/>
		<polygon points="995.6,3200.5 1003.3,3189.3 1010.9,3200.5 		"/>
		<polygon points="1042.7,3200.5 1050.4,3189.3 1058,3200.5 		"/>
		<polygon points="1089.8,3200.5 1097.4,3189.3 1105.1,3200.5 		"/>
		<polygon points="1136.9,3200.5 1144.5,3189.3 1152.2,3200.5 		"/>
		<polygon points="1184,3200.5 1191.6,3189.3 1199.3,3200.5 		"/>
		<polygon points="1231,3200.5 1238.7,3189.3 1246.4,3200.5 		"/>
		<polygon points="1278.1,3200.5 1285.8,3189.3 1293.4,3200.5 		"/>
		<polygon points="1325.2,3200.5 1332.9,3189.3 1340.5,3200.5 		"/>
		<polygon points="1372.3,3200.5 1380,3189.3 1387.6,3200.5 		"/>
		<polygon points="1419.4,3200.5 1427,3189.3 1434.7,3200.5 		"/>
		<polygon points="1466.5,3200.5 1474.1,3189.3 1481.8,3200.5 		"/>
		<polygon points="1513.6,3200.5 1521.2,3189.3 1528.9,3200.5 		"/>
		<polygon points="1560.6,3200.5 1568.3,3189.3 1575.9,3200.5 		"/>
		<polygon points="1607.7,3200.5 1615.4,3189.3 1623,3200.5 		"/>
		<polygon points="1654.8,3200.5 1662.5,3189.3 1670.1,3200.5 		"/>
		<polygon points="1701.9,3200.5 1709.5,3189.3 1717.2,3200.5 		"/>
		<polygon points="1749,3200.5 1756.6,3189.3 1764.3,3200.5 		"/>
		<polygon points="1796.1,3200.5 1803.7,3189.3 1811.4,3200.5 		"/>
		<polygon points="1843.1,3200.5 1850.8,3189.3 1858.4,3200.5 		"/>
		<polygon points="1890.2,3200.5 1897.9,3189.3 1905.5,3200.5 		"/>
		<polygon points="1937.3,3200.5 1945,3189.3 1952.6,3200.5 		"/>
		<polygon points="1984.4,3200.5 1992,3189.3 1999.7,3200.5 		"/>
		<polygon points="2031.5,3200.5 2039.1,3189.3 2046.8,3200.5 		"/>
		<polygon points="2078.6,3200.5 2086.2,3189.3 2093.9,3200.5 		"/>
		<polygon points="2125.6,3200.5 2133.3,3189.3 2140.9,3200.5 		"/>
		<polygon points="2172.7,3200.5 2180.4,3189.3 2188,3200.5 		"/>
		<polygon points="2219.8,3200.5 2227.5,3189.3 2235.1,3200.5 		"/>
		<polygon points="2266.9,3200.5 2274.5,3189.3 2282.2,3200.5 		"/>
		<polygon points="2314,3200.5 2321.6,3189.3 2329.3,3200.5 		"/>
		<polygon points="2361.1,3200.5 2368.7,3189.3 2376.4,3200.5 		"/>
		<polygon points="2408.1,3200.5 2415.8,3189.3 2423.5,3200.5 		"/>
		<polygon points="2455.2,3200.5 2462.9,3189.3 2470.5,3200.5 		"/>
		<polygon points="2502.3,3200.5 2510,3189.3 2517.6,3200.5 		"/>
		<polygon points="2549.4,3200.5 2557.1,3189.3 2564.7,3200.5 		"/>
		<polygon points="2596.5,3200.5 2604.1,3189.3 2611.8,3200.5 		"/>
		<polygon points="2643.6,3200.5 2651.2,3189.3 2658.9,3200.5 		"/>
		<polygon points="2690.7,3200.5 2698.3,3189.3 2706,3200.5 		"/>
		<polygon points="2737.7,3200.5 2745.4,3189.3 2753,3200.5 		"/>
		<polygon points="2784.8,3200.5 2792.5,3189.3 2800.1,3200.5 		"/>
		<polygon points="2831.9,3200.5 2839.6,3189.3 2847.2,3200.5 		"/>
		<polygon points="2879,3200.5 2886.6,3189.3 2894.3,3200.5 		"/>
		<polygon points="2926.1,3200.5 2933.7,3189.3 2941.4,3200.5 		"/>
		<polygon points="2973.2,3200.5 2980.8,3189.3 2988.5,3200.5 		"/>
		<polygon points="3020.2,3200.5 3027.9,3189.3 3035.5,3200.5 		"/>
		<polygon points="3067.3,3200.5 3075,3189.3 3082.6,3200.5 		"/>
		<polygon points="3114.4,3200.5 3122.1,3189.3 3129.7,3200.5 		"/>
		<polygon points="3161.5,3200.5 3169.1,3189.3 3176.8,3200.5 		"/>
		<polygon points="3208.6,3200.5 3216.2,3189.3 3223.9,3200.5 		"/>
		<polygon points="3255.7,3200.5 3263.3,3189.3 3271,3200.5 		"/>
		<polygon points="3302.7,3200.5 3310.4,3189.3 3318,3200.5 		"/>
		<polygon points="3349.8,3200.5 3357.5,3189.3 3365.1,3200.5 		"/>
		<polygon points="3396.9,3200.5 3404.6,3189.3 3412.2,3200.5 		"/>
		<polygon points="3444,3200.5 3451.6,3189.3 3459.3,3200.5 		"/>
		<polygon points="3491.1,3200.5 3498.7,3189.3 3506.4,3200.5 		"/>
		<polygon points="3538.2,3200.5 3545.8,3189.3 3553.5,3200.5 		"/>
		<polygon points="3585.2,3200.5 3592.9,3189.3 3600.6,3200.5 		"/>
		<polygon points="3632.3,3200.5 3640,3189.3 3647.6,3200.5 		"/>
		<polygon points="3679.4,3200.5 3687.1,3189.3 3694.7,3200.5 		"/>
		<polygon points="3726.5,3200.5 3734.1,3189.3 3741.8,3200.5 		"/>
		<polygon points="3773.6,3200.5 3781.2,3189.3 3788.9,3200.5 		"/>
		<polygon points="3820.7,3200.5 3828.3,3189.3 3836,3200.5 		"/>
		<polygon points="3867.7,3200.5 3875.4,3189.3 3883.1,3200.5 		"/>
		<polygon points="3914.8,3200.5 3922.5,3189.3 3930.1,3200.5 		"/>
		<polygon points="3961.9,3200.5 3969.6,3189.3 3977.2,3200.5 		"/>
		<polygon points="4009,3200.5 4016.7,3189.3 4024.3,3200.5 		"/>
		<polygon points="4056.1,3200.5 4063.7,3189.3 4071.4,3200.5 		"/>
		<polygon points="4103.2,3200.5 4110.8,3189.3 4118.5,3200.5 		"/>
		<polygon points="4150.3,3200.5 4157.9,3189.3 4165.6,3200.5 		"/>
		<polygon points="4197.3,3200.5 4205,3189.3 4212.6,3200.5 		"/>
		<polygon points="4244.4,3200.5 4252.1,3189.3 4259.7,3200.5 		"/>
		<polygon points="4291.5,3200.5 4299.2,3189.3 4306.8,3200.5 		"/>
		<polygon points="4338.6,3200.5 4346.2,3189.3 4353.9,3200.5 		"/>
		<polygon points="4385.7,3200.5 4393.3,3189.3 4401,3200.5 		"/>
		<polygon points="4432.8,3200.5 4440.4,3189.3 4448.1,3200.5 		"/>
		<polygon points="4479.8,3200.5 4487.5,3189.3 4495.1,3200.5 		"/>
		<polygon points="4526.9,3200.5 4534.6,3189.3 4542.2,3200.5 		"/>
		<polygon points="4574,3200.5 4581.7,3189.3 4589.3,3200.5 		"/>
		<polygon points="4621.1,3200.5 4628.7,3189.3 4636.4,3200.5 		"/>
		<polygon points="4668.2,3200.5 4675.8,3189.3 4683.5,3200.5 		"/>
		<polygon points="4715.3,3200.5 4722.9,3189.3 4730.6,3200.5 		"/>
		<polygon points="4762.3,3200.5 4770,3189.3 4777.6,3200.5 		"/>
		<polygon points="4809.4,3200.5 4817.1,3189.3 4824.7,3200.5 		"/>
		<polygon points="4856.5,3200.5 4864.2,3189.3 4871.8,3200.5 		"/>
		<polygon points="4903.6,3200.5 4911.2,3189.3 4918.9,3200.5 		"/>
		<polygon points="4950.7,3200.5 4958.3,3189.3 4966,3200.5 		"/>
		<polygon points="4997.8,3200.5 5005.4,3189.3 5013.1,3200.5 		"/>
		<polygon points="5044.8,3200.5 5052.5,3189.3 5060.2,3200.5 		"/>
		<polygon points="5091.9,3200.5 5099.6,3189.3 5107.2,3200.5 		"/>
		<polygon points="5139,3200.5 5146.7,3189.3 5154.3,3200.5 		"/>
		<polygon points="5186.1,3200.5 5193.8,3189.3 5201.4,3200.5 		"/>
		<polygon points="5233.2,3200.5 5240.8,3189.3 5248.5,3200.5 		"/>
		<polygon points="5280.3,3200.5 5287.9,3189.3 5295.6,3200.5 		"/>
		<polygon points="5327.4,3200.5 5335,3189.3 5342.7,3200.5 		"/>
		<polygon points="5374.4,3200.5 5382.1,3189.3 5389.7,3200.5 		"/>
		<polygon points="5421.5,3200.5 5429.2,3189.3 5436.8,3200.5 		"/>
		<polygon points="5468.6,3200.5 5476.3,3189.3 5483.9,3200.5 		"/>
		<polygon points="5515.7,3200.5 5523.3,3189.3 5531,3200.5 		"/>
		<polygon points="5562.8,3200.5 5570.4,3189.3 5578.1,3200.5 		"/>
		<polygon points="5609.9,3200.5 5617.5,3189.3 5625.2,3200.5 		"/>
		<polygon points="5656.9,3200.5 5664.6,3189.3 5672.2,3200.5 		"/>
		<polygon points="5704,3200.5 5711.7,3189.3 5719.3,3200.5 		"/>
		<polygon points="5751.1,3200.5 5758.8,3189.3 5766.4,3200.5 		"/>
		<polygon points="5798.2,3200.5 5805.8,3189.3 5813.5,3200.5 		"/>
		<polygon points="5845.3,3200.5 5852.9,3189.3 5860.6,3200.5 		"/>
		<polygon points="5892.4,3200.5 5900,3189.3 5907.7,3200.5 		"/>
		<polygon points="5939.4,3200.5 5947.1,3189.3 5954.7,3200.5 		"/>
		<polygon points="5986.5,3200.5 5994.2,3189.3 6001.8,3200.5 		"/>
		<polygon points="6033.6,3200.5 6041.3,3189.3 6048.9,3200.5 		"/>
		<polygon points="6080.7,3200.5 6088.3,3189.3 6096,3200.5 		"/>
		<polygon points="6127.8,3200.5 6135.4,3189.3 6143.1,3200.5 		"/>
		<polygon points="6174.9,3200.5 6182.5,3189.3 6190.2,3200.5 		"/>
		<polygon points="6221.9,3200.5 6229.6,3189.3 6237.3,3200.5 		"/>
		<polygon points="6269,3200.5 6276.7,3189.3 6284.3,3200.5 		"/>
		<polygon points="6316.1,3200.5 6323.8,3189.3 6331.4,3200.5 		"/>
		<polygon points="6363.2,3200.5 6370.9,3189.3 6378.5,3200.5 		"/>
		<polygon points="6410.3,3200.5 6417.9,3189.3 6425.6,3200.5 		"/>
		<polygon points="6457.4,3200.5 6465,3189.3 6472.7,3200.5 		"/>
		<polygon points="6504.5,3200.5 6512.1,3189.3 6519.8,3200.5 		"/>
		<polygon points="6551.5,3200.5 6559.2,3189.3 6566.8,3200.5 		"/>
		<polygon points="6598.6,3200.5 6606.3,3189.3 6613.9,3200.5 		"/>
		<polygon points="6645.7,3200.5 6653.4,3189.3 6661,3200.5 		"/>
		<polygon points="6692.8,3200.5 6700.4,3189.3 6708.1,3200.5 		"/>
		<polygon points="6739.9,3200.5 6747.5,3189.3 6755.2,3200.5 		"/>
		<polygon points="6787,3200.5 6794.6,3189.3 6802.3,3200.5 		"/>
		<polygon points="6834,3200.5 6841.7,3189.3 6849.3,3200.5 		"/>
		<polygon points="6881.1,3200.5 6888.8,3189.3 6896.4,3200.5 		"/>
		<polygon points="6928.2,3200.5 6935.9,3189.3 6943.5,3200.5 		"/>
		<polygon points="6975.3,3200.5 6982.9,3189.3 6990.6,3200.5 		"/>
		<polygon points="7022.4,3200.5 7030,3189.3 7037.7,3200.5 		"/>
		<polygon points="7069.5,3200.5 7077.1,3189.3 7084.8,3200.5 		"/>
		<polygon points="7116.5,3200.5 7124.2,3189.3 7131.8,3200.5 		"/>
		<polygon points="7163.6,3200.5 7171.3,3189.3 7178.9,3200.5 		"/>
		<polygon points="7210.7,3200.5 7218.4,3189.3 7226,3200.5 		"/>
		<polygon points="7257.8,3200.5 7265.4,3189.3 7273.1,3200.5 		"/>
		<polygon points="7304.9,3200.5 7312.5,3189.3 7320.2,3200.5 		"/>
		<polygon points="7352,3200.5 7359.6,3189.3 7367.3,3200.5 		"/>
		<polygon points="7399,3200.5 7406.7,3189.3 7414.4,3200.5 		"/>
		<polygon points="7446.1,3200.5 7453.8,3189.3 7461.4,3200.5 		"/>
		<polygon points="7493.2,3200.5 7500.9,3189.3 7508.5,3200.5 		"/>
		<polygon points="7540.3,3200.5 7548,3189.3 7555.6,3200.5 		"/>
		<polygon points="7587.4,3200.5 7595,3189.3 7602.7,3200.5 		"/>
		<polygon points="7634.5,3200.5 7642.1,3189.3 7649.8,3200.5 		"/>
		<polygon points="7681.6,3200.5 7689.2,3189.3 7696.9,3200.5 		"/>
		<polygon points="7728.6,3200.5 7736.3,3189.3 7743.9,3200.5 		"/>
		<polygon points="7775.7,3200.5 7783.4,3189.3 7791,3200.5 		"/>
		<polygon points="7822.8,3200.5 7830.5,3189.3 7838.1,3200.5 		"/>
		<polygon points="7869.9,3200.5 7877.5,3189.3 7885.2,3200.5 		"/>
		<polygon points="7917,3200.5 7924.6,3189.3 7932.3,3200.5 		"/>
		<polygon points="7964.1,3200.5 7971.7,3189.3 7979.4,3200.5 		"/>
		<polygon points="8011.1,3200.5 8018.8,3189.3 8026.4,3200.5 		"/>
		<polygon points="8058.2,3200.5 8065.9,3189.3 8073.5,3200.5 		"/>
		<polygon points="8105.3,3200.5 8113,3189.3 8120.6,3200.5 		"/>
		<polygon points="8152.4,3200.5 8160,3189.3 8167.7,3200.5 		"/>
		<polygon points="8199.5,3200.5 8207.1,3189.3 8214.8,3200.5 		"/>
		<polygon points="8246.6,3200.5 8254.2,3189.3 8261.9,3200.5 		"/>
		<polygon points="8293.6,3200.5 8301.3,3189.3 8308.9,3200.5 		"/>
	</g>
	<rect x="179.2" y="3540.4" class="st46" width="241.5" height="378.6"/>
	<text transform="matrix(1 0 0 1 179.2207 3580.9062)"><tspan x="0" y="0" class="st47 st48">1863:</tspan><tspan x="0" y="73" class="st45 st49">Se inaugura </tspan><tspan x="0" y="121" class="st45 st49">el tren entre </tspan><tspan x="0" y="169" class="st45 st49">Santiago y </tspan><tspan x="0" y="217" class="st45 st49">Valparaso</tspan></text>
	<rect x="321.7" y="737" class="st46" width="590.3" height="378.6"/>
	<text transform="matrix(1 0 0 1 321.7022 777.4521)"><tspan x="0" y="0" class="st47 st48">1850:</tspan><tspan x="0" y="73" class="st45 st49">Desde este ao aumentaron en </tspan><tspan x="0" y="121" class="st45 st49">un 48% las emisiones de dixido </tspan><tspan x="0" y="169" class="st45 st49">de carbono, producto de la </tspan><tspan x="0" y="217" class="st45 st49">actividad humana</tspan></text>
	<rect x="707.3" y="3540.4" class="st46" width="268.2" height="378.6"/>
	<text transform="matrix(1 0 0 1 707.254 3580.9062)"><tspan x="0" y="0" class="st47 st48">1884:</tspan><tspan x="0" y="73" class="st45 st49">Se crea la </tspan><tspan x="0" y="121" class="st45 st49">empresa de </tspan><tspan x="0" y="169" class="st45 st49">ferrocarriles </tspan><tspan x="0" y="217" class="st45 st49">del Estado</tspan></text>
	<rect x="1212.8" y="3540.4" class="st46" width="398.3" height="378.6"/>
	<text transform="matrix(1 0 0 1 1212.8228 3580.9062)"><tspan x="0" y="0" class="st47 st48">1907:</tspan><tspan x="0" y="73" class="st45 st49">Se realiza el VIII </tspan><tspan x="0" y="121" class="st45 st49">censo de poblacin, el </tspan><tspan x="0" y="169" class="st45 st49">que arroja 3.231.022 </tspan><tspan x="0" y="217" class="st45 st49">habitantes, Chile</tspan></text>
	<rect x="2642.4" y="3540.4" class="st46" width="585.2" height="378.6"/>
	<text transform="matrix(1 0 0 1 2642.4299 3580.9062)"><tspan x="0" y="0" class="st47 st48">1920:</tspan><tspan x="0" y="73" class="st45 st49">Se realiza el IX censo de </tspan><tspan x="0" y="121" class="st45 st49">poblacin. Sus resultados </tspan><tspan x="0" y="169" class="st45 st49">indican que la poblacin de  </tspan><tspan x="0" y="217" class="st45 st49">Chile es de 3.720.235 habitantes</tspan></text>
	<rect x="3386.1" y="3540.4" class="st46" width="224.9" height="378.6"/>
	<text transform="matrix(1 0 0 1 3386.1003 3580.9062)"><tspan x="0" y="0" class="st47 st48">1946:</tspan><tspan x="0" y="73" class="st45 st49">Se crea la </tspan><tspan x="0" y="121" class="st45 st49">Compaa </tspan><tspan x="0" y="169" class="st45 st49">de Acero del </tspan><tspan x="0" y="217" class="st45 st49">Pacfico</tspan></text>
	<rect x="3863.6" y="3540.4" class="st46" width="345.4" height="378.6"/>
	<text transform="matrix(1 0 0 1 3863.624 3580.9062)"><tspan x="0" y="0" class="st47 st48">1955:</tspan><tspan x="0" y="73" class="st45 st49">Fundacin de </tspan><tspan x="0" y="121" class="st45 st49">CODELCO</tspan></text>
	<rect x="5231" y="3540.4" class="st46" width="345.4" height="378.6"/>
	<text transform="matrix(1 0 0 1 5231.0005 3580.9062)"><tspan x="0" y="0" class="st47 st48">1995:</tspan><tspan x="0" y="73" class="st45 st49">Eliminacin del </tspan><tspan x="0" y="121" class="st45 st49">plomo de los </tspan><tspan x="0" y="169" class="st45 st49">combustibles</tspan></text>
	<rect x="5806.3" y="3540.4" class="st46" width="392.3" height="378.6"/>
	<text transform="matrix(1 0 0 1 5806.27 3580.9062)"><tspan x="0" y="0" class="st47 st48">2017:</tspan><tspan x="0" y="73" class="st45 st49">Tornado en Quillota, </tspan><tspan x="0" y="121" class="st45 st49">regin de Valparaso, </tspan><tspan x="0" y="169" class="st45 st49">Chile. Alcanzando al </tspan><tspan x="0" y="217" class="st45 st49">menos 80 km/hr</tspan></text>
	<rect x="6415" y="3540.4" class="st46" width="449.8" height="378.6"/>
	<text transform="matrix(1 0 0 1 6414.999 3580.9062)"><tspan x="0" y="0" class="st47 st48">2019:</tspan><tspan x="0" y="73" class="st45 st49">Tornado en Los ngeles, </tspan><tspan x="0" y="121" class="st45 st49">Chile. Alcanzando los </tspan><tspan x="0" y="169" class="st45 st49">218 km/hr, dejando 18 </tspan><tspan x="0" y="217" class="st45 st49">personas heridas </tspan></text>
	<rect x="7189.5" y="3540.4" class="st46" width="474" height="378.6"/>
	<text transform="matrix(1 0 0 1 7189.5093 3580.9062)"><tspan x="0" y="0" class="st47 st48">2020:</tspan><tspan x="0" y="73" class="st45 st49">Se registr la temperatura </tspan><tspan x="0" y="121" class="st45 st49">ms alta registrada en el </tspan><tspan x="0" y="169" class="st45 st49">continente antrtico, </tspan><tspan x="0" y="217" class="st45 st49">llegando a los 18C</tspan></text>
	<rect x="7943.5" y="3540.4" class="st46" width="415.6" height="378.6"/>
	<text transform="matrix(1 0 0 1 7943.5239 3580.9062)"><tspan x="0" y="0" class="st47 st48">2021:</tspan><tspan x="0" y="73" class="st45 st49">Tornados en la regin </tspan><tspan x="0" y="121" class="st45 st49">de la Araucana, Los </tspan><tspan x="0" y="169" class="st45 st49">Lagos y Biobo, Chile</tspan></text>
	<rect x="1853.9" y="737" class="st46" width="324.9" height="378.6"/>
	<text transform="matrix(1 0 0 1 1853.9314 777.4521)"><tspan x="0" y="0" class="st47 st48">1883:</tspan><tspan x="0" y="73" class="st45 st49">Inicios del </tspan><tspan x="0" y="121" class="st45 st49">alumbrado </tspan><tspan x="0" y="169" class="st45 st49">elctrico, </tspan><tspan x="0" y="217" class="st45 st49">Santiago, Chile</tspan></text>
	<rect x="2336.8" y="737" class="st46" width="243.9" height="378.6"/>
	<text transform="matrix(1 0 0 1 2336.7778 777.4521)"><tspan x="0" y="0" class="st47 st48">1900:</tspan><tspan x="0" y="73" class="st45 st49">Se inaugura </tspan><tspan x="0" y="121" class="st45 st49">la Estacin </tspan><tspan x="0" y="169" class="st45 st49">Central de </tspan><tspan x="0" y="217" class="st45 st49">Santiago</tspan></text>
	<rect x="2730.3" y="737" class="st46" width="423.8" height="378.6"/>
	<text transform="matrix(1 0 0 1 2730.2808 777.4521)"><tspan x="0" y="0" class="st47 st48">1910:</tspan><tspan x="0" y="73" class="st45 st49">Se inaugura el </tspan><tspan x="0" y="121" class="st45 st49">Ferrocarril Transandino </tspan><tspan x="0" y="169" class="st45 st49">entre Los Andes y </tspan><tspan x="0" y="217" class="st45 st49">Mendoza</tspan></text>
	<rect x="3449.4" y="737" class="st46" width="355.5" height="378.6"/>
	<text transform="matrix(1 0 0 1 3449.4167 777.4521)"><tspan x="0" y="0" class="st47 st48">1934:</tspan><tspan x="0" y="73" class="st45 st49">Tromba marina en </tspan><tspan x="0" y="121" class="st45 st49">regin del BioBo, </tspan><tspan x="0" y="169" class="st45 st49">Chile. 27 fallecidos </tspan><tspan x="0" y="217" class="st45 st49">y 599 heridos</tspan></text>
	<rect x="3949.4" y="737" class="st46" width="234.3" height="378.6"/>
	<text transform="matrix(1 0 0 1 3949.4119 777.4521)"><tspan x="0" y="0" class="st47 st48">1950:</tspan><tspan x="0" y="73" class="st45 st49">Fundacin </tspan><tspan x="0" y="121" class="st45 st49">de la ENAP</tspan></text>
	<rect x="5139.6" y="737" class="st46" width="406.3" height="378.6"/>
	<text transform="matrix(1 0 0 1 5139.5835 777.4521)"><tspan x="0" y="0" class="st47 st48">1973:</tspan><tspan x="0" y="73" class="st45 st49">Calentamiento global: </tspan><tspan x="0" y="121" class="st45 st49">Relacin CO2 </tspan><tspan x="0" y="169" class="st45 st49">calentamiento </tspan><tspan x="0" y="217" class="st45 st49">sugerido por Lorius</tspan></text>
	<rect x="5776.3" y="737" class="st46" width="279" height="378.6"/>
	<text transform="matrix(1 0 0 1 5776.3359 777.4521)"><tspan x="0" y="0" class="st47 st48">2016:</tspan><tspan x="0" y="73" class="st45 st49">Ao ms clido </tspan><tspan x="0" y="121" class="st45 st49">de Chile hasta </tspan><tspan x="0" y="169" class="st45 st49">la fecha</tspan></text>
	<rect x="6385.7" y="737" class="st46" width="394.3" height="378.6"/>
	<text transform="matrix(1 0 0 1 6385.7368 777.4521)"><tspan x="0" y="0" class="st47 st48">2017:</tspan><tspan x="0" y="73" class="st45 st49">ltimo censo de </tspan><tspan x="0" y="121" class="st45 st49">poblacin en Chile, </tspan><tspan x="0" y="169" class="st45 st49">arrojando 17.574.003 </tspan><tspan x="0" y="217" class="st45 st49">habitantes</tspan></text>
	<rect x="7066.6" y="737" class="st46" width="441.9" height="378.6"/>
	<text transform="matrix(1 0 0 1 7066.646 777.4521)"><tspan x="0" y="0" class="st47 st48">2019:</tspan><tspan x="0" y="73" class="st45 st49">Tornado en </tspan><tspan x="0" y="121" class="st45 st49">Talcahuano-Concepcin, </tspan><tspan x="0" y="169" class="st45 st49">Chile. 1 fallecido y 23 </tspan><tspan x="0" y="217" class="st45 st49">heridos</tspan></text>
	<rect x="7701.7" y="737" class="st46" width="633.7" height="378.6"/>
	<text transform="matrix(1 0 0 1 7701.7119 777.4521)"><tspan x="0" y="0" class="st47 st48">2021:</tspan><tspan x="0" y="73" class="st45 st49">Rcord de temperaturas altas y </tspan><tspan x="0" y="121" class="st45 st49">olas de calor en la zona sur-austral, </tspan><tspan x="0" y="169" class="st45 st49">Chile. Con temperaturas sobre los </tspan><tspan x="0" y="217" class="st45 st49">25C y 30C</tspan></text>
	<text transform="matrix(1 0 0 1 179.1442 470.6649)" class="st3 st50 st51">ANOMALAS DE TEMPERATURAS A ESCALA GLOBAL </text>
	<rect x="179.1" y="547.1" class="st46" width="3335" height="114.1"/>
	<text transform="matrix(1 0 0 1 179.1441 628.065)" class="st52 st53">(desde 1850 a 2022)</text>
	<g>
		<text transform="matrix(1 0 0 1 2604.8496 3944.6492)" class="st45 st54">Fuentes: National Geographic (https://www.nationalgeographic.com.es/), Sernageomin (https://www.sernageomin.cl/pdf/LIBROdevolcanes_SERNAGEOMIN.pdf), Biblioteca Nacional de Chile (https://www.memoriachilena.gob.cl/602/w3-propertyname-559.html), Organizacin Mundial de la Salud (https://www.who.int/es), Conaf (https://www.conaf.cl/incendios-forestales/), Direccin general de aguas.</text>
	</g>
	<rect x="753.2" y="2627.8" class="st46" width="853.2" height="461.4"/>
	<text transform="matrix(1 0 0 1 852.5553 2668.3298)"><tspan x="0" y="0" class="st47 st48">Qu tan caluroso o fro fue </tspan><tspan x="79.1" y="69.6" class="st47 st48">el ao en que naciste?</tspan></text>
	<rect x="553" y="2085.4" class="st46" width="1247.4" height="461.4"/>
	<text transform="matrix(1 0 0 1 579.0464 2122.8633)"><tspan x="0" y="0" class="st45 st48">Una &quot;anomala&quot; de temperatura nos indica una desvia</tspan><tspan x="1181.5" y="0" class="st45 st48">-</tspan><tspan x="21.5" y="59.1" class="st45 st48">cin sobre un periodo de referencia significativo (30 </tspan><tspan x="47.8" y="118.2" class="st45 st48">aos) . En este caso el periodo de referencia es la </tspan><tspan x="45.8" y="177.3" class="st45 st48">media de temperaturas entre 1961 y 1990. Lo que </tspan><tspan x="-11.8" y="236.5" class="st45 st48">quiere decir que un valor de +1.0, implica que la tempe</tspan><tspan x="1193.3" y="236.5" class="st45 st48">-</tspan><tspan x="8.5" y="295.6" class="st45 st48">ratura promedio anual de un sitio (enero a diciembre) </tspan><tspan x="110.7" y="354.7" class="st45 st48">estara +1.0C sobre la media de referencia.</tspan></text>
	<g>
		<g>
			<g>
				<text transform="matrix(1 0 0 1 1004.8151 1715.8297)" class="st55 st49">Grados Celsius (C)</text>
			</g>
		</g>
		<g>
			<g>
				<g>
					<text transform="matrix(1 0 0 1 687.3785 1795.1539)" class="st45 st49">-0,4</text>
				</g>
			</g>
			<g>
				<g>
					<text transform="matrix(1 0 0 1 829.2706 1795.1539)" class="st45 st49">-0,2</text>
				</g>
			</g>
			<g>
				<g>
					<text transform="matrix(1 0 0 1 991.5865 1795.1539)" class="st55 st49">0</text>
				</g>
			</g>
			<g>
				<g>
					<text transform="matrix(1 0 0 1 1118.4943 1795.1539)" class="st45 st49">0,2</text>
				</g>
			</g>
			<g>
				<g>
					<text transform="matrix(1 0 0 1 1260.3878 1795.1539)" class="st45 st49">0,4</text>
				</g>
			</g>
			<g>
				<g>
					<text transform="matrix(1 0 0 1 1402.2789 1795.1539)" class="st45 st49">0,6</text>
				</g>
			</g>
			<g>
				<g>
					<text transform="matrix(1 0 0 1 1544.3668 1795.1539)" class="st45 st49">0,8</text>
				</g>
			</g>
			<g>
				<g>
					<text transform="matrix(1 0 0 1 1686.2604 1795.1539)" class="st45 st49">1,0</text>
				</g>
			</g>
		</g>
	</g>
</g>
</svg>
