<svg id="Capa_1" data-name="Capa 1" xmlns="http://www.w3.org/2000/svg" viewBox="0 0 4120.85 3087"><defs><style>.cls-1{font-size:30px;fill:#878787;font-family:FabrigaLight, Fabriga;}.cls-2{letter-spacing:-0.03em;}.cls-3{letter-spacing:-0.02em;}.cls-4{letter-spacing:-0.01em;}.cls-5{letter-spacing:0.02em;}.cls-6{letter-spacing:-0.02em;}.cls-7{letter-spacing:-0.02em;}.cls-8{letter-spacing:-0.01em;}.cls-9{letter-spacing:0em;}.cls-10{font-size:90.45px;letter-spacing:0.01em;}.cls-10,.cls-26{fill:#1d1d1b;}.cls-10,.cls-34{font-family:Fabriga-Bold, Fabriga;font-weight:700;}.cls-11{letter-spacing:-0.01em;}.cls-12{letter-spacing:-0.01em;}.cls-13{letter-spacing:-0.01em;}.cls-14{letter-spacing:0.01em;}.cls-15,.cls-16,.cls-18,.cls-22,.cls-23,.cls-25{fill:none;}.cls-15,.cls-23{stroke:#1d1d1b;}.cls-15,.cls-16,.cls-18,.cls-23,.cls-25{stroke-linecap:round;stroke-linejoin:round;}.cls-15,.cls-18,.cls-22{stroke-width:7px;}.cls-16{stroke:#549bd4;stroke-width:10.43px;}.cls-17{fill:#549bd4;}.cls-18,.cls-22,.cls-25{stroke:#fff;}.cls-19{fill:#8ccdf2;}.cls-20{fill:#37658c;}.cls-21{fill:#e73d2f;}.cls-22{stroke-miterlimit:10;}.cls-23{stroke-width:7.82px;}.cls-24,.cls-34{fill:#7fbfea;}.cls-25{stroke-width:6px;}.cls-26{font-size:52.7px;font-family:Fabriga;}.cls-27{letter-spacing:-0.02em;}.cls-28{letter-spacing:-0.01em;}.cls-29{letter-spacing:-0.02em;}.cls-30{letter-spacing:0em;}.cls-31{letter-spacing:-0.03em;}.cls-32{letter-spacing:-0.01em;}.cls-33{letter-spacing:-0.01em;}.cls-34{font-size:73.78px;}.cls-35{letter-spacing:-0.02em;}.cls-36{letter-spacing:-0.08em;}.cls-37{letter-spacing:-0.02em;}</style></defs><text class="cls-1" transform="translate(253.65 219.29)"><tspan class="cls-2">F</tspan><tspan x="15.12" y="0">ue</tspan><tspan class="cls-3" x="48.87" y="0">n</tspan><tspan class="cls-4" x="65.46" y="0">t</tspan><tspan x="76.62" y="0">e: Se</tspan><tspan class="cls-5" x="142.56" y="0">r</tspan><tspan x="153.99" y="0">vicio Geo</tspan><tspan class="cls-6" x="281.04" y="0">l</tspan><tspan class="cls-7" x="288.36" y="0">ó</tspan><tspan x="305.88" y="0">gico de </tspan><tspan class="cls-7" x="411.14" y="0">E</tspan><tspan class="cls-8" x="427.13" y="0">s</tspan><tspan class="cls-9" x="441.32" y="0">tados Unidos</tspan></text><text class="cls-10" transform="translate(250.97 155.27)">CIC<tspan class="cls-11" x="157.38" y="0">L</tspan><tspan x="204.5" y="0">O DEL </tspan><tspan class="cls-12" x="473.31" y="0">A</tspan><tspan x="534.72" y="0">G</tspan><tspan class="cls-13" x="602.47" y="0">U</tspan><tspan class="cls-14" x="663.52" y="0">A</tspan></text><polyline class="cls-15" points="3612.05 2300.52 3745.24 2136.22 3878.7 2300.29"/><polyline class="cls-15" points="3691.78 2202.84 3718.69 2235.91 3745.54 2202.79 3772.45 2235.87 3799.3 2202.74"/><polyline class="cls-15" points="3549.38 2234.78 3565.07 2254.06 3580.71 2234.75 3596.4 2254.03 3612.05 2234.72"/><polyline class="cls-15" points="3637.42 2265.88 3580.54 2195.95 3371.4 2448.56 847.88 2448.56"/><path class="cls-15" d="M3877,2093.92a17.37,17.37,0,1,0-11.2-30.64,25.6,25.6,0,0,0-36.5-17.78,36.2,36.2,0,1,0-34,48.49Z"/><path class="cls-15" d="M3680.52,2119.93a12.47,12.47,0,1,0-8-22,18.38,18.38,0,0,0-26.2-12.76,26,26,0,1,0-24.4,34.8Z"/><polyline class="cls-16" points="3545.97 1983.42 3503.33 1983.42 3503.33 1940.79"/><polyline class="cls-16" points="3648.26 1694.06 3648.26 1838.49 3503.33 1983.42"/><polyline class="cls-16" points="3099.72 2242.36 3069.57 2212.21 3099.72 2182.06"/><polyline class="cls-16" points="3376.67 2110.08 3274.54 2212.21 3069.57 2212.21"/><polyline class="cls-16" points="2372.83 2241.42 2342.68 2211.27 2372.83 2181.12"/><line class="cls-16" x1="2652.64" y1="2211.27" x2="2342.68" y2="2211.27"/><polyline class="cls-16" points="1631.38 2241.42 1601.23 2211.27 1631.38 2181.12"/><line class="cls-16" x1="1911.19" y1="2211.27" x2="1601.23" y2="2211.27"/><polyline class="cls-16" points="881.19 2241.42 851.04 2211.27 881.19 2181.12"/><line class="cls-16" x1="1161" y1="2211.27" x2="851.04" y2="2211.27"/><line class="cls-16" x1="2547.51" y1="2490.13" x2="2547.51" y2="2600.21"/><polyline class="cls-16" points="2577.66 2570.06 2547.51 2600.21 2517.36 2570.06"/><line class="cls-16" x1="2459.03" y1="2490.13" x2="2459.03" y2="2600.21"/><polyline class="cls-16" points="2489.18 2570.06 2459.03 2600.21 2428.88 2570.06"/><line class="cls-16" x1="3691.94" y1="1044.95" x2="3691.94" y2="1155.03"/><polyline class="cls-16" points="3722.09 1124.88 3691.94 1155.03 3661.79 1124.88"/><line class="cls-16" x1="3603.46" y1="1044.95" x2="3603.46" y2="1155.03"/><polyline class="cls-16" points="3633.61 1124.88 3603.46 1155.03 3573.31 1124.88"/><polyline class="cls-16" points="482.66 676.19 482.66 559.93 1370.79 559.93 1370.79 676.19"/><circle class="cls-17" cx="2870.46" cy="1239.01" r="172.36"/><path class="cls-18" d="M2769.38,1188.51c14.43,0,14.43,12.86,28.87,12.86s14.44-12.86,28.88-12.86,14.44,12.86,28.87,12.86,14.45-12.86,28.89-12.86,14.43,12.86,28.87,12.86,14.45-12.86,28.89-12.86,14.45,12.86,28.9,12.86"/><path class="cls-18" d="M2769.38,1217.89c14.43,0,14.43,12.86,28.87,12.86s14.44-12.86,28.88-12.86,14.44,12.86,28.87,12.86,14.45-12.86,28.89-12.86,14.43,12.86,28.87,12.86,14.45-12.86,28.89-12.86,14.45,12.86,28.9,12.86"/><path class="cls-18" d="M2769.38,1247.28c14.43,0,14.43,12.86,28.87,12.86s14.44-12.86,28.88-12.86,14.44,12.86,28.87,12.86,14.45-12.86,28.89-12.86,14.43,12.86,28.87,12.86,14.45-12.86,28.89-12.86,14.45,12.86,28.9,12.86"/><path class="cls-18" d="M2769.38,1276.66c14.43,0,14.43,12.86,28.87,12.86s14.44-12.86,28.88-12.86,14.44,12.86,28.87,12.86,14.45-12.86,28.89-12.86,14.43,12.86,28.87,12.86,14.45-12.86,28.89-12.86,14.45,12.86,28.9,12.86"/><circle class="cls-17" cx="3647.7" cy="1474.44" r="172.36"/><polygon class="cls-18" points="3621.9 1459.54 3621.9 1489.34 3647.7 1504.24 3673.5 1489.34 3673.5 1459.54 3647.7 1444.65 3621.9 1459.54"/><line class="cls-18" x1="3621.9" y1="1459.54" x2="3560.36" y2="1424.02"/><polyline class="cls-18" points="3584.77 1404.05 3595.57 1444.34 3555.27 1455.14"/><line class="cls-18" x1="3673.5" y1="1489.34" x2="3735.03" y2="1524.86"/><polyline class="cls-18" points="3740.13 1493.74 3699.83 1504.54 3710.63 1544.83"/><line class="cls-18" x1="3621.9" y1="1489.34" x2="3560.36" y2="1524.86"/><polyline class="cls-18" points="3555.27 1493.74 3595.57 1504.54 3584.77 1544.83"/><line class="cls-18" x1="3673.5" y1="1459.54" x2="3735.03" y2="1424.02"/><polyline class="cls-18" points="3710.63 1404.05 3699.83 1444.34 3740.13 1455.14"/><line class="cls-18" x1="3647.7" y1="1504.24" x2="3647.7" y2="1575.29"/><polyline class="cls-18" points="3618.2 1564.14 3647.7 1534.64 3677.2 1564.14"/><line class="cls-18" x1="3647.7" y1="1444.65" x2="3647.7" y2="1373.6"/><polyline class="cls-18" points="3618.2 1384.75 3647.7 1414.24 3677.2 1384.75"/><circle class="cls-17" cx="2870.46" cy="1718.58" r="172.36"/><path class="cls-18" d="M2767,1747.6c14.44,0,14.44,12.86,28.88,12.86s14.44-12.86,28.88-12.86,14.44,12.86,28.87,12.86,14.44-12.86,28.89-12.86,14.43,12.86,28.87,12.86,14.44-12.86,28.89-12.86,14.45,12.86,28.89,12.86"/><path class="cls-18" d="M2767,1777c14.44,0,14.44,12.86,28.88,12.86s14.44-12.86,28.88-12.86,14.44,12.86,28.87,12.86,14.44-12.86,28.89-12.86,14.43,12.86,28.87,12.86,14.44-12.86,28.89-12.86,14.45,12.86,28.89,12.86"/><line class="cls-18" x1="2940.31" y1="1747.6" x2="2940.31" y2="1680.89"/><path class="cls-18" d="M2940.31,1680.89a33.58,33.58,0,0,1,33.58-33.58"/><path class="cls-18" d="M2940.31,1724.87a33.58,33.58,0,0,1,33.58-33.58"/><path class="cls-18" d="M2940.31,1697.68a33.58,33.58,0,0,0-33.57-33.58"/><line class="cls-18" x1="2824.1" y1="1747.6" x2="2824.1" y2="1680.89"/><path class="cls-18" d="M2824.1,1680.89a33.59,33.59,0,0,1,33.58-33.58"/><path class="cls-18" d="M2824.1,1724.87a33.59,33.59,0,0,1,33.58-33.58"/><path class="cls-18" d="M2824.1,1697.68a33.58,33.58,0,0,0-33.57-33.58"/><circle class="cls-17" cx="2870.46" cy="2211.27" r="172.36"/><polygon class="cls-18" points="2979.45 2291.74 2935.7 2291.74 2953.88 2149.99 2953.88 2130.8 2979.45 2130.8 2979.45 2291.74"/><polygon class="cls-18" points="2801.46 2291.74 2761.48 2291.74 2779.65 2149.99 2779.65 2130.8 2801.46 2130.8 2801.46 2291.74"/><line class="cls-18" x1="2953.88" y1="2149.99" x2="2801.46" y2="2149.99"/><path class="cls-18" d="M2877.26,2291.74c-.63-72.29,12.5-107.48,12.5-107.48h33.09s-13.13,35.19-12.5,107.48Z"/><polyline class="cls-18" points="2922.85 2184.26 2922.85 2166.77 2889.76 2166.77 2889.76 2184.26"/><path class="cls-18" d="M2820.81,2291.74c-.63-72.29,12.49-107.48,12.49-107.48h33.09s-13.12,35.19-12.49,107.48Z"/><polyline class="cls-18" points="2866.39 2184.26 2866.39 2166.77 2833.3 2166.77 2833.3 2184.26"/><line class="cls-18" x1="2947.98" y1="2291.74" x2="2801.46" y2="2291.74"/><circle class="cls-19" cx="1915.55" cy="2659.4" r="172.36"/><path class="cls-18" d="M1814.46,2638.61c14.44,0,14.44,12.86,28.88,12.86s14.44-12.86,28.88-12.86,14.44,12.86,28.87,12.86,14.44-12.86,28.89-12.86,14.43,12.86,28.87,12.86,14.44-12.86,28.89-12.86,14.45,12.86,28.89,12.86"/><path class="cls-18" d="M1814.46,2668c14.44,0,14.44,12.86,28.88,12.86s14.44-12.86,28.88-12.86,14.44,12.86,28.87,12.86S1915.53,2668,1930,2668s14.43,12.86,28.87,12.86,14.44-12.86,28.89-12.86,14.45,12.86,28.89,12.86"/><line class="cls-18" x1="2039.71" y1="2605.13" x2="1791.39" y2="2605.13"/><line class="cls-18" x1="2039.71" y1="2713.67" x2="1791.39" y2="2713.67"/><circle class="cls-20" cx="3647.7" cy="848.72" r="172.36"/><path class="cls-18" d="M3615.85,901.76a12.32,12.32,0,1,1-22.55-9.93c2.74-6.23,21.44-18.11,21.44-18.11S3618.59,895.53,3615.85,901.76Z"/><path class="cls-18" d="M3662.35,901.76a12.32,12.32,0,0,1-22.55-9.93c2.75-6.23,21.44-18.11,21.44-18.11S3665.09,895.53,3662.35,901.76Z"/><path class="cls-18" d="M3677.45,951.31a12.32,12.32,0,1,1-22.54-9.93c2.74-6.23,21.44-18.11,21.44-18.11S3680.2,945.09,3677.45,951.31Z"/><path class="cls-18" d="M3632.34,951.31a12.32,12.32,0,1,1-22.54-9.93c2.74-6.23,21.44-18.11,21.44-18.11S3635.09,945.09,3632.34,951.31Z"/><path class="cls-18" d="M3708.86,901.76a12.32,12.32,0,0,1-22.55-9.93c2.74-6.23,21.44-18.11,21.44-18.11S3711.6,895.53,3708.86,901.76Z"/><path class="cls-18" d="M3704.87,846.82a36.73,36.73,0,0,0,0-73.45,37.31,37.31,0,0,0-6.56.6,45.55,45.55,0,0,0-87.45-4.4,24.92,24.92,0,0,0-5.22-.56,25.27,25.27,0,0,0-25.21,25.33,26.42,26.42,0,0,0,.33,3.9,23.59,23.59,0,0,0-2.54-.14,24.36,24.36,0,0,0,0,48.72Z"/><path class="cls-18" d="M3610.87,769.56a25.09,25.09,0,0,1,16.49,12"/><path class="cls-18" d="M3671.76,794.09a36.7,36.7,0,0,1,26.55-20.1"/><circle class="cls-21" cx="1977.66" cy="645.54" r="172.36"/><path class="cls-22" d="M1916.78,651.09a57.06,57.06,0,0,1,57-57h78.93v26.15h-78.93a30.89,30.89,0,0,0-30.85,30.85Z"/><path class="cls-22" d="M1949.69,727.94a22.1,22.1,0,0,1-44.19,0c0-12.2,22.1-42.34,22.1-42.34S1949.69,715.74,1949.69,727.94Z"/><rect class="cls-22" x="1909.66" y="651.09" width="40.38" height="17.79"/><line class="cls-22" x1="2052.7" y1="582.58" x2="2052.7" y2="631.75"/><rect class="cls-22" x="1993.67" y="573.49" width="28.74" height="20.61"/><line class="cls-22" x1="2008.04" y1="573.49" x2="2008.04" y2="555.93"/><line class="cls-22" x1="1959.88" y1="555.93" x2="2056.2" y2="555.93"/><circle class="cls-21" cx="2823.21" cy="645.54" r="172.36"/><path class="cls-18" d="M2733.63,696.76a15.21,15.21,0,1,0,15.21-15.21A15.21,15.21,0,0,0,2733.63,696.76Z"/><path class="cls-18" d="M2715,696.76A33.81,33.81,0,1,0,2748.84,663,33.8,33.8,0,0,0,2715,696.76Z"/><path class="cls-18" d="M2715,696.76A33.81,33.81,0,1,0,2748.84,663,33.8,33.8,0,0,0,2715,696.76Z"/><line class="cls-18" x1="2841.69" y1="692.74" x2="2796.81" y2="692.74"/><line class="cls-18" x1="2917.99" y1="628.33" x2="2917.99" y2="573.95"/><line class="cls-18" x1="2923.36" y1="573.74" x2="2822.38" y2="573.74"/><path class="cls-18" d="M2819.32,620.36s-63.51-2.44-88.15,20.56L2728,653.13"/><path class="cls-18" d="M2809.42,560.5h-6.08a7.55,7.55,0,0,0-7.55,7.55v52.89"/><line class="cls-18" x1="2876.12" y1="573.74" x2="2876.12" y2="629.78"/><line class="cls-18" x1="2813.87" y1="658.8" x2="2781.86" y2="658.8"/><line class="cls-18" x1="2830.74" y1="630.45" x2="2838.86" y2="630.45"/><path class="cls-18" d="M2715.06,698.33a13,13,0,0,1-13.31-12.89v-9c0-10,2.66-10.75,9.82-10.75l8.27-7.55a48.35,48.35,0,0,1,74.66,54.53"/><path class="cls-18" d="M2873.62,684.69a25.16,25.16,0,1,0,25.16-25.16A25.16,25.16,0,0,0,2873.62,684.69Z"/><path class="cls-18" d="M2888.56,684.69a10.22,10.22,0,1,0,10.22-10.22A10.22,10.22,0,0,0,2888.56,684.69Z"/><path class="cls-18" d="M2852.9,684.69a45.89,45.89,0,1,0,45.88-45.89A45.88,45.88,0,0,0,2852.9,684.69Z"/><path class="cls-18" d="M2943.51,645.42a59.53,59.53,0,0,0-101.82,22.38l-.58,5.9h-21.79V620.36l9-46.62"/><circle class="cls-21" cx="2400.44" cy="645.54" r="172.36"/><polygon class="cls-18" points="2391.08 697.25 2432.25 665.26 2432.25 697.25 2473.41 665.26 2473.41 755.35 2360.51 755.35 2360.51 697.25 2391.08 697.25"/><rect class="cls-18" x="2442.04" y="712.55" width="16.15" height="14.94"/><rect class="cls-18" x="2409.75" y="712.55" width="16.15" height="14.94"/><rect class="cls-18" x="2377.45" y="712.55" width="16.15" height="14.94"/><polyline class="cls-18" points="2360.51 695.54 2360.51 622.1 2327.46 622.1 2327.46 755.35 2360.51 755.35"/><line class="cls-18" x1="2360.51" y1="646.39" x2="2327.46" y2="646.39"/><line class="cls-18" x1="2360.51" y1="666.75" x2="2327.46" y2="666.75"/><path class="cls-18" d="M2336.3,610V596.47a10.19,10.19,0,0,1,5.5-9.48,10.79,10.79,0,0,1,1.55-.64,13.87,13.87,0,0,1,14.2-17.47,13.87,13.87,0,0,1,20.76-13.36,17.9,17.9,0,0,1,31.59-13.31,26,26,0,1,1,28.31,43.37,26,26,0,0,1-23.81,0,15.56,15.56,0,0,1-28.28,1.37c-.2-.39-.37-.78-.53-1.17a10.18,10.18,0,0,1-17,4.16,13.77,13.77,0,0,1-12,6.64,10.15,10.15,0,0,1-5.48,8.45V610"/><path class="cls-23" d="M815.84,2453.94c-10.64,0-10.64-10.76-21.28-10.76s-10.64,10.76-21.28,10.76-10.63-10.76-21.27-10.76-10.64,10.76-21.28,10.76-10.63-10.76-21.27-10.76-10.64,10.76-21.28,10.76-10.64-10.76-21.28-10.76-10.63,10.76-21.27,10.76-10.64-10.76-21.28-10.76-10.64,10.76-21.28,10.76-10.64-10.76-21.28-10.76-10.64,10.76-21.27,10.76-10.64-10.76-21.28-10.76-10.64,10.76-21.28,10.76-10.64-10.76-21.28-10.76-10.64,10.76-21.28,10.76-10.64-10.76-21.28-10.76-10.64,10.76-21.28,10.76-10.64-10.76-21.28-10.76-10.63,10.76-21.27,10.76-10.64-10.76-21.28-10.76-10.64,10.76-21.28,10.76-10.64-10.76-21.28-10.76-10.64,10.76-21.28,10.76-10.64-10.76-21.28-10.76-10.64,10.76-21.28,10.76-10.64-10.76-21.29-10.76-10.64,10.76-21.28,10.76-10.64-10.76-21.28-10.76-10.65,10.76-21.29,10.76-10.64-10.76-21.29-10.76"/><polyline class="cls-16" points="455.86 1661.88 486.01 1631.72 516.16 1661.88"/><line class="cls-16" x1="486.01" y1="1860.94" x2="486.01" y2="1631.72"/><circle class="cls-20" cx="486.01" cy="1086.4" r="172.36"/><circle class="cls-24" cx="486.01" cy="2211.27" r="172.36"/><line class="cls-16" x1="530.25" y1="1282.39" x2="530.25" y2="1392.48"/><polyline class="cls-16" points="560.4 1362.33 530.25 1392.47 500.1 1362.33"/><line class="cls-16" x1="441.77" y1="1282.39" x2="441.77" y2="1392.48"/><polyline class="cls-16" points="471.92 1362.33 441.77 1392.47 411.62 1362.33"/><path class="cls-18" d="M470.66,2295.1c0-16.77,30.7-16.77,30.7-33.54s-30.7-16.77-30.7-33.55,30.7-16.77,30.7-33.54h0c0-16.77-30.7-16.77-30.7-33.54s30.7-16.77,30.7-33.54"/><path class="cls-18" d="M425,2295.1c0-16.77,30.7-16.77,30.7-33.54S425,2244.79,425,2228h0c0-16.77,30.7-16.77,30.7-33.54S425,2177.7,425,2160.93s30.7-16.77,30.7-33.54"/><path class="cls-18" d="M516.3,2295.1c0-16.77,30.71-16.77,30.71-33.54S516.3,2244.79,516.3,2228h0c0-16.77,30.71-16.77,30.71-33.54s-30.71-16.77-30.71-33.54S547,2144.16,547,2127.39"/><path class="cls-25" d="M454.16,1139.44a12.32,12.32,0,0,1-22.55-9.94c2.74-6.22,21.44-18.1,21.44-18.1S456.9,1133.21,454.16,1139.44Z"/><path class="cls-25" d="M500.66,1139.44a12.32,12.32,0,0,1-22.54-9.94c2.74-6.22,21.43-18.1,21.43-18.1S503.41,1133.21,500.66,1139.44Z"/><path class="cls-25" d="M515.77,1189a12.32,12.32,0,0,1-22.55-9.93c2.74-6.23,21.44-18.11,21.44-18.11S518.51,1182.77,515.77,1189Z"/><path class="cls-25" d="M470.66,1189a12.32,12.32,0,1,1-22.55-9.93c2.74-6.23,21.44-18.11,21.44-18.11S473.4,1182.77,470.66,1189Z"/><path class="cls-25" d="M547.17,1139.44a12.32,12.32,0,0,1-22.55-9.94c2.75-6.22,21.44-18.1,21.44-18.1S549.91,1133.21,547.17,1139.44Z"/><path class="cls-25" d="M543.18,1084.5a36.73,36.73,0,0,0,0-73.45,37.31,37.31,0,0,0-6.56.6,45.54,45.54,0,0,0-87.44-4.4,25.16,25.16,0,0,0-30.1,28.67,23.92,23.92,0,0,0-2.55-.14,24.36,24.36,0,0,0,0,48.72Z"/><path class="cls-25" d="M449.18,1007.24a25.09,25.09,0,0,1,16.49,12"/><path class="cls-25" d="M510.07,1031.77a36.72,36.72,0,0,1,26.55-20.1"/><line class="cls-16" x1="1413.35" y1="1282.39" x2="1413.35" y2="1392.48"/><polyline class="cls-16" points="1443.5 1362.33 1413.35 1392.47 1383.2 1362.33"/><polyline class="cls-16" points="1400.94 646.04 1370.79 676.19 1340.64 646.04"/><line class="cls-16" x1="1324.87" y1="1282.39" x2="1324.87" y2="1392.48"/><polyline class="cls-16" points="1355.02 1362.33 1324.87 1392.47 1294.72 1362.33"/><circle class="cls-20" cx="1369.11" cy="1086.4" r="172.36"/><path class="cls-25" d="M1337.26,1139.44a12.32,12.32,0,0,1-22.55-9.94c2.75-6.22,21.44-18.1,21.44-18.1S1340,1133.21,1337.26,1139.44Z"/><path class="cls-25" d="M1383.77,1139.44a12.32,12.32,0,0,1-22.55-9.94c2.74-6.22,21.44-18.1,21.44-18.1S1386.51,1133.21,1383.77,1139.44Z"/><path class="cls-25" d="M1398.87,1189a12.32,12.32,0,0,1-22.55-9.93c2.75-6.23,21.44-18.11,21.44-18.11S1401.61,1182.77,1398.87,1189Z"/><path class="cls-25" d="M1353.76,1189a12.32,12.32,0,0,1-22.55-9.93c2.74-6.23,21.44-18.11,21.44-18.11S1356.5,1182.77,1353.76,1189Z"/><path class="cls-25" d="M1430.27,1139.44a12.32,12.32,0,1,1-22.54-9.94c2.74-6.22,21.43-18.1,21.43-18.1S1433,1133.21,1430.27,1139.44Z"/><path class="cls-25" d="M1426.29,1084.5a36.73,36.73,0,0,0,0-73.45,37.33,37.33,0,0,0-6.57.6,45.54,45.54,0,0,0-87.44-4.4,25.16,25.16,0,0,0-30.1,28.67,23.87,23.87,0,0,0-2.54-.14,24.36,24.36,0,0,0,0,48.72Z"/><path class="cls-25" d="M1332.28,1007.24a25.09,25.09,0,0,1,16.49,12"/><path class="cls-25" d="M1393.17,1031.77a36.72,36.72,0,0,1,26.56-20.1"/><circle class="cls-24" cx="1369.11" cy="2211.27" r="172.36"/><path class="cls-18" d="M1384,2204.84c14.44,0,14.44,12.86,28.88,12.86s14.44-12.86,28.88-12.86,14.44,12.86,28.87,12.86,14.44-12.86,28.88-12.86"/><path class="cls-18" d="M1238.72,2175.46c14.44,0,14.44,12.86,28.88,12.86s14.44-12.86,28.88-12.86,14.44,12.86,28.87,12.86,14.44-12.86,28.88-12.86"/><path class="cls-18" d="M1238.72,2204.84c14.44,0,14.44,12.86,28.88,12.86s14.44-12.86,28.88-12.86,14.44,12.86,28.87,12.86,14.44-12.86,28.88-12.86"/><path class="cls-18" d="M1238.72,2234.22c14.44,0,14.44,12.86,28.88,12.86s14.44-12.86,28.88-12.86,14.44,12.86,28.87,12.86,14.44-12.86,28.88-12.86"/><circle class="cls-17" cx="1369.11" cy="1718.58" r="172.36"/><path class="cls-18" d="M1265.69,1747.6c14.44,0,14.44,12.86,28.87,12.86s14.44-12.86,28.88-12.86,14.44,12.86,28.88,12.86,14.44-12.86,28.88-12.86,14.43,12.86,28.87,12.86,14.45-12.86,28.89-12.86,14.45,12.86,28.9,12.86"/><path class="cls-18" d="M1265.69,1777c14.44,0,14.44,12.86,28.87,12.86S1309,1777,1323.44,1777s14.44,12.86,28.88,12.86,14.44-12.86,28.88-12.86,14.43,12.86,28.87,12.86S1424.52,1777,1439,1777s14.45,12.86,28.9,12.86"/><line class="cls-18" x1="1438.96" y1="1747.6" x2="1438.96" y2="1680.89"/><path class="cls-18" d="M1439,1680.89a33.59,33.59,0,0,1,33.58-33.58"/><path class="cls-18" d="M1439,1724.87a33.59,33.59,0,0,1,33.58-33.58"/><path class="cls-18" d="M1439,1697.68a33.58,33.58,0,0,0-33.57-33.58"/><line class="cls-18" x1="1322.76" y1="1747.6" x2="1322.76" y2="1680.89"/><path class="cls-18" d="M1322.76,1680.89a33.58,33.58,0,0,1,33.57-33.58"/><path class="cls-18" d="M1322.76,1724.87a33.58,33.58,0,0,1,33.57-33.58"/><path class="cls-18" d="M1322.76,1697.68a33.59,33.59,0,0,0-33.58-33.58"/><circle class="cls-24" cx="2119.59" cy="2211.27" r="172.36"/><path class="cls-18" d="M2104.23,2295.13c0-16.78,30.71-16.78,30.71-33.55s-30.71-16.77-30.71-33.54,30.71-16.77,30.71-33.54h0c0-16.77-30.71-16.77-30.71-33.55s30.71-16.77,30.71-33.54"/><path class="cls-18" d="M2058.59,2295.13c0-16.78,30.7-16.78,30.7-33.55s-30.7-16.77-30.7-33.54h0c0-16.77,30.7-16.77,30.7-33.54s-30.7-16.77-30.7-33.55,30.7-16.77,30.7-33.54"/><path class="cls-18" d="M2149.88,2295.13c0-16.78,30.7-16.78,30.7-33.55s-30.7-16.77-30.7-33.54h0c0-16.77,30.7-16.77,30.7-33.54s-30.7-16.77-30.7-33.55,30.7-16.77,30.7-33.54"/><text class="cls-26" transform="translate(1705.02 2919.43)">Agua su<tspan class="cls-27" x="184.71" y="0">b</tspan><tspan class="cls-28" x="216.7" y="0">t</tspan><tspan x="236.78" y="0">er</tspan><tspan class="cls-29" x="286.16" y="0">r</tspan><tspan class="cls-30" x="304.76" y="0">ánea</tspan></text><text class="cls-26" transform="translate(2406.97 2684.06)"><tspan class="cls-31">R</tspan><tspan x="30.46" y="0">eca</tspan><tspan class="cls-27" x="118.36" y="0">rg</tspan><tspan x="164.42" y="0">a</tspan><tspan x="-110.85" y="63.24">agua su</tspan><tspan class="cls-27" x="67.11" y="63.24">b</tspan><tspan class="cls-32" x="99.1" y="63.24">t</tspan><tspan x="119.18" y="63.24">er</tspan><tspan class="cls-33" x="168.56" y="63.24">r</tspan><tspan x="187.16" y="63.24">ánea</tspan></text><text class="cls-26" transform="translate(3487.02 547.1)">P<tspan class="cls-28" x="31.72" y="0">r</tspan><tspan x="50.59" y="0">ecipitación</tspan><tspan x="-4.98" y="63.24">sob</tspan><tspan class="cls-32" x="85.82" y="63.24">r</tspan><tspan x="104.69" y="63.24">e la tier</tspan><tspan class="cls-29" x="279.54" y="63.24">r</tspan><tspan x="298.14" y="63.24">a</tspan></text><text class="cls-26" transform="translate(3329.92 2071.94)">Deshie<tspan class="cls-33" x="164.58" y="0">l</tspan><tspan class="cls-30" x="179.33" y="0">o</tspan></text><text class="cls-26" transform="translate(2754.05 1993.13)">Embalses</text><text class="cls-26" transform="translate(2599.22 1499.31)">Humeda<tspan class="cls-33" x="203" y="0">l</tspan><tspan x="217.75" y="0">es agua du</tspan><tspan class="cls-33" x="468.02" y="0">l</tspan><tspan x="482.77" y="0">ce</tspan></text><text class="cls-26" transform="translate(2665.44 1020.64)">La<tspan class="cls-27" x="55.81" y="0">g</tspan><tspan class="cls-30" x="83.53" y="0">os agua du</tspan><tspan class="cls-33" x="335.59" y="0">l</tspan><tspan x="350.34" y="0">ce</tspan></text><text class="cls-26" transform="translate(1862.83 364.02)">Consumo<tspan x="29.27" y="63.24">urbano</tspan></text><text class="cls-26" transform="translate(3579.8 1260.99)">Ni<tspan class="cls-33" x="50.43" y="0">ev</tspan><tspan x="105.82" y="0">e</tspan></text><text class="cls-34" transform="translate(3462.66 2579.43)"><tspan class="cls-35">M</tspan><tspan x="67.58" y="0">ON</tspan><tspan class="cls-36" x="177.14" y="0">T</tspan><tspan x="214.4" y="0">AÑA</tspan></text><text class="cls-26" transform="translate(2285.61 364.02)">Consumo<tspan x="1.9" y="63.24">indu</tspan><tspan class="cls-33" x="106.24" y="63.24">s</tspan><tspan x="131.43" y="63.24">trial</tspan></text><text class="cls-26" transform="translate(2708.38 364.02)">Consumo<tspan x="17.73" y="63.24">agrícola</tspan></text><text class="cls-26" transform="translate(325.33 784.54)">P<tspan class="cls-28" x="31.72" y="0">r</tspan><tspan x="50.59" y="0">ecipitación</tspan><tspan x="-31.88" y="63.24">sob</tspan><tspan class="cls-32" x="58.92" y="63.24">r</tspan><tspan x="77.79" y="63.24">e el océano</tspan></text><text class="cls-26" transform="translate(336.93 1940.79)"><tspan class="cls-27">E</tspan><tspan class="cls-33" x="28.14" y="0">v</tspan><tspan x="54.33" y="0">apo</tspan><tspan class="cls-29" x="147.35" y="0">r</tspan><tspan class="cls-30" x="165.95" y="0">ación</tspan><tspan x="39.02" y="63.24">oceánica</tspan></text><text class="cls-34" transform="translate(331.19 2579.43)">OCÉANO</text><text class="cls-26" transform="translate(1231.96 1993.13)"><tspan class="cls-27">E</tspan><tspan x="28.14" y="0">scor</tspan><tspan class="cls-28" x="135.02" y="0">r</tspan><tspan x="153.88" y="0">e</tspan><tspan class="cls-37" x="183.87" y="0">n</tspan><tspan x="212.9" y="0">tía</tspan></text><text class="cls-26" transform="translate(1091.23 1499.31)">Humea<tspan class="cls-33" x="169.95" y="0">l</tspan><tspan x="184.71" y="0">es agua sa</tspan><tspan class="cls-33" x="427.33" y="0">l</tspan><tspan x="442.09" y="0">ob</tspan><tspan class="cls-28" x="506.91" y="0">r</tspan><tspan x="525.78" y="0">e</tspan></text><text class="cls-26" transform="translate(1208.43 784.54)">P<tspan class="cls-28" x="31.72" y="0">r</tspan><tspan x="50.59" y="0">ecipitación</tspan><tspan x="-4.98" y="63.24">sob</tspan><tspan class="cls-32" x="85.82" y="63.24">r</tspan><tspan x="104.69" y="63.24">e la tier</tspan><tspan class="cls-29" x="279.54" y="63.24">r</tspan><tspan x="298.14" y="63.24">a</tspan></text><text class="cls-26" transform="translate(1886.55 1993.13)"><tspan class="cls-27">E</tspan><tspan class="cls-33" x="28.14" y="0">v</tspan><tspan x="54.33" y="0">ap</tspan><tspan class="cls-27" x="115.57" y="0">o</tspan><tspan x="146.29" y="0">t</tspan><tspan class="cls-29" x="166.9" y="0">r</tspan><tspan class="cls-30" x="185.5" y="0">anspi</tspan><tspan class="cls-33" x="315.25" y="0">r</tspan><tspan x="333.85" y="0">ación</tspan></text></svg>