<svg id="Capa_1" data-name="Capa 1" xmlns="http://www.w3.org/2000/svg" viewBox="0 0 3675.41 765.09"><defs><style>.cls-1{font-size:50px;font-family:Fabriga;}.cls-1,.cls-16{fill:#1d1d1b;}.cls-2{letter-spacing:0.01em;}.cls-3{letter-spacing:0.01em;}.cls-4{letter-spacing:-0.01em;}.cls-5{letter-spacing:-0.01em;}.cls-6{letter-spacing:-0.01em;}.cls-7{letter-spacing:0em;}.cls-8{letter-spacing:0em;}.cls-9{letter-spacing:-0.01em;}.cls-10{letter-spacing:-0.02em;}.cls-11{letter-spacing:-0.02em;}.cls-12{letter-spacing:-0.01em;}.cls-13{letter-spacing:-0.01em;}.cls-14{letter-spacing:-0.01em;}.cls-15{letter-spacing:0em;}.cls-16{font-size:90.45px;font-family:Fabriga-Bold, Fabriga;font-weight:700;letter-spacing:0.01em;}.cls-17{letter-spacing:-0.01em;}.cls-18{letter-spacing:-0.01em;}.cls-19{letter-spacing:0.01em;}.cls-20{letter-spacing:-0.01em;}.cls-21{letter-spacing:-0.01em;}.cls-22{letter-spacing:-0.07em;}.cls-23{letter-spacing:-0.01em;}.cls-24{letter-spacing:0.01em;}</style></defs><text class="cls-1" transform="translate(194.62 318.19) scale(0.99 1)"><tspan class="cls-2">En la </tspan><tspan x="118.2" y="0">z</tspan><tspan class="cls-3" x="142.6" y="0">ona ce</tspan><tspan class="cls-4" x="296.35" y="0">n</tspan><tspan class="cls-3" x="324.4" y="0">t</tspan><tspan class="cls-5" x="344.45" y="0">r</tspan><tspan class="cls-3" x="362.59" y="0">al de Chi</tspan><tspan class="cls-5" x="560.99" y="0">l</tspan><tspan class="cls-6" x="575.49" y="0">e</tspan><tspan class="cls-3" x="603.44" y="0">, el agua se puede enco</tspan><tspan class="cls-4" x="1140.73" y="0">n</tspan><tspan class="cls-2" x="1168.78" y="0">t</tspan><tspan class="cls-7" x="1188.83" y="0">r</tspan><tspan class="cls-2" x="1206.98" y="0">ar en e</tspan><tspan class="cls-7" x="1358.53" y="0">s</tspan><tspan class="cls-2" x="1382.93" y="0">tado </tspan><tspan class="cls-2"><tspan x="0" y="70">sólido (ej. glacia</tspan><tspan class="cls-8" x="376.45" y="70">r</tspan><tspan x="394.85" y="70">es), liquido (ej. río</tspan><tspan class="cls-9" x="805.99" y="70">s</tspan><tspan class="cls-3" x="830.14" y="70">, acuí</tspan><tspan class="cls-10" x="951.44" y="70">f</tspan><tspan x="970.24" y="70">e</tspan><tspan class="cls-8" x="999.19" y="70">r</tspan><tspan x="1017.59" y="70">os y mar) o como un </tspan><tspan class="cls-6" x="1480.49" y="70">g</tspan><tspan class="cls-3" x="1507.29" y="70">as </tspan></tspan><tspan class="cls-2" x="0" y="140">(ej. humedad </tspan><tspan class="cls-4" x="311.45" y="140">a</tspan><tspan class="cls-3" x="337.84" y="140">tmo</tspan><tspan class="cls-5" x="431.64" y="140">s</tspan><tspan class="cls-11" x="456.04" y="140">f</tspan><tspan class="cls-2" x="474.84" y="140">érica), cambiando con</tspan><tspan class="cls-7" x="991.64" y="140">s</tspan><tspan class="cls-2" x="1016.04" y="140">ta</tspan><tspan class="cls-12" x="1063.34" y="140">n</tspan><tspan x="1091.39" y="140">t</tspan><tspan class="cls-3" x="1110.94" y="140">eme</tspan><tspan class="cls-4" x="1211.94" y="140">n</tspan><tspan class="cls-8" x="1239.98" y="140">t</tspan><tspan class="cls-2" x="1259.54" y="140">e e</tspan><tspan class="cls-13" x="1326.73" y="140">n</tspan><tspan class="cls-3" x="1354.78" y="140">t</tspan><tspan x="1374.83" y="140">r</tspan><tspan class="cls-3" x="1393.23" y="140">e e</tspan><tspan class="cls-5" x="1460.43" y="140">s</tspan><tspan class="cls-8" x="1484.83" y="140">t</tspan><tspan class="cls-2" x="1504.38" y="140">os </tspan><tspan class="cls-2" x="0" y="210">t</tspan><tspan class="cls-8" x="20.05" y="210">r</tspan><tspan class="cls-2" x="38.45" y="210">es e</tspan><tspan class="cls-5" x="130.8" y="210">s</tspan><tspan class="cls-3" x="155.2" y="210">tado</tspan><tspan class="cls-9" x="265" y="210">s</tspan><tspan class="cls-3" x="289.15" y="210">. </tspan><tspan class="cls-14" x="314.25" y="210">P</tspan><tspan class="cls-2" x="343.85" y="210">asando de e</tspan><tspan class="cls-5" x="623.25" y="210">s</tspan><tspan class="cls-3" x="647.65" y="210">tado sólid</tspan><tspan class="cls-6" x="882.1" y="210">o</tspan><tspan class="cls-3" x="911.75" y="210">, almacenada en glacia</tspan><tspan x="1437.74" y="210">r</tspan><tspan class="cls-2" x="1456.14" y="210">es </tspan><tspan class="cls-2" x="0" y="280">ubicados en la Co</tspan><tspan x="409.75" y="280">r</tspan><tspan class="cls-3" x="428.15" y="280">di</tspan><tspan x="472.45" y="280">l</tspan><tspan class="cls-7" x="487.2" y="280">l</tspan><tspan class="cls-2" x="501.7" y="280">e</tspan><tspan class="cls-5" x="530.65" y="280">r</tspan><tspan class="cls-2" x="548.79" y="280">a de </tspan><tspan class="cls-7" x="655.44" y="280">l</tspan><tspan class="cls-2" x="669.94" y="280">os Ande</tspan><tspan class="cls-6" x="858.39" y="280">s</tspan><tspan class="cls-3" x="882.54" y="280">, a e</tspan><tspan class="cls-7" x="973.14" y="280">s</tspan><tspan class="cls-2" x="997.54" y="280">tado líquido cuando el </tspan><tspan class="cls-2"><tspan x="0" y="350">glaciar se derri</tspan><tspan class="cls-8" x="341.34" y="350">t</tspan><tspan class="cls-9" x="360.89" y="350">e</tspan><tspan class="cls-3" x="388.84" y="350">, </tspan><tspan class="cls-11" x="413.94" y="350">f</tspan><tspan class="cls-3" x="432.74" y="350">ormando río</tspan><tspan class="cls-14" x="715.34" y="350">s</tspan><tspan x="739.49" y="350">, </tspan><tspan class="cls-5" x="764.59" y="350">l</tspan><tspan class="cls-3" x="779.09" y="350">os cua</tspan><tspan class="cls-5" x="927.94" y="350">l</tspan><tspan class="cls-3" x="942.44" y="350">es pueden </tspan><tspan class="cls-15" x="1193.44" y="350">l</tspan><tspan class="cls-7" x="1208.19" y="350">le</tspan><tspan class="cls-14" x="1250.89" y="350">g</tspan><tspan x="1277.69" y="350">ar ha</tspan><tspan class="cls-5" x="1389.28" y="350">s</tspan><tspan class="cls-3" x="1413.68" y="350">ta el </tspan></tspan></text><text class="cls-16" transform="translate(189.16 158.36) scale(1.01 1)">CIC<tspan class="cls-17" x="157.38" y="0">L</tspan><tspan x="204.5" y="0">O DEL </tspan><tspan class="cls-18" x="473.31" y="0">A</tspan><tspan class="cls-19" x="534.72" y="0">G</tspan><tspan class="cls-20" x="602.47" y="0">U</tspan><tspan class="cls-19" x="663.52" y="0">A EN LA R</tspan><tspan class="cls-21" x="1068.27" y="0">E</tspan><tspan x="1119.01" y="0">GIÓN</tspan></text><text class="cls-1" transform="translate(1882.34 317.07) scale(0.99 1)"><tspan class="cls-2">ma</tspan><tspan class="cls-22" x="70.35" y="0">r</tspan><tspan class="cls-3" x="85.25" y="0">. En e</tspan><tspan class="cls-7" x="205.7" y="0">s</tspan><tspan x="230.1" y="0">t</tspan><tspan class="cls-2" x="249.65" y="0">e </tspan><tspan x="287.9" y="0">r</tspan><tspan class="cls-3" x="306.3" y="0">ecorrido se </tspan><tspan class="cls-23" x="580.04" y="0">ev</tspan><tspan class="cls-2" x="633.59" y="0">apo</tspan><tspan class="cls-5" x="723.34" y="0">r</tspan><tspan class="cls-3" x="741.49" y="0">a un po</tspan><tspan x="906.54" y="0">r</tspan><tspan class="cls-3" x="924.94" y="0">ce</tspan><tspan class="cls-4" x="982.59" y="0">n</tspan><tspan class="cls-3" x="1010.64" y="0">taje de agua, así como </tspan><tspan class="cls-2" x="0" y="70">se </tspan><tspan class="cls-7" x="63.4" y="70">ev</tspan><tspan class="cls-3" x="116.95" y="70">apo</tspan><tspan class="cls-5" x="206.7" y="70">r</tspan><tspan class="cls-3" x="224.85" y="70">a una par</tspan><tspan x="432.64" y="70">t</tspan><tspan class="cls-2" x="452.19" y="70">e del océan</tspan><tspan class="cls-6" x="720.24" y="70">o</tspan><tspan class="cls-2" x="749.89" y="70">, t</tspan><tspan class="cls-7" x="795.04" y="70">r</tspan><tspan class="cls-2" x="813.19" y="70">an</tspan><tspan class="cls-5" x="869.34" y="70">s</tspan><tspan class="cls-10" x="893.74" y="70">f</tspan><tspan class="cls-24" x="912.54" y="70">ormándose del e</tspan><tspan class="cls-7" x="1301.53" y="70">s</tspan><tspan class="cls-2" x="1325.93" y="70">tado </tspan><tspan class="cls-2" x="0" y="140">líquido al </tspan><tspan class="cls-6" x="223.4" y="140">g</tspan><tspan class="cls-3" x="250.2" y="140">aseoso (humedad </tspan><tspan class="cls-13" x="672.2" y="140">a</tspan><tspan class="cls-3" x="698.59" y="140">tmo</tspan><tspan class="cls-7" x="792.39" y="140">s</tspan><tspan class="cls-11" x="816.79" y="140">f</tspan><tspan class="cls-3" x="835.59" y="140">érica), pudiendo </tspan><tspan x="1226.44" y="140">r</tspan><tspan class="cls-3" x="1244.84" y="140">esu</tspan><tspan class="cls-6" x="1326.74" y="140">l</tspan><tspan class="cls-3" x="1340.99" y="140">tar en </tspan><tspan class="cls-2" x="0" y="210">p</tspan><tspan class="cls-8" x="31.85" y="210">r</tspan><tspan class="cls-2" x="50.25" y="210">ecipitaciones liquidas o solida</tspan><tspan class="cls-9" x="751.94" y="210">s</tspan><tspan class="cls-3" x="776.09" y="210">. El agua e</tspan><tspan class="cls-7" x="1002.29" y="210">s</tspan><tspan class="cls-2" x="1026.69" y="210">tá en con</tspan><tspan class="cls-5" x="1238.69" y="210">s</tspan><tspan class="cls-3" x="1263.09" y="210">ta</tspan><tspan class="cls-12" x="1310.39" y="210">n</tspan><tspan x="1338.44" y="210">t</tspan><tspan class="cls-3" x="1357.99" y="210">e </tspan><tspan class="cls-2" x="0" y="280">m</tspan><tspan class="cls-7" x="43.1" y="280">o</tspan><tspan class="cls-2" x="73" y="280">vimie</tspan><tspan class="cls-12" x="196.05" y="280">n</tspan><tspan x="224.1" y="280">t</tspan><tspan class="cls-3" x="243.65" y="280">o y se mu</tspan><tspan class="cls-5" x="452.9" y="280">ev</tspan><tspan class="cls-2" x="506.44" y="280">e a g</tspan><tspan class="cls-7" x="609.04" y="280">r</tspan><tspan class="cls-2" x="627.19" y="280">an escala, así como a pequeña escala.</tspan></text></svg>