<?xml version="1.0" encoding="utf-8"?>
<!-- Generator: Adobe Illustrator 25.2.0, SVG Export Plug-In . SVG Version: 6.00 Build 0)  -->
<!DOCTYPE svg PUBLIC "-//W3C//DTD SVG 1.1//EN" "http://www.w3.org/Graphics/SVG/1.1/DTD/svg11.dtd" [
	<!ENTITY st0 "fill:#FFFFFF;">
	<!ENTITY st1 "fill:#124E8B;">
	<!ENTITY st2 "fill:#3D80C2;">
	<!ENTITY st3 "fill:#3DBFEF;">
	<!ENTITY st4 "fill:#B5DEE8;">
	<!ENTITY st5 "fill:#F4F9FB;">
	<!ENTITY st6 "fill:#FBF4EB;">
	<!ENTITY st7 "fill:#F8C1A3;">
	<!ENTITY st8 "fill:#EB645A;">
	<!ENTITY st9 "fill:#E73C3C;">
	<!ENTITY st10 "fill:#E63230;">
	<!ENTITY st11 "fill:#D12626;">
	<!ENTITY st12 "fill:#8F2713;">
	<!ENTITY st13 "fill:#8A1A1A;">
	<!ENTITY st14 "fill:none;stroke:#1D1D1B;stroke-width:2.1996;stroke-miterlimit:10;">
	<!ENTITY st15 "fill:none;stroke:#1D1D1B;stroke-width:4.3992;stroke-miterlimit:10;">
	<!ENTITY st16 "fill:none;stroke:#1D1D1B;stroke-width:4.469;stroke-miterlimit:10;">
	<!ENTITY st17 "fill:none;">
	<!ENTITY st18 "fill:#1D1D1B;">
	<!ENTITY st19 "font-family:'Fabriga-Bold';">
	<!ENTITY st20 "font-size:42.2676px;">
	<!ENTITY st21 "font-family:'Fabriga';">
	<!ENTITY st22 "font-size:41.343px;">
	<!ENTITY st23 "font-size:33.8141px;">
]>
<svg version="1.1" id="Layer_1" xmlns="http://www.w3.org/2000/svg" xmlns:xlink="http://www.w3.org/1999/xlink" x="0px" y="0px"
	 viewBox="0 0 1442.3 1442.3" style="enable-background:new 0 0 1442.3 1442.3;" xml:space="preserve">
<circle style="&st0;" cx="721.2" cy="721.2" r="703.1"/>
<g>
	<g>
		<g>
			<g>
				<g>
					
						<rect x="260.6" y="429.3" transform="matrix(1.429647e-03 -1 1 1.429647e-03 -157.8639 764.6837)" style="&st1;" width="86.8" height="64.2"/>
					
						<rect x="324.7" y="429.5" transform="matrix(1.429647e-03 -1 1 1.429647e-03 -93.9393 829.0297)" style="&st2;" width="86.8" height="64.2"/>
					
						<rect x="388.9" y="429.5" transform="matrix(1.429647e-03 -1 1 1.429647e-03 -29.9145 893.2759)" style="&st3;" width="86.8" height="64.2"/>
					
						<rect x="453.1" y="429.6" transform="matrix(1.429647e-03 -1 1 1.429647e-03 34.1104 957.5221)" style="&st4;" width="86.8" height="64.2"/>
					
						<rect x="517.3" y="429.6" transform="matrix(1.429647e-03 -1 1 1.429647e-03 98.1354 1021.7684)" style="&st5;" width="86.8" height="64.2"/>
					
						<rect x="581.5" y="429.8" transform="matrix(1.429647e-03 -1 1 1.429647e-03 162.06 1086.1144)" style="&st0;" width="86.8" height="64.2"/>
					
						<rect x="645.6" y="429.9" transform="matrix(1.429647e-03 -1 1 1.429647e-03 226.0848 1150.3606)" style="&st6;" width="86.8" height="64.2"/>
					
						<rect x="709.8" y="429.9" transform="matrix(1.429647e-03 -1 1 1.429647e-03 290.1096 1214.6068)" style="&st7;" width="86.8" height="64.2"/>
					
						<rect x="774" y="430.1" transform="matrix(1.429647e-03 -1 1 1.429647e-03 354.0343 1278.9528)" style="&st8;" width="86.8" height="64.2"/>
					
						<rect x="838.2" y="430.2" transform="matrix(1.429647e-03 -1 1 1.429647e-03 418.0591 1343.1991)" style="&st9;" width="86.8" height="64.2"/>
					
						<rect x="902.3" y="430.2" transform="matrix(1.429647e-03 -1 1 1.429647e-03 481.9843 1407.3451)" style="&st10;" width="86.8" height="64.2"/>
					
						<rect x="966.5" y="430.3" transform="matrix(1.429647e-03 -1 1 1.429647e-03 546.0093 1471.5913)" style="&st11;" width="86.8" height="64.2"/>
					
						<rect x="1030.6" y="430.5" transform="matrix(1.429647e-03 -1 1 1.429647e-03 609.9338 1535.9374)" style="&st12;" width="86.8" height="64.2"/>
					
						<rect x="1094.8" y="430.5" transform="matrix(1.429647e-03 -1 1 1.429647e-03 673.9588 1600.1835)" style="&st13;" width="86.8" height="64.2"/>
				</g>
			</g>
		</g>
	</g>
	<g>
		<line style="&st14;" x1="331.4" y1="417.8" x2="331.4" y2="397.3"/>
		<line style="&st14;" x1="451.3" y1="417.9" x2="451.4" y2="397.5"/>
		<line style="&st15;" x1="571.3" y1="418.1" x2="571.3" y2="397.6"/>
		<line style="&st14;" x1="691.2" y1="418.3" x2="691.2" y2="397.8"/>
		<line style="&st14;" x1="811.1" y1="418.4" x2="811.2" y2="398"/>
		<line style="&st14;" x1="931.1" y1="418.6" x2="931.1" y2="398.2"/>
		<line style="&st14;" x1="1051.2" y1="418.8" x2="1051.2" y2="398.3"/>
		<line style="&st14;" x1="1171.1" y1="419" x2="1171.2" y2="398.5"/>
	</g>
</g>
<line style="&st16;" x1="257.6" y1="417.9" x2="1184.7" y2="419.3"/>
<rect x="674.1" y="770.6" transform="matrix(1.429647e-03 -1 1 1.429647e-03 -411.5797 1850.3839)" style="&st17;" width="93.2" height="721.3"/>
<text transform="matrix(1 1.429648e-03 -1.429648e-03 1 450.4566 1113.8038)" style="&st18; &st19; &st20;">¿Qué tan caluroso o frío fue </text>
<text transform="matrix(1 1.429648e-03 -1.429648e-03 1 526.0726 1172.712)" style="&st18; &st19; &st20;">el año en que naciste?</text>
<rect x="518.8" y="288.7" transform="matrix(1.429647e-03 -1 1 1.429647e-03 -98.4463 1533.3501)" style="&st17;" width="399.5" height="1054.5"/>
<text transform="matrix(1 1.429648e-03 -1.429648e-03 1 215.9153 644.4845)" style="&st18; &st21; &st22;">Una &quot;anomalía&quot; de temperatura nos indica una desvia</text>
<text transform="matrix(1 1.429648e-03 -1.429648e-03 1 1205.5153 645.8993)" style="&st18; &st21; &st22;">-</text>
<text transform="matrix(1 1.429648e-03 -1.429648e-03 1 233.0351 700.6091)" style="&st18; &st21; &st22;">ción sobre un periodo de referencia significativo (30 </text>
<text transform="matrix(1 1.429648e-03 -1.429648e-03 1 197.6549 756.6586)" style="&st18; &st21; &st22;">años) . En este caso el periodo de referencia es la media </text>
<text transform="matrix(1 1.429648e-03 -1.429648e-03 1 219.0747 812.7894)" style="&st18; &st21; &st22;">de temperaturas entre 1961 y 1990. Lo que quiere decir </text>
<text transform="matrix(1 1.429648e-03 -1.429648e-03 1 198.4945 868.86)" style="&st18; &st21; &st22;">que un valor de +1.0, implica que la temperatura prome</text>
<text transform="matrix(1 1.429648e-03 -1.429648e-03 1 1222.2944 870.3237)" style="&st18; &st21; &st22;">-</text>
<text transform="matrix(1 1.429648e-03 -1.429648e-03 1 215.3143 924.9842)" style="&st18; &st21; &st22;">dio anual de un sitio (enero a diciembre) estaría +1.0ºC </text>
<text transform="matrix(1 1.429648e-03 -1.429648e-03 1 445.0339 981.5128)" style="&st18; &st21; &st22;">sobre la media de referencia.</text>
<g>
	<g>
		<text transform="matrix(1 0 0 1 569.7836 313.7216)" style="&st18; &st19; &st23;">Grados Celsius (°C)</text>
	</g>
</g>
</svg>
