<?xml version="1.0" encoding="utf-8"?>
<!-- Generator: Adobe Illustrator 25.2.0, SVG Export Plug-In . SVG Version: 6.00 Build 0)  -->
<svg version="1.1" id="Layer_1" focusable="false" xmlns="http://www.w3.org/2000/svg" xmlns:xlink="http://www.w3.org/1999/xlink"
	 x="0px" y="0px" viewBox="0 0 512 512" style="enable-background:new 0 0 512 512;" xml:space="preserve">
<style type="text/css">
	.st0{fill:#FFFFFF;}
</style>
<path class="st0" d="M478,504H34c-14.4,0-26-11.7-26-26V34C8,19.5,19.7,8,34,8h444c14.4,0,26,11.7,26,26v444
	C504.1,492.4,492.4,504,478,504z M60,451.9h392v-392H60V451.9z M256,364.7c-60,0-108.7-48.8-108.7-108.7S196,147.2,256,147.2
	S364.7,196,364.7,255.9S316,364.7,256,364.7z M256,199.3c-31.2,0-56.6,25.4-56.6,56.6s25.4,56.6,56.6,56.6s56.6-25.4,56.6-56.6
	S287.2,199.3,256,199.3z M389.9,95.9c-14.4,0-26.1,11.7-26.1,26.1s11.7,26.1,26.1,26.1s26.1-11.7,26.1-26.1
	C416,107.6,404.3,95.9,389.9,95.9z"/>
</svg>
