<?xml version="1.0" encoding="utf-8"?>
<!-- Generator: Adobe Illustrator 25.2.0, SVG Export Plug-In . SVG Version: 6.00 Build 0)  -->
<svg version="1.1" id="Layer_1" xmlns="http://www.w3.org/2000/svg" xmlns:xlink="http://www.w3.org/1999/xlink" x="0px" y="0px"
	 viewBox="0 0 232.8 120.5" style="enable-background:new 0 0 232.8 120.5;" xml:space="preserve">
<g>
	<g>
		<path style="fill:#FFFFFF;" d="M13.1,11.2C15.8,9.7,18.7,9,22.2,9v3.7c-3,0-4.9,0.5-7.4,1.7L13.1,11.2z M14.5,25.5V27h17.9v-1.5
			H21.1l6.2-4.5c2-1.5,4-3.1,4-5.7c0-3.8-3.6-6.4-9-6.3v3.7c2.3,0,4.7,0.8,4.7,2.6c0,0.8-0.6,1.5-1.4,2.1L14.5,25.5z"/>
		<path style="fill:#FFFFFF;" d="M72.4,9.5c5.8,0,10.3,3.4,10.3,8.7S78.2,27,72.4,27h-9.1V9.5H72.4z M72.4,23.2c3.4,0,5.9-1.9,5.9-5
			s-2.5-5-5.9-5h-4.8v10H72.4z"/>
		<path style="fill:#FFFFFF;" d="M103.9,9.5v3.7H90.8v4.7H103v1.6H90.8v5.9h13.1V27H86.5V9.5H103.9z"/>
		<path style="fill:#FFFFFF;" d="M121.4,9.5h3.8l10.1,16.2l-3.8,1.8l-3.4-5.5h-9.6l-3.4,5.5l-3.8-1.8L121.4,9.5z M127.2,20.6
			l-3.9-6.3l-3.9,6.3H127.2z"/>
		<path style="fill:#FFFFFF;" d="M149.7,9.5c4.5,0,7,2.6,7,5.4c0,1.1-0.2,2.1-1.3,3.1c1.1,1.1,1.3,2.3,1.3,3.4c0,3-2.4,5.6-7,5.6
			h-11.6V9.5H149.7z M150,17.2c1.6,0,2.3-0.6,2.3-1.9c0-1.2-1-2-2.6-2h-7.2v3.9H150z M149.7,23.2c1.7,0,2.6-0.8,2.6-2.3
			c0-1.3-0.7-2.2-2.3-2.2h-7.5v4.5H149.7z"/>
		<path style="fill:#FFFFFF;" d="M179,16.8c0,3-2.1,5.2-4.6,6.3l5.2,3.1l-0.9,1.4L165,19.4V27h-4.4V9.5h9.9
			C175.4,9.5,179,12.4,179,16.8z M168.2,19.4c0.7,0.4,1.5,0.9,2.4,0.9c2.3,0,4-1.5,4-3.6c0-2-1.7-3.5-4-3.5h-5.5v4.3L168.2,19.4z"/>
		<path style="fill:#FFFFFF;" d="M187.5,9.5V27h-4.4V9.5H187.5z"/>
		<path style="fill:#FFFFFF;" d="M196.8,9.5v15.9h13.6V27h-18V9.5H196.8z"/>
	</g>
	<g>
		<path style="fill:#FFFFFF;" d="M13.7,56.6c0-2.9,3.5-4.3,7.7-4.3c1.7,0,3.5,0.2,5.2,0.6c-0.3-1.9-2-3.1-5.1-3.1
			c-2.5,0-4.1,0.7-5.6,1.7l-2.1-3c1.9-1.3,4.5-2.4,7.7-2.4c5.7,0,9.5,3,9.5,7.6V61h-1.7v-3.4c-1.7,2.3-4.8,3.7-8.3,3.7
			C15.7,61.3,13.7,58.8,13.7,56.6z M21,57.5c3.2,0,5.4-1.3,5.6-3.4c-1.4-0.4-3-0.6-4.5-0.6c-2.4,0-4.4,0.6-4.4,2
			C17.8,56.7,19,57.5,21,57.5z"/>
		<path style="fill:#FFFFFF;" d="M39.4,42v19H35V42H39.4z"/>
		<path style="fill:#FFFFFF;" d="M48.5,45.2c2.7-1.5,5.6-2.2,9.1-2.2v3.7c-3,0-4.9,0.5-7.4,1.7L48.5,45.2z M49.9,59.5V61h17.9v-1.5
			H56.5l6.2-4.5c2-1.5,4-3.1,4-5.7c0-3.8-3.6-6.4-9-6.3v3.7c2.3,0,4.7,0.8,4.7,2.6c0,0.8-0.6,1.5-1.4,2.1L49.9,59.5z"/>
		<path style="fill:#FFFFFF;" d="M88.7,55.3c0,3.5-3.6,6-9.2,6s-9.2-2.5-9.2-6c0-1.6,0.8-3,2.3-3.8c-1.5-0.8-1.9-2.1-1.9-3.2
			c0-2.9,3.6-5.3,8.7-5.3s8.7,2.3,8.7,5.3c0,1.1-0.3,2.4-1.9,3.2C87.9,52.3,88.7,53.6,88.7,55.3z M79.5,57.5c2.7,0,4.8-0.9,4.8-2.6
			c0-1.7-1.9-2.6-4.8-2.6s-4.8,0.9-4.8,2.6S76.8,57.5,79.5,57.5z M79.5,51c2.6,0,4.4-0.8,4.4-2.2c0-1.3-1.8-2-4.4-2s-4.4,0.8-4.4,2
			C75.1,50.2,76.9,51,79.5,51z"/>
		<path style="fill:#FFFFFF;" d="M52.7,21.3c0,3.5-3.6,6-9.2,6s-9.2-2.5-9.2-6c0-1.6,0.8-3,2.3-3.8c-1.5-0.8-1.9-2.1-1.9-3.2
			c0-2.9,3.6-5.3,8.7-5.3s8.7,2.3,8.7,5.3c0,1.1-0.3,2.4-1.9,3.2C51.9,18.3,52.7,19.6,52.7,21.3z M43.5,23.5c2.7,0,4.8-0.9,4.8-2.6
			c0-1.7-1.9-2.6-4.8-2.6s-4.8,0.9-4.8,2.6S40.8,23.5,43.5,23.5z M43.5,17c2.6,0,4.4-0.8,4.4-2.2c0-1.3-1.8-2-4.4-2s-4.4,0.8-4.4,2
			C39.1,16.2,40.9,17,43.5,17z"/>
		<path style="fill:#FFFFFF;" d="M107.4,43.5c5.8,0,10.3,3.4,10.3,8.7s-4.5,8.7-10.3,8.7h-9.1V43.5H107.4z M107.4,57.2
			c3.4,0,5.9-1.9,5.9-5s-2.5-5-5.9-5h-4.8v10H107.4z"/>
		<path style="fill:#FFFFFF;" d="M138.9,43.5v3.7h-13.1v4.7H138v1.6h-12.2v5.9h13.1V61h-17.4V43.5H138.9z"/>
		<path style="fill:#FFFFFF;" d="M149.3,56.4h4.4c0,4.9-2.2,7.6-5.2,9.4l-2.8-3.1C147.9,61.3,149.3,59.8,149.3,56.4z M149.3,56.4
			h4.4V43.5h-4.4V56.4z"/>
		<path style="fill:#FFFFFF;" d="M167.9,61.3c-5.1,0-9.6-3.4-9.6-8.8v-8.9h4.4v8.9c0,3.2,2.5,5.1,5.2,5.1s5.2-1.9,5.2-5.1v-8.9h4.4
			v8.9C177.5,57.9,173,61.3,167.9,61.3z"/>
		<path style="fill:#FFFFFF;" d="M186.2,43.5v15.9h13.6V61h-18V43.5H186.2z"/>
		<path style="fill:#FFFFFF;" d="M206.3,43.5V61h-4.4V43.5H206.3z"/>
		<path style="fill:#FFFFFF;" d="M220.8,43c5.8,0,10.5,3.7,10.5,9.2s-4.6,9.2-10.5,9.2s-10.5-3.7-10.5-9.2
			C210.4,46.7,215,43,220.8,43z M220.8,57.6c3.5,0,6.1-2.2,6.1-5.5s-2.6-5.5-6.1-5.5s-6.1,2.2-6.1,5.5S217.3,57.6,220.8,57.6z"/>
	</g>
	<g>
		<path style="fill:#FFFFFF;" d="M21.4,86.9v0.9h-7.5V75.1h7.4V76H15v4.8h5.8v0.9H15v5.1L21.4,86.9L21.4,86.9z"/>
		<path style="fill:#FFFFFF;" d="M27.4,83.3l3.4,4.5l-1.1,0.1l-2.9-4l-2.9,4l-1.1-0.1l3.4-4.5l-3.4-4.6l1.1-0.1l2.9,4.1l2.9-4.1
			l1.1,0.1L27.4,83.3z"/>
		<path style="fill:#FFFFFF;" d="M41.8,83.3c0,3-1.8,4.7-4.3,4.7c-1.8,0-3-0.9-3.6-2v5l-1.1,0.1V78.8l0.9-0.1l0.1,2.1
			c0.6-1.2,1.8-2.1,3.6-2.1C40,78.6,41.8,80.3,41.8,83.3z M40.7,83.3c0-2.5-1.3-3.8-3.4-3.8c-2.2,0-3.5,1.7-3.5,3.7v0.3
			c0,2,1.3,3.7,3.5,3.7C39.4,87.1,40.7,85.7,40.7,83.3z"/>
		<path style="fill:#FFFFFF;" d="M45.2,87.8h-1.1V74.4l1.1-0.1V87.8z"/>
		<path style="fill:#FFFFFF;" d="M55.2,82.5v5.3h-1v-1.9c-0.6,1.1-1.8,2-3.6,2c-1.9,0-3.1-1-3.1-2.6c0-1.7,1.3-2.8,3.6-2.8
			c1.6,0,2.6,0.5,3.1,0.7v-0.6c0-2.1-0.8-3.1-2.8-3.1c-1.5,0-2.7,0.7-3,0.9l0.1-1c0.3-0.2,1.4-0.7,3-0.7
			C54,78.6,55.2,79.9,55.2,82.5z M54.1,84c-0.6-0.3-1.6-0.7-3-0.7c-1.6,0-2.7,0.7-2.7,2s1,1.9,2.3,1.9C52.8,87.2,54.1,85.6,54.1,84z
			"/>
		<path style="fill:#FFFFFF;" d="M66.4,82.7v5.2h-1.1v-5c0-2-0.7-3.3-2.7-3.3c-2.2,0-3.4,1.8-3.4,3.5v4.8h-1.1v-9.1l0.8-0.1L59,81
			c0.5-1.2,1.6-2.3,3.7-2.3C65.4,78.6,66.4,80.1,66.4,82.7z"/>
		<path style="fill:#FFFFFF;" d="M76.4,82.5v5.3h-1v-1.9c-0.6,1.1-1.8,2-3.6,2c-1.9,0-3.1-1-3.1-2.6c0-1.7,1.3-2.8,3.6-2.8
			c1.6,0,2.6,0.5,3.1,0.7v-0.6c0-2.1-0.8-3.1-2.8-3.1c-1.5,0-2.7,0.7-3,0.9l0.1-1c0.3-0.2,1.4-0.7,3-0.7
			C75.2,78.6,76.4,79.9,76.4,82.5z M75.3,84c-0.6-0.3-1.6-0.7-3-0.7c-1.6,0-2.7,0.7-2.7,2s1,1.9,2.3,1.9
			C73.9,87.2,75.3,85.6,75.3,84z"/>
		<path style="fill:#FFFFFF;" d="M87.8,74.3v13.6h-0.9l-0.1-2C86.2,87.1,85,88,83.1,88c-2.5,0-4.2-1.7-4.2-4.7s1.8-4.7,4.2-4.7
			c1.8,0,3,0.9,3.7,2.1v-6.3L87.8,74.3z M86.8,83.5v-0.4c0-1.9-1.3-3.6-3.4-3.6c-2,0-3.4,1.4-3.4,3.8c0,2.5,1.4,3.8,3.4,3.8
			C85.5,87.1,86.8,85.4,86.8,83.5z"/>
		<path style="fill:#FFFFFF;" d="M97.8,82.5v5.3h-1v-1.9c-0.6,1.1-1.8,2-3.6,2c-1.9,0-3.1-1-3.1-2.6c0-1.7,1.3-2.8,3.6-2.8
			c1.6,0,2.6,0.5,3.1,0.7v-0.6c0-2.1-0.8-3.1-2.8-3.1c-1.5,0-2.7,0.7-3,0.9l0.1-1c0.3-0.2,1.4-0.7,3-0.7
			C96.6,78.6,97.8,79.9,97.8,82.5z M96.8,84c-0.6-0.3-1.6-0.7-3-0.7c-1.6,0-2.7,0.7-2.7,2s1,1.9,2.3,1.9
			C95.4,87.2,96.8,85.6,96.8,84z"/>
		<path style="fill:#FFFFFF;" d="M111.5,87c2.1,0,3.5-0.8,4.2-1.4l-0.1,1.1c-0.5,0.4-2,1.2-4.2,1.2c-3.5,0-6.1-2.2-6.1-6.5
			s2.6-6.5,6.1-6.5c2.3,0,3.6,0.7,4.2,1.2l0.1,1.1c-0.7-0.5-2.1-1.4-4.2-1.4c-2.9,0-5,1.7-5,5.5S108.6,87,111.5,87z"/>
		<path style="fill:#FFFFFF;" d="M121.8,87c1.7,0,2.7-0.6,3.2-0.9l-0.1,1c-0.4,0.3-1.4,0.8-3.1,0.8c-2.8,0-4.6-1.5-4.6-4.7
			c0-2.8,1.6-4.6,4.2-4.6s3.6,1.7,3.6,4v0.9h-6.8C118.4,86,119.8,87,121.8,87z M124,82.8L124,82.8c0-1.9-0.6-3.3-2.6-3.3
			c-1.7,0-3,1.2-3.2,3.3C118.2,82.8,124,82.8,124,82.8z"/>
		<path style="fill:#FFFFFF;" d="M135.9,82.7v5.2h-1.1v-5c0-2-0.7-3.3-2.7-3.3c-2.2,0-3.4,1.8-3.4,3.5v4.8h-1.1v-9.1l0.8-0.1
			l0.1,2.3c0.5-1.2,1.6-2.3,3.7-2.3C135,78.6,135.9,80.1,135.9,82.7z"/>
		<path style="fill:#FFFFFF;" d="M143.3,86.6l-0.1,0.9c-0.2,0.1-0.9,0.4-2.1,0.4c-1.4,0-1.9-0.4-1.9-1.6v-6.8h-1.7v-0.8h1.7l0.1-2.8
			l0.9-0.2v3h2.7v0.8h-2.7v6.4c0,0.9,0.2,1.2,1.1,1.2C142.2,87.1,143,86.8,143.3,86.6z"/>
		<path style="fill:#FFFFFF;" d="M149.2,79.7c-2.1,0-3.2,1.7-3.2,2.7v5.5h-1v-9.1l0.9-0.1l0.1,1.9c0.6-1,1.6-1.9,3.1-1.9L149.2,79.7
			z"/>
		<path style="fill:#FFFFFF;" d="M157.6,82.5v5.3h-1v-1.9c-0.6,1.1-1.8,2-3.6,2c-1.9,0-3.1-1-3.1-2.6c0-1.7,1.3-2.8,3.6-2.8
			c1.6,0,2.6,0.5,3.1,0.7v-0.6c0-2.1-0.8-3.1-2.8-3.1c-1.5,0-2.7,0.7-3,0.9l0.1-1c0.3-0.2,1.4-0.7,3-0.7
			C156.4,78.6,157.6,79.9,157.6,82.5z M156.6,84c-0.6-0.3-1.6-0.7-3-0.7c-1.6,0-2.7,0.7-2.7,2s1,1.9,2.3,1.9
			C155.2,87.2,156.6,85.6,156.6,84z"/>
		<path style="fill:#FFFFFF;" d="M161.8,87.8h-1.1V74.4l1.1-0.1V87.8z"/>
		<path style="fill:#FFFFFF;" d="M177.5,78.7c0,2.6-1.8,3.7-4.6,3.7h-2.3v5.4h-1.1V75.1h3.4C175.7,75.1,177.5,76.1,177.5,78.7z
			 M176.3,78.7c0-1.9-1.2-2.7-3.4-2.7h-2.4v5.5h2.4C175.1,81.5,176.3,80.7,176.3,78.7z"/>
		<path style="fill:#FFFFFF;" d="M186.2,82.5v5.3h-1v-1.9c-0.6,1.1-1.8,2-3.6,2c-1.9,0-3.1-1-3.1-2.6c0-1.7,1.3-2.8,3.6-2.8
			c1.6,0,2.6,0.5,3.1,0.7v-0.6c0-2.1-0.8-3.1-2.8-3.1c-1.5,0-2.7,0.7-3,0.9l0.1-1c0.3-0.2,1.4-0.7,3-0.7
			C185,78.6,186.2,79.9,186.2,82.5z M185.1,84c-0.6-0.3-1.6-0.7-3-0.7c-1.6,0-2.7,0.7-2.7,2s1,1.9,2.3,1.9
			C183.8,87.2,185.1,85.6,185.1,84z"/>
		<path style="fill:#FFFFFF;" d="M193.4,79.7c-2.1,0-3.2,1.7-3.2,2.7v5.5h-1.1v-9.1l0.9-0.1l0.1,1.9c0.6-1,1.6-1.9,3.1-1.9
			L193.4,79.7z"/>
		<path style="fill:#FFFFFF;" d="M203.5,78.6V91l-1.1,0.1v-5.2c-0.6,1.2-1.8,2.1-3.6,2.1c-2.5,0-4.3-1.7-4.3-4.7s1.8-4.7,4.3-4.7
			c1.8,0,3.1,0.9,3.7,2.1l0.1-2L203.5,78.6z M202.4,83.5v-0.4c0-1.9-1.3-3.6-3.4-3.6c-2.1,0-3.4,1.4-3.4,3.8c0,2.5,1.3,3.8,3.4,3.8
			C201.2,87.1,202.4,85.4,202.4,83.5z"/>
		<path style="fill:#FFFFFF;" d="M214.5,78.7v9.1h-1v-2.1c-0.7,1.2-1.9,2.2-3.8,2.2c-2.1,0-2.9-1.1-2.9-3.7v-5.6h1.1v5.5
			c0,2,0.7,2.8,2.3,2.8c2.2,0,3.4-1.8,3.4-3.5v-4.8L214.5,78.7L214.5,78.7z"/>
		<path style="fill:#FFFFFF;" d="M221.7,87c1.7,0,2.7-0.6,3.2-0.9l-0.1,1c-0.4,0.3-1.4,0.8-3.1,0.8c-2.8,0-4.6-1.5-4.6-4.7
			c0-2.8,1.6-4.6,4.2-4.6c2.6,0,3.6,1.7,3.6,4v0.9h-6.8C218.3,86,219.7,87,221.7,87z M223.9,82.8L223.9,82.8c0-1.9-0.6-3.3-2.6-3.3
			c-1.7,0-3,1.2-3.2,3.3C218.1,82.8,223.9,82.8,223.9,82.8z"/>
	</g>
	<g>
		<path style="fill:#FFFFFF;" d="M19.7,110c2.1,0,3.5-0.8,4.2-1.4l-0.1,1.1c-0.5,0.4-2,1.2-4.2,1.2c-3.5,0-6.1-2.2-6.1-6.5
			s2.6-6.5,6.1-6.5c2.3,0,3.6,0.7,4.2,1.2l0.1,1.1c-0.7-0.5-2.1-1.4-4.2-1.4c-2.9,0-5,1.7-5,5.5S16.8,110,19.7,110z"/>
		<path style="fill:#FFFFFF;" d="M34,101.7v9.1h-1v-2.1c-0.7,1.2-1.9,2.2-3.8,2.2c-2.1,0-2.9-1.1-2.9-3.7v-5.6h1.1v5.5
			c0,2,0.7,2.8,2.3,2.8c2.2,0,3.4-1.8,3.4-3.5v-4.8L34,101.7L34,101.7z"/>
		<path style="fill:#FFFFFF;" d="M38.2,110.8h-1.1V97.4l1.1-0.1V110.8z"/>
		<path style="fill:#FFFFFF;" d="M45.8,109.6l-0.1,0.9c-0.2,0.1-0.9,0.4-2.1,0.4c-1.4,0-1.9-0.4-1.9-1.6v-6.8H40v-0.8h1.7l0.1-2.8
			l0.9-0.2v3h2.7v0.8h-2.7v6.4c0,0.9,0.2,1.2,1.1,1.2C44.7,110.1,45.5,109.8,45.8,109.6z"/>
		<path style="fill:#FFFFFF;" d="M55.1,101.7v9.1h-1v-2.1c-0.7,1.2-1.9,2.2-3.8,2.2c-2.1,0-2.9-1.1-2.9-3.7v-5.6h1.1v5.5
			c0,2,0.7,2.8,2.3,2.8c2.2,0,3.4-1.8,3.4-3.5v-4.8L55.1,101.7L55.1,101.7z"/>
		<path style="fill:#FFFFFF;" d="M62.5,102.7c-2.1,0-3.2,1.7-3.2,2.7v5.5h-1.1v-9.1l0.9-0.1l0.1,1.9c0.6-1,1.6-1.9,3.1-1.9
			L62.5,102.7z"/>
		<path style="fill:#FFFFFF;" d="M70.8,105.5v5.3h-1v-1.9c-0.6,1.1-1.8,2-3.6,2c-1.9,0-3.1-1-3.1-2.6c0-1.7,1.3-2.8,3.6-2.8
			c1.6,0,2.6,0.5,3.1,0.7v-0.6c0-2.1-0.8-3.1-2.8-3.1c-1.5,0-2.7,0.7-3,0.9l0.1-1c0.3-0.2,1.4-0.7,3-0.7
			C69.6,101.6,70.8,102.9,70.8,105.5z M69.8,107c-0.6-0.3-1.6-0.7-3-0.7c-1.6,0-2.7,0.7-2.7,2s1,1.9,2.3,1.9
			C68.4,110.2,69.8,108.6,69.8,107z"/>
		<path style="fill:#FFFFFF;" d="M75,110.8h-1.1V97.4l1.1-0.1V110.8z"/>
		<path style="fill:#FFFFFF;" d="M91.3,97.3v13.6h-0.9l-0.1-2c-0.6,1.2-1.8,2.1-3.7,2.1c-2.5,0-4.2-1.7-4.2-4.7s1.8-4.7,4.2-4.7
			c1.8,0,3,0.9,3.7,2.1v-6.3L91.3,97.3z M90.3,106.5v-0.4c0-1.9-1.3-3.6-3.4-3.6c-2,0-3.4,1.4-3.4,3.8c0,2.5,1.4,3.8,3.4,3.8
			C89,110.1,90.3,108.4,90.3,106.5z"/>
		<path style="fill:#FFFFFF;" d="M98.3,110c1.7,0,2.7-0.6,3.2-0.9l-0.1,1c-0.4,0.3-1.4,0.8-3.1,0.8c-2.8,0-4.6-1.5-4.6-4.7
			c0-2.8,1.6-4.6,4.2-4.6s3.6,1.7,3.6,4v0.9h-6.8C94.9,109,96.3,110,98.3,110z M100.6,105.8L100.6,105.8c0-1.9-0.6-3.3-2.6-3.3
			c-1.7,0-3,1.2-3.2,3.3C94.8,105.8,100.6,105.8,100.6,105.8z"/>
		<path style="fill:#FFFFFF;" d="M118.4,98.1l-4.9,12.8h-1.4l-4.9-12.8h1.2l4.4,11.7l4.4-11.7H118.4z"/>
		<path style="fill:#FFFFFF;" d="M126.5,105.5v5.3h-1v-1.9c-0.6,1.1-1.8,2-3.6,2c-1.9,0-3.1-1-3.1-2.6c0-1.7,1.3-2.8,3.6-2.8
			c1.6,0,2.6,0.5,3.1,0.7v-0.6c0-2.1-0.8-3.1-2.8-3.1c-1.5,0-2.7,0.7-3,0.9l0.1-1c0.3-0.2,1.4-0.7,3-0.7
			C125.3,101.6,126.5,102.9,126.5,105.5z M125.5,107c-0.6-0.3-1.6-0.7-3-0.7c-1.6,0-2.7,0.7-2.7,2s1,1.9,2.3,1.9
			C124.1,110.2,125.5,108.6,125.5,107z"/>
		<path style="fill:#FFFFFF;" d="M130.7,110.8h-1.1V97.4l1.1-0.1V110.8z"/>
		<path style="fill:#FFFFFF;" d="M142.8,106.3c0,3-1.8,4.7-4.3,4.7c-1.8,0-3-0.9-3.6-2v5.1l-1.1,0.1v-12.4l0.9-0.1l0.1,2.1
			c0.6-1.2,1.8-2.1,3.6-2.1C141,101.6,142.8,103.3,142.8,106.3z M141.7,106.3c0-2.5-1.3-3.8-3.4-3.8c-2.2,0-3.5,1.7-3.5,3.7v0.3
			c0,2,1.3,3.7,3.5,3.7C140.4,110.1,141.7,108.7,141.7,106.3z"/>
		<path style="fill:#FFFFFF;" d="M152.5,105.5v5.3h-1v-1.9c-0.6,1.1-1.8,2-3.6,2c-1.9,0-3.1-1-3.1-2.6c0-1.7,1.3-2.8,3.6-2.8
			c1.6,0,2.6,0.5,3.1,0.7v-0.6c0-2.1-0.8-3.1-2.8-3.1c-1.5,0-2.7,0.7-3,0.9l0.1-1c0.3-0.2,1.4-0.7,3-0.7
			C151.3,101.6,152.5,102.9,152.5,105.5z M151.5,107c-0.6-0.3-1.6-0.7-3-0.7c-1.6,0-2.7,0.7-2.7,2s1,1.9,2.3,1.9
			C150.1,110.2,151.5,108.6,151.5,107z"/>
		<path style="fill:#FFFFFF;" d="M159.8,102.7c-2.1,0-3.2,1.7-3.2,2.7v5.5h-1.1v-9.1l0.9-0.1l0.1,1.9c0.6-1,1.6-1.9,3.1-1.9
			L159.8,102.7z"/>
		<path style="fill:#FFFFFF;" d="M168.2,105.5v5.3h-1v-1.9c-0.6,1.1-1.8,2-3.6,2c-1.9,0-3.1-1-3.1-2.6c0-1.7,1.3-2.8,3.6-2.8
			c1.6,0,2.6,0.5,3.1,0.7v-0.6c0-2.1-0.8-3.1-2.8-3.1c-1.5,0-2.7,0.7-3,0.9l0.1-1c0.3-0.2,1.4-0.7,3-0.7
			C167,101.6,168.2,102.9,168.2,105.5z M167.1,107c-0.6-0.3-1.6-0.7-3-0.7c-1.6,0-2.7,0.7-2.7,2s1,1.9,2.3,1.9
			C165.7,110.2,167.1,108.6,167.1,107z"/>
		<path style="fill:#FFFFFF;" d="M172.5,97.3l1.3,0.1l-1.6,3.2l-1,0.1L172.5,97.3z M172.2,101.7v9.2h-1.1v-9.1L172.2,101.7z"/>
		<path style="fill:#FFFFFF;" d="M178.2,102.4c-1.2,0-2,0.5-2,1.5c0,1.2,1.2,1.6,2.4,1.9c1.4,0.4,2.8,0.8,2.8,2.5
			c0,1.8-1.3,2.5-3.2,2.5c-1.5,0-2.6-0.5-3-0.7l-0.1-1c0.5,0.3,1.6,0.9,3.1,0.9c1.4,0,2.2-0.4,2.2-1.7c0-1.1-1.1-1.4-2.2-1.7
			c-1.4-0.4-3-0.9-3-2.7c0-1.5,1.1-2.3,3-2.3c1.3,0,2.3,0.5,2.6,0.7l0.1,1C180.5,103,179.4,102.4,178.2,102.4z"/>
		<path style="fill:#FFFFFF;" d="M187.9,101.6c2.5,0,4.5,1.6,4.5,4.7s-1.9,4.7-4.5,4.7s-4.5-1.6-4.5-4.7S185.3,101.6,187.9,101.6z
			 M187.9,110.1c2,0,3.4-1.3,3.4-3.8s-1.4-3.8-3.4-3.8s-3.4,1.3-3.4,3.8S185.8,110.1,187.9,110.1z"/>
	</g>
</g>
</svg>
