<?xml version="1.0" encoding="utf-8"?>
<!-- Generator: Adobe Illustrator 25.2.0, SVG Export Plug-In . SVG Version: 6.00 Build 0)  -->
<svg version="1.1" id="Layer_1" xmlns="http://www.w3.org/2000/svg" xmlns:xlink="http://www.w3.org/1999/xlink" x="0px" y="0px"
	 viewBox="0 0 138.7 120.5" style="enable-background:new 0 0 138.7 120.5;" xml:space="preserve">
<style type="text/css">
	.st0{fill:#FFFFFF;}
</style>
<g>
	<g>
		<g>
			<path class="st0" d="M127.5,120.5C127.4,120.5,127.4,120.5,127.5,120.5C127.4,120.5,127.4,120.5,127.5,120.5l-1-0.5
				c0,0,0,0-0.1,0L81.8,94l0,0l-1.3-0.8l0,0l0,0h-0.1c-0.1-0.1-0.1-0.1,0-0.2v-0.1l0,0l0,0l0,0l0,0l0.7-1.2c0-0.1,0.2-0.1,0.2-0.1
				l0.2,0.1l0.2-0.3l0.1-0.1h0.1l0,0c0.1,0,0.1,0.2,0.1,0.2L81.7,92c0,0.1-0.2,0.1-0.2,0.1L81.3,92l-0.1,0.2c0.1,0,0.1,0,0.2,0l0,0
				l0.6,0.3c0,0,0,0,0.1,0s0.1,0.1,0.2,0.2s0,0.2,0,0.2l0,0l0.4,0.2l0.1-0.2l0.1-0.1H83l8.7,5l0,0l0,0l8.6,5c0,0,0,0,0.1,0l0,0
				l8.6,5l0,0l0,0l17.3,10.1l0,0c0,0,0.1,0,0.1,0.1l0,0l0,0l0,0l0,0l0,0l0,0l0,0l0,0l0,0l0,0l0,0l0,0l0,0l0,0l0,0l0,0l0,0l0,0l0,0
				l0,0l0,0l0,0l0,0l0,0l0,0l0,0l0,0l0,0c0,0,0,0.1,0,0.2l0,0l-0.1,0.2l0.2,0.1l0.4-0.7c0-0.1,0.1-0.1,0.2-0.1l0,0l0,0l0,0l0,0l0,0
				l0,0l0,0l0.6,0.4c0.1,0,0.1,0.2,0.1,0.2l0,0c0,0,0,0,0,0.1s-0.2,0.1-0.2,0.1l-0.4-0.2l-0.1,0.1h0.1l0,0l0.6,0.3c0,0,0,0,0.1,0
				s0.1,0.1,0.1,0.2l0.1-0.2l-0.2-0.1c-0.1,0-0.1-0.2-0.1-0.2l0.3-0.5c0-0.1,0.1-0.1,0.2-0.1h0.1l0.1,0.1v0.1l-0.2,0.3l0.2,0.1
				l0.1,0.1l0,0l0,0l0,0v0.1l0,0l-0.7,1.1c0,0,0,0,0,0.1C127.6,120.4,127.6,120.4,127.5,120.5L127.5,120.5z M126.7,119.6l0.7,0.4
				l0.1-0.2h-0.1c0,0,0,0-0.1,0L126.7,119.6L126.7,119.6z M126.4,119.4L126.4,119.4L126.4,119.4L126.4,119.4L126.4,119.4z
				 M125.8,119.1l0.2,0.1l0.1-0.1H125.8C125.9,119.1,125.8,119.1,125.8,119.1z M117.4,113.9l8.4,4.9l0.1-0.2l-8.4-4.9L117.4,113.9z
				 M108.7,108.8l8.4,4.9l0.1-0.2l-8.4-4.9L108.7,108.8z M100,103.8l8.4,4.9l0.1-0.2l-8.4-4.9L100,103.8z M91.4,98.7l8.4,4.9
				l0.1-0.2l-8.4-4.9L91.4,98.7z M82.7,93.7l8.4,4.9l0.1-0.2l-8.4-4.9L82.7,93.7z M82.1,93.7l0.2,0.1v-0.1H82.1L82.1,93.7z
				 M80.8,92.9l1,0.6l0.1-0.2h-0.1h-0.1L81,92.8c0,0,0,0-0.1-0.1c0,0,0-0.1-0.1-0.1V92.9z M11.4,120.1c-0.1,0-0.1,0-0.1,0
				s-0.1,0-0.1-0.1l-0.7-1.2c0,0,0,0,0-0.1s0-0.2,0.1-0.2l0.3-0.1l-0.2-0.3c0-0.1,0-0.2,0.1-0.2h0.1H11c0,0,0.1,0,0.1,0.1l0.3,0.5
				c0,0.1,0,0.2-0.1,0.2l-0.2,0.1l0.1,0.2c0-0.1,0.1-0.1,0.1-0.2l0,0l0.6-0.4l0,0c0.2-0.1,0.4,0,0.4,0.1l0,0l0,0l0.4-0.2h0.1
				l0.1,0.1v0.1c0,0.1,0,0.2-0.1,0.2l-0.2,0.1l0.1,0.2v0.1c0,0,0,0.1-0.1,0.1l-1.3,0.7l0,0C11.4,120.1,11.4,120.1,11.4,120.1z
				 M11.3,119.4l0.1,0.2l1-0.6l-0.1-0.2c0,0,0,0.1-0.1,0.1c0,0,0,0-0.1,0L11.3,119.4C11.4,119.3,11.4,119.3,11.3,119.4
				C11.4,119.4,11.3,119.4,11.3,119.4z M11.4,118.4c-0.1,0-0.1,0-0.2-0.1c0-0.1,0-0.2,0.1-0.2l0.6-0.3c0.1,0,0.2,0,0.2,0.1
				s0,0.2-0.1,0.2L11.4,118.4C11.5,118.4,11.4,118.4,11.4,118.4z M137.1,103L137.1,103H137c-0.1,0-0.1-0.2-0.1-0.2l0.3-0.5l0.1-0.1
				h0.1l0.2,0.1l0.1-0.2h-0.1h-0.1l-0.7-0.4c0,0-0.1,0-0.1-0.1l0,0l-0.1,0.2l0.4,0.2c0.1,0,0.1,0.2,0.1,0.2l0,0l0,0
				c0,0.1-0.2,0.1-0.2,0.1l-0.6-0.4l0,0c0,0,0,0-0.1-0.1l0,0l0,0l0,0l0,0l0,0l0,0l0,0l0,0l0,0l0,0l0,0l0,0l0,0l0,0l0,0l0,0l0,0v-0.1
				l0,0l0,0l0,0l0,0l0,0l0,0c0,0,0,0,0-0.1l0.4-0.7l-0.2-0.1l-0.1,0.2c0,0.1-0.2,0.1-0.2,0.1c-0.1,0-0.1-0.2-0.1-0.2l0.3-0.5
				c0-0.1,0.1-0.1,0.2-0.1c0-0.1,0-0.1,0-0.2s0.2-0.1,0.2-0.1l0.5,0.3l0,0l1.3,0.7c0,0,0,0,0.1,0s0.1,0.1,0.1,0.2c0,0,0,0,0,0.1v0.1
				l0,0l-0.7,1.2l0,0l-0.1,0.1l0,0l0,0l0,0l0,0l0,0l0,0h-0.1l0,0l0,0l0,0l0,0l0,0l0,0l0,0l-0.2-0.1l-0.2,0.3
				C137.2,103,137.2,103,137.1,103z M137.9,101.5L137.9,101.5c0.1,0.1,0.2,0.1,0.2,0.2l0.1-0.2l-0.7-0.4l-0.1,0.1L137.9,101.5z
				 M137.2,101L137.2,101L137.2,101L137.2,101L137.2,101z M136.7,100.6l0.2,0.1l0.1-0.1l-0.2-0.1
				C136.7,100.5,136.7,100.6,136.7,100.6z M1.8,102.5c-0.1,0-0.1,0-0.2-0.1l-0.2-0.3l-0.2,0.1H1.1c0,0-0.1,0-0.1-0.1L0.3,101
				c0,0,0-0.1,0-0.2s0-0.2,0.1-0.2l0,0l1.3-0.7l0,0l44.4-25.4l0,0l1.3-0.8l0,0l0,0c0.1-0.1,0.2-0.1,0.2,0c0.1,0,0.1,0.1,0.1,0.2l0,0
				l0.7,1.1v0.1c0,0,0,0.1-0.1,0.1L48,75.3l0.2,0.3c0,0.1,0,0.2-0.1,0.2l0,0H48c0,0-0.1,0-0.1-0.1l-0.3-0.5v-0.1c0,0,0-0.1,0.1-0.1
				H48l-0.1-0.2c0,0.1-0.1,0.1-0.1,0.1l0,0l-0.6,0.4c0,0,0,0-0.1,0s-0.3,0-0.4-0.1l0,0l0,0l-0.4,0.2c-0.1,0-0.2,0-0.2,0l0,0
				c0,0-0.1-0.1,0-0.1c0-0.1,0-0.1,0.1-0.1l0.2-0.1V75L2.1,100.2l0.1,0.1l0.2-0.1l0,0l0,0l0,0l0,0h0.1l0,0l0,0c0,0,0,0,0.1,0l0,0
				l0,0l0,0c0,0.1,0,0.2-0.1,0.2l-0.4,0.2l0,0l0,0l0,0c0.1,0.2,0,0.4-0.1,0.4l0,0l-0.6,0.4l0,0c-0.1,0-0.1,0.1-0.2,0l0.1,0.2
				l0.2-0.1h0.1c0,0,0.1,0,0.1,0.1l0.3,0.5v0.1l-0.1,0.1L1.8,102.5L1.8,102.5z M0.7,101l0.1,0.2c0-0.1,0.1-0.1,0.1-0.2l0,0l0.5-0.3
				l-0.1-0.1L0.7,101z M1.7,100.4L1.7,100.4L1.7,100.4L1.7,100.4L1.7,100.4z M46.6,74.7l0.1,0.2c0-0.1,0.1-0.1,0.1-0.1l0,0l0.6-0.4
				c0,0,0,0,0.1,0h0.1l-0.1-0.2L46.6,74.7z M136.3,100.2C136.2,100.2,136.2,100.2,136.3,100.2l-5.8-3.4c0,0.1,0,0.1,0,0.2
				s-0.2,0.1-0.2,0.1l-2.3-1.3l-0.1,0.2l2.3,1.3c0.1,0,0.1,0.2,0.1,0.2c0,0.1-0.2,0.1-0.2,0.1l-2.4-1.4l0,0l0,0L92.8,76l0,0
				l-0.1-0.1l0,0l0,0l0,0l0,0l0,0l0,0l0,0v-0.1l0,0l0,0l0,0l0,0l0,0l0,0l0,0l0,0l0,0l0,0l0,0l0,0l0,0l0,0l0,0l0,0l0,0l0,0l0,0l0,0
				l0,0l0,0l0,0l0,0l0,0l0,0l0,0l0,0l0,0l0,0l0,0l0,0l0,0l0,0l0,0l0,0l0,0l0,0l0,0l0,0l0,0l0,0l0,0l0,0l0,0l0,0l0,0l0,0l0,0l0,0l0,0
				l0,0l0,0l0,0l0,0l0,0l0,0l0,0l0.1-0.2l-0.4-0.2l0,0l0,0c0,0.1-0.1,0.1-0.2,0.2c-0.1,0-0.1,0-0.2,0h-0.1l-0.7-0.4c0,0,0,0-0.1-0.1
				c0,0,0-0.1-0.1-0.1l-0.1,0.2l0.2,0.1c0.1,0,0.1,0.2,0.1,0.2L91.1,76c0,0.1-0.1,0.1-0.2,0.1h-0.1L90.7,76v-0.1l0.2-0.3l-0.2-0.1
				c-0.1,0-0.1-0.2-0.1-0.2l0.7-1.2l0.1-0.1c0.1,0,0.1,0,0.2,0c0,0,0,0,0.1,0l0,0l0,0l1.3,0.8c0,0,0,0,0.1,0l43.3,25.2
				c0.1,0,0.1,0.2,0.1,0.2C136.4,100.2,136.3,100.2,136.3,100.2z M119.1,90.9l8.4,4.9l0.1-0.2l-8.4-4.9L119.1,90.9z M110.5,85.9
				l8.4,4.9l0.1-0.2l-8.4-4.9L110.5,85.9z M101.8,80.8l8.4,4.9l0.1-0.2l-8.4-4.9L101.8,80.8z M93.1,75.8l8.4,4.9l0.1-0.2l-8.4-4.9
				L93.1,75.8z M92.9,75.1l0.2,0.1l0,0l0,0l0,0l0,0l0,0l0,0l0,0l0,0l0,0c0,0,0,0,0.1,0l0,0l0,0l0,0l0,0l0,0l0,0l0,0l0,0l0,0l0,0l0,0
				l0,0l0,0l0,0l0,0l0,0l0,0l0,0l0,0l0,0l0,0l0,0l0,0l0,0l0,0l0,0l0,0l0,0l0,0l0,0l0,0l0,0l0,0l0,0l0,0l0,0l0,0l0,0l0,0L92.9,75.1
				L92.9,75.1z M92.3,74.9L92.3,74.9c0.1,0.1,0.2,0.1,0.2,0.1l0.1-0.2l-1-0.6l-0.1,0.2c0.1,0,0.1,0,0.2,0l0,0L92.3,74.9z M57.1,93.8
				L57.1,93.8c-0.1,0-0.1,0-0.2-0.1l-0.1-0.2l-0.2,0.1l0,0c0,0,0,0-0.1,0l0,0l0,0h-0.1l0,0l0,0l0,0c0,0,0,0-0.1,0l0,0l0,0
				c0,0,0,0,0-0.1l0,0v-0.1c0-0.1,0-0.2,0.1-0.2l0.4-0.2l0,0l0,0c0-0.1-0.1-0.2,0-0.2c0,0,0-0.1,0.1-0.1c0,0,0,0,0.1-0.1l0.7-0.4
				l0,0c0.1,0,0.1,0,0.2,0L57.8,92l-0.2,0.1c-0.1,0-0.2,0-0.2-0.1L57,91.5c0-0.1,0-0.2,0.1-0.2h0.1h0.1c0,0,0.1,0,0.1,0.1l0.2,0.3
				l0.2-0.1h0.1c0,0,0.1,0,0.1,0.1l0.6,1.1c0,0,0,0,0,0.1V93c0,0.1,0,0.2-0.1,0.2l0,0L57.1,93.8C57.2,93.8,57.2,93.8,57.1,93.8z
				 M57.1,93.2l0.1,0.2l1-0.6l-0.1-0.2c0,0,0,0.1-0.1,0.1c0,0,0,0-0.1,0l-0.6,0.4l0,0C57.2,93.2,57.2,93.2,57.1,93.2z M80.6,55.2
				C80.5,55.2,80.5,55.2,80.6,55.2L80.5,55v-0.1l0,0v-1.5l0,0v-0.5c0,0,0,0.1-0.1,0.1l0,0l0,0l0,0l0,0l0,0l0,0l0,0l0,0l0,0l0,0l0,0
				l0,0l0,0l0,0l0,0l0,0c0,0,0,0-0.1,0h-0.6c0,0-0.1,0-0.1-0.1l0,0l0,0l0,0l0,0l0,0l0,0l0,0l0,0l0,0l0,0l0,0l0,0l0,0l0,0l0,0l0,0
				l0,0l0,0l0,0l0,0l0,0l0,0l0,0l0,0l0,0l0,0l0,0l0,0l0,0l0,0l0,0l0,0l0,0l0,0l0,0l0,0l0,0l0,0l0,0l0,0v-0.1l0.1-40l0,0l0,0v-10
				c0,0,0-0.1,0.1-0.1h0.1l0,0h0.2V2.5h-0.8h-0.1l0,0l0,0l0,0l0,0l0,0l0,0l0,0l0,0l-0.1-0.1V1.7c0-0.1,0.1-0.2,0.2-0.2l0,0
				c0,0,0,0,0.1,0l0,0c0.1,0,0.2,0.1,0.2,0.2v0.4h0.2c0,0,0,0,0-0.1c0,0,0,0,0-0.1V1c0,0,0,0,0-0.1s0-0.1,0.1-0.1h-0.2v0.3
				c0,0.1-0.1,0.2-0.2,0.2l0,0h-0.6c-0.1,0-0.2-0.1-0.2-0.2l0,0V1l0.1-0.1h0.3V0.6l0,0V0.5l0.1-0.1l0,0h1.4l0,0
				c0.1,0,0.2,0.1,0.2,0.2v0.1v1.5v0.5l0,0l-0.2,50.6l0,0v1.4c0,0,0,0,0.1,0.1c0,0.1,0,0.1,0,0.2C80.8,55.1,80.8,55.1,80.6,55.2
				C80.7,55.2,80.7,55.2,80.6,55.2z M79.9,52.6h0.2v-9.7h-0.2V52.6z M79.9,32.9v9.7h0.2v-9.7H79.9z M79.9,32.6h0.2v-9.7h-0.2V32.6z
				 M80,22.6h0.2v-9.7H80V22.6z M80,2.9v9.7h0.2V2.9L80,2.9z M80.5,2.5L80.5,2.5l0.1-0.2h-0.1V2.5z M80.4,1.9L80.4,1.9L80.4,1.9
				L80.4,1.9z M80.4,1.6h0.2V0.8h-0.2c0,0.1,0.1,0.1,0.1,0.2c0,0,0,0,0,0.1L80.4,1.6L80.4,1.6z M58.7,55.1L58.7,55.1L58.7,55.1
				c-0.2,0-0.3-0.1-0.3-0.2v-0.1l0,0v-1.5l0,0l0.2-50.6c0,0,0,0,0-0.1v-1c0,0,0,0,0-0.1v-1l0,0c0-0.1,0-0.1,0.1-0.1
				c0,0,0.1-0.1,0.2-0.1c0,0,0,0,0.1,0h1.3l0,0c0.1,0,0.1,0,0.1,0l0,0l0,0l0,0l0,0l0,0v0.1v0.3h0.3c0.1,0,0.2,0.1,0.2,0.2l0,0V1
				l-0.1,0.1l0,0h-0.6C60.1,1.1,60,1,60,0.9V0.6h-0.2c0,0,0,0.1,0.1,0.2l0,0v0.8l0,0v0.1h0.2V1.3c0-0.1,0.1-0.2,0.2-0.2l0,0
				c0,0,0,0,0.1,0l0,0c0.1,0,0.2,0.1,0.2,0.2V2c0,0.1,0,0.1-0.1,0.2l0,0l0,0l0,0l0,0c0,0,0,0-0.1,0l0,0h-0.8v0.2h0.2l0,0l0,0l0,0
				l0,0l0,0l0,0l0,0l0,0l0,0l0,0l0,0l0,0l0,0l0,0l0,0l0,0l0,0l0,0l0,0l0,0l0,0l0,0l0,0l0,0l0,0l0,0l0,0l0,0l0,0l0,0l0,0l0,0l0,0l0,0
				l0,0l0,0l0,0l0,0l0,0l0,0l0,0l0,0l0,0l0,0l0,0l0,0l0,0l0,0l0,0l0,0c0.1,0,0.1,0.1,0.1,0.2l-0.1,40.1l0,0l0,0v10
				c0,0,0,0.1-0.1,0.1h-0.1H59c-0.1,0-0.1,0-0.1-0.1v0.4l0,0v1.5l0.1,0.1C58.9,55,58.8,55.1,58.7,55.1z M58.9,42.8v9.9
				c0-0.1,0.1-0.1,0.2-0.1h0.4v-9.7h-0.4C59,42.9,58.9,42.9,58.9,42.8z M58.9,32.8v9.8c0-0.1,0.1-0.1,0.2-0.1l0,0h0.4v-9.7h-0.4
				C59,32.9,58.9,32.8,58.9,32.8z M58.9,22.8v9.8l0.1-0.1h0.4v-9.7H58.9C59,22.8,59,22.8,58.9,22.8z M59,12.8v9.8l0.1-0.1l0,0h0.4
				v-9.7H59L59,12.8z M59,2.7v9.8l0.1-0.1l0,0h0.4V2.7L59,2.7L59,2.7C59.1,2.8,59.1,2.8,59,2.7z M59,2.3v0.3l0.1-0.1L59,2.3L59,2.3z
				 M59.1,1.9L59.1,1.9L59.1,1.9L59.1,1.9z M59.1,1.5h0.2V0.9c0,0,0,0,0-0.1s0-0.1,0.1-0.1h-0.2L59.1,1.5z"/>
		</g>
		<g>
			<path class="st0" d="M126,120.2c-0.1,0-0.2,0-0.3-0.1c-0.2-0.1-0.3-0.5-0.2-0.7l0.1-0.2c0.1-0.2,0.5-0.3,0.7-0.2
				c0.2,0.1,0.3,0.5,0.2,0.7l-0.1,0.2C126.3,120.2,126.1,120.2,126,120.2z M12.9,119.9h-0.1l0,0c0,0-0.1,0-0.1-0.1
				c-0.1,0-0.2,0-0.2,0h-0.1l0,0c-0.2,0-0.3-0.2-0.4-0.3l-0.2-0.4c0-0.1-0.1-0.2-0.1-0.2l0,0l0,0l0,0l0,0l0,0l0,0l0,0l0,0l0,0l0,0
				l0,0l0,0l0,0l0,0l0,0l0,0l0,0l0,0l0,0l0,0l0,0l0,0l0,0l0,0l0,0l0,0l0,0l0,0l0,0l0,0l0,0l0,0l0,0l0,0l0,0l0,0l0,0l0,0l0,0l0,0l0,0
				l0,0l0,0l0,0l0,0l0,0l0,0l0,0l0,0l0,0l0,0l0,0l0,0l0,0l0,0l0,0l0,0l0,0l0,0l0,0l0,0l0,0l0,0l0,0l0,0l0,0l0,0l0,0l0,0l0,0l0,0l0,0
				l0,0l0,0l0,0l0,0l0,0l0,0l0,0l0,0l0,0l0,0l0,0l0,0l0,0l0,0l0,0l0,0l0,0l0,0l0,0l0,0l0,0l0,0l0,0l0,0l0,0l0,0l0,0l0,0l0,0l0,0l0,0
				l0,0l0,0l0,0l0,0l0,0l0,0l0,0l0,0l0,0l0,0l0,0l0,0l0,0l0,0l0,0l0,0l0,0l0,0l0,0l0,0c-0.2,0.1-0.4,0-0.5-0.1
				c0,0.2-0.1,0.3-0.3,0.4s-0.5,0.1-0.7-0.2l-9.5-16.5c-0.1-0.2-0.1-0.5,0.2-0.7c0.2-0.1,0.4-0.1,0.5,0c0-0.2,0.1-0.4,0.2-0.5
				l0.1-0.1l-0.2-0.3c-0.1-0.1-0.1-0.2-0.1-0.3l-0.6,0.7c-0.2,0.2-0.5,0.2-0.7,0s-0.2-0.5,0-0.7l40.8-43.2l17.5-57
				C58.5,0.2,58.7,0,59,0.1s0.4,0.4,0.3,0.6L59,1.6l0,0l0,0l0,0l0,0l0,0l0,0c0,0,0.1,0,0.1,0.1l0,0l0,0l0,0l0,0l0,0l0,0
				c0.1,0.1,0.1,0.1,0.1,0.2l0,0l0,0V2c0.1,0,0.2,0,0.3,0.1h0.2h0.1c0.2,0,0.4,0.3,0.4,0.5c0,0.3-0.2,0.5-0.5,0.5h-0.1l-0.1,16.5
				c0,0,0,0,0.1,0l20.1,0.1c0.2,0,0.3,0.1,0.4,0.2l0.1-17.2l0,0V2.3l0,0l0,0l0,0c0-0.1,0-0.1,0-0.1c0-0.1,0.1-0.1,0.1-0.2L80,1
				c-0.1-0.3,0.1-0.5,0.3-0.6C80.7,0.1,81,0.2,81,0.5l0.4,1.4V2l0,0l0,0l0,0l0,0c0,0.1,0,0.1,0,0.2l0,0L98,57.5l40.5,43.5
				c0.2,0.2,0.2,0.5,0,0.7s-0.5,0.2-0.7,0l-0.6-0.6c-0.1,0-0.3,0-0.4,0l0,0h-0.1c-0.2,0.1-0.4,0.2-0.6,0c-0.2-0.1-0.3-0.4-0.2-0.7
				l0.2-0.4L97.8,58.7L92,74c0,0.1,0,0.1,0,0.2l0,0c0,0.1-0.1,0.1-0.1,0.2L91.5,75l0,0L81,93.1l-0.1,23.1v0.1c0,0.1,0,0.1-0.1,0.2
				c0,0.1-0.1,0.1-0.2,0.2l0,0l0,0l0,0l0,0l0,0l0,0l0,0l0,0l0,0l0,0l0,0l0,0l0,0l0,0l0,0l0,0l0,0l0,0l0,0l0,0h-0.1h-0.1l-21.8-0.1
				h-0.1c-0.1,0-0.1,0-0.2-0.1c-0.1,0-0.1-0.1-0.1-0.1c0-0.1-0.1-0.1-0.1-0.2v-0.1l0.1-22.9l0,0C58,93.1,58,93,58,93L47.3,74.2
				l-0.1-0.1c-0.1-0.1-0.1-0.2-0.1-0.3l-5.9-15.4l-38.6,41l0.1,0.2l0,0c0,0,0,0,0,0.1l0.1,0.2l0,0l0.3,0.5c0,0.1,0.1,0.2,0.1,0.3
				c0,0.2-0.1,0.3-0.2,0.4l0,0l0,0l0,0l0,0l0,0l0,0l0,0l0,0l0,0l0,0v0.1l0,0l0,0l0,0l0,0l0,0l0,0c0,0.1,0,0.2,0,0.3
				c0,0,0,0.1-0.1,0.1l0,0l0,0l0,0l0,0c0,0.1-0.1,0.1-0.2,0.1l-0.6,0.4c-0.1,0.1-0.3,0.1-0.5,0l9.2,16.1c0-0.2,0.1-0.3,0.2-0.4
				l0.4-0.2c0-0.1,0.1-0.2,0.2-0.2c0.2-0.1,0.5,0,0.7,0.2l0,0l0,0h0.1l8.6-4.9l0,0l0,0l6-3.4l-7.3-12.7c-0.2,0-0.3,0-0.5-0.1l0,0
				c-0.2,0.1-0.5,0.1-0.7-0.2c0,0,0-0.1-0.1-0.1l-0.1-0.1c-0.1-0.2-0.1-0.5,0.2-0.7l0,0c0-0.1,0-0.1,0-0.2s0.1-0.2,0.1-0.3l-1.3-2.2
				L11.8,96c0,0-0.1,0-0.1,0.1h-0.1l-2.3,1.3l0,0c-0.2,0.1-0.5,0.1-0.7-0.2l-0.3-0.5l0,0l0,0l-0.2-0.3C8,96.3,8,96,8.3,95.8
				c0.2-0.1,0.4-0.1,0.6,0l30-17.2l-0.7-1.3c-0.1-0.1-0.1-0.3,0-0.4s0.1-0.2,0.2-0.3l4.8-2.8c0.2-0.1,0.5-0.1,0.7,0.2l0.7,1.3
				l1.1-0.6l0,0l0,0l0,0l0,0c0,0,0.1,0,0.1-0.1l0,0l0,0l0,0l0,0l0,0l0,0l0,0l0,0c0.1,0,0.2,0,0.3,0l0,0l0,0l0,0l0,0l0,0l0,0l0,0l0,0
				l0,0l0,0l0,0l0,0l0,0l0,0l0,0l0,0l0,0l0,0l0,0l0,0l0,0l0,0l0,0l0,0l0,0l0,0l0,0l0,0l0,0l0,0l0,0l0,0l0,0l0,0l0,0l0,0l0,0l0,0l0,0
				l0,0l0,0l0,0l0,0c0.1,0,0.1,0.1,0.2,0.2l0.2,0.3l0.1,0.1c0.1,0.2,0.1,0.4,0,0.6c0,0.1-0.1,0.1-0.2,0.1h-0.1L45,76.6l-0.1,0.1
				l-4.8,2.8c-0.1,0-0.1,0.1-0.2,0.1l-2.1,1.2l0,0l0,0L29.2,86c0,0-0.1,0-0.1,0.1H29L20.5,91c0,0-0.1,0-0.1,0.1h-0.1l-1.4,0.8
				l1.3,2.2c0.1,0,0.2,0,0.4,0c0.1,0,0.1,0,0.2,0.1l0,0c0.2-0.1,0.5,0,0.7,0.2c0,0,0,0.1,0.1,0.1l0.1,0.1c0.1,0.2,0.1,0.5-0.2,0.7
				l0,0c0,0.1,0,0.1,0,0.2s-0.1,0.2-0.2,0.3l7.2,12.7l1.4-0.8c0,0,0,0,0.1,0c0,0,0,0,0.1,0l8.6-4.9c0,0,0,0,0.1,0c0,0,0,0,0.1,0
				l8.6-4.9c0,0,0.1,0,0.1-0.1h0.1l8.6-4.9c0.2-0.1,0.5-0.1,0.7,0.2l0.2,0.3l0,0c0.2-0.1,0.5-0.1,0.7,0.2l0,0C58,93.7,58,93.9,58,94
				s-0.1,0.3-0.2,0.3l-43.6,25c0,0.2-0.1,0.3-0.2,0.4l-0.4,0.2l-0.1,0.1C13,119.8,12.9,119.9,12.9,119.9z M59.3,115.6l20.3,0.1
				L69.5,94.1L59.3,115.6z M70.3,93.4l9.6,20.5L80,93.5L70.3,93.4z M59.1,93.4L59,113.8l9.7-20.4H59.1z M59.4,92.4l20.2,0.1
				l-0.3-0.6c-0.1-0.2-0.1-0.5,0.2-0.7c0.2-0.1,0.5-0.1,0.7,0.2l0.3,0.6l0.3-0.5c0,0,0,0,0-0.1L90.3,75c0,0,0,0,0-0.1l0.3-0.5h-0.7
				c-0.3,0-0.5-0.2-0.5-0.5s0.2-0.5,0.5-0.5l0,0h0.5l-9.9-17.3l-0.2,0.4c-0.1,0.2-0.4,0.3-0.7,0.2c-0.2-0.1-0.3-0.4-0.2-0.7l0.4-0.6
				l-19.7-0.1c0,0,0,0-0.1,0h-0.5l0.3,0.6c0.1,0.2,0.1,0.5-0.2,0.7c-0.2,0.1-0.5,0.1-0.7-0.2L58.7,56l-10,17.4h0.5
				c0.3,0,0.5,0.2,0.5,0.5s-0.2,0.5-0.5,0.5l0,0h-0.7l0.3,0.4c0,0,0,0,0.1,0.1l9.5,16.5l0,0l0.3,0.5l0.3-0.6
				c0.1-0.2,0.4-0.3,0.7-0.2c0.2,0.1,0.3,0.4,0.2,0.7L59.4,92.4z M39.2,77.3l0.5,0.9l4-2.3L43.2,75L39.2,77.3z M81.5,55.6l9.9,17.2
				L97,58.2L81.5,55.6z M42.1,58l5.7,14.7l10-17.1L42.1,58z M80.9,54.5l16,2.6L81.5,5.6l-0.1,19.2c0,0.3-0.2,0.5-0.5,0.5h-0.1
				c0,0-0.1,0-0.2,0l0,0c-0.3,0-0.5-0.2-0.5-0.5v-4C80,20.9,79.9,21,79.7,21l0,0h-2.5c-0.1,0.2-0.2,0.3-0.3,0.4l0,0
				c0,0.3-0.2,0.5-0.5,0.5c-0.1,0-0.1,0-0.1,0h-0.1c-0.3,0-0.5-0.2-0.5-0.5l0,0c-0.1-0.1-0.2-0.2-0.3-0.4l-15.7,0c0,0,0,0-0.1,0
				l-0.1,31.7c0,0.2-0.1,0.4-0.3,0.5v0.1c0,0.3-0.2,0.5-0.5,0.5s-0.5-0.2-0.5-0.5l0.1-28.5l0,0l0-20.8L42,57l16.3-2.5
				c0.1-0.1,0.3-0.1,0.4,0L79,54.6c0,0,0,0,0.1,0h1.2c0.1,0,0.1,0,0.2,0C80.7,54.4,80.8,54.5,80.9,54.5z M128.2,119.5
				c-0.1,0-0.2,0-0.3-0.1c-0.2-0.1-0.3-0.3-0.2-0.5c-0.2,0.1-0.4,0.1-0.5,0c-0.2-0.1-0.3-0.4-0.2-0.7l9.6-16.4l0,0l0,0l0,0l0,0
				c0,0,0-0.1,0.1-0.1l0,0l0,0l0,0l0,0l0,0l0,0l0,0l0,0l0,0l0,0l0,0l0,0l0,0l0,0c0.2-0.2,0.4-0.2,0.6-0.1l0.3,0.2
				c0.1,0,0.1,0.1,0.2,0.2c0,0,0.2,0,0.3,0.1c0.2,0.1,0.3,0.4,0.2,0.7l-9.6,16.4C128.6,119.5,128.4,119.5,128.2,119.5z M110.8,110.5
				c-0.1,0-0.2,0-0.3-0.1c-0.1,0-0.1-0.1-0.2-0.2c-0.1,0-0.1,0-0.2-0.1c-0.2-0.1-0.3-0.4-0.2-0.7l2.2-3.9c-0.1-0.1-0.1-0.2-0.1-0.3
				c0-0.1,0-0.1,0-0.2l0,0c-0.2-0.1-0.3-0.4-0.2-0.7c0,0,0-0.1,0.1-0.1c0-0.1,0-0.1,0.1-0.2c0.1-0.2,0.4-0.3,0.7-0.2l0,0
				c0.2-0.1,0.3-0.1,0.5-0.1l7.3-12.5c0.1-0.2,0.4-0.3,0.7-0.2c0.1,0,0.1,0.1,0.2,0.1s0.2,0,0.2,0.1c0.2,0.1,0.3,0.4,0.2,0.7
				l-7.3,12.5c0.1,0.2,0.2,0.3,0.2,0.5l0,0c0.2,0.1,0.3,0.4,0.2,0.7l-0.1,0.1c0,0,0,0.1-0.1,0.1c-0.1,0.2-0.5,0.3-0.7,0.2l0,0
				c-0.2,0.1-0.3,0.1-0.5,0.1l-2.3,3.9C111.1,110.4,111,110.5,110.8,110.5z M130,98c-0.1,0-0.2,0-0.3-0.1c-0.2-0.1-0.3-0.4-0.2-0.7
				l0.6-1c0.1-0.2,0.4-0.3,0.7-0.2c0.2,0.1,0.3,0.4,0.2,0.7l-0.3,0.5l0,0l0,0l0,0l0,0l-0.3,0.5C130.3,97.9,130.2,98,130,98z
				 M79.1,91.2c-0.2,0-0.3-0.1-0.4-0.3l-1.1-2c-0.1-0.2-0.1-0.5,0.2-0.7c0.2-0.1,0.5-0.1,0.7,0.2l1.1,2c0.1,0.2,0.1,0.5-0.2,0.7
				C79.3,91.1,79.2,91.2,79.1,91.2z M59.9,91.1c-0.1,0-0.2,0-0.2-0.1c-0.2-0.1-0.3-0.4-0.2-0.7l1.1-1.9c0.1-0.2,0.4-0.3,0.7-0.2
				c0.2,0.1,0.3,0.4,0.2,0.7l-1.1,1.9C60.2,91,60,91.1,59.9,91.1z M77.5,88.2c-0.2,0-0.3-0.1-0.4-0.3l-1.1-2
				c-0.1-0.2-0.1-0.5,0.2-0.7c0.2-0.1,0.5-0.1,0.7,0.2l1.1,2c0.1,0.2,0.1,0.5-0.2,0.7C77.6,88.2,77.6,88.2,77.5,88.2z M61.6,88.2
				c-0.1,0-0.2,0-0.2-0.1c-0.2-0.1-0.3-0.4-0.2-0.7l1.1-1.9c0.1-0.2,0.4-0.3,0.7-0.2c0.2,0.1,0.3,0.4,0.2,0.7L62,87.9
				C61.9,88.1,61.7,88.2,61.6,88.2z M75.8,85.3c-0.2,0-0.3-0.1-0.4-0.3l-1.1-2c-0.1-0.2-0.1-0.5,0.2-0.7c0.2-0.1,0.5-0.1,0.7,0.2
				l1.1,2c0.1,0.2,0.1,0.5-0.2,0.7C76,85.3,75.9,85.3,75.8,85.3z M63.3,85.3c-0.1,0-0.2,0-0.2-0.1c-0.2-0.1-0.3-0.4-0.2-0.7l1.1-1.9
				c0.1-0.2,0.4-0.3,0.7-0.2c0.2,0.1,0.3,0.4,0.2,0.7L63.7,85C63.6,85.2,63.4,85.3,63.3,85.3z M74.1,82.4c-0.2,0-0.3-0.1-0.4-0.3
				l-1.1-2c-0.1-0.2-0.1-0.5,0.2-0.7c0.2-0.1,0.5-0.1,0.7,0.2l1.1,2c0.1,0.2,0.1,0.5-0.2,0.7C74.3,82.4,74.2,82.4,74.1,82.4z
				 M64.9,82.4c-0.1,0-0.2,0-0.2-0.1c-0.2-0.1-0.3-0.4-0.2-0.7l1.1-1.9c0.1-0.2,0.4-0.3,0.7-0.2c0.2,0.1,0.3,0.4,0.2,0.7l-1.1,1.9
				C65.3,82.3,65.1,82.4,64.9,82.4z M99.2,80.2c-0.1,0-0.2,0-0.3-0.1l-4.8-2.8c-0.2-0.1-0.3-0.4-0.2-0.7l1.3-2.2
				c0.1-0.1,0.2-0.2,0.3-0.2c0.1,0,0.3,0,0.4,0.1l4.8,2.8c0.2,0.1,0.3,0.4,0.2,0.7L99.7,80c-0.1,0.1-0.2,0.2-0.3,0.2
				C99.3,80.2,99.3,80.2,99.2,80.2z M95.1,76.7L99,79l0.8-1.4l-3.9-2.3L95.1,76.7z M72.4,79.5c-0.2,0-0.3-0.1-0.4-0.3l-1.1-2
				c-0.1-0.2-0.1-0.5,0.2-0.7c0.2-0.1,0.5-0.1,0.7,0.2l1.1,2c0.1,0.2,0.1,0.5-0.2,0.7C72.6,79.4,72.5,79.5,72.4,79.5z M66.6,79.4
				c-0.1,0-0.2,0-0.2-0.1c-0.2-0.1-0.3-0.4-0.2-0.7l1.1-1.9c0.1-0.2,0.4-0.3,0.7-0.2c0.2,0.1,0.3,0.4,0.2,0.7l-1.1,1.9
				C67,79.3,66.8,79.4,66.6,79.4z M68.3,76.5c-0.1,0-0.2,0-0.2-0.1c-0.2-0.1-0.3-0.4-0.2-0.7l0.6-1l-0.1-0.2l-0.1-0.2h-1.1
				c-0.3,0-0.5-0.2-0.5-0.5s0.2-0.5,0.5-0.5h1.2c0.1-0.1,0.2-0.1,0.3-0.2L68,71.9c-0.1-0.2-0.1-0.5,0.2-0.7c0.2-0.1,0.5-0.1,0.7,0.2
				l0.6,1h0.3H70l0.6-1c0.1-0.2,0.4-0.3,0.7-0.2c0.2,0.1,0.3,0.4,0.2,0.7L70.7,73l0.1,0.1c0,0,0,0.1,0.1,0.1l0.1,0.2h1.1
				c0.3,0,0.5,0.2,0.5,0.5s-0.2,0.5-0.5,0.5l0,0h-1.2c-0.1,0.1-0.2,0.1-0.3,0.2l0.7,1.2c0.1,0.2,0.1,0.5-0.2,0.7
				c-0.2,0.1-0.5,0.1-0.7-0.2l-0.6-1h-0.1h-0.1h-0.2l-0.6,1C68.7,76.4,68.5,76.5,68.3,76.5z M69.6,74.1v0.2l0,0V74.1L69.6,74.1z
				 M69.9,74.2L69.9,74.2L69.9,74.2L69.9,74.2z M69.5,73.8L69.5,73.8L69.5,73.8l-0.1-0.2l0,0l0,0L69.5,73.8z M69.7,73.7L69.7,73.7
				L69.7,73.7L69.7,73.7L69.7,73.7z M88.8,74.5L88.8,74.5h-2.3c-0.3,0-0.5-0.2-0.5-0.5s0.2-0.5,0.5-0.5l0,0h2.3
				c0.3,0,0.5,0.2,0.5,0.5S89.1,74.5,88.8,74.5z M85.5,74.5L85.5,74.5h-2.3c-0.3,0-0.5-0.2-0.5-0.5s0.2-0.5,0.5-0.5l0,0h2.3
				c0.3,0,0.5,0.2,0.5,0.5S85.8,74.5,85.5,74.5z M82.1,74.5L82.1,74.5h-2.3c-0.3,0-0.5-0.2-0.5-0.5s0.2-0.5,0.5-0.5l0,0h2.3
				c0.3,0,0.5,0.2,0.5,0.5C82.6,74.2,82.4,74.5,82.1,74.5z M76.5,74.5c-0.3,0-0.5-0.2-0.5-0.5s0.2-0.5,0.5-0.5h2.3l0,0
				c0.3,0,0.5,0.2,0.5,0.5s-0.2,0.5-0.5,0.5H76.5L76.5,74.5z M75.4,74.5L75.4,74.5h-2.3c-0.3,0-0.5-0.2-0.5-0.5s0.2-0.5,0.5-0.5l0,0
				h2.3c0.3,0,0.5,0.2,0.5,0.5C75.9,74.2,75.6,74.5,75.4,74.5z M66,74.4L66,74.4h-2.2c-0.3,0-0.5-0.2-0.5-0.5s0.2-0.5,0.5-0.5l0,0
				H66c0.3,0,0.5,0.2,0.5,0.5C66.5,74.2,66.3,74.4,66,74.4z M62.6,74.4L62.6,74.4h-2.2c-0.3,0-0.5-0.2-0.5-0.5s0.2-0.5,0.5-0.5l0,0
				h2.2c0.3,0,0.5,0.2,0.5,0.5S62.9,74.4,62.6,74.4z M57,74.4c-0.3,0-0.5-0.2-0.5-0.5s0.2-0.5,0.5-0.5h2.2l0,0
				c0.3,0,0.5,0.2,0.5,0.5s-0.2,0.5-0.5,0.5H57L57,74.4z M55.9,74.4L55.9,74.4h-2.2c-0.3,0-0.5-0.2-0.5-0.5s0.2-0.5,0.5-0.5l0,0h2.2
				c0.3,0,0.5,0.2,0.5,0.5C56.4,74.2,56.2,74.4,55.9,74.4z M52.5,74.4L52.5,74.4h-2.3c-0.3,0-0.5-0.2-0.5-0.5s0.2-0.5,0.5-0.5l0,0
				h2.3c0.3,0,0.5,0.2,0.5,0.5C53,74.1,52.8,74.4,52.5,74.4z M71.3,71.4c-0.1,0-0.2,0-0.3-0.1c-0.2-0.1-0.3-0.4-0.2-0.7l1.1-1.9
				c0.1-0.2,0.4-0.3,0.7-0.2c0.2,0.1,0.3,0.4,0.2,0.7l-1.1,1.9C71.7,71.3,71.5,71.4,71.3,71.4z M67.8,71.3c-0.2,0-0.3-0.1-0.4-0.3
				l-1.1-2c-0.1-0.2-0.1-0.5,0.2-0.7c0.2-0.1,0.5-0.1,0.7,0.2l1.1,2c0.1,0.2,0.1,0.5-0.2,0.7C68,71.3,67.9,71.3,67.8,71.3z
				 M73.1,68.5c-0.1,0-0.2,0-0.2-0.1c-0.2-0.1-0.3-0.4-0.2-0.7l1.1-1.9c0.1-0.2,0.4-0.3,0.7-0.2c0.2,0.1,0.3,0.4,0.2,0.7l-1.1,1.9
				C73.4,68.4,73.2,68.5,73.1,68.5z M66.1,68.4c-0.2,0-0.3-0.1-0.4-0.3l-1.1-2c-0.1-0.2-0.1-0.5,0.2-0.7c0.2-0.1,0.5-0.1,0.7,0.2
				l1.1,2c0.1,0.2,0.1,0.5-0.2,0.7C66.3,68.4,66.2,68.4,66.1,68.4z M74.8,65.6c-0.1,0-0.2,0-0.3-0.1c-0.2-0.1-0.3-0.4-0.2-0.7
				l1.1-1.9c0.1-0.2,0.4-0.3,0.7-0.2c0.2,0.1,0.3,0.4,0.2,0.7l-1.1,1.9C75.1,65.5,74.9,65.6,74.8,65.6z M64.4,65.5
				c-0.2,0-0.3-0.1-0.4-0.3l-1.1-2c-0.1-0.2-0.1-0.5,0.2-0.7c0.2-0.1,0.5-0.1,0.7,0.2l1.1,2c0.1,0.2,0.1,0.5-0.2,0.7
				C64.6,65.5,64.5,65.5,64.4,65.5z M76.5,62.6c-0.1,0-0.2,0-0.3-0.1c-0.2-0.1-0.3-0.4-0.2-0.7l1.1-1.9c0.1-0.2,0.4-0.3,0.7-0.2
				c0.2,0.1,0.3,0.4,0.2,0.7l-1.1,1.9C76.8,62.6,76.6,62.6,76.5,62.6z M62.8,62.6c-0.2,0-0.3-0.1-0.4-0.3l-1.1-2
				c-0.1-0.2-0.1-0.5,0.2-0.7c0.2-0.1,0.5-0.1,0.7,0.2l1.1,2c0.1,0.2,0.1,0.5-0.2,0.7C62.9,62.5,62.9,62.6,62.8,62.6z M78.2,59.7
				c-0.1,0-0.2,0-0.3-0.1c-0.2-0.1-0.3-0.4-0.2-0.7l1.1-1.9c0.1-0.2,0.4-0.3,0.7-0.2c0.2,0.1,0.3,0.4,0.2,0.7l-1.1,1.9
				C78.5,59.7,78.3,59.7,78.2,59.7z M61.1,59.6c-0.2,0-0.3-0.1-0.4-0.3l-1.1-2c-0.1-0.2-0.1-0.5,0.2-0.7c0.2-0.1,0.5-0.1,0.7,0.2
				l1.1,2c0.1,0.2,0.1,0.5-0.2,0.7C61.3,59.6,61.2,59.6,61.1,59.6z M82.3,51.5L82.3,51.5h-2.6c-0.1,0-0.3-0.1-0.4-0.1
				s-0.1-0.2-0.1-0.4v-5.6c0-0.3,0.2-0.5,0.5-0.5l0,0h2.6c0.1,0,0.3,0.1,0.4,0.1s0.1,0.2,0.1,0.4V51C82.8,51.3,82.5,51.5,82.3,51.5z
				 M80.2,50.5h1.6v-4.6h-1.6V50.5z M79.3,1.1L79.3,1.1L60.3,1c-0.3,0-0.5-0.2-0.5-0.5S60,0,60.3,0l0,0l19,0.1
				c0.3,0,0.5,0.2,0.5,0.5S79.6,1.1,79.3,1.1z"/>
		</g>
	</g>
</g>
</svg>
