<?xml version="1.0" encoding="utf-8"?>
<!-- Generator: Adobe Illustrator 25.2.0, SVG Export Plug-In . SVG Version: 6.00 Build 0)  -->
<svg version="1.1" id="Layer_1" xmlns="http://www.w3.org/2000/svg" xmlns:xlink="http://www.w3.org/1999/xlink" x="0px" y="0px"
	 viewBox="0 0 446 65.3" style="enable-background:new 0 0 446 65.3;" xml:space="preserve">
<rect x="225.1" y="0.6" style="fill:#FFFFFF;" width="0.9" height="64.1"/>
<polygon style="fill:#FFFFFF;" points="142.5,16.7 142.5,16.7 142.5,16.7 "/>
<polygon style="fill:#FFFFFF;" points="95.3,16.7 95.3,16.7 95.3,16.7 "/>
<g>
	<path style="fill:#FFFFFF;" d="M94,16.4c-0.9,0.1-1.7,0.2-2.4,0.4v1.6H94V16.4z"/>
	<path style="fill:#FFFFFF;" d="M140.9,16.4c-0.9,0.1-1.7,0.2-2.4,0.4v1.6h2.4V16.4z"/>
	<path style="fill:#FFFFFF;" d="M70.6,31.3c3.9,0,5.7-2.2,5.7-5.8v-8.7h-2.4v8.4c0,2.7-0.9,4.2-3.3,4.2c-2.5,0-3.4-1.5-3.4-4.2v-8.4
		h-2.4v8.7C64.8,29,66.2,31.3,70.6,31.3"/>
	<path style="fill:#FFFFFF;" d="M83.8,19.1c-2.3,0-4.7,0.7-5.2,1V31h2.3v-9.7c0.4-0.2,1.6-0.5,2.9-0.5c2,0,2.7,1,2.7,3.1V31h2.3
		v-8.1C88.8,20.3,87,19.1,83.8,19.1"/>
</g>
<polygon style="fill:#FFFFFF;" points="104.3,19.4 101.2,29.4 98,19.4 95.6,19.4 99.6,31 102.7,31 106.7,19.4 "/>
<g>
	<path style="fill:#FFFFFF;" d="M112.9,31.3c2.5,0,4.2-0.7,4.5-0.9v-1.8c-0.3,0.3-2.2,1-3.8,1c-2.6,0-3.7-1.4-3.7-4h8v-0.7
		c0-3.7-2-5.8-5.2-5.8c-3.3,0-5.2,2-5.2,5.8C107.5,29.1,108.8,31.3,112.9,31.3 M112.7,20.7c1.9,0,2.9,1.5,2.9,3.5h-5.8
		C109.9,21.9,110.9,20.7,112.7,20.7"/>
	<path style="fill:#FFFFFF;" d="M126.5,20.9v-1.7c-0.2-0.1-1.3-0.1-1.5-0.1c-2.1,0-4.5,0.7-4.9,0.9v11h2.3v-9.7
		c0.4-0.1,1.7-0.5,2.9-0.5C125.6,20.8,126.3,20.9,126.5,20.9"/>
	<path style="fill:#FFFFFF;" d="M131.3,23.8c-1-0.4-1.7-0.8-1.7-1.5c0-0.8,0.7-1.5,2.7-1.5c1.6,0,3,0.6,3.6,0.9V20
		c-0.2-0.2-1.9-0.9-4.1-0.9c-2.5,0-4.5,1.2-4.5,3.3c0,2.4,2.6,3,5,3.9c1,0.4,1.7,0.9,1.7,1.6c0,0.9-0.8,1.7-2.9,1.7
		c-1.3,0-3.1-0.5-3.8-1v1.8c0.4,0.3,2,0.9,4.4,0.9c3.2,0,4.7-1.4,4.7-3.7C136.4,25.3,133.2,24.6,131.3,23.8"/>
	<path style="fill:#FFFFFF;" d="M161.6,23.8c-2.8,0-5.6,1-5.6,3.8c0,2.4,1.7,3.7,5,3.7c3.2,0,5-0.5,5.6-0.8v-7.4c0-2.8-1.6-4-5-4
		c-2.1,0-4.2,0.7-4.6,0.9v1.7c0.3-0.2,2.3-1,4-1c2.4,0,3.3,0.8,3.3,2.3v0.8H161.6z M164.2,29.3c-0.3,0.1-1.6,0.4-3.1,0.4
		c-1.7,0-2.8-0.8-2.8-2.2c0-1.7,1.5-2.3,4-2.3h1.9V29.3z"/>
</g>
<rect x="91.7" y="19.4" style="fill:#FFFFFF;" width="2.3" height="11.6"/>
<g>
	<path style="fill:#FFFFFF;" d="M148.7,31.3c2.4,0,4.4-0.6,5.2-1V15.9c-0.8,0.1-1.6,0.2-2.3,0.3v3.6c-0.3-0.2-1.8-0.7-3.5-0.7
		c-2.9,0-4.9,2-4.9,5.8C143.2,29.2,144.6,31.3,148.7,31.3 M148.8,20.8c1.1,0,2.4,0.4,2.9,0.6v7.6c-0.3,0.1-1.4,0.5-2.9,0.5
		c-2.2,0-3.2-1.4-3.2-4.7C145.6,22.2,146.6,20.8,148.8,20.8"/>
</g>
<rect x="138.5" y="19.4" style="fill:#FFFFFF;" width="2.3" height="11.6"/>
<g>
	<path style="fill:#FFFFFF;" d="M179.5,15.9c-0.8,0.1-1.6,0.2-2.3,0.3v3.6c-0.3-0.2-1.8-0.7-3.5-0.7c-2.9,0-4.9,2-4.9,5.8
		c0,4.3,1.4,6.4,5.5,6.4c2.4,0,4.4-0.6,5.2-1V15.9z M177.2,29.1c-0.3,0.1-1.4,0.5-2.9,0.5c-2.2,0-3.2-1.4-3.2-4.7
		c0-2.7,1.1-4.1,3.2-4.1c1.1,0,2.4,0.4,2.9,0.6V29.1z"/>
	<path style="fill:#FFFFFF;" d="M116.1,35.9h1.7l1.8-2.4c-0.8,0.1-1.7,0.2-2.3,0.4L116.1,35.9z"/>
	<path style="fill:#FFFFFF;" d="M148,41.4c1.7-0.3,2.9-1.5,2.9-3.3c0-2.4-1.9-3.6-5-3.6h-5V49h5.2c3.3,0,5.1-1.2,5.1-3.9
		C151.2,43,150,41.7,148,41.4 M143.1,36.2h2.6c1.8,0,2.9,0.6,2.9,2.2c0,1.5-1.3,2.3-2.8,2.3h-2.6V36.2z M145.7,47.4h-2.6v-5.1h2.6
		c2.1,0,3.2,0.9,3.2,2.6C148.9,46.7,147.7,47.4,145.7,47.4"/>
	<path style="fill:#FFFFFF;" d="M158.2,37.1c-3.3,0-5.2,2-5.2,5.8c0,4.2,1.2,6.4,5.3,6.4c2.5,0,4.2-0.7,4.5-0.9v-1.8
		c-0.3,0.3-2.2,1-3.8,1c-2.6,0-3.7-1.4-3.7-4h8v-0.7C163.3,39.2,161.4,37.1,158.2,37.1 M155.3,42.2c0-2.3,1-3.5,2.9-3.5
		c1.9,0,2.9,1.5,2.9,3.5H155.3z"/>
	<path style="fill:#FFFFFF;" d="M181,37.1c-3.6,0-5.6,1.7-5.6,5.8c0,4.3,1.2,6.4,5.6,6.4c3.7,0,5.6-1.5,5.6-6.4
		C186.6,38.7,184.6,37.1,181,37.1 M181,47.6c-2.3,0-3.2-1.2-3.2-4.7c0-2.9,0.9-4.1,3.2-4.1c2.3,0,3.2,1.2,3.2,4.1
		C184.2,46.3,183.2,47.6,181,47.6"/>
	<path style="fill:#FFFFFF;" d="M190.1,39.4L190.1,39.4c-1.2,0-2.2,0.9-2.2,2.1c0,1.2,1,2.2,2.2,2.2s2.1-0.9,2.1-2.2
		C192.2,40.3,191.3,39.4,190.1,39.4 M190.1,43.3c-1,0-1.7-0.8-1.7-1.8c0-1,0.7-1.8,1.7-1.8h0c1,0,1.7,0.8,1.7,1.8
		C191.8,42.5,191,43.3,190.1,43.3"/>
	<path style="fill:#FFFFFF;" d="M190.6,41.6L190.6,41.6c0.2-0.1,0.4-0.3,0.4-0.5c0-0.2-0.1-0.4-0.2-0.5c-0.1-0.1-0.3-0.2-0.7-0.2
		c-0.3,0-0.5,0-0.8,0.1v2.2h0.4v-0.9h0.3c0.3,0,0.4,0.1,0.5,0.4c0.1,0.3,0.1,0.5,0.2,0.6h0.4c-0.1-0.1-0.1-0.2-0.2-0.6
		C190.8,41.9,190.7,41.7,190.6,41.6 M190,41.4h-0.3v-0.7c0.1,0,0.2,0,0.3,0c0.4,0,0.5,0.2,0.5,0.4C190.6,41.3,190.3,41.4,190,41.4"
		/>
	<path style="fill:#FFFFFF;" d="M170.7,49h2.3V34.2c-0.8,0.1-1.6,0.2-2.3,0.3V49z"/>
	<path style="fill:#FFFFFF;" d="M165.6,49h2.3V34.2c-0.8,0.1-1.6,0.2-2.3,0.3V49z"/>
	<path style="fill:#FFFFFF;" d="M83.4,37.1c-2.3,0-4.7,0.7-5.2,1V49h2.3v-9.6c0.4-0.2,1.6-0.5,2.9-0.5c2,0,2.7,1,2.7,3.1V49h2.3
		v-8.1C88.4,38.3,86.6,37.1,83.4,37.1"/>
	<path style="fill:#FFFFFF;" d="M104.3,38.1v11h2.3v-9.7c0.4-0.1,1.7-0.5,2.9-0.5c0.3,0,0.9,0.1,1.2,0.1v-1.7
		c-0.2-0.1-1.3-0.1-1.5-0.1C107.1,37.1,104.7,37.8,104.3,38.1"/>
	<path style="fill:#FFFFFF;" d="M116.8,37.1c-3.3,0-5.2,2-5.2,5.8c0,4.2,1.3,6.4,5.3,6.4c2.5,0,4.2-0.7,4.5-0.9v-1.8
		c-0.3,0.3-2.2,1-3.8,1c-2.6,0-3.7-1.4-3.7-4h8v-0.7C122,39.2,120,37.1,116.8,37.1 M114,42.2c0-2.3,1-3.5,2.9-3.5
		c1.9,0,2.9,1.5,2.9,3.5H114z"/>
	<path style="fill:#FFFFFF;" d="M127.6,41.8c-1-0.4-1.7-0.8-1.7-1.5c0-0.8,0.7-1.5,2.7-1.5c1.6,0,3,0.6,3.6,0.9V38
		c-0.2-0.2-1.9-0.9-4.1-0.9c-2.5,0-4.5,1.2-4.5,3.3c0,2.4,2.6,3,5,3.9c1,0.4,1.7,0.9,1.7,1.6c0,0.9-0.8,1.7-2.9,1.7
		c-1.3,0-3.1-0.5-3.8-1v1.8c0.4,0.3,2,0.9,4.4,0.9c3.2,0,4.7-1.4,4.7-3.7C132.7,43.3,129.5,42.6,127.6,41.8"/>
</g>
<path style="fill:#FFFFFF;" d="M68.5,33.6L63.3,49h2.5l1.2-4h5.8l1.2,4h2.6l-5.1-15.4H68.5z M67.6,42.9l2.3-7.6l2.3,7.6H67.6z"/>
<g>
	<path style="fill:#FFFFFF;" d="M99.2,38c-0.3-0.2-1.8-0.7-3.5-0.7c-3,0-4.9,2-4.9,5.8c0,4.3,1.4,6.4,5.5,6.4c2.4,0,4.4-0.6,5.2-1
		V34.1c-0.8,0.1-1.6,0.2-2.3,0.3V38z M99.2,47.2c-0.3,0.1-1.4,0.5-2.9,0.5c-2.2,0-3.2-1.4-3.2-4.7c0-2.7,1-4.1,3.2-4.1
		c1.1,0,2.4,0.4,2.9,0.6V47.2z"/>
	<path style="fill:#FFFFFF;" d="M29.8,65.3c-5.7,0-11.2-1.8-16-5.1l-0.6,0.4v2.3c0,1.3-1,2.3-2.2,2.3H5.3c-1.7,0-3.1-1.5-3.1-3.3
		v-4.4c0-1.1,0.5-2.1,1.4-2.7L6.5,53C2.3,47.2,0,40,0,32.7C0,14.7,13.4,0,29.8,0c16.5,0,29.8,14.7,29.8,32.7
		c0,7.4-2.3,14.6-6.5,20.4l2.9,1.8c0.9,0.6,1.4,1.6,1.4,2.7v4.4c0,1.8-1.4,3.2-3.1,3.3h-5.8c-1.2,0-2.2-1-2.2-2.3v-2.3l-0.6-0.4
		C41,63.6,35.5,65.3,29.8,65.3 M13.9,60L13.9,60c4.8,3.4,10.3,5.1,16,5.1c5.7,0,11.2-1.8,15.9-5.1l0.1,0l0.8,0.5v2.4
		c0,1.2,0.9,2.1,2,2.1h5.8c1.6,0,2.9-1.4,2.9-3.1v-4.4c0-1-0.5-2-1.3-2.5l-3-1.9L53,53c4.2-5.7,6.5-13,6.5-20.3
		c0-17.9-13.3-32.5-29.7-32.5C13.5,0.2,0.2,14.8,0.2,32.7C0.2,40,2.5,47.2,6.7,53L6.7,53l-0.1,0.1l-3,1.9c-0.8,0.5-1.3,1.5-1.3,2.5
		v4.4c0,1.7,1.3,3.1,2.9,3.1H11c1.1,0,2-0.9,2-2.1v-2.4L13.9,60z"/>
</g>
<rect x="14.9" y="24.9" style="fill:#FFFFFF;" width="8.2" height="16.8"/>
<rect x="36.6" y="24.9" style="fill:#FFFFFF;" width="8.2" height="16.8"/>
<polygon style="fill:#FFFFFF;" points="29.9,19.8 25.4,24.9 25.4,41.7 34.3,41.7 34.3,24.9 "/>
<g>
	<path style="fill:#FFFFFF;" d="M29.8,56C18.1,56,8.7,45.5,8.7,32.7c0-12.9,9.5-23.3,21.2-23.3C41.5,9.4,51,19.8,51,32.7
		C51,45.5,41.5,56,29.8,56 M55.2,56.3l-4.4-2.8v0C55.3,48,58,40.7,58,32.7c0-17.1-12.6-31-28.2-31S1.6,15.6,1.6,32.7
		c0,8,2.7,15.3,7.3,20.7v0l-4.4,2.8C4,56.5,3.8,57,3.8,57.5v4.4c0,0.9,0.7,1.6,1.5,1.6H11c0.3,0,0.6-0.3,0.6-0.6v-3.2l2.3-1.5
		c4.5,3.4,10,5.4,15.9,5.4c5.9,0,11.4-2,15.9-5.4c0,0,0,0,0,0l2.3,1.4v3.2c0,0.3,0.3,0.6,0.6,0.6h5.8h0c0.8,0,1.5-0.7,1.5-1.6v-4.4
		C55.8,57,55.6,56.5,55.2,56.3"/>
	<path style="fill:#FFFFFF;" d="M323.3,24.5h3.6c3.4,0,5.2-1.8,5.2-5.3v-1.6h-3.6v1.6c0,1.2-0.4,1.7-1.6,1.7h-3.6
		c-1.1,0-1.6-0.5-1.6-1.7v-9c0-1.1,0.5-1.6,1.6-1.6h3.6c1.2,0,1.6,0.5,1.6,1.6v1.7h3.6v-1.7c0-3.4-1.8-5.3-5.2-5.3h-3.6
		c-3.3,0-5.1,1.9-5.1,5.3v9C318.2,22.7,320,24.5,323.3,24.5"/>
	<path style="fill:#FFFFFF;" d="M332,42.6h-3.6v1.7c0,1.1-0.4,1.5-1.6,1.5h-3.6c-1.1,0-1.6-0.4-1.6-1.5v-9c0-1.2,0.5-1.7,1.6-1.7
		h3.6c1.2,0,1.6,0.5,1.6,1.7v1.7h3.6v-1.7c0-3.4-1.8-5.3-5.2-5.3h-3.6c-3.3,0-5.1,1.9-5.1,5.3v9c0,3.3,1.8,5.2,5.1,5.2h3.6
		c3.4,0,5.2-1.9,5.2-5.2V42.6z"/>
	<path style="fill:#FFFFFF;" d="M396.3,24.5h3.5c3.4,0,5.2-1.8,5.2-5.3V4.9h-3.6v14.3c0,1.2-0.5,1.7-1.6,1.7h-3.5
		c-1.2,0-1.6-0.5-1.6-1.7V4.9h-3.6v14.3C391.1,22.7,393,24.5,396.3,24.5"/>
</g>
<polygon style="fill:#FFFFFF;" points="412.2,33.6 412.2,29.9 402.5,29.9 402.5,33.6 405.5,33.6 405.5,46 402.5,46 402.5,49.5 
	412.2,49.5 412.2,46 409.1,46 409.1,33.6 "/>
<g>
	<path style="fill:#FFFFFF;" d="M339.7,17.8h6.6v6.7h3.6V10.2c0-3.4-1.8-5.3-5.2-5.3h-3.6c-3.4,0-5.1,1.9-5.1,5.3v14.3h3.6V17.8z
		 M339.7,10.2c0-1.1,0.4-1.6,1.5-1.6h3.6c1.2,0,1.6,0.5,1.6,1.6v4h-6.6V10.2z"/>
	<path style="fill:#FFFFFF;" d="M414,24.5h3.6c3.4,0,5.2-1.8,5.2-5.3v-1.4c0-3.5-1.8-5.3-5.2-5.3H414c-1.1,0-1.6-0.5-1.6-1.6v-0.8
		c0-1.2,0.5-1.6,1.6-1.6h3.6c1.1,0,1.6,0.4,1.6,1.6v0.5h3.6v-0.5c0-3.4-1.8-5.3-5.2-5.3H414c-3.4,0-5.2,1.9-5.2,5.3V11
		c0,3.4,1.8,5.3,5.2,5.3h3.6c1.1,0,1.6,0.4,1.6,1.6v1.4c0,1.2-0.5,1.7-1.6,1.7H414c-1.1,0-1.6-0.5-1.6-1.7v-0.3l-3.6,0v0.3
		C408.8,22.7,410.6,24.5,414,24.5"/>
	<path style="fill:#FFFFFF;" d="M440.8,29.9h-3.6c-3.4,0-5.2,1.9-5.2,5.3v9c0,3.3,1.8,5.2,5.2,5.2h3.6c3.3,0,5.2-1.9,5.2-5.2v-9
		C446,31.9,444.1,29.9,440.8,29.9 M442.4,44.3c0,1.1-0.5,1.5-1.6,1.5h-3.6c-1.2,0-1.6-0.4-1.6-1.5v-9c0-1.2,0.4-1.7,1.6-1.7h3.6
		c1.1,0,1.6,0.5,1.6,1.7V44.3z"/>
</g>
<polygon style="fill:#FFFFFF;" points="357.8,14.3 360.2,20.7 363.5,20.7 365.9,14.3 365.9,24.5 369.5,24.5 369.5,4.9 365.5,4.9 
	361.8,14.8 358.1,4.9 354.2,4.9 354.2,24.5 357.8,24.5 "/>
<g>
	<path style="fill:#FFFFFF;" d="M377.3,17.9h5.1c3.3,0,5.1-1.9,5.1-5.3v-2.5c0-3.4-1.8-5.3-5.1-5.3h-8.8v19.5h3.6V17.9z M377.3,8.6
		h5.1c1.1,0,1.6,0.5,1.6,1.6v2.5c0,1.1-0.5,1.6-1.6,1.6h-5.1V8.6z"/>
</g>
<polygon style="fill:#FFFFFF;" points="422,43.5 418.2,29.9 414.4,29.9 420,49.5 424.2,49.5 429.8,29.9 426,29.9 "/>
<g>
	<path style="fill:#FFFFFF;" d="M383.4,49.5V35.3c0-3.4-1.8-5.3-5.1-5.3h-3.6c-3.4,0-5.1,1.9-5.1,5.3v14.2h3.6v-6.6h6.7v6.6H383.4z
		 M373.1,39.2v-4c0-1.2,0.4-1.7,1.5-1.7h3.6c1.1,0,1.6,0.5,1.6,1.7v4H373.1z"/>
</g>
<polygon style="fill:#FFFFFF;" points="353.4,49.5 366,49.5 366,46 357,46 357,41.4 363.9,41.4 363.9,37.7 357,37.7 357,33.6 
	366,33.6 366,29.9 353.4,29.9 "/>
<g>
	<path style="fill:#FFFFFF;" d="M311.2,22.5c-0.4,0-0.8,0.2-1,0.6l-5.1-0.6l2.2-15.3c0.5-0.1,0.7-0.6,0.7-1.2c0-0.6-0.5-1.2-1.2-1.2
		c-0.6,0-1.2,0.6-1.2,1.2c0,0.2,0.1,0.4,0.1,0.6L297,21.6l-23.9-2.6c-0.1-0.4-0.6-0.8-1.2-0.8c-0.6,0-1.2,0.6-1.2,1.2
		c0,0.3,0.1,0.5,0.1,0.6l-7.5,11.4h-0.1c-0.7,0-1.2,0.6-1.2,1.2c0,0.6,0.6,1.2,1.2,1.2c0.5,0,1-0.3,1.2-0.8l7-1.3v8.7
		c-0.3,0.2-0.6,0.6-0.6,1c0,0.7,0.5,1.2,1.2,1.2c0.5,0,1-0.3,1.2-0.8h0.1l-10.1,20.4c-0.7,0-1.2,0.6-1.2,1.2c0,0.7,0.6,1.2,1.2,1.2
		c0.7,0,1.2-0.6,1.2-1.2l-0.1-0.3l14-11.9l14.2,3.5c0.1,0.6,0.6,1,1.2,1c0.7,0,1.2-0.6,1.2-1.2c0-0.2-0.1-0.5-0.2-0.7l6.2-12.5
		l4.9,8.3c-0.1,0.1-0.1,0.4-0.1,0.6c0,0.6,0.5,1.2,1.2,1.2c0.7,0,1.2-0.5,1.2-1.2c0-0.4-0.1-0.8-0.4-1l4-24.4
		c0.5-0.1,0.8-0.6,0.8-1.2C312.5,23.1,311.9,22.5,311.2,22.5 M271.4,30.5l-6.9,1.3l6.9-10.5V30.5z M307.3,23.9l-2.4,0.4l0.1-0.7
		L307.3,23.9z M279.8,37.9L279.8,37.9l-0.6,1.9l-3.9,0.6l4-8.1l2.2,3.5l-0.2,0.1c-0.1-0.1-0.3-0.1-0.5-0.1c-0.7,0-1.2,0.6-1.2,1.2
		C279.5,37.4,279.6,37.7,279.8,37.9 M278.7,29.2l-1-1.7l1.2,1.7H278.7z M294.9,27.6l0.1-0.2l5.9-1.1l-0.4,1.6l-4.9,2.1l-0.7-1.1
		c0.1-0.2,0.1-0.4,0.1-0.6C295,27.9,294.9,27.7,294.9,27.6 M295,31.4l1.6,2.6l-3.8-1.5L295,31.4z M291.3,31.8l-1.1-0.4l3.1-2.1
		c0.1,0.1,0.3,0.1,0.5,0.1h0.1l0.6,1L291.3,31.8z M288.9,30.8l-4-1.6l6.8-1.2l1,0.3L288.9,30.8z M289.7,32.5l-3.4,1.5l2.7-1.8
		L289.7,32.5z M287.7,31.7l-3.4,2.2l-3.2-4l1.6-0.3L287.7,31.7z M283.3,34.6l-0.9,0.6l-2.5-4.1l0.3-0.5L283.3,34.6z M280.9,38.3
		c0.5-0.1,1-0.6,1-1.1l0.3-0.1l1.3,2.2l-3.1,0.5L280.9,38.3z M283.3,36.5l1.1-0.5l2.2,2.7l-1.8,0.3L283.3,36.5z M287.4,39.8l0.9,1.1
		c-0.1,0.1-0.1,0.3-0.1,0.5v0.3l-1.2,1l-1.6-2.6L287.4,39.8z M287.9,38.5l-2.4-3l5.7-2.5l6.3,2.6l0.5,0.9l-0.1,0.6L287.9,38.5z
		 M296.1,31l4-1.7l-1.5,5.5l-0.3-0.1L296.1,31z M301.4,28.7l1.8-0.8l-1.1,8c-0.2,0-0.3,0.1-0.4,0.2l-2.1-0.9L301.4,28.7z
		 M301.8,27.3l0.3-1.2l1.4-0.3l-0.1,0.8L301.8,27.3z M302.5,24.8l0.3-1.4l1,0.1l-0.1,1.1L302.5,24.8z M303.1,22.3l2-7.3l-1,7.3
		L303.1,22.3z M304.8,25.6l1.6-0.3l-1.7,0.7L304.8,25.6z M305.2,10L302,22.2l-3.7-0.4L305.2,10z M297.7,22.9l4,0.4l-0.5,1.8l-5.4,1
		L297.7,22.9z M296.4,22.7l-2.2,3.7l-2.4,0.4l-15.7-6.4L296.4,22.7z M289.8,27.2l-6.9,1.2l-0.9-0.3c-0.1-0.6-0.6-1.1-1.2-1.1
		c-0.6,0-1.1,0.4-1.2,1l-5.8-7.2L289.8,27.2z M272.6,21.4l4.9,8l-4.9,0.9V21.4z M273,40.8c-0.1-0.1-0.2-0.3-0.4-0.3v-8.9l5.6-1
		l0.4,0.8l-4.7,9.4L273,40.8z M265.1,61.3l9.6-19.7l4.1-0.6l-2.7,8c-0.5,0.1-1,0.6-1,1.2c0,0.6,0.5,1.2,1.2,1.2h0.4L265.1,61.3z
		 M278.3,50.2l-0.8-0.2c-0.1-0.2-0.1-0.3-0.3-0.5l2.8-8.6l4.2-0.6l2,3.2L278.3,50.2z M279.6,50.5l7.2-6.1l5.8,9.4L279.6,50.5z
		 M293.6,53.3l-5.9-9.7l1.3-1c0.1,0.1,0.3,0.1,0.5,0.1c0.6,0,1.2-0.6,1.2-1.2c0-0.6-0.6-1.2-1.2-1.2h-0.2l-0.5-0.6l8.9-1.3
		L293.6,53.3z M295.8,49.3l3-11.2l0.2-0.1l1.2,2.2L295.8,49.3z M299.6,36.9l-0.3-0.5l1,0.3L299.6,36.9z M300.9,39.1l-0.6-1.1
		l1.2-0.2L300.9,39.1z M306.6,48.6l-5-8.5l1-1.9c0.7,0,1.2-0.6,1.2-1.2c0-0.4-0.1-0.8-0.5-1l1.2-8.7l6-2.6l0.1,0.1L306.6,48.6z"/>
	<path style="fill:#FFFFFF;" d="M346.4,49.5h4l-3.8-8.3c2-0.6,3.3-2.3,3.3-5v-0.9c0-3.4-1.8-5.3-5.1-5.3h-8.7v19.5h3.6v-8.1h3.1
		L346.4,49.5z M339.7,33.6h5.1c1.2,0,1.6,0.5,1.6,1.7v0.9c0,1.1-0.4,1.6-1.6,1.6h-5.1V33.6z"/>
</g>
<polygon style="fill:#FFFFFF;" points="386.2,33.6 391.4,33.6 391.4,49.5 394.9,49.5 394.9,33.6 400.1,33.6 400.1,29.9 386.2,29.9 
	"/>
</svg>
