<?xml version="1.0" encoding="utf-8"?>
<!-- Generator: Adobe Illustrator 25.2.0, SVG Export Plug-In . SVG Version: 6.00 Build 0)  -->
<svg version="1.1" id="Layer_1" xmlns="http://www.w3.org/2000/svg" xmlns:xlink="http://www.w3.org/1999/xlink" x="0px" y="0px"
	 viewBox="0 0 1015.7 386.3" style="enable-background:new 0 0 1015.7 386.3;" xml:space="preserve">
<g>
	<g>
		<path style="fill:#FFFFFF;" d="M122.8,0C55,0,0,55,0,122.8c0,67.8,55,122.8,122.8,122.8c67.8,0,122.8-55,122.8-122.8
			C245.7,55,190.7,0,122.8,0z M185.6,112.7L212,67.1c8.4,13.4,13.9,28.9,15.5,45.5H185.6z M210.9,126.2l-73.2,68.7l39.9-68.7H210.9z
			 M122.8,17.7c31.4,0,59.6,13.8,78.9,35.6c-20.5,1.9-33.6,12.3-46.4,22.4c-14.8,11.8-28.8,22.9-55.6,22.9c-0.2,0-0.4,0-0.6,0
			c-0.4,0-36.8,2.6-65.7-31.2C52,37.6,85.1,17.7,122.8,17.7z M17.7,122.8c0-15.2,3.2-29.6,9-42.7c15.9,16.9,33.4,24.7,45.9,28.3
			c14.4,4.2,25.4,3.7,27.4,3.6c31.4-0.1,48.6-13.7,63.8-25.8c10.2-8.1,19.4-15.4,32.1-18.3l-92,158.3
			C54.9,217.3,17.7,174.4,17.7,122.8z M122.8,228c-0.2,0-0.3,0-0.5,0l105.4-99C224.6,184.2,178.9,228,122.8,228z"/>
	</g>
</g>
<g>
	<g>
		<g>
			<path style="fill:#FFFFFF;" d="M310,215V102.3h-40.6v-26h110.7v26h-40.4V215H310z"/>
		</g>
	</g>
	<g>
		<g>
			<path style="fill:#FFFFFF;" d="M414.6,215V76.3h98.2v26h-68.7v29.1h67.2v26h-67.2V189h68.7v26H414.6z"/>
		</g>
	</g>
	<g>
		<g>
			<path style="fill:#FFFFFF;" d="M544.9,145.8c0-42.9,32.2-71.8,74.1-71.8c30.4,0,48.1,16.4,57.8,33.9l-25.4,12.5
				c-5.8-11.2-18.3-20.2-32.5-20.2c-25.4,0-43.7,19.3-43.7,45.6c0,26.2,18.3,45.6,43.7,45.6c14.1,0,26.6-8.9,32.5-20.2l25.4,12.3
				c-9.8,17.3-27.5,34.1-57.8,34.1C577.1,217.5,544.9,188.4,544.9,145.8z"/>
		</g>
	</g>
	<g>
		<g>
			<path style="fill:#FFFFFF;" d="M805.8,215l-66.2-90.5V215h-29.5V76.3h30.4l64.3,87.2V76.3h29.5V215H805.8z"/>
		</g>
	</g>
	<g>
		<g>
			<path style="fill:#FFFFFF;" d="M870.7,145.8c0-41.8,30.6-71.8,72.6-71.8c41.8,0,72.4,30,72.4,71.8c0,41.8-30.6,71.8-72.4,71.8
				C901.3,217.5,870.7,187.6,870.7,145.8z M985.3,145.8c0-26-16.4-45.6-42-45.6c-25.8,0-42.2,19.6-42.2,45.6
				c0,25.8,16.4,45.6,42.2,45.6C968.9,191.3,985.3,171.5,985.3,145.8z"/>
		</g>
	</g>
</g>
<g>
	<g>
		<g>
			<g>
				<path style="fill:#FFFFFF;" d="M280.8,383.8V245.1H379v26h-68.7v29.1h67.2v26h-67.2v57.6H280.8z"/>
			</g>
		</g>
		<g>
			<g>
				<path style="fill:#FFFFFF;" d="M506.8,383.8l-8.7-23.5h-59.5l-8.7,23.5h-33.5l53.5-138.8h37l53.5,138.8H506.8z M468.3,274.6
					l-21.6,59.7h43.3L468.3,274.6z"/>
			</g>
		</g>
		<g>
			<g>
				<path style="fill:#FFFFFF;" d="M562.4,364.3l16.2-23.1c9.8,10.2,25,18.9,44.1,18.9c16.4,0,24.1-7.3,24.1-15.4
					c0-24.1-79.9-7.3-79.9-59.5c0-23.1,20-42.2,52.6-42.2c22.1,0,40.4,6.7,54.1,19.4l-16.4,22.1c-11.2-10.4-26.2-15.2-40.4-15.2
					c-12.5,0-19.6,5.4-19.6,13.7c0,21.8,79.7,7.1,79.7,58.9c0,25.4-18.3,44.5-55.5,44.5C594.6,386.3,575.5,377.4,562.4,364.3z"/>
			</g>
		</g>
		<g>
			<g>
				<path style="fill:#FFFFFF;" d="M760.2,383.8V271.1h-40.6v-26h110.7v26H790v112.8H760.2z"/>
			</g>
		</g>
	</g>
	<g>
		<g>
			<g>
				<path style="fill:#FFFFFF;" d="M870.7,278.2c-10.8,0-19.5-8.7-19.5-19.5c0-10.8,8.7-19.5,19.5-19.5c10.8,0,19.5,8.6,19.5,19.5
					C890.2,269.4,881.5,278.2,870.7,278.2z M870.7,242.2c-9.1,0-16.4,7.3-16.4,16.4c0,9,7.4,16.4,16.4,16.4
					c9.1,0,16.4-7.4,16.4-16.4C887.1,249.5,879.8,242.2,870.7,242.2z M875.9,269.9l-5.8-8.8h-3.7v8.8h-3.3v-22.3h9.1
					c3.8,0,7.4,2.7,7.4,6.8c0,5-4.4,6.6-5.7,6.6l6,8.9H875.9z M872.2,250.3h-5.8v7.9h5.8c1.9,0,4-1.6,4-3.9
					C876.3,251.9,874.2,250.3,872.2,250.3z"/>
			</g>
		</g>
	</g>
</g>
</svg>
