<svg xmlns="http://www.w3.org/2000/svg" width="280" height="61" viewBox="0 0 280 61">
  <g fill="none" fill-rule="evenodd" transform="translate(0 .5)">
    <g transform="translate(0 .435)">
      <g transform="translate(1.194)">
        <path fill="#F29100" d="M36.3327695,16.0385964 L42.1743008,16.6752636 L44.1212182,3.29071276 L36.3327695,16.0385964 Z M18.3931501,21.8554544 C18.4652437,21.8554544 18.537727,21.8680806 18.6078722,21.8975418 L34.5783616,28.1685608 L31.248416,22.7232196 C31.139691,22.5407134 31.139691,22.3142068 31.248416,22.1336137 L34.3994915,16.9786753 L10.8190338,14.4056062 L17.5931058,22.7193934 L17.8717379,22.1722575 C17.9722793,21.9736817 18.1776487,21.8554544 18.3931501,21.8554544 Z M36.3647245,28.8710374 L40.1810098,30.3701132 L42.0082907,17.8089445 L35.6722361,17.1183289 L32.4276337,22.4270775 L36.3647245,28.8710374 Z M37.3541607,30.491784 L44.7903249,42.6611575 L48.8813453,18.5584824 L43.167634,17.9352066 L41.2289002,31.2528003 C41.2039598,31.4253585 41.0983523,31.5776383 40.9452021,31.6660218 C40.789324,31.7540227 40.6034394,31.7658836 40.4358705,31.7012221 L37.3541607,30.491784 Z M17.8199084,24.8268231 L2.34861855,55.2119957 L26.4840022,35.4619205 L17.8199084,24.8268231 Z M0.582909515,57.9710145 C0.455868874,57.9710145 0.327659147,57.9304576 0.221272352,57.8481959 C0.00421211476,57.6786985 -0.0620360725,57.3856174 0.0622767024,57.1457193 L17.0190848,23.8438916 L9.03267095,14.0425069 C8.88575585,13.8630617 8.86393292,13.6113026 8.97577545,13.4096658 C9.08995615,13.208029 9.31831754,13.0913322 9.5501862,13.1173499 L35.0584662,15.899708 L44.6067784,0.278404463 C44.7501862,0.0434803819 45.0393401,-0.0571467084 45.3004359,0.0323846191 C45.5615317,0.124211622 45.7213067,0.383622904 45.6815578,0.652599499 L43.331306,16.8015257 L49.6221559,17.4883152 C49.7811515,17.5070632 49.9257285,17.586264 50.0215935,17.7125261 C50.1182379,17.838023 50.1591559,17.9956594 50.1310978,18.1506174 L45.6792196,44.3790877 C45.639081,44.6159248 45.4547552,44.8014919 45.2150926,44.8462575 C44.9730919,44.8910232 44.73265,44.7842743 44.6067784,44.5795766 L35.5693566,29.7893074 L18.6741204,23.1536586 L18.3939295,23.7019424 L27.7497323,35.1852916 C27.9473078,35.4274854 27.9126249,35.7825498 27.668286,35.9811257 L0.95584784,57.8393958 C0.848291959,57.9281619 0.71618528,57.9710145 0.582909515,57.9710145 Z"/>
        <path fill="#00ADB9" d="M40.2274014,21.2437431 L39.8946002,22.4272556 L44.594736,20.4720188 L40.2274014,21.2437431 Z M9.47017403,15.7387258 L1.82782568,26.8736594 L15.1254573,24.526694 L9.47017403,15.7387258 Z M17.0228921,25.3411867 L20.3766247,30.5528807 L38.5287121,22.9972491 L38.9577685,21.4670473 L17.0228921,25.3411867 Z M21.0005296,31.521794 L31.5367681,47.8945369 L38.1374563,24.3904405 L21.0005296,31.521794 Z M31.7483736,49.8550725 C31.5496281,49.8550725 31.3625735,49.7574242 31.253848,49.5889998 L19.9191204,31.9729443 L18.6222087,32.5137947 C18.3252595,32.6375583 17.9827158,32.5035757 17.8572334,32.2159296 C17.7305819,31.9282835 17.8677552,31.5971119 18.1623662,31.4729699 L19.2932669,31.0021386 L15.7898907,25.5591922 L0.686792792,28.2263533 C0.456871547,28.2649584 0.225781211,28.170338 0.096401799,27.9795831 C-0.0325879163,27.7903423 -0.0318085222,27.5439506 0.096791496,27.3554667 L9.00136851,14.3822471 C9.11087338,14.2225278 9.29753825,14.1332061 9.49628374,14.1309352 C9.69308073,14.1339631 9.87584864,14.2342607 9.98028744,14.3962509 L16.3600174,24.3086885 L39.297974,20.2581766 L44.5444651,1.57518098 C44.6290293,1.27428797 44.9485809,1.09715851 45.2599488,1.17966753 C45.5697579,1.26104111 45.7517464,1.57139616 45.6679616,1.87304613 L40.5668275,20.0337369 L49.4546476,18.4649299 C49.7414646,18.4145919 50.029061,18.5833947 50.1144046,18.8581725 C50.2013071,19.1348427 50.0582883,19.4274091 49.7870591,19.5405751 L39.503734,23.8215824 L32.3103167,49.4387425 C32.2491342,49.6552341 32.0620797,49.8179813 31.8321584,49.8497737 C31.8048796,49.8543155 31.776042,49.8550725 31.7483736,49.8550725 Z"/>
        <path fill="#E5332A" d="M9.51980647,15.3207739 L9.51980647,35.5802763 L16.2708213,34.6347414 L17.2650002,31.7040785 C17.305793,31.582983 17.3869901,31.4813085 17.4930514,31.4097175 L29.8913443,23.3081252 L9.51980647,15.3207739 Z M14.1255083,44.5344874 L30.8198662,48.6250775 L38.9928017,32.6012513 L17.1426218,35.6598642 L14.1255083,44.5344874 Z M31.1318341,49.8550725 C31.0848252,49.8550725 31.0370394,49.850122 30.9908075,49.8383171 L13.2354482,45.4880191 C13.078493,45.4491771 12.945625,45.3494067 12.8675359,45.2088902 C12.7902238,45.0706586 12.7758492,44.9069131 12.8267431,44.756115 L15.8593967,35.8407458 L9.02058025,36.7969431 C8.85196999,36.8201721 8.68374824,36.7725717 8.5574848,36.6640428 C8.43160986,36.5585602 8.3566288,36.400146 8.3566288,36.2348773 L8.3566288,14.4811024 C8.3566288,14.2914623 8.45375452,14.115912 8.6122637,14.0104294 C8.7731039,13.9045661 8.97512541,13.8840027 9.15344824,13.9536897 L31.3466762,22.6542857 C31.5475322,22.733112 31.6858392,22.9136129 31.7083724,23.1219123 C31.72974,23.3340198 31.6326143,23.5385112 31.4527374,23.6554179 L18.3042454,32.2486274 L17.5524923,34.4530982 L39.9279281,31.3221327 C40.1408277,31.2920492 40.3533388,31.3800148 40.4799907,31.5525187 C40.6062542,31.7219763 40.6245138,31.9504583 40.5277766,32.1378136 L31.6508739,49.5420521 C31.5506402,49.7362618 31.3466762,49.8550725 31.1318341,49.8550725 Z"/>
      </g>
      <g fill="#FFF">
        <path d="M47.5611559 1.1581464C47.5611559 1.80018608 47.0222119 2.31884058 46.36679 2.31884058 45.7106191 2.31884058 45.1735477 1.80018608 45.1735477 1.1581464 45.1735477.516834661 45.7106191 0 46.36679 0 47.0222119 0 47.5611559.516834661 47.5611559 1.1581464M11.9380411 13.9134075C11.9380411 14.555548 11.4040449 15.0724638 10.7440495 15.0724638 10.0866791 15.0724638 9.55043291 14.555548 9.55043291 13.9134075 9.55043291 13.2734512 10.0866791 12.7536232 10.7440495 12.7536232 11.4040449 12.7536232 11.9380411 13.2734512 11.9380411 13.9134075M51.3335769 18.5503606C51.3335769 19.1932291 50.7982488 19.7101449 50.1392105 19.7101449 49.4812968 19.7101449 48.9459687 19.1932291 48.9459687 18.5503606 48.9459687 17.9104043 49.4812968 17.3913043 50.1392105 17.3913043 50.7982488 17.3913043 51.3335769 17.9104043 51.3335769 18.5503606M20.8676959 22.2074846C20.8676959 22.8475414 20.330531 23.3652665 19.6718287 23.3652665 19.0127513 23.3652665 18.4800877 22.8475414 18.4800877 22.2074846 18.4800877 21.5652433 19.0127513 21.0464259 19.6718287 21.0464259 20.330531 21.0464259 20.8676959 21.5652433 20.8676959 22.2074846M33.4265152 23.1900442C33.4265152 23.830101 32.8894438 24.3478261 32.2325238 24.3478261 31.5729822 24.3478261 31.038907 23.830101 31.038907 23.1900442 31.038907 22.5478029 31.5729822 22.0289855 32.2325238 22.0289855 32.8894438 22.0289855 33.4265152 22.5478029 33.4265152 23.1900442M2.38760823 27.8275444C2.38760823 28.4673754 1.85111757 28.9855072 1.19324215 28.9855072.536490661 28.9855072 0 28.4673754 0 27.8275444 0 27.1840698.536490661 26.6666667 1.19324215 26.6666667 1.85111757 26.6666667 2.38760823 27.1840698 2.38760823 27.8275444M20.2946699 31.3043478C20.2946699 31.9470146 19.757505 32.4637681 19.0988027 32.4637681 18.4397253 32.4637681 17.9070617 31.9470146 17.9070617 31.3043478 17.9070617 30.6591337 18.4397253 30.1449275 19.0988027 30.1449275 19.757505 30.1449275 20.2946699 30.6591337 20.2946699 31.3043478M42.9769481 31.3043478C42.9769481 31.9470146 42.4406258 32.4637681 41.7825822 32.4637681 41.1264113 32.4637681 40.5893399 31.9470146 40.5893399 31.3043478 40.5893399 30.6591337 41.1264113 30.1449275 41.7825822 30.1449275 42.4406258 30.1449275 42.9769481 30.6591337 42.9769481 31.3043478M11.6276521 36.2358869C11.6276521 36.8786545 11.0936558 37.3962171 10.4336605 37.3962171 9.77629008 37.3962171 9.24004384 36.8786545 9.24004384 36.2358869 9.24004384 35.5931193 9.77629008 35.0773766 10.4336605 35.0773766 11.0936558 35.0773766 11.6276521 35.5931193 11.6276521 36.2358869M29.8451029 35.9411191C29.8451029 36.5838867 29.3103566 37.1014493 28.6503612 37.1014493 27.9937409 37.1014493 27.4574946 36.5838867 27.4574946 35.9411191 27.4574946 35.2983515 27.9937409 34.7826087 28.6503612 34.7826087 29.3103566 34.7826087 29.8451029 35.2983515 29.8451029 35.9411191M15.5194535 45.2181191C15.5194535 45.8607859 14.9828701 46.3768116 14.3247113 46.3768116 13.6673029 46.3768116 13.1318453 45.8607859 13.1318453 45.2181191 13.1318453 44.5739967 13.6673029 44.057971 14.3247113 44.057971 14.9828701 44.057971 15.5194535 44.5739967 15.5194535 45.2181191M47.5611559 44.2552107C47.5611559 44.8978775 47.0222119 45.4139032 46.36679 45.4139032 45.7106191 45.4139032 45.1735477 44.8978775 45.1735477 44.2552107 45.1735477 43.6110884 45.7106191 43.0950626 46.36679 43.0950626 47.0222119 43.0950626 47.5611559 43.6110884 47.5611559 44.2552107M34.2144259 49.2659007C34.2144259 49.9094973 33.6773545 50.424957 33.0204345 50.424957 32.3608929 50.424957 31.8268177 49.9094973 31.8268177 49.2659007 31.8268177 48.6237603 32.3608929 48.1061164 33.0204345 48.1061164 33.6773545 48.1061164 34.2144259 48.6237603 34.2144259 49.2659007M2.38760823 57.9710145C2.38760823 58.6159056 1.85111757 59.1304348 1.19324215 59.1304348.536490661 59.1304348 0 58.6159056 0 57.9710145 0 57.3279441.536490661 56.8115942 1.19324215 56.8115942 1.85111757 56.8115942 2.38760823 57.3279441 2.38760823 57.9710145"/>
      </g>
    </g>
    <path fill="#FFF" d="M183.074147,37.4751414 C183.074147,36.3572441 182.599092,35.8818515 181.494664,35.8818515 L177.977514,35.8818515 C176.868925,35.8818515 176.424128,36.3572441 176.424128,37.4751414 L176.424128,46.3877977 C176.424128,47.504932 176.868925,47.9498017 177.977514,47.9498017 L181.494664,47.9498017 C182.599092,47.9498017 183.074147,47.504932 183.074147,46.3877977 L183.074147,37.4751414 Z M186.643871,46.3877977 C186.643871,49.7392006 184.787902,51.5541623 181.494664,51.5541623 L177.977514,51.5541623 C174.680872,51.5541623 172.854026,49.7392006 172.854026,46.3877977 L172.854026,37.4751414 C172.854026,34.1515906 174.680872,32.2790171 177.977514,32.2790171 L181.494664,32.2790171 C184.787902,32.2790171 186.643871,34.1515906 186.643871,37.4751414 L186.643871,46.3877977 Z M72.4634105,20.1861189 L72.4634105,21.9121229 C72.4634105,25.3637381 70.5797245,27.2311213 67.2364506,27.2311213 L63.6675028,27.2311213 C60.3242289,27.2311213 58.4689441,25.3637381 58.4689441,21.9121229 L58.4689441,12.7405422 C58.4689441,9.31720277 60.3242289,7.39130435 63.6675028,7.39130435 L67.2364506,7.39130435 C70.5797245,7.39130435 72.4634105,9.31720277 72.4634105,12.7405422 L72.4634105,14.4370922 L68.838428,14.4370922 L68.838428,12.7405422 C68.838428,11.5898729 68.3602144,11.1013293 67.2364506,11.1013293 L63.6675028,11.1013293 C62.5452743,11.1013293 62.0939266,11.5898729 62.0939266,12.7405422 L62.0939266,21.9121229 C62.0939266,23.0623995 62.5452743,23.5226672 63.6675028,23.5226672 L67.2364506,23.5226672 C68.3602144,23.5226672 68.838428,23.0623995 68.838428,21.9121229 L68.838428,20.1861189 L72.4634105,20.1861189 Z M87.4977166,12.7405422 C87.4977166,11.5898729 87.0195029,11.1013293 85.8972744,11.1013293 L82.3283266,11.1013293 C81.2018762,11.1013293 80.7528313,11.5898729 80.7528313,12.7405422 L80.7528313,16.7941971 L87.4977166,16.7941971 L87.4977166,12.7405422 Z M77.1282326,12.7405422 C77.1282326,9.31720277 78.9827499,7.39130435 82.3283266,7.39130435 L85.8972744,7.39130435 C89.2405483,7.39130435 91.122699,9.31720277 91.122699,12.7405422 L91.122699,27.2311213 L87.4977166,27.2311213 L87.4977166,20.4460995 L80.7528313,20.4460995 L80.7528313,27.2311213 L77.1282326,27.2311213 L77.1282326,12.7405422 Z M98.196928,16.8802027 L98.196928,27.2311213 L94.6213156,27.2311213 L94.6213156,7.39130435 L98.5304499,7.39130435 L102.187455,17.3404704 L105.845975,7.39130435 L109.781988,7.39130435 L109.781988,27.2311213 L106.207511,27.2311213 L106.207511,16.8802027 L103.795629,23.3494777 L100.552024,23.3494777 L98.196928,16.8802027 Z M118.070456,11.1013293 L118.070456,16.8802027 L123.212878,16.8802027 C124.339774,16.8802027 124.815711,16.3916592 124.815711,15.2417753 L124.815711,12.7405422 C124.815711,11.5898729 124.339774,11.1013293 123.212878,11.1013293 L118.070456,11.1013293 Z M114.44681,7.39130435 L123.212878,7.39130435 C126.558638,7.39130435 128.441276,9.31720277 128.441276,12.7405422 L128.441276,15.2417753 C128.441276,18.6627584 126.558638,20.5910131 123.212878,20.5910131 L118.070456,20.5910131 L118.070456,27.2311213 L114.44681,27.2311213 L114.44681,7.39130435 Z M131.939893,7.39130435 L135.563909,7.39130435 L135.563909,21.9118354 C135.563909,23.0620893 136.015232,23.5223479 137.140469,23.5223479 L140.706151,23.5223479 C141.830237,23.5223479 142.308808,23.0620893 142.308808,21.9118354 L142.308808,7.39130435 L145.934359,7.39130435 L145.934359,21.9118354 C145.934359,25.3633824 144.051544,27.2311213 140.706151,27.2311213 L137.140469,27.2311213 C133.795076,27.2311213 131.939893,25.3633824 131.939893,21.9118354 L131.939893,7.39130435 Z M153.057986,21.5957022 L153.057986,21.9118354 C153.057986,23.0620893 153.537072,23.5223479 154.660315,23.5223479 L158.230046,23.5223479 C159.35444,23.5223479 159.804351,23.0620893 159.804351,21.9118354 L159.804351,20.4458411 C159.804351,19.2948018 159.35444,18.807446 158.230046,18.807446 L154.660315,18.807446 C151.260644,18.807446 149.432976,16.9369582 149.432976,13.4869821 L149.432976,12.7113756 C149.432976,9.29046022 151.260644,7.39130435 154.660315,7.39130435 L158.230046,7.39130435 C161.575205,7.39130435 163.427442,9.29046022 163.427442,12.7113756 L163.427442,13.2568528 L159.804351,13.2568528 L159.804351,12.7113756 C159.804351,11.5607291 159.35444,11.0721952 158.230046,11.0721952 L154.660315,11.0721952 C153.537072,11.0721952 153.057986,11.5607291 153.057986,12.7113756 L153.057986,13.4869821 C153.057986,14.6372359 153.537072,15.0974945 154.660315,15.0974945 L158.230046,15.0974945 C161.575205,15.0974945 163.427442,16.9950795 163.427442,20.4458411 L163.427442,21.9118354 C163.427442,25.3633824 161.575205,27.2311213 158.230046,27.2311213 L154.660315,27.2311213 C151.260644,27.2311213 149.432976,25.3633824 149.432976,21.9118354 L149.432976,21.5957022 L153.057986,21.5957022 Z M72.4634105,44.6926966 L72.4634105,46.4214154 C72.4634105,49.8709988 70.5797245,51.7391304 67.2364506,51.7391304 L63.6675028,51.7391304 C60.3242289,51.7391304 58.4689441,49.8709988 58.4689441,46.4214154 L58.4689441,37.24766 C58.4689441,33.8267446 60.3242289,31.8993135 63.6675028,31.8993135 L67.2364506,31.8993135 C70.5797245,31.8993135 72.4634105,33.8267446 72.4634105,37.24766 L72.4634105,38.9441764 L68.838428,38.9441764 L68.838428,37.24766 C68.838428,36.0970135 68.3602144,35.6076942 67.2364506,35.6076942 L63.6675028,35.6076942 C62.5452743,35.6076942 62.0939266,36.0970135 62.0939266,37.24766 L62.0939266,46.4214154 C62.0939266,47.5712766 62.5452743,48.0291789 63.6675028,48.0291789 L67.2364506,48.0291789 C68.3602144,48.0291789 68.838428,47.5712766 68.838428,46.4214154 L68.838428,44.6926966 L72.4634105,44.6926966 Z M80.653542,35.6076942 L80.653542,39.8364184 L85.6292195,39.8364184 C86.749195,39.8364184 87.1882253,39.3745889 87.1882253,38.1964525 L87.1882253,37.24766 C87.1882253,36.0970135 86.749195,35.6076942 85.6292195,35.6076942 L80.653542,35.6076942 Z M83.7159282,43.5161311 L80.653542,43.5161311 L80.653542,51.7391304 L77.1282326,51.7391304 L77.1282326,31.8993135 L85.6292195,31.8993135 C88.9096276,31.8993135 90.712788,33.8267446 90.712788,37.24766 L90.712788,38.1964525 C90.712788,40.8716076 89.481935,42.6525571 87.4872588,43.3150625 L91.122699,51.7391304 L87.2412375,51.7391304 L83.7159282,43.5161311 Z M93.4551101,31.8993135 L106.283371,31.8993135 L106.283371,35.5526422 L97.1503281,35.5526422 L97.1503281,39.7777484 L104.164555,39.7777484 L104.164555,43.4298989 L97.1503281,43.4298989 L97.1503281,48.0873726 L106.283371,48.0873726 L106.283371,51.7391304 L93.4551101,51.7391304 L93.4551101,31.8993135 Z M120.150135,37.24766 C120.150135,36.0970135 119.671948,35.6076942 118.549013,35.6076942 L114.981029,35.6076942 C113.856943,35.6076942 113.407155,36.0970135 113.407155,37.24766 L113.407155,41.3012347 L120.150135,41.3012347 L120.150135,37.24766 Z M109.781988,37.24766 C109.781988,33.8267446 111.637938,31.8993135 114.981029,31.8993135 L118.549013,31.8993135 C121.893639,31.8993135 123.776454,33.8267446 123.776454,37.24766 L123.776454,51.7391304 L120.150135,51.7391304 L120.150135,44.9534575 L113.407155,44.9534575 L113.407155,51.7391304 L109.781988,51.7391304 L109.781988,37.24766 Z M127.275071,31.8993135 L141.269537,31.8993135 L141.269537,35.5526422 L136.088581,35.5526422 L136.088581,51.7391304 L132.456796,51.7391304 L132.456796,35.5526422 L127.275071,35.5526422 L127.275071,31.8993135 Z M143.601948,31.8993135 L152.931592,31.8993135 L152.931592,35.5526422 L149.991724,35.5526422 L149.991724,48.0873726 L152.931592,48.0873726 L152.931592,51.7391304 L143.601948,51.7391304 L143.601948,48.0873726 L146.484609,48.0873726 L146.484609,35.5526422 L143.601948,35.5526422 L143.601948,31.8993135 Z M155.264003,31.8993135 L158.970181,31.8993135 L162.816941,45.6435734 L166.692044,31.8993135 L170.424675,31.8993135 L164.862953,51.7391304 L160.769417,51.7391304 L155.264003,31.8993135 Z"/>
    <polygon fill="#FFF" points="204.485 52.96 205.094 52.96 205.094 5.301 204.485 5.301"/>
    <g fill="#FFF" transform="translate(220.786 3.478)">
      <polygon points="37.366 35.243 37.374 35.247 37.374 35.243"/>
      <polygon points="15.845 35.243 15.852 35.247 15.852 35.243"/>
      <path d="M14.1690188 35.3083921L14.1690188 36.0344993 15.2693362 36.0344993 15.2693362 35.1385316C14.8744944 35.173997 14.4908803 35.2393279 14.1690188 35.3083921M35.5481104 35.3083921L35.5481104 36.0344993 36.6484278 36.0344993 36.6484278 35.1385316C36.253586 35.173997 35.8699719 35.2393279 35.5481104 35.3083921M4.59232798 41.7869852C2.5863072 41.7869852 1.95381184 40.7715551 1.95381184 39.1961453L1.95381184 35.3061522 3.05412921 35.3061522 3.05412921 39.0636167C3.05412921 40.2731731 3.47142644 40.9339493 4.59232798 40.9339493 5.68328891 40.9339493 6.10058614 40.2526405 6.10058614 39.0636167L6.10058614 35.3061522 7.21025995 35.3061522 7.21025995 39.1849457C7.21025995 40.7808881 6.37566548 41.7869852 4.59232798 41.7869852M11.8463761 41.6665895L11.8463761 38.4952372C11.8463761 37.5395383 11.4983165 37.1139537 10.5926131 37.1139537 10.0125138 37.1139537 9.47171155 37.2744812 9.28832532 37.3472786L9.28832532 41.6665895 8.227305 41.6665895 8.227305 36.7667662C8.4930279 36.6753028 9.55217693 36.3393149 10.6225537 36.3393149 12.0802871 36.3393149 12.9036538 36.8880952 12.9036538 38.04912L12.9036538 41.6665895 11.8463761 41.6665895z"/>
      <polygon points="19.214 41.667 17.818 41.667 15.974 36.463 17.093 36.463 18.542 40.926 19.977 36.463 21.047 36.463"/>
      <path d="M22.4947535 39.267636C22.5153377 40.4473268 22.9943874 41.0558382 24.1976257 41.0558382 24.9105864 41.0558382 25.765765 40.7403829 25.9079829 40.5985214L25.9079829 41.3918261C25.7863492 41.4832895 25.011636 41.7875452 23.8701503 41.7875452 22.0063474 41.7875452 21.4356045 40.8225133 21.4356045 38.9316481 21.4356045 37.2442423 22.3207238 36.3408082 23.8083977 36.3408082 25.2661311 36.3408082 26.1624781 37.2759745 26.1624781 38.9316481L26.1624781 39.267636 22.4947535 39.267636zM23.8083977 37.0519826C22.9625756 37.0519826 22.5153377 37.5988962 22.4947535 38.6161928L25.1332697 38.6161928C25.1126855 37.7127588 24.6766754 37.0519826 23.8083977 37.0519826zM29.5558718 37.0911812C29.0057132 37.0911812 28.4162574 37.2759745 28.2515841 37.3151731L28.2515841 41.6662162 27.192435 41.6662162 27.192435 36.7570599C27.3758213 36.6655965 28.4761386 36.3408082 29.4230104 36.3408082 29.4941193 36.3408082 30.004981 36.3501412 30.0854464 36.3912064L30.0854464 37.1415794C29.9843968 37.1229134 29.6793768 37.0911812 29.5558718 37.0911812M32.4305445 41.7869852C31.3302272 41.7869852 30.6266229 41.5144617 30.4338802 41.3912661L30.4338802 40.5979614C30.7800685 40.8331529 31.5734946 41.0552782 32.1760494 41.0552782 33.1135647 41.0552782 33.4803371 40.7211569 33.4803371 40.3049053 33.4803371 39.9595844 33.1322775 39.7449255 32.6962674 39.5713317 31.6258907 39.1550801 30.4226525 38.9012226 30.4226525 37.8353943 30.4226525 36.8684959 31.3302272 36.3402482 32.492297 36.3402482 33.5308619 36.3402482 34.2737632 36.6557035 34.3766841 36.7266343L34.3766841 37.4994064C34.1016047 37.3463453 33.4391688 37.0812882 32.726208 37.0812882 31.8092769 37.0812882 31.4930292 37.3967435 31.4930292 37.753264 31.4930292 38.0780522 31.8485739 38.270312 32.2864553 38.4439057 33.1528617 38.7910932 34.5806545 39.1140149 34.5806545 40.1406445 34.5806545 41.1467416 33.8770502 41.7869852 32.4305445 41.7869852M45.7999619 41.7869852C44.3328721 41.7869852 43.5375747 41.2083394 43.5375747 40.1406445 43.5375747 38.890023 44.7913377 38.4345727 46.0843977 38.4345727L47.2969924 38.4345727 47.2969924 38.0780522C47.2969924 37.4284757 46.8796951 37.0626222 45.7793778 37.0626222 45.014021 37.0626222 44.1083175 37.4172761 43.9548719 37.4882069L43.9548719 36.7266343C44.1289017 36.6669031 45.0645457 36.3402482 46.0338729 36.3402482 47.6225965 36.3402482 48.3355572 36.8572963 48.3355572 38.1284504L48.3355572 41.4416643C48.1016462 41.5424607 47.2352399 41.7869852 45.7999619 41.7869852zM47.2969924 39.0748163L46.4418137 39.0748163C45.2797439 39.0748163 44.5967237 39.3286738 44.5967237 40.1126455 44.5967237 40.7323565 45.1057141 41.0870104 45.8804273 41.0870104 46.5746752 41.0870104 47.1641309 40.9656815 47.2969924 40.9022171L47.2969924 39.0748163z"/>
      <polygon points="14.19 41.667 15.249 41.667 15.249 36.463 14.19 36.463"/>
      <path d="M41.5401618,36.6665298 C41.3979439,36.5937324 40.7149238,36.3398749 39.949567,36.3398749 C38.6059822,36.3398749 37.6984075,37.224643 37.6984075,38.9325814 C37.6984075,40.8533122 38.3496157,41.7866119 40.2152899,41.7866119 C41.2950231,41.7866119 42.2025978,41.5252879 42.5993109,41.3516942 L42.5993109,34.895127 C42.2287958,34.9175262 41.8601521,34.9753908 41.5401618,35.0388552 L41.5401618,36.6665298 Z M41.5401618,40.7917144 C41.3979439,40.8533122 40.8870823,41.0362389 40.2246463,41.0362389 C39.2366063,41.0362389 38.7893684,40.4258609 38.7893684,38.9325814 C38.7893684,37.7118255 39.2684182,37.1014475 40.2358741,37.1014475 C40.7560921,37.1014475 41.326835,37.2750412 41.5401618,37.3777042 L41.5401618,40.7917144 Z"/>
      <polygon points="35.568 41.667 36.629 41.667 36.629 36.463 35.568 36.463"/>
      <path d="M53.2083913 36.6665298C53.0643021 36.5937324 52.3831533 36.3398749 51.6177965 36.3398749 50.2723404 36.3398749 49.3666369 37.224643 49.3666369 38.9325814 49.3666369 40.8533122 50.0178452 41.7866119 51.8835194 41.7866119 52.9632526 41.7866119 53.8708273 41.5252879 54.2675403 41.3516942L54.2675403 34.895127C53.8970253 34.9175262 53.5283815 34.9753908 53.2083913 35.0388552L53.2083913 36.6665298zM53.2083913 40.7917144C53.0643021 40.8533122 52.5553118 41.0362389 51.8928758 41.0362389 50.9048357 41.0362389 50.4557266 40.4258609 50.4557266 38.9325814 50.4557266 37.7118255 50.9347763 37.1014475 51.9041035 37.1014475 52.4224503 37.1014475 52.9931932 37.2750412 53.2083913 37.3777042L53.2083913 40.7917144zM37.7610956 49.7254456L35.3770747 49.7254456 35.3770747 43.2558122 37.6357193 43.2558122C39.0578983 43.2558122 39.9149482 43.7989926 39.9149482 44.8741538 39.9149482 45.6525258 39.3816311 46.1957062 38.6087891 46.3301013 39.5332054 46.4626299 40.0777502 47.0151433 40.0777502 47.967109 40.0777502 49.1729322 39.2674825 49.7254456 37.7610956 49.7254456M37.5608678 43.9987187L36.3969267 43.9987187 36.3969267 45.9866471 37.5889371 45.9866471C38.3037692 45.9866471 38.8857398 45.6730584 38.8857398 44.9786834 38.8857398 44.2563095 38.3992049 43.9987187 37.5608678 43.9987187M37.568353 46.7108876L36.3969267 46.7108876 36.3969267 48.9844056 37.5889371 48.9844056C38.503997 48.9844056 39.0186012 48.6876163 39.0186012 47.8607128 39.0186012 47.0898073 38.5339376 46.7108876 37.568353 46.7108876M41.9514709 47.3264921C41.9701838 48.5061829 42.4511049 49.1165609 43.6524718 49.1165609 44.3654325 49.1165609 45.2224824 48.8011056 45.3647003 48.659244L45.3647003 49.4525487C45.2430666 49.5421455 44.4683534 49.8482678 43.3268677 49.8482678 41.4611935 49.8482678 40.8923219 48.8832359 40.8923219 46.9923708 40.8923219 45.304965 41.7774412 44.3996643 43.2651152 44.3996643 44.7228485 44.3996643 45.6191955 45.3348306 45.6191955 46.9923708L45.6191955 47.3264921 41.9514709 47.3264921zM43.2651152 45.1108386C42.419293 45.1108386 41.9701838 45.6596189 41.9514709 46.6750489L44.5899871 46.6750489C44.5694029 45.7716148 44.1315215 45.1108386 43.2651152 45.1108386zM53.6698509 49.8475212C51.682543 49.8475212 51.1230279 48.9328875 51.1230279 46.9916242 51.1230279 45.1511572 52.0306026 44.3989177 53.6698509 44.3989177 55.3409111 44.3989177 56.2372581 45.1212916 56.2372581 46.9916242 56.2372581 49.168079 55.3409111 49.8475212 53.6698509 49.8475212M53.6698509 45.1623568C52.6200583 45.1623568 52.2121175 45.711137 52.2121175 46.9916242 52.2121175 48.5371684 52.6200583 49.0971482 53.6698509 49.0971482 54.6784752 49.0971482 55.1369407 48.4942366 55.1369407 46.9916242 55.1369407 45.7223366 54.7102871 45.1623568 53.6698509 45.1623568M57.8327183 45.4108012C58.3753918 45.4108012 58.7983029 45.8326526 58.7983029 46.3683666 58.7983029 46.9152802 58.3753918 47.3333985 57.8271044 47.3333985 57.2769457 47.3333985 56.8446782 46.9152802 56.8446782 46.3683666 56.8446782 45.8326526 57.2769457 45.4108012 57.8271044 45.4108012L57.8327183 45.4108012zM57.8214906 45.5787951C57.3854805 45.5787951 57.0542625 45.933449 57.0542625 46.3683666 57.0542625 46.8126173 57.3854805 47.1598048 57.8327183 47.1598048 58.2612433 47.1654046 58.5849761 46.8126173 58.5849761 46.3739664 58.5849761 45.933449 58.2612433 45.5787951 57.8271044 45.5787951L57.8214906 45.5787951zM57.6512034 46.8966142L57.4640746 46.8966142 57.4640746 45.8923838C57.5669954 45.8737178 57.6755301 45.8606516 57.8140054 45.8606516 57.9824213 45.8606516 58.0666293 45.8923838 58.1283818 45.9390488 58.188263 45.9819806 58.2294314 46.0603777 58.2294314 46.1555743 58.2294314 46.2769033 58.1396095 46.3553004 58.0366887 46.3888992L58.0366887 46.4019654C58.1208967 46.4392974 58.1695501 46.5176946 58.1994908 46.6502231 58.2294314 46.7995511 58.2537581 46.8592823 58.2780848 46.8966142L58.0872135 46.8966142C58.0554016 46.8592823 58.0310748 46.7696855 58.0011342 46.6371569 57.9768075 46.5232944 57.9113124 46.4747628 57.7728371 46.4747628L57.6512034 46.4747628 57.6512034 46.8966142zM57.6512034 46.3310346L57.7784509 46.3310346C57.9113124 46.3310346 58.0366887 46.2881029 58.0366887 46.1742403 58.0366887 46.0771771 57.9711936 46.0043798 57.7952925 46.0043798 57.7223123 46.0043798 57.681144 46.0118462 57.6512034 46.017446L57.6512034 46.3310346zM48.9925665 49.7254456L50.0517155 49.7254456 50.0517155 43.1083509C49.6812005 43.1326166 49.3125567 43.1886146 48.9925665 43.252079L48.9925665 49.7254456zM46.6487782 49.7254456L47.7079272 49.7254456 47.7079272 43.1083509C47.3392835 43.1326166 46.9687684 43.1886146 46.6487782 43.252079L46.6487782 49.7254456zM10.3834031 49.7254456L10.3834031 46.5559599C10.3834031 45.600261 10.0372148 45.1728097 9.12964009 45.1728097 8.5495408 45.1728097 8.00873856 45.3352039 7.82722362 45.4061347L7.82722362 49.7254456 6.7662033 49.7254456 6.7662033 44.8274889C7.0319262 44.7360255 8.09107523 44.398171 9.16145199 44.398171 10.6173141 44.398171 11.4425521 44.9488178 11.4425521 46.107976L11.4425521 49.7254456 10.3834031 49.7254456zM21.0630311 45.1519038C20.5128724 45.1519038 19.9234166 45.3348306 19.7587433 45.3758958L19.7587433 49.7250723 18.6995943 49.7250723 18.6995943 44.8159159C18.8829805 44.7244526 19.9832979 44.3996643 20.9301696 44.3996643 21.0012786 44.3996643 21.5121402 44.4108639 21.5926056 44.4500625L21.5926056 45.202302C21.491556 45.183636 21.1846648 45.1519038 21.0630311 45.1519038M23.1014251 47.3264921C23.1220093 48.5061829 23.601059 49.1165609 24.802426 49.1165609 25.517258 49.1165609 26.3724366 48.8011056 26.5146545 48.659244L26.5146545 49.4525487C26.3930208 49.5421455 25.6183075 49.8482678 24.4768218 49.8482678 22.6111477 49.8482678 22.0422761 48.8832359 22.0422761 46.9923708 22.0422761 45.304965 22.9273953 44.3996643 24.4150693 44.3996643 25.8728027 44.3996643 26.7691497 45.3348306 26.7691497 46.9923708L26.7691497 47.3264921 23.1014251 47.3264921zM24.4150693 45.1108386C23.5692471 45.1108386 23.1220093 45.6596189 23.1014251 46.6750489L25.7399413 46.6750489C25.7193571 45.7716148 25.2814757 45.1108386 24.4150693 45.1108386zM29.4800847 49.8475212C28.3797673 49.8475212 27.676163 49.5749977 27.4834203 49.4499355L27.4834203 48.6584974C27.8296086 48.8918223 28.624906 49.1158142 29.2255895 49.1158142 30.1631048 49.1158142 30.5298773 48.7798263 30.5298773 48.3635747 30.5298773 48.0201204 30.183689 47.8054615 29.7458076 47.6318677 28.6754308 47.2156161 27.4721926 46.959892 27.4721926 45.8940637 27.4721926 44.9271653 28.3797673 44.3989177 29.5418372 44.3989177 30.580402 44.3989177 31.3233034 44.7143729 31.4262242 44.7853037L31.4262242 45.5580759C31.1511449 45.4050147 30.4887089 45.1418242 29.7757482 45.1418242 28.858817 45.1418242 28.5425694 45.4572795 28.5425694 45.8138 28.5425694 46.1385883 28.8981141 46.330848 29.3378668 46.5044417 30.2042731 46.8497626 31.6301946 47.1745509 31.6301946 48.2011805 31.6301946 49.2072776 30.9265903 49.8475212 29.4800847 49.8475212M24.6182912 42.9334505L24.0625187 43.8331514 24.8484596 43.8331514 25.688668 42.76359C25.3031826 42.8009219 24.9307963 42.8643863 24.6182912 42.9334505M4.88106773 49.7254456L6.06372177 49.7254456 3.75080975 42.8152948 2.35482887 42.8152948.000748515239 49.7254456 1.13100649 49.7254456 1.68303646 47.9316436 4.33652291 47.9316436 4.88106773 49.7254456zM1.96747225 47.0020771L3.01539355 43.5862003 4.05395841 47.0020771 1.96747225 47.0020771zM16.3702149 44.7946367C16.227997 44.7255725 15.5468482 44.4698484 14.7814914 44.4698484 13.4360353 44.4698484 12.5303319 45.3546165 12.5303319 47.0625549 12.5303319 48.9832857 13.1815401 49.9184519 15.045343 49.9184519 16.1250762 49.9184519 17.0326509 49.6552614 17.4293639 49.4816677L17.4293639 43.0251005C17.0607202 43.0474997 16.6920765 43.1053643 16.3702149 43.1688287L16.3702149 44.7946367zM16.3702149 48.9216879C16.227997 48.9832857 15.7190067 49.1662124 15.0565707 49.1662124 14.0685306 49.1662124 13.6194215 48.5558344 13.6194215 47.0625549 13.6194215 45.8436656 14.0984712 45.231421 15.0659271 45.231421 15.5861452 45.231421 16.1568881 45.4050147 16.3702149 45.5058111L16.3702149 48.9216879zM20.2634297 29.7250201L20.2896277 29.7418195C22.6193813 31.3414952 25.31965 32.1870647 28.0966414 32.1870647 30.8661477 32.1870647 33.5608025 31.3452284 35.8868135 29.7548857L35.9111403 29.7362197 36.2816553 29.9695446 36.2816553 31.1044371C36.2816553 31.6644169 36.7326357 32.1198671 37.2846657 32.1198671L40.1140532 32.1198671C40.9037368 32.1161339 41.5455886 31.4553577 41.5455886 30.6471202L41.5455886 28.5135971C41.5455886 28.0264147 41.2929647 27.5653647 40.8868952 27.3096406L39.4048351 26.3782075 39.4347757 26.3390089C41.4950638 23.580175 42.6309356 20.1083002 42.6309356 16.5636281 42.6309356 7.94927204 36.1094968.940191456 28.0966414.940191456 20.0800435.940191456 13.5604759 7.94927204 13.5604759 16.5636281 13.5604759 20.1008338 14.6926052 23.5671089 16.7472795 26.3240761L16.7772201 26.3632747 15.2708332 27.3096406C14.8647637 27.5653647 14.6121398 28.0264147 14.6121398 28.5135971L14.6121398 30.6471202C14.6121398 31.4553577 15.2558629 32.1161339 16.0474177 32.1198671L18.8730627 32.1198671C19.4250926 32.1198671 19.8742018 31.6644169 19.8742018 31.1044371L19.8742018 29.9695446 20.2634297 29.7250201zM28.0966414 32.278528C25.3102935 32.278528 22.6025397 31.4348251 20.2615584 29.8351495L19.9677662 30.0199428 19.9677662 31.1044371C19.9677662 31.714815 19.4774887 32.2113305 18.8730627 32.2113305L16.0474177 32.2113305C15.2053381 32.2075973 14.5204467 31.5057559 14.5204467 30.6471202L14.5204467 28.5135971C14.5204467 27.9946825 14.7880409 27.5037669 15.2203084 27.23311L16.6424873 26.3390089C14.5952982 23.5727087 13.4687828 20.104567 13.4687828 16.5636281 13.4687828 7.89887386 20.0295187.848728087 28.0966414.848728087 36.1600216.848728087 42.7226288 7.89887386 42.7226288 16.5636281 42.7226288 20.1120334 41.5904995 23.5857748 39.5376965 26.3520751L40.9355487 27.23311C41.3678162 27.5056335 41.6372817 27.9946825 41.6372817 28.5135971L41.6372817 30.6471202C41.6372817 31.5057559 40.9542616 32.2075973 40.1140532 32.2113305L37.2846657 32.2113305C36.6802397 32.2113305 36.1899622 31.714815 36.1899622 31.1044371L36.1899622 30.0199428 35.9148829 29.8463491C33.5776441 31.4385583 30.8755042 32.278528 28.0966414 32.278528z"/>
      <path d="M21.0070795 20.6471875L24.512002 20.6471875 24.512002 13.0650609 21.0070795 13.0650609 21.0070795 20.6471875zM20.5055744 21.1493027L25.011636 21.1493027 25.011636 12.5648123 20.5055744 12.5648123 20.5055744 21.1493027zM31.6809065 20.6471875L35.185829 20.6471875 35.185829 13.0650609 31.6809065 13.0650609 31.6809065 20.6471875zM31.1794013 21.1493027L35.6854629 21.1493027 35.6854629 12.5648123 31.1794013 12.5648123 31.1794013 21.1493027zM26.1660335 20.6473741L30.0265008 20.6473741 30.0265008 12.9084532 28.1234008 10.7637305 26.1660335 12.9103198 26.1660335 20.6473741zM30.5261347 21.1494894L25.6645284 21.1494894 25.6645284 12.7180601 28.1271434 10.0170908 30.5261347 12.7199267 30.5261347 21.1494894z"/>
      <path d="M40.5800039,30.6474935 C40.5800039,30.9610822 40.3367365,31.1552086 40.1103106,31.1552086 L37.2846657,31.1552086 C37.2659528,31.1552086 37.2472399,31.1365426 37.2472399,31.1048104 L37.2472399,29.4379371 L36.1001404,28.71183 C36.1375661,28.6819644 36.1749919,28.6502322 36.2124177,28.6203666 C36.3172098,28.5382363 36.4201306,28.4542393 36.5230515,28.3683757 C36.6016456,28.3030447 36.6802397,28.2358472 36.7588338,28.1686496 C36.8542695,28.0865192 36.9497051,28.0006556 37.0413983,27.9129255 C37.1237349,27.8382615 37.2042003,27.7654641 37.2827944,27.6889336 C37.370745,27.6049366 37.4568242,27.519073 37.5410322,27.4332094 C37.6214976,27.3492125 37.7038342,27.2670821 37.7824283,27.1849517 C37.8628937,27.1009548 37.9414878,27.0132246 38.0182106,26.9254944 C38.0743493,26.8657632 38.1304879,26.8041655 38.1847553,26.7425677 L40.3741623,28.1238512 C40.5014098,28.204115 40.5800039,28.3534429 40.5800039,28.5121039 L40.5800039,30.6474935 Z M20.6676279,28.5195703 L20.6638853,28.5177037 C20.4599149,28.3665091 20.2578158,28.2078482 20.0594593,28.045454 C20.0070632,28.0025222 19.9565384,27.9577239 19.9041424,27.9129255 C19.7600532,27.7915965 19.6178353,27.6665344 19.4774887,27.537739 C19.4194788,27.4854742 19.3614688,27.4294762 19.3034589,27.3753449 C19.1649836,27.2428163 19.0283796,27.1084212 18.8955181,26.9684262 C18.8506072,26.9217612 18.8019537,26.8750962 18.7570428,26.8265646 C18.5792704,26.6380381 18.4052407,26.4439118 18.238696,26.2441857 L18.2274683,26.2329861 C16.0848435,23.6738783 14.7768131,20.2804007 14.7768131,16.5640014 C14.7768131,8.61788793 20.7518359,2.15385436 28.0947701,2.15385436 C35.4395757,2.15385436 41.4145984,8.61788793 41.4145984,16.5640014 C41.4145984,20.2878671 40.1028255,23.6869445 37.9508442,26.2479188 L37.948973,26.2497854 C37.9414878,26.2572518 37.9321314,26.2665848 37.9246462,26.2777844 C37.7655867,26.466311 37.6009134,26.6473711 37.4343687,26.8265646 C37.3819727,26.880696 37.3277053,26.9348274 37.2753093,26.9889588 C37.1461904,27.1214873 37.0152002,27.2540159 36.8804675,27.3809447 C36.8243288,27.435076 36.7663189,27.4892074 36.708309,27.5433388 C36.5623485,27.677734 36.4107742,27.8083959 36.2591999,27.9371913 C36.2161602,27.9726567 36.1749919,28.0118552 36.1319523,28.045454 C35.9298532,28.2115814 35.7240115,28.3721089 35.5125559,28.5251701 L35.5069421,28.5307699 C33.3867727,30.0725809 30.8362071,30.9741484 28.0947701,30.9741484 C25.3477193,30.9741484 22.7915398,30.0688477 20.6676279,28.5195703 Z M20.0763009,28.7006304 L18.9086171,29.4379371 L18.9086171,31.1048104 C18.9086171,31.134676 18.8899043,31.1552086 18.8730627,31.1552086 L16.049289,31.1552086 C15.8228632,31.1552086 15.5777244,30.9610822 15.5777244,30.6474935 L15.5777244,28.5121039 C15.5777244,28.3534429 15.6581898,28.204115 15.7854374,28.1238512 L17.9954286,26.7295015 C18.0459534,26.7910993 18.1002207,26.8452306 18.1526168,26.9030952 C18.2368247,26.9982918 18.3210327,27.0934884 18.4071119,27.1849517 C18.4838348,27.2652155 18.5605576,27.3417461 18.6372804,27.4201432 C18.7252309,27.5078734 18.8131814,27.5974702 18.9030033,27.6833338 C18.9834687,27.7617309 19.0658053,27.8382615 19.148142,27.9129255 C19.2379638,27.9950558 19.3277857,28.0771862 19.4176075,28.1555834 C19.5036867,28.2302474 19.589766,28.3049113 19.6777165,28.3758421 C19.7694096,28.4542393 19.862974,28.5289033 19.9565384,28.6035672 C19.9958355,28.6352994 20.0351325,28.6688982 20.0763009,28.7006304 Z M40.6398852,27.7038663 L38.5047455,26.354315 C40.6249149,23.7317429 41.9142323,20.3083997 41.9142323,16.5640014 C41.9142323,8.34349782 35.714655,1.65547233 28.0947701,1.65547233 C20.4748852,1.65547233 14.2753079,8.34349782 14.2753079,16.5640014 C14.2753079,20.3027999 15.5608828,23.7205433 17.6754383,26.3412488 L15.5178432,27.7038663 C15.2446352,27.8737269 15.0780905,28.185449 15.0780905,28.5121039 L15.0780905,30.6474935 C15.0780905,31.2018735 15.5122293,31.6535906 16.0474177,31.6554572 L18.8730627,31.6554572 C19.1687262,31.6554572 19.4101223,31.4090661 19.4101223,31.1048104 L19.4101223,29.7123273 L20.5104397,29.0179523 C22.688619,30.5690964 25.2953232,31.4725304 28.0947701,31.4725304 C30.8886032,31.4725304 33.4896936,30.5728296 35.6678728,29.0291519 L36.747606,29.7123273 L36.747606,31.1048104 C36.747606,31.4090661 36.9890022,31.6554572 37.2846657,31.6554572 L40.1121819,31.6554572 C40.645499,31.6535906 41.0815091,31.2018735 41.0815091,30.6474935 L41.0815091,28.5121039 C41.0815091,28.185449 40.9112219,27.8737269 40.6398852,27.7038663 Z"/>
      <path d="M28.0958929,5.61060971 C22.5082268,5.61060971 17.9609969,10.5234992 17.9609969,16.5638147 C17.9609969,22.6041302 22.5082268,27.5170198 28.0958929,27.5170198 C33.683559,27.5170198 38.2307889,22.6041302 38.2307889,16.5638147 C38.2307889,10.5234992 33.683559,5.61060971 28.0958929,5.61060971 M28.0958929,28.019135 C22.2312762,28.019135 17.4594917,22.880387 17.4594917,16.5638147 C17.4594917,10.2472425 22.2312762,5.10849448 28.0958929,5.10849448 C33.9605096,5.10849448 38.7322941,10.2472425 38.7322941,16.5638147 C38.7322941,22.880387 33.9605096,28.019135 28.0958929,28.019135"/>
    </g>
  </g>
</svg>
