<?xml version="1.0" encoding="utf-8"?>
<!-- Generator: Adobe Illustrator 25.2.0, SVG Export Plug-In . SVG Version: 6.00 Build 0)  -->
<svg version="1.1" id="Layer_1" xmlns="http://www.w3.org/2000/svg" xmlns:xlink="http://www.w3.org/1999/xlink" x="0px" y="0px"
	 viewBox="0 0 700 700" style="enable-background:new 0 0 700 700;" xml:space="preserve">
<style type="text/css">
	.st0{fill:#61DAFB;}
	.st1{fill:#FFFFFF;}
</style>
<circle class="st0" cx="350" cy="350" r="347.5"/>
<g>
	<path class="st1" d="M331.5,117.1c0-9.7,7.8-17.5,17.5-17.5s17.5,7.8,17.5,17.5v466.7c0,9.7-7.8,17.5-17.5,17.5
		s-17.5-7.8-17.5-17.5V117.1z"/>
	<path class="st1" d="M140,245.2c-8.3-5-11-15.7-6-24c5-8.3,15.8-10.9,24-6l400,240.4c8.3,5,11,15.7,6,24c-5,8.3-15.8,10.9-24,6
		L140,245.2z"/>
	<path class="st1" d="M151.2,475.4c-8.5,4.5-19.1,1.3-23.7-7.2c-4.5-8.5-1.3-19.1,7.2-23.7l412-219.1c8.5-4.5,19.1-1.3,23.7,7.2
		c4.5,8.5,1.3,19.1-7.2,23.7L151.2,475.4z"/>
	<path class="st1" d="M267.8,165.5c-7.4-6.2-8.4-17.2-2.2-24.6s17.2-8.4,24.6-2.2l58.8,49l58.8-49c7.4-6.2,18.5-5.2,24.6,2.2
		c6.2,7.4,5.2,18.5-2.2,24.6l-70,58.3c-6.5,5.4-15.9,5.4-22.4,0L267.8,165.5L267.8,165.5z"/>
	<path class="st1" d="M148.7,324.8c-9.1,3.2-19.1-1.7-22.3-10.8c-3.2-9.1,1.6-19.1,10.8-22.3l72.3-25.2l-11.7-75.6
		c-1.5-9.5,5.1-18.5,14.6-19.9c9.5-1.5,18.5,5.1,20,14.6l14,90c1.3,8.4-3.5,16.4-11.5,19.2L148.7,324.8L148.7,324.8z"/>
	<path class="st1" d="M223.9,508.9c-2,9.4-11.2,15.5-20.7,13.5c-9.4-2-15.5-11.2-13.6-20.7l15.7-74.9l-70.9-28.9
		c-8.9-3.6-13.2-13.9-9.6-22.8c3.6-8.9,13.9-13.2,22.8-9.6l84.4,34.4c7.8,3.2,12.2,11.5,10.5,19.8L223.9,508.9L223.9,508.9z"/>
	<path class="st1" d="M290.2,562.2c-7.4,6.2-18.5,5.2-24.6-2.2c-6.2-7.4-5.2-18.5,2.2-24.6l70-58.3c6.5-5.4,15.9-5.4,22.4,0l70,58.3
		c7.4,6.2,8.4,17.2,2.2,24.6s-17.2,8.4-24.6,2.2l-58.8-49L290.2,562.2L290.2,562.2z"/>
	<path class="st1" d="M500.3,509.9c1.5,9.5-5.1,18.5-14.6,19.9c-9.5,1.5-18.5-5.1-20-14.6l-14-90c-1.3-8.4,3.5-16.4,11.5-19.2
		l86.1-30c9.1-3.2,19.1,1.7,22.3,10.8c3.2,9.1-1.6,19.1-10.8,22.3l-72.3,25.2L500.3,509.9L500.3,509.9z"/>
	<path class="st1" d="M563.6,302.9c8.9,3.6,13.2,13.9,9.6,22.8c-3.6,8.9-13.9,13.2-22.8,9.6L466,300.9c-7.8-3.2-12.2-11.5-10.5-19.8
		l18.6-89.2c2-9.4,11.2-15.5,20.7-13.5c9.4,2,15.5,11.2,13.6,20.7L492.7,274L563.6,302.9L563.6,302.9z"/>
</g>
</svg>
