<svg id="Capa_1" data-name="Capa 1" xmlns="http://www.w3.org/2000/svg" viewBox="0 0 3656.04 2214.66"><defs><style>.cls-1{font-size:50px;}.cls-1,.cls-21,.cls-32{fill:#1d1d1b;}.cls-1,.cls-21{font-family:Fabriga;}.cls-2{letter-spacing:0.01em;}.cls-3{letter-spacing:0em;}.cls-4{letter-spacing:-0.01em;}.cls-5{letter-spacing:-0.01em;}.cls-6{letter-spacing:0.01em;}.cls-7{letter-spacing:-0.01em;}.cls-8{letter-spacing:-0.01em;}.cls-9{letter-spacing:-0.02em;}.cls-10{letter-spacing:-0.01em;}.cls-11{letter-spacing:0em;}.cls-12{letter-spacing:-0.01em;}.cls-13{letter-spacing:0em;}.cls-14{letter-spacing:-0.01em;}.cls-15{letter-spacing:-0.01em;}.cls-16{letter-spacing:-0.02em;}.cls-17{letter-spacing:-0.01em;}.cls-18{letter-spacing:-0.01em;}.cls-19,.cls-28{fill:#549bd4;}.cls-20{fill:#fff;}.cls-21{font-size:42.14px;}.cls-22{letter-spacing:-0.02em;}.cls-23{letter-spacing:-0.01em;}.cls-24{letter-spacing:-0.02em;}.cls-25{letter-spacing:-0.01em;}.cls-26{letter-spacing:-0.02em;}.cls-27{letter-spacing:-0.03em;}.cls-28,.cls-30{font-size:93.64px;font-family:Fabriga-Bold, Fabriga;font-weight:700;}.cls-29{letter-spacing:-0.02em;}.cls-30{fill:#6aade0;}.cls-31{letter-spacing:-0.03em;}.cls-33{letter-spacing:0.03em;}.cls-34{letter-spacing:-0.08em;}</style></defs><text class="cls-1" transform="translate(1866.11 252.05) scale(0.99 1)"><tspan class="cls-2">La glacio<tspan class="cls-3" x="205.35" y="0">lo</tspan><tspan x="249.75" y="0">gía es una disciplina cie</tspan><tspan class="cls-4" x="788.89" y="0">n</tspan><tspan x="816.94" y="0">tífica enca</tspan><tspan class="cls-5" x="1059.89" y="0">rg</tspan><tspan class="cls-6" x="1104.58" y="0">ada de e</tspan><tspan class="cls-7" x="1299.28" y="0">s</tspan><tspan class="cls-6" x="1323.68" y="0">tudiar </tspan></tspan><tspan class="cls-2" x="0" y="70">glacia</tspan><tspan x="138.7" y="70">r</tspan><tspan class="cls-6" x="157.1" y="70">e</tspan><tspan class="cls-8" x="186.05" y="70">s</tspan><tspan class="cls-6" x="210.2" y="70">, las glaciaciones y la crió</tspan><tspan class="cls-7" x="792.54" y="70">s</tspan><tspan class="cls-9" x="816.94" y="70">f</tspan><tspan class="cls-2" x="835.74" y="70">e</tspan><tspan class="cls-7" x="864.69" y="70">r</tspan><tspan class="cls-6" x="882.84" y="70">a en </tspan><tspan class="cls-5" x="986.54" y="70">g</tspan><tspan class="cls-6" x="1013.34" y="70">ene</tspan><tspan class="cls-10" x="1100.14" y="70">r</tspan><tspan class="cls-2" x="1118.28" y="70">al. La crió</tspan><tspan class="cls-7" x="1339.83" y="70">s</tspan><tspan class="cls-9" x="1364.23" y="70">f</tspan><tspan class="cls-2" x="1383.03" y="70">e</tspan><tspan class="cls-3" x="1411.98" y="70">r</tspan><tspan class="cls-2" x="1430.13" y="70">a se </tspan><tspan x="0" y="140">r</tspan><tspan class="cls-5" x="18.4" y="140">e</tspan><tspan class="cls-2" x="46.35" y="140">fie</tspan><tspan x="106.7" y="140">r</tspan><tspan class="cls-6" x="125.1" y="140">e a </tspan><tspan class="cls-11" x="199.9" y="140">t</tspan><tspan class="cls-2" x="219.45" y="140">odos </tspan><tspan class="cls-7" x="347.05" y="140">l</tspan><tspan class="cls-6" x="361.55" y="140">os compone</tspan><tspan class="cls-12" x="649.45" y="140">n</tspan><tspan class="cls-11" x="677.5" y="140">t</tspan><tspan class="cls-2" x="697.05" y="140">es de agua con</tspan><tspan class="cls-8" x="1038.19" y="140">g</tspan><tspan class="cls-6" x="1064.99" y="140">elada que se </tspan><tspan class="cls-2"><tspan x="0" y="210">encue</tspan><tspan class="cls-4" x="143.3" y="210">n</tspan><tspan x="171.35" y="210">t</tspan><tspan class="cls-3" x="191.4" y="210">r</tspan><tspan x="209.55" y="210">an sob</tspan><tspan class="cls-11" x="362.64" y="210">r</tspan><tspan x="381.04" y="210">e o debajo de la superficie </tspan><tspan class="cls-13" x="996.94" y="210">t</tspan><tspan class="cls-6" x="1016.49" y="210">er</tspan><tspan class="cls-11" x="1064.33" y="210">r</tspan><tspan x="1082.73" y="210">e</tspan><tspan class="cls-3" x="1111.68" y="210">s</tspan><tspan x="1136.08" y="210">t</tspan><tspan class="cls-11" x="1156.13" y="210">r</tspan><tspan x="1174.53" y="210">e u oceánica</tspan><tspan class="cls-5" x="1462.73" y="210">s</tspan><tspan class="cls-6" x="1486.88" y="210">. </tspan><tspan x="0" y="280">Inclu</tspan><tspan class="cls-3" x="114.65" y="280">y</tspan><tspan x="139.6" y="280">endo la ni</tspan><tspan class="cls-3" x="362.4" y="280">ev</tspan><tspan class="cls-5" x="415.94" y="280">e</tspan><tspan x="443.89" y="280">, glacia</tspan><tspan class="cls-11" x="607.69" y="280">r</tspan><tspan x="626.09" y="280">e</tspan><tspan class="cls-14" x="655.04" y="280">s</tspan><tspan x="679.19" y="280">, icebe</tspan><tspan class="cls-8" x="835.19" y="280">r</tspan><tspan class="cls-15" x="853.09" y="280">g</tspan><tspan class="cls-5" x="879.64" y="280">s</tspan><tspan x="903.79" y="280" xml:space="preserve">,  la</tspan><tspan class="cls-5" x="980.69" y="280">g</tspan><tspan x="1007.49" y="280">os y ríos con</tspan><tspan class="cls-5" x="1292.29" y="280">g</tspan><tspan class="cls-6" x="1319.09" y="280">elado</tspan><tspan class="cls-14" x="1453.04" y="280">s</tspan><tspan x="1477.19" y="280">, </tspan><tspan x="0" y="350">además de sue</tspan><tspan class="cls-7" x="344.85" y="350">l</tspan><tspan class="cls-6" x="359.35" y="350">os con</tspan><tspan class="cls-5" x="512.7" y="350">g</tspan><tspan class="cls-6" x="539.49" y="350">elado</tspan><tspan class="cls-8" x="673.44" y="350">s</tspan><tspan class="cls-6" x="697.59" y="350">. La crió</tspan><tspan class="cls-3" x="876.64" y="350">s</tspan><tspan class="cls-16" x="901.04" y="350">f</tspan><tspan class="cls-6" x="919.84" y="350">e</tspan><tspan class="cls-7" x="948.79" y="350">r</tspan><tspan class="cls-6" x="966.94" y="350">a tiene un </tspan><tspan class="cls-13" x="1198.09" y="350">r</tspan><tspan class="cls-6" x="1216.48" y="350">ol importa</tspan><tspan class="cls-12" x="1455.93" y="350">n</tspan><tspan class="cls-11" x="1483.98" y="350">t</tspan><tspan x="1503.53" y="350">e </tspan></tspan><tspan class="cls-2" x="0" y="420">en el clima g</tspan><tspan class="cls-7" x="284.5" y="420">l</tspan><tspan class="cls-6" x="299" y="420">obal, i</tspan><tspan class="cls-17" x="441.54" y="420">n</tspan><tspan class="cls-2" x="469.34" y="420">flu</tspan><tspan class="cls-7" x="531.59" y="420">y</tspan><tspan class="cls-6" x="556.54" y="420">endo en la hid</tspan><tspan x="878.34" y="420">r</tspan><tspan class="cls-6" x="896.74" y="420">o</tspan><tspan class="cls-7" x="927.39" y="420">lo</tspan><tspan class="cls-6" x="971.79" y="420">gía, nube</tspan><tspan class="cls-14" x="1181.89" y="420">s</tspan><tspan class="cls-2" x="1206.04" y="420">, </tspan><tspan class="cls-2"><tspan x="0" y="490">p</tspan><tspan class="cls-11" x="31.85" y="490">r</tspan><tspan x="50.25" y="490">ecipitaciones y la ci</tspan><tspan class="cls-11" x="503.99" y="490">r</tspan><tspan x="522.39" y="490">culación de la </tspan><tspan class="cls-18" x="853.29" y="490">a</tspan><tspan x="879.69" y="490">tmó</tspan><tspan class="cls-3" x="973.49" y="490">s</tspan><tspan class="cls-16" x="997.89" y="490">f</tspan><tspan class="cls-6" x="1016.69" y="490">e</tspan><tspan class="cls-7" x="1045.64" y="490">r</tspan><tspan class="cls-6" x="1063.79" y="490">a y </tspan><tspan class="cls-7" x="1135.34" y="490">l</tspan><tspan class="cls-6" x="1149.84" y="490">os océano</tspan><tspan class="cls-8" x="1390.04" y="490">s</tspan><tspan x="1414.19" y="490">. El </tspan></tspan><tspan class="cls-2" x="0" y="560">cambio clim</tspan><tspan class="cls-12" x="282.8" y="560">á</tspan><tspan class="cls-6" x="309.2" y="560">tico e</tspan><tspan class="cls-3" x="439.3" y="560">s</tspan><tspan class="cls-2" x="463.7" y="560">tá ocasionando una g</tspan><tspan class="cls-7" x="953.04" y="560">r</tspan><tspan class="cls-6" x="971.19" y="560">an pé</tspan><tspan x="1097.44" y="560">r</tspan><tspan class="cls-2" x="1115.84" y="560">dida de la crió</tspan><tspan class="cls-7" x="1441.13" y="560">s</tspan><tspan class="cls-16" x="1465.53" y="560">f</tspan><tspan class="cls-6" x="1484.33" y="560">e</tspan><tspan class="cls-7" x="1513.28" y="560">r</tspan><tspan class="cls-6" x="1531.43" y="560">a.</tspan></text><circle class="cls-19" cx="1006.97" cy="1235.64" r="119.95"/><circle class="cls-19" cx="1796.54" cy="1233.66" r="119.95"/><circle class="cls-19" cx="2631.4" cy="1233.72" r="119.95"/><path class="cls-20" d="M979.92,1241.28H962.24A3.28,3.28,0,0,1,959,1238a41.86,41.86,0,0,1,41.82-41.81h53.37a3.27,3.27,0,0,1,3.27,3.28v17.67a3.27,3.27,0,0,1-3.27,3.28h-53.37A17.61,17.61,0,0,0,983.19,1238,3.27,3.27,0,0,1,979.92,1241.28Zm-14.25-6.56h11.19a24.18,24.18,0,0,1,23.92-20.86h50.09v-11.12h-50.09A35.31,35.31,0,0,0,965.67,1234.72Z"/><path class="cls-20" d="M972.37,1308.18A18.23,18.23,0,0,1,954.15,1290c0-8.88,13-27,15.57-30.57a3.28,3.28,0,0,1,5.29,0c2.6,3.55,15.57,21.69,15.57,30.57A18.23,18.23,0,0,1,972.37,1308.18Zm0-41.16c-5.31,7.75-11.66,18.5-11.66,23a11.66,11.66,0,1,0,23.31,0C984,1285.52,977.67,1274.77,972.37,1267Z"/><path class="cls-20" d="M984.73,1253.31h-27.3a3.28,3.28,0,0,1-3.28-3.28v-12a3.28,3.28,0,0,1,3.28-3.28h27.3A3.28,3.28,0,0,1,988,1238v12A3.28,3.28,0,0,1,984.73,1253.31Zm-24-6.56h20.74v-5.47H960.71Z"/><path class="cls-20" d="M1054.15,1228.2a3.28,3.28,0,0,1-3.28-3.28v-33.24a3.28,3.28,0,0,1,6.55,0v33.24A3.27,3.27,0,0,1,1054.15,1228.2Z"/><path class="cls-20" d="M1033.66,1202.74h-19.43a3.27,3.27,0,0,1-3.28-3.27v-13.94a3.28,3.28,0,0,1,3.28-3.28h19.43a3.28,3.28,0,0,1,3.28,3.28v13.94A3.27,3.27,0,0,1,1033.66,1202.74Zm-16.15-6.55h12.87v-7.38h-12.87Z"/><path class="cls-20" d="M1024,1188.81a3.28,3.28,0,0,1-3.28-3.28v-11.87a3.28,3.28,0,1,1,6.55,0v11.87A3.27,3.27,0,0,1,1024,1188.81Z"/><path class="cls-20" d="M1056.51,1176.94H991.38a3.28,3.28,0,0,1,0-6.56h65.13a3.28,3.28,0,0,1,0,6.56Z"/><path class="cls-20" d="M1801.78,1190.21h-21.09a12.63,12.63,0,1,1,10.46-19.68,10.39,10.39,0,0,1,1.26-.08,9.93,9.93,0,0,1,8.17,4.33,8,8,0,0,1,1.2-.09,7.76,7.76,0,0,1,0,15.52Zm-21.09-18.69a6.07,6.07,0,1,0,0,12.13h21.09a1.2,1.2,0,0,0,0-2.4,1.22,1.22,0,0,0-.78.28,3.28,3.28,0,0,1-5.32-1.85,3.33,3.33,0,0,0-4.75-2.32,3.28,3.28,0,0,1-4.54-1.83A6.08,6.08,0,0,0,1780.69,1171.52Z"/><path class="cls-20" d="M1832.71,1227.51a6.56,6.56,0,0,1-5.08-2.5l-4.59-5.65-4.59,5.65a6.4,6.4,0,0,1-10.15,0l-7.13-8.79a3.28,3.28,0,1,1,5.09-4.13l7.12,8.77,4.59-5.65a6.4,6.4,0,0,1,10.15,0l4.59,5.65,7.12-8.77a3.28,3.28,0,0,1,5.09,4.13l-7.13,8.79A6.56,6.56,0,0,1,1832.71,1227.51Z"/><path class="cls-20" d="M1790.9,1233a3.28,3.28,0,0,1-2.54-1.2l-29.61-36.21-28.4,35a3.28,3.28,0,1,1-5.09-4.13l28.4-35a6.55,6.55,0,0,1,5.07-2.5h0a6.57,6.57,0,0,1,5.08,2.48l29.61,36.21a3.27,3.27,0,0,1-2.53,5.35Z"/><path class="cls-20" d="M1865.69,1271.21c-6.37,0-9.73-3-12.43-5.39-2.44-2.17-4.2-3.74-8.08-3.74s-5.64,1.57-8.08,3.74c-2.7,2.4-6.06,5.39-12.43,5.39s-9.73-3-12.43-5.4c-2.44-2.16-4.19-3.73-8.07-3.73s-5.64,1.57-8.07,3.74c-2.7,2.4-6.06,5.39-12.43,5.39s-9.73-3-12.43-5.4c-2.44-2.16-4.19-3.73-8.07-3.73s-5.64,1.57-8.07,3.74c-2.7,2.4-6.06,5.39-12.43,5.39s-9.73-3-12.43-5.4c-2.44-2.16-4.2-3.73-8.07-3.73a3.28,3.28,0,0,1,0-6.56c6.37,0,9.73,3,12.43,5.4,2.43,2.17,4.19,3.74,8.07,3.74s5.63-1.57,8.07-3.74c2.7-2.4,6.06-5.4,12.43-5.4s9.73,3,12.43,5.4c2.43,2.17,4.19,3.74,8.07,3.74s5.63-1.57,8.07-3.74c2.7-2.4,6.06-5.4,12.43-5.4s9.73,3,12.43,5.4c2.43,2.17,4.19,3.74,8.07,3.74s5.64-1.57,8.07-3.74c2.7-2.4,6.06-5.4,12.44-5.4s9.73,3,12.43,5.4c2.44,2.17,4.2,3.74,8.08,3.74a3.28,3.28,0,1,1,0,6.55Z"/><path class="cls-20" d="M1865.69,1287.5c-6.37,0-9.73-3-12.43-5.39-2.44-2.17-4.2-3.74-8.08-3.74s-5.64,1.57-8.08,3.74c-2.7,2.4-6.06,5.39-12.43,5.39s-9.73-3-12.43-5.39c-2.44-2.17-4.19-3.74-8.07-3.74s-5.64,1.57-8.07,3.74c-2.7,2.4-6.06,5.39-12.43,5.39s-9.73-3-12.43-5.39c-2.44-2.17-4.19-3.74-8.07-3.74s-5.64,1.57-8.07,3.74c-2.7,2.4-6.06,5.39-12.43,5.39s-9.73-3-12.43-5.39c-2.44-2.17-4.2-3.74-8.07-3.74a3.28,3.28,0,1,1,0-6.55c6.37,0,9.73,3,12.43,5.39,2.43,2.17,4.19,3.74,8.07,3.74s5.63-1.57,8.07-3.74c2.7-2.4,6.06-5.39,12.43-5.39s9.73,3,12.43,5.39c2.43,2.17,4.19,3.74,8.07,3.74s5.63-1.57,8.07-3.74c2.7-2.4,6.06-5.39,12.43-5.39s9.73,3,12.43,5.39c2.43,2.17,4.19,3.74,8.07,3.74s5.64-1.57,8.07-3.74c2.7-2.4,6.06-5.39,12.44-5.39s9.73,3,12.43,5.39c2.44,2.17,4.2,3.74,8.08,3.74a3.28,3.28,0,1,1,0,6.55Z"/><path class="cls-20" d="M1870.91,1252.54a3.29,3.29,0,0,1-2.55-1.21l-45.4-55.91-45.41,55.91a3.28,3.28,0,1,1-5.09-4.13l45.42-55.93a6.4,6.4,0,0,1,10.15,0l45.42,55.93a3.27,3.27,0,0,1-2.54,5.34Zm-47.84-57.23Zm-.23,0Z"/><path class="cls-20" d="M2611.92,1234.33a8.36,8.36,0,0,1-6.46-3.2l-4.2-5.17a1.62,1.62,0,0,0-2.73,0l-4.2,5.17a8.11,8.11,0,0,1-12.91,0l-8.11-10a3.28,3.28,0,1,1,5.09-4.13l8.11,10a1.62,1.62,0,0,0,2.73,0l4.2-5.17a8.11,8.11,0,0,1,12.91,0l4.2,5.17a1.62,1.62,0,0,0,2.73,0l8.11-10a3.28,3.28,0,0,1,5.09,4.13l-8.11,10A8.35,8.35,0,0,1,2611.92,1234.33Z"/><path class="cls-20" d="M2695.27,1228.91a8.31,8.31,0,0,1-6.42-3.18,1.79,1.79,0,0,0-1.33-.76h0a1.79,1.79,0,0,0-1.34.76,8.07,8.07,0,0,1-12.84,0l-3.88-4.77a3.28,3.28,0,0,1,5.09-4.14l3.88,4.78a1.57,1.57,0,0,0,2.66,0,8.34,8.34,0,0,1,6.43-3.18h0a8.31,8.31,0,0,1,6.42,3.18,1.57,1.57,0,0,0,2.66,0l3.88-4.78a3.28,3.28,0,0,1,5.09,4.14l-3.88,4.77A8.31,8.31,0,0,1,2695.27,1228.91Z"/><path class="cls-20" d="M2668.49,1226a3.25,3.25,0,0,1-2.5-1.16l-22.38-26.27a2,2,0,0,0-1.46-.77,1.93,1.93,0,0,0-1.43.8l-15.95,19.64a3.28,3.28,0,1,1-5.09-4.13l16-19.64a8.44,8.44,0,0,1,6.45-3.22h.09a8.48,8.48,0,0,1,6.43,3.07l22.38,26.27a3.29,3.29,0,0,1-2.49,5.41Z"/><path class="cls-20" d="M2628.59,1227.41a3.27,3.27,0,0,1-2.54-5.34l19.85-24.45a3.28,3.28,0,0,1,5.09,4.13l-19.85,24.45A3.28,3.28,0,0,1,2628.59,1227.41Z"/><path class="cls-20" d="M2635,1235.41a3.24,3.24,0,0,1-2.06-.74,3.28,3.28,0,0,1-.48-4.61l19.86-24.45a3.28,3.28,0,0,1,5.09,4.13l-19.86,24.46A3.29,3.29,0,0,1,2635,1235.41Z"/><path class="cls-20" d="M2641.32,1243.4a3.27,3.27,0,0,1-2.54-5.34l19.85-24.45a3.28,3.28,0,0,1,5.09,4.13l-19.85,24.45A3.28,3.28,0,0,1,2641.32,1243.4Z"/><path class="cls-20" d="M2659.41,1266a3.26,3.26,0,0,1-2.55-1.21l-56.47-69.54a.68.68,0,0,0-1.21,0l-56.47,69.54a3.28,3.28,0,1,1-5.09-4.13l56.47-69.54a7.18,7.18,0,0,1,11.39,0l56.47,69.54a3.27,3.27,0,0,1-2.54,5.34Z"/><path class="cls-20" d="M2725.91,1250.33a3.27,3.27,0,0,1-2.55-1.22l-35.31-43.48a.68.68,0,0,0-1.21,0l-35.31,43.48a3.28,3.28,0,1,1-5.09-4.13l35.31-43.48a7.18,7.18,0,0,1,11.39,0l35.31,43.48a3.27,3.27,0,0,1-.48,4.61A3.24,3.24,0,0,1,2725.91,1250.33Z"/><text class="cls-21" transform="translate(653.75 1634.23) scale(0.99 1)">de la población se aba<tspan class="cls-22" x="427.69" y="0">s</tspan><tspan class="cls-23" x="447.83" y="0">t</tspan><tspan x="463.89" y="0">ece de agua </tspan><tspan x="82.97" y="56.18">p</tspan><tspan class="cls-23" x="109.39" y="56.18">r</tspan><tspan class="cls-22" x="124.47" y="56.18">ov</tspan><tspan x="170.19" y="56.18">enie</tspan><tspan class="cls-24" x="252.15" y="56.18">n</tspan><tspan class="cls-25" x="275.36" y="56.18">t</tspan><tspan x="291.42" y="56.18">e de la co</tspan><tspan class="cls-23" x="472.19" y="56.18">r</tspan><tspan x="487.27" y="56.18">di</tspan><tspan class="cls-23" x="523.76" y="56.18">l</tspan><tspan class="cls-22" x="535.77" y="56.18">l</tspan><tspan x="547.57" y="56.18">e</tspan><tspan class="cls-22" x="571.54" y="56.18">r</tspan><tspan x="586.42" y="56.18" xml:space="preserve">a  </tspan></text><text class="cls-21" transform="translate(1601.09 1627.06) scale(0.99 1)">del agua du<tspan class="cls-22" x="218.18" y="0">l</tspan><tspan x="229.98" y="0">ce de </tspan><tspan class="cls-22" x="342.95" y="0">l</tspan><tspan x="354.75" y="0">os </tspan><tspan x="-37.63" y="56.18">flujos de agua superficial </tspan><tspan x="-25.45" y="112.37">como su</tspan><tspan class="cls-26" x="136.23" y="112.37">b</tspan><tspan class="cls-23" x="161.81" y="112.37">t</tspan><tspan x="177.86" y="112.37">er</tspan><tspan class="cls-22" x="217.34" y="112.37">r</tspan><tspan x="232.22" y="112.37">áneos son </tspan><tspan x="29.64" y="168.55">aportados por </tspan><tspan class="cls-22" x="313.31" y="168.55">l</tspan><tspan x="325.11" y="168.55">os </tspan><tspan x="-36.17" y="224.73">glacia</tspan><tspan class="cls-23" x="78.19" y="224.73">r</tspan><tspan x="93.27" y="224.73">es empla</tspan><tspan class="cls-22" x="266.71" y="224.73">z</tspan><tspan x="286.64" y="224.73">ados en </tspan><tspan x="86.3" y="280.91">la co</tspan><tspan class="cls-23" x="177.86" y="280.91">r</tspan><tspan x="192.94" y="280.91">di</tspan><tspan class="cls-25" x="229.43" y="280.91">l</tspan><tspan class="cls-22" x="241.44" y="280.91">l</tspan><tspan x="253.24" y="280.91">e</tspan><tspan class="cls-22" x="277.22" y="280.91">r</tspan><tspan x="292.09" y="280.91">a</tspan></text><text class="cls-21" transform="translate(2412.23 1634.23) scale(0.99 1)">de <tspan class="cls-22" x="57.81" y="0">l</tspan><tspan x="69.61" y="0">os glacia</tspan><tspan class="cls-23" x="237.57" y="0">r</tspan><tspan x="252.65" y="0">es </tspan><tspan class="cls-27" x="304.82" y="0">e</tspan><tspan x="327.53" y="0">xi</tspan><tspan class="cls-22" x="359.6" y="0">s</tspan><tspan class="cls-23" x="379.74" y="0">t</tspan><tspan x="395.79" y="0">e</tspan><tspan class="cls-24" x="419.77" y="0">n</tspan><tspan class="cls-23" x="442.99" y="0">t</tspan><tspan x="459.04" y="0">e </tspan><tspan x="73.91" y="56.18">en Sudamérica se </tspan><tspan x="50.8" y="112.37">encue</tspan><tspan class="cls-24" x="169.45" y="112.37">n</tspan><tspan x="192.67" y="112.37">t</tspan><tspan class="cls-22" x="209.15" y="112.37">r</tspan><tspan x="224.02" y="112.37">an en Chi</tspan><tspan class="cls-22" x="396.44" y="112.37">l</tspan><tspan x="408.24" y="112.37">e</tspan></text><text class="cls-28" transform="translate(936.84 1508.46)"><tspan class="cls-29">7</tspan><tspan x="48.6" y="0">0%</tspan></text><text class="cls-28" transform="translate(2557.2 1523.73)">80%</text><text class="cls-30" transform="translate(1734.05 1516.1)"><tspan class="cls-31">6</tspan><tspan x="50.19" y="0">7%</tspan></text><polygon class="cls-32" points="1003.47 1401.18 994.19 1416.45 1012.74 1416.45 1003.47 1401.18"/><polygon class="cls-32" points="1798.99 1408.81 1789.71 1424.08 1808.26 1424.08 1798.99 1408.81"/><polygon class="cls-32" points="2626.68 1416.45 2617.4 1431.71 2635.95 1431.71 2626.68 1416.45"/><text class="cls-1" transform="translate(179.62 250.79) scale(0.99 1)"><tspan class="cls-2">Nue</tspan><tspan class="cls-3" x="93.15" y="0">s</tspan><tspan class="cls-2" x="117.55" y="0">t</tspan><tspan class="cls-11" x="137.6" y="0">r</tspan><tspan class="cls-2" x="156" y="0">o país tiene el </tspan><tspan class="cls-7" x="484.04" y="0">8</tspan><tspan class="cls-6" x="512.04" y="0">2% de </tspan><tspan class="cls-7" x="651.89" y="0">l</tspan><tspan class="cls-2" x="666.39" y="0">os glacia</tspan><tspan x="870.19" y="0">r</tspan><tspan class="cls-2" x="888.59" y="0">es </tspan><tspan class="cls-9" x="951.99" y="0">e</tspan><tspan class="cls-2" x="979.44" y="0">xi</tspan><tspan class="cls-7" x="1018.49" y="0">s</tspan><tspan class="cls-11" x="1042.89" y="0">t</tspan><tspan class="cls-2" x="1062.44" y="0">e</tspan><tspan class="cls-12" x="1091.38" y="0">n</tspan><tspan x="1119.43" y="0">t</tspan><tspan class="cls-2" x="1138.98" y="0">es de Sudamérica, </tspan><tspan class="cls-2" x="0" y="70">la Co</tspan><tspan class="cls-11" x="117.6" y="70">r</tspan><tspan class="cls-2" x="136" y="70">di</tspan><tspan x="180.3" y="70">l</tspan><tspan class="cls-3" x="195.05" y="70">l</tspan><tspan class="cls-2" x="209.55" y="70">e</tspan><tspan class="cls-10" x="238.5" y="70">r</tspan><tspan class="cls-6" x="256.65" y="70">a de </tspan><tspan class="cls-7" x="363.3" y="70">L</tspan><tspan class="cls-6" x="389.25" y="70">os Andes a</tspan><tspan class="cls-7" x="639.39" y="70">l</tspan><tspan class="cls-6" x="653.89" y="70">oja a g</tspan><tspan class="cls-3" x="797.94" y="70">r</tspan><tspan class="cls-2" x="816.09" y="70">an ca</tspan><tspan class="cls-12" x="937.49" y="70">n</tspan><tspan class="cls-6" x="965.54" y="70">tidad de e</tspan><tspan class="cls-7" x="1197.34" y="70">s</tspan><tspan x="1221.74" y="70">t</tspan><tspan class="cls-2" x="1241.29" y="70">os glacia</tspan><tspan x="1445.08" y="70">r</tspan><tspan class="cls-6" x="1463.48" y="70">e</tspan><tspan class="cls-5" x="1492.43" y="70">s</tspan><tspan class="cls-6" x="1516.58" y="70">, </tspan><tspan class="cls-7" x="0" y="140">l</tspan><tspan class="cls-6" x="14.5" y="140">os cua</tspan><tspan class="cls-3" x="163.35" y="140">l</tspan><tspan class="cls-2" x="177.85" y="140">es son par</tspan><tspan class="cls-11" x="413.25" y="140">t</tspan><tspan class="cls-2" x="432.8" y="140">e importa</tspan><tspan class="cls-18" x="655.3" y="140">n</tspan><tspan class="cls-11" x="683.34" y="140">t</tspan><tspan class="cls-2" x="702.89" y="140">e de las </tspan><tspan x="888.19" y="140">r</tspan><tspan class="cls-2" x="906.59" y="140">ese</tspan><tspan class="cls-33" x="989.64" y="140">r</tspan><tspan class="cls-7" x="1009.54" y="140">v</tspan><tspan class="cls-6" x="1034.89" y="140">as de agua du</tspan><tspan class="cls-3" x="1345.73" y="140">l</tspan><tspan class="cls-2" x="1360.23" y="140">ce que </tspan><tspan class="cls-2" x="0" y="210">equi</tspan><tspan class="cls-7" x="101.05" y="210">v</tspan><tspan class="cls-6" x="126.4" y="210">a</tspan><tspan class="cls-7" x="153.65" y="210">l</tspan><tspan class="cls-6" x="168.15" y="210">en a </tspan><tspan class="cls-11" x="271.85" y="210">t</tspan><tspan class="cls-2" x="291.4" y="210">ener g</tspan><tspan class="cls-10" x="434.19" y="210">r</tspan><tspan class="cls-2" x="452.34" y="210">andes </tspan><tspan x="603.74" y="210">t</tspan><tspan class="cls-6" x="623.29" y="210">or</tspan><tspan class="cls-11" x="672.84" y="210">r</tspan><tspan class="cls-2" x="691.24" y="210">es de agua n</tspan><tspan class="cls-12" x="973.03" y="210">a</tspan><tspan class="cls-6" x="999.43" y="210">tu</tspan><tspan class="cls-3" x="1047.28" y="210">r</tspan><tspan class="cls-2" x="1065.43" y="210">a</tspan><tspan class="cls-3" x="1092.68" y="210">l</tspan><tspan class="cls-2" x="1107.18" y="210">e</tspan><tspan class="cls-5" x="1136.13" y="210">s</tspan><tspan class="cls-2" x="1160.28" y="210">, fundame</tspan><tspan class="cls-12" x="1393.53" y="210">n</tspan><tspan class="cls-6" x="1421.58" y="210">ta</tspan><tspan class="cls-7" x="1468.88" y="210">l</tspan><tspan class="cls-6" x="1483.38" y="210">es </tspan><tspan class="cls-2" x="0" y="280">pa</tspan><tspan class="cls-7" x="59.1" y="280">r</tspan><tspan class="cls-6" x="77.25" y="280">a la vida y el ecosi</tspan><tspan class="cls-3" x="486.94" y="280">s</tspan><tspan x="511.35" y="280">t</tspan><tspan class="cls-6" x="530.9" y="280">ema. </tspan><tspan class="cls-10" x="655.29" y="280">L</tspan><tspan class="cls-2" x="681.24" y="280">os glacia</tspan><tspan x="885.04" y="280">r</tspan><tspan class="cls-6" x="903.44" y="280">es empla</tspan><tspan class="cls-3" x="1113.24" y="280">z</tspan><tspan class="cls-2" x="1137.39" y="280">ados en la </tspan><tspan class="cls-2" x="0" y="350">co</tspan><tspan x="59.35" y="350">r</tspan><tspan class="cls-6" x="77.75" y="350">di</tspan><tspan class="cls-11" x="122.05" y="350">l</tspan><tspan class="cls-7" x="136.8" y="350">l</tspan><tspan class="cls-6" x="151.3" y="350">e</tspan><tspan class="cls-10" x="180.25" y="350">r</tspan><tspan class="cls-6" x="198.4" y="350">a co</tspan><tspan class="cls-12" x="294.3" y="350">n</tspan><tspan class="cls-6" x="322.35" y="350">tribu</tspan><tspan class="cls-7" x="433.4" y="350">y</tspan><tspan class="cls-2" x="458.35" y="350">en de g</tspan><tspan class="cls-3" x="623.39" y="350">r</tspan><tspan class="cls-2" x="641.54" y="350">an mane</tspan><tspan class="cls-7" x="835.19" y="350">r</tspan><tspan class="cls-6" x="853.34" y="350">a a </tspan><tspan class="cls-3" x="926.44" y="350">l</tspan><tspan class="cls-2" x="940.94" y="350">os flujos de agua </tspan><tspan class="cls-2" x="0" y="420">superficial como su</tspan><tspan class="cls-14" x="452.35" y="420">b</tspan><tspan class="cls-13" x="483.2" y="420">t</tspan><tspan class="cls-2" x="502.75" y="420">er</tspan><tspan class="cls-7" x="550.59" y="420">r</tspan><tspan class="cls-6" x="568.74" y="420">áneo</tspan><tspan class="cls-14" x="684.49" y="420">s</tspan><tspan class="cls-2" x="708.64" y="420">, </tspan><tspan x="733.74" y="420">l</tspan><tspan class="cls-7" x="748.49" y="420">le</tspan><tspan class="cls-8" x="791.19" y="420">g</tspan><tspan class="cls-6" x="817.99" y="420">ando a aportar el </tspan><tspan class="cls-9" x="1220.14" y="420">6</tspan><tspan class="cls-2" x="1246.84" y="420">7% del agua </tspan><tspan class="cls-2" x="0" y="490">du</tspan><tspan class="cls-7" x="59.65" y="490">l</tspan><tspan class="cls-6" x="74.15" y="490">ce en años con bajas p</tspan><tspan class="cls-11" x="592.19" y="490">r</tspan><tspan class="cls-2" x="610.59" y="490">ecipitacione</tspan><tspan class="cls-5" x="901.94" y="490">s</tspan><tspan class="cls-2" x="926.09" y="490">. </tspan><tspan class="cls-34" x="951.19" y="490">T</tspan><tspan class="cls-2" x="975.24" y="490">eniendo en cue</tspan><tspan class="cls-4" x="1327.78" y="490">n</tspan><tspan class="cls-2" x="1355.83" y="490">ta e</tspan><tspan class="cls-7" x="1441.38" y="490">s</tspan><tspan x="1465.78" y="490">t</tspan><tspan class="cls-6" x="1485.33" y="490">o y </tspan><tspan class="cls-2"><tspan x="0" y="560">además que el </tspan><tspan class="cls-14" x="344.24" y="560">7</tspan><tspan x="370.7" y="560">0% de la población chi</tspan><tspan class="cls-7" x="881.19" y="560">l</tspan><tspan class="cls-6" x="895.69" y="560">ena se aba</tspan><tspan class="cls-10" x="1139.84" y="560">s</tspan><tspan class="cls-11" x="1164.24" y="560">t</tspan><tspan x="1183.79" y="560">ece de agua </tspan></tspan><tspan class="cls-2" x="0" y="630">p</tspan><tspan class="cls-11" x="31.85" y="630">r</tspan><tspan class="cls-7" x="50.25" y="630">ov</tspan><tspan class="cls-2" x="105.5" y="630">enie</tspan><tspan class="cls-18" x="204.75" y="630">n</tspan><tspan class="cls-11" x="232.8" y="630">t</tspan><tspan class="cls-2" x="252.35" y="630">e de la co</tspan><tspan x="471.84" y="630">r</tspan><tspan class="cls-6" x="490.24" y="630">di</tspan><tspan class="cls-11" x="534.54" y="630">l</tspan><tspan class="cls-7" x="549.29" y="630">l</tspan><tspan class="cls-6" x="563.79" y="630">e</tspan><tspan class="cls-7" x="592.74" y="630">r</tspan><tspan class="cls-6" x="610.89" y="630">a, es importa</tspan><tspan class="cls-12" x="910.89" y="630">n</tspan><tspan x="938.94" y="630">t</tspan><tspan class="cls-2" x="958.49" y="630">e el e</tspan><tspan class="cls-7" x="1079.19" y="630">s</tspan><tspan class="cls-6" x="1103.59" y="630">tudio de e</tspan><tspan class="cls-7" x="1334.73" y="630">s</tspan><tspan class="cls-6" x="1359.13" y="630">tas </tspan><tspan class="cls-2" x="0" y="700">masas de hie</tspan><tspan class="cls-3" x="297.6" y="700">l</tspan><tspan class="cls-2" x="312.1" y="700">o (glacia</tspan><tspan x="506.64" y="700">r</tspan><tspan class="cls-6" x="525.04" y="700">es).</tspan></text></svg>