<?xml version="1.0" encoding="utf-8"?>
<!-- Generator: Adobe Illustrator 25.2.0, SVG Export Plug-In . SVG Version: 6.00 Build 0)  -->
<svg version="1.1" id="Layer_1" xmlns="http://www.w3.org/2000/svg" xmlns:xlink="http://www.w3.org/1999/xlink" x="0px" y="0px"
	 viewBox="0 0 3323.6 1611.8" style="enable-background:new 0 0 3323.6 1611.8;" xml:space="preserve">
<g>
	<g>
		<circle style="fill:#B3DDE2;" cx="413.8" cy="510.8" r="75.4"/>
		<circle style="fill:#B3DDE2;" cx="587.1" cy="510.8" r="75.4"/>
		<circle style="fill:#B3DDE2;" cx="760.5" cy="510.8" r="75.4"/>
		<circle style="fill:#B3DDE2;" cx="933.8" cy="510.8" r="75.4"/>
		<circle style="fill:#B3DDE2;" cx="1107.2" cy="510.8" r="75.4"/>
		<circle style="fill:#B3DDE2;" cx="1280.6" cy="510.8" r="75.4"/>
		<circle style="fill:#B3DDE2;" cx="1453.9" cy="510.8" r="75.4"/>
		<circle style="fill:#B3DDE2;" cx="1627.3" cy="510.8" r="75.4"/>
		<circle style="fill:#B3DDE2;" cx="1800.6" cy="510.8" r="75.4"/>
		<circle style="fill:#B3DDE2;" cx="1974" cy="510.8" r="75.4"/>
		<circle style="fill:#B3DDE2;" cx="2147.3" cy="510.8" r="75.4"/>
		<circle style="fill:#B3DDE2;" cx="2320.7" cy="510.8" r="75.4"/>
		<circle style="fill:#B3DDE2;" cx="2494.1" cy="510.8" r="75.4"/>
		<circle style="fill:#03688B;" cx="2667.4" cy="510.8" r="75.4"/>
		<circle style="fill:#03688B;" cx="2840.8" cy="510.8" r="75.4"/>
	</g>
	<g>
		<g>
			<path style="fill:none;stroke:#B3DDE2;stroke-width:6;stroke-miterlimit:10;" d="M2694.7,521.2c9.6,0,17.4-7.8,17.4-17.4
				s-7.8-17.4-17.4-17.4c-1.1,0-2.1,0.1-3.1,0.3c-2.3-9.6-10.9-16.7-21.2-16.7c-9.5,0-17.6,6.1-20.6,14.6c-0.8-0.2-1.6-0.3-2.5-0.3
				c-6.6,0-12,5.4-12,12c0,0.6,0.1,1.2,0.2,1.9c-0.4,0-0.8-0.1-1.2-0.1c-6.4,0-11.6,5.2-11.6,11.6c0,6.4,5.2,11.6,11.6,11.6H2694.7z
				"/>
			<line style="fill:none;stroke:#B3DDE2;stroke-width:6;stroke-miterlimit:10;" x1="2645" y1="533.1" x2="2628.9" y2="549.2"/>
			<line style="fill:none;stroke:#B3DDE2;stroke-width:6;stroke-miterlimit:10;" x1="2670.4" y1="533.1" x2="2654.3" y2="549.2"/>
			<line style="fill:none;stroke:#B3DDE2;stroke-width:6;stroke-miterlimit:10;" x1="2695.9" y1="533.1" x2="2679.8" y2="549.2"/>
		</g>
	</g>
	<g>
		<g>
			<path style="fill:none;stroke:#B3DDE2;stroke-width:6;stroke-miterlimit:10;" d="M2868.1,521.2c9.6,0,17.4-7.8,17.4-17.4
				s-7.8-17.4-17.4-17.4c-1.1,0-2.1,0.1-3.1,0.3c-2.3-9.6-10.9-16.7-21.2-16.7c-9.5,0-17.6,6.1-20.6,14.6c-0.8-0.2-1.6-0.3-2.5-0.3
				c-6.6,0-12,5.4-12,12c0,0.6,0.1,1.2,0.2,1.9c-0.4,0-0.8-0.1-1.2-0.1c-6.4,0-11.6,5.2-11.6,11.6c0,6.4,5.2,11.6,11.6,11.6H2868.1z
				"/>
			<line style="fill:none;stroke:#B3DDE2;stroke-width:6;stroke-miterlimit:10;" x1="2818.3" y1="533.1" x2="2802.2" y2="549.2"/>
			<line style="fill:none;stroke:#B3DDE2;stroke-width:6;stroke-miterlimit:10;" x1="2843.8" y1="533.1" x2="2827.7" y2="549.2"/>
			<line style="fill:none;stroke:#B3DDE2;stroke-width:6;stroke-miterlimit:10;" x1="2869.3" y1="533.1" x2="2853.2" y2="549.2"/>
		</g>
	</g>
	<g>
		<g>
			<path style="fill:none;stroke:#FFFFFF;stroke-width:6;stroke-miterlimit:10;" d="M2521.4,521.2c9.6,0,17.4-7.8,17.4-17.4
				s-7.8-17.4-17.4-17.4c-1.1,0-2.1,0.1-3.1,0.3c-2.3-9.6-10.9-16.7-21.2-16.7c-9.5,0-17.6,6.1-20.6,14.6c-0.8-0.2-1.6-0.3-2.5-0.3
				c-6.6,0-12,5.4-12,12c0,0.6,0.1,1.2,0.2,1.9c-0.4,0-0.8-0.1-1.2-0.1c-6.4,0-11.6,5.2-11.6,11.6c0,6.4,5.2,11.6,11.6,11.6H2521.4z
				"/>
			<line style="fill:none;stroke:#FFFFFF;stroke-width:6;stroke-miterlimit:10;" x1="2488.4" y1="533.1" x2="2472.3" y2="549.2"/>
			<line style="fill:none;stroke:#FFFFFF;stroke-width:6;stroke-miterlimit:10;" x1="2513.9" y1="533.1" x2="2497.8" y2="549.2"/>
		</g>
	</g>
	<g>
		<g>
			<path style="fill:none;stroke:#FFFFFF;stroke-width:6;stroke-miterlimit:10;" d="M2348,521.2c9.6,0,17.4-7.8,17.4-17.4
				s-7.8-17.4-17.4-17.4c-1.1,0-2.1,0.1-3.1,0.3c-2.3-9.6-10.9-16.7-21.2-16.7c-9.5,0-17.6,6.1-20.6,14.6c-0.8-0.2-1.6-0.3-2.5-0.3
				c-6.6,0-12,5.4-12,12c0,0.6,0.1,1.2,0.2,1.9c-0.4,0-0.8-0.1-1.2-0.1c-6.4,0-11.6,5.2-11.6,11.6c0,6.4,5.2,11.6,11.6,11.6H2348z"
				/>
			<line style="fill:none;stroke:#FFFFFF;stroke-width:6;stroke-miterlimit:10;" x1="2315" y1="533.1" x2="2298.9" y2="549.2"/>
			<line style="fill:none;stroke:#FFFFFF;stroke-width:6;stroke-miterlimit:10;" x1="2340.5" y1="533.1" x2="2324.4" y2="549.2"/>
		</g>
	</g>
	<g>
		<g>
			<path style="fill:none;stroke:#FFFFFF;stroke-width:6;stroke-miterlimit:10;" d="M2174.6,521.2c9.6,0,17.4-7.8,17.4-17.4
				s-7.8-17.4-17.4-17.4c-1.1,0-2.1,0.1-3.1,0.3c-2.3-9.6-10.9-16.7-21.2-16.7c-9.5,0-17.6,6.1-20.6,14.6c-0.8-0.2-1.6-0.3-2.5-0.3
				c-6.6,0-12,5.4-12,12c0,0.6,0.1,1.2,0.2,1.9c-0.4,0-0.8-0.1-1.2-0.1c-6.4,0-11.6,5.2-11.6,11.6c0,6.4,5.2,11.6,11.6,11.6H2174.6z
				"/>
			<line style="fill:none;stroke:#FFFFFF;stroke-width:6;stroke-miterlimit:10;" x1="2141.7" y1="533.1" x2="2125.6" y2="549.2"/>
			<line style="fill:none;stroke:#FFFFFF;stroke-width:6;stroke-miterlimit:10;" x1="2167.2" y1="533.1" x2="2151" y2="549.2"/>
		</g>
	</g>
	<g>
		<g>
			<path style="fill:none;stroke:#FFFFFF;stroke-width:6;stroke-miterlimit:10;" d="M2001.3,521.2c9.6,0,17.4-7.8,17.4-17.4
				s-7.8-17.4-17.4-17.4c-1.1,0-2.1,0.1-3.1,0.3c-2.3-9.6-10.9-16.7-21.2-16.7c-9.5,0-17.6,6.1-20.6,14.6c-0.8-0.2-1.6-0.3-2.5-0.3
				c-6.6,0-12,5.4-12,12c0,0.6,0.1,1.2,0.2,1.9c-0.4,0-0.8-0.1-1.2-0.1c-6.4,0-11.6,5.2-11.6,11.6c0,6.4,5.2,11.6,11.6,11.6H2001.3z
				"/>
			<line style="fill:none;stroke:#FFFFFF;stroke-width:6;stroke-miterlimit:10;" x1="1968.3" y1="533.1" x2="1952.2" y2="549.2"/>
			<line style="fill:none;stroke:#FFFFFF;stroke-width:6;stroke-miterlimit:10;" x1="1993.8" y1="533.1" x2="1977.7" y2="549.2"/>
		</g>
	</g>
	<g>
		<g>
			<path style="fill:none;stroke:#FFFFFF;stroke-width:6;stroke-miterlimit:10;" d="M1827.9,521.2c9.6,0,17.4-7.8,17.4-17.4
				s-7.8-17.4-17.4-17.4c-1.1,0-2.1,0.1-3.1,0.3c-2.3-9.6-10.9-16.7-21.2-16.7c-9.5,0-17.6,6.1-20.6,14.6c-0.8-0.2-1.6-0.3-2.5-0.3
				c-6.6,0-12,5.4-12,12c0,0.6,0.1,1.2,0.2,1.9c-0.4,0-0.8-0.1-1.2-0.1c-6.4,0-11.6,5.2-11.6,11.6c0,6.4,5.2,11.6,11.6,11.6H1827.9z
				"/>
			<line style="fill:none;stroke:#FFFFFF;stroke-width:6;stroke-miterlimit:10;" x1="1795" y1="533.1" x2="1778.9" y2="549.2"/>
			<line style="fill:none;stroke:#FFFFFF;stroke-width:6;stroke-miterlimit:10;" x1="1820.4" y1="533.1" x2="1804.3" y2="549.2"/>
		</g>
	</g>
	<g>
		<g>
			<path style="fill:none;stroke:#FFFFFF;stroke-width:6;stroke-miterlimit:10;" d="M1654.6,521.2c9.6,0,17.4-7.8,17.4-17.4
				s-7.8-17.4-17.4-17.4c-1.1,0-2.1,0.1-3.1,0.3c-2.3-9.6-10.9-16.7-21.2-16.7c-9.5,0-17.6,6.1-20.6,14.6c-0.8-0.2-1.6-0.3-2.5-0.3
				c-6.6,0-12,5.4-12,12c0,0.6,0.1,1.2,0.2,1.9c-0.4,0-0.8-0.1-1.2-0.1c-6.4,0-11.6,5.2-11.6,11.6c0,6.4,5.2,11.6,11.6,11.6H1654.6z
				"/>
			<line style="fill:none;stroke:#FFFFFF;stroke-width:6;stroke-miterlimit:10;" x1="1621.6" y1="533.1" x2="1605.5" y2="549.2"/>
			<line style="fill:none;stroke:#FFFFFF;stroke-width:6;stroke-miterlimit:10;" x1="1647.1" y1="533.1" x2="1631" y2="549.2"/>
		</g>
	</g>
	<g>
		<g>
			<path style="fill:none;stroke:#FFFFFF;stroke-width:6;stroke-miterlimit:10;" d="M1481.2,521.2c9.6,0,17.4-7.8,17.4-17.4
				s-7.8-17.4-17.4-17.4c-1.1,0-2.1,0.1-3.1,0.3c-2.3-9.6-10.9-16.7-21.2-16.7c-9.5,0-17.6,6.1-20.6,14.6c-0.8-0.2-1.6-0.3-2.5-0.3
				c-6.6,0-12,5.4-12,12c0,0.6,0.1,1.2,0.2,1.9c-0.4,0-0.8-0.1-1.2-0.1c-6.4,0-11.6,5.2-11.6,11.6c0,6.4,5.2,11.6,11.6,11.6H1481.2z
				"/>
			<line style="fill:none;stroke:#FFFFFF;stroke-width:6;stroke-miterlimit:10;" x1="1448.2" y1="533.1" x2="1432.1" y2="549.2"/>
			<line style="fill:none;stroke:#FFFFFF;stroke-width:6;stroke-miterlimit:10;" x1="1473.7" y1="533.1" x2="1457.6" y2="549.2"/>
		</g>
	</g>
	<g>
		<g>
			<path style="fill:none;stroke:#FFFFFF;stroke-width:6;stroke-miterlimit:10;" d="M1307.9,521.2c9.6,0,17.4-7.8,17.4-17.4
				s-7.8-17.4-17.4-17.4c-1.1,0-2.1,0.1-3.1,0.3c-2.3-9.6-10.9-16.7-21.2-16.7c-9.5,0-17.6,6.1-20.6,14.6c-0.8-0.2-1.6-0.3-2.5-0.3
				c-6.6,0-12,5.4-12,12c0,0.6,0.1,1.2,0.2,1.9c-0.4,0-0.8-0.1-1.2-0.1c-6.4,0-11.6,5.2-11.6,11.6c0,6.4,5.2,11.6,11.6,11.6H1307.9z
				"/>
			<line style="fill:none;stroke:#FFFFFF;stroke-width:6;stroke-miterlimit:10;" x1="1274.9" y1="533.1" x2="1258.8" y2="549.2"/>
			<line style="fill:none;stroke:#FFFFFF;stroke-width:6;stroke-miterlimit:10;" x1="1300.4" y1="533.1" x2="1284.3" y2="549.2"/>
		</g>
	</g>
	<g>
		<g>
			<path style="fill:none;stroke:#FFFFFF;stroke-width:6;stroke-miterlimit:10;" d="M1134.5,521.2c9.6,0,17.4-7.8,17.4-17.4
				s-7.8-17.4-17.4-17.4c-1.1,0-2.1,0.1-3.1,0.3c-2.3-9.6-10.9-16.7-21.2-16.7c-9.5,0-17.6,6.1-20.6,14.6c-0.8-0.2-1.6-0.3-2.5-0.3
				c-6.6,0-12,5.4-12,12c0,0.6,0.1,1.2,0.2,1.9c-0.4,0-0.8-0.1-1.2-0.1c-6.4,0-11.6,5.2-11.6,11.6c0,6.4,5.2,11.6,11.6,11.6H1134.5z
				"/>
			<line style="fill:none;stroke:#FFFFFF;stroke-width:6;stroke-miterlimit:10;" x1="1101.5" y1="533.1" x2="1085.4" y2="549.2"/>
			<line style="fill:none;stroke:#FFFFFF;stroke-width:6;stroke-miterlimit:10;" x1="1127" y1="533.1" x2="1110.9" y2="549.2"/>
		</g>
	</g>
	<g>
		<g>
			<path style="fill:none;stroke:#FFFFFF;stroke-width:6;stroke-miterlimit:10;" d="M961.1,521.2c9.6,0,17.4-7.8,17.4-17.4
				s-7.8-17.4-17.4-17.4c-1.1,0-2.1,0.1-3.1,0.3c-2.3-9.6-10.9-16.7-21.2-16.7c-9.5,0-17.6,6.1-20.6,14.6c-0.8-0.2-1.6-0.3-2.5-0.3
				c-6.6,0-12,5.4-12,12c0,0.6,0.1,1.2,0.2,1.9c-0.4,0-0.8-0.1-1.2-0.1c-6.4,0-11.6,5.2-11.6,11.6c0,6.4,5.2,11.6,11.6,11.6H961.1z"
				/>
			<line style="fill:none;stroke:#FFFFFF;stroke-width:6;stroke-miterlimit:10;" x1="928.2" y1="533.1" x2="912.1" y2="549.2"/>
			<line style="fill:none;stroke:#FFFFFF;stroke-width:6;stroke-miterlimit:10;" x1="953.6" y1="533.1" x2="937.5" y2="549.2"/>
		</g>
	</g>
	<g>
		<g>
			<path style="fill:none;stroke:#FFFFFF;stroke-width:6;stroke-miterlimit:10;" d="M787.8,521.2c9.6,0,17.4-7.8,17.4-17.4
				s-7.8-17.4-17.4-17.4c-1.1,0-2.1,0.1-3.1,0.3c-2.3-9.6-10.9-16.7-21.2-16.7c-9.5,0-17.6,6.1-20.6,14.6c-0.8-0.2-1.6-0.3-2.5-0.3
				c-6.6,0-12,5.4-12,12c0,0.6,0.1,1.2,0.2,1.9c-0.4,0-0.8-0.1-1.2-0.1c-6.4,0-11.6,5.2-11.6,11.6c0,6.4,5.2,11.6,11.6,11.6H787.8z"
				/>
			<line style="fill:none;stroke:#FFFFFF;stroke-width:6;stroke-miterlimit:10;" x1="754.8" y1="533.1" x2="738.7" y2="549.2"/>
			<line style="fill:none;stroke:#FFFFFF;stroke-width:6;stroke-miterlimit:10;" x1="780.3" y1="533.1" x2="764.2" y2="549.2"/>
		</g>
	</g>
	<g>
		<g>
			<path style="fill:none;stroke:#FFFFFF;stroke-width:6;stroke-miterlimit:10;" d="M614.4,521.2c9.6,0,17.4-7.8,17.4-17.4
				s-7.8-17.4-17.4-17.4c-1.1,0-2.1,0.1-3.1,0.3c-2.3-9.6-10.9-16.7-21.2-16.7c-9.5,0-17.6,6.1-20.6,14.6c-0.8-0.2-1.6-0.3-2.5-0.3
				c-6.6,0-12,5.4-12,12c0,0.6,0.1,1.2,0.2,1.9c-0.4,0-0.8-0.1-1.2-0.1c-6.4,0-11.6,5.2-11.6,11.6c0,6.4,5.2,11.6,11.6,11.6H614.4z"
				/>
			<line style="fill:none;stroke:#FFFFFF;stroke-width:6;stroke-miterlimit:10;" x1="581.4" y1="533.1" x2="565.3" y2="549.2"/>
			<line style="fill:none;stroke:#FFFFFF;stroke-width:6;stroke-miterlimit:10;" x1="606.9" y1="533.1" x2="590.8" y2="549.2"/>
		</g>
	</g>
	<g>
		<g>
			<path style="fill:none;stroke:#FFFFFF;stroke-width:6;stroke-miterlimit:10;" d="M441.1,521.2c9.6,0,17.4-7.8,17.4-17.4
				s-7.8-17.4-17.4-17.4c-1.1,0-2.1,0.1-3.1,0.3c-2.3-9.6-10.9-16.7-21.2-16.7c-9.5,0-17.6,6.1-20.6,14.6c-0.8-0.2-1.6-0.3-2.5-0.3
				c-6.6,0-12,5.4-12,12c0,0.6,0.1,1.2,0.2,1.9c-0.4,0-0.8-0.1-1.2-0.1c-6.4,0-11.6,5.2-11.6,11.6c0,6.4,5.2,11.6,11.6,11.6H441.1z"
				/>
			<line style="fill:none;stroke:#FFFFFF;stroke-width:6;stroke-miterlimit:10;" x1="408.1" y1="533.1" x2="392" y2="549.2"/>
			<line style="fill:none;stroke:#FFFFFF;stroke-width:6;stroke-miterlimit:10;" x1="433.6" y1="533.1" x2="417.5" y2="549.2"/>
		</g>
	</g>
</g>
<g>
	<path style="fill:none;stroke:#1D1D1B;stroke-width:4.01;stroke-miterlimit:10;" d="M2922.2,629.3v20.4c0,9.4-7.7,17-17,17H355.3
		c-9.4,0-17-7.7-17-17v-20.4"/>
</g>
<rect x="218.8" y="6.3" style="fill:none;" width="1377.6" height="218"/>
<text transform="matrix(0.9872 0 0 1 218.8442 41.25)"><tspan x="0" y="0" style="fill:#1D1D1B; font-family:'Fabriga'; font-size:50px;">Desde inicios del siglo XX se ha observado una clara rela</tspan><tspan x="1297.6" y="0" style="fill:#1D1D1B; font-family:'Fabriga'; font-size:50px;">-</tspan><tspan x="0" y="70" style="fill:#1D1D1B; font-family:'Fabriga'; font-size:50px;">ción de la actividad humana con el incremento de los gases </tspan><tspan x="0" y="140" style="fill:#1D1D1B; font-family:'Fabriga'; font-size:50px;">de efecto invernadero, que han modificado la dinámica de </tspan></text>
<rect x="964.8" y="774.4" style="fill:none;" width="1330.9" height="166.8"/>
<text transform="matrix(1 0 0 1 969.0615 804.5889)"><tspan x="0" y="0" style="fill:#1D1D1B; font-family:'Fabriga'; font-size:43.1636px;">De los últimos 15 años transcurridos, 13 han presentado un déficit en </tspan><tspan x="21.9" y="64.7" style="fill:#1D1D1B; font-family:'Fabriga'; font-size:43.1636px;">la cantidad de lluvia caída con respecto a un año normal (se usa el </tspan><tspan x="166.3" y="129.5" style="fill:#1D1D1B; font-family:'Fabriga'; font-size:43.1636px;">promedio del periodo 1991-2020 como referencia). </tspan></text>
<rect x="1675.1" y="6.9" style="fill:none;" width="1380.6" height="217.4"/>
<text transform="matrix(0.9872 0 0 1 1675.1006 41.8516)"><tspan x="0" y="0" style="fill:#1D1D1B; font-family:'Fabriga'; font-size:50px;">la atmósfera y el océano. Uno de los fenómenos observa</tspan><tspan x="1308.4" y="0" style="fill:#1D1D1B; font-family:'Fabriga'; font-size:50px;">-</tspan><tspan x="0" y="70" style="fill:#1D1D1B; font-family:'Fabriga'; font-size:50px;">dos, producto de estas perturbaciones, es la clara disminu</tspan><tspan x="1357.4" y="70" style="fill:#1D1D1B; font-family:'Fabriga'; font-size:50px;">-</tspan><tspan x="0" y="140" style="fill:#1D1D1B; font-family:'Fabriga'; font-size:50px;">ción de las precipitaciones de nuestra región. </tspan></text>
<g>
	
		<text transform="matrix(1 0 0 1 218.0306 1251.0674)" style="fill:#1D1D1B;stroke:#1D1D1B;stroke-width:2.8346;stroke-miterlimit:10; font-family:'Fabriga'; font-size:70px;">TENDENCIAS DE LAS PRECIPITACIONES PARA VALPARAÍSO</text>
</g>
<g>
	<rect x="219.1" y="1355.2" style="fill:none;" width="1377.4" height="254.8"/>
	<text transform="matrix(0.9872 0 0 1 219.0539 1390.2236)"><tspan x="0" y="0" style="fill:#1D1D1B; font-family:'Fabriga'; font-size:50px;">A consecuencia del déficit de precipitaciones, se ha </tspan><tspan x="0" y="70" style="fill:#1D1D1B; font-family:'Fabriga'; font-size:50px;">observado una disminución importante en la cubierta de </tspan><tspan x="0" y="140" style="fill:#1D1D1B; font-family:'Fabriga'; font-size:50px;">nieve y lluvia en las zonas de montaña, trayendo como </tspan><tspan x="0" y="210" style="fill:#1D1D1B; font-family:'Fabriga'; font-size:50px;">consecuencia escasez de agua para el consumo humano, </tspan></text>
</g>
<g>
	<rect x="1678" y="1349.8" style="fill:none;" width="1377.8" height="245.6"/>
	<text transform="matrix(0.9872 0 0 1 1677.9916 1384.8398)"><tspan x="0" y="0" style="fill:#1D1D1B; font-family:'Fabriga'; font-size:50px;">animal y para el riego, además de un aumento de incendios </tspan><tspan x="0" y="70" style="fill:#1D1D1B; font-family:'Fabriga'; font-size:50px;">forestales y urbanos. El futuro proyectado de las </tspan><tspan x="0" y="140" style="fill:#1D1D1B; font-family:'Fabriga'; font-size:50px;">precipitaciones, también parece preocupante.</tspan></text>
</g>
</svg>
