<?xml version="1.0" encoding="utf-8"?>
<!-- Generator: Adobe Illustrator 25.2.0, SVG Export Plug-In . SVG Version: 6.00 Build 0)  -->
<svg version="1.1" id="Layer_1" xmlns="http://www.w3.org/2000/svg" xmlns:xlink="http://www.w3.org/1999/xlink" x="0px" y="0px"
	 viewBox="0 0 3323.6 1611.8" style="enable-background:new 0 0 3323.6 1611.8;" xml:space="preserve">
<g>
	<g>
		<rect x="1129.1" y="216.1" style="fill:#F6E6D3;" width="374" height="1154.5"/>
		<rect x="1769.5" y="216.1" style="fill:#CBE7EE;" width="464.5" height="1154.5"/>
		<rect x="2234.5" y="216.1" style="fill:#B3DDE2;" width="430.2" height="1152.4"/>
		<rect x="2664.6" y="216.1" style="fill:#90CFCF;" width="470.2" height="1152.4"/>
	</g>
	<g>
		<g>
			<g>
				
					<line style="fill:none;stroke:#1D1D1B;stroke-width:4.9229;stroke-miterlimit:10;" x1="498.5" y1="1369.6" x2="3138" y2="1369.6"/>
				<g>
					
						<line style="fill:none;stroke:#1D1D1B;stroke-width:4.9229;stroke-miterlimit:10;" x1="2859.9" y1="1397.5" x2="2859.9" y2="1368.5"/>
					
						<line style="fill:none;stroke:#1D1D1B;stroke-width:4.9229;stroke-miterlimit:10;" x1="2497.5" y1="1397.5" x2="2497.5" y2="1368.5"/>
					
						<line style="fill:none;stroke:#1D1D1B;stroke-width:4.9229;stroke-miterlimit:10;" x1="2135.4" y1="1397.5" x2="2135.4" y2="1368.5"/>
					
						<line style="fill:none;stroke:#1D1D1B;stroke-width:4.9229;stroke-miterlimit:10;" x1="1772.9" y1="1397.5" x2="1772.9" y2="1368.5"/>
					
						<line style="fill:none;stroke:#1D1D1B;stroke-width:9.2291;stroke-miterlimit:10;" x1="1830.9" y1="1397.5" x2="1830.9" y2="1352.6"/>
					
						<line style="fill:none;stroke:#1D1D1B;stroke-width:4.9229;stroke-miterlimit:10;" x1="1410.8" y1="1397.5" x2="1410.8" y2="1368.5"/>
					
						<line style="fill:none;stroke:#1D1D1B;stroke-width:4.9229;stroke-miterlimit:10;" x1="1048.3" y1="1397.5" x2="1048.3" y2="1368.5"/>
					
						<line style="fill:none;stroke:#1D1D1B;stroke-width:4.9229;stroke-miterlimit:10;" x1="685.9" y1="1397.5" x2="685.9" y2="1368.5"/>
				</g>
				<g>
					
						<line style="fill:none;stroke:#6F6F6E;stroke-width:2.5699;stroke-miterlimit:10;stroke-dasharray:8.5663,8.5663;" x1="501.7" y1="247.8" x2="3134.8" y2="247.8"/>
					
						<line style="fill:none;stroke:#6F6F6E;stroke-width:2.5699;stroke-miterlimit:10;stroke-dasharray:8.5663,8.5663;" x1="501.7" y1="496.6" x2="3134.8" y2="496.6"/>
					
						<line style="fill:none;stroke:#6F6F6E;stroke-width:2.5699;stroke-miterlimit:10;stroke-dasharray:8.5663,8.5663;" x1="501.7" y1="744.9" x2="3134.8" y2="744.9"/>
					
						<line style="fill:none;stroke:#6F6F6E;stroke-width:2.5699;stroke-miterlimit:10;stroke-dasharray:8.5663,8.5663;" x1="501.7" y1="993.7" x2="3134.8" y2="993.7"/>
					
						<line style="fill:none;stroke:#6F6F6E;stroke-width:2.5699;stroke-miterlimit:10;stroke-dasharray:8.5663,8.5663;" x1="501.7" y1="1241.9" x2="3134.8" y2="1241.9"/>
				</g>
				<g>
					<g>
						<g>
							
								<line style="fill:none;stroke:#8A4614;stroke-width:4.6146;stroke-miterlimit:10;" x1="1522.6" y1="762.8" x2="3131.6" y2="1010"/>
						</g>
						<g>
							
								<line style="fill:none;stroke:#8A4614;stroke-width:4.6146;stroke-miterlimit:10;" x1="1525.8" y1="805.4" x2="3131.6" y2="778.6"/>
						</g>
						<g>
							
								<line style="fill:none;stroke:#8A4614;stroke-width:4.6146;stroke-miterlimit:10;" x1="504.9" y1="674.1" x2="1519.4" y2="762.8"/>
						</g>
					</g>
				</g>
				<g>
					<g>
						
							<line style="fill:none;stroke:#1D1D1B;stroke-width:4.9229;stroke-miterlimit:10;" x1="2664.6" y1="634.8" x2="2664.6" y2="1088.5"/>
						<g>
							<polygon style="fill:#1D1D1B;" points="2644.5,651.1 2648.1,654.4 2664.6,636.7 2681.2,654.4 2684.8,651.1 2664.6,629.4 
															"/>
						</g>
						<g>
							<polygon style="fill:#1D1D1B;" points="2644.5,1072.2 2648.1,1068.8 2664.6,1086.6 2681.2,1068.8 2684.8,1072.2 
								2664.6,1093.8 							"/>
						</g>
					</g>
				</g>
			</g>
		</g>
	</g>
	<g>
		<g>
			<path style="fill:none;stroke:#03688B;stroke-width:2.1787;stroke-linejoin:bevel;stroke-miterlimit:10;" d="M504.9,712.7
				l15.5-95.1c1.5-9.2,3.9-9.2,5.4,0l12.6,79.7c1.5,9.2,4.2,9.3,6,0.1l11.5-56.3c1.9-9.1,4.7-9.1,6.3,0.1l12,68.5
				c1.6,9.2,7.1,18.4,12.1,20.5c5,2.1,10.2-3.8,11.4-13l13.4-100.7c1.2-9.2,4-9.3,6.2-0.2l10.5,44.1c2.2,9.1,8,16.2,12.9,15.9
				c4.9-0.4,12.2,6.4,16.2,15l3.9,8.4c4,8.6,10,22.8,13.4,31.6l5.5,14.2c3.4,8.8,10.3,10.9,15.4,4.7c5-6.2,13.2-6.8,18.1-1.4
				s10.5,2.4,12.5-6.7l11.3-53.6c1.9-9.1,7.4-23.4,12.2-31.7l0.6-1c4.8-8.3,10.6-7.6,13,1.4l9.7,36.8c2.4,9.1,6.8,9.2,9.9,0.3
				l6.8-19.9c3-8.9,9.3-9.3,13.8-1l1.7,3.1c4.6,8.4,12.4,20.3,17.5,26.5s13.2,13.5,18.1,16.2c4.9,2.7,13.1-0.1,18.1-6.3
				c5-6.2,11.7-4,14.8,4.9l6.6,18.7c3.1,8.9,7.7,8.7,10.2-0.3l9.3-34.2c2.5-9,5.6-8.9,7,0.3l12.9,85.8c1.4,9.2,4,9.3,5.7,0.1
				l11.8-61.1c1.8-9.2,7.3-20.9,12.2-26c4.9-5.2,11.4-16.7,14.4-25.6l7.5-22.3c3-8.9,6.7-8.7,8.4,0.5l12,68.5
				c1.6,9.2,7.1,11.4,12.1,4.9c5-6.5,13.2-15.7,18.1-20.5c4.9-4.8,11.6-1.5,14.7,7.4l6.7,18.7c3.2,8.9,9.8,16.7,14.7,17.4
				c4.9,0.7,10.2-6.2,11.7-15.4l12.8-77.3c1.5-9.2,5.9-23.8,9.8-32.4l4.3-9.6c3.9-8.6,8-8.2,9.1,1.1l13.7,109.3
				c1.2,9.2,3.3,24.3,4.8,33.5l13,82.1c1.5,9.2,3.6,9.2,4.7-0.1l13.8-113.1c1.1-9.2,3.1-24.4,4.5-33.6l13.5-94.3
				c1.3-9.2,3.4-9.2,4.6,0l13.5,103.2c1.2,9.2,3.6,24.3,5.3,33.5l12.1,64.8c1.7,9.2,6.9,9.8,11.5,1.5l1.1-2.1
				c4.6-8.3,10.3-22.6,12.7-31.6l9.6-36.5c2.4-9.1,5.3-24,6.6-33.2l13.4-100.7c1.2-9.2,3.9-9.3,5.8-0.2l11.1,51.2
				c2,9.1,4.5,24.2,5.5,33.4l14.1,124.3c1,9.2,6,10.7,11.1,3.1c5-7.5,10.5-21.2,12.2-30.4l11.9-66.1c1.7-9.2,4.7-9.2,6.7-0.1
				l10.9,48.9c2,9.1,7.2,9.6,11.4,1.1l2.5-5c4.2-8.5,11.8-9.3,16.8-1.8c5,7.5,13.3,15.4,18.3,17.4c5,2.1,11-3.7,13.2-12.8l9.8-40.4
				c2.2-9.1,5.4-9,7.1,0.2L1444,788c1.7,9.2,6.3,23.7,10.3,32.3l3.4,7.4c4,8.6,11.4,15.3,16.4,15c5-0.4,10.3-8.2,11.8-17.4
				l12.6-79.7c1.5-9.2,6.8-16.7,11.8-16.7s9.1,0,9.1,0"/>
		</g>
		<g>
			<path style="fill:none;stroke:#03688B;stroke-width:2.1787;stroke-linejoin:bevel;stroke-miterlimit:10;" d="M1519.4,838.2
				l14.8-77.7c1.7-9.2,6.3-23.7,10.2-32.4l4.3-9.6c3.9-8.6,9.2-23.1,11.9-32l8.1-27.1c2.7-9,6.2-8.8,7.7,0.4l12.7,74.9
				c1.6,9.2,6.9,21.7,11.8,27.8c4.9,6.1,10.5,18.6,12.3,27.8l11.5,56.3c1.9,9.1,4.8,9.1,6.4-0.1l11.9-66.1
				c1.7-9.2,7.1-16.7,12.1-16.7s13.3-1.7,18.3-3.8c5-2.1,11.5,3.6,14.4,12.5l7.5,23.5c2.9,8.9,8.9,9.4,13.5,1.1l1.7-3.1
				c4.6-8.4,9.6-7.7,11.1,1.5l12.3,73.3c1.5,9.2,3.6,9.1,4.5-0.1l14.9-148.9c0.9-9.3,3.2-9.3,5-0.2l11.3,56.3
				c1.8,9.2,4.4,9.1,5.6-0.1l13.7-99.4c1.3-9.2,3.9-9.3,5.9-0.2l10.7,48.8c2,9.1,4.3,24.2,5.2,33.4l15.2,162.6
				c0.9,9.3,2.3,9.3,3.2,0l14.6-147.8c0.9-9.3,4.3-9.6,7.4-0.7l6.7,18.7c3.2,8.9,9.8,9.9,14.7,2.4c4.9-7.5,11.1-6.3,13.8,2.7
				l8.7,29.5c2.6,9,5.7,8.8,6.7-0.5l14.1-124.3c1-9.2,5.9-23.5,10.8-31.8l0.6-0.9c4.9-8.2,9.6-7.4,10.5,1.9l14.6,148.9
				c0.9,9.3,3.1,24.3,4.8,33.5l12,62.4c1.8,9.2,4.1,9.1,5.2-0.1l14.3-121.9c1.1-9.2,3.5-9.3,5.3-0.2l11.4,57.6
				c1.8,9.2,5.6,9.3,8.5,0.4l7.9-24.6c2.9-8.9,6.7-8.8,8.6,0.4l11.1,54.9c1.9,9.1,6.4,23.8,10.1,32.5l5,11.8c3.7,8.7,7.4,8.2,8.2-1
				l14.8-160.2c0.9-9.3,4.6-9.7,8.2-1l5,11.8c3.7,8.7,8.5,8.4,10.7-0.7l9.8-40.2c2.2-9.1,5-9,6.2,0.3l14,110.4
				c1.2,9.2,4.7,9.5,7.8,0.7l6.6-18.7c3.1-8.9,6.6-8.6,7.8,0.7l14.1,111.7c1.2,9.2,2.6,9.2,3.3-0.1l15.6-232c0.6-9.3,1.8-9.3,2.7,0
				l15.3,170.1c0.8,9.3,5.5,13.8,10.5,10c4.9-3.8,11.9,0.3,15.4,9l5.3,13c3.6,8.7,10.5,9.1,15.3,0.9l0.7-1.1
				c4.8-8.2,11.5-7.8,14.9,1l5.7,15.2c3.3,8.8,6.7,8.4,7.4-0.8l15.7-197.4c0.7-9.3,2.4-9.3,3.6-0.1l13.3,98.1
				c1.3,9.2,6.4,22.9,11.4,30.5s9.7,6.1,10.4-3.2l15.5-211.1c0.7-9.3,1.9-9.3,2.7,0l15.4,177.6c0.8,9.3,3.4,24.3,5.9,33.3l9.1,34.2
				c2.4,9,8.5,15.6,13.5,14.6c5-1,11.7,5.4,14.8,14.2l6.6,18.7c3.1,8.9,6.4,8.6,7.3-0.7l15.1-158.8c0.9-9.3,4.7-23.9,8.5-32.6
				l4.1-9.5c3.8-8.7,8.5-8.3,10.6,0.8l10.9,48.9c2,9.1,7.7,11.8,12.7,6c4.9-5.8,13.1-4.7,18.1,2.4c5,7.1,13.2,15.5,18.1,18.6
				c4.9,3.1,10.2-1.9,11.8-11.1l12.6-74.6c1.6-9.2,5.8-23.9,9.3-32.6l5.3-13c3.6-8.7,7.2-8.3,8,1l14.9,165.2
				c0.8,9.3,3.7,9.5,6.4,0.5l8.5-28.5c2.7-9,8.1-9.3,12.1-0.7l3.4,7.4c4,8.6,10.1,8.5,13.6-0.3l5.6-14c3.5-8.8,10.2-9.1,14.8-0.8
				l1,1.9c4.6,8.3,9.4,7.6,10.7-1.6l13.9-104.3c1.2-9.2,3.7-9.3,5.4-0.1l11.6,61c1.7,9.2,7.3,12.7,12.3,8s12.2-1.6,16,7l4.2,9.5
				c3.8,8.7,8.6,8.3,10.7-0.8l10.5-45.2c2.1-9.1,6.2-9.2,9.1-0.3l7.5,23.5c2.9,8.9,6.5,23.8,8.2,33l12.3,68.5c1.6,9.2,4.8,9.3,7,0.2
				l9.8-40.4c2.2-9.1,4.7-24.1,5.5-33.4l15.3-172.5c0.8-9.3,2.2-9.3,3.1,0l15,155.1c0.9,9.3,3.9,24.2,6.6,33.1l7.9,25.8
				c2.8,9,6.2,8.8,7.6-0.4l13.1-83.4c1.4-9.2,6.6-10.8,11.6-3.6c4.9,7.2,10.7,20.6,13,29.7l10.3,42.5c2.2,9.1,7.7,9.7,12.2,1.3
				l1.6-3c4.5-8.4,10.9-22.5,14.4-31.2l5.9-15.2c3.4-8.8,7.5-23.5,9.1-32.7l12.1-69.5c1.6-9.2,5.6-23.9,8.8-32.8l6.5-17.7
				c3.2-8.8,6.9-8.5,8.1,0.7l13.6,104.5c1.2,9.2,5.1,9.6,8.7,0.9l5.3-13c3.6-8.7,10.5-10.6,15.4-4.1s10.3,19.3,12.1,28.5l12.1,64.8
				c1.7,9.2,4.6,24.2,6.4,33.3l11.3,57.3c1.8,9.2,4.1,9.1,5.1-0.2l14.7-139c1-9.3,4.7-9.7,8.3-1l4.8,11.7
				c3.6,8.7,10.7,12.2,15.7,7.8c5-4.4,9.1-8,9.1-8"/>
		</g>
		<g>
			<path style="fill:none;stroke:#03688B;stroke-width:2.1787;stroke-linejoin:bevel;stroke-miterlimit:10;" d="M1519.4,784.8
				l13,43.2c2.7,9,7.3,9,10.1,0.1l7.9-24.6c2.9-8.9,7.6-23.6,10.5-32.5l7.3-22.2c2.9-8.9,7.9-23.5,11-32.4l7-20
				c3.1-8.9,6.3-8.6,7,0.7l15.1,184c0.8,9.3,2.6,9.3,4,0.1l13-82.1c1.5-9.2,4.7-24.1,7.2-33.2l8.8-31.8c2.5-9,8.7-11.9,13.7-6.5
				c5,5.5,13.3,12.7,18.3,16.1c5,3.4,11.8,13.4,15.1,22.2l6,16.4c3.3,8.8,8.6,23.3,11.8,32.1l6.5,17.5c3.3,8.8,7.1,8.5,8.5-0.7
				l12.8-83.1c1.4-9.2,4.4-9.3,6.6-0.2l10.2,41.5c2.2,9.1,8.1,11.8,13,5.9c4.9-5.8,13.1-16.2,18.1-23.1s13.2-15,18.1-18.1
				c4.9-3.1,10.3,1.9,12,11.1l12.3,67.4c1.7,9.2,4.3,24.2,5.9,33.4l12.1,69.8c1.6,9.2,3.7,9.1,4.6-0.1l14.8-144.1
				c1-9.3,5.8-19.9,10.7-23.7c4.9-3.8,9.9,0.7,11,10l14.2,115.5c1.1,9.2,2.8,9.2,3.8,0l14.5-144.1c0.9-9.3,4.5-9.7,8-0.9l5.7,14.2
				c3.5,8.8,10.4,18.4,15.3,21.4c4.9,3,10.5,13,12.4,22.1l11.4,55c1.9,9.1,6.3,9.5,9.8,0.7l5.6-14c3.5-8.8,10.4-18.7,15.3-22.1
				c4.9-3.4,10.7,1.3,12.8,10.4l10.6,45.2c2.1,9.1,7.8,9.8,12.5,1.5l0.6-1c4.8-8.3,10.7-22.4,13.1-31.5l9.4-34.4
				c2.5-9,6.6-9.1,9.2-0.1l8.5,29.5c2.6,9,8.8,22.3,13.9,29.5c5,7.2,13.2,13.4,18.1,13.7c4.9,0.3,10-7,11.2-16.2l13.7-101.8
				c1.2-9.2,3.4-9.2,4.8,0l12.8,83.4c1.4,9.2,6.7,12,11.7,6.2s12.6-17.6,16.8-26.1l2.6-5.3c4.2-8.5,10.5-8.3,14,0.5l5.7,14.2
				c3.5,8.8,9.1,8.7,12.4-0.1l5.7-15.2c3.3-8.8,6.8-8.4,7.7,0.8l15.1,160.2c0.9,9.3,2.6,9.3,3.8,0.1l13.9-105.6
				c1.2-9.2,3.5-9.3,5.1-0.1l12.1,69.5c1.6,9.2,3.6,9.1,4.5-0.1l15.1-157.5c0.9-9.3,5.6-15.8,10.6-14.4c4.9,1.3,9.6,10,10.3,19.3
				l15.6,191.2c0.8,9.3,2,9.3,2.8,0l15-173.8c0.8-9.3,3.9-9.6,6.9-0.7l7.4,22.3c3,8.9,7.9,23.5,11,32.4l6.8,19.9
				c3,8.9,8.7,23.2,12.6,31.9l4.3,9.6c3.9,8.6,10.8,22.5,15.4,30.9l1,1.9c4.6,8.3,9.3,7.6,10.3-1.7l14.5-126.7
				c1.1-9.2,3.1-9.3,4.5-0.1l12.8,84.7c1.4,9.2,6.7,17.3,11.7,18c5,0.7,10.3-6.3,11.7-15.5l12.8-83.4c1.4-9.2,4.2-9.3,6.3-0.2
				l10.9,48.9c2,9.1,6.8,23.7,10.6,32.3l4.2,9.5c3.8,8.7,9,8.4,11.6-0.6l8.8-30.5c2.6-9,5.8-8.8,7.1,0.4l13.5,94.4
				c1.3,9.2,5.3,9.6,8.9,0.9l4.8-11.7c3.6-8.7,8.1-23.3,10.1-32.5l11.2-52.6c1.9-9.1,5.1-9.1,7,0l11.1,53.6
				c1.9,9.1,5.2,24.1,7.4,33.2l10.3,42.8c2.2,9.1,5.3,9,6.9-0.2l12.2-70.9c1.6-9.2,7-23.4,12-31.5l0.1-0.1c5-8.2,11.3-7.5,13.9,1.5
				l8.4,29.2c2.6,9,8.8,18.6,13.9,21.3c5,2.7,11.2-2.4,13.7-11.5l8.8-31.8c2.5-9,6.7-9.1,9.4-0.1l8.5,28.5c2.7,9,6.4,8.9,8.3-0.3
				l11.1-53.9c1.9-9.1,4.3-9.1,5.3,0.2l14.5,128c1,9.3,2.8,9.3,3.8,0l14-122.9c1.1-9.2,6-10.4,11.1-2.6c5,7.8,13.3,18.7,18.3,24.1
				c5,5.5,13.2,16.4,18.1,24.3c4.9,7.9,12.9,21.1,17.8,29.3l0.7,1.1c4.8,8.2,12.8,18.3,17.8,22.4c4.9,4.1,10.5-0.1,12.5-9.2
				l11.2-52.3c2-9.1,4.9-9.1,6.5,0.1l11.9,67.2c1.6,9.2,5,9.3,7.4,0.3l9.5-35.5c2.4-9,8.3-9.7,13.1-1.4l0.6,1
				c4.8,8.3,12.8,10.6,17.8,5.1c5-5.5,10.7-2.4,12.6,6.7l11.1,53.6c1.9,9.1,4.3,9.1,5.4-0.2l14.3-120.3c1.1-9.2,6-22.4,10.9-29.3
				s9.9-4.9,11,4.3l14.1,113.1c1.2,9.2,3,9.2,4,0l14-121.9c1.1-9.2,3.1-9.3,4.6-0.1l13.1,83.4c1.4,9.2,4.3,24.2,6.2,33.3l10.7,48.9
				c2,9.1,5.5,9.2,7.9,0.1l14-54.3"/>
		</g>
	</g>
	<g style="opacity:0.58;">
		<path style="fill:#03688B;" d="M2159.9,862.3l9.7,76.9c0.9,6.8,1.6,6.8,1.7,6.8c0,0,0.8-0.1,1.3-6.8l7.1-105.8l-0.3,0.6
			c-4.2,8.5-11.8,20.3-16.8,26.1C2161.7,861.1,2160.8,861.8,2159.9,862.3z"/>
		<path style="fill:#03688B;" d="M2189.6,700.4c0,0-0.6,0.4-1.1,6.8l-8.4,124.4l1.5-3.1c2-4.1,4.6-6.3,7.3-6.3c0.1,0,0.1,0,0.2,0
			c2.7,0.1,5.2,2.5,6.9,6.8l5.7,14.2c0.5,1.3,1.1,2.5,1.7,3.4l-12.5-139.5C2190.2,700.9,2189.6,700.5,2189.6,700.4z"/>
		<path style="fill:#03688B;" d="M2152.2,820.6c-1.4-0.1-3,2.2-4.5,6.4l-0.7,2l3.8,24.9c0.8,5.1,2.7,8.3,5.4,9
			c1.1,0.3,2.2,0.1,3.3-0.6l-4.4-34.6C2154.7,823.2,2153.6,820.7,2152.2,820.6z"/>
		<path style="fill:#03688B;" d="M2026.2,819.5C2026.2,819.5,2026.1,819.5,2026.2,819.5c-1.6,0-3.2,2.4-4.5,6.5l-6.7,20.9l8,34.4
			c1,4.3,2.8,6.9,5.1,7.2c2.3,0.3,4.8-1.7,7.1-5.7l0.6-1c1.2-2.2,2.5-4.7,3.9-7.4l-9.7-48C2029.1,822.1,2027.7,819.6,2026.2,819.5z"
			/>
		<path style="fill:#03688B;" d="M2224.3,821.9c-1.3-0.1-3,2.1-4.6,6.3l-5.7,15.2c-1.6,4.3-3.9,6.7-6.3,6.7c0,0,0,0,0,0
			c-1.4,0-2.7-0.8-3.9-2.2l2.7,29.5c0.5,5.7,2.6,9.9,5.4,10.9c1.5,0.5,3.1,0.2,4.7-1c1.7-1.3,3.7-1.7,5.8-1.2
			c3.9,0.9,7.6,4.8,9.9,10.3l1.5,3.6l-6.7-71C2226.7,824.6,2225.7,822,2224.3,821.9z"/>
		<path style="fill:#03688B;" d="M2116.5,727.6C2116.5,727.6,2116.5,727.6,2116.5,727.6c-1.1,0-2.3,2.5-3.3,6.6l-9.8,40.2
			c-1.1,4.5-2.9,7-5,7.1c-0.1,0-0.1,0-0.2,0c-2.1,0-4.1-2.3-5.9-6.4l-5-11.8c-1.7-4.1-3.5-6.3-5-6.1c-1.5,0.2-2.5,2.8-2.9,7.1
			l-6.4,69.6l3.3,11.3c2.6,9,8.8,22.2,13.8,29.5c5,7.2,13.1,13.3,18,13.6c0.1,0,0.2,0,0.3,0c4.8,0,9.6-7.1,10.8-16.1l8.9-66.2
			l-9.1-71.5C2118.5,730.3,2117.5,727.7,2116.5,727.6z"/>
		<path style="fill:#03688B;" d="M2135.4,763.7C2135.4,763.7,2135.4,763.7,2135.4,763.7c-0.6,0-1.5,1.8-2.2,6.8l-4.8,35.6l4.9,38.9
			c0.5,4.3,1.7,6.9,3,7c1.4,0.1,3-2.2,4.5-6.4l5.8-16.6l-9-58.5C2137,765.4,2136,763.7,2135.4,763.7z"/>
		<path style="fill:#03688B;" d="M2063,809.3C2063,809.3,2063,809.3,2063,809.3c-1.6,0-3.2,2.4-4.4,6.7l-9.4,34.4
			c-1.8,6.7-5.5,16.1-9.2,24l1.4,6.9c1.9,9.2,6.4,23.7,10,32.4l5,11.8c1.7,4.1,3.5,6.3,5,6.1c1.5-0.2,2.5-2.8,2.9-7.1l8.4-90.5
			l-5.2-18.1C2066.3,811.7,2064.7,809.3,2063,809.3z"/>
		<path style="fill:#03688B;" d="M3116.2,773.5c-3.8-0.8-7.4-4.4-9.6-9.7l-4.8-11.7c-1.7-4.1-3.5-6.3-5-6.2c-1.5,0.2-2.6,2.8-3,7.1
			l-14.6,137.8c0.2,1,0.5,2.2,0.7,3.6l13.1,83.4c1.4,9.2,4.2,24.2,6.2,33.3l10.7,48.9c0.9,4.3,2.3,6.7,3.6,6.8c0,0,0,0,0,0
			c1.4,0,2.8-2.4,3.9-6.6l14-54.3v-242l-8.8,7.8C3120.7,773.4,3118.5,774,3116.2,773.5z"/>
		<path style="fill:#03688B;" d="M3062.4,834.9c-1.8-9.2-4.7-24.1-6.4-33.3l-12.1-64.8c-1.7-9.2-7.1-21.9-12-28.4
			c-2.1-2.7-4.6-4.1-7.1-3.8c-3.2,0.4-6.1,3.2-8,7.8l-5.3,13c-1.8,4.3-3.7,6.6-5.4,6.4c-1.7-0.2-3-2.8-3.6-7.3L2988.8,620
			c-0.6-4.3-1.7-6.9-3.1-7c0,0-0.1,0-0.1,0c-1.4,0-3,2.3-4.5,6.3l-6.5,17.7c-3.2,8.9-7.2,23.5-8.8,32.8l-12.1,69.5
			c-1.6,9.2-5.7,23.9-9.1,32.7l-5.9,15.2c-3.4,8.8-9.9,22.8-14.4,31.3l-1.6,3c-2.2,4.1-4.7,6.3-7.1,6c-2.4-0.2-4.3-2.8-5.4-7.3
			l-10.3-42.5c-2.2-9.1-8-22.4-12.9-29.6c-2.2-3.2-4.5-4.8-6.5-4.4c-2.3,0.4-4,3.3-4.7,7.9l-13.1,83.4c-0.7,4.5-1.9,7.1-3.5,7.2
			c0,0-0.1,0-0.1,0c-1.5,0-3.1-2.4-4.4-6.7l-7.9-25.8c-2.8-9-5.7-23.9-6.6-33.2l-15-155.1c-0.7-6.7-1.4-6.8-1.4-6.8
			c0,0-0.8,0.1-1.4,6.8L2807,793.9c-0.8,9.3-3.3,24.3-5.5,33.4l-9.8,40.4c-0.8,3.1-2.1,6.9-3.9,6.9c0,0,0,0,0,0
			c-1.8,0-2.9-3.9-3.5-7.1l-12.3-68.5c-1.7-9.2-5.3-24-8.2-32.9l-7.5-23.5c-1.3-4.1-3-6.5-4.6-6.5c0,0,0,0-0.1,0
			c-1.6,0.1-3.1,2.5-4.1,6.8l-10.5,45.2c-1,4.5-2.8,7-4.9,7.2c-2.1,0.1-4.3-2.1-6.2-6.4l-4.2-9.5c-2.2-5.1-5.7-8.4-9.4-9.1
			c-2.3-0.4-4.5,0.3-6.4,2.1c-1.9,1.8-4,2.5-6,2c-3.1-0.8-5.6-4.6-6.6-10l-11.6-61c-1.2-6.2-2.4-6.7-2.7-6.7c0,0,0,0,0,0
			c-0.3,0-1.5,0.5-2.3,6.8l-13.9,104.3c-0.6,4.5-2.1,7.2-4.2,7.5c-2.1,0.3-4.5-1.8-6.8-5.9l-1-1.9c-2.2-4-4.9-6.1-7.7-5.9
			c-2.7,0.1-5.1,2.5-6.8,6.7l-5.6,14c-1.7,4.3-4.1,6.7-6.8,6.8c0,0-0.1,0-0.1,0c-2.6,0-5.1-2.3-7-6.4l-3.4-7.4
			c-1.9-4.1-4.2-6.3-6.4-6.1c-2.2,0.1-4.1,2.6-5.4,6.8l-8.5,28.5c-0.9,3.1-2.3,6.7-4,6.7c0,0-0.1,0-0.1,0c-1.7-0.1-2.4-4-2.7-7.2
			l-14.9-165.2c-0.4-4.3-1.4-6.9-2.8-7.1c-1.4-0.2-3.2,2.1-4.9,6.2l-5.3,13c-3.6,8.8-7.8,23.4-9.3,32.6l-12.6,74.6
			c-1,6-3.7,10.5-7.1,11.8c-1.7,0.6-3.4,0.4-5-0.6c-5-3.1-13.1-11.5-18.1-18.7c-2.6-3.7-6.2-5.9-9.9-6.1c-3-0.1-5.8,1.2-7.9,3.7
			c-2.1,2.4-4.3,3.5-6.5,3c-3-0.6-5.3-3.9-6.5-9.1l-10.9-48.9c-1-4.3-2.6-6.8-4.5-7c-1.9-0.1-4,2.1-5.8,6.2l-4.1,9.5
			c-3.8,8.7-7.6,23.3-8.5,32.6l-15.1,158.8c-0.3,3.2-1.1,7.1-2.9,7.3c-1.9,0.2-3.6-3.5-4.6-6.6l-6.6-18.7
			c-3.1-8.8-9.7-15.2-14.6-14.1c-5.1,1.1-11.3-5.5-13.7-14.7l-9.1-34.2c-2.4-9.1-5.1-24-5.9-33.3l-15.4-177.6
			c-0.6-6.4-1.2-6.8-1.2-6.8c-0.1,0-0.7,0.4-1.1,6.8l-15.5,211.1c-0.3,4.8-1.7,7.6-3.9,8.1c-2,0.4-4.4-1.3-6.8-4.8
			c-1.2-1.7-2.3-3.8-3.5-6.1l11.5,141.9c0.5,6.5,1.2,6.8,1.2,6.8c0.1,0,0.7-0.4,1.3-6.8l15-173.8c0.3-3.2,1-7.1,2.8-7.3
			c1.8-0.2,3.4,3.5,4.4,6.6l7.4,22.3c3,8.9,7.9,23.4,11,32.4l6.8,19.9c3.1,8.9,8.7,23.2,12.5,31.9l4.3,9.6
			c3.9,8.7,10.8,22.5,15.4,30.9l1,1.9c2.2,3.9,4.5,6,6.3,5.7c1.9-0.3,3.2-3,3.7-7.3l14.5-126.7c0.5-4.7,1.3-7.1,2.3-7.1c0,0,0,0,0,0
			c1,0,1.8,2.4,2.5,7l12.8,84.7c1.4,9.2,6.6,17.2,11.5,17.8c1.3,0.2,2.7-0.2,4.1-1.1c3.5-2.4,6.4-8,7.4-14.3l12.8-83.4
			c0.5-3.2,1.4-7,3.1-7.1c0,0,0,0,0,0c1.6,0,2.8,3.8,3.5,6.9l10.9,48.9c2,9.1,6.8,23.6,10.6,32.3l4.2,9.5c1.7,4,3.9,6.2,5.9,6.2
			c0,0,0.1,0,0.1,0c2.1-0.1,4-2.6,5.2-6.8l8.8-30.5c0.9-3.1,2.3-6.7,4.1-6.7c0,0,0,0,0.1,0c1.8,0.1,2.8,4,3.2,7.2l13.5,94.4
			c0.6,4.3,1.9,6.9,3.5,7.1c1.6,0.2,3.5-2.1,5.2-6.2l4.8-11.7c3.6-8.7,8.1-23.3,10.1-32.5l11.2-52.6c0.7-3.2,1.9-7,3.7-7
			c0,0,0,0,0,0c1.8,0,3,3.8,3.6,7l11.1,53.6c1.9,9.2,5.2,24,7.4,33.1l10.3,42.8c1.4,6,2.9,6.6,3.5,6.6c0,0,0,0,0,0
			c0.6,0,2-0.7,3-6.8l12.2-70.9c1.6-9.2,7-23.4,12-31.6l0.1-0.1c2.5-4,5.3-6,8-5.7c2.7,0.3,4.9,2.9,6.2,7.3l8.4,29.2
			c2.6,9,8.8,18.5,13.8,21.2c1.5,0.8,3.2,0.9,4.9,0.3c3.7-1.3,6.9-5.8,8.6-11.7l8.8-31.8c1.2-4.4,2.9-6.9,4.8-6.9c0,0,0,0,0,0
			c1.9,0,3.6,2.4,4.9,6.8l8.5,28.5c1.3,4.2,2.8,6.6,4.3,6.5c1.5-0.1,2.8-2.5,3.7-6.8l11.1-53.9c0.7-3.2,1.7-6.9,3.1-6.9c0,0,0,0,0,0
			c1.4,0.1,2.1,3.9,2.5,7.1l14.5,128c0.7,6.6,1.6,6.8,1.7,6.8c0,0,0,0,0,0c0.1,0,1-0.2,1.7-6.8l14-122.9c0.5-4.6,2.1-7.4,4.3-7.9
			c2.2-0.4,4.7,1.4,7.1,5.2c5.1,7.8,13.3,18.7,18.3,24.1c5,5.5,13.2,16.4,18.1,24.3c4.9,7.9,12.9,21.1,17.8,29.3l0.7,1.1
			c4.9,8.2,12.8,18.3,17.7,22.3c1.7,1.4,3.5,1.8,5.2,1.3c3.2-0.9,5.8-4.8,7-10.5l11.2-52.3c0.7-3.2,1.8-6.9,3.5-6.9c0,0,0,0,0,0
			c1.7,0,2.7,3.8,3.3,7l11.9,67.2c0.8,4.3,1.9,6.8,3.2,6.8c0,0,0,0,0,0c1.3,0,2.7-2.4,3.8-6.6l9.5-35.5c1.2-4.4,3.2-7,5.8-7.3
			c2.6-0.3,5.2,1.8,7.6,5.9l0.6,1c2.7,4.6,6.6,7.6,10.4,8c2.7,0.3,5.2-0.7,7.1-2.9c2-2.2,4.2-3.1,6.4-2.6c3,0.7,5.4,4.1,6.5,9.4
			l11.1,53.6c1.3,6.2,2.5,6.7,2.8,6.7c0,0,0,0,0,0c0.3,0,1.5-0.5,2.3-6.9l14.3-120.3c1.1-9.3,6-22.4,11-29.3
			c2.2-3.1,4.5-4.5,6.6-4.1c2.4,0.5,4.2,3.6,4.8,8.5l14.1,113.1c0.8,6.6,1.8,6.8,1.9,6.8c0.1,0,1.1-0.2,1.8-6.8l13.8-119.9
			c-0.5-1.3-0.8-2.9-1.1-4.3L3062.4,834.9z"/>
		<path style="fill:#03688B;" d="M2308.4,781.5l5.9,43.6c0.9,6.6,3.8,15.5,7.2,22.7l-3.9-47.5
			C2316.9,791.6,2312.9,783.6,2308.4,781.5z"/>
		<path style="fill:#03688B;" d="M2262.5,876.8C2262.5,876.8,2262.5,876.8,2262.5,876.8c-0.3,0-1.4,0.5-2.3,6.8l-2.7,20.7
			c1.3-0.9,2.6-1.3,4-1.2c2.9,0.2,5.4,2.7,7,7l2.1,5.5l-5.6-32.1C2263.9,877.3,2262.8,876.8,2262.5,876.8z"/>
		<path style="fill:#03688B;" d="M2298.8,720.2C2298.8,720.2,2298.8,720.2,2298.8,720.2c-0.1,0-0.9,0.2-1.5,6.8l-15.7,197.4
			c-0.4,4.6-1.4,7.2-2.9,7.3c-1.5,0.2-3.2-2.1-4.9-6.5l-2.4-6.4l5.9,34c1.1,6.4,2.1,6.7,2.3,6.7c0,0,0,0,0,0c0.2,0,1.2-0.4,1.8-6.9
			l15.1-157.5c0.6-6.5,3.1-11.8,6.5-13.9c1.4-0.8,2.8-1.1,4.2-0.7c0.2,0,0.3,0.1,0.5,0.1l-7.3-54
			C2299.7,720.4,2298.9,720.2,2298.8,720.2z"/>
		<path style="fill:#03688B;" d="M2253.6,909.2l-0.7,1.2c-2.4,4-5.3,6.2-8.3,6c-3-0.2-5.6-2.6-7.3-6.9l-3-7.3l8.2,87
			c0.6,6.6,1.5,6.8,1.6,6.8h0c0.1,0,1-0.2,1.9-6.8l11.1-84.2C2255.9,906,2254.7,907.4,2253.6,909.2z"/>
		<path style="fill:#03688B;" d="M3077.3,887.8c-0.2,0-1.2,0.3-2,6.8l-0.2,2c0.7,2.1,1.3,2.3,1.5,2.3c0,0,0,0,0,0
			c0.3,0,1.4-0.5,2.1-6.9l0.1-1.1C3078.1,888,3077.5,887.8,3077.3,887.8z"/>
		<path style="fill:#03688B;" d="M1590.6,690C1590.6,690,1590.5,690,1590.6,690c-1.3,0-2.8,2.3-4.2,6.3l-2.4,7l5.3,31.2
			c1.3,7.4,4.9,17,8.9,23.6l-5-61.1C1592.7,692.7,1591.8,690.1,1590.6,690z"/>
		<path style="fill:#03688B;" d="M1688.3,766c-3.3-8.8-10-18.8-15-22.1c-5.1-3.4-13.3-10.6-18.3-16.1c-2-2.1-4.1-3-6.3-2.6
			c-3.1,0.6-5.7,4-7.1,9l-8.8,31.8c-2.5,9-5.7,23.9-7.2,33.1l-4.5,28.7l3.8,18.6c0.9,4.2,2,6.7,3.1,6.7c0,0,0,0,0,0
			c1.1,0,2.2-2.5,3-6.8l11.9-66.1c1.7-9.3,7.2-16.8,12.3-16.8c5,0,13.2-1.7,18.2-3.7c1.5-0.6,3.3-0.6,5,0.1c4,1.6,7.6,6.4,9.6,12.5
			l7.5,23.5c1.4,4.3,3.5,6.7,6,6.9c0.2,0,0.3,0,0.5,0c-2.6-7.1-5.5-14.8-7.5-20.3L1688.3,766z"/>
		<path style="fill:#03688B;" d="M1600.7,762.4c-0.7-0.9-1.4-1.9-2.1-3l10,121.6c0.5,6.6,1.5,6.8,1.6,6.9c0,0,0,0,0,0
			c0.1,0,1.1-0.2,2.1-6.7l8.4-53.3l-7.7-37.7C1611.1,781,1605.6,768.6,1600.7,762.4z"/>
		<path style="fill:#03688B;" d="M1717.1,788.1c-2-0.3-4.4,1.8-6.5,5.7l-1.7,3.1c-2,3.6-4.3,5.7-6.6,6c1.6,4.2,3,8.2,4.2,11.5
			l6.5,17.5c1.5,4.1,3.3,6.4,4.8,6.3c1.5-0.1,2.7-2.7,3.4-7l3-19.5l-2.8-16.4C1720.7,791,1719.1,788.4,1717.1,788.1z"/>
		<polygon style="fill:#03688B;" points="1525.5,805.4 1519.6,785.9 1519.6,836.3 		"/>
		<path style="fill:#03688B;" d="M1572.9,652.8C1572.9,652.8,1572.9,652.8,1572.9,652.8c-1.4,0-2.9,2.4-4.1,6.5l-8.1,27.1
			c-2.7,9-8,23.4-11.9,32.1l-4.3,9.6c-3.9,8.7-8.4,23.2-10.2,32.3l-8.5,45l6.8,22.5c1.3,4.2,3,6.6,4.8,6.6c0,0,0,0,0,0
			c1.8,0,3.6-2.4,4.9-6.6l7.9-24.6c2.9-8.9,7.6-23.5,10.5-32.5l7.3-22.2c2.9-9,7.8-23.5,11-32.4l4.6-13l-7.4-43.6
			C1575.5,655.3,1574.3,652.8,1572.9,652.8z"/>
		<path style="fill:#03688B;" d="M2004.5,825.1c-1.4-0.5-2.8-0.3-4.1,0.3l4.9,24.7c0.8,4.3,2.2,6.8,3.7,6.9c0,0,0,0,0.1,0
			c1.5,0,3.1-2.4,4.4-6.5l1.2-3.6l-2.5-10.7C2010.8,830.4,2007.9,826.2,2004.5,825.1z"/>
		<path style="fill:#03688B;" d="M1737.2,741.3C1737.2,741.3,1737.1,741.3,1737.2,741.3c-1.2,0-2.2,2.6-2.9,6.8l-9.8,63.6l9.5,56.8
			c1.1,6.4,2.1,6.7,2.3,6.7c0,0,0,0,0,0c0.2,0,1.2-0.4,1.9-6.8l9.2-92.4l-6.9-28.1C1739.6,743.8,1738.3,741.3,1737.2,741.3z"/>
		<path style="fill:#03688B;" d="M1794.6,675.9c-1.3-6.2-2.7-6.7-3.1-6.7c0,0,0,0,0,0c-0.4,0-1.7,0.5-2.5,6.8l-13.7,99.4
			c-0.4,3.2-1.3,7.1-2.8,7.1c0,0,0,0,0,0c-1.5,0-2.5-3.8-3.2-6.9l-11.3-56.3c-1.2-6.2-2.3-6.7-2.7-6.7c0,0,0,0,0,0
			c-0.3,0-1.4,0.5-2,6.9l-5.6,56.5l3.3,13.4c1.2,5,3.6,8.2,6.5,8.8c2.1,0.4,4.2-0.6,6.2-2.9c4.9-5.8,13.1-16.2,18.1-23.1
			c5.1-6.9,13.2-15,18.1-18.1c1.6-1,3.3-1.2,5-0.6c2.2,0.8,4.2,3.1,5.6,6.2l-0.1-1.6c-0.9-9.3-3.2-24.3-5.2-33.4L1794.6,675.9z"/>
		<path style="fill:#03688B;" d="M1933.9,662.6c-1.9-0.3-4.3,1.7-6.6,5.5l-0.6,0.9c-4.9,8.2-9.7,22.5-10.8,31.7l-14.1,124.3
			c-0.4,3.2-1.2,7.1-2.9,7.2c-1.7,0.1-3.2-3.6-4.1-6.7l-8.7-29.5c-0.1-0.3-0.2-0.7-0.3-1l12.1,98.4c0.8,6.6,1.7,6.8,1.8,6.8
			c0,0,0,0,0,0c0.1,0,1-0.2,1.6-6.8l14.5-144.1c0.5-4.6,1.6-7.2,3.2-7.3c0.1,0,0.1,0,0.2,0c1.6,0,3.3,2.3,5,6.4l5.7,14.2
			c3.5,8.8,10.3,18.3,15.2,21.4c1.3,0.8,2.7,2.1,4,3.7L1937.5,670C1937.1,665.6,1935.7,662.9,1933.9,662.6z"/>
		<path style="fill:#03688B;" d="M1990.9,785.9C1990.9,785.9,1990.9,785.9,1990.9,785.9c-0.3,0-1.5,0.5-2.2,6.8l-7.2,61.4l2.5-6.3
			c3.5-8.8,10.4-18.8,15.4-22.2c0.2-0.2,0.5-0.3,0.7-0.4l-6.4-32.7C1992.4,786.4,1991.3,785.9,1990.9,785.9z"/>
		<path style="fill:#03688B;" d="M1973.2,868.4c-0.1,0-0.1,0-0.2,0c-1.9-0.1-3.5-2.7-4.5-7.2l-11.4-55c-1.3-6.3-4.4-13-7.7-17.5
			l2.9,30.1c0.9,9.3,3.1,24.3,4.8,33.5l12,62.4c1.2,6.2,2.3,6.7,2.7,6.7c0,0,0,0,0,0c0.3,0,1.4-0.5,2.2-6.8l6.8-58l-2.1,5.3
			C1977.1,866.1,1975.1,868.4,1973.2,868.4z"/>
		<path style="fill:#03688B;" d="M1824.2,832.7l-12.3-67.4c-0.2-1.1-0.5-2.1-0.8-3.1l14.8,158.5c0.6,6.7,1.4,6.8,1.4,6.8
			c0,0,0.8-0.1,1.5-6.8l3.9-39.4l-2.6-15.2C1828.5,856.9,1825.9,841.9,1824.2,832.7z"/>
		<path style="fill:#03688B;" d="M1850.9,772.2c-1.5-4-3-6.3-4.3-6.3c0,0-0.1,0-0.1,0c-1.3,0.1-2.3,2.7-2.7,7l-10.7,108.4l9.4,54.5
			c1.1,6.4,2.2,6.7,2.4,6.7c0,0,0,0,0,0c0.2,0,1.2-0.4,1.9-6.8l14.3-139c-1.4-1.3-2.6-3.2-3.5-5.7L1850.9,772.2z"/>
		<path style="fill:#03688B;" d="M1877.5,767.1c-1.6-0.5-3.2-0.2-4.8,1c-4.9,3.7-9.7,14.3-10.6,23.6l-0.5,4.9c1,0.9,2.2,1.5,3.4,1.6
			c2.6,0.3,5.3-1.5,7.5-4.9c2.3-3.5,5-5.3,7.6-5c2.1,0.3,3.9,1.8,5.2,4.4l-1.8-14.7C1882.7,772.3,1880.5,768.1,1877.5,767.1z"/>
	</g>
</g>
<polygon style="fill:#1D1D1B;" points="1316.1,196.8 1307.7,184.4 1324.6,184.4 "/>
<polygon style="fill:#1D1D1B;" points="2007.4,196.8 1999,184.4 2015.9,184.4 "/>
<polygon style="fill:#1D1D1B;" points="2458,196.8 2449.6,184.4 2466.5,184.4 "/>
<polygon style="fill:#1D1D1B;" points="2908.6,196.8 2900.1,184.4 2917.1,184.4 "/>
<g>
	<g>
		<g>
			<text transform="matrix(1 0 0 1 398.7324 257.9351)" style="fill:#1D1D1B; font-family:'Fabriga'; font-size:32px;">140</text>
		</g>
		<g>
			<text transform="matrix(1 0 0 1 398.7324 506.7515)" style="fill:#1D1D1B; font-family:'Fabriga'; font-size:32px;">120</text>
		</g>
		<g>
			<text transform="matrix(1 0 0 1 398.7324 755.0229)" style="fill:#1D1D1B; font-family:'Fabriga'; font-size:32px;">100</text>
		</g>
		<g>
			<text transform="matrix(1 0 0 1 398.7324 1003.8501)" style="fill:#1D1D1B; font-family:'Fabriga'; font-size:32px;">80</text>
		</g>
		<g>
			<text transform="matrix(1 0 0 1 398.7324 1252.1255)" style="fill:#1D1D1B; font-family:'Fabriga'; font-size:32px;">60</text>
		</g>
	</g>
</g>
<g>
	<text transform="matrix(1 0 0 1 1210.1211 141.6899)" style="fill:#1D1D1B; font-family:'Fabriga'; font-size:40.2022px;">(1985-2005)</text>
</g>
<g>
	
		<text transform="matrix(1 0 0 1 1232.1367 89.4683)" style="fill:#1D1D1B;stroke:#1D1D1B;stroke-miterlimit:10; font-family:'Fabriga'; font-size:40.2022px;">Presente</text>
</g>
<g>
	<text transform="matrix(1 0 0 1 1893.8066 141.6899)" style="fill:#1D1D1B; font-family:'Fabriga'; font-size:40.2022px;">(2020-2044)</text>
</g>
<g>
	
		<text transform="matrix(1 0 0 1 1864.2793 89.4683)" style="fill:#1D1D1B;stroke:#1D1D1B;stroke-miterlimit:10; font-family:'Fabriga'; font-size:40.2022px;">Futuro cercano </text>
</g>
<g>
	<g>
		<text transform="matrix(1 0 0 1 2346.2793 141.6899)" style="fill:#1D1D1B; font-family:'Fabriga'; font-size:40.2022px;">(2045-2069)</text>
	</g>
	<g>
		
			<text transform="matrix(1 0 0 1 2289.6553 89.4683)" style="fill:#1D1D1B;stroke:#1D1D1B;stroke-miterlimit:10; font-family:'Fabriga'; font-size:40.2022px;">Futuro intermedio </text>
	</g>
</g>
<g>
	<text transform="matrix(1 0 0 1 2793.4805 141.6899)" style="fill:#1D1D1B; font-family:'Fabriga'; font-size:40.2022px;"> (2070-2095)</text>
</g>
<g>
	
		<text transform="matrix(1 0 0 1 2792.5518 89.4683)" style="fill:#1D1D1B;stroke:#1D1D1B;stroke-miterlimit:10; font-family:'Fabriga'; font-size:40.2022px;">Futuro lejano</text>
</g>
<g>
	<g>
		<text transform="matrix(1 0 0 1 2825.9043 1459.4214)" style="fill:#1D1D1B; font-family:'Fabriga'; font-size:32px;">2080</text>
		<text transform="matrix(1 0 0 1 2463.4707 1459.4214)" style="fill:#1D1D1B; font-family:'Fabriga'; font-size:32px;">2060</text>
		<text transform="matrix(1 0 0 1 2101.3477 1459.4214)" style="fill:#1D1D1B; font-family:'Fabriga'; font-size:32px;">2040</text>
		<text transform="matrix(1 0 0 1 1738.918 1459.4214)" style="fill:#1D1D1B; font-family:'Fabriga'; font-size:32px;">2020</text>
		<text transform="matrix(1 0 0 1 1376.832 1459.4214)" style="fill:#1D1D1B; font-family:'Fabriga'; font-size:32px;">2000</text>
		<text transform="matrix(1 0 0 1 1014.3456 1459.4214)" style="fill:#1D1D1B; font-family:'Fabriga'; font-size:32px;">1980</text>
		<text transform="matrix(1 0 0 1 651.8984 1459.4214)" style="fill:#1D1D1B; font-family:'Fabriga'; font-size:32px;">1960</text>
	</g>
</g>
<g>
	<text transform="matrix(1 0 0 1 1636.0317 1546.1851)" style="fill:#1D1D1B; font-family:'Fabriga'; font-size:40.2022px;">Año (Era Común)</text>
</g>
<g>
	<text transform="matrix(1 0 0 1 226.018 804.1128)"><tspan x="0" y="0" style="fill:#1D1D1B; font-family:'Fabriga'; font-size:40.2022px;">mm</tspan><tspan x="-40.3" y="48.2" style="fill:#1D1D1B; font-family:'Fabriga'; font-size:40.2022px;"> de agua</tspan></text>
</g>
<g>
	
		<text transform="matrix(1 0 0 1 2368.917 533.8403)" style="fill:#1D1D1B;stroke:#1D1D1B;stroke-width:1.4173;stroke-miterlimit:10; font-family:'Fabriga'; font-size:40.2022px;">Se logra un acuerdo como el de Paris </text>
</g>
<g>
	
		<text transform="matrix(1 0 0 1 2367.7373 1139.2212)" style="fill:#1D1D1B;stroke:#1D1D1B;stroke-width:1.4173;stroke-miterlimit:10; font-family:'Fabriga'; font-size:40.2022px;">Mantenemos la situación actual:</text>
</g>
<g>
	
		<text transform="matrix(1 0 0 1 639.2841 870.0874)" style="fill:#1D1D1B;stroke:#1D1D1B;stroke-width:1.4173;stroke-miterlimit:10; font-family:'Fabriga'; font-size:40.2022px;">Tendencia histórica</text>
</g>
<g>
	<text transform="matrix(1 0 0 1 2542.5674 583.7271)" style="fill:#1D1D1B; font-family:'Fabriga'; font-size:40.2022px;">+0.2% por década</text>
</g>
<g>
	<text transform="matrix(1 0 0 1 2506.4932 1189.1099)" style="fill:#1D1D1B; font-family:'Fabriga'; font-size:40.2022px;">-2.3% por década</text>
</g>
<g>
	<text transform="matrix(1 0 0 1 666.4599 919.9761)" style="fill:#1D1D1B; font-family:'Fabriga'; font-size:40.2022px;">-1.3% por década</text>
</g>
<polygon style="fill:#1D1D1B;" points="1830.9,1337 1864.2,1308.8 1971.5,1308.8 1971.5,1212.9 1830.9,1212.9 "/>
<g>
	<g>
		<path style="fill:#FFFFFF;" d="M1847,1284.2v-36.6h9.3v14.4h14.9v-14.4h9.3v36.6h-9.3v-14.7h-14.9v14.7H1847z"/>
		<path style="fill:#FFFFFF;" d="M1905.5,1246.8c10.8,0,19.3,7.5,19.3,18.5v1.4c0,11-8.4,18.5-19.3,18.5c-10.9,0-19.3-7.5-19.3-18.5
			v-1.4C1886.1,1254.3,1894.6,1246.8,1905.5,1246.8z M1905.4,1277.3c6.2,0,9.6-5,9.6-11.3c0-6.3-3.2-11.3-9.6-11.3
			c-6.4,0-9.5,5-9.5,11.3C1895.9,1272.3,1899.3,1277.3,1905.4,1277.3z"/>
		<path style="fill:#FFFFFF;" d="M1937.9,1284.2v-14.8l-13.5-20.8v-1h10.1l8.2,13.8l8.4-13.8h9.6v1l-13.5,20.8v14.8H1937.9z"/>
	</g>
</g>
<g>
	<text transform="matrix(1 0 0 1 280.7662 90.1113)"><tspan x="0" y="0" style="fill:#868686; font-family:'FabrigaLight'; font-size:30px;">Fuente: Dirección Meteorológica de Chile</tspan><tspan x="0" y="40" style="fill:#868686; font-family:'FabrigaLight'; font-size:30px;">Infografía: Francisco Fernandoy - Javier Armijo /  UNAB</tspan></text>
</g>
</svg>
