<?xml version="1.0" encoding="utf-8"?>
<!-- Generator: Adobe Illustrator 25.2.0, SVG Export Plug-In . SVG Version: 6.00 Build 0)  -->
<svg version="1.1" id="Layer_1" xmlns="http://www.w3.org/2000/svg" xmlns:xlink="http://www.w3.org/1999/xlink" x="0px" y="0px"
	 viewBox="0 0 157.6 943.7" style="enable-background:new 0 0 157.6 943.7;" xml:space="preserve">
<style type="text/css">
	.st0{fill:#FFFFFF;}
	.st1{fill:none;stroke:#FFFFFF;stroke-width:2.8346;stroke-miterlimit:10;}
</style>
<g>
	<path class="st0" d="M133.8,62.3V34.6H93.4v-5.1h40.4V1.7h11v60.6H133.8z"/>
	<path class="st0" d="M144.8,123h-11V84.6H120v35.9h-4.6V84.6H98V123h-4.6V71.8h51.4V123z"/>
	<path class="st0" d="M103.5,159.4c0,6.6,0.9,13,5.6,13c3.2,0,4.8-3.9,5.1-11.6c0.8-16.8,3.2-30.1,15.8-30.1
		c10.3,0.1,16.4,12.2,16.4,27.7c0,10.8-2.7,20-5.3,25.3l-10.1-4c3.2-8.2,4.5-14.2,4.5-21.6c0-7.9-1.3-14.6-5.1-14.6
		c-3.9,0-4.8,6.2-5.2,19.5c-0.3,9.6-3.4,22.1-16.1,22.1c-11.7,0-16.6-12.8-16.6-26.1c0-10.9,2.4-20,6.7-28.3l10.2,4.9
		C106.1,143.2,103.5,150.4,103.5,159.4z"/>
	<path class="st0" d="M133.8,253.1v-27.7H93.4v-5.1h40.4v-27.7h11v60.6H133.8z"/>
	<path class="st0" d="M144.8,276.2H93.4v-12.8h51.4V276.2z"/>
	<path class="st0" d="M92.2,320.8c0-18.1,11-31.7,27.1-31.7c16.1,0,27.1,13.6,27.1,32.5c0,8.9-2.7,17.4-7.2,23.2l-9.1-6.4
		c3.3-5.1,5.3-10.1,5.3-16.8c0.3-10.8-5.4-18.4-13.8-19.5V346h-21.3C94.8,338.5,92.2,330.9,92.2,320.8z M103.2,320.8
		c0,5.1,0.4,8.6,2.1,12.4h11.8v-31.1C108.8,303.1,103.2,310.4,103.2,320.8z"/>
	<path class="st0" d="M146.3,388c0,17.2-11,30.8-27.1,30.8c-16.1,0-27.1-13.6-27.1-30.8s11-30.8,27.1-30.8
		C135.4,357.1,146.3,370.8,146.3,388z M103.2,388c0,10.4,6.6,18,16.1,18c9.5,0,16.1-7.6,16.1-18s-6.6-18-16.1-18
		C109.8,370,103.2,377.6,103.2,388z"/>
	<path class="st0" d="M103.5,457.7c0,6.6,0.9,13,5.6,13c3.2,0,4.8-3.9,5.1-11.6c0.8-16.8,3.2-30.1,15.8-30.1
		c10.3,0.1,16.4,12.2,16.4,27.7c0,10.8-2.7,20-5.3,25.3l-10.1-4c3.2-8.2,4.5-14.2,4.5-21.6c0-7.9-1.3-14.6-5.1-14.6
		c-3.9,0-4.8,6.2-5.2,19.5c-0.3,9.6-3.4,22.1-16.1,22.1c-11.7,0-16.6-12.8-16.6-26.1c0-10.9,2.4-20,6.7-28.3l10.2,4.9
		C106.1,441.5,103.5,448.8,103.5,457.7z"/>
	<path class="st0" d="M144.8,539.9c0,17-9.9,30.3-25.7,30.3c-15.8,0-25.7-13.3-25.7-30.3V513h51.4V539.9z M104.4,539.9
		c0,10.1,5.7,17.5,14.7,17.5c9,0,14.7-7.4,14.7-17.5v-14h-29.5V539.9z"/>
	<path class="st0" d="M144.8,633.5h-11V595H120v35.9h-4.6V595H98v38.4h-4.6v-51.3h51.4V633.5z"/>
	<path class="st0" d="M144.8,674.5h-22.5v33.9h22.5v12.8H93.4v-12.8h24.2v-33.9H93.4v-12.8h51.4V674.5z"/>
	<path class="st0" d="M144.8,749.5H93.4v-12.8h51.4V749.5z"/>
	<path class="st0" d="M144.8,816.2h-11v-38.4H120v35.9h-4.6v-35.9H98v38.4h-4.6v-51.3h51.4V816.2z"/>
	<path class="st0" d="M144.8,839.3H98v40.1h-4.6v-52.9h51.4V839.3z"/>
	<path class="st0" d="M146.3,908.6c0,17.2-11,30.8-27.1,30.8c-16.1,0-27.1-13.6-27.1-30.8s11-30.8,27.1-30.8
		C135.4,877.7,146.3,891.4,146.3,908.6z M103.2,908.6c0,10.4,6.6,18,16.1,18c9.5,0,16.1-7.6,16.1-18s-6.6-18-16.1-18
		C109.8,890.6,103.2,898.2,103.2,908.6z"/>
</g>
<path class="st1" d="M42.2,929.9c0,4.3-8.3,7.9-18.6,7.9S5,934.2,5,929.9V10.5c0,4.3,8.3,7.9,18.6,7.9s18.6-3.5,18.6-7.9V929.9z
	 M23.6,18.4C13.3,18.4,5,14.8,5,10.5c0-4.3,8.3-7.9,18.6-7.9s18.6,3.5,18.6,7.9C42.2,14.8,33.9,18.4,23.6,18.4z M42.2,66.7
	c0,4.3-8.3,7.9-18.6,7.9S5,71,5,66.7 M42.2,190.5c0,4.3-8.3,7.9-18.6,7.9S5,194.8,5,190.5 M42.2,198.3c0,4.3-8.3,7.9-18.6,7.9
	S5,202.7,5,198.3 M42.2,370.7c0,4.3-8.3,7.9-18.6,7.9S5,375,5,370.7 M42.2,456.1c0,4.3-8.3,7.9-18.6,7.9S5,460.5,5,456.1 M42.2,460
	c0,4.3-8.3,7.9-18.6,7.9S5,464.4,5,460 M42.2,551.8c0,4.3-8.3,7.9-18.6,7.9S5,556.1,5,551.8 M42.2,715.7c0,4.3-8.3,7.9-18.6,7.9
	S5,720,5,715.7 M42.2,748.7c0,4.3-8.3,7.9-18.6,7.9S5,753.1,5,748.7 M42.2,756.6c0,4.3-8.3,7.9-18.6,7.9S5,760.9,5,756.6
	 M42.2,856.3c0,4.3-8.3,7.9-18.6,7.9S5,860.6,5,856.3 M42.2,860.2c0,4.3-8.3,7.9-18.6,7.9S5,864.6,5,860.2 M42.2,900.9
	c0,4.3-8.3,7.9-18.6,7.9S5,905.2,5,900.9"/>
</svg>
