<svg id="Capa_1" data-name="Capa 1" xmlns="http://www.w3.org/2000/svg" xmlns:xlink="http://www.w3.org/1999/xlink" viewBox="0 0 5747.53 1435.75"><defs><style>.cls-1,.cls-24,.cls-25,.cls-27,.cls-28,.cls-29,.cls-30{fill:none;}.cls-2{fill:#549bd4;}.cls-3{font-size:42px;fill:#1d1d1b;font-family:Fabriga-Bold, Fabriga;font-weight:700;}.cls-4{letter-spacing:-0.02em;}.cls-5{letter-spacing:-0.08em;}.cls-6{letter-spacing:-0.02em;}.cls-7{font-size:35px;font-family:Fabriga;font-weight:400;}.cls-8{letter-spacing:-0.02em;}.cls-9{letter-spacing:-0.01em;}.cls-10{letter-spacing:-0.03em;}.cls-11{letter-spacing:-0.01em;}.cls-12{letter-spacing:-0.02em;}.cls-13{letter-spacing:-0.02em;}.cls-14{letter-spacing:-0.01em;}.cls-15{letter-spacing:-0.05em;}.cls-16{letter-spacing:-0.02em;}.cls-17{letter-spacing:-0.02em;}.cls-18{letter-spacing:-0.01em;}.cls-19{letter-spacing:-0.09em;}.cls-20{letter-spacing:-0.02em;}.cls-21{letter-spacing:-0.02em;}.cls-22{letter-spacing:-0.03em;}.cls-23{letter-spacing:-0.01em;}.cls-24,.cls-25,.cls-27,.cls-28,.cls-29,.cls-30{stroke:#fff;}.cls-24,.cls-27,.cls-29{stroke-linecap:round;}.cls-24,.cls-27{stroke-linejoin:round;}.cls-24{stroke-width:8px;}.cls-25,.cls-28,.cls-29,.cls-30{stroke-miterlimit:10;}.cls-25{stroke-width:10px;}.cls-26{fill:#fff;}.cls-27,.cls-30{stroke-width:9px;}.cls-28{stroke-width:12px;}.cls-29{stroke-width:30px;opacity:0.7;}.cls-31{clip-path:url(#clip-path);}.cls-32{clip-path:url(#clip-path-2);}</style><clipPath id="clip-path"><rect class="cls-1" x="190.14" y="1350.46" width="5734.82" height="2268.17"/></clipPath><clipPath id="clip-path-2"><rect class="cls-1" x="228.6" y="91.83" width="5890.97" height="3805.09"/></clipPath></defs><circle class="cls-2" cx="2291.81" cy="594.75" r="211.89"/><circle class="cls-2" cx="1473.38" cy="594.75" r="215.32"/><circle class="cls-2" cx="654.95" cy="596.68" r="211.89"/><circle class="cls-2" cx="4743.66" cy="594.75" r="211.89"/><text class="cls-3" transform="translate(2065.14 928.94)">INCENDIOS FORE<tspan class="cls-4" x="338.64" y="0">S</tspan><tspan class="cls-5" x="362.46" y="0">T</tspan><tspan x="383.67" y="0">ALES Y </tspan><tspan x="0" y="59.76">QUEMA DE C</tspan><tspan class="cls-4" x="250.36" y="59.76">O</tspan><tspan x="281.14" y="59.76">MBU</tspan><tspan class="cls-6" x="375.89" y="59.76">S</tspan><tspan x="399.71" y="59.76">TIBLES</tspan><tspan class="cls-7"><tspan x="0" y="126.23">La quema de biomasa y combu</tspan><tspan class="cls-8" x="484.53" y="126.23">s</tspan><tspan x="501.26" y="126.23">tib</tspan><tspan class="cls-9" x="545.26" y="126.23">l</tspan><tspan x="555.06" y="126.23">es </tspan><tspan class="cls-10" x="0" y="171.23">f</tspan><tspan x="12.81" y="171.23">ósi</tspan><tspan class="cls-8" x="59.53" y="171.23">l</tspan><tspan x="69.33" y="171.23">es p</tspan><tspan class="cls-11" x="134.61" y="171.23">r</tspan><tspan x="147.14" y="171.23">oducen </tspan><tspan class="cls-11" x="274.99" y="171.23">r</tspan><tspan x="287.52" y="171.23">esiduos como el </tspan><tspan x="0" y="216.23">ho</tspan><tspan class="cls-11" x="40.98" y="216.23">l</tspan><tspan x="50.96" y="216.23">lín o carbono n</tspan><tspan class="cls-8" x="284.37" y="216.23">e</tspan><tspan x="303.76" y="216.23">g</tspan><tspan class="cls-11" x="322.87" y="216.23">r</tspan><tspan x="335.4" y="216.23">o que puedes ser </tspan><tspan x="0" y="261.23">t</tspan><tspan class="cls-8" x="13.68" y="261.23">r</tspan><tspan x="26.04" y="261.23">ansportados a g</tspan><tspan class="cls-9" x="280.7" y="261.23">r</tspan><tspan x="293.05" y="261.23">andes di</tspan><tspan class="cls-8" x="427.24" y="261.23">s</tspan><tspan x="443.97" y="261.23">tancia</tspan><tspan class="cls-12" x="543.09" y="261.23">s</tspan><tspan x="559.65" y="261.23">, </tspan><tspan x="0" y="306.23">a</tspan><tspan class="cls-8" x="18.72" y="306.23">l</tspan><tspan x="28.52" y="306.23">can</tspan><tspan class="cls-9" x="86.87" y="306.23">z</tspan><tspan x="103.42" y="306.23">ando las mo</tspan><tspan class="cls-13" x="294.63" y="306.23">n</tspan><tspan x="313.91" y="306.23">tañas y glacia</tspan><tspan class="cls-14" x="527.13" y="306.23">r</tspan><tspan x="539.66" y="306.23">es</tspan></tspan></text><text class="cls-3" transform="translate(413.7 928.94)">CAMBIOS DE LA <tspan class="cls-5" x="320.41" y="0">A</tspan><tspan class="cls-15" x="345.99" y="0">T</tspan><tspan class="cls-4" x="368.46" y="0">M</tspan><tspan x="406.93" y="0">ÓSFERA Y </tspan><tspan x="0" y="59.76">BURBU</tspan><tspan class="cls-16" x="137.46" y="59.76">J</tspan><tspan x="155.15" y="59.76">AS DE AIRE</tspan><tspan class="cls-7"><tspan x="0" y="126.23">La a</tspan><tspan class="cls-13" x="61.95" y="126.23">n</tspan><tspan x="81.23" y="126.23">tigua composición de la </tspan><tspan class="cls-13" x="464.2" y="126.23">a</tspan><tspan x="482.33" y="126.23">tmó</tspan><tspan class="cls-8" x="546.94" y="126.23">s</tspan><tspan class="cls-10" x="563.67" y="126.23">f</tspan><tspan x="576.48" y="126.23">e</tspan><tspan class="cls-8" x="596.39" y="126.23">r</tspan><tspan x="608.75" y="126.23">a </tspan><tspan x="0" y="171.23">puede ser di</tspan><tspan class="cls-11" x="195.51" y="171.23">r</tspan><tspan x="208.04" y="171.23">ectame</tspan><tspan class="cls-13" x="329.83" y="171.23">n</tspan><tspan class="cls-14" x="349.12" y="171.23">t</tspan><tspan x="362.45" y="171.23">e d</tspan><tspan class="cls-12" x="410.47" y="171.23">e</tspan><tspan class="cls-11" x="429.69" y="171.23">t</tspan><tspan x="443.02" y="171.23">erminada </tspan><tspan x="0" y="216.23">e</tspan><tspan class="cls-8" x="19.91" y="216.23">s</tspan><tspan x="36.64" y="216.23">tudiando las burbujas de ai</tspan><tspan class="cls-11" x="460.67" y="216.23">r</tspan><tspan x="473.2" y="216.23">e </tspan><tspan class="cls-13" x="0" y="261.23">a</tspan><tspan x="18.13" y="261.23">t</tspan><tspan class="cls-8" x="31.81" y="261.23">r</tspan><tspan x="44.17" y="261.23">apadas en el hie</tspan><tspan class="cls-9" x="298.16" y="261.23">l</tspan><tspan class="cls-17" x="307.96" y="261.23">o</tspan><tspan x="328.37" y="261.23">.</tspan></tspan></text><text class="cls-3" transform="translate(1216.83 928.94)">S<tspan class="cls-18" x="24.65" y="0">E</tspan><tspan x="47.79" y="0">QUIAS Y EL PO</tspan><tspan class="cls-19" x="328.94" y="0">L</tspan><tspan class="cls-16" x="347.67" y="0">V</tspan><tspan x="375.26" y="0">O N</tspan><tspan class="cls-5" x="445.19" y="0">A</tspan><tspan x="470.77" y="0">TURAL</tspan><tspan class="cls-7"><tspan x="0" y="66.47">G</tspan><tspan class="cls-8" x="25.62" y="66.47">r</tspan><tspan x="37.97" y="66.47">andes periodos de sequía </tspan><tspan x="0" y="111.47">p</tspan><tspan class="cls-11" x="21.95" y="111.47">r</tspan><tspan x="34.48" y="111.47">opicia</tspan><tspan class="cls-8" x="132.72" y="111.47">r</tspan><tspan x="145.08" y="111.47">an las condiciones pa</tspan><tspan class="cls-9" x="486.43" y="111.47">r</tspan><tspan x="498.78" y="111.47">a un </tspan><tspan x="0" y="156.47">m</tspan><tspan class="cls-11" x="29.82" y="156.47">a</tspan><tspan class="cls-8" x="48.19" y="156.47">y</tspan><tspan x="65.31" y="156.47">or t</tspan><tspan class="cls-9" x="119.14" y="156.47">r</tspan><tspan x="131.49" y="156.47">anspor</tspan><tspan class="cls-14" x="243.28" y="156.47">t</tspan><tspan x="256.62" y="156.47">e de po</tspan><tspan class="cls-10" x="373.76" y="156.47">l</tspan><tspan class="cls-9" x="383.04" y="156.47">v</tspan><tspan x="400.43" y="156.47">o por </tspan><tspan x="0" y="201.47">corrie</tspan><tspan class="cls-13" x="94.88" y="201.47">n</tspan><tspan class="cls-11" x="114.17" y="201.47">t</tspan><tspan x="127.5" y="201.47">es </tspan><tspan class="cls-20" x="170.83" y="201.47">a</tspan><tspan x="188.96" y="201.47">tmo</tspan><tspan class="cls-9" x="253.57" y="201.47">s</tspan><tspan class="cls-10" x="270.3" y="201.47">f</tspan><tspan x="283.11" y="201.47">éricas que se </tspan><tspan x="0" y="246.47">acumulan en el hie</tspan><tspan class="cls-8" x="292.11" y="246.47">l</tspan><tspan class="cls-12" x="301.91" y="246.47">o</tspan><tspan x="322.31" y="246.47">.</tspan></tspan></text><text class="cls-3" transform="translate(4515.65 928.94)">CAMBIOS DE V<tspan class="cls-18" x="290.05" y="0">E</tspan><tspan x="313.19" y="0">GE</tspan><tspan class="cls-5" x="368" y="0">T</tspan><tspan class="cls-4" x="389.21" y="0">A</tspan><tspan x="417.31" y="0">CIÓN</tspan><tspan class="cls-7"><tspan class="cls-8" x="0" y="66.47">L</tspan><tspan x="17.81" y="66.47">os cambios clim</tspan><tspan class="cls-13" x="273.7" y="66.47">á</tspan><tspan x="291.83" y="66.47">ticos </tspan><tspan class="cls-11" x="378.14" y="66.47">fr</tspan><tspan x="404.18" y="66.47">ecue</tspan><tspan class="cls-13" x="482.86" y="66.47">n</tspan><tspan class="cls-14" x="502.14" y="66.47">t</tspan><tspan x="515.48" y="66.47">eme</tspan><tspan class="cls-13" x="585.12" y="66.47">n</tspan><tspan class="cls-11" x="604.41" y="66.47">t</tspan><tspan x="617.74" y="66.47">e </tspan><tspan x="0" y="111.47">se encue</tspan><tspan class="cls-13" x="141.89" y="111.47">n</tspan><tspan x="161.17" y="111.47">t</tspan><tspan class="cls-8" x="174.86" y="111.47">r</tspan><tspan x="187.21" y="111.47">an asociados con cambios en </tspan><tspan x="0" y="156.47">la </tspan><tspan class="cls-8" x="35.21" y="156.47">ve</tspan><tspan class="cls-17" x="71.99" y="156.47">ge</tspan><tspan x="109.62" y="156.47">tación, pequeñas t</tspan><tspan class="cls-8" x="406.52" y="156.47">r</tspan><tspan x="418.87" y="156.47">a</tspan><tspan class="cls-9" x="437.6" y="156.47">z</tspan><tspan x="454.15" y="156.47">as como </tspan><tspan x="0" y="201.47">g</tspan><tspan class="cls-8" x="19.11" y="201.47">r</tspan><tspan x="31.46" y="201.47">anos de po</tspan><tspan class="cls-9" x="205.66" y="201.47">l</tspan><tspan x="215.46" y="201.47">en pueden ser almacenados </tspan><tspan x="0" y="246.47">en el hie</tspan><tspan class="cls-8" x="130.51" y="246.47">l</tspan><tspan class="cls-12" x="140.31" y="246.47">o</tspan><tspan x="160.72" y="246.47">, e</tspan><tspan class="cls-13" x="197.5" y="246.47">n</tspan><tspan x="216.79" y="246.47">t</tspan><tspan class="cls-11" x="230.47" y="246.47">r</tspan><tspan class="cls-8" x="243" y="246.47">e</tspan><tspan class="cls-12" x="262.39" y="246.47">g</tspan><tspan x="280.8" y="246.47">ándonos i</tspan><tspan class="cls-21" x="435.22" y="246.47">n</tspan><tspan class="cls-22" x="454.33" y="246.47">f</tspan><tspan x="467.14" y="246.47">ormación de </tspan><tspan class="cls-8" x="0" y="291.47">l</tspan><tspan x="9.8" y="291.47">os cambios en el tiempo</tspan></tspan></text><circle class="cls-2" cx="3912.64" cy="596.68" r="211.89"/><text class="cls-3" transform="translate(3684.3 928.94)">ERUPCIONES <tspan class="cls-16" x="266.57" y="0">V</tspan><tspan x="294.16" y="0">O</tspan><tspan class="cls-16" x="325.79" y="0">L</tspan><tspan x="347.25" y="0">CÁNICAS - </tspan><tspan x="0" y="59.76">CENIZAS Y AE</tspan><tspan class="cls-23" x="270.56" y="59.76">R</tspan><tspan x="296.73" y="59.76">OSOLES </tspan><tspan class="cls-16" x="0" y="119.52">V</tspan><tspan x="27.59" y="119.52">O</tspan><tspan class="cls-16" x="59.22" y="119.52">L</tspan><tspan x="80.68" y="119.52">CÁNICOS</tspan><tspan class="cls-7"><tspan x="0" y="185.99">Las ceni</tspan><tspan class="cls-8" x="128.38" y="185.99">z</tspan><tspan x="144.93" y="185.99">as y ae</tspan><tspan class="cls-11" x="249.51" y="185.99">r</tspan><tspan x="262.04" y="185.99">oso</tspan><tspan class="cls-9" x="321.51" y="185.99">l</tspan><tspan x="331.31" y="185.99">es p</tspan><tspan class="cls-14" x="396.58" y="185.99">r</tspan><tspan x="409.11" y="185.99">oducidos por </tspan><tspan x="0" y="230.99">g</tspan><tspan class="cls-8" x="19.11" y="230.99">r</tspan><tspan x="31.46" y="230.99">andes erupciones </tspan><tspan class="cls-9" x="321.61" y="230.99">v</tspan><tspan x="339.01" y="230.99">o</tspan><tspan class="cls-8" x="360.11" y="230.99">l</tspan><tspan x="369.91" y="230.99">cánicas pueden </tspan><tspan x="0" y="275.99">ser almacenadas en el hie</tspan><tspan class="cls-8" x="406.66" y="275.99">l</tspan><tspan x="416.46" y="275.99">o glaciar</tspan></tspan></text><polyline class="cls-24" points="4024.32 724.26 3939.41 595.81 3885.86 595.81 3800.95 724.26"/><line class="cls-24" x1="3939.47" y1="580.45" x2="3998.45" y2="563.86"/><line class="cls-24" x1="3960.36" y1="554.64" x2="3994.15" y2="530.06"/><line class="cls-24" x1="3892.77" y1="580.45" x2="3833.78" y2="563.86"/><line class="cls-24" x1="3871.88" y1="554.64" x2="3838.08" y2="530.06"/><polyline class="cls-24" points="3865.39 629.85 3881.12 648.89 3896.86 629.85 3912.6 648.89 3928.34 629.85 3944.09 648.89 3959.84 629.85"/><path class="cls-24" d="M3922.69,560V545.51a9.49,9.49,0,0,1,9.41-9.49h1.36s20.41-2.19,23.29-19.43c0,0,15.13-3,15.13-18.81a18.37,18.37,0,0,0-8.92-15.6,18.49,18.49,0,0,0-18.71-21.27c-7.45,0-13.88,6.54-13.88,6.54a17.85,17.85,0,1,0-33,13.41,23.44,23.44,0,0,0-9.66,0,23.62,23.62,0,0,0,4.8,46.75h4.11a9.49,9.49,0,0,1,9.49,9.48V560"/><path class="cls-25" d="M562.53,556.84s21.59-68.67,88.5-68.67,90,43.57,93.77,71.37c0,0,49.93,9,49.93,54.22s-26.16,71.64-55,71.64c-29.18,0-44.4-9.3-44.4-9.3s-11.4,11.3-39.37,11.3c-21.88,0-33.17-8.59-33.17-8.59s-13.84,8.56-36.54,8.56c-27.1,0-64.49-28.28-64.49-71.65S562.53,556.84,562.53,556.84Z"/><path class="cls-26" d="M614.92,599.08c0,8.31,4,15.37,13.05,15.37,7,0,10.33-4,10.87-9.7h12.73v1.08c-1.39,12.5-11.33,19.72-24.22,19.72-14.21,0-25.86-9.93-25.86-25.31v-1.86c0-14.83,11.57-25.62,25.86-25.62,12.5,0,23,7.14,24.22,18.86v1H638.76c-.93-5.9-4.58-8.85-10.79-8.85C619,583.78,614.92,590.85,614.92,599.08Z"/><path class="cls-26" d="M656.3,598.38c0-15.14,6.83-25.62,20.27-25.62s20.26,10.48,20.26,25.62v1.55c0,15.07-6.6,25.62-20.26,25.62S656.3,615,656.3,599.93Zm12.58.78c0,9.93,1.78,16.38,7.76,16.38s7.53-6.52,7.53-16.38-1.39-16.39-7.68-16.39C670.43,582.77,668.88,589.29,668.88,599.16Z"/><path class="cls-26" d="M721.51,619.81c0,5.28-5,9.7-9.08,12.58v.08a29.48,29.48,0,0,1,3.8-.24h5.52v6.14H701.09V634.1a77.31,77.31,0,0,0,9.79-8.62c1.47-1.56,3.18-3.65,3.18-6.21a2.79,2.79,0,0,0-2.95-3c-1.94,0-3.18,1.24-3.18,3.41a11.07,11.07,0,0,0,.38,2.18v.93h-6.67a11.25,11.25,0,0,1-.7-3.65c0-5.59,4.73-8.62,10.71-8.62,5.52,0,9.86,3,9.86,8.7Z"/><path class="cls-27" d="M1599.22,627.74H1529a34.52,34.52,0,1,0,34.51,34.51"/><path class="cls-27" d="M1604.78,588.56h-170a34.52,34.52,0,1,0,34.52,34.52"/><path class="cls-27" d="M1576.84,561.76H1475.12a34.52,34.52,0,1,1,34.52-34.51"/><circle class="cls-27" cx="1344.26" cy="518.92" r="2.28"/><circle class="cls-27" cx="1398.97" cy="504.8" r="2.28"/><circle class="cls-27" cx="1371.95" cy="546.74" r="2.28"/><circle class="cls-27" cx="1345.41" cy="574.15" r="2.28"/><circle class="cls-27" cx="1344.26" cy="615.82" r="2.28"/><circle class="cls-27" cx="1371.95" cy="643.14" r="2.28"/><circle class="cls-27" cx="1344.26" cy="671.05" r="2.28"/><circle class="cls-27" cx="1400.31" cy="684.66" r="2.28"/><circle class="cls-28" cx="2219.02" cy="547.41" r="48.37"/><circle class="cls-29" cx="2219.02" cy="547.41" r="38.14"/><circle class="cls-28" cx="2364.59" cy="547.41" r="48.37"/><circle class="cls-29" cx="2364.59" cy="547.41" r="38.14"/><circle class="cls-28" cx="2290.96" cy="675.89" r="48.37"/><circle class="cls-29" cx="2290.96" cy="675.89" r="38.14"/><path class="cls-30" d="M4747.51,485.79l10.51,42a4,4,0,0,0,6.7,1.79l30.09-31.1a4,4,0,0,1,6.66,3.85l-11.89,41.61a4,4,0,0,0,4.9,4.9l41.62-11.89a4,4,0,0,1,3.85,6.66l-31.11,30.1a4,4,0,0,0,1.79,6.69l42,10.51a4,4,0,0,1,0,7.7l-42,10.51a4,4,0,0,0-1.79,6.69L4840,645.9a4,4,0,0,1-3.85,6.66l-41.62-11.89a4,4,0,0,0-4.9,4.9l11.89,41.61a4,4,0,0,1-6.66,3.85l-30.09-31.1a4,4,0,0,0-6.7,1.79l-10.51,42a4,4,0,0,1-7.69,0l-10.51-42a4,4,0,0,0-6.7-1.79L4692.52,691a4,4,0,0,1-6.66-3.85l11.89-41.61a4,4,0,0,0-4.91-4.9l-41.61,11.89a4,4,0,0,1-3.85-6.66l31.11-30.1a4,4,0,0,0-1.8-6.69l-42-10.51a4,4,0,0,1,0-7.7l42-10.51a4,4,0,0,0,1.8-6.69l-31.11-30.1a4,4,0,0,1,3.85-6.66l41.61,11.89a4,4,0,0,0,4.91-4.9l-11.89-41.61a4,4,0,0,1,6.66-3.85l30.09,31.1a4,4,0,0,0,6.7-1.79l10.51-42A4,4,0,0,1,4747.51,485.79Z"/><circle class="cls-26" cx="4721.86" cy="581.92" r="12.79"/><circle class="cls-26" cx="4764.06" cy="584.16" r="7.57"/><circle class="cls-26" cx="4771.63" cy="614.91" r="9.82"/><circle class="cls-26" cx="4734.65" cy="627.33" r="9.82"/><circle class="cls-2" cx="3101.39" cy="603.41" r="215.32"/><text class="cls-3" transform="translate(2867.95 937.6)">TEMPER<tspan class="cls-5" x="164.64" y="0">A</tspan><tspan x="190.22" y="0">TURA DEL AIRE</tspan><tspan class="cls-7"><tspan x="0" y="66.47">La química del agua (is</tspan><tspan class="cls-12" x="352.03" y="66.47">ó</tspan><tspan class="cls-14" x="372.43" y="66.47">t</tspan><tspan x="385.77" y="66.47">opos e</tspan><tspan class="cls-9" x="493.25" y="66.47">s</tspan><tspan x="509.98" y="66.47">tab</tspan><tspan class="cls-8" x="564.33" y="66.47">l</tspan><tspan x="574.13" y="66.47">es de </tspan><tspan x="0" y="111.47">agua) nos pueden e</tspan><tspan class="cls-13" x="305.79" y="111.47">n</tspan><tspan x="325.08" y="111.47">t</tspan><tspan class="cls-11" x="338.76" y="111.47">r</tspan><tspan class="cls-8" x="351.29" y="111.47">e</tspan><tspan class="cls-12" x="370.68" y="111.47">g</tspan><tspan x="389.09" y="111.47">ar i</tspan><tspan class="cls-21" x="435.22" y="111.47">n</tspan><tspan class="cls-22" x="454.33" y="111.47">f</tspan><tspan x="467.14" y="111.47">ormación </tspan><tspan x="0" y="156.47">de la </tspan><tspan class="cls-11" x="83.23" y="156.47">t</tspan><tspan x="96.56" y="156.47">empe</tspan><tspan class="cls-8" x="188.16" y="156.47">r</tspan><tspan class="cls-13" x="200.51" y="156.47">a</tspan><tspan x="218.64" y="156.47">tu</tspan><tspan class="cls-8" x="251.44" y="156.47">r</tspan><tspan x="263.79" y="156.47">a de condensación de la </tspan><tspan x="0" y="201.47">p</tspan><tspan class="cls-11" x="21.95" y="201.47">r</tspan><tspan x="34.48" y="201.47">ecipitación acumulada en </tspan><tspan class="cls-8" x="448.8" y="201.47">l</tspan><tspan x="458.6" y="201.47">os glacia</tspan><tspan class="cls-11" x="598.11" y="201.47">r</tspan><tspan x="610.64" y="201.47">es </tspan><tspan x="0" y="246.47">por </tspan><tspan class="cls-8" x="62.09" y="246.47">l</tspan><tspan x="71.89" y="246.47">o que podemos conocer la </tspan><tspan class="cls-11" x="0" y="291.47">t</tspan><tspan x="13.33" y="291.47">empe</tspan><tspan class="cls-8" x="104.93" y="291.47">r</tspan><tspan class="cls-13" x="117.28" y="291.47">a</tspan><tspan x="135.41" y="291.47">tu</tspan><tspan class="cls-8" x="168.21" y="291.47">r</tspan><tspan x="180.56" y="291.47">a del ai</tspan><tspan class="cls-11" x="290.88" y="291.47">r</tspan><tspan class="cls-12" x="303.41" y="291.47">e</tspan><tspan x="322.63" y="291.47">.</tspan></tspan></text><path class="cls-26" d="M3003.44,654.13v-28h7.1v11h11.4v-11H3029v28h-7.09V642.86h-11.4v11.27Z"/><path class="cls-26" d="M3179.74,654.13v-28h7.1v11h11.4v-11h7.1v28h-7.1V642.86h-11.4v11.27Z"/><path class="cls-26" d="M3104.15,543.83c8.26,0,14.76,5.72,14.76,14.11v1c0,8.39-6.45,14.11-14.76,14.11s-14.75-5.72-14.75-14.11v-1C3089.4,549.55,3095.9,543.83,3104.15,543.83Zm0,23.27c4.73,0,7.36-3.83,7.36-8.65s-2.41-8.64-7.36-8.64-7.27,3.83-7.27,8.64S3099.47,567.1,3104.11,567.1Z"/><path class="cls-24" d="M3002.24,568.63s65.62,23.47,65.62,116.49c0,0-63.13,35.72-97.18-29.07C2970.68,656.05,2944.1,601.64,3002.24,568.63Z"/><path class="cls-24" d="M3206.54,568.63s-65.62,23.47-65.62,116.49c0,0,63.12,35.72,97.18-29.07C3238.1,656.05,3264.68,601.64,3206.54,568.63Z"/><path class="cls-24" d="M3005.56,550.56s34.64-58.69,98.59-58.69,96.6,58.69,96.6,58.69-78.91,29.91-78.91,138.72H3082S3101.39,601,3005.56,550.56Z"/></svg>