<svg id="Capa_1" data-name="Capa 1" xmlns="http://www.w3.org/2000/svg" xmlns:xlink="http://www.w3.org/1999/xlink" viewBox="0 0 1941.45 1006.08"><defs><style>.cls-1{fill:none;}.cls-2{font-size:50px;font-family:Fabriga;}.cls-2,.cls-26,.cls-27{fill:#1d1d1b;}.cls-3{letter-spacing:-0.01em;}.cls-4{letter-spacing:-0.01em;}.cls-5{letter-spacing:-0.02em;}.cls-6{letter-spacing:-0.02em;}.cls-7{letter-spacing:-0.02em;}.cls-8{letter-spacing:0.02em;}.cls-9{letter-spacing:-0.01em;}.cls-10{letter-spacing:-0.02em;}.cls-11{letter-spacing:0em;}.cls-12{letter-spacing:-0.02em;}.cls-13{letter-spacing:-0.01em;}.cls-14{letter-spacing:-0.08em;}.cls-15{letter-spacing:0em;}.cls-16{letter-spacing:-0.03em;}.cls-17{font-size:30px;fill:#878787;font-family:FabrigaLight, Fabriga;}.cls-18{letter-spacing:-0.03em;}.cls-19{letter-spacing:-0.01em;}.cls-20{letter-spacing:-0.02em;}.cls-21{letter-spacing:-0.02em;}.cls-22{letter-spacing:0em;}.cls-23{letter-spacing:-0.01em;}.cls-24{letter-spacing:-0.07em;}.cls-25{letter-spacing:-0.04em;}.cls-27{font-size:70px;font-family:Fabriga-Bold, Fabriga;font-weight:700;letter-spacing:0.01em;}.cls-28{letter-spacing:-0.01em;}.cls-29{letter-spacing:0.01em;}.cls-30{letter-spacing:-0.01em;}.cls-31{letter-spacing:-0.01em;}.cls-32{clip-path:url(#clip-path);}</style><clipPath id="clip-path"><rect class="cls-1" x="-5793.47" y="1292.75" width="5734.82" height="2268.17"/></clipPath></defs><text class="cls-2" transform="translate(82.33 417.39)"><tspan class="cls-3">L</tspan><tspan x="25.45" y="0">os </tspan><tspan class="cls-4" x="89.05" y="0">t</tspan><tspan x="108.1" y="0">e</tspan><tspan class="cls-3" x="136.55" y="0">s</tspan><tspan x="160.45" y="0">ti</tspan><tspan class="cls-5" x="191.95" y="0">g</tspan><tspan x="218.25" y="0">os de hie</tspan><tspan class="cls-3" x="419.24" y="0">l</tspan><tspan x="433.24" y="0">o son, en la actualidad, una de las her</tspan><tspan class="cls-3" x="1274.28" y="0">r</tspan><tspan x="1291.93" y="0">amie</tspan><tspan class="cls-6" x="1401.68" y="0">n</tspan><tspan x="1429.23" y="0">tas cie</tspan><tspan class="cls-7" x="1577.58" y="0">n</tspan><tspan x="1605.13" y="0">tíficas </tspan><tspan x="0" y="80">más pode</tspan><tspan class="cls-4" x="224.1" y="80">r</tspan><tspan x="242" y="80">osas pa</tspan><tspan class="cls-3" x="415.1" y="80">r</tspan><tspan x="432.75" y="80">a obse</tspan><tspan class="cls-8" x="582.9" y="80">r</tspan><tspan class="cls-3" x="602.29" y="80">v</tspan><tspan x="627.14" y="80">ar el pasado indi</tspan><tspan class="cls-9" x="996.54" y="80">r</tspan><tspan x="1014.44" y="80">ectame</tspan><tspan class="cls-7" x="1188.44" y="80">n</tspan><tspan class="cls-9" x="1215.99" y="80">t</tspan><tspan class="cls-5" x="1235.04" y="80">e</tspan><tspan x="1262.49" y="80">, sin emba</tspan><tspan class="cls-5" x="1489.53" y="80">rg</tspan><tspan x="1533.23" y="80">o la </tspan><tspan x="0" y="160">o</tspan><tspan class="cls-5" x="30.15" y="160">b</tspan><tspan class="cls-4" x="60.5" y="160">t</tspan><tspan x="79.55" y="160">ención de un </tspan><tspan class="cls-9" x="377" y="160">t</tspan><tspan x="396.05" y="160">e</tspan><tspan class="cls-3" x="424.5" y="160">s</tspan><tspan x="448.4" y="160">ti</tspan><tspan class="cls-5" x="479.89" y="160">g</tspan><tspan x="506.19" y="160">o es un des</tspan><tspan class="cls-10" x="755.99" y="160">a</tspan><tspan x="781.64" y="160">fío en sí mism</tspan><tspan class="cls-5" x="1085.19" y="160">o</tspan><tspan x="1114.34" y="160">. </tspan><tspan class="cls-3" x="1138.44" y="160">L</tspan><tspan x="1163.89" y="160">os cie</tspan><tspan class="cls-6" x="1296.08" y="160">n</tspan><tspan x="1323.63" y="160">tíficos se deben </tspan><tspan x="0" y="240">t</tspan><tspan class="cls-3" x="19.55" y="240">r</tspan><tspan x="37.2" y="240">asladar personalme</tspan><tspan class="cls-6" x="489.35" y="240">n</tspan><tspan class="cls-4" x="516.9" y="240">t</tspan><tspan x="535.95" y="240">e ju</tspan><tspan class="cls-6" x="612.49" y="240">n</tspan><tspan class="cls-4" x="640.04" y="240">t</tspan><tspan x="659.09" y="240">o a </tspan><tspan class="cls-9" x="733.59" y="240">t</tspan><tspan class="cls-11" x="752.64" y="240">odo su equipamie</tspan><tspan class="cls-6" x="1153.99" y="240">n</tspan><tspan class="cls-9" x="1181.54" y="240">t</tspan><tspan class="cls-12" x="1200.59" y="240">o</tspan><tspan x="1229.74" y="240">, ha</tspan><tspan class="cls-3" x="1308.99" y="240">s</tspan><tspan x="1332.89" y="240">ta </tspan><tspan class="cls-9" x="1387.99" y="240">z</tspan><tspan x="1411.89" y="240">onas de muy </tspan><tspan x="0" y="320">difícil acceso como las </tspan><tspan class="cls-4" x="528.79" y="320">z</tspan><tspan x="552.69" y="320">onas a</tspan><tspan class="cls-5" x="698.19" y="320">l</tspan><tspan x="711.94" y="320">tas de la co</tspan><tspan class="cls-9" x="968.94" y="320">r</tspan><tspan x="986.84" y="320">di</tspan><tspan class="cls-4" x="1030.14" y="320">l</tspan><tspan class="cls-3" x="1044.39" y="320">l</tspan><tspan x="1058.39" y="320">e</tspan><tspan class="cls-3" x="1086.84" y="320">r</tspan><tspan x="1104.49" y="320">a sob</tspan><tspan class="cls-9" x="1226.19" y="320">r</tspan><tspan x="1244.09" y="320">e </tspan><tspan class="cls-13" x="1281.34" y="320">l</tspan><tspan x="1295.34" y="320">os 4000 m sob</tspan><tspan class="cls-9" x="1623.33" y="320">r</tspan><tspan x="1641.23" y="320">e el </tspan><tspan x="0" y="400">ni</tspan><tspan class="cls-3" x="40.35" y="400">v</tspan><tspan x="65.2" y="400">el del ma</tspan><tspan class="cls-14" x="269.9" y="400">r</tspan><tspan x="284.3" y="400">, o al co</tspan><tspan class="cls-7" x="455.99" y="400">n</tspan><tspan x="483.54" y="400">tine</tspan><tspan class="cls-6" x="571.89" y="400">n</tspan><tspan class="cls-4" x="599.44" y="400">t</tspan><tspan x="618.49" y="400">e A</tspan><tspan class="cls-6" x="688.89" y="400">n</tspan><tspan x="716.44" y="400">tártico con </tspan><tspan class="cls-4" x="975.34" y="400">t</tspan><tspan x="994.39" y="400">empe</tspan><tspan class="cls-3" x="1125.24" y="400">r</tspan><tspan class="cls-6" x="1142.89" y="400">a</tspan><tspan x="1168.79" y="400">tu</tspan><tspan class="cls-3" x="1215.64" y="400">r</tspan><tspan x="1233.29" y="400">as muy baja</tspan><tspan class="cls-5" x="1494.23" y="400">s</tspan><tspan x="1517.88" y="400">. Las </tspan><tspan x="0" y="480">condiciones de t</tspan><tspan class="cls-3" x="378.8" y="480">r</tspan><tspan x="396.45" y="480">abajo son muy des</tspan><tspan class="cls-10" x="812.59" y="480">a</tspan><tspan class="cls-15" x="838.24" y="480">fia</tspan><tspan class="cls-6" x="895.89" y="480">n</tspan><tspan class="cls-9" x="923.44" y="480">t</tspan><tspan x="942.49" y="480">es en cada </tspan><tspan class="cls-16" x="1191.89" y="480">e</tspan><tspan x="1218.84" y="480">xpedición.</tspan></text><text class="cls-17" transform="translate(82.33 308.53)"><tspan class="cls-18">F</tspan><tspan x="15.12" y="0">ue</tspan><tspan class="cls-7" x="48.87" y="0">n</tspan><tspan class="cls-19" x="65.46" y="0">t</tspan><tspan x="76.62" y="0">e: </tspan><tspan class="cls-20" x="108.27" y="0">P</tspan><tspan x="125.52" y="0">a</tspan><tspan class="cls-20" x="141.27" y="0">g</tspan><tspan x="157.26" y="0">es </tspan><tspan class="cls-20" x="194.67" y="0">P</tspan><tspan x="211.92" y="0">a</tspan><tspan class="cls-21" x="227.67" y="0">s</tspan><tspan class="cls-22" x="241.86" y="0">t G</tspan><tspan class="cls-21" x="280.62" y="0">l</tspan><tspan x="287.94" y="0">obal Chan</tspan><tspan class="cls-20" x="424.49" y="0">g</tspan><tspan x="440.48" y="0">es </tspan><tspan class="cls-23" x="477.89" y="0">M</tspan><tspan x="505.55" y="0">a</tspan><tspan class="cls-20" x="521.3" y="0">g</tspan><tspan x="537.29" y="0">azine </tspan><tspan class="cls-24" x="614.81" y="0">V</tspan><tspan x="632.12" y="0">ol.</tspan><tspan class="cls-23" x="666.89" y="0">3</tspan><tspan class="cls-25" x="682.52" y="0">0</tspan><tspan x="699.08" y="0">.</tspan><tspan class="cls-26" x="707.96" y="0"> </tspan></text><text class="cls-27" transform="translate(82.33 136.14)">S<tspan class="cls-28" x="41.79" y="0">E</tspan><tspan x="81.06" y="0">CCIÓN TRAN</tspan><tspan class="cls-28" x="509.03" y="0">S</tspan><tspan class="cls-29" x="549.77" y="0">VERSAL SIMPLIFICA</tspan><tspan class="cls-30" x="1221.13" y="0">D</tspan><tspan class="cls-29" x="1269.22" y="0">A DE </tspan><tspan x="0" y="90">UNA E</tspan><tspan class="cls-31" x="203.49" y="90">X</tspan><tspan class="cls-29" x="249.9" y="90">TR</tspan><tspan class="cls-31" x="336.56" y="90">A</tspan><tspan x="384.09" y="90">CCIÓN DE TE</tspan><tspan class="cls-31" x="809.61" y="90">S</tspan><tspan class="cls-29" x="850" y="90">TIGO DE HIE</tspan><tspan class="cls-13" x="1249.84" y="90">L</tspan><tspan class="cls-29" x="1286.31" y="90">O</tspan></text></svg>