<?xml version="1.0" encoding="utf-8"?>
<!-- Generator: Adobe Illustrator 25.2.0, SVG Export Plug-In . SVG Version: 6.00 Build 0)  -->
<svg version="1.1" id="Layer_1" xmlns="http://www.w3.org/2000/svg" xmlns:xlink="http://www.w3.org/1999/xlink" x="0px" y="0px"
	 viewBox="0 0 944.1 153.6" style="enable-background:new 0 0 944.1 153.6;" xml:space="preserve">
<g>
	<g>
		<g>
			<g>
				<g>
					<g>
						<g>
							<g>
								
									<line style="fill:none;stroke:#1D1D1B;stroke-width:2.9087;stroke-miterlimit:10;" x1="73.4" y1="66.5" x2="73.4" y2="45.6"/>
							</g>
							<g>
								
									<line style="fill:none;stroke:#1D1D1B;stroke-width:2.9087;stroke-miterlimit:10;" x1="193.6" y1="66.5" x2="193.6" y2="45.6"/>
							</g>
							<g>
								
									<line style="fill:none;stroke:#1D1D1B;stroke-width:2.9087;stroke-miterlimit:10;" x1="313.7" y1="66.5" x2="313.7" y2="45.6"/>
							</g>
							<g>
								
									<line style="fill:none;stroke:#1D1D1B;stroke-width:2.9087;stroke-miterlimit:10;" x1="433.8" y1="66.5" x2="433.8" y2="45.6"/>
							</g>
							<g>
								<line style="fill:none;stroke:#1D1D1B;stroke-width:2.9087;stroke-miterlimit:10;" x1="554" y1="66.5" x2="554" y2="45.6"/>
							</g>
							<g>
								
									<line style="fill:none;stroke:#1D1D1B;stroke-width:2.9087;stroke-miterlimit:10;" x1="674.1" y1="66.5" x2="674.1" y2="45.6"/>
							</g>
							<g>
								
									<line style="fill:none;stroke:#1D1D1B;stroke-width:2.9087;stroke-miterlimit:10;" x1="794.5" y1="66.5" x2="794.5" y2="45.6"/>
							</g>
							<g>
								
									<line style="fill:none;stroke:#1D1D1B;stroke-width:2.9087;stroke-miterlimit:10;" x1="914.6" y1="66.5" x2="914.6" y2="45.6"/>
							</g>
						</g>
						<g>
							<defs>
								<rect id="SVGID_1_" x="14.1" y="66.4" width="899.7" height="49.6"/>
							</defs>
							<clipPath id="SVGID_2_">
								<use xlink:href="#SVGID_1_"  style="overflow:visible;"/>
							</clipPath>
						</g>
					</g>
					<g>
						<rect x="14.2" y="66.4" style="fill:#A5D9E9;" width="64.3" height="87.2"/>
						<rect x="78.4" y="66.4" style="fill:#98D4E1;" width="64.3" height="87.2"/>
						<rect x="142.7" y="66.4" style="fill:#82CBD4;" width="64.3" height="87.2"/>
						<rect x="207" y="66.4" style="fill:#BFC071;" width="64.3" height="87.2"/>
						<rect x="271.2" y="66.4" style="fill:#F7BA24;" width="64.3" height="87.2"/>
						<rect x="335.5" y="66.4" style="fill:#E5AE1F;" width="64.3" height="87.2"/>
						<rect x="399.8" y="66.4" style="fill:#CF9721;" width="64.3" height="87.2"/>
						<rect x="464" y="66.4" style="fill:#ED7454;" width="64.3" height="87.2"/>
						<rect x="528.3" y="66.4" style="fill:#EC6C52;" width="64.3" height="87.2"/>
						<rect x="592.5" y="66.4" style="fill:#D85F48;" width="64.3" height="87.2"/>
						<rect x="656.8" y="66.4" style="fill:#9E6156;" width="64.3" height="87.2"/>
						<rect x="721.1" y="66.4" style="fill:#5A5A5A;" width="64.3" height="87.2"/>
						<rect x="785.3" y="66.4" style="fill:#2E2E2E;" width="64.3" height="87.2"/>
						<rect x="849.6" y="66.4" style="fill:#020303;" width="64.3" height="87.2"/>
					</g>
				</g>
			</g>
			<line style="fill:none;stroke:#1D1D1B;stroke-width:2.9086;stroke-miterlimit:10;" x1="14.2" y1="66.4" x2="913.8" y2="66.4"/>
		</g>
		<line style="fill:none;stroke:#1D1D1B;stroke-width:4.469;stroke-miterlimit:10;" x1="0" y1="66.4" x2="928.2" y2="66.4"/>
	</g>
	<g>
		<text transform="matrix(1 0 0 1 43.8007 28.5723)" style="fill:#1D1D1B; font-family:'Fabriga'; font-size:34.6332px;">280</text>
	</g>
	<g>
		<text transform="matrix(1 0 0 1 163.8181 28.5723)" style="fill:#1D1D1B; font-family:'Fabriga'; font-size:34.6332px;">300</text>
	</g>
	<g>
		<text transform="matrix(1 0 0 1 284.6478 28.5723)" style="fill:#1D1D1B; font-family:'Fabriga'; font-size:34.6332px;">320</text>
	</g>
	<g>
		<text transform="matrix(1 0 0 1 404.1892 28.5723)" style="fill:#1D1D1B; font-family:'Fabriga'; font-size:34.6332px;">340</text>
	</g>
	<g>
		<text transform="matrix(1 0 0 1 524.8802 28.5723)" style="fill:#1D1D1B; font-family:'Fabriga'; font-size:34.6332px;">360</text>
	</g>
	<g>
		<text transform="matrix(1 0 0 1 644.8441 28.5723)" style="fill:#1D1D1B; font-family:'Fabriga'; font-size:34.6332px;">380</text>
	</g>
	<g>
		<text transform="matrix(1 0 0 1 763.8206 28.5723)" style="fill:#1D1D1B; font-family:'Fabriga'; font-size:34.6332px;">400</text>
	</g>
	<g>
		<text transform="matrix(1 0 0 1 884.6492 28.5723)" style="fill:#1D1D1B; font-family:'Fabriga'; font-size:34.6332px;">420</text>
	</g>
</g>
</svg>
