<?xml version="1.0" encoding="utf-8"?>
<!-- Generator: Adobe Illustrator 25.2.0, SVG Export Plug-In . SVG Version: 6.00 Build 0)  -->
<svg version="1.1" id="Layer_1" xmlns="http://www.w3.org/2000/svg" xmlns:xlink="http://www.w3.org/1999/xlink" x="0px" y="0px"
	 viewBox="0 0 6918.9 2695.1" style="enable-background:new 0 0 6918.9 2695.1;" xml:space="preserve">
<style type="text/css">
	.st0{fill:#124E8B;}
	.st1{fill:#3DBFEF;}
	.st2{fill:#3D80C2;}
	.st3{fill:#B5DEE8;}
	.st4{fill:#F4F9FB;}
	.st5{fill:#FFFFFF;}
	.st6{fill:#FBF4EB;}
	.st7{fill:#F8C1A3;}
	.st8{fill:#EB645A;}
	.st9{fill:#E63230;}
	.st10{fill:#E73C3C;}
	.st11{fill:#D12626;}
	.st12{fill:#8F2713;}
	.st13{fill:#8A1A1A;}
	.st14{fill:none;stroke:#3D80C2;stroke-width:3;stroke-miterlimit:10;}
	.st15{fill:none;stroke:#3D80C2;stroke-width:4;stroke-linecap:round;stroke-linejoin:round;stroke-miterlimit:10;}
	.st16{fill:none;stroke:#3D80C2;stroke-width:5;stroke-linecap:round;stroke-linejoin:round;stroke-miterlimit:10;}
	.st17{fill:none;stroke:#1D1D1B;stroke-width:1.5;stroke-miterlimit:10;}
	.st18{fill:none;stroke:#1D1D1B;stroke-width:1.5;stroke-miterlimit:10;stroke-dasharray:4.9942,4.9942;}
	.st19{fill:#1D1D1B;}
	.st20{fill:none;stroke:#1D1D1B;stroke-width:1.5;stroke-miterlimit:10;stroke-dasharray:5.0012,5.0012;}
	.st21{fill:none;stroke:#1D1D1B;stroke-width:1.5;stroke-miterlimit:10;stroke-dasharray:5.0139,5.0139;}
	.st22{fill:none;stroke:#1D1D1B;stroke-width:1.5;stroke-miterlimit:10;stroke-dasharray:5.0251,5.0251;}
	.st23{fill:none;stroke:#1D1D1B;stroke-width:1.5;stroke-miterlimit:10;stroke-dasharray:4.9937,4.9937;}
	.st24{fill:none;stroke:#1D1D1B;stroke-width:1.5;stroke-miterlimit:10;stroke-dasharray:4.9846,4.9846;}
	.st25{fill:none;stroke:#1D1D1B;stroke-width:1.5;stroke-miterlimit:10;stroke-dasharray:5.0524,5.0524;}
	.st26{fill:none;stroke:#1D1D1B;stroke-width:1.5;stroke-miterlimit:10;stroke-dasharray:5.0067,5.0067;}
	.st27{fill:none;stroke:#1D1D1B;stroke-width:1.5;stroke-miterlimit:10;stroke-dasharray:5.0017,5.0017;}
	.st28{fill:none;stroke:#1D1D1B;stroke-width:1.5;stroke-miterlimit:10;stroke-dasharray:4.9854,4.9854;}
	.st29{fill:none;stroke:#1D1D1B;stroke-width:1.5;stroke-miterlimit:10;stroke-dasharray:5.0133,5.0133;}
	.st30{fill:none;stroke:#1D1D1B;stroke-width:1.5;stroke-miterlimit:10;stroke-dasharray:5.0464,5.0464;}
	.st31{fill:none;stroke:#1D1D1B;stroke-width:1.5;stroke-miterlimit:10;stroke-dasharray:4.9246,4.9246;}
	.st32{fill:none;stroke:#1D1D1B;stroke-width:1.5;stroke-miterlimit:10;stroke-dasharray:5.0335,5.0335;}
	.st33{fill:none;stroke:#1D1D1B;stroke-width:1.5;stroke-miterlimit:10;stroke-dasharray:5.0026,5.0026;}
	.st34{fill:none;stroke:#1D1D1B;stroke-width:1.5;stroke-miterlimit:10;stroke-dasharray:5.0333,5.0333;}
	.st35{fill:none;stroke:#1D1D1B;stroke-width:1.5;stroke-miterlimit:10;stroke-dasharray:4.9809,4.9809;}
	.st36{fill:none;stroke:#1D1D1B;stroke-width:1.5;stroke-miterlimit:10;stroke-dasharray:5.0075,5.0075;}
	.st37{fill:none;stroke:#1D1D1B;stroke-width:1.5;stroke-miterlimit:10;stroke-dasharray:4.9887,4.9887;}
	.st38{fill:none;stroke:#1D1D1B;stroke-width:1.5;stroke-miterlimit:10;stroke-dasharray:5.0123,5.0123;}
	.st39{fill:none;stroke:#1D1D1B;stroke-width:1.5;stroke-miterlimit:10;stroke-dasharray:5.023,5.023;}
	.st40{fill:none;stroke:#1D1D1B;stroke-width:1.5;stroke-miterlimit:10;stroke-dasharray:5.0102,5.0102;}
	.st41{font-family:'FabrigaLight';}
	.st42{font-size:25.3606px;}
	.st43{fill:none;}
	.st44{font-family:'Fabriga-Bold';}
	.st45{font-size:41.343px;}
	.st46{font-family:'Fabriga';}
	.st47{font-size:34.4525px;}
	.st48{fill:#575756;}
	.st49{font-size:27.4811px;}
</style>
<g>
	<rect x="2.4" y="420.4" class="st0" width="39.8" height="1640.3"/>
	<rect x="42.2" y="420.4" class="st1" width="39.8" height="1640.3"/>
	<rect x="82" y="420.4" class="st1" width="39.8" height="1640.3"/>
	<rect x="121.8" y="420.4" class="st1" width="39.8" height="1640.3"/>
	<rect x="161.6" y="420.4" class="st2" width="39.8" height="1640.3"/>
	<rect x="201.4" y="420.4" class="st2" width="39.8" height="1640.3"/>
	<rect x="241.2" y="420.4" class="st2" width="39.8" height="1640.3"/>
	<rect x="281" y="420.4" class="st0" width="39.8" height="1640.3"/>
	<rect x="320.8" y="420.4" class="st2" width="39.8" height="1640.3"/>
	<rect x="360.6" y="420.4" class="st1" width="39.8" height="1640.3"/>
	<rect x="400.4" y="420.4" class="st2" width="39.8" height="1640.3"/>
	<rect x="440.2" y="420.4" class="st0" width="39.8" height="1640.3"/>
	<rect x="519.8" y="420.4" class="st2" width="39.8" height="1640.3"/>
	<rect x="559.6" y="420.4" class="st0" width="39.8" height="1640.3"/>
	<rect x="599.4" y="420.4" class="st2" width="39.8" height="1640.3"/>
	<rect x="639.2" y="420.4" class="st2" width="39.8" height="1640.3"/>
	<rect x="679" y="420.4" class="st2" width="39.8" height="1640.3"/>
	<rect x="718.8" y="420.4" class="st2" width="39.8" height="1640.3"/>
	<rect x="758.6" y="420.4" class="st2" width="39.8" height="1640.3"/>
	<rect x="798.4" y="420.4" class="st2" width="39.8" height="1640.3"/>
	<rect x="838.2" y="420.4" class="st2" width="39.8" height="1640.3"/>
	<rect x="878" y="420.4" class="st2" width="39.8" height="1640.3"/>
	<rect x="917.9" y="420.4" class="st2" width="39.8" height="1640.3"/>
	<rect x="957.7" y="420.4" class="st2" width="39.8" height="1640.3"/>
	<rect x="997.5" y="420.4" class="st2" width="39.8" height="1640.3"/>
	<rect x="1037.3" y="420.4" class="st0" width="39.8" height="1640.3"/>
	<rect x="1077.1" y="420.4" class="st3" width="39.8" height="1640.3"/>
	<rect x="1116.8" y="420.4" class="st4" width="39.8" height="1640.3"/>
	<rect x="1156.6" y="420.4" class="st2" width="39.8" height="1640.3"/>
	<rect x="1196.4" y="420.4" class="st2" width="39.8" height="1640.3"/>
	<rect x="1236.2" y="420.4" class="st1" width="39.8" height="1640.3"/>
	<rect x="1276" y="420.4" class="st2" width="39.8" height="1640.3"/>
	<rect x="1315.9" y="420.4" class="st2" width="39.8" height="1640.3"/>
	<rect x="1355.7" y="420.4" class="st0" width="39.8" height="1640.3"/>
	<rect x="1395.5" y="420.4" class="st0" width="39.8" height="1640.3"/>
	<rect x="1435.3" y="420.4" class="st0" width="39.8" height="1640.3"/>
	<rect x="1475.1" y="420.4" class="st0" width="39.8" height="1640.3"/>
	<rect x="1514.9" y="420.4" class="st2" width="39.8" height="1640.3"/>
	<rect x="1554.7" y="420.4" class="st1" width="39.8" height="1640.3"/>
	<rect x="1634.3" y="420.4" class="st0" width="39.8" height="1640.3"/>
	<rect x="1713.9" y="420.4" class="st0" width="39.8" height="1640.3"/>
	<rect x="1753.7" y="420.4" class="st0" width="39.8" height="1640.3"/>
	<rect x="1793.5" y="420.4" class="st0" width="39.8" height="1640.3"/>
	<rect x="1833.3" y="420.4" class="st1" width="39.8" height="1640.3"/>
	<rect x="1873.1" y="420.4" class="st1" width="39.8" height="1640.3"/>
	<rect x="1912.9" y="420.4" class="st0" width="39.8" height="1640.3"/>
	<rect x="1952.7" y="420.4" class="st2" width="39.8" height="1640.3"/>
	<rect x="1992.5" y="420.4" class="st1" width="39.8" height="1640.3"/>
	<rect x="2032.3" y="420.4" class="st2" width="39.8" height="1640.3"/>
	<rect x="2072.1" y="420.4" class="st0" width="39.8" height="1640.3"/>
	<rect x="2191.5" y="420.4" class="st0" width="39.8" height="1640.3"/>
	<rect x="2231.3" y="420.4" class="st2" width="39.8" height="1640.3"/>
	<rect x="2470.2" y="420.4" class="st0" width="39.8" height="1640.3"/>
	<rect x="2510" y="420.4" class="st0" width="39.8" height="1640.3"/>
	<rect x="2549.8" y="420.4" class="st1" width="39.8" height="1640.3"/>
	<rect x="2589.5" y="420.4" class="st1" width="39.8" height="1640.3"/>
	<rect x="2629.3" y="420.4" class="st0" width="39.8" height="1640.3"/>
	<rect x="2708.9" y="420.4" class="st0" width="39.8" height="1640.3"/>
	<rect x="2748.7" y="420.4" class="st2" width="39.8" height="1640.3"/>
	<rect x="2788.5" y="420.4" class="st2" width="39.8" height="1640.3"/>
	<rect x="2828.4" y="420.4" class="st1" width="39.8" height="1640.3"/>
	<rect x="2868.2" y="420.4" class="st2" width="39.8" height="1640.3"/>
	<rect x="2908" y="420.4" class="st2" width="39.8" height="1640.3"/>
	<rect x="2947.8" y="420.4" class="st2" width="39.8" height="1640.3"/>
	<rect x="2987.6" y="420.4" class="st1" width="39.8" height="1640.3"/>
	<rect x="3027.4" y="420.4" class="st3" width="39.8" height="1640.3"/>
	<rect x="3067.2" y="420.4" class="st1" width="39.8" height="1640.3"/>
	<rect x="3107" y="420.4" class="st1" width="39.8" height="1640.3"/>
	<rect x="3146.8" y="420.4" class="st2" width="39.8" height="1640.3"/>
	<rect x="3186.6" y="420.4" class="st3" width="39.8" height="1640.3"/>
	<rect x="3226.4" y="420.4" class="st3" width="39.8" height="1640.3"/>
	<rect x="3266.2" y="420.4" class="st3" width="39.8" height="1640.3"/>
	<rect x="3306" y="420.4" class="st2" width="39.8" height="1640.3"/>
	<rect x="3345.8" y="420.4" class="st3" width="39.8" height="1640.3"/>
	<rect x="3385.6" y="420.4" class="st1" width="39.8" height="1640.3"/>
	<rect x="3425.4" y="420.4" class="st3" width="39.8" height="1640.3"/>
	<rect x="3465.2" y="420.4" class="st4" width="39.8" height="1640.3"/>
	<rect x="3505" y="420.4" class="st4" width="39.8" height="1640.3"/>
	<rect x="3544.8" y="420.4" class="st4" width="39.8" height="1640.3"/>
	<rect x="3584.6" y="420.4" class="st5" width="39.8" height="1640.3"/>
	<rect x="3624.4" y="420.4" class="st5" width="39.8" height="1640.3"/>
	<rect x="3664.2" y="420.4" class="st4" width="39.8" height="1640.3"/>
	<rect x="3704" y="420.4" class="st4" width="39.8" height="1640.3"/>
	<rect x="3743.8" y="420.4" class="st6" width="39.8" height="1640.3"/>
	<rect x="3783.6" y="420.4" class="st5" width="39.8" height="1640.3"/>
	<rect x="3823.4" y="420.4" class="st3" width="39.8" height="1640.3"/>
	<rect x="3863.2" y="420.4" class="st3" width="39.8" height="1640.3"/>
	<rect x="3903" y="420.4" class="st3" width="39.8" height="1640.3"/>
	<rect x="3942.9" y="420.4" class="st3" width="39.8" height="1640.3"/>
	<rect x="3982.7" y="420.4" class="st1" width="39.8" height="1640.3"/>
	<rect x="4022.5" y="420.4" class="st4" width="39.8" height="1640.3"/>
	<rect x="4062.2" y="420.4" class="st4" width="39.8" height="1640.3"/>
	<rect x="4102" y="420.4" class="st5" width="39.8" height="1640.3"/>
	<rect x="4141.8" y="420.4" class="st3" width="39.8" height="1640.3"/>
	<rect x="4181.6" y="420.4" class="st1" width="39.8" height="1640.3"/>
	<rect x="4221.4" y="420.4" class="st1" width="39.8" height="1640.3"/>
	<rect x="4261.2" y="420.4" class="st4" width="39.8" height="1640.3"/>
	<rect x="4301" y="420.4" class="st4" width="39.8" height="1640.3"/>
	<rect x="4340.9" y="420.4" class="st4" width="39.8" height="1640.3"/>
	<rect x="4380.7" y="420.4" class="st3" width="39.8" height="1640.3"/>
	<rect x="4420.5" y="420.4" class="st4" width="39.8" height="1640.3"/>
	<rect x="4460.3" y="420.4" class="st4" width="39.8" height="1640.3"/>
	<rect x="4500.1" y="420.4" class="st4" width="39.8" height="1640.3"/>
	<rect x="4539.9" y="420.4" class="st2" width="39.8" height="1640.3"/>
	<rect x="4579.7" y="420.4" class="st1" width="39.8" height="1640.3"/>
	<rect x="4619.5" y="420.4" class="st3" width="39.8" height="1640.3"/>
	<rect x="4659.3" y="420.4" class="st3" width="39.8" height="1640.3"/>
	<rect x="4699.1" y="420.4" class="st3" width="39.8" height="1640.3"/>
	<rect x="4738.9" y="420.4" class="st4" width="39.8" height="1640.3"/>
	<rect x="4778.7" y="420.4" class="st3" width="39.8" height="1640.3"/>
	<rect x="4818.5" y="420.4" class="st1" width="39.8" height="1640.3"/>
	<rect x="4858.3" y="420.4" class="st3" width="39.8" height="1640.3"/>
	<rect x="4898.1" y="420.4" class="st5" width="39.8" height="1640.3"/>
	<rect x="4937.9" y="420.4" class="st3" width="39.8" height="1640.3"/>
	<rect x="4977.7" y="420.4" class="st3" width="39.8" height="1640.3"/>
	<rect x="5017.5" y="420.4" class="st1" width="39.8" height="1640.3"/>
	<rect x="5057.3" y="420.4" class="st5" width="39.8" height="1640.3"/>
	<rect x="5097.1" y="420.4" class="st4" width="39.8" height="1640.3"/>
	<rect x="5136.9" y="420.4" class="st5" width="39.8" height="1640.3"/>
	<rect x="5176.7" y="420.4" class="st6" width="39.8" height="1640.3"/>
	<rect x="5216.5" y="420.4" class="st7" width="39.8" height="1640.3"/>
	<rect x="5256.3" y="420.4" class="st4" width="39.8" height="1640.3"/>
	<rect x="5296.1" y="420.4" class="st6" width="39.8" height="1640.3"/>
	<rect x="5335.9" y="420.4" class="st5" width="39.8" height="1640.3"/>
	<rect x="5375.7" y="420.4" class="st5" width="39.8" height="1640.3"/>
	<rect x="5415.5" y="420.4" class="st5" width="39.8" height="1640.3"/>
	<rect x="5455.4" y="420.4" class="st6" width="39.8" height="1640.3"/>
	<rect x="5495.2" y="420.4" class="st7" width="39.8" height="1640.3"/>
	<rect x="5534.9" y="420.4" class="st6" width="39.8" height="1640.3"/>
	<rect x="5574.7" y="420.4" class="st8" width="39.8" height="1640.3"/>
	<rect x="5614.5" y="420.4" class="st7" width="39.8" height="1640.3"/>
	<rect x="5654.3" y="420.4" class="st5" width="39.8" height="1640.3"/>
	<rect x="5694.1" y="420.4" class="st6" width="39.8" height="1640.3"/>
	<rect x="5733.9" y="420.4" class="st6" width="39.8" height="1640.3"/>
	<rect x="5773.7" y="420.4" class="st8" width="39.8" height="1640.3"/>
	<rect x="5813.5" y="420.4" class="st7" width="39.8" height="1640.3"/>
	<rect x="5853.4" y="420.4" class="st8" width="39.8" height="1640.3"/>
	<rect x="5893.2" y="420.4" class="st9" width="39.8" height="1640.3"/>
	<rect x="5933" y="420.4" class="st7" width="39.8" height="1640.3"/>
	<rect x="5972.8" y="420.4" class="st7" width="39.8" height="1640.3"/>
	<rect x="6012.6" y="420.4" class="st10" width="39.8" height="1640.3"/>
	<rect x="6052.4" y="420.4" class="st10" width="39.8" height="1640.3"/>
	<rect x="6092.2" y="420.4" class="st10" width="39.8" height="1640.3"/>
	<rect x="6132" y="420.4" class="st10" width="39.8" height="1640.3"/>
	<rect x="6171.8" y="420.4" class="st9" width="39.8" height="1640.3"/>
	<rect x="6211.6" y="420.4" class="st9" width="39.8" height="1640.3"/>
	<rect x="6251.4" y="420.4" class="st9" width="39.8" height="1640.3"/>
	<rect x="6291.2" y="420.4" class="st10" width="39.8" height="1640.3"/>
	<rect x="6331" y="420.4" class="st9" width="39.8" height="1640.3"/>
	<rect x="6370.8" y="420.4" class="st11" width="39.8" height="1640.3"/>
	<rect x="6410.6" y="420.4" class="st10" width="39.8" height="1640.3"/>
	<rect x="6450.4" y="420.4" class="st9" width="39.8" height="1640.3"/>
	<rect x="6490.2" y="420.4" class="st9" width="39.8" height="1640.3"/>
	<rect x="6530" y="420.4" class="st9" width="39.8" height="1640.3"/>
	<rect x="6569.8" y="420.4" class="st12" width="39.8" height="1640.3"/>
	<rect x="6609.6" y="420.4" class="st13" width="39.8" height="1640.3"/>
	<rect x="6649.4" y="420.4" class="st12" width="39.8" height="1640.3"/>
	<rect x="6689.2" y="420.4" class="st11" width="39.8" height="1640.3"/>
	<rect x="6729" y="420.4" class="st12" width="39.8" height="1640.3"/>
	<rect x="6768.8" y="420.4" class="st13" width="39.8" height="1640.3"/>
	<rect x="6808.6" y="420.4" class="st11" width="39.8" height="1640.3"/>
	<rect x="6848.4" y="420.4" class="st12" width="39.8" height="1640.3"/>
</g>
<g>
	<line class="st14" x1="13.2" y1="2427.1" x2="101.6" y2="2427.1"/>
</g>
<g>
	<line class="st14" x1="122.8" y1="57.2" x2="211.2" y2="57.2"/>
</g>
<g>
	<line class="st14" x1="449.3" y1="2427.1" x2="537.6" y2="2427.1"/>
</g>
<g>
	<line class="st14" x1="876.2" y1="2427.1" x2="964.6" y2="2427.1"/>
</g>
<g>
	<line class="st14" x1="2084.6" y1="2427.1" x2="2172.9" y2="2427.1"/>
</g>
<g>
	<line class="st14" x1="2713.4" y1="2427.1" x2="2801.8" y2="2427.1"/>
</g>
<g>
	<line class="st14" x1="3117.5" y1="2427.1" x2="3205.9" y2="2427.1"/>
</g>
<g>
	<line class="st14" x1="4273" y1="2427.1" x2="4361.4" y2="2427.1"/>
</g>
<g>
	<line class="st14" x1="4759.7" y1="2427.1" x2="4848.1" y2="2427.1"/>
</g>
<g>
	<line class="st14" x1="5273.9" y1="2427.1" x2="5362.2" y2="2427.1"/>
</g>
<g>
	<line class="st14" x1="5928.8" y1="2427.1" x2="6025.3" y2="2427.1"/>
</g>
<g>
	<line class="st14" x1="6566.5" y1="2427.1" x2="6654.8" y2="2427.1"/>
</g>
<g>
	<line class="st14" x1="1418.6" y1="57.2" x2="1507" y2="57.2"/>
</g>
<g>
	<line class="st14" x1="1826.3" y1="57.2" x2="1914.7" y2="57.2"/>
</g>
<g>
	<line class="st14" x1="2158.8" y1="57.2" x2="2247.2" y2="57.2"/>
</g>
<g>
	<line class="st14" x1="2766.9" y1="57.2" x2="2855.3" y2="57.2"/>
</g>
<g>
	<line class="st14" x1="3190" y1="57.2" x2="3278.4" y2="57.2"/>
</g>
<g>
	<line class="st14" x1="4195.7" y1="57.2" x2="4284.1" y2="57.2"/>
</g>
<g>
	<line class="st14" x1="4734.4" y1="57.2" x2="4822.8" y2="57.2"/>
</g>
<g>
	<line class="st14" x1="5249.1" y1="57.2" x2="5337.5" y2="57.2"/>
</g>
<g>
	<line class="st14" x1="5824.9" y1="57.2" x2="5913.3" y2="57.2"/>
</g>
<g>
	<line class="st14" x1="6362.1" y1="57.2" x2="6450.4" y2="57.2"/>
</g>
<g>
	<g>
		<g>
			<rect x="4150.2" y="2428.3" class="st15" width="95.9" height="95.9"/>
			<line class="st15" x1="4159.3" y1="2437.1" x2="4166.7" y2="2437.1"/>
			<line class="st15" x1="4189.4" y1="2513.3" x2="4206.8" y2="2513.3"/>
			<rect x="4183.5" y="2492" class="st15" width="29.3" height="10.3"/>
			<g>
				<path class="st15" d="M4174.7,2463.1h13.6c4.8,0,8.7-3.9,8.7-8.7c0-4.8-3.9-8.7-8.7-8.7h-13.6v35.5"/>
				<path class="st15" d="M4205.7,2465.2c0-4.4,3.6-8,8-8c4.4,0,8,3.6,8,8v6.5c0,4.4-3.6,8-8,8c-4.4,0-8-3.6-8-8"/>
				<line class="st15" x1="4205.7" y1="2481.2" x2="4205.7" y2="2445.6"/>
			</g>
		</g>
	</g>
</g>
<g>
	<g>
		<g>
			<g>
				<g>
					<g>
						<g>
							<g>
								<line class="st15" x1="88.5" y1="111.8" x2="88.5" y2="86.2"/>
								<polyline class="st15" points="81.5,93.2 88.5,86.2 95.6,93.2 								"/>
							</g>
							<g>
								<line class="st15" x1="60.9" y1="99" x2="60.9" y2="73.4"/>
								<polyline class="st15" points="53.9,80.4 60.9,73.4 67.9,80.4 								"/>
							</g>
							<g>
								<line class="st15" x1="28.2" y1="86.2" x2="28.2" y2="60.6"/>
								<polyline class="st15" points="21.1,67.7 28.2,60.6 35.2,67.7 								"/>
							</g>
						</g>
					</g>
					<path id="XMLID_7_" class="st15" d="M85.5,147c6.8,0,12.3-5.5,12.3-12.3c0-6.8-5.5-12.3-12.3-12.3c-3,0-5.8,1.1-7.9,2.9
						c-1.7-8.3-9-14.5-17.8-14.5c-2.9,0-5.6,0.7-8,1.9c-3.6-9.9-13-17-24.1-17C13.5,95.7,2,107.2,2,121.4C2,135.5,13.5,147,27.7,147
						H85.5z"/>
				</g>
			</g>
			<g>
				<path class="st15" d="M35.2,132.7c-1.3,1.9-3.3,3.1-5.4,3.1c-3.8,0-7-3.7-7-8.2c0-4.5,3.2-8.2,7-8.2c2.4,0,4.6,1.4,5.9,3.8"/>
				
					<ellipse transform="matrix(1.429648e-03 -1 1 1.429648e-03 -78.8146 176.1102)" class="st15" cx="48.8" cy="127.5" rx="8.2" ry="7"/>
				<path class="st15" d="M61.1,131.9c0-1.2,1.1-2.2,2.5-2.2c1.4,0,2.5,1,2.5,2.2c0,1.6-4.8,5.9-4.8,5.9h5.2"/>
			</g>
		</g>
	</g>
</g>
<g>
	<g>
		<g>
			<ellipse class="st15" cx="2690.9" cy="66.3" rx="47.9" ry="9.5"/>
			<path class="st15" d="M2722.8,85.7c-7.9,1.9-19.3,3.1-32,3.1c-23.9,0-43.3-4.3-43.3-9.5"/>
			<path class="st15" d="M2676.4,99.8c-13.7-1.2-23.4-4.1-23.4-7.5"/>
			<path class="st15" d="M2728.8,92.3c0,3.9-13,7.2-30.2,8"/>
			<path class="st15" d="M2698.5,111.8c-2.4,0.1-5,0.2-7.6,0.2c-17.7,0-32-2.6-32-5.8"/>
			<path class="st15" d="M2722.8,106.2c0,1.4-2.6,2.6-6.9,3.6"/>
			<path class="st15" d="M2671.6,121.4c-3.6-1-5.8-2.3-5.8-3.7"/>
			<path class="st15" d="M2716,117.7c0,3.2-11.2,5.8-25.1,5.8c-3.5,0-6.8-0.2-9.8-0.5"/>
			<path class="st15" d="M2710.1,131.1c0,2.2-8.6,4-19.3,4c-10.6,0-19.3-1.8-19.3-4"/>
			<path class="st15" d="M2704.7,142.7c0,2.2-6.2,4-13.9,4c-7.7,0-13.9-1.8-13.9-4"/>
		</g>
	</g>
</g>
<g>
	<g>
		<g>
			<g>
				<path class="st16" d="M6315.2,121.7V67.4c0-5.5-4.4-9.9-9.9-9.9c-5.5,0-9.9,4.4-9.9,9.9v54.3c-4.5,3.1-7.5,8.4-7.5,14.3
					c0,9.6,7.8,17.4,17.4,17.4c9.6,0,17.4-7.8,17.4-17.4C6322.7,130,6319.7,124.8,6315.2,121.7z"/>
			</g>
			<circle class="st16" cx="6305.3" cy="136" r="10.3"/>
			<line class="st16" x1="6305.3" y1="125.7" x2="6305.3" y2="84.6"/>
			<line class="st16" x1="6331.1" y1="60" x2="6331.1" y2="72.2"/>
			<line class="st16" x1="6324.9" y1="66.1" x2="6337.2" y2="66.1"/>
			<line class="st16" x1="6324.9" y1="115.1" x2="6337.2" y2="115.1"/>
			<g>
				<g>
					<line class="st16" x1="6271.3" y1="66.1" x2="6283.5" y2="66.1"/>
					<line class="st16" x1="6271.3" y1="75.9" x2="6283.5" y2="75.9"/>
					<line class="st16" x1="6271.3" y1="85.7" x2="6283.5" y2="85.7"/>
					<line class="st16" x1="6271.3" y1="95.5" x2="6283.5" y2="95.5"/>
					<line class="st16" x1="6271.3" y1="105.3" x2="6283.5" y2="105.3"/>
					<line class="st16" x1="6271.3" y1="115.1" x2="6283.5" y2="115.1"/>
				</g>
			</g>
		</g>
	</g>
</g>
<g>
	<g>
		<path class="st15" d="M4684,124.8V65.7c0-4.5-3.5-8.1-7.9-8.1c-4.3,0-7.9,3.6-7.9,8.1v59.2c-4.2,2.7-7.1,7.5-7.1,13.1
			c0,8.5,6.7,15.4,14.9,15.4c8.3,0,14.9-6.9,14.9-15.4C4691.1,132.4,4688.3,127.6,4684,124.8z"/>
		<line class="st15" x1="4693.8" y1="76.6" x2="4707.7" y2="76.6"/>
		<line class="st15" x1="4694.7" y1="95.2" x2="4706.8" y2="95.2"/>
		<line class="st15" x1="4694.7" y1="113.8" x2="4706.8" y2="113.8"/>
		<path class="st15" d="M4681.9,137.9c0,3.2-2.6,5.9-5.9,5.9c-3.2,0-5.9-2.6-5.9-5.9c0-3.2,2.6-5.9,5.9-5.9
			C4679.2,132.1,4681.9,134.7,4681.9,137.9z"/>
		<line class="st15" x1="4676" y1="132.1" x2="4676" y2="84.8"/>
		<line class="st15" x1="4656.3" y1="75.8" x2="4643.6" y2="68.2"/>
		<line class="st15" x1="4656.3" y1="106.3" x2="4643.6" y2="113.9"/>
		<line class="st15" x1="4656.3" y1="91.6" x2="4641.5" y2="91.6"/>
	</g>
</g>
<g>
	<g>
		<g>
			<ellipse class="st15" cx="5751" cy="67.2" rx="47.9" ry="9.5"/>
			<path class="st15" d="M5783,86.6c-7.9,1.9-19.3,3.1-32,3.1c-23.9,0-43.3-4.3-43.3-9.5"/>
			<path class="st15" d="M5736.5,100.6c-13.7-1.2-23.4-4.1-23.4-7.5"/>
			<path class="st15" d="M5788.9,93.1c0,3.9-13,7.2-30.2,8"/>
			<path class="st15" d="M5758.6,112.6c-2.4,0.1-5,0.2-7.6,0.2c-17.7,0-32-2.6-32-5.8"/>
			<path class="st15" d="M5783,107c0,1.4-2.6,2.6-6.9,3.6"/>
			<path class="st15" d="M5731.7,122.3c-3.6-1-5.8-2.3-5.8-3.7"/>
			<path class="st15" d="M5776.1,118.6c0,3.2-11.2,5.8-25.1,5.8c-3.5,0-6.8-0.2-9.8-0.5"/>
			<path class="st15" d="M5770.3,131.9c0,2.2-8.6,4-19.3,4c-10.6,0-19.3-1.8-19.3-4"/>
			<path class="st15" d="M5764.9,143.5c0,2.2-6.2,4-13.9,4c-7.7,0-13.9-1.8-13.9-4"/>
		</g>
	</g>
</g>
<g>
	<g>
		<g>
			<g>
				<path class="st16" d="M5878.5,2491.9v-54.3c0-5.5-4.4-9.9-9.9-9.9c-5.5,0-9.9,4.4-9.9,9.9v54.3c-4.5,3.1-7.5,8.4-7.5,14.3
					c0,9.6,7.8,17.4,17.4,17.4c9.6,0,17.4-7.8,17.4-17.4C5886,2500.2,5883,2495,5878.5,2491.9z"/>
			</g>
			<circle class="st16" cx="5868.6" cy="2506.1" r="10.3"/>
			<line class="st16" x1="5868.6" y1="2495.9" x2="5868.6" y2="2454.8"/>
			<line class="st16" x1="5894.3" y1="2430.2" x2="5894.3" y2="2442.4"/>
			<line class="st16" x1="5888.2" y1="2436.3" x2="5900.4" y2="2436.3"/>
			<line class="st16" x1="5888.2" y1="2485.3" x2="5900.4" y2="2485.3"/>
			<g>
				<g>
					<line class="st16" x1="5834.5" y1="2436.3" x2="5846.7" y2="2436.3"/>
					<line class="st16" x1="5834.5" y1="2446.1" x2="5846.7" y2="2446.1"/>
					<line class="st16" x1="5834.5" y1="2455.9" x2="5846.7" y2="2455.9"/>
					<line class="st16" x1="5834.5" y1="2465.7" x2="5846.7" y2="2465.7"/>
					<line class="st16" x1="5834.5" y1="2475.5" x2="5846.7" y2="2475.5"/>
					<line class="st16" x1="5834.5" y1="2485.3" x2="5846.7" y2="2485.3"/>
				</g>
			</g>
		</g>
	</g>
</g>
<g>
	<g>
		<g>
			<ellipse class="st16" cx="6493.3" cy="2437.2" rx="47.9" ry="9.5"/>
			<path class="st16" d="M6525.3,2456.6c-7.9,1.9-19.3,3.1-32,3.1c-23.9,0-43.3-4.3-43.3-9.5"/>
			<path class="st16" d="M6478.8,2470.6c-13.7-1.2-23.4-4.1-23.4-7.5"/>
			<path class="st16" d="M6531.2,2463.1c0,3.9-13,7.2-30.2,8"/>
			<path class="st16" d="M6501,2482.6c-2.4,0.1-5,0.2-7.6,0.2c-17.7,0-32-2.6-32-5.8"/>
			<path class="st16" d="M6525.3,2477c0,1.4-2.6,2.6-6.9,3.6"/>
			<path class="st16" d="M6474.1,2492.3c-3.6-1-5.8-2.3-5.8-3.7"/>
			<path class="st16" d="M6518.4,2488.6c0,3.2-11.2,5.8-25.1,5.8c-3.5,0-6.8-0.2-9.8-0.5"/>
			<path class="st16" d="M6512.6,2502c0,2.2-8.6,4-19.3,4c-10.6,0-19.3-1.8-19.3-4"/>
			<path class="st16" d="M6507.2,2513.5c0,2.2-6.2,4-13.9,4c-7.7,0-13.9-1.8-13.9-4"/>
		</g>
	</g>
</g>
<g>
	<g>
		<g>
			<ellipse class="st15" cx="4682.2" cy="2437.2" rx="47.9" ry="9.5"/>
			<path class="st15" d="M4714.2,2456.6c-7.9,1.9-19.3,3.1-32,3.1c-23.9,0-43.3-4.3-43.3-9.5"/>
			<path class="st15" d="M4667.7,2470.6c-13.7-1.2-23.4-4.1-23.4-7.5"/>
			<path class="st15" d="M4720.1,2463.1c0,3.9-13,7.2-30.2,8"/>
			<path class="st15" d="M4689.8,2482.6c-2.4,0.1-5,0.2-7.6,0.2c-17.7,0-32-2.6-32-5.8"/>
			<path class="st15" d="M4714.2,2477c0,1.4-2.6,2.6-6.9,3.6"/>
			<path class="st15" d="M4662.9,2492.3c-3.6-1-5.8-2.3-5.8-3.7"/>
			<path class="st15" d="M4707.3,2488.6c0,3.2-11.2,5.8-25.1,5.8c-3.5,0-6.8-0.2-9.8-0.5"/>
			<path class="st15" d="M4701.5,2502c0,2.2-8.6,4-19.3,4c-10.6,0-19.3-1.8-19.3-4"/>
			<path class="st15" d="M4696.1,2513.5c0,2.2-6.2,4-13.9,4c-7.7,0-13.9-1.8-13.9-4"/>
		</g>
	</g>
</g>
<g>
	<g id="XMLID_00000084526435280672117270000008509412067685939109_">
		<g id="XMLID_00000012439249321506058790000011927634829837597364_">
			<path id="XMLID_00000066510794257649660370000010194926269416637056_" class="st15" d="M821.4,2442.5c3.8,0,6.9-3.1,6.9-6.9
				c0-3.8-3.1-6.9-6.9-6.9c-3.8,0-6.9,3.1-6.9,6.9C814.6,2439.5,817.6,2442.5,821.4,2442.5"/>
			<path id="XMLID_00000050661952668465510190000015317932918364637100_" class="st15" d="M834.5,2479.3h6.9l-4.2-23.6
				c-0.6-3.6-3.3-6.7-7.1-7.7c-2.8-0.7-5.7-1.1-8.6-1.1c-3,0-5.9,0.4-8.6,1.1c-3.8,0.9-6.5,4-7.1,7.7l-4.2,23.6h6.9"/>
			<path id="XMLID_00000145053513999253940780000000770586762624844991_" class="st15" d="M812,2459.4l2.1,8
				c-4.9,7.3-7.8,16.2-7.8,25.7h9l2.7,30.9h6.9l2.7-30.9h9c0-9.5-2.9-18.3-7.8-25.7l2.1-8"/>
		</g>
		<g id="XMLID_00000170240542008353886750000006653593583612859315_">
			<g>
				<path id="XMLID_37_" class="st15" d="M774.9,2442.5c4,0,7.2-3.2,7.2-7.2c0-4-3.2-7.2-7.2-7.2c-4,0-7.2,3.2-7.2,7.2
					C767.7,2439.3,770.9,2442.5,774.9,2442.5"/>
				<path id="XMLID_36_" class="st15" d="M785.8,2483.4h7.4l1.3-23.7c0.3-5.6-3.6-10.7-9.2-11.7"/>
				<polyline id="XMLID_35_" class="st15" points="764,2460.7 764,2523.9 771.5,2523.9 774.2,2484.8 775.6,2484.8 778.3,2523.9 
					785.8,2523.9 785.8,2460.7 				"/>
				<path id="XMLID_34_" class="st15" d="M785.2,2447.9c-3.3-0.6-6.8-0.9-10.3-0.9c-3.5,0-7,0.3-10.3,0.9c-5.7,1-9.5,6.1-9.2,11.7
					l1.3,23.7h7.4"/>
			</g>
		</g>
	</g>
</g>
<g>
	<g id="XMLID_00000176004134627871865870000003810769387641584030_">
		<g id="XMLID_00000059277048026421343690000016527344094135357111_">
			<path id="XMLID_00000111896915083427177230000006271479961998584247_" class="st15" d="M5204.7,70.9c3.8,0,6.9-3.1,6.9-6.9
				c0-3.8-3.1-6.9-6.9-6.9c-3.8,0-6.9,3.1-6.9,6.9C5197.8,67.8,5200.9,70.9,5204.7,70.9"/>
			<path id="XMLID_00000034772577426336048380000006129072011886080415_" class="st15" d="M5217.7,107.6h6.9l-4.2-23.6
				c-0.6-3.6-3.3-6.7-7.1-7.7c-2.8-0.7-5.7-1.1-8.6-1.1c-3,0-5.9,0.4-8.6,1.1c-3.8,0.9-6.5,4-7.1,7.7l-4.2,23.6h6.9"/>
			<path id="XMLID_00000132086185850354849800000012613881607940629136_" class="st15" d="M5195.2,87.7l2.1,8
				c-4.9,7.3-7.8,16.2-7.8,25.7h9l2.7,30.9h6.9l2.7-30.9h9c0-9.5-2.9-18.3-7.8-25.7l2.1-8"/>
		</g>
		<g id="XMLID_00000004543839176603026440000005303438089914466737_">
			<g>
				<path id="XMLID_38_" class="st15" d="M5158.1,70.9c4,0,7.2-3.2,7.2-7.2c0-4-3.2-7.2-7.2-7.2s-7.2,3.2-7.2,7.2
					C5150.9,67.6,5154.2,70.9,5158.1,70.9"/>
				<path id="XMLID_33_" class="st15" d="M5169.1,111.7h7.4l1.3-23.7c0.3-5.6-3.6-10.7-9.2-11.7"/>
				<polyline id="XMLID_32_" class="st15" points="5147.2,89.1 5147.2,152.3 5154.7,152.3 5157.5,113.1 5158.8,113.1 5161.6,152.3 
					5169.1,152.3 5169.1,89.1 				"/>
				<path id="XMLID_31_" class="st15" d="M5168.5,76.3c-3.3-0.6-6.8-0.9-10.3-0.9s-7,0.3-10.3,0.9c-5.7,1-9.5,6.1-9.2,11.7l1.3,23.7
					h7.4"/>
			</g>
		</g>
	</g>
</g>
<g>
	<ellipse class="st15" cx="3043.9" cy="2453.3" rx="25.6" ry="26.2"/>
	<ellipse class="st15" cx="3043.9" cy="2453.3" rx="47.9" ry="26.2"/>
	<polyline class="st15" points="3039.8,2479.5 3039.8,2489 3018,2489 3018,2495.3 3039.8,2495.3 3039.8,2501.1 3048.1,2501.1 
		3048.1,2495.3 3069.9,2495.3 3069.9,2489 3048.1,2489 3048.1,2479.5 	"/>
</g>
<g>
	<g>
		<line class="st17" x1="41.4" y1="2356.2" x2="41.4" y2="2353.7"/>
		<path class="st18" d="M41.4,2348.7V2249c0-7.8,6.4-14.2,14.2-14.2h470.1c7.8,0,14.2-6.4,14.2-14.2v-22.4"/>
		<line class="st17" x1="539.9" y1="2195.7" x2="539.9" y2="2193.2"/>
		<g>
			<polygon class="st19" points="549.1,2200.7 547.4,2202.2 539.9,2194.1 532.3,2202.2 530.7,2200.7 539.9,2190.8 			"/>
		</g>
	</g>
</g>
<g>
	<g>
		<line class="st17" x1="486.3" y1="2356.2" x2="486.3" y2="2353.7"/>
		<path class="st20" d="M486.3,2348.7v-82.9c0-7.8,6.4-14.2,14.2-14.2h861.1c7.8,0,14.2-6.4,14.2-14.2v-39.3"/>
		<line class="st17" x1="1375.7" y1="2195.7" x2="1375.7" y2="2193.2"/>
		<g>
			<polygon class="st19" points="1384.9,2200.7 1383.3,2202.2 1375.7,2194.1 1368.2,2202.2 1366.5,2200.7 1375.7,2190.8 			"/>
		</g>
	</g>
</g>
<g>
	<g>
		<line class="st17" x1="917.8" y1="2356.2" x2="917.8" y2="2353.7"/>
		<path class="st21" d="M917.8,2348.7v-65.9c0-7.8,6.4-14.2,14.2-14.2h1345c7.8,0,14.2-6.4,14.2-14.2v-56.2"/>
		<line class="st17" x1="2291.2" y1="2195.7" x2="2291.2" y2="2193.2"/>
		<g>
			<polygon class="st19" points="2300.4,2200.7 2298.7,2202.2 2291.2,2194.1 2283.6,2202.2 2282,2200.7 2291.2,2190.8 			"/>
		</g>
	</g>
</g>
<g>
	<g>
		<line class="st17" x1="2125.1" y1="2356.2" x2="2125.1" y2="2353.7"/>
		<path class="st22" d="M2125.1,2348.7v-49c0-7.8,6.4-14.2,14.2-14.2h655c7.8,0,14.2-6.4,14.2-14.2v-73.1"/>
		<line class="st17" x1="2808.5" y1="2195.7" x2="2808.5" y2="2193.2"/>
		<g>
			<polygon class="st19" points="2817.7,2200.7 2816,2202.2 2808.5,2194.1 2800.9,2202.2 2799.3,2200.7 2808.5,2190.8 			"/>
		</g>
	</g>
</g>
<g>
	<g>
		<line class="st17" x1="2755.8" y1="2356.2" x2="2755.8" y2="2353.7"/>
		<path class="st23" d="M2755.8,2348.7v-32.2c0-7.8,6.4-14.2,14.2-14.2h1059.3c7.8,0,14.2-6.4,14.2-14.2v-90"/>
		<line class="st17" x1="3843.5" y1="2195.7" x2="3843.5" y2="2193.2"/>
		<g>
			<polygon class="st19" points="3852.7,2200.7 3851,2202.2 3843.5,2194.1 3835.9,2202.2 3834.3,2200.7 3843.5,2190.8 			"/>
		</g>
	</g>
</g>
<g>
	<g>
		<line class="st17" x1="3156.8" y1="2356.2" x2="3156.8" y2="2353.7"/>
		<path class="st24" d="M3156.8,2348.8v-15.3c0-7.8,6.4-14.2,14.2-14.2h1017.1c7.8,0,14.2-6.4,14.2-14.2v-107"/>
		<line class="st17" x1="4202.2" y1="2195.7" x2="4202.2" y2="2193.2"/>
		<g>
			<polygon class="st19" points="4211.4,2200.7 4209.8,2202.2 4202.2,2194.1 4194.7,2202.2 4193,2200.7 4202.2,2190.8 			"/>
		</g>
	</g>
</g>
<g>
	<g>
		<line class="st17" x1="4316.6" y1="2356.2" x2="4316.6" y2="2353.7"/>
		<path class="st25" d="M4316.6,2348.7v-40.5c0-7.8,6.4-14.2,14.2-14.2h255.3c7.8,0,14.2-6.4,14.2-14.2v-81.6"/>
		<line class="st17" x1="4600.3" y1="2195.7" x2="4600.3" y2="2193.2"/>
		<g>
			<polygon class="st19" points="4609.5,2200.7 4607.8,2202.2 4600.3,2194.1 4592.7,2202.2 4591.1,2200.7 4600.3,2190.8 			"/>
		</g>
	</g>
</g>
<g>
	<g>
		<line class="st17" x1="4798.7" y1="2356.2" x2="4798.7" y2="2353.7"/>
		<path class="st26" d="M4798.7,2348.7v-74.4c0-7.8,6.4-14.2,14.2-14.2h1843.5c7.8,0,14.2-6.4,14.2-14.2v-47.8"/>
		<line class="st17" x1="6670.6" y1="2195.7" x2="6670.6" y2="2193.2"/>
		<g>
			<polygon class="st19" points="6679.8,2200.7 6678.2,2202.2 6670.6,2194.1 6663.1,2202.2 6661.4,2200.7 6670.6,2190.8 			"/>
		</g>
	</g>
</g>
<g>
	<g>
		<line class="st17" x1="5319.2" y1="2356.2" x2="5319.2" y2="2353.7"/>
		<path class="st27" d="M5319.2,2348.7v-57.5c0-7.8,6.4-14.2,14.2-14.2h1401.4c7.8,0,14.2-6.4,14.2-14.2v-64.7"/>
		<line class="st17" x1="6748.9" y1="2195.7" x2="6748.9" y2="2193.2"/>
		<g>
			<polygon class="st19" points="6758.1,2200.7 6756.5,2202.2 6748.9,2194.1 6741.4,2202.2 6739.7,2200.7 6748.9,2190.8 			"/>
		</g>
	</g>
</g>
<g>
	<g>
		<line class="st17" x1="5972.5" y1="2356.2" x2="5972.5" y2="2353.7"/>
		<path class="st28" d="M5972.5,2348.8v-40.6c0-7.8,6.4-14.2,14.2-14.2h788c7.8,0,14.2-6.4,14.2-14.2v-81.6"/>
		<line class="st17" x1="6788.9" y1="2195.7" x2="6788.9" y2="2193.2"/>
		<g>
			<polygon class="st19" points="6798.1,2200.7 6796.4,2202.2 6788.9,2194.1 6781.3,2202.2 6779.7,2200.7 6788.9,2190.8 			"/>
		</g>
	</g>
</g>
<g>
	<g>
		<line class="st17" x1="6608.5" y1="2356.2" x2="6608.5" y2="2353.7"/>
		<path class="st29" d="M6608.5,2348.7V2325c0-7.8,6.4-14.2,14.2-14.2h191.8c7.8,0,14.2-6.4,14.2-14.2v-98.5"/>
		<line class="st17" x1="6828.7" y1="2195.7" x2="6828.7" y2="2193.2"/>
		<g>
			<polygon class="st19" points="6837.9,2200.7 6836.2,2202.2 6828.7,2194.1 6821.1,2202.2 6819.5,2200.7 6828.7,2190.8 			"/>
		</g>
	</g>
</g>
<g>
	<g>
		<line class="st17" x1="166.7" y1="258.2" x2="166.7" y2="260.7"/>
		<path class="st30" d="M166.7,265.7v62.5c0,7.8-6.4,14.2-14.2,14.2H37.3c-7.8,0-14.2,6.4-14.2,14.2v47.8"/>
		<line class="st17" x1="23.1" y1="406.8" x2="23.1" y2="409.3"/>
		<g>
			<polygon class="st19" points="13.9,401.9 15.6,400.3 23.1,408.5 30.7,400.3 32.3,401.9 23.1,411.8 			"/>
		</g>
	</g>
</g>
<g>
	<g>
		<line class="st17" x1="1462.8" y1="258.2" x2="1462.8" y2="260.7"/>
		<path class="st31" d="M1462.8,265.6v62.6c0,7.8-6.4,14.2-14.2,14.2h-98.7c-7.8,0-14.2,6.4-14.2,14.2v47.8"/>
		<line class="st17" x1="1335.8" y1="406.8" x2="1335.8" y2="409.3"/>
		<g>
			<polygon class="st19" points="1326.6,401.9 1328.2,400.3 1335.8,408.5 1343.3,400.3 1345,401.9 1335.8,411.8 			"/>
		</g>
	</g>
</g>
<g>
	<g>
		<line class="st17" x1="1870.5" y1="258.2" x2="1870.5" y2="260.7"/>
		<path class="st32" d="M1870.5,265.7v62.5c0,7.8,6.4,14.2,14.2,14.2h114.5c7.8,0,14.2,6.4,14.2,14.2v47.8"/>
		<line class="st17" x1="2013.4" y1="406.8" x2="2013.4" y2="409.3"/>
		<g>
			<polygon class="st19" points="2004.2,401.9 2005.9,400.3 2013.4,408.5 2021,400.3 2022.6,401.9 2013.4,411.8 			"/>
		</g>
	</g>
</g>
<g>
	<g>
		<line class="st17" x1="2201.2" y1="258.2" x2="2201.2" y2="260.7"/>
		<path class="st33" d="M2201.2,265.7v62.5c0,7.8,6.4,14.2,14.2,14.2h182.9c7.8,0,14.2,6.4,14.2,14.2v47.8"/>
		<line class="st17" x1="2412.4" y1="406.8" x2="2412.4" y2="409.3"/>
		<g>
			<polygon class="st19" points="2403.2,401.9 2404.9,400.3 2412.4,408.5 2420,400.3 2421.6,401.9 2412.4,411.8 			"/>
		</g>
	</g>
</g>
<g>
	<g>
		<line class="st17" x1="2811.1" y1="258.2" x2="2811.1" y2="260.7"/>
		<path class="st34" d="M2811.1,265.7v62.5c0,7.8,6.4,14.2,14.2,14.2h527.3c7.8,0,14.2,6.4,14.2,14.2v47.8"/>
		<line class="st17" x1="3366.7" y1="406.8" x2="3366.7" y2="409.3"/>
		<g>
			<polygon class="st19" points="3357.5,401.9 3359.2,400.3 3366.7,408.5 3374.3,400.3 3375.9,401.9 3366.7,411.8 			"/>
		</g>
	</g>
</g>
<g>
	<g>
		<line class="st17" x1="3234.2" y1="238.7" x2="3234.2" y2="241.2"/>
		<path class="st35" d="M3234.2,246.2v65.1c0,7.8,6.4,14.2,14.2,14.2h739.7c7.8,0,14.2,6.4,14.2,14.2v64.7"/>
		<line class="st17" x1="4002.3" y1="406.8" x2="4002.3" y2="409.3"/>
		<g>
			<polygon class="st19" points="3993.1,401.9 3994.7,400.3 4002.3,408.5 4009.8,400.3 4011.5,401.9 4002.3,411.8 			"/>
		</g>
	</g>
</g>
<g>
	<g>
		<line class="st17" x1="4242.5" y1="258.2" x2="4242.5" y2="260.7"/>
		<path class="st36" d="M4242.5,265.7v62.5c0,7.8,6.4,14.2,14.2,14.2h643.9c7.8,0,14.2,6.4,14.2,14.2v47.8"/>
		<line class="st17" x1="4914.8" y1="406.8" x2="4914.8" y2="409.3"/>
		<g>
			<polygon class="st19" points="4905.6,401.9 4907.3,400.3 4914.8,408.5 4922.4,400.3 4924,401.9 4914.8,411.8 			"/>
		</g>
	</g>
</g>
<g>
	<g>
		<line class="st17" x1="4781.7" y1="221" x2="4781.7" y2="223.5"/>
		<path class="st37" d="M4781.7,228.5v82.8c0,7.8,6.4,14.2,14.2,14.2h1820.9c7.8,0,14.2,6.4,14.2,14.2v64.7"/>
		<line class="st17" x1="6631" y1="406.8" x2="6631" y2="409.3"/>
		<g>
			<polygon class="st19" points="6621.8,401.9 6623.4,400.3 6631,408.5 6638.5,400.3 6640.2,401.9 6631,411.8 			"/>
		</g>
	</g>
</g>
<g>
	<g>
		<line class="st17" x1="5296.1" y1="258.2" x2="5296.1" y2="260.7"/>
		<path class="st38" d="M5296.1,265.7v28.7c0,7.8,6.4,14.2,14.2,14.2h1346.4c7.8,0,14.2,6.4,14.2,14.2v81.6"/>
		<line class="st17" x1="6670.9" y1="406.8" x2="6670.9" y2="409.3"/>
		<g>
			<polygon class="st19" points="6661.7,401.9 6663.3,400.3 6670.9,408.5 6678.4,400.3 6680.1,401.9 6670.9,411.8 			"/>
		</g>
	</g>
</g>
<g>
	<g>
		<line class="st17" x1="5873.3" y1="258.2" x2="5873.3" y2="260.7"/>
		<path class="st39" d="M5873.3,265.7v11.8c0,7.8,6.4,14.2,14.2,14.2h847.3c7.8,0,14.2,6.4,14.2,14.2v98.5"/>
		<line class="st17" x1="6748.9" y1="406.8" x2="6748.9" y2="409.3"/>
		<g>
			<polygon class="st19" points="6739.7,401.9 6741.4,400.3 6748.9,408.5 6756.5,400.3 6758.1,401.9 6748.9,411.8 			"/>
		</g>
	</g>
</g>
<g>
	<g>
		<path class="st17" d="M6407.9,258.2c0,0,0,1,0,2.5"/>
		<path class="st40" d="M6407.9,265.7c0,0.3,0,0.5,0,0.8c0,4.6,6.4,8.3,14.2,8.3h392.3c7.8,0,14.2,6.4,14.2,14.2v115.4"/>
		<line class="st17" x1="6828.5" y1="406.8" x2="6828.5" y2="409.3"/>
		<g>
			<polygon class="st19" points="6819.3,401.9 6821,400.3 6828.5,408.5 6836.1,400.3 6837.7,401.9 6828.5,411.8 			"/>
		</g>
	</g>
</g>
<g>
	<g>
		<text transform="matrix(0 -1 1 0 32.1731 2165.2483)" class="st19 st41 st42">1850</text>
		<text transform="matrix(0 -1 1 0 72.3264 2161.0811)" class="st19 st41 st42">1851</text>
		<text transform="matrix(0 -1 1 0 112.0725 2164.2471)" class="st19 st41 st42">1852</text>
		<text transform="matrix(0 -1 1 0 151.8811 2164.1135)" class="st19 st41 st42">1853</text>
		<text transform="matrix(0 -1 1 0 191.679 2164.3672)" class="st19 st41 st42">1854</text>
		<text transform="matrix(0 -1 1 0 231.4827 2164.1155)" class="st19 st41 st42">1855</text>
		<text transform="matrix(0 -1 1 0 271.2854 2164.4805)" class="st19 st41 st42">1856</text>
		<text transform="matrix(0 -1 1 0 311.0872 2163.9888)" class="st19 st41 st42">1857</text>
		<text transform="matrix(0 -1 1 0 350.8899 2164.5259)" class="st19 st41 st42">1858</text>
		<text transform="matrix(0 -1 1 0 390.6926 2164.4719)" class="st19 st41 st42">1859</text>
		<text transform="matrix(0 -1 1 0 430.4905 2165.2454)" class="st19 st41 st42">1860</text>
		<text transform="matrix(0 -1 1 0 470.2942 2161.4429)" class="st19 st41 st42">1861</text>
		<text transform="matrix(0 -1 1 0 510.0999 2164.6228)" class="st19 st41 st42">1862</text>
		<text transform="matrix(0 -1 1 0 549.9065 2164.4814)" class="st19 st41 st42">1863</text>
		<text transform="matrix(0 -1 1 0 589.7014 2164.729)" class="st19 st41 st42">1864</text>
		<text transform="matrix(0 -1 1 0 629.5032 2164.4795)" class="st19 st41 st42">1865</text>
		<text transform="matrix(0 -1 1 0 669.3118 2164.8452)" class="st19 st41 st42">1866</text>
		<text transform="matrix(0 -1 1 0 709.1067 2164.3508)" class="st19 st41 st42">1867</text>
		<text transform="matrix(0 -1 1 0 748.9094 2164.8918)" class="st19 st41 st42">1868</text>
		<text transform="matrix(0 -1 1 0 788.7161 2164.8364)" class="st19 st41 st42">1869</text>
		<text transform="matrix(0 -1 1 0 828.4631 2164.7544)" class="st19 st41 st42">1870</text>
		<text transform="matrix(0 -1 1 0 868.26 2160.9563)" class="st19 st41 st42">1871</text>
		<text transform="matrix(0 -1 1 0 908.0637 2164.1284)" class="st19 st41 st42">1872</text>
		<text transform="matrix(0 -1 1 0 947.8665 2163.9858)" class="st19 st41 st42">1873</text>
		<text transform="matrix(0 -1 1 0 987.6672 2164.2424)" class="st19 st41 st42">1874</text>
		<text transform="matrix(0 -1 1 0 1027.468 2163.9868)" class="st19 st41 st42">1875</text>
		<text transform="matrix(0 -1 1 0 1067.2727 2164.3486)" class="st19 st41 st42">1876</text>
		<text transform="matrix(0 -1 1 0 1107.0715 2163.854)" class="st19 st41 st42">1877</text>
		<text transform="matrix(0 -1 1 0 1146.8772 2164.4043)" class="st19 st41 st42">1878</text>
		<text transform="matrix(0 -1 1 0 1186.679 2164.3567)" class="st19 st41 st42">1879</text>
		<text transform="matrix(0 -1 1 0 1226.4827 2165.3047)" class="st19 st41 st42">1880</text>
		<text transform="matrix(0 -1 1 0 1266.2795 2161.4995)" class="st19 st41 st42">1881</text>
		<text transform="matrix(0 -1 1 0 1306.0842 2164.6716)" class="st19 st41 st42">1882</text>
		<text transform="matrix(0 -1 1 0 1345.8831 2164.531)" class="st19 st41 st42">1883</text>
		<text transform="matrix(0 -1 1 0 1385.6877 2164.7847)" class="st19 st41 st42">1884</text>
		<text transform="matrix(0 -1 1 0 1425.4905 2164.5281)" class="st19 st41 st42">1885</text>
		<text transform="matrix(0 -1 1 0 1465.2922 2164.896)" class="st19 st41 st42">1886</text>
		<text transform="matrix(0 -1 1 0 1505.0959 2164.3972)" class="st19 st41 st42">1887</text>
		<text transform="matrix(0 -1 1 0 1544.844 2164.9399)" class="st19 st41 st42">1888</text>
		<text transform="matrix(0 -1 1 0 1584.6467 2164.8989)" class="st19 st41 st42">1889</text>
		<text transform="matrix(0 -1 1 0 1624.4436 2165.2539)" class="st19 st41 st42">1890</text>
		<text transform="matrix(0 -1 1 0 1664.2463 2161.4529)" class="st19 st41 st42">1891</text>
		<text transform="matrix(0 -1 1 0 1704.0491 2164.6169)" class="st19 st41 st42">1892</text>
		<text transform="matrix(0 -1 1 0 1743.8518 2164.4805)" class="st19 st41 st42">1893</text>
		<text transform="matrix(0 -1 1 0 1783.6555 2164.7244)" class="st19 st41 st42">1894</text>
		<text transform="matrix(0 -1 1 0 1823.4534 2164.4775)" class="st19 st41 st42">1895</text>
		<text transform="matrix(0 -1 1 0 1863.2571 2164.8411)" class="st19 st41 st42">1896</text>
		<text transform="matrix(0 -1 1 0 1903.0588 2164.3538)" class="st19 st41 st42">1897</text>
		<text transform="matrix(0 -1 1 0 1942.8606 2164.896)" class="st19 st41 st42">1898</text>
		<text transform="matrix(0 -1 1 0 1982.6624 2164.8481)" class="st19 st41 st42">1899</text>
		<text transform="matrix(0 -1 1 0 2022.468 2165.6091)" class="st19 st41 st42">1900</text>
		<text transform="matrix(0 -1 1 0 2062.2678 2161.8049)" class="st19 st41 st42">1901</text>
		<text transform="matrix(0 -1 1 0 2102.0647 2164.9749)" class="st19 st41 st42">1902</text>
		<text transform="matrix(0 -1 1 0 2141.8723 2164.8325)" class="st19 st41 st42">1903</text>
		<text transform="matrix(0 -1 1 0 2181.675 2165.082)" class="st19 st41 st42">1904</text>
		<text transform="matrix(0 -1 1 0 2221.4758 2164.8325)" class="st19 st41 st42">1905</text>
		<text transform="matrix(0 -1 1 0 2261.2766 2165.2063)" class="st19 st41 st42">1906</text>
		<text transform="matrix(0 -1 1 0 2301.0286 2164.7017)" class="st19 st41 st42">1907</text>
		<text transform="matrix(0 -1 1 0 2340.8254 2165.2468)" class="st19 st41 st42">1908</text>
		<text transform="matrix(0 -1 1 0 2380.6311 2165.2004)" class="st19 st41 st42">1909</text>
		<text transform="matrix(0 -1 1 0 2420.4348 2161.802)" class="st19 st41 st42">1910</text>
		<text transform="matrix(0 -1 1 0 2460.2336 2157.9978)" class="st19 st41 st42">1911</text>
		<text transform="matrix(0 -1 1 0 2500.0374 2161.1611)" class="st19 st41 st42">1912</text>
		<text transform="matrix(0 -1 1 0 2539.8323 2161.0242)" class="st19 st41 st42">1913</text>
		<text transform="matrix(0 -1 1 0 2579.6331 2161.2751)" class="st19 st41 st42">1914</text>
		<text transform="matrix(0 -1 1 0 2619.4397 2161.0312)" class="st19 st41 st42">1915</text>
		<text transform="matrix(0 -1 1 0 2659.2375 2161.3962)" class="st19 st41 st42">1916</text>
		<text transform="matrix(0 -1 1 0 2699.0413 2160.9045)" class="st19 st41 st42">1917</text>
		<text transform="matrix(0 -1 1 0 2738.8469 2161.45)" class="st19 st41 st42">1918</text>
		<text transform="matrix(0 -1 1 0 2778.6526 2161.3992)" class="st19 st41 st42">1919</text>
		<text transform="matrix(0 -1 1 0 2818.4446 2164.9719)" class="st19 st41 st42">1920</text>
		<text transform="matrix(0 -1 1 0 2858.2493 2161.1638)" class="st19 st41 st42">1921</text>
		<text transform="matrix(0 -1 1 0 2898.0481 2164.3311)" class="st19 st41 st42">1922</text>
		<text transform="matrix(0 -1 1 0 2937.8518 2164.2014)" class="st19 st41 st42">1923</text>
		<text transform="matrix(0 -1 1 0 2977.6516 2164.4521)" class="st19 st41 st42">1924</text>
		<text transform="matrix(0 -1 1 0 3017.4094 2164.2014)" class="st19 st41 st42">1925</text>
		<text transform="matrix(0 -1 1 0 3057.2083 2164.5664)" class="st19 st41 st42">1926</text>
		<text transform="matrix(0 -1 1 0 3097.0042 2164.0718)" class="st19 st41 st42">1927</text>
		<text transform="matrix(0 -1 1 0 3136.8118 2164.6169)" class="st19 st41 st42">1928</text>
		<text transform="matrix(0 -1 1 0 3176.6018 2164.5664)" class="st19 st41 st42">1929</text>
		<text transform="matrix(0 -1 1 0 3216.4211 2164.8257)" class="st19 st41 st42">1930</text>
		<text transform="matrix(0 -1 1 0 3256.219 2161.0242)" class="st19 st41 st42">1931</text>
		<text transform="matrix(0 -1 1 0 3296.0237 2164.2014)" class="st19 st41 st42">1932</text>
		<text transform="matrix(0 -1 1 0 3335.8167 2164.0591)" class="st19 st41 st42">1933</text>
		<text transform="matrix(0 -1 1 0 3375.6292 2164.3127)" class="st19 st41 st42">1934</text>
		<text transform="matrix(0 -1 1 0 3415.4202 2164.0591)" class="st19 st41 st42">1935</text>
		<text transform="matrix(0 -1 1 0 3455.2317 2164.4297)" class="st19 st41 st42">1936</text>
		<text transform="matrix(0 -1 1 0 3495.0295 2163.9351)" class="st19 st41 st42">1937</text>
		<text transform="matrix(0 -1 1 0 3534.8293 2164.4775)" class="st19 st41 st42">1938</text>
		<text transform="matrix(0 -1 1 0 3574.634 2164.4226)" class="st19 st41 st42">1939</text>
		<text transform="matrix(0 -1 1 0 3614.4329 2165.082)" class="st19 st41 st42">1940</text>
		<text transform="matrix(0 -1 1 0 3654.2375 2161.282)" class="st19 st41 st42">1941</text>
		<text transform="matrix(0 -1 1 0 3694.0403 2164.4551)" class="st19 st41 st42">1942</text>
		<text transform="matrix(0 -1 1 0 3733.842 2164.3157)" class="st19 st41 st42">1943</text>
		<text transform="matrix(0 -1 1 0 3773.5862 2164.5664)" class="st19 st41 st42">1944</text>
		<text transform="matrix(0 -1 1 0 3813.3831 2164.3157)" class="st19 st41 st42">1945</text>
		<text transform="matrix(0 -1 1 0 3853.1887 2164.6863)" class="st19 st41 st42">1946</text>
		<text transform="matrix(0 -1 1 0 3892.9944 2164.1792)" class="st19 st41 st42">1947</text>
		<text transform="matrix(0 -1 1 0 3932.8 2164.7341)" class="st19 st41 st42">1948</text>
		<text transform="matrix(0 -1 1 0 3972.5989 2164.6863)" class="st19 st41 st42">1949</text>
		<text transform="matrix(0 -1 1 0 4012.4026 2164.8354)" class="st19 st41 st42">1950</text>
		<text transform="matrix(0 -1 1 0 4052.2024 2161.0342)" class="st19 st41 st42">1951</text>
		<text transform="matrix(0 -1 1 0 4092.0012 2164.2014)" class="st19 st41 st42">1952</text>
		<text transform="matrix(0 -1 1 0 4131.8042 2164.062)" class="st19 st41 st42">1953</text>
		<text transform="matrix(0 -1 1 0 4171.604 2164.3157)" class="st19 st41 st42">1954</text>
		<text transform="matrix(0 -1 1 0 4211.4155 2164.0522)" class="st19 st41 st42">1955</text>
		<text transform="matrix(0 -1 1 0 4251.2144 2164.4268)" class="st19 st41 st42">1956</text>
		<text transform="matrix(0 -1 1 0 4291.0122 2163.938)" class="st19 st41 st42">1957</text>
		<text transform="matrix(0 -1 1 0 4330.8179 2164.4907)" class="st19 st41 st42">1958</text>
		<text transform="matrix(0 -1 1 0 4370.6235 2164.4326)" class="st19 st41 st42">1959</text>
		<text transform="matrix(0 -1 1 0 4410.4214 2165.2034)" class="st19 st41 st42">1960</text>
		<text transform="matrix(0 -1 1 0 4450.2271 2161.4021)" class="st19 st41 st42">1961</text>
		<text transform="matrix(0 -1 1 0 4489.9702 2164.5664)" class="st19 st41 st42">1962</text>
		<text transform="matrix(0 -1 1 0 4529.7622 2164.4268)" class="st19 st41 st42">1963</text>
		<text transform="matrix(0 -1 1 0 4569.5806 2164.6763)" class="st19 st41 st42">1964</text>
		<text transform="matrix(0 -1 1 0 4609.3794 2164.4226)" class="st19 st41 st42">1965</text>
		<text transform="matrix(0 -1 1 0 4649.1763 2164.7878)" class="st19 st41 st42">1966</text>
		<text transform="matrix(0 -1 1 0 4688.9819 2164.303)" class="st19 st41 st42">1967</text>
		<text transform="matrix(0 -1 1 0 4728.7798 2164.8452)" class="st19 st41 st42">1968</text>
		<text transform="matrix(0 -1 1 0 4768.5845 2164.7976)" class="st19 st41 st42">1969</text>
		<text transform="matrix(0 -1 1 0 4808.3911 2164.7087)" class="st19 st41 st42">1970</text>
		<text transform="matrix(0 -1 1 0 4848.189 2160.9045)" class="st19 st41 st42">1971</text>
		<text transform="matrix(0 -1 1 0 4887.9878 2164.0649)" class="st19 st41 st42">1972</text>
		<text transform="matrix(0 -1 1 0 4927.7925 2163.9253)" class="st19 st41 st42">1973</text>
		<text transform="matrix(0 -1 1 0 4967.5903 2164.1816)" class="st19 st41 st42">1974</text>
		<text transform="matrix(0 -1 1 0 5007.397 2163.9351)" class="st19 st41 st42">1975</text>
		<text transform="matrix(0 -1 1 0 5047.1968 2164.3)" class="st19 st41 st42">1976</text>
		<text transform="matrix(0 -1 1 0 5086.9985 2163.8054)" class="st19 st41 st42">1977</text>
		<text transform="matrix(0 -1 1 0 5126.7993 2164.3508)" class="st19 st41 st42">1978</text>
		<text transform="matrix(0 -1 1 0 5166.5952 2164.3)" class="st19 st41 st42">1979</text>
		<text transform="matrix(0 -1 1 0 5206.4097 2165.2539)" class="st19 st41 st42">1980</text>
		<text transform="matrix(0 -1 1 0 5246.1528 2161.45)" class="st19 st41 st42">1981</text>
		<text transform="matrix(0 -1 1 0 5285.9595 2164.6101)" class="st19 st41 st42">1982</text>
		<text transform="matrix(0 -1 1 0 5325.7573 2164.4775)" class="st19 st41 st42">1983</text>
		<text transform="matrix(0 -1 1 0 5365.5571 2164.7312)" class="st19 st41 st42">1984</text>
		<text transform="matrix(0 -1 1 0 5405.3618 2164.4805)" class="st19 st41 st42">1985</text>
		<text transform="matrix(0 -1 1 0 5445.1646 2164.8452)" class="st19 st41 st42">1986</text>
		<text transform="matrix(0 -1 1 0 5484.9712 2164.3508)" class="st19 st41 st42">1987</text>
		<text transform="matrix(0 -1 1 0 5524.7622 2164.896)" class="st19 st41 st42">1988</text>
		<text transform="matrix(0 -1 1 0 5564.5688 2164.8481)" class="st19 st41 st42">1989</text>
		<text transform="matrix(0 -1 1 0 5604.3745 2165.1963)" class="st19 st41 st42">1990</text>
		<text transform="matrix(0 -1 1 0 5644.1772 2161.3921)" class="st19 st41 st42">1991</text>
		<text transform="matrix(0 -1 1 0 5683.9771 2164.5596)" class="st19 st41 st42">1992</text>
		<text transform="matrix(0 -1 1 0 5723.7808 2164.4268)" class="st19 st41 st42">1993</text>
		<text transform="matrix(0 -1 1 0 5763.5864 2164.6833)" class="st19 st41 st42">1994</text>
		<text transform="matrix(0 -1 1 0 5803.3765 2164.4268)" class="st19 st41 st42">1995</text>
		<text transform="matrix(0 -1 1 0 5843.1899 2164.7976)" class="st19 st41 st42">1996</text>
		<text transform="matrix(0 -1 1 0 5882.9897 2164.303)" class="st19 st41 st42">1997</text>
		<text transform="matrix(0 -1 1 0 5922.7837 2164.8481)" class="st19 st41 st42">1998</text>
		<text transform="matrix(0 -1 1 0 5962.5308 2164.7947)" class="st19 st41 st42">1999</text>
		<text transform="matrix(0 -1 1 0 6002.3433 2169.1777)" class="st19 st41 st42">2000</text>
		<text transform="matrix(0 -1 1 0 6042.1353 2165.3708)" class="st19 st41 st42">2001</text>
		<text transform="matrix(0 -1 1 0 6081.9458 2168.5437)" class="st19 st41 st42">2002</text>
		<text transform="matrix(0 -1 1 0 6121.7368 2168.4084)" class="st19 st41 st42">2003</text>
		<text transform="matrix(0 -1 1 0 6161.5435 2168.6621)" class="st19 st41 st42">2004</text>
		<text transform="matrix(0 -1 1 0 6201.3472 2168.4084)" class="st19 st41 st42">2005</text>
		<text transform="matrix(0 -1 1 0 6241.147 2168.7791)" class="st19 st41 st42">2006</text>
		<text transform="matrix(0 -1 1 0 6280.9507 2168.2847)" class="st19 st41 st42">2007</text>
		<text transform="matrix(0 -1 1 0 6320.7573 2168.8201)" class="st19 st41 st42">2008</text>
		<text transform="matrix(0 -1 1 0 6360.5571 2168.7761)" class="st19 st41 st42">2009</text>
		<text transform="matrix(0 -1 1 0 6400.3599 2165.3735)" class="st19 st41 st42">2010</text>
		<text transform="matrix(0 -1 1 0 6440.1587 2161.5767)" class="st19 st41 st42">2011</text>
		<text transform="matrix(0 -1 1 0 6479.9692 2164.7466)" class="st19 st41 st42">2012</text>
		<text transform="matrix(0 -1 1 0 6519.77 2164.6072)" class="st19 st41 st42">2013</text>
		<text transform="matrix(0 -1 1 0 6559.562 2164.8579)" class="st19 st41 st42">2014</text>
		<text transform="matrix(0 -1 1 0 6599.3589 2164.6042)" class="st19 st41 st42">2015</text>
		<text transform="matrix(0 -1 1 0 6639.1772 2164.9678)" class="st19 st41 st42">2016</text>
		<text transform="matrix(0 -1 1 0 6678.9751 2164.4734)" class="st19 st41 st42">2017</text>
		<text transform="matrix(0 -1 1 0 6718.728 2165.0186)" class="st19 st41 st42">2018</text>
		<text transform="matrix(0 -1 1 0 6758.52 2164.9651)" class="st19 st41 st42">2019</text>
		<text transform="matrix(0 -1 1 0 6798.3179 2168.5437)" class="st19 st41 st42">2020</text>
		<text transform="matrix(0 -1 1 0 6838.1294 2164.7437)" class="st19 st41 st42">2021</text>
		<text transform="matrix(0 -1 1 0 6877.5718 2168.2769)" class="st19 st41 st42">2022</text>
	</g>
</g>
<g>
	<polygon class="st19" points="16,2087.7 22.4,2078.3 28.9,2087.7 	"/>
	<polygon class="st19" points="55.8,2087.7 62.2,2078.3 68.7,2087.7 	"/>
	<polygon class="st19" points="95.6,2087.7 102,2078.3 108.5,2087.7 	"/>
	<polygon class="st19" points="135.4,2087.7 141.8,2078.3 148.3,2087.7 	"/>
	<polygon class="st19" points="175.2,2087.7 181.6,2078.3 188.1,2087.7 	"/>
	<polygon class="st19" points="215,2087.7 221.4,2078.3 227.9,2087.7 	"/>
	<polygon class="st19" points="254.8,2087.7 261.2,2078.3 267.7,2087.7 	"/>
	<polygon class="st19" points="294.6,2087.7 301,2078.3 307.5,2087.7 	"/>
	<polygon class="st19" points="334.4,2087.7 340.8,2078.3 347.3,2087.7 	"/>
	<polygon class="st19" points="374.2,2087.7 380.6,2078.3 387.1,2087.7 	"/>
	<polygon class="st19" points="414,2087.7 420.4,2078.3 426.9,2087.7 	"/>
	<polygon class="st19" points="453.8,2087.7 460.3,2078.3 466.7,2087.7 	"/>
	<polygon class="st19" points="493.6,2087.7 500.1,2078.3 506.5,2087.7 	"/>
	<polygon class="st19" points="533.4,2087.7 539.9,2078.3 546.3,2087.7 	"/>
	<polygon class="st19" points="573.2,2087.7 579.7,2078.3 586.1,2087.7 	"/>
	<polygon class="st19" points="613,2087.7 619.5,2078.3 625.9,2087.7 	"/>
	<polygon class="st19" points="652.8,2087.7 659.3,2078.3 665.7,2087.7 	"/>
	<polygon class="st19" points="692.6,2087.7 699.1,2078.3 705.5,2087.7 	"/>
	<polygon class="st19" points="732.4,2087.7 738.9,2078.3 745.3,2087.7 	"/>
	<polygon class="st19" points="772.2,2087.7 778.7,2078.3 785.1,2087.7 	"/>
	<polygon class="st19" points="812,2087.7 818.5,2078.3 824.9,2087.7 	"/>
	<polygon class="st19" points="851.8,2087.7 858.3,2078.3 864.7,2087.7 	"/>
	<polygon class="st19" points="891.6,2087.7 898.1,2078.3 904.5,2087.7 	"/>
	<polygon class="st19" points="931.4,2087.7 937.9,2078.3 944.4,2087.7 	"/>
	<polygon class="st19" points="971.2,2087.7 977.7,2078.3 984.2,2087.7 	"/>
	<polygon class="st19" points="1011,2087.7 1017.5,2078.3 1024,2087.7 	"/>
	<polygon class="st19" points="1050.8,2087.7 1057.3,2078.3 1063.8,2087.7 	"/>
	<polygon class="st19" points="1090.6,2087.7 1097.1,2078.3 1103.6,2087.7 	"/>
	<polygon class="st19" points="1130.4,2087.7 1136.9,2078.3 1143.4,2087.7 	"/>
	<polygon class="st19" points="1170.2,2087.7 1176.7,2078.3 1183.2,2087.7 	"/>
	<polygon class="st19" points="1210,2087.7 1216.5,2078.3 1223,2087.7 	"/>
	<polygon class="st19" points="1249.8,2087.7 1256.3,2078.3 1262.8,2087.7 	"/>
	<polygon class="st19" points="1289.6,2087.7 1296.1,2078.3 1302.6,2087.7 	"/>
	<polygon class="st19" points="1329.4,2087.7 1335.9,2078.3 1342.4,2087.7 	"/>
	<polygon class="st19" points="1369.2,2087.7 1375.7,2078.3 1382.2,2087.7 	"/>
	<polygon class="st19" points="1409,2087.7 1415.5,2078.3 1422,2087.7 	"/>
	<polygon class="st19" points="1448.8,2087.7 1455.3,2078.3 1461.8,2087.7 	"/>
	<polygon class="st19" points="1488.6,2087.7 1495.1,2078.3 1501.6,2087.7 	"/>
	<polygon class="st19" points="1528.5,2087.7 1534.9,2078.3 1541.4,2087.7 	"/>
	<polygon class="st19" points="1568.3,2087.7 1574.7,2078.3 1581.2,2087.7 	"/>
	<polygon class="st19" points="1608.1,2087.7 1614.5,2078.3 1621,2087.7 	"/>
	<polygon class="st19" points="1647.9,2087.7 1654.3,2078.3 1660.8,2087.7 	"/>
	<polygon class="st19" points="1687.7,2087.7 1694.1,2078.3 1700.6,2087.7 	"/>
	<polygon class="st19" points="1727.5,2087.7 1733.9,2078.3 1740.4,2087.7 	"/>
	<polygon class="st19" points="1767.3,2087.7 1773.7,2078.3 1780.2,2087.7 	"/>
	<polygon class="st19" points="1807.1,2087.7 1813.5,2078.3 1820,2087.7 	"/>
	<polygon class="st19" points="1846.9,2087.7 1853.3,2078.3 1859.8,2087.7 	"/>
	<polygon class="st19" points="1886.7,2087.7 1893.1,2078.3 1899.6,2087.7 	"/>
	<polygon class="st19" points="1926.5,2087.7 1932.9,2078.3 1939.4,2087.7 	"/>
	<polygon class="st19" points="1966.3,2087.7 1972.7,2078.3 1979.2,2087.7 	"/>
	<polygon class="st19" points="2006.1,2087.7 2012.6,2078.3 2019,2087.7 	"/>
	<polygon class="st19" points="2045.9,2087.7 2052.4,2078.3 2058.8,2087.7 	"/>
	<polygon class="st19" points="2085.7,2087.7 2092.2,2078.3 2098.6,2087.7 	"/>
	<polygon class="st19" points="2125.5,2087.7 2132,2078.3 2138.4,2087.7 	"/>
	<polygon class="st19" points="2165.3,2087.7 2171.8,2078.3 2178.2,2087.7 	"/>
	<polygon class="st19" points="2205.1,2087.7 2211.6,2078.3 2218,2087.7 	"/>
	<polygon class="st19" points="2244.9,2087.7 2251.4,2078.3 2257.8,2087.7 	"/>
	<polygon class="st19" points="2284.7,2087.7 2291.2,2078.3 2297.6,2087.7 	"/>
	<polygon class="st19" points="2324.5,2087.7 2331,2078.3 2337.4,2087.7 	"/>
	<polygon class="st19" points="2364.3,2087.7 2370.8,2078.3 2377.2,2087.7 	"/>
	<polygon class="st19" points="2404.1,2087.7 2410.6,2078.3 2417,2087.7 	"/>
	<polygon class="st19" points="2443.9,2087.7 2450.4,2078.3 2456.8,2087.7 	"/>
	<polygon class="st19" points="2483.7,2087.7 2490.2,2078.3 2496.7,2087.7 	"/>
	<polygon class="st19" points="2523.5,2087.7 2530,2078.3 2536.5,2087.7 	"/>
	<polygon class="st19" points="2563.3,2087.7 2569.8,2078.3 2576.3,2087.7 	"/>
	<polygon class="st19" points="2603.1,2087.7 2609.6,2078.3 2616.1,2087.7 	"/>
	<polygon class="st19" points="2642.9,2087.7 2649.4,2078.3 2655.9,2087.7 	"/>
	<polygon class="st19" points="2682.7,2087.7 2689.2,2078.3 2695.7,2087.7 	"/>
	<polygon class="st19" points="2722.5,2087.7 2729,2078.3 2735.5,2087.7 	"/>
	<polygon class="st19" points="2762.3,2087.7 2768.8,2078.3 2775.3,2087.7 	"/>
	<polygon class="st19" points="2802.1,2087.7 2808.6,2078.3 2815.1,2087.7 	"/>
	<polygon class="st19" points="2841.9,2087.7 2848.4,2078.3 2854.9,2087.7 	"/>
	<polygon class="st19" points="2881.7,2087.7 2888.2,2078.3 2894.7,2087.7 	"/>
	<polygon class="st19" points="2921.5,2087.7 2928,2078.3 2934.5,2087.7 	"/>
	<polygon class="st19" points="2961.3,2087.7 2967.8,2078.3 2974.3,2087.7 	"/>
	<polygon class="st19" points="3001.1,2087.7 3007.6,2078.3 3014.1,2087.7 	"/>
	<polygon class="st19" points="3040.9,2087.7 3047.4,2078.3 3053.9,2087.7 	"/>
	<polygon class="st19" points="3080.8,2087.7 3087.2,2078.3 3093.7,2087.7 	"/>
	<polygon class="st19" points="3120.6,2087.7 3127,2078.3 3133.5,2087.7 	"/>
	<polygon class="st19" points="3160.4,2087.7 3166.8,2078.3 3173.3,2087.7 	"/>
	<polygon class="st19" points="3200.2,2087.7 3206.6,2078.3 3213.1,2087.7 	"/>
	<polygon class="st19" points="3240,2087.7 3246.4,2078.3 3252.9,2087.7 	"/>
	<polygon class="st19" points="3279.8,2087.7 3286.2,2078.3 3292.7,2087.7 	"/>
	<polygon class="st19" points="3319.6,2087.7 3326,2078.3 3332.5,2087.7 	"/>
	<polygon class="st19" points="3359.4,2087.7 3365.8,2078.3 3372.3,2087.7 	"/>
	<polygon class="st19" points="3399.2,2087.7 3405.6,2078.3 3412.1,2087.7 	"/>
	<polygon class="st19" points="3439,2087.7 3445.4,2078.3 3451.9,2087.7 	"/>
	<polygon class="st19" points="3478.8,2087.7 3485.2,2078.3 3491.7,2087.7 	"/>
	<polygon class="st19" points="3518.6,2087.7 3525,2078.3 3531.5,2087.7 	"/>
	<polygon class="st19" points="3558.4,2087.7 3564.9,2078.3 3571.3,2087.7 	"/>
	<polygon class="st19" points="3598.2,2087.7 3604.7,2078.3 3611.1,2087.7 	"/>
	<polygon class="st19" points="3638,2087.7 3644.5,2078.3 3650.9,2087.7 	"/>
	<polygon class="st19" points="3677.8,2087.7 3684.3,2078.3 3690.7,2087.7 	"/>
	<polygon class="st19" points="3717.6,2087.7 3724.1,2078.3 3730.5,2087.7 	"/>
	<polygon class="st19" points="3757.4,2087.7 3763.9,2078.3 3770.3,2087.7 	"/>
	<polygon class="st19" points="3797.2,2087.7 3803.7,2078.3 3810.1,2087.7 	"/>
	<polygon class="st19" points="3837,2087.7 3843.5,2078.3 3849.9,2087.7 	"/>
	<polygon class="st19" points="3876.8,2087.7 3883.3,2078.3 3889.7,2087.7 	"/>
	<polygon class="st19" points="3916.6,2087.7 3923.1,2078.3 3929.5,2087.7 	"/>
	<polygon class="st19" points="3956.4,2087.7 3962.9,2078.3 3969.3,2087.7 	"/>
	<polygon class="st19" points="3996.2,2087.7 4002.7,2078.3 4009.1,2087.7 	"/>
	<polygon class="st19" points="4036,2087.7 4042.5,2078.3 4049,2087.7 	"/>
	<polygon class="st19" points="4075.8,2087.7 4082.3,2078.3 4088.8,2087.7 	"/>
	<polygon class="st19" points="4115.6,2087.7 4122.1,2078.3 4128.6,2087.7 	"/>
	<polygon class="st19" points="4155.4,2087.7 4161.9,2078.3 4168.4,2087.7 	"/>
	<polygon class="st19" points="4195.2,2087.7 4201.7,2078.3 4208.2,2087.7 	"/>
	<polygon class="st19" points="4235,2087.7 4241.5,2078.3 4248,2087.7 	"/>
	<polygon class="st19" points="4274.8,2087.7 4281.3,2078.3 4287.8,2087.7 	"/>
	<polygon class="st19" points="4314.6,2087.7 4321.1,2078.3 4327.6,2087.7 	"/>
	<polygon class="st19" points="4354.4,2087.7 4360.9,2078.3 4367.4,2087.7 	"/>
	<polygon class="st19" points="4394.2,2087.7 4400.7,2078.3 4407.2,2087.7 	"/>
	<polygon class="st19" points="4434,2087.7 4440.5,2078.3 4447,2087.7 	"/>
	<polygon class="st19" points="4473.8,2087.7 4480.3,2078.3 4486.8,2087.7 	"/>
	<polygon class="st19" points="4513.6,2087.7 4520.1,2078.3 4526.6,2087.7 	"/>
	<polygon class="st19" points="4553.4,2087.7 4559.9,2078.3 4566.4,2087.7 	"/>
	<polygon class="st19" points="4593.2,2087.7 4599.7,2078.3 4606.2,2087.7 	"/>
	<polygon class="st19" points="4633.1,2087.7 4639.5,2078.3 4646,2087.7 	"/>
	<polygon class="st19" points="4672.9,2087.7 4679.3,2078.3 4685.8,2087.7 	"/>
	<polygon class="st19" points="4712.7,2087.7 4719.1,2078.3 4725.6,2087.7 	"/>
	<polygon class="st19" points="4752.5,2087.7 4758.9,2078.3 4765.4,2087.7 	"/>
	<polygon class="st19" points="4792.3,2087.7 4798.7,2078.3 4805.2,2087.7 	"/>
	<polygon class="st19" points="4832.1,2087.7 4838.5,2078.3 4845,2087.7 	"/>
	<polygon class="st19" points="4871.9,2087.7 4878.3,2078.3 4884.8,2087.7 	"/>
	<polygon class="st19" points="4911.7,2087.7 4918.1,2078.3 4924.6,2087.7 	"/>
	<polygon class="st19" points="4951.5,2087.7 4957.9,2078.3 4964.4,2087.7 	"/>
	<polygon class="st19" points="4991.3,2087.7 4997.7,2078.3 5004.2,2087.7 	"/>
	<polygon class="st19" points="5031.1,2087.7 5037.5,2078.3 5044,2087.7 	"/>
	<polygon class="st19" points="5070.9,2087.7 5077.3,2078.3 5083.8,2087.7 	"/>
	<polygon class="st19" points="5110.7,2087.7 5117.2,2078.3 5123.6,2087.7 	"/>
	<polygon class="st19" points="5150.5,2087.7 5157,2078.3 5163.4,2087.7 	"/>
	<polygon class="st19" points="5190.3,2087.7 5196.8,2078.3 5203.2,2087.7 	"/>
	<polygon class="st19" points="5230.1,2087.7 5236.6,2078.3 5243,2087.7 	"/>
	<polygon class="st19" points="5269.9,2087.7 5276.4,2078.3 5282.8,2087.7 	"/>
	<polygon class="st19" points="5309.7,2087.7 5316.2,2078.3 5322.6,2087.7 	"/>
	<polygon class="st19" points="5349.5,2087.7 5356,2078.3 5362.4,2087.7 	"/>
	<polygon class="st19" points="5389.3,2087.7 5395.8,2078.3 5402.2,2087.7 	"/>
	<polygon class="st19" points="5429.1,2087.7 5435.6,2078.3 5442,2087.7 	"/>
	<polygon class="st19" points="5468.9,2087.7 5475.4,2078.3 5481.8,2087.7 	"/>
	<polygon class="st19" points="5508.7,2087.7 5515.2,2078.3 5521.6,2087.7 	"/>
	<polygon class="st19" points="5548.5,2087.7 5555,2078.3 5561.4,2087.7 	"/>
	<polygon class="st19" points="5588.3,2087.7 5594.8,2078.3 5601.2,2087.7 	"/>
	<polygon class="st19" points="5628.1,2087.7 5634.6,2078.3 5641.1,2087.7 	"/>
	<polygon class="st19" points="5667.9,2087.7 5674.4,2078.3 5680.9,2087.7 	"/>
	<polygon class="st19" points="5707.7,2087.7 5714.2,2078.3 5720.7,2087.7 	"/>
	<polygon class="st19" points="5747.5,2087.7 5754,2078.3 5760.5,2087.7 	"/>
	<polygon class="st19" points="5787.3,2087.7 5793.8,2078.3 5800.3,2087.7 	"/>
	<polygon class="st19" points="5827.1,2087.7 5833.6,2078.3 5840.1,2087.7 	"/>
	<polygon class="st19" points="5866.9,2087.7 5873.4,2078.3 5879.9,2087.7 	"/>
	<polygon class="st19" points="5906.7,2087.7 5913.2,2078.3 5919.7,2087.7 	"/>
	<polygon class="st19" points="5946.5,2087.7 5953,2078.3 5959.5,2087.7 	"/>
	<polygon class="st19" points="5986.3,2087.7 5992.8,2078.3 5999.3,2087.7 	"/>
	<polygon class="st19" points="6026.1,2087.7 6032.6,2078.3 6039.1,2087.7 	"/>
	<polygon class="st19" points="6065.9,2087.7 6072.4,2078.3 6078.9,2087.7 	"/>
	<polygon class="st19" points="6105.7,2087.7 6112.2,2078.3 6118.7,2087.7 	"/>
	<polygon class="st19" points="6145.5,2087.7 6152,2078.3 6158.5,2087.7 	"/>
	<polygon class="st19" points="6185.4,2087.7 6191.8,2078.3 6198.3,2087.7 	"/>
	<polygon class="st19" points="6225.2,2087.7 6231.6,2078.3 6238.1,2087.7 	"/>
	<polygon class="st19" points="6265,2087.7 6271.4,2078.3 6277.9,2087.7 	"/>
	<polygon class="st19" points="6304.8,2087.7 6311.2,2078.3 6317.7,2087.7 	"/>
	<polygon class="st19" points="6344.6,2087.7 6351,2078.3 6357.5,2087.7 	"/>
	<polygon class="st19" points="6384.4,2087.7 6390.8,2078.3 6397.3,2087.7 	"/>
	<polygon class="st19" points="6424.2,2087.7 6430.6,2078.3 6437.1,2087.7 	"/>
	<polygon class="st19" points="6464,2087.7 6470.4,2078.3 6476.9,2087.7 	"/>
	<polygon class="st19" points="6503.8,2087.7 6510.2,2078.3 6516.7,2087.7 	"/>
	<polygon class="st19" points="6543.6,2087.7 6550,2078.3 6556.5,2087.7 	"/>
	<polygon class="st19" points="6583.4,2087.7 6589.8,2078.3 6596.3,2087.7 	"/>
	<polygon class="st19" points="6623.2,2087.7 6629.6,2078.3 6636.1,2087.7 	"/>
	<polygon class="st19" points="6663,2087.7 6669.4,2078.3 6675.9,2087.7 	"/>
	<polygon class="st19" points="6702.8,2087.7 6709.3,2078.3 6715.7,2087.7 	"/>
	<polygon class="st19" points="6742.6,2087.7 6749.1,2078.3 6755.5,2087.7 	"/>
	<polygon class="st19" points="6782.4,2087.7 6788.9,2078.3 6795.3,2087.7 	"/>
	<polygon class="st19" points="6822.2,2087.7 6828.7,2078.3 6835.1,2087.7 	"/>
	<polygon class="st19" points="6862,2087.7 6868.5,2078.3 6874.9,2087.7 	"/>
</g>
<rect x="5.4" y="2375.1" class="st43" width="204.2" height="320"/>
<text transform="matrix(1 0 0 1 5.4006 2404.0134)"><tspan x="0" y="0" class="st19 st44 st45">1863</tspan><tspan x="0" y="62.5" class="st19 st46 st47">Se inaugura </tspan><tspan x="0" y="103.8" class="st19 st46 st47">el tren entre </tspan><tspan x="0" y="145.2" class="st19 st46 st47">Santiago y </tspan><tspan x="0" y="186.5" class="st19 st46 st47">Valparaso</tspan></text>
<rect x="122.9" y="5.2" class="st43" width="499" height="320"/>
<text transform="matrix(1 0 0 1 122.8948 34.1082)"><tspan x="0" y="0" class="st19 st44 st45">1850</tspan><tspan x="0" y="62.5" class="st19 st46 st47">Desde este ao aumentaron en </tspan><tspan x="0" y="103.8" class="st19 st46 st47">un 48% las emisiones de dixido </tspan><tspan x="0" y="145.2" class="st19 st46 st47">de carbono, producto de la </tspan><tspan x="0" y="186.5" class="st19 st46 st47">actividad humana</tspan></text>
<rect x="448.8" y="2375.1" class="st43" width="226.7" height="320"/>
<text transform="matrix(1 0 0 1 448.8225 2404.0134)"><tspan x="0" y="0" class="st19 st44 st45">1884</tspan><tspan x="0" y="62.5" class="st19 st46 st47">Se crea la </tspan><tspan x="0" y="103.8" class="st19 st46 st47">empresa de </tspan><tspan x="0" y="145.2" class="st19 st46 st47">ferrocarriles </tspan><tspan x="0" y="186.5" class="st19 st46 st47">del Estado</tspan></text>
<rect x="876.2" y="2375.1" class="st43" width="360" height="320"/>
<text transform="matrix(1 0 0 1 876.2053 2404.0134)"><tspan x="0" y="0" class="st19 st44 st45">1907</tspan><tspan x="0" y="62.5" class="st19 st46 st47">Se realiza el VIII censo </tspan><tspan x="0" y="103.8" class="st19 st46 st47">de poblacin, el que </tspan><tspan x="0" y="145.2" class="st19 st46 st47">arroja 3.231.022 </tspan><tspan x="0" y="186.5" class="st19 st46 st47">habitantes, Chile</tspan></text>
<rect x="2084.7" y="2375.1" class="st43" width="503.8" height="320"/>
<text transform="matrix(1 0 0 1 2084.7278 2404.0134)"><tspan x="0" y="0" class="st19 st44 st45">1920</tspan><tspan x="0" y="62.5" class="st19 st46 st47">Se realiza el IX censo de </tspan><tspan x="0" y="103.8" class="st19 st46 st47">poblacin. Sus resultados </tspan><tspan x="0" y="145.2" class="st19 st46 st47">indican que la poblacin de  </tspan><tspan x="0" y="186.5" class="st19 st46 st47">Chile es de 3.720.235 </tspan><tspan x="0" y="227.8" class="st19 st46 st47">habitantes</tspan></text>
<rect x="2713.4" y="2375.1" class="st43" width="190.1" height="320"/>
<text transform="matrix(1 0 0 1 2713.3899 2404.0134)"><tspan x="0" y="0" class="st19 st44 st45">1946</tspan><tspan x="0" y="62.5" class="st19 st46 st47">Se crea la </tspan><tspan x="0" y="103.8" class="st19 st46 st47">Compaa </tspan><tspan x="0" y="145.2" class="st19 st46 st47">de Acero </tspan><tspan x="0" y="186.5" class="st19 st46 st47">del Pacfico</tspan></text>
<rect x="3116.1" y="2375.1" class="st43" width="292" height="160"/>
<text transform="matrix(1 0 0 1 3116.0667 2404.0134)"><tspan x="0" y="0" class="st19 st44 st45">1955</tspan><tspan x="0" y="62.5" class="st19 st46 st47">Fundacin de </tspan><tspan x="0" y="103.8" class="st19 st46 st47">CODELCO*</tspan></text>
<rect x="4273" y="2375.1" class="st43" width="292" height="320"/>
<text transform="matrix(1 0 0 1 4272.981 2404.0134)"><tspan x="0" y="0" class="st19 st44 st45">1995</tspan><tspan x="0" y="62.5" class="st19 st46 st47">Eliminacin del </tspan><tspan x="0" y="103.8" class="st19 st46 st47">plomo de los </tspan><tspan x="0" y="145.2" class="st19 st46 st47">combustibles</tspan></text>
<rect x="4759.3" y="2375.1" class="st43" width="331.7" height="320"/>
<text transform="matrix(1 0 0 1 4759.2866 2404.0134)"><tspan x="0" y="0" class="st19 st44 st45">2017</tspan><tspan x="0" y="62.5" class="st19 st46 st47">Tornado en Quillota, </tspan><tspan x="0" y="103.8" class="st19 st46 st47">regin de </tspan><tspan x="0" y="145.2" class="st19 st46 st47">Valparaso, Chile. </tspan><tspan x="0" y="186.5" class="st19 st46 st47">Alcanzando al </tspan><tspan x="0" y="227.8" class="st19 st46 st47">menos 80 km/hr</tspan></text>
<rect x="5273.9" y="2375.1" class="st43" width="380.2" height="320"/>
<text transform="matrix(1 0 0 1 5273.8774 2404.0134)"><tspan x="0" y="0" class="st19 st44 st45">2019</tspan><tspan x="0" y="62.5" class="st19 st46 st47">Tornado en Los </tspan><tspan x="0" y="103.8" class="st19 st46 st47">ngeles, Chile. </tspan><tspan x="0" y="145.2" class="st19 st46 st47">Alcanzando los 218 </tspan><tspan x="0" y="186.5" class="st19 st46 st47">km/hr, dejando 18 </tspan><tspan x="0" y="227.8" class="st19 st46 st47">personas heridas </tspan></text>
<rect x="5928.6" y="2375.1" class="st43" width="415.9" height="320"/>
<text transform="matrix(1 0 0 1 5928.6108 2404.0134)"><tspan x="0" y="0" class="st19 st44 st45">2020</tspan><tspan x="0" y="62.5" class="st19 st46 st47">Se registr la temperatura </tspan><tspan x="0" y="103.8" class="st19 st46 st47">ms alta registrada en el </tspan><tspan x="0" y="145.2" class="st19 st46 st47">continente antrtico, </tspan><tspan x="0" y="186.5" class="st19 st46 st47">llegando a los 18C</tspan></text>
<rect x="6566" y="2375.1" class="st43" width="351.3" height="320"/>
<text transform="matrix(1 0 0 1 6566.0181 2404.0134)"><tspan x="0" y="0" class="st19 st44 st45">2021</tspan><tspan x="0" y="62.5" class="st19 st46 st47">Tornados en la regin </tspan><tspan x="0" y="103.8" class="st19 st46 st47">de la Araucana, Los </tspan><tspan x="0" y="145.2" class="st19 st46 st47">Lagos y Biobo, Chile</tspan></text>
<rect x="1418.2" y="5.2" class="st43" width="274.6" height="320"/>
<text transform="matrix(1 0 0 1 1418.1682 34.1082)"><tspan x="0" y="0" class="st19 st44 st45">1883</tspan><tspan x="0" y="62.5" class="st19 st46 st47">Inicios del </tspan><tspan x="0" y="103.8" class="st19 st46 st47">alumbrado </tspan><tspan x="0" y="145.2" class="st19 st46 st47">elctrico, </tspan><tspan x="0" y="186.5" class="st19 st46 st47">Santiago, Chile</tspan></text>
<rect x="1826.3" y="5.2" class="st43" width="206.2" height="320"/>
<text transform="matrix(1 0 0 1 1826.344 34.1082)"><tspan x="0" y="0" class="st19 st44 st45">1900</tspan><tspan x="0" y="62.5" class="st19 st46 st47">Se inaugura </tspan><tspan x="0" y="103.8" class="st19 st46 st47">la Estacin </tspan><tspan x="0" y="145.2" class="st19 st46 st47">Central de </tspan><tspan x="0" y="186.5" class="st19 st46 st47">Santiago</tspan></text>
<rect x="2159" y="5.2" class="st43" width="358.2" height="320"/>
<text transform="matrix(1 0 0 1 2158.9915 34.1082)"><tspan x="0" y="0" class="st19 st44 st45">1910</tspan><tspan x="0" y="62.5" class="st19 st46 st47">Se inaugura el </tspan><tspan x="0" y="103.8" class="st19 st46 st47">Ferrocarril </tspan><tspan x="0" y="145.2" class="st19 st46 st47">Transandino entre Los </tspan><tspan x="0" y="186.5" class="st19 st46 st47">Andes y Mendoza</tspan></text>
<rect x="2766.9" y="5.2" class="st43" width="300.5" height="320"/>
<text transform="matrix(1 0 0 1 2766.9153 34.1082)"><tspan x="0" y="0" class="st19 st44 st45">1934</tspan><tspan x="0" y="62.5" class="st19 st46 st47">Tromba marina en </tspan><tspan x="0" y="103.8" class="st19 st46 st47">regin del BioBo, </tspan><tspan x="0" y="145.2" class="st19 st46 st47">Chile. 27 </tspan><tspan x="0" y="186.5" class="st19 st46 st47">fallecidos y 599 </tspan><tspan x="0" y="227.8" class="st19 st46 st47">heridos</tspan></text>
<rect x="3189.6" y="5.2" class="st43" width="198.1" height="320"/>
<text transform="matrix(1 0 0 1 3189.5872 34.1082)"><tspan x="0" y="0" class="st19 st44 st45">1950</tspan><tspan x="0" y="62.5" class="st19 st46 st47">Fundacin </tspan><tspan x="0" y="103.8" class="st19 st46 st47">de la ENAP*</tspan></text>
<rect x="3178.5" y="160.1" class="st43" width="240.5" height="49.6"/>
<text transform="matrix(1 0 0 1 3178.5476 179.3379)"><tspan x="0" y="0" class="st48 st41 st49">*Empresa Nacional </tspan><tspan x="0" y="30" class="st48 st41 st49">  del Petrleo</tspan></text>
<rect x="4195.7" y="5.2" class="st43" width="343.5" height="232.9"/>
<text transform="matrix(1 0 0 1 4195.7007 34.1082)"><tspan x="0" y="0" class="st19 st44 st45">1973</tspan><tspan x="0" y="62.5" class="st19 st46 st47">Calentamiento </tspan><tspan x="0" y="103.8" class="st19 st46 st47">global: Relacin CO2 </tspan><tspan x="0" y="145.2" class="st19 st46 st47">calentamiento </tspan><tspan x="0" y="186.5" class="st19 st46 st47">sugerido por Lorius</tspan></text>
<rect x="4734" y="5.2" class="st43" width="235.8" height="192"/>
<text transform="matrix(1 0 0 1 4733.981 34.1082)"><tspan x="0" y="0" class="st19 st44 st45">2016</tspan><tspan x="0" y="62.5" class="st19 st46 st47">Ao ms </tspan><tspan x="0" y="103.8" class="st19 st46 st47">clido de Chile </tspan><tspan x="0" y="145.2" class="st19 st46 st47">hasta la fecha</tspan></text>
<rect x="5249.1" y="5.2" class="st43" width="333.3" height="223.6"/>
<text transform="matrix(1 0 0 1 5249.1392 34.1082)"><tspan x="0" y="0" class="st19 st44 st45">2017</tspan><tspan x="0" y="62.5" class="st19 st46 st47">ltimo censo de </tspan><tspan x="0" y="103.8" class="st19 st46 st47">poblacin en Chile, </tspan><tspan x="0" y="145.2" class="st19 st46 st47">arrojando 17.574.003 </tspan><tspan x="0" y="186.5" class="st19 st46 st47">habitantes</tspan></text>
<rect x="5824.7" y="7.1" class="st43" width="399.5" height="221.6"/>
<text transform="matrix(1 0 0 1 5824.7485 36.0769)"><tspan x="0" y="0" class="st19 st44 st45">2019</tspan><tspan x="0" y="62.5" class="st19 st46 st47">Tornado en </tspan><tspan x="0" y="103.8" class="st19 st46 st47">Talcahuano-Concepcin</tspan><tspan x="0" y="145.2" class="st19 st46 st47">, Chile. 1 fallecido y 23 </tspan><tspan x="0" y="186.5" class="st19 st46 st47">heridos</tspan></text>
<rect x="6363.1" y="7.1" class="st43" width="554.8" height="230.9"/>
<text transform="matrix(1 0 0 1 6363.1128 36.0769)"><tspan x="0" y="0" class="st19 st44 st45">2021</tspan><tspan x="0" y="62.5" class="st19 st46 st47">Rcord de temperaturas altas y </tspan><tspan x="0" y="103.8" class="st19 st46 st47">olas de calor en la zona sur-austral, </tspan><tspan x="0" y="145.2" class="st19 st46 st47">Chile. Con temperaturas sobre los </tspan><tspan x="0" y="186.5" class="st19 st46 st47">25C y 30C</tspan></text>
<rect x="650.8" y="202.6" class="st43" width="3" height="0"/>
<rect x="3106.2" y="2522.7" class="st43" width="240.5" height="83.5"/>
<text transform="matrix(1 0 0 1 3106.158 2541.9741)"><tspan x="0" y="0" class="st48 st41 st49">*La Corporacin  </tspan><tspan x="0" y="30" class="st48 st41 st49">  Nacional del </tspan><tspan x="0" y="60" class="st48 st41 st49">  Cobre de Chile</tspan></text>
</svg>
