<?xml version="1.0" encoding="utf-8"?>
<!-- Generator: Adobe Illustrator 25.2.0, SVG Export Plug-In . SVG Version: 6.00 Build 0)  -->
<svg version="1.1" id="Layer_1" xmlns="http://www.w3.org/2000/svg" xmlns:xlink="http://www.w3.org/1999/xlink" x="0px" y="0px"
	 viewBox="0 0 926.9 152.6" style="enable-background:new 0 0 926.9 152.6;" xml:space="preserve">
<g>
	<g>
		<g>
			<g>
				<g>
					<rect x="812.6" y="65.6" style="fill:#03688B;" width="99.8" height="87"/>
					<rect x="14.4" y="65.6" style="fill:#8A4614;" width="99.8" height="87"/>
					<rect x="114.1" y="65.6" style="fill:#D0AC7F;" width="99.8" height="87"/>
					<rect x="213.9" y="65.6" style="fill:#E5BD89;" width="99.8" height="87"/>
					<rect x="313.7" y="65.6" style="fill:#FACF98;" width="99.8" height="87"/>
					<rect x="413.5" y="65.6" style="fill:#FFFFFF;" width="99.8" height="87"/>
					<rect x="513.3" y="65.6" style="fill:#BCE1E9;" width="99.8" height="87"/>
					<rect x="613" y="65.6" style="fill:#B3DDE2;" width="99.8" height="87"/>
					<rect x="712.8" y="65.6" style="fill:#9CD3D4;" width="99.8" height="87"/>
				</g>
			</g>
		</g>
		<g>
			<line style="fill:none;stroke:#1D1D1B;stroke-width:2.9068;stroke-miterlimit:10;" x1="643" y1="65.6" x2="643" y2="44.8"/>
			<line style="fill:none;stroke:#1D1D1B;stroke-width:2.9009;stroke-miterlimit:10;" x1="103.3" y1="65.6" x2="103.3" y2="44.9"/>
			<line style="fill:none;stroke:#1D1D1B;stroke-width:2.9009;stroke-miterlimit:10;" x1="282.8" y1="65.6" x2="282.8" y2="44.9"/>
			<line style="fill:none;stroke:#1D1D1B;stroke-width:5.8018;stroke-miterlimit:10;" x1="463.4" y1="65.6" x2="463.4" y2="44.9"/>
			<line style="fill:none;stroke:#1D1D1B;stroke-width:2.9009;stroke-miterlimit:10;" x1="823.1" y1="65.6" x2="823.1" y2="44.9"/>
		</g>
		<line style="fill:none;stroke:#1D1D1B;stroke-width:4.469;stroke-miterlimit:10;" x1="0" y1="65.6" x2="926.9" y2="65.6"/>
	</g>
	<g>
		<g>
			<g>
				<g>
					<text transform="matrix(1 0 0 1 86.1548 27.8379)" style="fill:#1D1D1B; font-family:'Fabriga'; font-size:33.743px;">-4</text>
				</g>
			</g>
			<g>
				<g>
					<text transform="matrix(1 0 0 1 266.1607 27.8379)" style="fill:#1D1D1B; font-family:'Fabriga'; font-size:33.743px;">-2</text>
				</g>
			</g>
			<g>
				<g>
					<text transform="matrix(1 0 0 1 453.3726 27.8379)" style="fill:#1D1D1B; font-family:'Fabriga'; font-size:33.743px;">0</text>
				</g>
			</g>
			<g>
				<g>
					<text transform="matrix(1 0 0 1 633.6323 27.8379)" style="fill:#1D1D1B; font-family:'Fabriga'; font-size:33.743px;">2</text>
				</g>
			</g>
			<g>
				<g>
					<text transform="matrix(1 0 0 1 813.2427 27.8379)" style="fill:#1D1D1B; font-family:'Fabriga'; font-size:33.743px;">4</text>
				</g>
			</g>
		</g>
	</g>
</g>
</svg>
